/* XPM */
static char * blue4_xpm[] = {
"64 64 222 2",
"  	c #FF00FF",
". 	c #F768FF",
"+ 	c #E79DFF",
"@ 	c #D8B3FF",
"# 	c #CBBDFF",
"$ 	c #BFC0FF",
"% 	c #B5C0FF",
"& 	c #AEBEFF",
"* 	c #AABDFF",
"= 	c #A9BDFF",
"- 	c #B4BFFF",
"; 	c #BEC0FF",
"> 	c #CABDFF",
", 	c #F668FF",
"' 	c #ED8CFF",
") 	c #D6B5FF",
"! 	c #BDC0FF",
"~ 	c #A8BCFF",
"{ 	c #A7BBFF",
"] 	c #A6BAFF",
"^ 	c #BCC0FF",
"/ 	c #D5B5FF",
"( 	c #F95BFF",
"_ 	c #DDADFF",
": 	c #A9BCFF",
"< 	c #A5B9FF",
"[ 	c #A4B9FF",
"} 	c #A4B8FF",
"| 	c #A3B8FF",
"1 	c #F862FF",
"2 	c #B3C0FF",
"3 	c #A5BAFF",
"4 	c #A2B7FF",
"5 	c #A1B6FF",
"6 	c #A0B6FF",
"7 	c #B2BFFF",
"8 	c #DFAAFF",
"9 	c #B7C0FF",
"0 	c #A1B7FF",
"a 	c #A0B5FF",
"b 	c #9FB5FF",
"c 	c #9EB4FF",
"d 	c #9DB3FF",
"e 	c #B6BFFF",
"f 	c #EE89FF",
"g 	c #C9BEFF",
"h 	c #9CB3FF",
"i 	c #9CB2FF",
"j 	c #9BB2FF",
"k 	c #9AB1FF",
"l 	c #99B0FF",
"m 	c #C8BDFF",
"n 	c #E1A8FF",
"o 	c #B4C0FF",
"p 	c #98AFFF",
"q 	c #97AFFF",
"r 	c #96AEFF",
"s 	c #96ADFF",
"t 	c #95ADFF",
"u 	c #B3BFFF",
"v 	c #E0A8FF",
"w 	c #FC44FF",
"x 	c #D7B4FF",
"y 	c #94ACFF",
"z 	c #93ACFF",
"A 	c #92ABFF",
"B 	c #91AAFF",
"C 	c #D6B4FF",
"D 	c #F764FF",
"E 	c #D1BAFF",
"F 	c #98B0FF",
"G 	c #97AEFF",
"H 	c #90A9FF",
"I 	c #8FA8FF",
"J 	c #8EA8FF",
"K 	c #8DA7FF",
"L 	c #8DA6FF",
"M 	c #8CA6FF",
"N 	c #D0B9FF",
"O 	c #CFBBFF",
"P 	c #8BA5FF",
"Q 	c #8AA5FF",
"R 	c #89A4FF",
"S 	c #88A3FF",
"T 	c #87A3FF",
"U 	c #CEBAFF",
"V 	c #8FA9FF",
"W 	c #8AA4FF",
"X 	c #86A2FF",
"Y 	c #85A1FF",
"Z 	c #84A0FF",
"` 	c #839FFF",
" .	c #829EFF",
"..	c #94ADFF",
"+.	c #87A2FF",
"@.	c #85A0FF",
"#.	c #819EFF",
"$.	c #809CFF",
"%.	c #7E9BFF",
"&.	c #7D9BFF",
"*.	c #7D9AFF",
"=.	c #7C9AFF",
"-.	c #7F9CFF",
";.	c #7B99FF",
">.	c #7A99FF",
",.	c #7D9CFF",
"'.	c #7E9CFF",
").	c #7E9DFF",
"!.	c #7F9EFF",
"~.	c #80A0FF",
"{.	c #82A2FF",
"].	c #83A4FF",
"^.	c #84A5FF",
"/.	c #85A5FF",
"(.	c #85A6FF",
"_.	c #93ABFF",
":.	c #809DFF",
"<.	c #83A3FF",
"[.	c #87A8FF",
"}.	c #89ABFF",
"|.	c #8AACFF",
"1.	c #8BAEFF",
"2.	c #8CAEFF",
"3.	c #8CAFFF",
"4.	c #C7BDFF",
"5.	c #86A1FF",
"6.	c #809FFF",
"7.	c #86A7FF",
"8.	c #8EB1FF",
"9.	c #90B4FF",
"0.	c #92B6FF",
"a.	c #93B8FF",
"b.	c #94B9FF",
"c.	c #8DB0FF",
"d.	c #94B8FF",
"e.	c #96BCFF",
"f.	c #99BFFF",
"g.	c #9BC1FF",
"h.	c #9CC3FF",
"i.	c #9DC4FF",
"j.	c #9EC5FF",
"k.	c #F762FF",
"l.	c #88A9FF",
"m.	c #98BEFF",
"n.	c #9FC7FF",
"o.	c #A2CBFF",
"p.	c #A5CEFF",
"q.	c #A7D0FF",
"r.	c #A8D1FF",
"s.	c #A8D2FF",
"t.	c #D8B2FF",
"u.	c #7F9FFF",
"v.	c #93B7FF",
"w.	c #98BDFF",
"x.	c #A1C9FF",
"y.	c #A6CEFF",
"z.	c #AAD3FF",
"A.	c #ADD8FF",
"B.	c #B0DCFF",
"C.	c #B2DEFF",
"D.	c #B4E0FF",
"E.	c #B4E1FF",
"F.	c #B1BEFF",
"G.	c #8FB2FF",
"H.	c #9AC0FF",
"I.	c #ABD5FF",
"J.	c #B5E2FF",
"K.	c #B9E7FF",
"L.	c #BDECFF",
"M.	c #C0EFFF",
"N.	c #C1F1FF",
"O.	c #C2F2FF",
"P.	c #95B9FF",
"Q.	c #AFDAFF",
"R.	c #BCEAFF",
"S.	c #C7F8FF",
"T.	c #CCFEFF",
"U.	c #CFFFFF",
"V.	c #D1FFFF",
"W.	c #D2FFFF",
"X.	c #BCBFFF",
"Y.	c #A2CAFF",
"Z.	c #B1DDFF",
"`.	c #C9FBFF",
" +	c #D7FFFF",
".+	c #DDFFFF",
"++	c #E1FFFF",
"@+	c #E4FFFF",
"#+	c #E5FFFF",
"$+	c #BBEAFF",
"%+	c #C5F5FF",
"&+	c #D8FFFF",
"*+	c #EAFFFF",
"=+	c #F1FFFF",
"-+	c #F7FFFF",
";+	c #FBFFFF",
">+	c #FCFFFF",
",+	c #C6F7FF",
"'+	c #E9FFFF",
")+	c #F5FFFF",
"!+	c #FFFFFF",
"~+	c #BBBFFF",
"{+	c #DFFFFF",
"]+	c #EDFFFF",
"^+	c #E69DFF",
"/+	c #D7B2FF",
"(+	c #C9BCFF",
"_+	c #BDBFFF",
":+	c #B2BEFF",
"<+	c #ABBCFF",
"[+	c #BABFFF",
"}+	c #D4B5FF",
"|+	c #DCADFF",
"1+	c #B0BDFF",
"2+	c #F85BFF",
"3+	c #B4BEFF",
"4+	c #DEAAFF",
"5+	c #C6BDFF",
"6+	c #E0A7FF",
"7+	c #D5B4FF",
"8+	c #CFB9FF",
"9+	c #CDBAFF",
"                                                . + @ # $ % & * = & - ; > @ + ,                                                 ",
"                                          ' ) ! = ~ ~ { { { ] ] ] ] ] { { { ~ ~ ^ / '                                           ",
"                                    ( _ ; : ~ { ] ] < < [ } } | | | } } [ < < ] ] { ~ ! _ (                                     ",
"                                1 @ 2 ~ { ] 3 [ } | 4 4 5 5 6 6 6 6 6 5 5 4 4 | } [ 3 ] { 7 @ 1                                 ",
"                              8 9 ~ { ] < } 4 0 5 a b c c d d d d d d d c c b a 5 0 4 } < ] { e 8                               ",
"                          f g : { ] < | 4 5 b c d h i j k k l l l l l k k j i h d c b 5 4 | < ] { m f                           ",
"                        n o ~ ] < | 4 6 b c h j k l p q r r s t t t s r r q p l k j h c b 6 4 | < ] u v                         ",
"                    w x = { ] [ 4 5 b d i k l q r t y z A A B B B B B A A z y t r q l k i d b 5 4 [ ] { C w                     ",
"                  D E : { < | 0 a c i k F G t y A B H I J K K L M L K K J I H B A y t G F k i c a 0 | < { N D                   ",
"                D O : { < | 5 b d j l G t z B H J K P Q R S S S T S S S R Q P K J H B z t G l j d b 5 | < { U D                 ",
"              w E : { < 4 6 c i k p s z B V K P W S X Y Z ` `  . . .` ` Z Y X S W P K V B z s p k i c 6 4 < { N w               ",
"              x : { < 4 6 c i l G ..A H K P R +.@.` #.$.%.&.*.=.=.=.*.&.%.$.#.` @.+.R P K H A ..G l i c 6 4 < { C               ",
"            n = { < 4 6 c j l r y B J M R +.Z  .-.&.;.>.=.,.'.).).).'.,.=.>.;.&.-. .Z +.R M J B y r l j c 6 4 < { v             ",
"          f o { < | 6 c j l r z H K Q S @. .-.=.>.&.!.~.{.].^./.(./.^.].{.~.!.&.>.=.-. .@.S Q K H z r l j c 6 | < u f           ",
"          g ~ ] | 5 c i l r _.H K W X ` :.*.;.,.~.<.(.[.}.|.1.2.3.2.1.|.}.[.(.<.~.,.;.*.:.` X W K H _.r l i c 5 | ] 4.          ",
"        8 : ] [ 0 b i l r z H K R 5. .-.;.&.6.].7.}.2.8.9.0.a.b.b.b.a.0.9.8.2.}.7.].6.&.;.-. .5.R K H z r l i b 0 [ ] 8         ",
"      1 9 { < 4 a d k G y H K R Y  .%.>.).{.7.}.c.9.d.e.f.g.h.i.j.i.h.g.f.e.d.9.c.}.7.{.).>.%. .Y R K H y G k d a 4 < e k.      ",
"      @ ~ ] | 5 c j p ..B K W 5. .&.;.!.].l.2.9.b.m.h.n.o.p.q.r.s.r.q.p.o.n.h.m.b.9.2.l.].!.;.&. .5.W K B ..p j c 5 | ] t.      ",
"    ( 2 { < 4 b i l s A J Q X  .%.;.u.^.}.8.v.w.h.x.y.z.A.B.C.D.E.D.C.B.A.z.y.x.h.w.v.8.}.^.u.;.%. .X Q J A s l i b 4 < F.(     ",
"    _ ~ ] | 6 d k G z H M S ` -.>.!.^.}.G.b.H.n.p.I.B.J.K.L.M.N.O.N.M.L.K.J.B.I.p.n.H.b.G.}.^.!.>.-.` S M H z G k d 6 | ] _     ",
"    ; { < 4 b i F t B K R @.:.;.).].}.G.P.g.x.s.Q.J.R.O.S.T.U.V.W.V.U.T.S.O.R.J.Q.s.x.g.P.G.}.].).;.:.@.R K B t F i b 4 < X.    ",
"  ' : ] } 5 c k G z V P +. .*.&.{.l.8.b.g.Y.z.Z.K.N.`.V. +.+++@+#+@+++.+ +V.`.N.K.Z.z.Y.g.b.8.l.{.&.*. .+.P V z G k c 5 } ] '   ",
"  ) ~ 3 4 b h l t B K R Z -.;.6.7.2.v.H.x.z.C.$+%+U.&+++*+=+-+;+>+;+-+=+*+++&+U.%+$+C.z.x.H.v.2.7.6.;.-.Z R K B t l h b 4 3 /   ",
"  ! { [ 0 c j q y H P +. .=.,.].}.9.w.n.s.Z.$+,+V..+'+)+!+!+!+!+!+!+!+!+!+)+'+.+V.,+$+Z.s.n.w.9.}.].,.=. .+.P H y q j c 0 [ ~+  ",
". = ] } 5 d k r A J W @.-.>.~.7.c.b.h.p.Q.K.%+V.{+]+>+!+!+!+!+!+!+!+!+!+!+!+>+]+{+V.%+K.Q.p.h.b.c.7.~.>.-.@.W J A r k d 5 } ] , ",
"+ ~ ] | a h l t B K S ` &.&.<.}.9.m.x.I.J.N.U..+]+!+!+!+!+!+!+!+!+!+!+!+!+!+!+!+]+.+U.N.J.I.x.m.9.}.<.&.&.` S K B t l h a | ] ^+",
"@ ~ < 4 b i p y H P X #.;.!.(.2.d.h.y.B.R.`.&+'+>+!+!+!+!+!+!+!+!+!+!+!+!+!+!+!+>+'+&+`.R.B.y.h.d.2.(.!.;.#.X P H y p i b 4 < /+",
"# { < 4 c j q z I Q Y $.>.~.[.8.e.n.z.J.O.V.++)+!+!+!+!+!+!+!+!+!+!+!+!+!+!+!+!+!+)+++V.O.J.z.n.e.8.[.~.>.$.Y Q I z q j c 4 < (+",
"$ { [ 5 c k r A J R Z %.=.{.}.9.f.o.A.K.S. +*+!+!+!+!+!+!+!+!+!+!+!+!+!+!+!+!+!+!+!+*+ +S.K.A.o.f.9.}.{.=.%.Z R J A r k c 5 [ _+",
"% { } 5 d k r A K S ` &.,.].|.0.g.p.B.L.T..+=+!+!+!+!+!+!+!+!+!+!+!+!+!+!+!+!+!+!+!+=+.+T.L.B.p.g.0.|.].,.&.` S K A r k d 5 } :+",
"& ] } 6 d l s B K S ` *.'.^.1.a.h.q.C.M.U.++-+!+!+!+!+!+!+!+!+!+!+!+!+!+!+!+!+!+!+!+-+++U.M.C.q.h.a.1.^.'.*.` S K B s l d 6 } <+",
"* ] | 6 d l t B L S  .=.)./.2.b.i.r.D.N.V.@+;+!+!+!+!+!+!+!+!+!+!+!+!+!+!+!+!+!+!+!+;+@+V.N.D.r.i.b.2./.).=. .S L B t l d 6 | { ",
"= ] | 6 d l t B M T  .=.).(.3.b.j.s.E.O.W.#+>+!+!+!+!+!+!+!+!+!+!+!+!+!+!+!+!+!+!+!+>+#+W.O.E.s.j.b.3.(.).=. .T M B t l d 6 | { ",
"& ] | 6 d l t B L S  .=.)./.2.b.i.r.D.N.V.@+;+!+!+!+!+!+!+!+!+!+!+!+!+!+!+!+!+!+!+!+;+@+V.N.D.r.i.b.2./.).=. .S L B t l d 6 | <+",
"- ] } 6 d l s B K S ` *.'.^.1.a.h.q.C.M.U.++-+!+!+!+!+!+!+!+!+!+!+!+!+!+!+!+!+!+!+!+-+++U.M.C.q.h.a.1.^.'.*.` S K B s l d 6 } :+",
"; { } 5 d k r A K S ` &.,.].|.0.g.p.B.L.T..+=+!+!+!+!+!+!+!+!+!+!+!+!+!+!+!+!+!+!+!+=+.+T.L.B.p.g.0.|.].,.&.` S K A r k d 5 } X.",
"> { [ 5 c k r A J R Z %.=.{.}.9.f.o.A.K.S. +*+!+!+!+!+!+!+!+!+!+!+!+!+!+!+!+!+!+!+!+*+ +S.K.A.o.f.9.}.{.=.%.Z R J A r k c 5 [ (+",
"@ { < 4 c j q z I Q Y $.>.~.[.8.e.n.z.J.O.V.++)+!+!+!+!+!+!+!+!+!+!+!+!+!+!+!+!+!+)+++V.O.J.z.n.e.8.[.~.>.$.Y Q I z q j c 4 < /+",
"+ ~ < 4 b i p y H P X #.;.!.(.2.d.h.y.B.R.`.&+'+>+!+!+!+!+!+!+!+!+!+!+!+!+!+!+!+>+'+&+`.R.B.y.h.d.2.(.!.;.#.X P H y p i b 4 < ^+",
", ~ ] | a h l t B K S ` &.&.<.}.9.m.x.I.J.N.U..+]+!+!+!+!+!+!+!+!+!+!+!+!+!+!+!+]+.+U.N.J.I.x.m.9.}.<.&.&.` S K B t l h a | ] , ",
"  ^ ] } 5 d k r A J W @.-.>.~.7.c.b.h.p.Q.K.%+V.{+]+>+!+!+!+!+!+!+!+!+!+!+!+>+]+{+V.%+K.Q.p.h.b.c.7.~.>.-.@.W J A r k d 5 } [+  ",
"  / { [ 0 c j q y H P +. .=.,.].}.9.w.n.s.Z.$+,+V..+'+)+!+!+!+!+!+!+!+!+!+)+'+.+V.,+$+Z.s.n.w.9.}.].,.=. .+.P H y q j c 0 [ }+  ",
"  ' ~ 3 4 b h l t B K R Z -.;.6.7.2.v.H.x.z.C.$+%+U.&+++*+=+-+;+>+;+-+=+*+++&+U.%+$+C.z.x.H.v.2.7.6.;.-.Z R K B t l h b 4 3 '   ",
"    ! ] } 5 c k G z V P +. .*.&.{.l.8.b.g.Y.z.Z.K.N.`.V. +.+++@+#+@+++.+ +V.`.N.K.Z.z.Y.g.b.8.l.{.&.*. .+.P V z G k c 5 } ~+    ",
"    _ { < 4 b i F t B K R @.:.;.).].}.G.P.g.x.s.Q.J.R.O.S.T.U.V.W.V.U.T.S.O.R.J.Q.s.x.g.P.G.}.].).;.:.@.R K B t F i b 4 < |+    ",
"    ( 7 ] | 6 d k G z H M S ` -.>.!.^.}.G.b.H.n.p.I.B.J.K.L.M.N.O.N.M.L.K.J.B.I.p.n.H.b.G.}.^.!.>.-.` S M H z G k d 6 | 1+2+    ",
"      @ { < 4 b i l s A J Q X  .%.;.u.^.}.8.v.w.h.x.y.z.A.B.C.D.E.D.C.B.A.z.y.x.h.w.v.8.}.^.u.;.%. .X Q J A s l i b 4 < /+      ",
"      1 e ] | 5 c j p ..B K W 5. .&.;.!.].l.2.9.b.m.h.n.o.p.q.r.s.r.q.p.o.n.h.m.b.9.2.l.].!.;.&. .5.W K B ..p j c 5 | 3+k.      ",
"        8 { < 4 a d k G y H K R Y  .%.>.).{.7.}.c.9.d.e.f.g.h.i.j.i.h.g.f.e.d.9.c.}.7.{.).>.%. .Y R K H y G k d a 4 < 4+        ",
"          m ] [ 0 b i l r z H K R 5. .-.;.&.6.].7.}.2.8.9.0.a.b.b.b.a.0.9.8.2.}.7.].6.&.;.-. .5.R K H z r l i b 0 [ 5+          ",
"          f u ] | 5 c i l r _.H K W X ` :.*.;.,.~.<.(.[.}.|.1.2.3.2.1.|.}.[.(.<.~.,.;.*.:.` X W K H _.r l i c 5 | F.f           ",
"            v { < | 6 c j l r z H K Q S @. .-.=.>.&.!.~.{.].^./.(./.^.].{.~.!.&.>.=.-. .@.S Q K H z r l j c 6 | < 6+            ",
"              C { < 4 6 c j l r y B J M R +.Z  .-.&.;.>.=.,.'.).).).'.,.=.>.;.&.-. .Z +.R M J B y r l j c 6 4 < 7+              ",
"              w N { < 4 6 c i l G ..A H K P R +.@.` #.$.%.&.*.=.=.=.*.&.%.$.#.` @.+.R P K H A ..G l i c 6 4 < 8+w               ",
"                D U { < 4 6 c i k p s z B V K P W S X Y Z ` `  . . .` ` Z Y X S W P K V B z s p k i c 6 4 < 9+D                 ",
"                  D N { < | 5 b d j l G t z B H J K P Q R S S S T S S S R Q P K J H B z t G l j d b 5 | < 8+D                   ",
"                    w C { < | 0 a c i k F G t y A B H I J K K L M L K K J I H B A y t G F k i c a 0 | < 7+w                     ",
"                        v u ] [ 4 5 b d i k l q r t y z A A B B B B B A A z y t r q l k i d b 5 4 [ F.6+                        ",
"                          f 4.] < | 4 6 b c h j k l p q r r s t t t s r r q p l k j h c b 6 4 | < 5+f                           ",
"                              8 e ] < | 4 5 b c d h i j k k l l l l l k k j i h d c b 5 4 | < 3+4+                              ",
"                                k.t.F.] < } 4 0 5 a b c c d d d d d d d c c b a 5 0 4 } < 1+/+k.                                ",
"                                    ( _ X.] 3 [ } | 4 4 5 5 6 6 6 6 6 5 5 4 4 | } [ 3 ~+|+2+                                    ",
"                                          ' / ~+] ] < < [ } } | | | } } [ < < ] [+}+'                                           ",
"                                                , ^+/+(+_+:+<+{ { <+:+X.(+/+^+,                                                 "};
