/* XPM */
static char * blue0_xpm[] = {
"64 64 161 2",
"  	c #FF00FF",
". 	c #F565FF",
"+ 	c #E496FF",
"@ 	c #D3A7FF",
"# 	c #C3ACFF",
"$ 	c #B4AAFF",
"% 	c #A9A4FF",
"& 	c #A09FFF",
"* 	c #9B9BFF",
"= 	c #A8A4FF",
"- 	c #E396FF",
"; 	c #EB87FF",
"> 	c #D0A8FF",
", 	c #B2A9FF",
"' 	c #9A9AFF",
") 	c #9999FF",
"! 	c #9898FF",
"~ 	c #9797FF",
"{ 	c #B2A8FF",
"] 	c #F859FF",
"^ 	c #D9A3FF",
"/ 	c #9696FF",
"( 	c #9595FF",
"_ 	c #9494FF",
": 	c #9393FF",
"< 	c #B3A9FF",
"[ 	c #D8A2FF",
"} 	c #F760FF",
"| 	c #A6A3FF",
"1 	c #9292FF",
"2 	c #9191FF",
"3 	c #9090FF",
"4 	c #A5A2FF",
"5 	c #DBA1FF",
"6 	c #ACA6FF",
"7 	c #8F8FFF",
"8 	c #8E8EFF",
"9 	c #8D8DFF",
"0 	c #8C8CFF",
"a 	c #ABA5FF",
"b 	c #DAA1FF",
"c 	c #EC84FF",
"d 	c #C0ACFF",
"e 	c #8B8BFF",
"f 	c #8A8AFF",
"g 	c #8989FF",
"h 	c #8888FF",
"i 	c #8787FF",
"j 	c #C0ABFF",
"k 	c #DD9FFF",
"l 	c #8686FF",
"m 	c #8585FF",
"n 	c #8484FF",
"o 	c #8383FF",
"p 	c #A7A3FF",
"q 	c #DC9EFF",
"r 	c #FB43FF",
"s 	c #D1A8FF",
"t 	c #8181FF",
"u 	c #8080FF",
"v 	c #7F7FFF",
"w 	c #7E7EFF",
"x 	c #D0A7FF",
"y 	c #F661FF",
"z 	c #CAABFF",
"A 	c #7D7DFF",
"B 	c #7B7BFF",
"C 	c #7A7AFF",
"D 	c #CAAAFF",
"E 	c #F662FF",
"F 	c #C8ABFF",
"G 	c #7C7CFF",
"H 	c #C7ABFF",
"I 	c #8282FF",
"J 	c #C9AAFF",
"K 	c #9C9CFF",
"L 	c #A6A2FF",
"M 	c #9E9EFF",
"N 	c #A1A1FF",
"O 	c #A2A2FF",
"P 	c #A3A3FF",
"Q 	c #A4A4FF",
"R 	c #BFABFF",
"S 	c #A7A7FF",
"T 	c #AAAAFF",
"U 	c #ABABFF",
"V 	c #ADADFF",
"W 	c #AEAEFF",
"X 	c #DAA0FF",
"Y 	c #9D9DFF",
"Z 	c #A5A5FF",
"` 	c #B1B1FF",
" .	c #B3B3FF",
"..	c #B6B6FF",
"+.	c #B8B8FF",
"@.	c #B9B9FF",
"#.	c #AAA4FF",
"$.	c #9F9FFF",
"%.	c #A9A9FF",
"&.	c #B7B7FF",
"*.	c #BBBBFF",
"=.	c #BFBFFF",
"-.	c #C1C1FF",
";.	c #C4C4FF",
">.	c #C5C5FF",
",.	c #D2A6FF",
"'.	c #A6A6FF",
").	c #ACACFF",
"!.	c #B2B2FF",
"~.	c #BDBDFF",
"{.	c #C2C2FF",
"].	c #C7C7FF",
"^.	c #CBCBFF",
"/.	c #CFCFFF",
"(.	c #D1D1FF",
"_.	c #D3D3FF",
":.	c #A4A1FF",
"<.	c #B4B4FF",
"[.	c #C8C8FF",
"}.	c #D4D4FF",
"|.	c #DADAFF",
"1.	c #DEDEFF",
"2.	c #E1E1FF",
"3.	c #E3E3FF",
"4.	c #E4E4FF",
"5.	c #CDCDFF",
"6.	c #D5D5FF",
"7.	c #DDDDFF",
"8.	c #EAEAFF",
"9.	c #EFEFFF",
"0.	c #F3F3FF",
"a.	c #F6F6FF",
"b.	c #F7F7FF",
"c.	c #BEBEFF",
"d.	c #D0D0FF",
"e.	c #ECECFF",
"f.	c #F5F5FF",
"g.	c #FDFDFF",
"h.	c #FFFFFF",
"i.	c #DCDCFF",
"j.	c #E7E7FF",
"k.	c #F2F2FF",
"l.	c #FEFEFF",
"m.	c #CFA8FF",
"n.	c #E8E8FF",
"o.	c #B0A7FF",
"p.	c #E395FF",
"q.	c #C1ABFF",
"r.	c #9D9CFF",
"s.	c #C1AAFF",
"t.	c #AFA6FF",
"u.	c #CEA7FF",
"v.	c #EA87FF",
"w.	c #B1A7FF",
"x.	c #D7A2FF",
"y.	c #A3A0FF",
"z.	c #A8A3FF",
"A.	c #F660FF",
"B.	c #BEAAFF",
"C.	c #A5A1FF",
"D.	c #C6AAFF",
"                                                . + @ # $ % & * * & = $ # @ - .                                                 ",
"                                          ; > , ' ) ) ! ! ~ ~ ~ ~ ~ ~ ~ ! ! ) ) { > ;                                           ",
"                                    ] ^ $ ' ) ! ~ / ( ( _ _ _ : : : _ _ _ ( ( / ~ ! ) < [ ]                                     ",
"                                } @ | ) ! ~ / ( _ : 1 2 2 3 3 3 3 3 3 3 2 2 1 : _ ( / ~ ! 4 @ }                                 ",
"                              5 6 ) ! / ( _ 1 2 3 7 8 9 9 0 0 0 0 0 0 0 9 9 8 7 3 2 1 _ ( / ! a b                               ",
"                          c d ' ! / ( : 1 3 7 8 0 e f g g h h h i h h h g g f e 0 8 7 3 1 : ( / ! j c                           ",
"                        k = ) ~ ( : 1 3 8 9 e f h i l m n n o o o o o n n m l i h f e 9 8 3 1 : ( ~ p q                         ",
"                    r s ' ! / _ 1 3 8 0 e g i m n o t u v v w w w w w v v u t o n m i g e 0 8 3 1 _ / ! x r                     ",
"                  y z ' ! / : 2 7 9 e g i m o t v w A B C C B B B B B C C B A w v t o m i g e 9 7 2 : / ! D E                   ",
"                y F ' ~ ( : 3 8 0 g i m o u w G C B A w v u u t t t u u v w A B C G w u o m i g 0 8 3 : ( ~ H E                 ",
"              r z ' ~ ( 1 3 9 e h l o t w G B A v u I o n m l l i l l m n o I u v A B G w t o l h e 9 3 1 ( ~ J r               ",
"              s ' ~ ( 1 3 9 f h m I v G C A v I n l h g e 0 0 9 9 9 0 0 e g h l n I v A C G v I m h f 9 3 1 ( ~ x               ",
"            k ' ! ( 1 3 9 f i n t w B G v I n i g 0 8 3 2 1 : _ _ _ : 1 2 3 8 0 g i n I v G B w t n i f 9 3 1 ( ! q             ",
"          c = ! / : 3 9 f i n u A C A t n i f 9 3 1 ( ~ ! ' * K K K * ' ! ~ ( 1 3 9 f i n t A C A u n i f 9 3 : / L c           ",
"          d ) / : 3 9 f i n u A B w I m g 0 3 : / ) K M N O P Q Q Q P O N M K ) / : 3 0 g m I w B A u n i f 9 3 : / R           ",
"        5 ' ~ _ 2 8 e h n u A B v o l f 8 1 / ' M N Q S T U V W W W V U T S Q N M ' / 1 8 f l o v B A u n h e 8 2 _ ~ X         ",
"      } 6 ! ( 1 7 0 h m t A B v o i e 3 _ ! Y N Z T V `  ...+.@.@.@.+... .` V T Z N Y ! _ 3 e i o v B A t m h 0 7 1 ( #.}       ",
"      @ ) / : 3 9 g l I w C w o i 0 3 ( ' $.Q %.W  .&.*.=.-.;.>.>.>.;.-.=.*.&. .W %.Q $.' ( 3 0 i o w C w I l g 9 3 : / ,.      ",
"    ] | ! ( 1 8 e i o v B A I l e 3 / * N '.).!.+.~.{.].^./.(._._._.(./.^.].{.~.+.!.).'.N * / 3 e l I A B v o i e 8 1 ( :.]     ",
"    ^ ) / : 3 0 g m t G G t m f 3 ( * N S W <.*.{.[./.}.|.1.2.3.4.3.2.1.|.}./.[.{.*.<.W S N * ( 3 f m t G G t m g 0 3 : / [     ",
"    $ ! ( 1 8 e i o w C v n g 8 _ ' N S W ..~.>.5.6.7.4.8.9.0.a.b.a.0.9.8.4.7.6.5.>.~...W S N ' _ 8 g n v C w o i e 8 1 ( {     ",
"  ; ' ~ _ 3 9 g m u G A I i 0 1 ! $.'.W ..c.].d.|.3.e.f.g.h.h.h.h.h.h.h.g.f.e.3.|.d.].c...W '.$.! 1 0 i I A G u m g 9 3 _ ~ ;   ",
"  > ) / 1 7 e i o w B v n f 3 / Y Q ).<.~.].(.i.j.k.l.h.h.h.h.h.h.h.h.h.h.h.l.k.j.i.(.].~.<.).Q Y / 3 f n v B w o i e 7 1 / m.  ",
"  , ! ( 2 8 f m t G A I i 9 : ' N %.!.*.>.d.i.n.a.h.h.h.h.h.h.h.h.h.h.h.h.h.h.h.a.n.i.d.>.*.!.%.N ' : 9 i I A G t m f 8 2 ( o.  ",
". ' ~ _ 3 0 h n v C v n g 3 / M Z W +.{.5.|.j.a.h.h.h.h.h.h.h.h.h.h.h.h.h.h.h.h.h.a.j.|.5.{.+.W Z M / 3 g n v C v n h 0 3 _ ~ . ",
"+ ) / : 7 e i o w B u l 0 1 ) N T  .~.[.6.3.k.h.h.h.h.h.h.h.h.h.h.h.h.h.h.h.h.h.h.h.k.3.6.[.~. .T N ) 1 0 l u B w o i e 7 : / p.",
"@ ) ( 1 8 f l t A A I h 8 ( K Q V &.{./.7.e.l.h.h.h.h.h.h.h.h.h.h.h.h.h.h.h.h.h.h.h.l.e.7./.{.&.V Q K ( 8 h I A A t l f 8 1 ( ,.",
"# ! ( 2 9 g m u B w o g 3 ~ M S ` *.].}.4.f.h.h.h.h.h.h.h.h.h.h.h.h.h.h.h.h.h.h.h.h.h.f.4.}.].*.` S M ~ 3 g o w B u m g 9 2 ( q.",
"$ ! _ 2 9 g n v C v n e 2 ! N T  .=.^.|.8.g.h.h.h.h.h.h.h.h.h.h.h.h.h.h.h.h.h.h.h.h.h.g.8.|.^.=. .T N ! 2 e n v C v n g 9 2 _ { ",
"% ~ _ 3 0 h n v C u m 0 1 ' O U ..-./.1.9.h.h.h.h.h.h.h.h.h.h.h.h.h.h.h.h.h.h.h.h.h.h.h.9.1./.-...U O ' 1 0 m u C v n h 0 3 _ L ",
"& ~ _ 3 0 h o w B u l 0 : * P V +.;.(.2.0.h.h.h.h.h.h.h.h.h.h.h.h.h.h.h.h.h.h.h.h.h.h.h.0.2.(.;.+.V P * : 0 l u B w o h 0 3 _ r.",
"* ~ : 3 0 h o w B t l 9 _ K Q W @.>._.3.a.h.h.h.h.h.h.h.h.h.h.h.h.h.h.h.h.h.h.h.h.h.h.h.a.3._.>.@.W Q K _ 9 l t B w o h 0 3 : ~ ",
"* ~ : 3 0 i o w B t i 9 _ K Q W @.>._.4.b.h.h.h.h.h.h.h.h.h.h.h.h.h.h.h.h.h.h.h.h.h.h.h.b.4._.>.@.W Q K _ 9 i t B w o i 0 3 : ~ ",
"& ~ : 3 0 h o w B t l 9 _ K Q W @.>._.3.a.h.h.h.h.h.h.h.h.h.h.h.h.h.h.h.h.h.h.h.h.h.h.h.a.3._.>.@.W Q K _ 9 l t B w o h 0 3 : r.",
"= ~ _ 3 0 h o w B u l 0 : * P V +.;.(.2.0.h.h.h.h.h.h.h.h.h.h.h.h.h.h.h.h.h.h.h.h.h.h.h.0.2.(.;.+.V P * : 0 l u B w o h 0 3 _ L ",
"$ ~ _ 3 0 h n v C u m 0 1 ' O U ..-./.1.9.h.h.h.h.h.h.h.h.h.h.h.h.h.h.h.h.h.h.h.h.h.h.h.9.1./.-...U O ' 1 0 m u C v n h 0 3 _ { ",
"# ! _ 2 9 g n v C v n e 2 ! N T  .=.^.|.8.g.h.h.h.h.h.h.h.h.h.h.h.h.h.h.h.h.h.h.h.h.h.g.8.|.^.=. .T N ! 2 e n v C v n g 9 2 _ s.",
"@ ! ( 2 9 g m u B w o g 3 ~ M S ` *.].}.4.f.h.h.h.h.h.h.h.h.h.h.h.h.h.h.h.h.h.h.h.h.h.f.4.}.].*.` S M ~ 3 g o w B u m g 9 2 ( ,.",
"- ) ( 1 8 f l t A A I h 8 ( K Q V &.{./.7.e.l.h.h.h.h.h.h.h.h.h.h.h.h.h.h.h.h.h.h.h.l.e.7./.{.&.V Q K ( 8 h I A A t l f 8 1 ( p.",
". ) / : 7 e i o w B u l 0 1 ) N T  .~.[.6.3.k.h.h.h.h.h.h.h.h.h.h.h.h.h.h.h.h.h.h.h.k.3.6.[.~. .T N ) 1 0 l u B w o i e 7 : / . ",
"  { ~ _ 3 0 h n v C v n g 3 / M Z W +.{.5.|.j.a.h.h.h.h.h.h.h.h.h.h.h.h.h.h.h.h.h.a.j.|.5.{.+.W Z M / 3 g n v C v n h 0 3 _ t.  ",
"  > ! ( 2 8 f m t G A I i 9 : ' N %.!.*.>.d.i.n.a.h.h.h.h.h.h.h.h.h.h.h.h.h.h.h.a.n.i.d.>.*.!.%.N ' : 9 i I A G t m f 8 2 ( u.  ",
"  ; ) / 1 7 e i o w B v n f 3 / Y Q ).<.~.].(.i.j.k.l.h.h.h.h.h.h.h.h.h.h.h.l.k.j.i.(.].~.<.).Q Y / 3 f n v B w o i e 7 1 / v.  ",
"    < ~ _ 3 9 g m u G A I i 0 1 ! $.'.W ..c.].d.|.3.e.f.g.h.h.h.h.h.h.h.g.f.e.3.|.d.].c...W '.$.! 1 0 i I A G u m g 9 3 _ w.    ",
"    [ ! ( 1 8 e i o w C v n g 8 _ ' N S W ..~.>.5.6.7.4.8.9.0.a.b.a.0.9.8.4.7.6.5.>.~...W S N ' _ 8 g n v C w o i e 8 1 ( x.    ",
"    ] 4 / : 3 0 g m t G G t m f 3 ( * N S W <.*.{.[./.}.|.1.2.3.4.3.2.1.|.}./.[.{.*.<.W S N * ( 3 f m t G G t m g 0 3 : y.]     ",
"      @ ! ( 1 8 e i o v B A I l e 3 / * N '.).!.+.~.{.].^./.(._._._.(./.^.].{.~.+.!.).'.N * / 3 e l I A B v o i e 8 1 ( ,.      ",
"      } a / : 3 9 g l I w C w o i 0 3 ( ' $.Q %.W  .&.*.=.-.;.>.>.>.;.-.=.*.&. .W %.Q $.' ( 3 0 i o w C w I l g 9 3 : z.A.      ",
"        b ! ( 1 7 0 h m t A B v o i e 3 _ ! Y N Z T V `  ...+.@.@.@.+... .` V T Z N Y ! _ 3 e i o v B A t m h 0 7 1 ( X         ",
"          j ~ _ 2 8 e h n u A B v o l f 8 1 / ' M N Q S T U V W W W V U T S Q N M ' / 1 8 f l o v B A u n h e 8 2 _ B.          ",
"          c p / : 3 9 f i n u A B w I m g 0 3 : / ) K M N O P Q Q Q P O N M K ) / : 3 0 g m I w B A u n i f 9 3 : C.c           ",
"            q ! / : 3 9 f i n u A C A t n i f 9 3 1 ( ~ ! ' * K K K * ' ! ~ ( 1 3 9 f i n t A C A u n i f 9 3 : / q             ",
"              x ! ( 1 3 9 f i n t w B G v I n i g 0 8 3 2 1 : _ _ _ : 1 2 3 8 0 g i n I v G B w t n i f 9 3 1 ( x               ",
"              r D ~ ( 1 3 9 f h m I v G C A v I n l h g e 0 0 9 9 9 0 0 e g h l n I v A C G v I m h f 9 3 1 ( J r               ",
"                E H ~ ( 1 3 9 e h l o t w G B A v u I o n m l l i l l m n o I u v A B G w t o l h e 9 3 1 ( D.E                 ",
"                  E J ~ ( : 3 8 0 g i m o u w G C B A w v u u t t t u u v w A B C G w u o m i g 0 8 3 : ( J E                   ",
"                    r x ! / : 2 7 9 e g i m o t v w A B C C B B B B B C C B A w v t o m i g e 9 7 2 : / x r                     ",
"                        q L / _ 1 3 8 0 e g i m n o t u v v w w w w w v v u t o n m i g e 0 8 3 1 _ C.q                         ",
"                          c R ~ ( : 1 3 8 9 e f h i l m n n o o o o o n n m l i h f e 9 8 3 1 : ( B.c                           ",
"                              X #./ ( : 1 3 7 8 0 e f g g h h h i h h h g g f e 0 8 7 3 1 : ( z.X                               ",
"                                } ,.:./ ( _ 1 2 3 7 8 9 9 0 0 0 0 0 0 0 9 9 8 7 3 2 1 _ ( y.,.A.                                ",
"                                    ] [ { ~ / ( _ : 1 2 2 3 3 3 3 3 3 3 2 2 1 : _ ( / w.x.]                                     ",
"                                          ; m.o.~ / ( ( _ _ _ : : : _ _ _ ( ( / t.u.v.                                          ",
"                                                . p.,.q.{ L r.~ ~ r.L { s.,.p..                                                 "};
