/* XPM */
static char * clean_red_xpm[] = {
"64 64 7 1",
" 	c #190D10",
".	c #38181E",
"+	c #30181C",
"@	c #291519",
"#	c #3E1E24",
"$	c #211114",
"%	c #44242A",
"  .....++@+@@@@@  ..+++++@@@@@@@  #.++++++++@@@@ $#.+.+@@@+@@@@@",
"  #...++@@@@+@@@  #+++@+++@@@@@@  #.@+.++++++@@@ $#++.+@@+@@@@@@",
"  #..++++@@+@@@@  #+++@@++@@@@@@ $#.+@..+.+++@+@ $.+.+++@+@@@@@@",
"  ...++++@++@@@@  #.+.+@+++@@@@@$$#..++..++.+++@ $#..+++++@+@@@@",
"  #..+.+@+++@+@@$ #.++.+++++@@@@$ #...+..+..+.++ $#.++.++@++@@@@",
"  #..+.+@+++++@@ $%+.+.++++@@@@@ $####....####.+$$#.++.++++@@@+@",
"  %+..++++.++@@@$$#..+..++@+@@@@  $$ $$     $$ $$$#..+..++@+@@++",
"  #@+.++++.+@@@@ $%.....@+@@@@@@ $$          $$ $$#.+.+.++++@++.",
"  %@@..+.+..+@+@  %....+@@@@@@@@$$++++@@@@@@@@@@$$%.@++..++.++..",
"  %@++.+....+++@  #....@+@@@@@@@$$.+++@+@@@@@@+@ $%.+@++.+...+.+",
"  %+.+.....+.+@+  #...+++@+@@@@@$$#+.++@@@@@@+@+$ %+@@.@+..+..++",
"  %....++....+++  #...+++++@@@@@$$#..++@@@@@@@++$ %.+@.+@..++..+",
"  %#....@+...+.+ $...+.+++@@@@@@$$#.+.+@@@@+@@+@  %#.+..+.+@+..+",
"  %%##%%##%####.$ @+.+.+++@@@+@@ $#+..++@@@@+@@@  #%%%%%%%#####.",
"        $$$$  $$$ +@.++++@+@+@@@ $#+.+++@@@@++@@     $    $$$$ $",
"          $    $$$.+..@++++@+@@@ $#.++++@+@@+++@  $   $$     $$ ",
"  .+.+@@@@@@@@@@$$#+..@++++++@@@  ...++@++@@+.+@ $#.@+@@@@@@@@@@",
"  #@..++@@@@@@@@$$#++.+@++++@@@@  .+.++@++@++.+@ $%.@+.+@@@@@@@@",
" $#@+.+@+@@@@@@@$$%.+.++.+++@@@@ $#+@.++.+++..++  #.+..+++@+@@@@",
" $%+@.++@@+@@@@@$ #.+..+.+++@+@@ $#.+.+.+.+++..+  #+....+++@@@@@",
"  #.+.++@+@@@@@@ $%......+@+++@@  %#..+...+.+... $%...+.+++@+@@@",
"  %....+@+@@@@@@ $%.+.....+@+++@ $%%######..###.$$#....+.++++@@@",
" $%....++++@@@@@ $#.+....+++++@@  $   $ $$$$   $$$#..+..++@+@+@@",
" $%.....+++@+@@@ $#.@+...++++@@@           $$   $$#..++.+++@@+@@",
" $%..+..+.@++@@@  %.+@.+.++.+@+@  ..+.++@@@@@@@@$$%+..++.+++@@@@",
"$$%..++..+@+@@@@  %++@++..+.+++@  #++++++@@@@@@@ $%@+.+..++@@@@@",
" $#...+.++++@@@@  %+.++....+++++$ #+.++++@+@@@@@ $%+@.+.++@@@@@@",
" $%...++++++@@@@  %.+.++...+.++@ $#..+++@@+@@@@@ $%.+...+++@@@@@",
"  %+.+.+++++@@@@  %#+.+.+..+..+@ $#.+.++@+@@+@@@  #.....+++@@+@@",
"  %@...++@+@@@@@  #%%%###%%####. $#...+++++@+@@@$ #...+.+.+@+@@@",
"  #+@.+@++@@+@@@        $ $$$$$ $$%+..++++@@++@@$$#..+.++..++@@@",
" $%.+.@+++@@+@@@             $$$$$%@.+++++@+@+@@$$#..++.++.++@@@",
"  #...+.++@++@@@  .++@+++@@@@@@@$$%@+++.+++++@@@ $%...@+.+++@+@@",
"  #...+.+++++@@@  #..+++@@@@@@@@$$#+@+.++.+++@+@$ %..+@+..+++@@@",
"  %..+..++++++@@  #+.+@++@@+@@@@ $%.++.+..+++++@  %..+.@..+++@@@",
"  %......+.+@+@@$ #+++@++@+@@@@@ $%.+..+..+.++@@$ %....+.+@+@@@@",
"  %........+@@@@ $#+++@@+++@@@@@  %#.........+@+$ %......++@@+@@",
"  %.+.....+@@@@@ $#.+++@+@+@@@@@  %%%%#######.++ $%+.....++@@+@@",
"  %+++..+.++@@@@ $#.+.+++@@@@@@@ $$ $$$ $      $$$%+..+..++@++@@",
"  %.@+...++++@@@  #.+.++@+@@@@@@$$ $$$$$     $$$$$%@+.@+.++@++@@",
"  %.+@...+@+@+@@  #..+++++@@@@@@ $...+++@@@@@@@@$$%+@++@+.+++@@@",
"  %..@+..+@+++@@$ %..++@+@@@@@@@$ #.+.+@+@@@@@@@$$%+@+.+..++.+@@",
"  %..+..+.+@+.+@ $#+.+@+++@@@@@@  #...+++@@@@+@@ $#.+..+..++..+@",
"  %.....+.++..++ $#.++@+@+@@@@@@  #+.+.+++@@@@+@ $#........+..+@",
"  %#.......+.+.+$$#.++++@@@@@@@@  %+@++++@@@@++@  %#......+....+",
"  %%%#%%##.####.$$#.+.++@@@@@+@@  #@+.++@@+@++@@ $%%#%%%##%###..",
"      $$$     $$$$%...+++@@@++@@  %+.++++@++@+@@  $     $$$$$ $ ",
"       $ $     $$$%...+++@+@+@@@  %..++++@+@@+@@           $    ",
"  +.+++@@@@@@@@@$$#..++++@++@@@@  %++.++.++@++@@  ..+.+++++@@@@@",
"  .+..++++@@@@@@$$%..+++++++@@@@  %.@.++.++++++@  ..++++++@@@@@@",
"  #++...+@+@@@@@ $%.+.+@+@++@@@@  %@@+.+..+++.++ $#.+@+.+@@+@@@@",
"  #@+...@+@@@@@@ $%..++@@+++@+@@  %@+...+.+.+..+ $%+@++.+@+@@@@@",
"  %@@...++@+@@@@ $%..+.+@+++++@@  %#.+.....+...+ $%+++..+++@@+@@",
"  %+@+..++@+@@@@  %....+++@+++@@  %%####.#..###.$$%+.+..++@@+@@@",
"  %+....+@+@@@@@ $%..+..+@++++@@    $$$        $$$#+.++..++@++@@",
"  %....++@+@@@@@ $%+.+...@+.+.+@  $$$$ $        $$#...+.+.+@++@@",
"  #..+.+@@+@+@@@  %.+.+.++++..+@ $#..+++@@@@@@@@$ %+...+.+++@+@@",
"  #+.+++@+++@@@@  %.@+..+.++..+@ $#.+.+++@@@@@@@  %@+....++@@+@@",
"  %+..+@++++@@@@  %.+@....+..+++  #+..++++@@@@@@ $%@@+..++@@+@@@",
" $#@+.+.++@+@@@@  %..++...+.++.+$ #@+.++++@+@@@@ $%@++..++@++@@@",
"  #+@...++@@@@@@  %#..+.....+..+ $#+...++@++@+@@$$%+.++.+@+++@@@",
" $#+.+.++@+@@@@@  %%%%%%#%#####. $#....+.+++++@@$ #+.+@++@@++@@@",
"$$#....+++@@@@@@    $$$$$  $    $$#.+....++++@@@ $#...+@@@@+@+@@",
" $#.....++@@@@@@     $$$  $   $$$$#.++.+..+++@@@  #....+@@++@@@@"};
