/* XPM */
static char * light2_xpm[] = {
"64 64 168 2",
"  	c #FF00FF",
". 	c #F513FF",
"+ 	c #E91FFF",
"@ 	c #DF27FF",
"# 	c #00B4FF",
"$ 	c #00BDFF",
"% 	c #00BBFF",
"& 	c #00BAFF",
"* 	c #E920FF",
"= 	c #F514FF",
"- 	c #F218FF",
"; 	c #E026FF",
"> 	c #00BCFF",
", 	c #00B9FF",
"' 	c #E027FF",
") 	c #F118FF",
"! 	c #EB1EFF",
"~ 	c #00BFFF",
"{ 	c #00BEFF",
"] 	c #00C1FF",
"^ 	c #EA1FFF",
"/ 	c #ED1CFF",
"( 	c #00C4FF",
"_ 	c #00C7FF",
": 	c #ED1DFF",
"< 	c #F611FF",
"[ 	c #DD28FF",
"} 	c #00CAFF",
"| 	c #F812FF",
"1 	c #DD29FF",
"2 	c #F612FF",
"3 	c #E721FF",
"4 	c #E722FF",
"5 	c #FE02FF",
"6 	c #E423FF",
"7 	c #E424FF",
"8 	c #E523FF",
"9 	c #00C6FF",
"0 	c #E822FF",
"a 	c #00C9FF",
"b 	c #F90EFF",
"c 	c #F80EFF",
"d 	c #00C0FF",
"e 	c #00C3FF",
"f 	c #00CDFF",
"g 	c #F019FF",
"h 	c #F51EFF",
"i 	c #DE3AFF",
"j 	c #00B9FB",
"k 	c #00B7EA",
"l 	c #00B7E8",
"m 	c #00B7E6",
"n 	c #009BFF",
"o 	c #009DFF",
"p 	c #00B7E9",
"q 	c #00B7E4",
"r 	c #00B8E1",
"s 	c #00B8DD",
"t 	c #00B8DA",
"u 	c #00B8D8",
"v 	c #00B9D7",
"w 	c #EF1BFF",
"x 	c #C34CFF",
"y 	c #00B7E2",
"z 	c #00BAD2",
"A 	c #00BACD",
"B 	c #00BBC9",
"C 	c #00BBC7",
"D 	c #008BFF",
"E 	c #EA2EFF",
"F 	c #00B7E7",
"G 	c #00B8DF",
"H 	c #00BACF",
"I 	c #00BCC0",
"J 	c #00BDBA",
"K 	c #00BEB6",
"L 	c #00C0B7",
"M 	c #F613FF",
"N 	c #EA2DFF",
"O 	c #00B9D2",
"P 	c #00BDBE",
"Q 	c #00BFB7",
"R 	c #00C3B8",
"S 	c #00C6BA",
"T 	c #00C8BA",
"U 	c #00CABB",
"V 	c #00CBBC",
"W 	c #E43DFF",
"X 	c #00B8DC",
"Y 	c #00BAD1",
"Z 	c #00BCC5",
"` 	c #00BEB8",
" .	c #00CDBC",
"..	c #00D1BF",
"+.	c #00D5C1",
"@.	c #00D7C2",
"#.	c #00D8C2",
"$.	c #00C5FF",
"%.	c #D244FF",
"&.	c #00BBC4",
"*.	c #00C5B9",
"=.	c #00CCBC",
"-.	c #00D3C0",
";.	c #00D9C3",
">.	c #00DFC6",
",.	c #00E3C9",
"'.	c #00E7CB",
").	c #00E8CC",
"!.	c #00B6EB",
"~.	c #00B9D4",
"{.	c #00CEBD",
"].	c #00D6C1",
"^.	c #00EFD1",
"/.	c #00F6D6",
"(.	c #00F9D8",
"_.	c #00FBDA",
":.	c #F80FFF",
"<.	c #00C8FF",
"[.	c #00BBCB",
"}.	c #00BEBC",
"|.	c #00C4B9",
"1.	c #00E1C8",
"2.	c #00EDCF",
"3.	c #00F8D8",
"4.	c #00FFE0",
"5.	c #00FFE8",
"6.	c #00FFED",
"7.	c #00FFEF",
"8.	c #00BCC3",
"9.	c #00C1B7",
"0.	c #00E0C7",
"a.	c #00EED0",
"b.	c #00FDDB",
"c.	c #00FFF5",
"d.	c #00FFFF",
"e.	c #FFFFFF",
"f.	c #00B8DB",
"g.	c #00D0BE",
"h.	c #00DCC5",
"i.	c #00EACE",
"j.	c #00FFE9",
"k.	c #00FFFD",
"l.	c #00F4D4",
"m.	c #00FFE4",
"n.	c #00FFFA",
"o.	c #00BAD4",
"p.	c #00BCC2",
"q.	c #00C2B8",
"r.	c #00DAC4",
"s.	c #00E9CD",
"t.	c #00CFBE",
"u.	c #00DDC5",
"v.	c #00FFF7",
"w.	c #00BAD0",
"x.	c #00BDBD",
"y.	c #00F0D2",
"z.	c #00FFE3",
"A.	c #00B3FF",
"B.	c #E53DFF",
"C.	c #BA63FF",
"D.	c #008CFF",
"E.	c #EE1BFF",
"F.	c #00A8FF",
"G.	c #F01AFF",
"H.	c #46ABFF",
"I.	c #E821FF",
"J.	c #00C2FF",
"K.	c #7E7DFF",
"                                                                                                                                ",
"                                                                                                                                ",
"                                                                                                                                ",
"                                                                                                                                ",
"                                                  . + @ # $ % & & % $ # @ * =                                                   ",
"                                            - ; > , , , , , % % % % % , , , , > ' )                                             ",
"                                        ! ~ , , , % % { { ] ] ] ] ] ] ] { { % % , , ~ ^                                         ",
"                                    / { , , % { { ] ( ( _ _ _ _ _ _ _ _ _ ( ( ] { { % , ~ :                                     ",
"                                < [ , , % { ] ( _ _ } | |               | | } _ _ ( ] { % , 1 2                                 ",
"                              / $ , % { ] ( _ } |                               | } _ ( ] { % $ :                               ",
"                            3 & , % ] ( _ }                                           } _ ( ] % & 4                             ",
"                        5 6 , , { ] _ } |                                               | } _ ] { , 7 5                         ",
"                        8 , % { ( _ |                                                       | _ ( { % 7                         ",
"                      9 , % { ( } |                                                           | } ( { % 0                       ",
"                    a % % { ( }                                                                   } ( { % a                     ",
"                  b { , { ( }                                                                       } ( { { c                   ",
"                  ' , { ] _ |                           d } 9 e e e 9 { f                           | _ ] { e                   ",
"                g , % ] _ |                       h i ~ j k l m m m l k j ~ 9 f                       | _ ] % }                 ",
"                n , { ( }                       i o p q r s t u v u t s r q p o 9                       } ( { d                 ",
"              w , % ] }                     h x k y s v z A B C C C B A z v s y k ~ h                     } ] % a               ",
"              D , { _ |                   E o F G v H C I J K L L L K J I C H v G F o E                   | _ { d               ",
"            M , % ( }                   N o m s O B P Q R S T U V U T S R Q P B O s m o N                   } ( % W             ",
"            8 , { ( |                 h o m X Y Z ` R T  ...+.@.#.@.+... .T R ` Z Y X m o h                 | ( { $.            ",
"            { % ] _                   %.l s z &.K *.=.-.;.>.,.'.).'.,.>.;.-.=.*.K &.z s l %.                  _ ] $             ",
"          b , { ( }                 E !.r ~.C K *.{.].>.).^./.(._.(./.^.).>.].{.*.K C ~.r !.E                 } ( { :.          ",
"          <., { _ |                 x m t [.}.|. .@.1.2.3.4.5.6.7.6.5.4.3.2.1.@. .|.}.[.t m x                 | _ { <.          ",
"          ( % ] _                 h j r O 8.9.U +.0.a.b.5.c.d.e.e.e.d.c.5.b.a.0.+.U 9.8.O r j h                 _ ] (           ",
"          d % ] }                 i l f.A J *.g.h.i._.j.k.e.e.e.e.e.e.e.k.j._.i.h.g.*.J A f.l i                 } ] d           ",
"          $ % ( }                 ~ q v C L U ].,.l.m.n.e.e.e.e.e.e.e.e.e.n.m.l.,.].U L C v q x                 } ( $           ",
"          % { ( }                 > y o.p.q. .r.s.b.7.e.e.e.e.e.e.e.e.e.e.e.7.b.s.r. .q.p.o.y o                 } ( %           ",
"          & { ( |               h j r Y P |.t.u.a.4.v.e.e.e.e.e.e.e.e.e.e.e.v.4.a.u.t.|.P Y r j h               | ( ,           ",
"          , { ( |               h !.G w.x.*.g.>.y.z.k.e.e.e.e.e.e.e.e.e.e.e.k.z.y.>.g.*.x.w.G !.h               | ( {           ",
"          & { ( |               h !.G w.x.*.g.>.y.z.k.e.e.e.e.e.e.e.e.e.e.e.k.z.y.>.g.*.x.w.G !.h               | ( ,           ",
"          % { ( |               h j r Y P |.t.u.a.4.v.e.e.e.e.e.e.e.e.e.e.e.v.4.a.u.t.|.P Y r j h               | ( %           ",
"          $ { ( }                 > y o.p.q. .r.s.b.7.e.e.e.e.e.e.e.e.e.e.e.7.b.s.r. .q.p.o.y o                 } ( $           ",
"          d % ( }                 ~ q v C L U ].,.l.m.n.e.e.e.e.e.e.e.e.e.n.m.l.,.].U L C v q x                 } ( d           ",
"          ( % ] }                 i l f.A J *.g.h.i._.j.k.e.e.e.e.e.e.e.k.j._.i.h.g.*.J A f.l i                 } ] (           ",
"          <.% ] _                 h j r O 8.9.U +.0.a.b.5.c.d.e.e.e.d.c.5.b.a.0.+.U 9.8.O r j h                 _ ] <.          ",
"          c , { _ |                 x m t [.}.|. .@.1.2.3.4.5.6.7.6.5.4.3.2.1.@. .|.}.[.t m x                 | _ A.:.          ",
"            { { ( }                 E !.r ~.C K *.{.].>.).^./.(._.(./.^.).>.].{.*.K C ~.r !.E                 } ( A.            ",
"            $.% ] _                   %.l s z &.K *.=.-.;.>.,.'.).'.,.>.;.-.=.*.K &.z s l %.                  _ ] (             ",
"            B., { ( |                 h o m X Y Z ` R T  ...+.@.#.@.+... .T R ` Z Y X m o h                 | ( A.C.            ",
"              D.% ( }                   N o m s O B P Q R S T U V U T S R Q P B O s m o N                   } ( d               ",
"              E., { _ |                   E o F G v H C I J K L L L K J I C H v G F o E                   | _ A.a               ",
"                F.% ] }                     h ~ k y s v z A B C C C B A z v s y k x h                     } ] d                 ",
"                G., { ( }                       i o p q r s t u v u t s r q p o i                       } ( A.a                 ",
"                  @ % ] _ |                       h i ~ j k l m m m l k j ~ i h                       | _ ] e                   ",
"                  c { { ] _ |                           h E i %.%.%.i E h                           | _ ] A.:.                  ",
"                    a % { ( }                                                                       } ( H.a                     ",
"                      I.% { ( }                                                                   } ( A.9                       ",
"                        7 % { ( } |                                                           | } ( A.$.                        ",
"                        5 7 % { ( _ |                                                       | _ ( A.( 5                         ",
"                            4 & { ] _ } |                                               | } _ ] & 9                             ",
"                              <.$ % ] ( _ }                                           } _ ( ] $ <.                              ",
"                                2 1 % { ] ( _ } |                               | } _ ( ] { J.2                                 ",
"                                    <.{ % { ] ( _ _ } | |               | | } _ _ ( ] { { <.                                    ",
"                                        _ ~ % { { ] ( ( _ _ _ _ _ _ _ _ _ ( ( ] { { { _                                         ",
"                                            { e > % % { { ] ] ] ] ] ] ] { { % > e {                                             ",
"                                                  C._ e ~ > & , , & > ~ e _ K.                                                  ",
"                                                                                                                                ",
"                                                                                                                                ",
"                                                                                                                                ",
"                                                                                                                                ",
"                                                                                                                                "};
