/* XPM */
static char * light3_xpm[] = {
"64 64 116 2",
"  	c #FF00FF",
". 	c #F17AF9",
"+ 	c #E4B6F5",
"@ 	c #E0CFF3",
"# 	c #E0DCF1",
"$ 	c #E1E1ED",
"% 	c #E1E1E8",
"& 	c #E0E0E3",
"* 	c #DFDFDF",
"= 	c #E0E0E7",
"- 	c #E0DBF1",
"; 	c #E8A3F6",
"> 	c #E0D3F3",
", 	c #E1E0EC",
"' 	c #DEDEDE",
") 	c #DDDDDD",
"! 	c #DCDCDC",
"~ 	c #E0E0EC",
"{ 	c #F46BFA",
"] 	c #E1C8F4",
"^ 	c #DBDBDB",
"/ 	c #DADADA",
"( 	c #D9D9D9",
"_ 	c #F373FA",
": 	c #E0E1E6",
"< 	c #D8D8D8",
"[ 	c #D7D7D7",
"} 	c #D6D6D6",
"| 	c #DFE0E6",
"1 	c #E1C6F4",
"2 	c #E0E0E9",
"3 	c #D5D5D5",
"4 	c #D4D4D4",
"5 	c #DFE0E8",
"6 	c #E99FF6",
"7 	c #E0DDF1",
"8 	c #D3D3D3",
"9 	c #D2D2D2",
"0 	c #D1D1D1",
"a 	c #E0DCF0",
"b 	c #E2C2F4",
"c 	c #D0D0D0",
"d 	c #CFCFCF",
"e 	c #CECECE",
"f 	c #E1C2F4",
"g 	c #F951FC",
"h 	c #E0D1F3",
"i 	c #CDCDCD",
"j 	c #CCCCCC",
"k 	c #CBCBCB",
"l 	c #CACACA",
"m 	c #F851FC",
"n 	c #F275FA",
"o 	c #E0D7F2",
"p 	c #C9C9C9",
"q 	c #C8C8C8",
"r 	c #C7C7C7",
"s 	c #C6C6C6",
"t 	c #E0D8F2",
"u 	c #C5C5C5",
"v 	c #C4C4C4",
"w 	c #C3C3C3",
"x 	c #C2C2C2",
"y 	c #C1C1C1",
"z 	c #C0C0C0",
"A 	c #BFBFBF",
"B 	c #BEBEBE",
"C 	c #BDBDBD",
"D 	c #DFD7F2",
"E 	c #BCBCBC",
"F 	c #BBBBBB",
"G 	c #E0D0F3",
"H 	c #DFDFE6",
"I 	c #DFDCF0",
"J 	c #E1C5F4",
"K 	c #E2E2E2",
"L 	c #E4E4E4",
"M 	c #E5E5E5",
"N 	c #E6E6E6",
"O 	c #E7E7E7",
"P 	c #E1E1E1",
"Q 	c #E9E9E9",
"R 	c #ECECEC",
"S 	c #EEEEEE",
"T 	c #F1F1F1",
"U 	c #F2F2F2",
"V 	c #DFCFF3",
"W 	c #E0E0E0",
"X 	c #EBEBEB",
"Y 	c #EFEFEF",
"Z 	c #F4F4F4",
"` 	c #F8F8F8",
" .	c #FBFBFB",
"..	c #FEFEFE",
"+.	c #FFFFFF",
"@.	c #DEDFE5",
"#.	c #F5F5F5",
"$.	c #E0C8F4",
"%.	c #F9F9F9",
"&.	c #DFDFEC",
"*.	c #FDFDFD",
"=.	c #E7A3F6",
"-.	c #DFD2F3",
";.	c #DFDFEB",
">.	c #E3B6F5",
",.	c #DFDBF1",
"'.	c #DEDEE1",
").	c #DDDEE1",
"!.	c #DEDEE4",
"~.	c #DEDEE7",
"{.	c #E0C5F4",
"].	c #DFDBF0",
"^.	c #DEDEE5",
"/.	c #E89FF6",
"(.	c #DFD0F3",
"_.	c #DFD6F2",
"                                                . + @ # $ % & * * & = $ - @ + .                                                 ",
"                                          ; > , * ' ) ) ) ! ! ! ! ! ! ! ) ) ) ' ~ > ;                                           ",
"                                    { ] $ ' ' ) ! ^ ^ / / / / ( ( ( / / / / ^ ^ ! ) ' ~ ] {                                     ",
"                                _ @ : ' ) ! ^ / / ( < < [ [ [ [ } [ [ [ [ < < ( / / ^ ! ) | @ _                                 ",
"                              1 2 ' ) ! ^ / ( < [ } } 3 3 4 4 4 4 4 4 4 3 3 } } [ < ( / ^ ! ) 5 1                               ",
"                          6 7 ' ) ! / ( < [ } 3 4 4 8 9 9 0 0 0 0 0 0 0 9 9 8 4 4 3 } [ < ( / ! ) a 6                           ",
"                        b % ' ! ^ ( < [ } 4 4 8 0 0 c d d e e e e e e e d d c 0 0 8 4 4 } [ < ( ^ ! = f                         ",
"                    g h * ) ^ / < [ } 4 4 9 0 c d i i j k k l l l l l k k j i i d c 0 9 4 4 } [ < / ^ ) h m                     ",
"                  n o ' ) ^ ( < } 3 4 9 0 d e j k l p q r s s s s s s s r q p l k j e d 0 9 4 3 } < ( ^ ) o n                   ",
"                n t ' ! ^ ( [ } 4 9 0 d i j l p r s u v w w w x x x w w w v u s r p l j i d 0 9 4 } [ ( ^ ! t n                 ",
"              g o ' ! / ( [ 3 4 0 c e j l q s u w w y z A B B C C C B B A z y w w u s q l j e c 0 4 3 [ ( / ! D m               ",
"              h ' ! / < } 3 8 0 d i k p s u w y z B E F E C B A A A B C E F E B z y w u s p k i d 0 8 3 } < / ! G               ",
"            b * ) ^ ( } 3 8 0 d j l r u w y A C F B A y x w v u u u v w x y A B F C A y w u r l j d 0 8 3 } ( ^ ) f             ",
"          6 % ) ^ ( [ 3 8 0 e j p r v x z C E A y w s r p l k j j j k l p r s w y A E C z x v r p j e 0 8 3 [ ( ^ H 6           ",
"          7 ' ^ ( [ 3 8 0 e j p s v y B F B y v r p j e c 9 8 4 4 4 8 9 c e j p r v y B F B y v s p j e 0 8 3 [ ( ^ I           ",
"        1 ' ! / < } 4 0 d j p s w y C E z w s l e c 4 [ < / ! ! ) ! ! / < [ 4 c e l s w z E C y w s p j d 0 4 } < / ! J         ",
"      _ 2 ) ^ < } 4 0 d j p s w z C C y u p i 0 3 < ! * K L M N O N M L K * ! < 3 0 i p u y C C z w s p j d 0 4 } < ^ 5 _       ",
"      @ ' ! ( [ 3 9 c i l r v y C C y s l e 4 < ) P M Q R S T U U U T S R Q M P ) < 4 e l s y C C y v r l i c 9 3 [ ( ! V       ",
"    { : ) / < } 4 0 e k r v y C C y s k c } ^ W M X Y Z `  ...+.+.+... .` Z Y X M W ^ } c k s y C C y v r k e 0 4 } < / @.{     ",
"    ] ' ! ( [ 4 9 d j p u x B E y s k c [ ! K Q Y #. .+.+.+.+.+.+.+.+.+.+.+. .#.Y Q K ! [ c k s y E B x u p j d 9 4 [ ( ! $.    ",
"    $ ) ^ < } 4 0 i l s w z F z u l c [ ) L X U %.+.+.+.+.+.+.+.+.+.+.+.+.+.+.+.%.U X L ) [ c l u z F z w s l i 0 4 } < ^ &.    ",
"  ; ' ! / [ 4 9 d j q u y C B w p e } ! L X Z *.+.+.+.+.+.+.+.+.+.+.+.+.+.+.+.+.+.*.Z X L ! } e p w B C y u q j d 9 4 [ / ! =.  ",
"  > ' ^ ( } 4 0 e l s w A E y s i 4 ^ K X Z ..+.+.+.+.+.+.+.+.+.+.+.+.+.+.+.+.+.+.+...Z X K ^ 4 i s y E A w s l e 0 4 } ( ^ -.  ",
"  , ) / < 3 8 c j p u y C A v l 0 < W Q U *.+.+.+.+.+.+.+.+.+.+.+.+.+.+.+.+.+.+.+.+.+.*.U Q W < 0 l v A C y u p j c 8 3 < / ;.  ",
". * ! / [ 4 0 d k r w z F y r e 3 ) M Y %.+.+.+.+.+.+.+.+.+.+.+.+.+.+.+.+.+.+.+.+.+.+.+.%.Y M ) 3 e r y F z w r k d 0 4 [ / ! . ",
"+ ' ^ ( } 4 0 i l s w B B w p c < P X #.+.+.+.+.+.+.+.+.+.+.+.+.+.+.+.+.+.+.+.+.+.+.+.+.+.#.X P < c p w B B w s l i 0 4 } ( ^ >.",
"@ ) ^ < } 8 c i p u y E A s j 4 ! M Y  .+.+.+.+.+.+.+.+.+.+.+.+.+.+.+.+.+.+.+.+.+.+.+.+.+. .Y M ! 4 j s A E y u p i c 8 } < ^ V ",
"# ) / < 3 9 d j q v z F y r e [ * Q Z +.+.+.+.+.+.+.+.+.+.+.+.+.+.+.+.+.+.+.+.+.+.+.+.+.+.+.Z Q * [ e r y F z v q j d 9 3 < / ,.",
"$ ) / [ 3 9 d k r w A E x p c < K R ` +.+.+.+.+.+.+.+.+.+.+.+.+.+.+.+.+.+.+.+.+.+.+.+.+.+.+.` R K < c p x E A w r k d 9 3 [ / &.",
"% ! / [ 4 0 e k s w B C w l 9 / L S  .+.+.+.+.+.+.+.+.+.+.+.+.+.+.+.+.+.+.+.+.+.+.+.+.+.+.+. .S L / 9 l w C B w s k e 0 4 [ / H ",
"& ! / [ 4 0 e l s w B B v k 8 ! M T ..+.+.+.+.+.+.+.+.+.+.+.+.+.+.+.+.+.+.+.+.+.+.+.+.+.+.+...T M ! 8 k v B B w s l e 0 4 [ / '.",
"* ! ( [ 4 0 e l s x C A u j 4 ! N U +.+.+.+.+.+.+.+.+.+.+.+.+.+.+.+.+.+.+.+.+.+.+.+.+.+.+.+.+.U N ! 4 j u A C x s l e 0 4 [ ( ! ",
"* ! ( } 4 0 e l s x C A u j 4 ) O U +.+.+.+.+.+.+.+.+.+.+.+.+.+.+.+.+.+.+.+.+.+.+.+.+.+.+.+.+.U O ) 4 j u A C x s l e 0 4 } ( ! ",
"& ! ( [ 4 0 e l s x C A u j 4 ! N U +.+.+.+.+.+.+.+.+.+.+.+.+.+.+.+.+.+.+.+.+.+.+.+.+.+.+.+.+.U N ! 4 j u A C x s l e 0 4 [ ( ).",
"= ! / [ 4 0 e l s w B B v k 8 ! M T ..+.+.+.+.+.+.+.+.+.+.+.+.+.+.+.+.+.+.+.+.+.+.+.+.+.+.+...T M ! 8 k v B B w s l e 0 4 [ / H ",
"$ ! / [ 4 0 e k s w B C w l 9 / L S  .+.+.+.+.+.+.+.+.+.+.+.+.+.+.+.+.+.+.+.+.+.+.+.+.+.+.+. .S L / 9 l w C B w s k e 0 4 [ / &.",
"- ) / [ 3 9 d k r w A E x p c < K R ` +.+.+.+.+.+.+.+.+.+.+.+.+.+.+.+.+.+.+.+.+.+.+.+.+.+.+.` R K < c p x E A w r k d 9 3 [ / ,.",
"@ ) / < 3 9 d j q v z F y r e [ * Q Z +.+.+.+.+.+.+.+.+.+.+.+.+.+.+.+.+.+.+.+.+.+.+.+.+.+.+.Z Q * [ e r y F z v q j d 9 3 < / V ",
"+ ) ^ < } 8 c i p u y E A s j 4 ! M Y  .+.+.+.+.+.+.+.+.+.+.+.+.+.+.+.+.+.+.+.+.+.+.+.+.+. .Y M ! 4 j s A E y u p i c 8 } < ^ >.",
". ' ^ ( } 4 0 i l s w B B w p c < P X #.+.+.+.+.+.+.+.+.+.+.+.+.+.+.+.+.+.+.+.+.+.+.+.+.+.#.X P < c p w B B w s l i 0 4 } ( ^ . ",
"  ~ ! / [ 4 0 d k r w z F y r e 3 ) M Y %.+.+.+.+.+.+.+.+.+.+.+.+.+.+.+.+.+.+.+.+.+.+.+.%.Y M ) 3 e r y F z w r k d 0 4 [ / ;.  ",
"  > ) / < 3 8 c j p u y C A v l 0 < W Q U *.+.+.+.+.+.+.+.+.+.+.+.+.+.+.+.+.+.+.+.+.+.*.U Q W < 0 l v A C y u p j c 8 3 < / -.  ",
"  ; ' ^ ( } 4 0 e l s w A E y s i 4 ^ K X Z ..+.+.+.+.+.+.+.+.+.+.+.+.+.+.+.+.+.+.+...Z X K ^ 4 i s y E A w s l e 0 4 } ( ^ =.  ",
"    ~ ! / [ 4 9 d j q u y C B w p e } ! L X Z *.+.+.+.+.+.+.+.+.+.+.+.+.+.+.+.+.+.*.Z X L ! } e p w B C y u q j d 9 4 [ / &.    ",
"    ] ) ^ < } 4 0 i l s w z F z u l c [ ) L X U %.+.+.+.+.+.+.+.+.+.+.+.+.+.+.+.%.U X L ) [ c l u z F z w s l i 0 4 } < ^ $.    ",
"    { | ! ( [ 4 9 d j p u x B E y s k c [ ! K Q Y #. .+.+.+.+.+.+.+.+.+.+.+. .#.Y Q K ! [ c k s y E B x u p j d 9 4 [ ( !.{     ",
"      @ ) / < } 4 0 e k r v y C C y s k c } ^ W M X Y Z `  ...+.+.+... .` Z Y X M W ^ } c k s y C C y v r k e 0 4 } < / V       ",
"      _ 5 ! ( [ 3 9 c i l r v y C C y s l e 4 < ) P M Q R S T U U U T S R Q M P ) < 4 e l s y C C y v r l i c 9 3 [ ( ~._       ",
"        1 ) ^ < } 4 0 d j p s w z C C y u p i 0 3 < ! * K L M N O N M L K * ! < 3 0 i p u y C C z w s p j d 0 4 } < ^ {.        ",
"          a ! / < } 4 0 d j p s w y C E z w s l e c 4 [ < / ! ! ) ! ! / < [ 4 c e l s w z E C y w s p j d 0 4 } < / ].          ",
"          6 = ^ ( [ 3 8 0 e j p s v y B F B y v r p j e c 9 8 4 4 4 8 9 c e j p r v y B F B y v s p j e 0 8 3 [ ( ^./.          ",
"            f ) ^ ( [ 3 8 0 e j p r v x z C E A y w s r p l k j j j k l p r s w y A E C z x v r p j e 0 8 3 [ ( ^ f             ",
"              h ) ^ ( } 3 8 0 d j l r u w y A C F B A y x w v u u u v w x y A B F C A y w u r l j d 0 8 3 } ( ^ (.              ",
"              m o ! / < } 3 8 0 d i k p s u w y z B E F E C B A A A B C E F E B z y w u s p k i d 0 8 3 } < / _.m               ",
"                n t ! / ( [ 3 4 0 c e j l q s u w w y z A B B C C C B B A z y w w u s q l j e c 0 4 3 [ ( / D n                 ",
"                  n D ! ^ ( [ } 4 9 0 d i j l p r s u v w w w x x x w w w v u s r p l j i d 0 9 4 } [ ( ^ _.n                   ",
"                    m G ) ^ ( < } 3 4 9 0 d e j k l p q r s s s s s s s r q p l k j e d 0 9 4 3 } < ( ^ (.m                     ",
"                        f H ^ / < [ } 4 4 9 0 c d i i j k k l l l l l k k j i i d c 0 9 4 4 } [ < / ^.f                         ",
"                          6 I ! ^ ( < [ } 4 4 8 0 0 c d d e e e e e e e d d c 0 0 8 4 4 } [ < ( ^ ]./.                          ",
"                              J 5 ! / ( < [ } 3 4 4 8 9 9 0 0 0 0 0 0 0 9 9 8 4 4 3 } [ < ( / ~.{.                              ",
"                                _ V @.! ^ / ( < [ } } 3 3 4 4 4 4 4 4 4 3 3 } } [ < ( / ^ !.V _                                 ",
"                                    { $.&.! ^ / / ( < < [ [ [ [ } [ [ [ [ < < ( / / ^ &.$.{                                     ",
"                                          =.-.;.! ^ ^ / / / / ( ( ( / / / / ^ ^ ;.-.=.                                          ",
"                                                . >.V ,.&.H '.! ! ).H &.,.V >..                                                 "};
