/* XPM */
static char * lightalpha_xpm[] = {
"64 64 78 1",
" 	c None",
".	c #866FFF",
"+	c #8471FF",
"@	c #8372FF",
"#	c #7F75FF",
"$	c #7C78FF",
"%	c #7A7AFF",
"&	c #7C7CFF",
"*	c #7E76FF",
"=	c #7B7BFF",
"-	c #7F7FFF",
";	c #8383FF",
">	c #8585FF",
",	c #8787FF",
"'	c #8888FF",
")	c #8273FF",
"!	c #7B79FF",
"~	c #8A8AFF",
"{	c #8F8FFF",
"]	c #9393FF",
"^	c #9595FF",
"/	c #9696FF",
"(	c #8173FF",
"_	c #8181FF",
":	c #8989FF",
"<	c #9191FF",
"[	c #9898FF",
"}	c #9E9EFF",
"|	c #A3A3FF",
"1	c #A7A7FF",
"2	c #A8A8FF",
"3	c #8282FF",
"4	c #8B8BFF",
"5	c #9494FF",
"6	c #B0B0FF",
"7	c #B8B8FF",
"8	c #BCBCFF",
"9	c #BEBEFF",
"0	c #8570FF",
"a	c #7D78FF",
"b	c #8080FF",
"c	c #A1A1FF",
"d	c #AEAEFF",
"e	c #BBBBFF",
"f	c #C7C7FF",
"g	c #D2D2FF",
"h	c #D9D9FF",
"i	c #DBDBFF",
"j	c #896CFF",
"k	c #8174FF",
"l	c #7D7DFF",
"m	c #A0A0FF",
"n	c #AFAFFF",
"o	c #C0C0FF",
"p	c #E3E3FF",
"q	c #F3F3FF",
"r	c #FFFFFF",
"s	c #8E8EFF",
"t	c #9B9BFF",
"u	c #ABABFF",
"v	c #D4D4FF",
"w	c #EDEDFF",
"x	c #B6B6FF",
"y	c #CDCDFF",
"z	c #E9E9FF",
"A	c #8A6CFF",
"B	c #8074FF",
"C	c #7E7EFF",
"D	c #9999FF",
"E	c #AAAAFF",
"F	c #886DFF",
"G	c #8D8DFF",
"H	c #9C9CFF",
"I	c #E6E6FF",
"J	c #886EFF",
"K	c #7E77FF",
"L	c #B2B2FF",
"M	c #CBCBFF",
"                                                                ",
"                                                                ",
"                                                                ",
"                                                                ",
"                                                                ",
"                                                                ",
"                                                                ",
"                                                                ",
"                                                                ",
"                                                                ",
"                                                                ",
"                                                                ",
"                                                                ",
"                                                                ",
"                                                                ",
"                                                                ",
"                                                                ",
"                                                                ",
"                                                                ",
"                             .+@@@+.                            ",
"                           @#$%&&&%$#@                          ",
"                         +*=-;>,',>;-=*+                        ",
"                        )!->~{]^/^]{~>-!)                       ",
"                       (%_:<[}|121|}[<:_%(                      ",
"                      @%345}267898762}543%@                     ",
"                     0ab~^cdefghihgfedc^~ba0                    ",
"                    jkl,]mnogpqrrrqpgonm],lkj                   ",
"                    .$3stu9vwrrrrrrrwv9uts3$.                   ",
"                    @&,5|xyzrrrrrrrrrzyx|5,&@                   ",
"                   ABC~DEoirrrrrrrrrrrioED~CBA                  ",
"                   F*bGHnfIrrrrrrrrrrrIfnHGb*F                  ",
"                   JK_s}LMwrrrrrrrrrrrwML}s_KJ                  ",
"                   JK_s}LMwrrrrrrrrrrrwML}s_KJ                  ",
"                   F*bGHnfIrrrrrrrrrrrIfnHGb*F                  ",
"                   ABC~DEoirrrrrrrrrrrioED~CBA                  ",
"                    @&,5|xyzrrrrrrrrrzyx|5,&@                   ",
"                    .$3stu9vwrrrrrrrwv9uts3$.                   ",
"                    jkl,]mnogpqrrrqpgonm],lkj                   ",
"                     0ab~^cdefghihgfedc^~ba0                    ",
"                      @%345}267898762}543%@                     ",
"                       (%_:<[}|121|}[<:_%(                      ",
"                        )!->~{]^/^]{~>-!)                       ",
"                         +*=-;>,',>;-=*+                        ",
"                           @#$%&&&%$#@                          ",
"                             .+@@@+.                            ",
"                                                                ",
"                                                                ",
"                                                                ",
"                                                                ",
"                                                                ",
"                                                                ",
"                                                                ",
"                                                                ",
"                                                                ",
"                                                                ",
"                                                                ",
"                                                                ",
"                                                                ",
"                                                                ",
"                                                                ",
"                                                                ",
"                                                                ",
"                                                                ",
"                                                                "};
