/* XPM */
static char * mat_xpm[] = {
"64 64 30 1",
" 	c #404040",
".	c #414141",
"+	c #424242",
"@	c #444444",
"#	c #3E3E3E",
"$	c #3F3F3F",
"%	c #3D3D3D",
"&	c #434343",
"*	c #3C3C3C",
"=	c #303030",
"-	c #313131",
";	c #333333",
">	c #363636",
",	c #373737",
"'	c #383838",
")	c #393939",
"!	c #3A3A3A",
"~	c #3B3B3B",
"{	c #353535",
"]	c #2D2D2D",
"^	c #2E2E2E",
"/	c #323232",
"(	c #2F2F2F",
"_	c #2C2C2C",
":	c #2B2B2B",
"<	c #343434",
"[	c #2A2A2A",
"}	c #292929",
"|	c #282828",
"1	c #272727",
" ..+@+.# $$$$#%#$$$ ..$$$$ .$###  ..#.&.+ $##$$ .#$ %# & +&   &*",
"$==-=-;->,,,,')),,,'!!',,,'~!'>,'''{!{''*)'''','!,>>,{){,>,,'~*>",
"+-]^]/=(=(]]^]_]_:_]^^]]]:](===^]^]/)=^>,;-=(=-/-;(-;)*/<;<{{{,'",
" =^_;;_:]]_:[:___[::_____}:]^(^:_^:='-[=/>;///;{{/^]<~%<;/<<{<'!",
" ^(<-^_:]]_[}[___[[[:__:[}:]^(^_]]:-'(}:^(]__]((]:]]<~%{><<<{{,)",
" ]-<(:}[_^_:::___[}}[:::}}:]^^]__:_/'^}[_^_::]^^]]^^<!*{;;/<{<,'",
" ^/((:}[_^__]____[}}[:__:[:]^^_:_[_/'^}[__:[[_^^]]((<!%/<{;>);,)",
"$>(__:[_______:]:[}}}:]]]::_^^]:]]]/,^[[[[[[:]^^_^^^;!%<{{>;{>')",
"$,(]]:[_______:]:[}}}:]]]::_^(^_]]]/,^[:::::_]^]:]::/!%{>,'<'{,'",
"#,(]_::[[__:::__]:}}[:::::]^^((____=,=:::]^^(]]^]]__;!#//<;;><<'",
"#,]::::____:::__]:}}[::::_^^^^^____=,=:::^(^^]_]::__;!%;/{<;{{{)",
"#>]::_______:[_]_[}}[::__]]]^^]__^]/,=[_]^^]__]]::__/)*;//;;<<{'",
"${^_________:[:]_[[[:::__:::]^]__^]/,=[_^]]]]]]]____;!%<<<;-<<,)",
"${^_________:[:]]___::___[[[_]]___:=>=:]^]]]]]]]____;!%;/;-/{>,!",
"${^______::_:}[___::_____[[:_]__]:|(>=]^^^^]]]__::__/)%;/{<;;;,!",
"${^______::::}[:[[:::______:____]:}(>=_^^^^]]_[[::[[-'~/-</;</>)",
"$'^]^]____[[:::}::::[[__^]::::_]__[-,^[[_:]]_:__:}[_<)~/;{<;>>{'",
"$'^]^]____[[:::}::::[[__^_[[::_]__}=>^[[_:]]_:__:}_}-)~//;;/{>{'",
" )(((]___::::::::[::::]^^______]__[=,([::::__:]_]]/=-/%^--/-{;')",
".!^^^]___:::::::_[:::_]^^]]___::__[=,([::::::--<//-;(;%<>,,')),~",
".!^]]]_::[[[[[[[[}:::_]^]^]_::::__[={(^:]][]-<-<{{;{-;)(=^=/;/'!",
" )(]___::}}}}}}}}}:::_]^_^_:::::__]--//-_[^;<((]__]]--;,!~%**~>/",
" )=]___::}}}}}}}}[[::_]]:]_:__:[_](<;:/;<^/,/([}____-=^-;-/<{>-/",
"$)=]__]::}}}}}}}[:}}:_]__[_^^^_:_^(;<_]{{;,;/]_:[_]];<'%%%*##$~,",
"$)(_:_]::}}}}}}}[:}}:_]__^(((([</</{'<</<{{/_]__:]==<,$-/-//;/,!",
"$>]::::_[::::::}:]::[:_^^((=]:;-<>)%')',>>=]_::_->;>;{$<><<;><''",
"#>]:::::}::::::}:]:::_]^^((^(==(;-!'=-=(]]]]_[[-,{$-;<#>{<;<{<''",
"#,^_:___:[[:::::__:__]]_]^-^;=((<~!>^^_]^]]_]];;<#/>,<%/<;;/>{''",
"#,(_:____:::::::__::_]]_^]=;{;(;*'{>]]:_^^_]:/{< /<>,<#<<;<>>/,!",
"#>^_______]_:[:_]_::_]__^(=-=^/>{-{;]]__]]_]//;$(/;,{<#;/;<=>{,)",
"${^____:::_]:[:]^_::____(;(;(-,-;<;^(]___]_;{< <{{;{>;*;/;--;;>,",
"$>^_:[[:::_]_::]]_::___]=;=^='<(-;^]__:]]_/;;#]><{<{><*/;/-/;/{,",
"$!^]]____:_]__:]::[:___[/</;{<(;{]]]]^;;;<--%('-<{,,><%{<<;<>;{>",
" ~^]]____:_:[::]::[:___[/;/<=--{(]]]_;-___-*=<,-<<,,{;*<{<<<>;{>",
"&~^]_::[[}[[}[[[[[}[::::=>,>-/<^_^^];-]:[]#/><;--/;<>/~-{;;-<;{,",
"%{</---(((====((==(=---(-)//;-_[_^^{{]:_=~-<//;(=//<>/~=/<</{;{,",
".,,')))',,,'''>{>,,,>---/-|:_[:]]^/<^]:(%;-=-;-(=//{{/~;<{;/</{'",
"#;//////=-///-=^^(=-((|[(-[:::_]({/^((=%;;<<=;<(;<;{{/*</{;;><{,",
".'/^]___:]]___:[:___=(=](-}:::_];;=]_<#-{{;;-/-^;-;{<;*;;{;;</>,",
"#';=]__]]^]::::::]::_^=(=-}[:__^>^^^-$<;/;///=;^--;<>;*/{////;>)",
"${;(___]]]_[}[:::]]]:]((=-}[:__^{]_-%;<<{<--=-<(/;;{>;~/<;///->'",
"%;(=:_:::::::[}}:::_]]]-;-:[_]]_)]=~{<,/<;=;=;{;/<<{{/*(<<;<{<{!",
"%;(=[[[::::::[}}::[[}=(<;]]:_]_/;-%/->;=--(=^/</(-;>{/*(=/^=-<{!",
"%<^([:::::::::::::}[}</(^[_:]=;/;#-={>////-/-;<-///{{/*-<///{;<,",
"%{^=[:::::::::::::[}/<-=[}:_:<{<#/^/(<-=----=--]=//{{/~;/(=/;/<,",
"%>=-[:::[[:::::::__-,/^]:::_/=;#^^/,-{<--/-/;</(/;/<{/~--//-><>'",
"#>--|[_:[}:::::::]^;--:::_];{; (-;-==/=((-=(=--=--;;{/*((--(;<,'",
"#>--}[_:[[:::::::_];<]:::_/<{$^(;-/--//-//---/////</>;%=///={;>'",
"#>--[:::::::::::_[_/;_}[_;//$(/;/=;;=-==;---^//=/-;>,<#(;/;/<;>'",
"%{=/[::}}:::::::_[_/;_}:]//%-/<;/-;/=//-<;--=///;/<{><#(<<;>,{>'",
"%;___::::[::::::[_^//]}_(/~/]/;==;/^=-=;;/-/-/{;<<;>{;#/'>{,'',,",
"#{(_:::::[::::::::-=;^}]({/^-;{{{;<<;{>>{><<;<{{>><{==>/;/<==;{{",
"%>;;;/-==////;;-/(^^//==/-/<{,{,>{<<{{>>>{<{{{<{>>;/:]/,,>'))'<-",
"$;>>,>{<<,,{<<<;;<=;<;-;>;-=//--<<<</--//<;////=--^]___=/-><<>/=",
"+~!!~!)!!)))')),!)!!<':<)!')~~~!!!!!!~~~~!)~***~~~!{-_=--^_^];-=",
"*>=;;/;;=//<-;;/=/-;}.[#_;<;/;</{;///;{<<;{<{<;;/={(>(-/=_[_[-;(",
"#)=/;--=-==--/==^=-;}+: _//=--/-/-;<</<///;;<//--^{-'=(/[[}[}-;(",
"$);;-(/-^==;;/-/=/=,}.[$_<-/;/<-;-,>{;{;>-/<{;<=((,^'_^:1|[[}-;(",
"$)/;;^/=((----/<=-=,| }#:;-/<<<;/->///><>-<;>;/=-(>]'=}|[|[[}-/^",
"#>=--((=-=^^(=/=-;(>} [.];/-((---^/-/<<(/-//;=-=(({])([|[}:[}(-_",
"#>/;/;-(-/;/({/;(==>} : ]<;{<;{{</><</</,/<<>/;-;;,()=[|}[:[}(-_",
" !]-==^//^^(((^==-]-}$:$|-/=/=<;=({==]=^/=-===-(((<^,<--//;-={<^",
"+#'',</;<{>{<<>><<;<;>_,,>{>,,>,''><{>{<{<<,>{{<>,>,</====///<<-",
"~*~)!),'),'''',,'''))<(/,!!)')!!!!!),,,)!)))'')',)',/----/;--={-"};
