/* XPM */
static char * wallbrick_xpm[] = {
"128 128 38 1",
" 	c #505050",
".	c #4D4D4D",
"+	c #2B2B2B",
"@	c #545454",
"#	c #2E2E2E",
"$	c #4F4F4F",
"%	c #4B4B4B",
"&	c #292929",
"*	c #373737",
"=	c #242424",
"-	c #131313",
";	c #3C3C3C",
">	c #282828",
",	c #161616",
"'	c #363636",
")	c #232323",
"!	c #0F0F0F",
"~	c #0C0C0C",
"{	c #0A0A0A",
"]	c #111111",
"^	c #191919",
"/	c #0B0B0B",
"(	c #1E1E1E",
"_	c #222222",
":	c #1A1A1A",
"<	c #1D1D1D",
"[	c #0D0D0D",
"}	c #4E4E4E",
"|	c #4A4A4A",
"1	c #353535",
"2	c #121212",
"3	c #1F1F1F",
"4	c #474747",
"5	c #272727",
"6	c #414141",
"7	c #181818",
"8	c #101010",
"9	c #151515",
" .......................................................+@                              #$%%%%%%%%%%%%%%%%%%%%%%%%%%%%%%%%%%%%%&",
"*=======================================================-;>>>>>>>>>>>>>>>>>>>>>>>>>>>>>>,')))))))))))))))))))))))))))))))))))))-",
"*=======================================================-;>>>>>>>>>>>>>>>>>>>>>>>>>>>>>>,')))))))))))))))))))))))))))))))))))))-",
"*=======================================================-;>>>>>>>>>>>>>>>>>>>>>>>>>>>>>>,')))))))))))))))))))))))))))))))))))))-",
"*=======================================================-;>>>>>>>>>>>>>>>>>>>>>>>>>>>>>>,')))))))))))))))))))))))))))))))))))))-",
"*=======================================================-;>>>>>>>>>>>>>>>>>>>>>>>>>>>>>>,')))))))))))))))))))))))))))))))))))))-",
"*=======================================================-;>>>>>>>>>>>>>>>>>>>>>>>>>>>>>>,')))))))))))))))))))))))))))))))))))))-",
"*=======================================================-;>>>>>>>>>>>>>>>>>>>>>>>>>>>>>>,')))))))))))))))))))))))))))))))))))))-",
"*=======================================================-;>>>>>>>>>>>>>>>>>>>>>>>>>>>>>>,')))))))))))))))))))))))))))))))))))))-",
"*=======================================================-;>>>>>>>>>>>>>>>>>>>>>>>>>>>>>>,')))))))))))))))))))))))))))))))))))))-",
"*=======================================================-;>>>>>>>>>>>>>>>>>>>>>>>>>>>>>>,')))))))))))))))))))))))))))))))))))))-",
"*=======================================================-;>>>>>>>>>>>>>>>>>>>>>>>>>>>>>>,')))))))))))))))))))))))))))))))))))))-",
"*=======================================================-;>>>>>>>>>>>>>>>>>>>>>>>>>>>>>>,')))))))))))))))))))))))))))))))))))))-",
"*=======================================================-;>>>>>>>>>>>>>>>>>>>>>>>>>>>>>>,')))))))))))))))))))))))))))))))))))))-",
"*=======================================================-;>>>>>>>>>>>>>>>>>>>>>>>>>>>>>>,')))))))))))))))))))))))))))))))))))))-",
"*=========================,!~~~~~~~~~~~~~~~~~~~~~~~~~~~~{;>>>>>>>>>>>>>>>>>>>>>>>>>>>>>>,')))))))))))))))))))))))))))))))))))))-",
"*=========================]@                            #;>>>>>>>>>>>>>>>>>>>>>>>>>>>>>>,')))))))))))))))))))))))))))))))))))))-",
"*=========================-;>>>>>>>>>>>>>>>>>>>>>>>>>>>>,;>>>>>>>>>>>>>>>>>>>>>>>>>>>>>>,')))))))))))))))))))))))))))))))))))))-",
"*=========================-;>>>>>>>>>>>>>>>>>>>>>>>>>>>>,;>>>>>>>>>>>>>>>>>>>>>>>>>>>>>>,')))))))))))))))))))))))))))))))))))))-",
"*=========================-;>>>>>>>>>>>>>>>>>>>>>>>>>>>>,;>>>>>>>>>>>>>>>>>>>>>>>>>>>>>>,')))))))))))))))))))))))))))))))))))))-",
"*=========================-;>>>>>>>>>>>>>>>>>>>>>>>>>>>>,;>>>>>>>>>>>>>>>>>>>>>>>>>>>>>>,')))))))))))))))))))))))))))))))))))))-",
"*=========================-;>>>>>>>>>>>>>>>>>>>>>>>>>>>>,;>>>>>>>>>>>>>>>>>>>>>>>>>>>>>>,')))))))))))))))))))))))))))))))))))))-",
"*=========================-;>>>>>>>>>>>>>>>>>>>>>>>>>>>>,;>>>>>>>>>>>>>>>>>>>>>>>>>>>>>>,')))))))))))))))))))))))))))))))))))))-",
"*=========================-;>>>>>>>>>>>>>>>>>>>>>>>>>>>>,;>>>>>>>>>>>>>>>>>>>>>>>>>>>>>>,')))))))))))))))))))))))))))))))))))))-",
"*=========================-;>>>>>>>>>>>>>>>>>>>>>>>>>>>>,;>>>>>>>>>>>>>>>>>>>>>>>>>>>>>>,')))))))))))))))))))))))))))))))))))))-",
"*=========================-;>>>>>>>>>>>>>>>>>>>>>>>>>>>>,;>>>>>>>>>>>>>>>>>>>>>>>>>>>>>>,')))))))))))))))))))))))))))))))))))))-",
"*=========================-;>>>>>>>>>>>>>>>>>>>>>>>>>>>>,;>>>>>>>>>>>>>>>>>>>>>>>>>>>>>>,')))))))))))))))))))))))))))))))))))))-",
"*=========================-;>>>>>>>>>>>>>>>>>>>>>>>>>>>>,;>>>>>>>>>>>>>>>>>>>>>>>>>>>>>>,')))))))))))))))))))))))))))))))))))))-",
"*=========================-;>>>>>>>>>>>>>>>>>>>>>>>>>>>>,;>>>>>>>>>>>>>>>>>>>>>>>>>>>>>>,')))))))))))))))))))))))))))))))))))))-",
"*=========================-;>>>>>>>>>>>>>>>>>>>>>>>>>>>>,;>>>>>>>>>>>>>>>>>>>>>>>>>>>>>>,')))))))))))))))))))))))))))))))))))))-",
"*=========================-;>>>>>>>>>>>>>>>>>>>>>>>>>>>>,;>>>>>>>>>>>>>>>>>>>>>>>>>>>>>>,')))))))))))))))))))))))))))))))))))))-",
"*=========================-;>>>>>>>>>>>>>>>>>>>>>>>>>>>>,;>>>>>>>>>>>>>>>>>>>>>>>>>>>>>>,')))))))))))))))))))))))))))))))))))))-",
"*=========================-;>>>>>>>>>>>>>>>>>>>>>>>>>>>>,;>>>>>>>>>>>>>>>>>>>>>>>>>>>>>>,')))))))))))))))))))))))))))))))))))))-",
"*=========================-;>>>>>>>>>>>>>>>>>>>>>>>>>>>>,;>>>>>>>>>>>>>>>>>>>>>>>>>>>>>>,')))))))))))))))))))))))))))))))))))))-",
"*=========================-;>>>>>>>>>>>>>>>>>>>>>>>>>>>>,;>>>>>>>>>>>>>>>>>>>>>>>>>>>>>>,')))))))))))))))))))))))))))))))))))))-",
"*=========================-;>>>>>>>>>>>>>>>>>>>>>>>>>>>>,;>>>>>>>>>>>>>>>>>>>>>>>>>>>>>>,')))))))))))))))))))))))))))))))))))))-",
"*=========================-;>>>>>>>>>>>>>>>>>>>>>>>>>>>>,;>>>>>>>>>>>>>>>>>>>>>>>>>>>>>>,')))))))))))))))))))))))))))))))))))))-",
"*=========================-;>>>>>>>>>>>>>>>>>>>>>>>>>>>>,;>>>>>>>>>>>>>>>>>>>>>>>>>>>>>>,')))))))))))))))))))))))))))))))))))))-",
"*=========================-;>>>>>>>>>>>>>>>>>>>>>>>>>>>>,;>>>>>>>>>>>>>>>>>>>>>>>>>>>>>>,')))))))))))))))))))))))))))))))))))))-",
"*=========================-;>>>>>>>>>>>>>>>>>>>>>>>>>>>>,;>>>>>>>>>>>>>>>>>>>>>>>>>>>>>>,')))))))))))))))))))))))))))))))))))))-",
"*=========================-;>>>>>>>>>>>>>>>>>>>>>>>>>>>>,;>>>>>>>>>>>>>>>>>>>>>>>>>>>>>>,')))))))))))))))))))))))))))))))))))))-",
"*=========================-;>>>>>>>>>>>>>>>>>>>>>>>>>>>>,;>>>>>>>>>>>>>>>>>>>>>>>>>>>>>>,^///////////////////,())))))))))))))))-",
"*=========================-;>>>>>>>>>>>>>>>>>>>>>>>>>>>>,;>>>>>>>>>>>>>>>>>>>>>>>>>>>>>>,@                   #_))))))))))))))))-",
"*=========================-;>>>>>>>>>>>>>>>>>>>>>>>>>>>>,;>>>>>>>>>>>>>>>>>>>>>>>>>>>>>>,;>>>>>>>>>>>>>>>>>>>,'))))))))))))))))-",
"*=========================-;>>>>>>>>>>>>>>>>>>>>>>>>>>>>,;>>>>>>>>>>>>>>>>>>>>>>>>>>>>>>,;>>>>>>>>>>>>>>>>>>>,'))))))))))))))))-",
"*=========================-;>>>>>>>>>>>>>>>>>>>>>>>>>>>>,;>>>>>>>>>>>>>>>>>>>>>>>>>>>>>>,;>>>>>>>>>>>>>>>>>>>,'))))))))))))))))-",
"*=========================-;>>>>>>>>>>>>>>>>>>>>>>>>>>>>,;>>>>>>>>>>>>>>>>>>>>>>>>>>>>>>,;>>>>>>>>>>>>>>>>>>>,'))))))))))))))))-",
"*=========================-;>>>>>>>>>>>>>>>>>>>>>>>>>>>>,;>>>>>>>>>>>>>>>>>>>>>>>>>>>>>>,;>>>>>>>>>>>>>>>>>>>,'))))))))))))))))-",
"*=========================-;>>>>>>>>>>>>>>>>>>>>>>>>>>>>,;>>>>>>>>>>>>>>>>>>>>>>>>>>>>>>,;>>>>>>>>>>>>>>>>>>>,'))))))))))))))))-",
":~~~~~~~~~~~~~~~~~~~~~~~~~{;>>>>>>>>>>>>>>>>>>>>>>>>>>>>,;>>>>>>>>>>>>>>>>>>>>>>>>>>>>>>,;>>>>>>>>>>>>>>>>>>>,'))))))))))))))))-",
"@                         #;>>>>>>>>>>>>>>>>>>>>>>>>>>>>,;>>>>>>>>>>>>>>>>>>>>>>>>>>>>>>,;>>>>>>>>>>>>>>>>>>>,'))))))))))))))))-",
";>>>>>>>>>>>>>>>>>>>>>>>>>,;>>>>>>>>>>>>>>>>>>>>>>>>>>>>,;>>>>>>>>>>>>>>>>>>>>>>>>>>>>>>,;>>>>>>>>>>>>>>>>>>>,'))))))))))))))))-",
";>>>>>>>>>>>>>>>>>>>>>>>>>,;>>>>>>>>>>>>>>>>>>>>>>>>>>>>,;>>>>>>>>>>>>>>>>>>>>>>>>>>>>>>,;>>>>>>>>>>>>>>>>>>>,'))))))))))))))))-",
";>>>>>>>>>>>>>>>>>>>>>>>>>,;>>>>>>>>>>>>>>>>>>>>>>>>>>>>,;>>>>>>>>>>>>>>>>>>>>>>>>>>>>>>,;>>>>>>>>>>>>>>>>>>>,'))))))))))))))))-",
";>>>>>>>>>>>>>>>>>>>>>>>>>,;>>>>>>>>>>>>>>>>>>>>>>>>>>>>,;>>>>>>>>>>>>>>>>>>>>>>>>>>>>>>,;>>>>>>>>>>>>>>>>>>>,'))))))))))))))))-",
";>>>>>>>>>>>>>>>>>>>>>>>>>,;>>>>>>>>>>>>>>>>>>>>>>>>>>>>,;>>>>>>>>>>>>>>>>>>>>>>>>>>>>>>,;>>>>>>>>>>>>>>>>>>>,'))))))))))))))))-",
";>>>>>>>>>>>>>>>>>>>>>>>>>,;>>>>>>>>>>>>>>>>>>>>>>>>>>>>,;>>>>>>>>>>>>>>>>>>>>>>>>>>>>>>,;>>>>>>>>>>>>>>>>>>>,'))))))))))))))))-",
";>>>>>>>>>>>>>>>>>>>>>>>>>,;>>>>>>>>>>>>>>>>>>>>>>>>>>>>,;>>>>>>>>>>>>>>>>>>>>>>>>>>>>>>,;>>>>>>>>>>>>>>>>>>>,'))))))))))))))))-",
";>>>>>>>>>>>>>>>>>>>>>>>>>,;>>>>>>>>>>>>>>>>>>>>>>>>>>>>,;>>>>>>>>>>>>>>>>>>>>>>>>>>>>>>,;>>>>>>>>>>>>>>>>>>>,'))))))))))))))))-",
";>>>>>>>>>>>>>>>>>>>>>>>>>,;>>>>>>>>>>>>>>>>>>>>>>>>>>>>,;>>>>>>>>>>>>>>>>>>>>>>>>>>>>>>,;>>>>>>>>>>>>>>>>>>>,'))))))))))))))))-",
";>>>>>>>>>>>>>>>>>>>>>>>>>,;>>>>>>>>>>>>>>>>>>>>>>>>>>>>,;>>>>>>>>>>>>>>>>>>>>>>>>>>>>>>,;>>>>>>>>>>>>>>>>>>>,'))))))))))))))))-",
";>>>>>>>>>>>>>>>>>>>>>>>>>,;>>>>>>>>>>>>>>>>>>>>>>>>>>>>,;>>>>>>>>>>>>>>>>>>>>>>>>>>>>>>,;>>>>>>>>>>>>>>>>>>>,'))))))))))))))))-",
";>>>>>>>>>>>>>>>>>>>>>>>>>,;>>>>>>>>>>>>>>>>>>>>>>>>>>>>,;>>>>>>>>>>>>>>>>>>>>>>>>>>>>>>,;>>>>>>>>>>>>>>>>>>>,'))))))))))))))))-",
";>>>>>>>>>>>>>>>>>>>>>>>>>,;>>>>>>>>>>>>>>>>>>>>>>>>>>>>,;>>>>>>>>>>>>>>>>>>>>>>>>>>>>>>,;>>>>>>>>>>>>>>>>>>>,'))))))))))))))))-",
";>>>>>>>>>>>>>>>>>>>>>>>>>,;>>>>>>>>>>>>>>>>>>>>>>>>>>>>,;>>>>>>>>>>>>>>>>>>>>>>>>>>>>>>,;>>>>>>>>>>>>>>>>>>>,'))))))))))))))))-",
";>>>>>>>>>>>>>>>>>>>>>>>>>,;>>>>>>>>>>>>>>>>>>>>>>>>>>>>,;>>>>>>>>>>>>>>>>>>>>>>>>>>>>>>,;>>>>>>>>>>>>>>>>>>>,'))))))))))))))))-",
";>>>>>>>>>>>>>>>>>>>>>>>>>,;>>>>>>>>>>>>>>>>>>>>>>>>>>>>,;>>>>>>>>>>>>>>>>>>>>>>>>>>>>>>,;>>>>>>>>>>>>>>>>>>>,'))))))))))))))))-",
";>>>>>>>>>>>>>>>>>>>>>>>>>,;>>>>>>>>>>>>>>>>>>>>>>>>>>>>,;>>>>>>>>>>>>>>>>>>>>>>>>>>>>>>,;>>>>>>>>>>>>>>>>>>>,'))))))))))))))))-",
";>>>>>>>>>>>>>>>>>>>>>>>>>,;>>>>>>>>>>>>>>>>>>>>>>>>>>>>,;>>>>>>>>>>>>>>>>>>>>>>>>>>>>>>,;>>>>>>>>>>>>>>>>>>>,'))))))))))))))))-",
";>>>>>>>>>>>>>>>>>>>>>>>>>,;>>>>>>>>>>>>>>>>>>>>>>>>>>>>,;>>>>>>>>>>>>>>>>>>>>>>>>>>>>>>,;>>>>>>>>>>>>>>>>>>>,'))))))))))))))))-",
";>>>>>>>>>>>>>>>>>>>>>>>>>,;>>>>>>>>>>>>>>>>>>>>>>>>>>>>,;>>>>>>>>>>>>>>>>>>>>>>>>>>>>>>,;>>>>>>>>>>>>>>>>>>>,'))))))))))))))))-",
";>>>>>>>>>>>>>>>>>>>>>>>>>,;>>>>>>>>>>>>>>>>>>>>>>>>>>>>,;>>>>>>>>>>>>>>>>>>>>>>>>>>>>>>,;>>>>>>>>>>>>>>>>>>>,'))))))))))))))))-",
";>>>>>>>>>>>>>>>>>>>>>>>>>,;>>>>>>>>>>>>>>>>>>>>>>>>>>>>,;>>>>>>>>>>>>>>>>>>>>>>>>>>>>>>,;>>>>>>>>>>>>>>>>>>>,'))))))))))))))))-",
";>>>>>>>>>>>>>>>>>>>>>>>>>,;>>>>>>>>>>>>>>>>>>>>>>>>>>>>,;>>>>>>>>>>>>>>>>>>>>>>>>>>>>>>,;>>>>>>>>>>>>>>>>>>>,'))))))))))))))))-",
";>>>>>>>>>>>>>>>>>>>>>>>>>,;>>>>>>>>>>>>>>>>>>>>>>>>>>>>,;>>>>>>>>>>>>>>>>>>>>>>>>>>>>>>,;>>>>>>>>>>>>>>>>>>>,'))))))))))))))))-",
"<[[[[[[[[[[[[[[[[[[[[[[[[[~<[[[[[[[[[[[[[[[[[[[[[[[[[[[[~;>>>>>>>>>>>>>>>>>>>>>>>>>>>>>>,;>>>>>>>>>>>>>>>>>>>,'))))))))))))))))-",
"}|||||||||||||||||||||||||||||||||||||||||||||||||||||||>;>>>>>>>>>>>>>>>>>>>>>>>>>>>>>>,;>>>>>>>>>>>>>>>>>>>,'))))))))))))))))-",
"1_______________________________________________________2;>>>>>>>>>>>>>>>>>>>>>>>>>>>>>>,;>>>>>>>>>>>>>>>>>>>,'))))))))))))))))-",
"1_______________________________________________________2;>>>>>>>>>>>>>>>>>>>>>>>>>>>>>>,;>>>>>>>>>>>>>>>>>>>,'))))))))))))))))-",
"1_______________________________________________________2;>>>>>>>>>>>>>>>>>>>>>>>>>>>>>>,;>>>>>>>>>>>>>>>>>>>,'))))))))))))))))-",
"1_______________________________________________________2;>>>>>>>>>>>>>>>>>>>>>>>>>>>>>>,;>>>>>>>>>>>>>>>>>>>,'))))))))))))))))-",
"1_______________________________________________________2;>>>>>>>>>>>>>>>>>>>>>>>>>>>>>>,;>>>>>>>>>>>>>>>>>>>,'))))))))))))))))-",
"1_______________________________________________________2;>>>>>>>>>>>>>>>>>>>>>>>>>>>>>>,;>>>>>>>>>>>>>>>>>>>,'))))))))))))))))-",
"1_______________________________________________________2;>>>>>>>>>>>>>>>>>>>>>>>>>>>>>>,;>>>>>>>>>>>>>>>>>>>,'))))))))))))))))-",
"1_______________________________________________________2;>>>>>>>>>>>>>>>>>>>>>>>>>>>>>>,;>>>>>>>>>>>>>>>>>>>,'))))))))))))))))-",
"1_______________________________________________________3<[[[[[[[[[[[[[[[[[[[[[[[[[[[[[[~4>>>>>>>>>>>>>>>>>>>,'))))))))))))))))-",
"1_______________________________________________________51|||||||||||||||||>@           }6>>>>>>>>>>>>>>>>>>>,'))))))))))))))))-",
"1__________________________________________________________________________2;>>>>>>>>>>>>>>>>>>>>>>>>>>>>>>>>,'))))))))))))))))-",
"1__________________________________________________________________________2;>>>>>>>>>>>>>>>>>>>>>>>>>>>>>>>>,'))))))))))))))))-",
"1__________________________________________________________________________2;>>>>>>>>>>>>>>>>>>>>>>>>>>>>>>>>,'))))))))))))))))-",
"1__________________________________________________________________________2;>>>>>>>>>>>>>>>>>>>>>>>>>>>>>>>>,'))))))))))))))))-",
"1__________________________________________________________________________2;>>>>>>>>>>>>>>>>>>>>>>>>>>>>>>>>,'))))))))))))))))-",
"1__________________________________________________________________________2;>>>>>>>>>>>>>>>>>>>>>>>>>>>>>>>>,'))))))))))))))))-",
"1__________________________________________________________________________2;>>>>>>>>>>>>>>>>>>>>>>>>>>>>>>>>,^////////////////{",
"1__________________________________________________________________________2;>>>>>>>>>>>>>>>>>>>>>>>>>>>>>>>>,@                #",
"1__________________________________________________________________________2;>>>>>>>>>>>>>>>>>>>>>>>78[[[[[[[~4>>>>>>>>>>>>>>>>,",
"1__________________________________________________________________________2;>>>>>>>>>>>>>>>>>>>>>>>-@       }6>>>>>>>>>>>>>>>>,",
"1__________________________________________________________________________2;>>>>>>>>>>>>>>>>>>>>>>>,;>>>>>>>>>>>>>>>>>>>>>>>>>,",
"1__________________________________________________________________________2;>>>>>>>>>>>>>>>>>>>>>>>,;>>>>>>>>>>>>>>>>>>>>>>>>>,",
"1__________________________________________________________________________2;>>>>>>>>>>>>>>>>>>>>>>>,;>>>>>>>>>>>>>>>>>>>>>>>>>,",
"1__________________________________________________________________________2;>>>>>>>>>>>>>>>>>>>>>>>,;>>>>>>>>>>>>>>>>>>>>>>>>>,",
"1__________________________________________________________________________2;>>>>>>>>>>>>>>>>>>>>>>>,;>>>>>>>>>>>>>>>>>>>>>>>>>,",
"1__________________________________________________________________________2;>>>>>>>>>>>>>>>>>>>>>>>,;>>>>>>>>>>>>>>>>>>>>>>>>>,",
"1__________________________________________________________________________2;>>>>>>>>>>>>>>>>>>>>>>>,;>>>>>>>>>>>>>>>>>>>>>>>>>,",
"1__________________________________________________________________________2;>>>>>>>>>>>>>>>>>>>>>>>,;>>>>>>>>>>>>>>>>>>>>>>>>>,",
"1_______________________________________________________9[{{{{{{{{{{{{{{{{{{4>>>>>>>>>>>>>>>>>>>>>>>,;>>>>>>>>>>>>>>>>>>>>>>>>>,",
"1_______________________________________________________8@                 }6>>>>>>>>>>>>>>>>>>>>>>>,;>>>>>>>>>>>>>>>>>>>>>>>>>,",
"1_______________________________________________________2;>>>>>>>>>>>>>>>>>>>>>>>>>>>>>>>>>>>>>>>>>>,;>>>>>>>>>>>>>>>>>>>>>>>>>,",
"7{{{{{{{{{{{{{{{{{{{{{{{{{{{{{{{{{{{{{{{{{{{{{{{{{{{{{{{{4>>>>>>>>>>>>>>>>>>>>>>>>>>>>>>>>>>>>>>>>>>,;>>>>>>>>>>>>>>>>>>>>>>>>>,",
"@                               #@                      }6>>>>>>>>>>>>>>>>>>>>>>>>>>>>>>>>>>>>>>>>>>,;>>>>>>>>>>>>>>>>>>>>>>>>>,",
";>>>>>>>>>>>>>>>>>>>>>>>>>>>>>>>,;>>>>>>>>>>>>>>>>>>>>>>>>>>>>>>>>>>>>>>>>>>>>>>>>>>>>>>>>>>>>>>>>>>,;>>>>>>>>>>>>>>>>>>>>>>>>>,",
";>>>>>>>>>>>>>>>>>>>>>>>>>>>>>>>,;>>>>>>>>>>>>>>>>>>>>>>>>>>>>>>>>>>>>>>>>>>>>>>>>>>>>>>>>>>>>>>>>>>,;>>>>>>>>>>>>>>>>>>>>>>>>>,",
";>>>>>>>>>>>>>>>>>>>>>>>>>>>>>>>,;>>>>>>>>>>>>>>>>>>>>>>>>>>>>>>>>>>>>>>>>>>>>>>>>>>>>>>>>>>>>>>>>>>,;>>>>>>>>>>>>>>>>>>>>>>>>>,",
";>>>>>>>>>>>>>>>>>>>>>>>>>>>>>>>,;>>>>>>>>>>>>>>>>>>>>>>>>>>>>>>>>>>>>>>>>>>>>>>>>>>>>>>>>>>>>>>>>>>,;>>>>>>>>>>>>>>>>>>>>>>>>>,",
";>>>>>>>>>>>>>>>>>>>>>>>>>>>>>>>,;>>>>>>>>>>>>>>>>>>>>>>>>>>>>>>>>>>>>>>>>>>>>>>>>>>>>>>>>>>>>>>>>>>,;>>>>>>>>>>>>>>>>>>>>>>>>>,",
";>>>>>>>>>>>>>>>>>>>>>>>>>>>>>>>,;>>>>>>>>>>>>>>>>>>>>>>>>>>>>>>>>>>>>>>>>>>>>>>>>>>>>>>>>>>>>>>>>>>,;>>>>>>>>>>>>>>>>>>>>>>>>>,",
";>>>>>>>>>>>>>>>>>>>>>>>>>>>>>>>,;>>>>>>>>>>>>>>>>>>>>>>>>>>>>>>>>>>>>>>>>>>>>>>>>>>>>>>>>>>>>>>>>>>,;>>>>>>>>>>>>>>>>>>>>>>>>>,",
";>>>>>>>>>>>>>>>>>>>>>>>>>>>>>>>,;>>>>>>>>>>>>>>>>>>>>>>>>>>>>>>>>>>>>>>>>>>>>>>>>>>>>>>>>>>>>>>>>>>,;>>>>>>>>>>>>>>>>>>>>>>>>>,",
";>>>>>>>>>>>>>>>>>>>>>>>>>>>>>>>,;>>>>>>>>>>>>>>>>>>>>>>>>>>>>>>>>>>>>>>>>>>>>>>>>>>>>>>>>>>>>>>>>>>,;>>>>>>>>>>>>>>>>>>>>>>>>>,",
";>>>>>>>>>>>>>>>>>>>>>>>>>>>>>>>,;>>>>>>>>>>>>>>>>>>>>>>>>>>>>>>>>>>>>>>>>>>>>>>>>>>>>>>>>>>>>>>>>>>,;>>>>>>>>>>>>>>>>>>>>>>>>>,",
";>>>>>>>>>>>>>>>>>>>>>>>>>>>>>>>,;>>>>>>>>>>>>>>>>>>>>>>>>>>>>>>>>>>>>>>>>>>>>>>>>>>>>>>>>>>>>>>>>>>,;>>>>>>>>>>>>>>>>>>>>>>>>>,",
";>>>>>>>>>>>>>>>>>>>>>>>>>>>>>>>,;>>>>>>>>>>>>>>>>>>>>>>>>>>>>>>>>>>>>>>>>>>>>>>>>>>>>>>>>>>>>>>>>>>,;>>>>>>>>>>>>>>>>>>>>>>>>>,",
";>>>>>>>>>>>>>>>>>>>>>>>>>>>>>>>,;>>>>>>>>>>>>>>>>>>>>>>>>>>>>>>>>>>>>>>>>>>>>>>>>>>>>>>>>>>>>>>>>>>,;>>>>>>>>>>>>>>>>>>>>>>>>>,",
";>>>>>>>>>>>>>>>>>>>>>>>>>>>>>>>,;>>>>>>>>>>>>>>>>>>>>>>>>>>>>>>>>>>>>>>>>>>>>>>>>>>>>>>>>>>>>>>>>>>,;>>>>>>>>>>>>>>>>>>>>>>>>>,",
";>>>>>>>>>>>>>>>>>>>>>>>>>>>>>>>,;>>>>>>>>>>>>>>>>>>>>>>>>>>>>>>>>>>>>>>>>>>>>>>>>>>>>>>>>>>>>>>>>>>,;>>>>>>>>>>>>>>>>>>>>>>>>>,",
";>>>>>>>>>>>>>>>>>>>>>>>>>>>>>>>,;>>>>>>>>>>>>>>>>>>>>>>>>>>>>>>>>>>>>>>>>>>>>>>>>>>>>>>>>>>>>>>>>>>,;>>>>>>>>>>>>>>>>>>>>>>>>>,",
";>>>>>>>>>>>>>>>>>>>>>>>>>>>>>>>,;>>>>>>>>>>>>>>>>>>>>>>>>>>>>>>>>>>>>>>>>>>>>>>>>>>>>>>>>>>>>>>>>>>,;>>>>>>>>>>>>>>>>>>>>>>>>>,",
"<[[[[[[[[[[[[[[[[[[[[[[[[[[[[[[[~<[[[[[[[[[[[[[[[[[[[[[[[[[[[[[[[[[[[[[[[[[[[[[[[[[[[[[[[[[[[[[[[[[[~<[[[[[[[[[[[[[[[[[[[[[[[[[~"};
