/* XPM */
static char * warped_floor_xpm[] = {
"64 64 260 2",
"  	c #2A2422",
". 	c #25201F",
"+ 	c #201B1A",
"@ 	c #1B1817",
"# 	c #151211",
"$ 	c #171312",
"% 	c #1F1A19",
"& 	c #231D1D",
"* 	c #282321",
"= 	c #2F2826",
"- 	c #322B29",
"; 	c #2B2624",
"> 	c #211C1B",
", 	c #161312",
"' 	c #0F0D0C",
") 	c #0D0B0B",
"! 	c #0C0A0A",
"~ 	c #100E0E",
"{ 	c #181414",
"] 	c #1E1919",
"^ 	c #1A1616",
"/ 	c #1B1716",
"( 	c #1E1A19",
"_ 	c #1F1A1A",
": 	c #1F1B1A",
"< 	c #191515",
"[ 	c #191514",
"} 	c #171313",
"| 	c #131010",
"1 	c #110F0E",
"2 	c #141111",
"3 	c #1C1817",
"4 	c #12100F",
"5 	c #110E0E",
"6 	c #181514",
"7 	c #1D1918",
"8 	c #282221",
"9 	c #2A2423",
"0 	c #2B2423",
"a 	c #2A2523",
"b 	c #26201F",
"c 	c #201C1A",
"d 	c #161313",
"e 	c #211C1C",
"f 	c #292422",
"g 	c #302A28",
"h 	c #292321",
"i 	c #241F1D",
"j 	c #1F1B19",
"k 	c #1A1615",
"l 	c #120F0F",
"m 	c #0B0909",
"n 	c #1B1717",
"o 	c #221D1C",
"p 	c #211D1C",
"q 	c #201C1B",
"r 	c #231E1D",
"s 	c #221D1D",
"t 	c #171413",
"u 	c #1D1818",
"v 	c #151212",
"w 	c #282322",
"x 	c #292322",
"y 	c #272120",
"z 	c #302927",
"A 	c #2F2827",
"B 	c #211C1A",
"C 	c #0E0C0C",
"D 	c #0A0909",
"E 	c #080707",
"F 	c #070606",
"G 	c #090808",
"H 	c #13100F",
"I 	c #151312",
"J 	c #251F1E",
"K 	c #241E1D",
"L 	c #201B1B",
"M 	c #191615",
"N 	c #27201F",
"O 	c #211D1B",
"P 	c #1C1818",
"Q 	c #2C2524",
"R 	c #262120",
"S 	c #0C0B0A",
"T 	c #090707",
"U 	c #060505",
"V 	c #090807",
"W 	c #171414",
"X 	c #241F1E",
"Y 	c #272221",
"Z 	c #251F1F",
"` 	c #141110",
" .	c #231E1C",
"..	c #0D0B0A",
"+.	c #161212",
"@.	c #241E1E",
"#.	c #131110",
"$.	c #272020",
"%.	c #26211F",
"&.	c #131111",
"*.	c #151111",
"=.	c #0F0D0D",
"-.	c #251E1D",
";.	c #1E1A18",
">.	c #0B0A09",
",.	c #100D0D",
"'.	c #141010",
").	c #1D1917",
"!.	c #1A1716",
"~.	c #0E0C0B",
"{.	c #080606",
"].	c #0A0908",
"^.	c #0F0C0C",
"/.	c #100E0D",
"(.	c #0B0A0A",
"_.	c #1E1B1A",
":.	c #231D1C",
"<.	c #27211F",
"[.	c #0D0A0A",
"}.	c #050404",
"|.	c #1C1717",
"1.	c #221D1B",
"2.	c #2B2523",
"3.	c #141211",
"4.	c #0A0808",
"5.	c #181515",
"6.	c #080706",
"7.	c #120F0E",
"8.	c #1D1919",
"9.	c #110D0D",
"0.	c #312A28",
"a.	c #2E2725",
"b.	c #25201E",
"c.	c #1D1A18",
"d.	c #2E2726",
"e.	c #0C0A09",
"f.	c #090909",
"g.	c #110F0F",
"h.	c #0F0E0D",
"i.	c #322B28",
"j.	c #2D2725",
"k.	c #282220",
"l.	c #352D2B",
"m.	c #332B29",
"n.	c #1E1818",
"o.	c #100D0C",
"p.	c #130F0F",
"q.	c #121010",
"r.	c #332C2A",
"s.	c #372F2C",
"t.	c #3B332F",
"u.	c #3A312E",
"v.	c #2A2322",
"w.	c #302926",
"x.	c #0D0C0B",
"y.	c #372E2C",
"z.	c #1B1715",
"A.	c #221E1D",
"B.	c #0E0D0C",
"C.	c #1C1716",
"D.	c #2B2524",
"E.	c #362E2C",
"F.	c #342D2A",
"G.	c #2D2624",
"H.	c #231F1D",
"I.	c #241D1C",
"J.	c #1B1616",
"K.	c #251E1E",
"L.	c #322A28",
"M.	c #352E2B",
"N.	c #1A1515",
"O.	c #2E2825",
"P.	c #2E2826",
"Q.	c #0B0908",
"R.	c #352D2A",
"S.	c #362E2B",
"T.	c #342D2B",
"U.	c #312927",
"V.	c #2C2523",
"W.	c #211B1A",
"X.	c #1D1817",
"Y.	c #2C2624",
"Z.	c #161413",
"`.	c #221C1B",
" +	c #2D2825",
".+	c #1E1A1A",
"++	c #201B19",
"@+	c #332C29",
"#+	c #2F2927",
"$+	c #1F1B1B",
"%+	c #1E1918",
"&+	c #272220",
"*+	c #1C1918",
"=+	c #251F1D",
"-+	c #1A1715",
";+	c #2D2625",
">+	c #231E1E",
",+	c #171412",
"'+	c #292423",
")+	c #342C2A",
"!+	c #211B1B",
"~+	c #181413",
"{+	c #39312E",
"]+	c #3C3330",
"^+	c #3D3531",
"/+	c #3D3430",
"(+	c #332B28",
"_+	c #221E1C",
":+	c #2C2625",
"<+	c #38302D",
"[+	c #3A322F",
"}+	c #312B28",
"|+	c #2C2623",
"1+	c #262220",
"2+	c #2B2522",
"3+	c #191414",
"4+	c #262020",
"5+	c #141212",
"6+	c #100F0E",
"7+	c #0E0B0B",
"8+	c #1D1A19",
"9+	c #191616",
"0+	c #040303",
"a+	c #0E0D0D",
"b+	c #0C0B0B",
"c+	c #030303",
"d+	c #231F1E",
"e+	c #060504",
"f+	c #050504",
"g+	c #070605",
"h+	c #050505",
"i+	c #040404",
"j+	c #2B2422",
"k+	c #221C1C",
"l+	c #24201E",
"m+	c #0D0C0C",
"n+	c #352C2A",
"o+	c #282222",
"p+	c #151210",
"q+	c #191614",
"r+	c #2C2525",
"s+	c #1F1C1A",
"t+	c #1C1816",
"u+	c #110E0D",
"v+	c #070706",
"w+	c #060605",
"x+	c #070505",
"y+	c #312A27",
"z+	c #191716",
"A+	c #292221",
"B+	c #2A2524",
"C+	c #181513",
"D+	c #312928",
"E+	c #282121",
"F+	c #2F2926",
"G+	c #1B1816",
"H+	c #2A2424",
"I+	c #342C29",
"J+	c #302826",
"K+	c #292222",
"  . + @ # $ % & * = - ; > , ' ) ! ) ~ { ] ] ^ { / ( _ ( % ( % : : ( / < ^ [ < } | 1 2 / % 3 4 5 | 6 < 3 7 7 ^ / ] ] : . 8 9 0 a ",
"b c 3 3 } d e f g = h i j k l ) m m ) | [ n 3 7 o o p q p r r s p _ t , , [ k t , 6 3 u ^ t 6 , v , < ^ ^ / / : p > > b w x w y ",
"o + 3 7 u 7 r z A h B l C ! D E F G C H I n ( e J b y y 8 y . J J K + 7 7 / / / / : L < , k < M % u 6 { , l , 3 ( q K y N 8 . O ",
"+ + 7 P P ( h - Q R > H S T F U V l W k 7 o X R 8 8 8 8 Y R . b b Z > M t 6 n 7 > o : u 3 6 l ^ : > ] < , 2 ` [ 7 : r J * Y  .+ ",
"e q L : X . b R > o r 3 H ) ! m ..I 3 + L L > X b Z X r r r o L 3 { +.+.t +.6 7 r @.e / n 2 d ^ k 3 / { } } # #.t ^ 3 e $.x %.r ",
"e X b b 9 Q x L 3 7 M &.*.l =.S ..5 +.n 7 ( % : % : 7 3 M } # # d # 1 1 4 , / u ( > : { 6 4 7 % / , 2 d M { # | 4 #.+., % X . r ",
"> q r -.y * N ;.6 v 5 >.! ,.4 '.2 +.k 3 3 7 7 ^ < < t { d , v d t { # { 3 q X p 7 > < # ' t 7 3 < d , t t { , 2 4 | 2 2 t M P L ",
"{ k < / 3 P ).!.4 ~.! E {.].~ 2 t / n < } v t # H ` ` d t k n 3 7 7 6 / 3 ( + P 7 < # ~.! | t M < 3 + ( / t 2 H l 1 4 2 t 6 } t ",
"~.^.5 1 1 4 H H H /.) ! m ].! l k 3 7 ] / / n 3 / < @ 7 u n 3 7 u k # , } # #.< / { 4 5 # , , 6 !./ : B K O 3 I /.) m (.~.| '.~ ",
"~ ..S ....~.~.=.l # 2 =.~.) ! ' } n 3 3 u ] ( L _.7 7 : + % 3 { t } , ` 5 H { % 7 6 # 6 > ( / [ } d M 3 :.<.] l C [.F }.}.E C 4 ",
"2 H ~ ^.) ! m ! ) =.l l 1 l ! ! =.2 ^ 7 3 n n ] u |.6 k |.P M , # # # 4 /.} 7 !.< v } q % < { [ 6 #./.$ 1.2.y P 3.` C m E E 4.,.",
"! ,.H , , 2 | l 5 =.l ` 4 ) ! m ) C 1 , < ^ M !.[ , t , I } { , , # 2 # 2 2 l | l 2 7 7 6 6 n n 5.l T E '.J z . , ` C G 6.G D ! ",
"m ) ~.=.| d t , | 4 l | +.l ].V ].C /./.| , d } } 3.l 4 7.l v { / 8.: 3 { ` /.~.C { ^ [ P + ( 3 _.^ # ^.9.o 0.a.u +.| ) T G V D ",
"G 6.>./.1 5 ) ~.~ | l | # v 5 4.{.E ~.5 ~ #.# 2 2 } , *.| v 6 k 8.% 7 / 4 ..m D 1 6 < 7 p X b.o O ( c.^ k . d.0.* 3 | ) 4.V e.C ",
"D f.m ~.l l 4 l C ) /.l l #.4 ' T U {.! 5 =.7.+.d # # , 2 l g.H '.2 l /.h.C ~.=.H k : r y = i.= j.  i q o k.g l.m.  n., ' m m ~.",
"! ! 4.D C /.1 5 H 2 H H | 1 l l C E U F m ' C C # { v | 1 7.=.o.~.~./.p.q., 6 t P e r J 2.r.s.t.u.z a.v.y 8 z r.l.w._.#.m E F T ",
"~.q.1 ~.) C =.~ 1 l ` #.4 4 | 2 # ' 4.F T ]...) ~.5 l 4 ~.x.=.^.,.| v { } < ( @.b Y 8 8 2.r.u.y.d.w :.z.< A.w 0.- h k 4 m D 4.m ",
"S S ) ' l 4 5 /.C ,.5 | # ` 4 1 5 5 C ) V T m ..' /.5 l q.7.l 2 5 /.B.' 2 W C.A.b Y x D.z E.F.G.H.;.l ! #.P I.  0 2.7 1 ) (.].! ",
"l ,.' l ` # 2 ` # , [ J.k t +.2 4 ) m ~./.m 4.! H 1 l l l 5 /.) ! D G D 5 d u K . K.h L.E.M.r.8 3 #.~.^.#.M s x f X N./.m E ].=.",
"H q./.# , v 6 / 3 7 > 8 O.0 i 3 W ` ,.e.^.2 C ! | M v ~ ' C ' ..T E G (.2 t n  .  a.r.s.M.r.2.B v =.) =.v 7 8 P.8 _ l Q.G F >.l ",
") m ) # , 2 { 3 + b.%.* a.M.R.2.o k } 1 (.4 { | ^.} 3 [ # 4 g.=.m E G D =.{ < q   i.S.T.= v.. : +.l # { C.y U.F.K +.x.4.T G 4.! ",
"G 4.5 d , # { ] i  .o > + X V.z h W.!.{ ,.~.# X.[ +.{ 3 t ` # C m m 4.D m l t 3 + %.  0 8 X > u W { 6 7 Y.r.i.b.{ l ~ ~.D V F E ",
"! '.Z.2 l 6 P u `.X b H.> 7 > h  +* j M l S ! [ % .+< , | 4 ` ~ G F V m C ` 6 t { B K A.o + < t < 3 ++a.@+#+<.$+%+( 3 +.' S 4.T ",
"5 } # ` < 3 M +.+.t |.X.7 ( 3 ( b Y.<.++` ! E ) , : r > ^ , ^ u I ^.m ! ) *.< / t |.> %+/ / } [ L b.&+a.= h o q + c o ).q.=.m >.",
", v # < / ^ { 6 k [ P n k / n / *+>  .j # ) m E D d . 8 s ^ 6 , | ,.! G ! | , 2 { C.] ( 3 !.n o O c + y x =+> L =+k.%.-+g.S ..l ",
"n { 6 ^ k [ < ^ / / 3 < , | # , t k k n [ ,.! >.m ` X j.;+x >+j v /.! 6.{.T m =./., M 7 ^ t X.B 3 3 ( :.( %+X.e i ( ,+,.C =.l ^ ",
"6 { / 3 M ^ 6 !.( 7 7 : q ( k 3 / n $ , C.< =.x.~.` + '+0.)+= J ^ | ' ..E E T ].! g.< !.{ 6 W |.] + > u < t < M 2 ~ ~.' /.4 !.( ",
", < u 3 M < 7 q s . R 8 9 x r X X i b.+ %+%+t ` 4 *.% 8 j.#+%.!+1 ) m C 1 =.l 5 5 # d P _ < n > > % k t v | =.! >.' ,.' l k u t ",
"6 n ^ k / _ r R x 0 Y.Q Y.Y.x J * h b ( u { # ~+k 7 r Y 0 Y.> M =.V E S v 6 2 1 l | | [ ( : 7 L ( { # | 2 l C ) C /.=.l d < 6 d ",
"M M 3 3 e . x Q = 0.m.)+- l.i.2.f *   1.^ M { k ( o 8 2.Q 9 7 | ) G F ! 5 +.t =.=.~ ,.l ~+7 < d # 2 l l 4 /.=.l 2 =.' 1 1 | 2 6 ",
"n 7 + X x Y.d.0.M.{+]+^+/+/+t.(+G.a.G. .3 W N.t |._+2.:+Y.&+I ^.V ]...' | 3.| ~ ) ! C /.=.C C ../.2 d l 1 5 H +.2 | 1 l l | # } ",
"> b x Y.P.0.m.M.<+u.[+[+s.@+0.  > K p J.< } v # d r Y.; %.( M , ) {.F 6.m l 2 g.^.>.m ! ].G D D ' , t } | } , /.l 4 l | ` # k ( ",
"@.8 9 Y.j.d.z z - m.m.L.- 0.z k.3 u % I 7.5 >.T 9.u 2.R.a.X q 3 | 4.U U E S ~ 1 ,.=.,.C 4.(.~.l l 2 t t [ v l /.l # } { ] % L e ",
"e > e r b y y 8 x x x 9 j.z d.Z / [ ^ ' G F U E /.3 k.}+@+z * c M l ..4.F F F m ^.1 l H 2 2 , ~+2 l 2 +.# 2 # 6 { < 2 , ^ 3 n % ",
"# 6 3 7 ] ( + o r X X b 8 8 X P , ` l >.F V x.~ ` 3 r &+Y.- i.|+3 =.! D V E 6.x.2 d 6 t d 6 6 I I ` 4 # k _ ] ] 6 { 7 / { { # | ",
"} ` H ` v t 6 [ k 3 _ > L : ^ #.| v # ) m 5 2 } / : J 1+2.L.a.k.[ ) ].m ! /.H 2 l , k !.Z.*.| d 6 { 2 t 3 > ] k 6 , M / 3 ] / < ",
"k k k 6 t d , } { M ( % 7 / 2 l # # 4 /.# } 6 t u %.Y.Y.2+1.$ ' ! D G 2 < } 4 l ,.` 5.M 2 p.# d 6 6 < M / 7 7 u % 3 [ / [ k 3 n ",
"3 3 n ^ k M / 3 7 + K b / I l 1 ~ ..' # } +.W ).p J i ] 3 ^ 4 ! G ! l < n k , , I l *.3.&.1 ` , 6 6 t t v +.< 7 % n k / ( 3 7 3 ",
"_ 7 P u ] ( ( ( o b.:.%+t } v 5 ~.,.l 2 2 , : >+> k } ^ 3 [ 1 ) ! >.,.| v t 7 _ 3 ` 5 +.I l ' C l 2 2 # , # 4 4 # { / < ^ n _ + ",
"] 7 3 3 / k k 3 7 k 6 d # ` l ~ g.7.~ ~ 2 / X.3 / M M < d 2 4 5 C ) /.l # / : |.M 6 , d < 6 2 4 5 /.l 2 v } # /./.=.1 ` 1 1 { 7 ",
"} } } , v v *.# v v | 4 1 ,.' ) ! ! C ~ #.d d W 3 3 / [ d +.4 l ' ! ! 1 2 { 7 .+_ O 7 t , , | 1 , , 2 | #.4 | | 1 =.=.` 4 ' l v ",
"{ ^ n n !./ k 6 } 2 ` 1 =.=.C ..) ^.g., , &.7.| 6 M 3+6 !.k # ~ /.` *., 3 > e q o 4+8 p M | l C =.| # +.+., l l l ~ l # !.6 , 2 ",
"/ M 6 t , | =.5 4 1 ^.C C /.4 | +.d } # | h.=./.5 5 #.+.d ` 7.1 | t ^ u % + K o ] J 0 Y.@.6 5+6+7+C ~ /.2 ~+v 5 ' ' /.| v ^ 3 !.",
"M } , 2 4 /.C ) ! m ..~.=./.| , # 2 H C ].4.].4.! 5 2 # #.g.5 1 +.!./ 3 3 ] _ ( ( 8+e h V.v.*+5+/.! >.4.E V m 7+..) ) # n < k n ",
"k , 4 ~ =.=.C ! m ! ! ! ) =./././.C m E F U E m h.1 ,.~ =.' q.{ 9+3 7 u < 6 C.+.l # / K 8 k.& #...G F F F G m ! D [.| # !.( n M ",
"| | 2 5 ' C =./.) ) C /.1 H H /.~.! G G G 4.].D ! ! ) /.2 W 9+k 3 ( % ( !.t t ' E E H ] . &+>+Z.G }.}.}.0+}.4.) ~.! =.# # d 6 t ",
"} # l 5 C ~.' /.l l #.| l ,.C ~.) ~.,.a+C b+,.C =.| +.[ 9+!.P ( j : + q % } v /.4.F G } W.%.V.B S c+}.F U F G S 5 ,.' C C ,.` , ",
"2 4 =.) ,.1 ,.C ' ' =.^.~.) ) ~.~ l 5 ~ h.h./.#.} ~+[ / 3 L i h h . b.K L / | g.) ].m g.q d+i > +.e+0+0+}.U x.~.^.# # 1 1 l , t ",
"2 4 /.) D G T V G V 4.m ! ! ^.1 2 v | | *.< u 3 k { 6 n ] o X y 0 G.a.j.f X 3 # #.1 g.M o y b r @ ) f+}.0+g+| # # # 4 4 | { { , ",
"4 | 4 ) >.4.F g+U U F ].S C ' l | 2 < P ] P / < / ++r b.y 8 x Y.= z U.i.m.a.q d #., k % d+8 k.s 1 G h+0+i+U E >.B.h.l ` v } +.| ",
"# ` # | ) m G D m ) ,.=.) C 5 4 # { M < < k / 3 ] . 2.Y.;+a.z )+F.m.0.#+j.j+k+~+# t j l+  0 1+: l F }.0+}.6.V E m >.m+g.&.# 2 , ",
"< , 2 v 3.# ` v | ~.' C C ,.,.| # 2 # { ^ u ] _ L r J 8 9 0 2.z 0.z P.j.Q Y %.j <  .O.L.)+n+- o+7 =.U }.g+T E >.~.~ 1 4 l ~ l } ",
"< ` H $ % O ++{ p+C ) (.].m m ! 5 } [ k !.3 ( _ _ L > s b x   0 Y.0 2.  y %.j 9+| 1 *.] J j.m.m.> t ! F U g+g+! /.,.' ,.4 # < 3 ",
"] u / ^ !.q+k ~+!.*.5 ' 4.U F D ^.2 { / / 3 P u u ( o X &+f D.Q Y.r+x J r !.4 m V V =.[ . j.:+j+] # ) T U }.F (.1 l ,.` 6 M 7 ( ",
"+ + / # | ~ 1 ` +.P s+t+) U {.m C l q.+., { { / / / o X @.R 8 v.8 b.q 3 d 5 ..! ! ' *.( 8 Q j.  *.u+~ ) m G G ' ` l v n 7 ( + q ",
"+ 7 !.# 2 ^.F D C M l+o 2 E h+}.}.E ! C 1 , 7 ( ( : > H.J l+r e j 3 / 6 } 3.1 l 2 d 6 r 0 = a.X H ~.) m E U }.V 4.5 6 ] ] ( o o ",
"L r r ( 6 H v+0+6.< r + , [.E w+U ].C ' ,.4 d k 7 k+& p B L : 7 / < t { } M k M 5.^ _ X G.Y.8 : I =.! F h+i+}.E m 5 +.!.^ / ;.++",
"Y.2.Y K _ t 4 T e.n + / ;.} =.E U U G ' , 6 t # v M 3 3 u 7 n ^ M 6 < } } < 6 t 3 > . R v.a.k.).+.~ ! G {.F x+V /., k + `.r 8 Q ",
"r.z G.y q !.@ # ` X.y h y+j+2 D w+i+i+E =.[ n 6 } , t 6 / 3 3 u P 3 ^ k 7 ( 3 3 p . &+h 0 j+J z+v ` 7./...! ) ,.< ( d+A+  B+;+- ",
"0.z a.x + { ~+l , : 8 = F.z C+~.[.) G G x.v / n / k 6 k [ [ / P ] 7 n k !.k n > b 8 x b._ ^ t H ^.' C C =.5 2 , + 4+x Q ;+d.z D+",
"D.= j.E+( #.! 4.5 p o+V.F+1.5 ! ! m {.E ) 2 W < 7 n k k / ( 7 n / / 3 ^ M < 3 % o W.G+3+| ~.C C ) ..~.^.l } / : r b.D.= A = j.D.",
"9 = 2.X { G U T 3.b 9 Y.V.3 2 x.E U h+e+T ) m m l } < < 6 M / n / M !.M < / / / !.t v ~ C ~.~.) C ..) l M 3 ).c r %.E+H+Q 0 9 9 ",
";+I+  r # 4.U ~.*+  J+z j+o k l C (.m S v } 2 ` v v , , , 6 n M < 6 { 6 { { k k { 6 } #.1 /.l ` 1 5 l 2 { k ^ k n 3 P > x 9 Y.0 ",
"- Y.r q v 2 4 | 7 K+z m.-.{ | ,.m 6.].~ k k k [ } } } } 6 / / / k < t +.# d k ^ 2 H , d # # | /.l v ^ n k < n / 3 P ( Z x d.;+P."};
