/* XPM */
static char * warped_roof_xpm[] = {
"64 64 6 1",
" 	c #423127",
".	c #352922",
"+	c #6A5244",
"@	c #796152",
"#	c #5B4538",
"$	c #49372C",
" ..++@@+##$$..  $.. ..$#+##+++##$$    .$#$....         ..###### ",
". ..@@+@#$$ .. $ $... $#$#+++#+##$ . ..##$ . .. .    . ..##+##$ ",
"  .#+##$$ ..  .$$ .. $#$$+#+## +#$$ ..$##$$  ...      ..##+#$#  ",
" .++#$$   . $$  $ $. $$$####    ##$...##$#$$  ..    ...##++##$ $",
"#++#$  $..$$##$  . $.$$$$## . ..$#$. ..$#$##$$$$#++###++##++##$#",
"+#$$  $$.$$#$##$  . ..$$#$+# ..##$  . ..$##$$##+++++#+++###+####",
"$$$  $ $$#$#####$$ .. .$$#++###$#$ .... .$##$$##+$##+#+###$#+$#$",
"$$ $ $$#$###+####$$...  $$###$$#$ .. . . ..$$#$#$#$##$$####$$$$ ",
"$$$ $$$$## ##+##$#$ .   . $#$#$$        .. ...   $$$$ .   $$$$  ",
"$$. $$#$# . #++####$. .  . $$$$ .  . ..   $$$  $  $$ .. .     $ ",
"$. $$#+# ... #++##$#$.. ...      .....  $  $$$  $$ $$ ..    .  $",
"...$$##+  ..#+@+#+#$$$.. . ..  ....  .   $  $  $ $$     .   .. $",
".$.$#+#+@##+@@+++++#$#$.. . ..  .. $$ $ $$$$######$$$$     . ..$",
".$$ ##++@@+@+@++++##+##$.  ... .  . $$ $$#####++##@+##$$  .   ..",
"$$$+#++@+@@+++#+#+++##$$$ ..  .  $ $$$##+#+##++##++@@++#$    ...",
"$$$#++@@@+@++###++++#+#$$$.$ . .  $$###+++#+++##+#++@@++#$  . . ",
"$$#+@+@+@@++## .  #+++#+$#$ .. $ $####+++###+#+##++   +###$  . $",
"$$++@@+@+@++#..     #+#++$$  .. $###$+#+++#####++@ .   +##$  $ $",
"$#+@+@@++++@+...     #+#+#$$.. $#$#$$###+##++#++++@+..  +##$. . ",
"$#+++@  ++++@....   $ ++#+$$. $$$#$$###+##++####+@@@+.. +#+$ . $",
"#$#++ .. #@@@@..     $$+###$$. $$$$######.  $$+##+@@@+#+#++#$.. ",
"####+...  @+@++.  .   $$+##$$   $$$#$#$ .... $$$##+@+#++@+++$ . ",
"###+#  . ++@@@+#..   $$$##$$.  $#$$$#$ ....    $$##+@++@@+#+#$..",
" #####  #++@@+@+#. $$ $####$..  #$$$$.....    $ $$##++@@@++##$ .",
" $####+#++++@@@@+##++###$#$ .   $#$#$ ... .    $$$#+#++@+@++#$ $",
"$$$ ###++++@+@@++++##+#$#$$. . $$$#+#$ .        $+#+##@+@@+##$ .",
" $$$$$##+#+++##+#+#####$$$  .   #$##+#$$.      $##+++#++@#+#+$. ",
"  $$ $$ ##++#$###$######$ $.. . $#$#++##      ##+++@++#+++#++$..",
"  $.  $$$$$$$#$#$###$#$$   ....$$$###+#+#@+@+@+@+@@+#.. +###+.. ",
" . ..$ .$$$ $$$$$$###$   .$ ..  $$$#$###++@@++@@@@+#..  +@#+#.  ",
"  ... .  $$$ $  $##$    .$ . ..  $ $$#$#+#+++@@@++ .   +@###$  .",
". .. $ $  $$ .    $  $ .. ... ..    $$####+#++@+@+#   #++#+#$  .",
"..  . $$$   $ .. $ $$$  .. .   .$ .  $$##+##+#+++####++#+##$  ..",
" .. .  $$   $$ .    $. ..... $   $ .  $$#####++#+++#+#++##$.  . ",
"  ..  $$  .   $  $ $. ... . .$$    ..   $$#+###++####++##$.. . $",
" .   $ $$. .    $$$$  .. $ $$$  $ .... $ $$$##+###$#####$ .   $ ",
"##$$$   $ .... $ $$  $  $$$$$$$$ .  . $$.   $####$$$##$ .. .    ",
"#$##$$    ..     $$   $$$###$$##$ $$$   $.$  $$$$$$$$$ ..      $",
"  #$#$$   . . . $  $$$#$###$##+##$$##$$  ..$  $ . ... .  . .  $$",
" . #$$$        .  $$#####+#+###+##$#$$#$  .  $ $ $ .    . ..  $$",
"  .#$#$$    $   $$####+#+#+++#+++#+###$#$   $$$$  $    ....  $$#",
" .###$#$   $$  $$####++###++#+#+#+++#+###$   $$   $$ .  ..    ##",
"###+###$  $$  $$#++#+#++###+####++##+##+##$   $  $$   ... .   $#",
"#+#++#$$  $ $ $##+###++##+@@+##++##+#++++##$   $$$     . ..  $$#",
"##+++#$$ .   $###.$$###++#+@@+#+@+$   ++####$ $ $$$ . . ..   $##",
"###+#$$$.. .$$$#. $ $$##++#+@@+++@+$.  ++#+#$  $$$ ....   .  $##",
" .##+#$ . . $#$$.. $$$$$####++@+@@@+ .  ++#+#$  $ . ....    $###",
" ..##$$  .. $$#$#.$ .$$ $$#++@+@+@@@++  +#++#$       .. .  $#$##",
"  #$$$ . .   $##$#..  $$ $$#+++@@@@+@++++#+### $$ $ ....    $$$$",
" #$#$ ..   . $#$####..  $ $$#+#+@+@@++@+@+##+#  $$ .  ....   . $",
"..$$ .. .  .. $#####+#.. $$ ####+@+@@@+@++##+# . $$  .   .. $ ..",
"      .   ..   $#$###+##.. ##++##+#++@@@@@####. . $$   $. $$ $ .",
"####$$ . .. .   $#$##++#++##+#@##+  ++@@++#+# .. $   $$  $$$$##+",
"++@###$$.   .  $ $$#$#++#+++#@@+.   #+@+##++#  .   $$$$$$$####++",
"@@+++###$  .. . $$$$#++###+#@@+.   ++@+##++#  .   $$#$$$#####++#",
"+@@@+++#$$  ..  . $ $#+##+@@@@..  ++####+##. .. $$#$$###$###+##$",
" .+@@++##$$  .   .   $$#++++@+@++##++##+##$ .. $$#$###########$ ",
"  .+@@++##$ ..  ..    $$#+#+++#+##+#++###$ ... $###+####+##+#+  ",
"  ..@+@++#$$ .. .  $. .. $##+++#++#### $$$  .$$#$#+#+##++###+++#",
"  .++@@+#+$$. ...   $. .. $$########  $$$  .$$###+++##++#+###++#",
"+++++@@+++#$. ..  $$$$$$ ..... .. $$ . $    $###. .    .+#####++",
"++@+@@+@+##$  .  $ $$$$ .#+#$... $$$ .. .  $##. ..      .##+##++",
"+@@@@+@+++#$ .  $$..$. .#++#+##$. $ . ..$$$#  ...      ...##+++#",
"++@+@@++#+#$.  $$. ..  ##+++####$. $ ..$$$#  ... .    . ..###+##"};
