/* XPM */
static char * warped_out_xpm[] = {
"64 64 664 2",
"  	c #060605",
". 	c #040303",
"+ 	c #090808",
"@ 	c #0A0808",
"# 	c #090707",
"$ 	c #080707",
"% 	c #0A0909",
"& 	c #050404",
"* 	c #060505",
"= 	c #070606",
"- 	c #0A0707",
"; 	c #0C0909",
"> 	c #0F0B0B",
", 	c #140E0E",
"' 	c #161010",
") 	c #171010",
"! 	c #1B1212",
"~ 	c #1D1313",
"{ 	c #120C0C",
"] 	c #130C0C",
"^ 	c #100A0A",
"/ 	c #0B0707",
"( 	c #080505",
"_ 	c #0F0808",
": 	c #180D0D",
"< 	c #1D1010",
"[ 	c #120A0A",
"} 	c #0B0606",
"| 	c #180C0C",
"1 	c #211010",
"2 	c #1D0E0E",
"3 	c #100808",
"4 	c #100707",
"5 	c #0C0606",
"6 	c #0B0505",
"7 	c #0D0606",
"8 	c #0E0606",
"9 	c #0F0606",
"0 	c #100606",
"a 	c #0F0505",
"b 	c #120707",
"c 	c #110606",
"d 	c #0E0505",
"e 	c #0B0404",
"f 	c #130606",
"g 	c #140606",
"h 	c #120606",
"i 	c #0E0404",
"j 	c #0C0404",
"k 	c #1A0808",
"l 	c #1B0808",
"m 	c #171413",
"n 	c #161312",
"o 	c #100E0D",
"p 	c #080606",
"q 	c #0E0A0A",
"r 	c #1A1111",
"s 	c #0F0909",
"t 	c #0E0808",
"u 	c #190E0E",
"v 	c #1E1010",
"w 	c #140B0B",
"x 	c #0E0707",
"y 	c #160B0B",
"z 	c #0A0404",
"A 	c #090404",
"B 	c #150808",
"C 	c #1B0A0A",
"D 	c #1D0B0B",
"E 	c #1C0A0A",
"F 	c #1A0909",
"G 	c #190909",
"H 	c #180909",
"I 	c #150707",
"J 	c #100505",
"K 	c #110505",
"L 	c #151211",
"M 	c #1D1918",
"N 	c #211C1B",
"O 	c #1C1817",
"P 	c #110E0E",
"Q 	c #0B0909",
"R 	c #040404",
"S 	c #0D0909",
"T 	c #140D0D",
"U 	c #0C0808",
"V 	c #070404",
"W 	c #1B0F0F",
"X 	c #201212",
"Y 	c #150B0B",
"Z 	c #190C0C",
"` 	c #130909",
" .	c #110707",
"..	c #070303",
"+.	c #080404",
"@.	c #180A0A",
"#.	c #230E0E",
"$.	c #270F0F",
"%.	c #291010",
"&.	c #2B1010",
"*.	c #290E0E",
"=.	c #260D0D",
"-.	c #220C0C",
";.	c #1F0A0A",
">.	c #0A0303",
",.	c #0D0404",
"'.	c #0C0303",
").	c #342E2A",
"!.	c #3E3631",
"~.	c #443C36",
"{.	c #473E39",
"].	c #312B28",
"^.	c #0E0C0C",
"/.	c #030303",
"(.	c #070505",
"_.	c #1A0F0F",
":.	c #0A0505",
"<.	c #160A0A",
"[.	c #1D0D0D",
"}.	c #170A0A",
"|.	c #1C0B0B",
"1.	c #260F0F",
"2.	c #2D1111",
"3.	c #2F1111",
"4.	c #2E1010",
"5.	c #2B0F0F",
"6.	c #250C0C",
"7.	c #180707",
"8.	c #0D0303",
"9.	c #36302C",
"0.	c #3A322E",
"a.	c #4A413B",
"b.	c #4F453E",
"c.	c #524841",
"d.	c #564B44",
"e.	c #3B342F",
"f.	c #211D1B",
"g.	c #020202",
"h.	c #0B0808",
"i.	c #090606",
"j.	c #0D0808",
"k.	c #0D0707",
"l.	c #090505",
"m.	c #110808",
"n.	c #180B0B",
"o.	c #231010",
"p.	c #210F0F",
"q.	c #140909",
"r.	c #090303",
"s.	c #0C0505",
"t.	c #140808",
"u.	c #2A0F0F",
"v.	c #260E0E",
"w.	c #280E0E",
"x.	c #2C0F0F",
"y.	c #1E0A0A",
"z.	c #150606",
"A.	c #0B0303",
"B.	c #0A0202",
"C.	c #090202",
"D.	c #2C2724",
"E.	c #292321",
"F.	c #2F2825",
"G.	c #1E1B19",
"H.	c #24201E",
"I.	c #2B2724",
"J.	c #302A28",
"K.	c #403833",
"L.	c #030202",
"M.	c #060303",
"N.	c #0C0707",
"O.	c #170D0D",
"P.	c #1B0E0E",
"Q.	c #170C0C",
"R.	c #120909",
"S.	c #241010",
"T.	c #230F0F",
"U.	c #130707",
"V.	c #250D0D",
"W.	c #2A0E0E",
"X.	c #280D0D",
"Y.	c #230B0B",
"Z.	c #26201E",
"`.	c #201B19",
" +	c #12100F",
".+	c #0E0C0B",
"++	c #0F0E0D",
"@+	c #12100E",
"#+	c #161313",
"$+	c #1C1917",
"%+	c #3B342E",
"&+	c #312A26",
"*+	c #0A0606",
"=+	c #160C0C",
"-+	c #170B0B",
";+	c #220F0F",
">+	c #251010",
",+	c #281111",
"'+	c #1F0D0D",
")+	c #210C0C",
"!+	c #210B0B",
"~+	c #1D0A0A",
"{+	c #170707",
"]+	c #171514",
"^+	c #060606",
"/+	c #0E0B0B",
"(+	c #120F0F",
"_+	c #060404",
":+	c #110A0A",
"<+	c #140A0A",
"[+	c #1B0C0C",
"}+	c #2C1313",
"|+	c #2C1212",
"1+	c #0D0505",
"2+	c #140707",
"3+	c #230D0D",
"4+	c #2D0F0F",
"5+	c #200B0B",
"6+	c #160707",
"7+	c #0F0D0D",
"8+	c #000000",
"9+	c #070707",
"0+	c #0D0B0B",
"a+	c #100D0D",
"b+	c #0F0C0C",
"c+	c #161412",
"d+	c #141210",
"e+	c #130B0B",
"f+	c #0F0707",
"g+	c #200F0F",
"h+	c #210E0E",
"i+	c #271111",
"j+	c #2F1414",
"k+	c #2E1313",
"l+	c #281010",
"m+	c #240C0C",
"n+	c #240B0B",
"o+	c #260C0C",
"p+	c #270C0C",
"q+	c #0F0D0C",
"r+	c #171414",
"s+	c #181414",
"t+	c #171313",
"u+	c #130F0F",
"v+	c #120E0E",
"w+	c #13110F",
"x+	c #171412",
"y+	c #130A0A",
"z+	c #301313",
"A+	c #1A0A0A",
"B+	c #230C0C",
"C+	c #290D0D",
"D+	c #160606",
"E+	c #151111",
"F+	c #141111",
"G+	c #191515",
"H+	c #1C1616",
"I+	c #181312",
"J+	c #151312",
"K+	c #1F0E0E",
"L+	c #1E0D0D",
"M+	c #2F1313",
"N+	c #2D1212",
"O+	c #2E0F0F",
"P+	c #250B0B",
"Q+	c #1F0909",
"R+	c #272220",
"S+	c #3B332F",
"T+	c #2A2421",
"U+	c #181412",
"V+	c #050303",
"W+	c #1C0C0C",
"X+	c #220E0E",
"Y+	c #2B1212",
"Z+	c #2C1111",
"`+	c #2A1010",
" @	c #250E0E",
".@	c #311010",
"+@	c #2B0D0D",
"@@	c #220A0A",
"#@	c #1A1716",
"$@	c #010101",
"%@	c #0A0A09",
"&@	c #1A1715",
"*@	c #262120",
"=@	c #534941",
"-@	c #332D29",
";@	c #25201D",
">@	c #110F0E",
",@	c #1A0B0B",
"'@	c #1B0B0B",
")@	c #1D0C0C",
"!@	c #1F0C0C",
"~@	c #220B0B",
"{@	c #301010",
"]@	c #331010",
"^@	c #2A0D0D",
"/@	c #231F1E",
"(@	c #0D0B0A",
"_@	c #121110",
":@	c #211E1C",
"<@	c #2F2927",
"[@	c #2D2625",
"}@	c #292423",
"|@	c #1D1A19",
"1@	c #0F0A0A",
"2@	c #150909",
"3@	c #2A1111",
"4@	c #2E1212",
"5@	c #240D0D",
"6@	c #330F0F",
"7@	c #2F2827",
"8@	c #3B3430",
"9@	c #453C37",
"0@	c #403733",
"a@	c #49403A",
"b@	c #483F3A",
"c@	c #332C2A",
"d@	c #201C1B",
"e@	c #0B0A0A",
"f@	c #130D0D",
"g@	c #190B0B",
"h@	c #311313",
"i@	c #2F0E0E",
"j@	c #2E0E0E",
"k@	c #240A0A",
"l@	c #37302C",
"m@	c #2B2623",
"n@	c #1B1816",
"o@	c #0C0A0A",
"p@	c #030302",
"q@	c #110C0C",
"r@	c #160F0F",
"s@	c #351414",
"t@	c #160808",
"u@	c #1D0808",
"v@	c #290C0C",
"w@	c #2A2423",
"x@	c #201B1A",
"y@	c #191616",
"z@	c #141211",
"A@	c #020101",
"B@	c #181010",
"C@	c #160909",
"D@	c #321313",
"E@	c #290F0F",
"F@	c #190808",
"G@	c #200909",
"H@	c #292422",
"I@	c #1E1A18",
"J@	c #191615",
"K@	c #141110",
"L@	c #131010",
"M@	c #131110",
"N@	c #100E0E",
"O@	c #150E0E",
"P@	c #1C0E0E",
"Q@	c #381414",
"R@	c #2E1111",
"S@	c #1D0909",
"T@	c #1E0909",
"U@	c #282321",
"V@	c #1A1616",
"W@	c #251F1E",
"X@	c #2E2926",
"Y@	c #322C29",
"Z@	c #282320",
"`@	c #282421",
" #	c #201C1A",
".#	c #191010",
"+#	c #0E0909",
"@#	c #341313",
"##	c #200C0C",
"$#	c #221D1B",
"%#	c #211E1D",
"&#	c #39312E",
"*#	c #4C433B",
"=#	c #36302B",
"-#	c #1F1B19",
";#	c #231F1C",
">#	c #3F3631",
",#	c #3C342E",
"'#	c #4E463D",
")#	c #0E0D0D",
"!#	c #110B0B",
"~#	c #180F0F",
"{#	c #1A0D0D",
"]#	c #080303",
"^#	c #170909",
"/#	c #311212",
"(#	c #270E0E",
"_#	c #2B2624",
":#	c #272120",
"<#	c #433B34",
"[#	c #39322D",
"}#	c #201D1B",
"|#	c #0D0C0B",
"1#	c #13100F",
"2#	c #251F1D",
"3#	c #3A332D",
"4#	c #594E44",
"5#	c #040202",
"6#	c #130808",
"7#	c #301212",
"8#	c #301111",
"9#	c #080202",
"0#	c #433A36",
"a#	c #38302D",
"b#	c #2A2521",
"c#	c #060504",
"d#	c #191514",
"e#	c #2E2825",
"f#	c #1E1817",
"g#	c #3C3531",
"h#	c #211D1C",
"i#	c #0C0A09",
"j#	c #1A1414",
"k#	c #1E1818",
"l#	c #1F1818",
"m#	c #26211D",
"n#	c #221E1B",
"o#	c #1E1414",
"p#	c #1E0E0E",
"q#	c #150A0A",
"r#	c #1F0B0B",
"s#	c #1B0909",
"t#	c #191414",
"u#	c #1E1717",
"v#	c #312B26",
"w#	c #1F1515",
"x#	c #1E1313",
"y#	c #1F0F0F",
"z#	c #1A0C0C",
"A#	c #241F1E",
"B#	c #181212",
"C#	c #1D1616",
"D#	c #1A1313",
"E#	c #201414",
"F#	c #190F0F",
"G#	c #120B0B",
"H#	c #1E0F0F",
"I#	c #1E1A19",
"J#	c #1B1414",
"K#	c #150F0F",
"L#	c #1C1212",
"M#	c #1D1212",
"N#	c #160D0D",
"O#	c #1E1B1A",
"P#	c #110F0F",
"Q#	c #080808",
"R#	c #1F1B1A",
"S#	c #141010",
"T#	c #221111",
"U#	c #2A2523",
"V#	c #231F1D",
"W#	c #1B1815",
"X#	c #080706",
"Y#	c #100C0C",
"Z#	c #110D0D",
"`#	c #231111",
" $	c #342C2A",
".$	c #483F39",
"+$	c #473E38",
"@$	c #231E1C",
"#$	c #171311",
"$$	c #100909",
"%$	c #5C5048",
"&$	c #4B423C",
"*$	c #2D2725",
"=$	c #150C0C",
"-$	c #200E0E",
";$	c #25201E",
">$	c #332C29",
",$	c #161411",
"'$	c #362F2B",
")$	c #140C0C",
"!$	c #221010",
"~$	c #170808",
"{$	c #0D0A0A",
"]$	c #131210",
"^$	c #1B1817",
"/$	c #1B1010",
"($	c #161515",
"_$	c #1B1615",
":$	c #39322E",
"<$	c #181413",
"[$	c #1C1111",
"}$	c #1D1111",
"|$	c #1C1010",
"1$	c #280C0C",
"2$	c #181514",
"3$	c #262221",
"4$	c #362F2C",
"5$	c #1F1414",
"6$	c #211414",
"7$	c #1F1212",
"8$	c #1C0808",
"9$	c #0C0B0A",
"0$	c #040403",
"a$	c #4C423C",
"b$	c #342D2A",
"c$	c #1B1111",
"d$	c #1A1010",
"e$	c #261212",
"f$	c #261111",
"g$	c #38302C",
"h$	c #24211F",
"i$	c #342E2B",
"j$	c #322C2A",
"k$	c #3C3430",
"l$	c #403834",
"m$	c #080807",
"n$	c #160E0E",
"o$	c #26211F",
"p$	c #3F3632",
"q$	c #534942",
"r$	c #574C45",
"s$	c #514741",
"t$	c #362F2D",
"u$	c #282322",
"v$	c #1A1615",
"w$	c #170E0E",
"x$	c #221E1C",
"y$	c #262020",
"z$	c #231E1D",
"A$	c #0E0E0D",
"B$	c #1E1111",
"C$	c #1D1A18",
"D$	c #1B1716",
"E$	c #1B1616",
"F$	c #120808",
"G$	c #1C1918",
"H$	c #050504",
"I$	c #161311",
"J$	c #1E1A17",
"K$	c #100D0C",
"L$	c #170F0F",
"M$	c #221515",
"N$	c #1E1212",
"O$	c #200A0A",
"P$	c #210909",
"Q$	c #131111",
"R$	c #312B27",
"S$	c #24201C",
"T$	c #2C2723",
"U$	c #2F2925",
"V$	c #231616",
"W$	c #231515",
"X$	c #230A0A",
"Y$	c #2B2523",
"Z$	c #352E2B",
"`$	c #3A332E",
" %	c #27221F",
".%	c #261717",
"+%	c #241616",
"@%	c #270D0D",
"#%	c #272320",
"$%	c #342D2B",
"%%	c #574C44",
"&%	c #161413",
"*%	c #2C2623",
"=%	c #201313",
"-%	c #250A0A",
";%	c #302927",
">%	c #554A42",
",%	c #1A1815",
"'%	c #4A4139",
")%	c #291313",
"!%	c #271212",
"~%	c #463E38",
"{%	c #231D1C",
"]%	c #0A0908",
"^%	c #39332C",
"/%	c #26221E",
"(%	c #150D0D",
"_%	c #281313",
":%	c #2C0D0D",
"<%	c #2E2726",
"[%	c #25201F",
"}%	c #181613",
"|%	c #494038",
"1%	c #070605",
"2%	c #2D0E0E",
"3%	c #151210",
"4%	c #201D19",
"5%	c #2D0D0D",
"6%	c #0A0A0A",
"7%	c #191614",
"8%	c #310F0F",
"9%	c #0B0B0B",
"0%	c #0C0B0B",
"a%	c #191212",
"b%	c #2A1313",
"c%	c #191717",
"d%	c #140F0F",
"e%	c #040302",
"f%	c #0B0A09",
"g%	c #171111",
"h%	c #1C1515",
"i%	c #292421",
"j%	c #302A25",
"k%	c #413933",
"l%	c #28231F",
"m%	c #1C1414",
"n%	c #1C0D0D",
"o%	c #2A2522",
"p%	c #423A34",
"q%	c #352E2A",
"r%	c #2A2422",
"s%	c #2E2826",
"t%	c #3D3530",
"u%	c #403732",
"v%	c #110E0D",
"w%	c #2B1313",
"x%	c #2F1010",
"y%	c #151212",
"z%	c #1E1616",
"A%	c #1F1717",
"B%	c #1D1515",
"C%	c #161212",
"D%	c #090807",
"E%	c #120F0E",
"F%	c #250F0F",
"G%	c #190A0A",
"H%	c #2C0E0E",
"I%	c #151010",
"J%	c #3D3430",
"K%	c #221414",
"L%	c #180808",
"M%	c #320F0F",
"N%	c #050505",
"O%	c #171212",
"P%	c #302A27",
"Q%	c #300E0E",
"R%	c #413934",
"S%	c #1D0F0F",
"T%	c #24211E",
"U%	c #141310",
"V%	c #201111",
"W%	c #340F0F",
"X%	c #221D1C",
"Y%	c #282422",
"Z%	c #2F2A27",
"`%	c #1A1714",
" &	c #1F1A19",
".&	c #262121",
"+&	c #362E2B",
"@&	c #1E1918",
"#&	c #4F453D",
"$&	c #473D39",
"%&	c #3A322F",
"&&	c #322B29",
"*&	c #201616",
"=&	c #1C1313",
"-&	c #110909",
";&	c #241313",
">&	c #342D29",
",&	c #312A27",
"'&	c #181111",
")&	c #1D1414",
"!&	c #1A1212",
"~&	c #180E0E",
"{&	c #1B1313",
"]&	c #211111",
"  . + @ # $ # % + & & * = - ; > , ' ) ! ~ { ] ^ / ( ( _ : < [ } } _ | 1 2 3 4 5 6 7 8 9 7 8 0 0 a b b c a d e d f g h i j g k l ",
"m n o $ $ $ = & * = & & * p ; q > , ) r r ^ s t / ( ( _ u v w } } x y 2 | x 7 z A z 7 9 4 B C D C E F G H I J e e j a a j i K h ",
"L M N O P @ Q $ R . & & & * - S > > { ) T U U t / V ( _ W X w } } 7 Y Z ` 7 8  .6 ..+.8 b @.#.$.%.&.*.=.-.;.F g d e >.j ,.'.i J ",
").!.~.{.].N ^.= R . /./.. & (.- S q S { ^ / / t / V V t _.v [ } :.5 ` | ` _ <.[.}.z ..z  .B |.1.&.2.2.3.4.5.6.;.7.K ,.j e >.'.8.",
"9.0.a.b.c.d.e.f.. /./.g./.. * - - h.S S S / i.t / V V j.u u k.l.l.:.3 | Y m.n.o.p.q.z r.s.b t.F $.u.v.w.x.4.x.*.6.y.z.J ,.A.B.C.",
"D.E.F.G.H.I.J.K.!./.L.L.g./.& i.- - U S U i.- t / V M.N.O.P.k.l.+.l.5 Q.Q.R.}.p.S.T.@.8 s.8  .U.|.v.w.V.V.w.W.W.X.Y.l f a J a C.",
"Z.`. +.+++@+#+$+%+&+/././.g.& i.- - ( / / ( i.U *+M.V N.=+< _ +.M...:.` -+m.q.[.;+>+,+'+b 8 d  .G )+w.u.*.V.Y.!+~+{+g f K K g 8.",
"]+. g.* = ^+& & /+(+. . . L.. - p _+(.( i.( ( U / ( ( N.w v :+..M.M.+.x <+3  .[+p.T.}+|+#.B d 1+2+|.3+*.4+5.6.5+F 6+6+k {+f g a ",
"7+8+* 9+# @ 0+a+a+b+c+_+. L.d+(.& _+_+i.( V ( - / ( ( / e+v [ ....+.+.6 3 3 f+}.g+h+i+j+k+l+H j 1+b F 3+w.4+W.6.m+n+o+p+n+{+g a ",
"q+^+& * = 0+r+r+s+t+u+v+p w+x+. . . & / i.V M.V ( V ( / :+< y++.M.+.+.l.5 _ 8 ` [.h+T.|+z+k+l+A+d e d B y.B+W.4+C+p+o+p+p+l D+J ",
"E+^+& & * % F+#+G+H+G+E+I+J+0+L.. . . U / ( M.M.M.M.V *+t P.Y l.M.+.+...l.7 8 f+@.K+L+1.k+M+N+%.|.d e ,.a H Y.x.O+p+P+n+o+Q+{+h ",
"m L.R * = = = $ @ Q R+S+T+U+L.L.. & ( / U ( V V M.V+M.l.N.: Y l.M.l.l.....6 7 7 q.[.W+X+Y+M+Z+`+ @F d z e d 6+Y.O+.@+@P+6.@@7.z.",
"#@/.8+$@$@$@/.%@&@*@=@-@;@>@L.g.. (.> S U / ( ( V M.M.( *+y+w l.M.5 7 ..M.l.5 7 f+,@'@)@$.M+`+X+3+v.!@c e e ,.g ~@{@]@^@6.P+l 6+",
"/@(+(@; .+_@:@<@[@}@|@^.^.. L.g.. Q { 1@S / - ( ( M.M.( l.k.[ l.M.7 ` l.M.M.z 7 7 2@'@}.!@3@4@1.5@v.w.)+h j e j f 5+.@6@C+p+Q+{+",
"7@8@9@!.0@a@b@c@d@P = e@= . L.g.V+> f@{ S S / ( V M.M.V l.5 _ } M.5 Q.5 M.M.z f+7 4 g@t.B X+h@N+$.5@v.w.5@B ,.e j h y.i@j@^@k@7.",
"].l@0@e.).m@n@o@& $@p@. & . L./._+- q@r@1@S / i.M.M.M.M.l.5 _ 5 M.6 Z ` +.M.+.f+f+8 @.}.t.|.|+s@Z+v.5@=.*.=.t@,.j j h u@+@+@v@u@",
"w@x@y@y@z@Q R A@A@$@& . . . . V+(.- > B@f@S U / ( M.M.M.l.5 _ 5 M.6 Z Z 7 ....6 8 8 q.,@C@}.#.D@D@E@5@5@5@=.;.c ,.j d h F@G@v@@@",
"H@I@J@>@7+F+K@L@M@N@Q R & . & . _+i.S O@) ^ U U / M.M.M.V } :+x M.5 Y P@R.6 ..A 6 7  .}.C@B ,@l+Q@R@5@)+)+!+y.t@c d j d g 6+S@T@",
"U@O M@E+V@W@X@Y@Z@U@`@ #b+& . . . V+/ { .#] +#U j.*+M.V+M.( _ _ M.5 <+P@Y x A ..A s.8 b B B t@D 2.@#*.-.##!+y.{+6+h j j a f z.{+",
"}@$#%#E.&#*#=#-#;#=#>#,#'#)#& . L.L.V+!#r ~#^ S t N.( V+V+M.:.5 M.5 Y {#Z 3 z ]#A A s.f+b B B ^#)+/#/#(#)+!+5+F F@6+d C.j J f z.",
"_#:#<#[#}#^.@ |#1##@2#`.3#4#  & 5#g.g.U .#~ ] +#t t / M.V+M.V :.M.5 <+Z P@` 7 A A z A 7  .6#B t@H 3+7#8#w.V.6.;.F 6+a >.9#'.a f ",
"0#a#b#c#$@8+$@Q Q @ Q 0+d#e#f#* . L.g.V+{ ~ r ^ t t t l.V+M.M.( M.6 R.Z 2 Z  .6 z z A z 9  .6#t@B H 5@R@u.w.w.V.~+z.a j C.j j 8.",
"g#h#i#g.8+8+= % Q @ b+j#k#l#m#n#(.. g.A@- r o#O@t t s t V M.M.M.M.:.m.Q.2 p#q#7 z z z z e 8 0 t.2+b t@~+r#!+!+5+s#g a ,.>.i '.A.",
"*@m (+& /./.& # Q 7+E+E+t#u#l#v#q (.. A@M.^ w#x#] t ^ ^ *+M.V+M.M.l._ Y P@y#z#4 z A +.z z z e d a a a c f B t@t@z.J d j e ,.,.A.",
"A#z@0+g.g./.R Q t+t+t+E+E+B#C#C#D#S _+V+M.( ) E#F#G#G#:+/ M.M.V+M.:.x Y H#y#y#q.7 +...]#z z z e j 1+d d a J c J J a j j e j i i ",
"I#F+/.g.g./.. & # @ b+E+E+' B#J#J#K#> / ( V +#L#M#N#s / l.V M.V+M.} x | g+y#o.z#f+A M...r.r.z e e j e e e j ,.,.j e >.C.>.j J z.",
"O#P#Q#z@R#S#+ R = @ @ # /+u+u+u+, , { / i.( i.!#N#s *+( l.l.M.M.M.5 7 Z T#1 S.p.q.z ..M.]#r.z z A z r.]#]#]#A A C.9#9#C.e i z.@@",
">@a+G.U#[@V#W#z@X#$ # # p Q Y#> > Z#{ S ( ( ( i./ *+( l./ _ l.M.M.} 7 Q.`#`#S.S.[.4 A ....r.z z A z e z r.]#r.A e ,.K K J K f T@",
"(@N  $.$+$<@l@@$#$= = = * * /+; ; (.V+(.(.M.M.V V ( / t w O.$$M.M.l.x Y 1 `#o.S.p.@.8 ....]#A j e z e d d ,.j ,.J g 7.7.f h h 7.",
"O#%$&$*$L R R /.3#w+. . & . - d+(.. 5#L.& V+M.( / t ] N#=$=+w l.M...x <+y#`#o.o.o.-$g@7 M...]#z e A A d J a a c F@5+Y.p+u@6+z.z.",
";$>$J@Q @ ^+* * = ,$& g.L./.^.'$5#. L.g.& V - +#G#)$)$O.F#_.O._ M.M.5 R.2 `#o.p.!$;+h+<.r.M.....]#r.r.d h f g ~$~+~@n++@p+u@l {+",
"I##+% % % $ Q ^./+{$Q * /.]$^$L.. . L./.(./ !#T N#N#O._./$_.=+:+l.M.l.3 | g+g+g+p.T.T.L+7 ....]#..]#]#e J f t@t@F ;.Y.o+p+P+6.u@",
"r+($% e@e@e@N@#+F+(+a+_$:$R#<$L.. . 5#i.{ B@! L#[$M#}$[$|$_.w :+5 M.+.R.z#`#o.g+g+h+T.>+B ]#....r.z ]#..r.,.J h g 6+F@l T@n+1$p+",
"Q g.8++ @ @ % @ @ 2$3$a@4$J+. L.g.g.. i.{ B@L#5$6$E#7$M#W O.w [ 5 M.M.7 y y#S.S.!$K+'+-$@.z ......e z ....]#e a J c f z.z.{+8$T@",
"E+9$  0$/.^+.+J@U@>$a$b$9$g.& L.L.g.& ( S { O@c$x#x#[$d$=$[ Y y+5 ..M.:.R.z#!$S.e$f$h+'+'@8 z ]#..e e z ]#]#A e e e e e j ,.a K ",
"g$K.H@@$h$_#i$j$k$l$;$m$= $ = * & V+& (.- s !#n$~#c$F#)$w =+Y e+5 +.M...6 <+[.p.o.f$,+>+)@ .A A z a  .b d e z r.C.9#9#C.C.>.>.'.",
"o$p$c.q$r$s$t$u$v$9$g.. & & (.Q > S ( & i.+#T ~#w$N#F#F#/$u w [ 5 +.M.M.M.5 <.z#L+h+h+>+L+U.....e d t.C G t@h a d e e j ,.j j '.",
"I#x$A#y$z$&@A$= /.g.g./././.(./+> > S * _+/ T c$c$F#F#c$B$: :+:+5 l.l.+.M...7 ` }.[+z#'@)@t.z ..]#j  .t@E y.E H g h J a a i ,.i ",
"C$D$&@E$e@0$8+L.g.g.g.g.g.g.. (.- - S i.& ( 1@L#5$M#F#[$< O.:+$$5 l.l.l...M...7 F$q.<.@.'@B e r...]#j b B F !+;.F {+6+6+I D+z.f ",
"$+#@G$#+H$L.& I$J$K$p@L.g.g.g.g.. _+( i.& V+- L$6$M$N$[$< O.:+$$5 l.+.l.6 6 z ]#6 4 4  .@.C@j z ....r.d a ~$!+V.o+Y.O$;.O$P$P$Q+",
"G$D$M J+Q$r+R$-@S$T$U$`.  /.L.g.g.. _+( ( V+( ^ x#V$W$7$|$O.:+:+5 l...l.R.<+4 6 ]#z 7 7  .t.1+j e ..]#z j c H ~@X.*.6.~@~@Y.Y.X$",
"I#R# #V#4$Y$Z$U#R+A#A#`$ %A@. L.g.g./._+( M.V+/ n$6$.%+%B$O.:+:+k.l.M.l.` y#z#` 7 z z 7 8 b 9 8 a e ]#z A j c H ~@@%C+n+~@Y.Y.k@",
"I##%$%%%Z$n@&%#@$+&%1# #*%Q g.. 5#L.g.& & V+. V ^ F#=%+%X : :+:+_ l.M.+.R.y#!$L+2@8 z z 7 9 9 8 d d r.r.e z d f s#Y.C+p+P+o+o+-%",
";%>%K.U@]+c#$@R $ q+>@,%T+'%S$. . . 5#V+& V+. V+i.j.] 7$7$: :+:+_ l.M...3 y#)%!%L+q.8 z z e 7 7 a a e ]#j j e a 6+y.6.^@1$1$+@C+",
"~%0.{%J@]%$@* & R /.R . <$^%%+/%& & . . V+V V+V+V ( *+:+(%Y :+$$_ +.M...x 2 _%!%S.L+q.8 s.e 8 s.a a a e j d ,.,.c F ~@1$+@v@1$:%",
"<%[%n 9$L.9+* & R & + # h.h.}%|%1%(.(._+. i.( V M.M.( ( / t t _ [ +.M.M.7 z#e$!%S.S.[.F$9 7 8 s.a b  .d j d d ,.a g E n+:%2%^@^@",
"*@>@* Q e@@ = & = = = # h.- - 3%4%i.( (.. V+( ( ( M.M.M.( l.} 5 w l.M.M.5 y o.!%!$S.h+}. .8 s.e d 2+b J d J h c a J 6+y.6.:%i@5%",
"^$c#6%% e@e@^.0+% $ * # - # - Z#' 7%( p _+. ( ( - ( V M.M.M.( l._ l.M.M.l.` y#)%e$g+L+@.t. .s.e 1+B  .a c f t@t@c d a g S@n+^@8%",
"7+g.9%e@e@0%y@(+Q $ & = # p ; Z#a%' { S (.(.( ( / / *+V M.M.M.V ( +.M.M...m.[.e$b%p.[.g@t.t.8 e e B 0 J b B H s#6+a ,.d h l Y.^@",
"$@c%0%0+0%0%0+% * . /.= p p ; d%J#D#a%, { / ( ( / U / *+l.l.l.l.M.M.M.M.M.7 z#p.b%f$L+,@B B  .e e t.b c b B F B+!+6+a d ,.J {+G@",
"e%  Q Q f%^+/.e@= R g.& = p ; g%h%J#J#O@{ / ( ( / ^ t / / :.l.l.( +.M.M.M.l.y [.!%b%p.'@C@B 6#z z U.~$U.b f ~$=.X.~@{+J a a a z.",
"G.i%j%S+k%T+o$l%# R L.L./.& ; B#C#J#m%r@{ U ( ( / ] G#t N.} l.l.:.l.M.M.M...` n%!$b%i+L+}.t.B e r. .|.t@b h I ;.W.*.~@6+a a a J ",
"o%A#Z$p%q%r%s%t%u%v%/.g.L.. # J#C#C#m%) { S i.V ( ] O.)$:+5 :.:.k.3 7 ..M.M.x z#[.i+w%X+@.t.}.8 A 0 D F U.J f t@6.x%^@!+z.a a i ",
"I@O n y%J+J+L c+m J@M@g./.. = u+z%A%B%r@U _+(.( ( s O.F#O.w } } t y+Q.7 ..M.:.}.n%p.b%i+'@B @. .r.a |.##t@c J g ~+*.{@+@;.g a a ",
"-#L Q * 0$& & * = ]%C%f%/.* # /+C#C#;@i.( ( V+( ( j.N#c$_.O.k.5 t y+Z ` :.M.M.4 z#[.>+,+'+C@}.t.z 1+G -.~+f a c {+5++@.@^@Q+g a ",
"2$* R R R R R R = + * D%L.(.h./+E%I#q h.( ( ( - ( / ] [$}$_._ 5 t y+Z Y 6 l.M.z ` [+p.i+F%G%C@@.e e t@5@3+~$J a g E n+H%.@C+Q+z.",
"I#  /./.. R * + + + * & p {$; I%J%I@q U (.p S / ( / :+N$K%|$_ 5 k.R.{#y 5 7 l.+.8 <.[.T.1.|.C@G%d A b 3+w.E g a J L%O$6.2%M%1$T@",
"h#a+V+/./.R R N%+ = & & {$O%u+P%=@h.q +#( S 1@/ ( / ^ M#W$B$_ 5 5 y+P@{#x x 5 A 5 4 g@L+X+)@C@@. .r.d ##u.5@t@a d g y.~@o+Q%8%p+",
"z$C%7+/././.R R /././.. o |@s%R%J@h.S q ( T !#U ( i.s d$K%X $$} 5 R.S%v _ 7 3 5 6 7 q.'@L+|.B }.6#e j |.*.*.C f d J F !+Y.1$6@8%",
"z$R#M L ^+$@$@8+g.H$J+T%O#I#h#U%; h.; q +#T { S ( ( j.(%X B$:+} 5 R.v V%R.7 m.7 5 z 7 }.'@,@t.t.t.1+j t@5@5.5+f a d f S@~@Y.+@W%",
"X%Y%Z%*$d@K@Z#`% &.&+&Y%@&|#R {$; h.; r@a%T O@S i.( / G#[$< :+} 5 R.S%T#Y 7 7 7 6 z z  .B @.C@6#b d j c !@5@5+I a ,.d {+!+~@P+j@",
"x$o$#&d.$&%&a@%&&&&&[%t+= g.- h.h.h.q@*&=&O@) ^ - ( / ^ _.< :+} 5 -&P@;&Q.x 5 f+7 7 z 8 t.t.B b 0 1+e e t@s#E G f a j J 8$~@Y.o+",
"R#C$I@>&,&e#<%/@^$(+= $@& * $ - - > '&)&!&] ) ^ / ( l.s ~&|$:+} 5 -&P.;&Z x 5 f+f+7 5 s.b t. .s.z e e z 1+f F y.s#I d j 6+6.C++@",
"I#]%/.& $ 9$^.D%L.g.g.. . & * {$' ' ) =&{&{ O@^ / ( l.t O.|$[ } 5 _ | ]&P.x x 7 8 8 8 7 7  .8 z z d d j e j g F F G K j J G@C+5%"};
