/* XPM */
static char * warped_south_xpm[] = {
"64 64 6 1",
" 	c #160F10",
".	c #23161F",
"+	c #4E4B54",
"@	c #3C3947",
"#	c #312C36",
"$	c #27221C",
"  . .    .  ..  ..    .  .     .+@@@@@@@#$$#@@@@#@@#@@##$#$...  ",
".    . .  ......   .   .   ..   @++@@@#@#$#@@@#@##@$###$###.$. .",
"#$$.$$#$..$$$$.....$..........  ++++@@@#$###@@@##@#$$#$###$$... ",
"@#@###@#$$###$$$..$$$$$$.$$...  ++@+@@##$$###@##@###$#$$#$$#$...",
"@@###@+@###$$#$.$$$..$..$$..... @+@@@@#$##@#@##@@###$$#$$##$$. .",
"+#@#@++@#@##$$$$#$##$......$.. .+@@@@@@#@##@@@@@#@@#$$$$##$.$.  ",
"+@@@#@++@#@@#$$$$##$..$$..$... .+++@@@@@@##@##@@@@@@#$$#$$.$$   ",
"@+@@@+@@+@@###$#$$###$$..$$$$.. @+@@@@@@+#@@@####@#@@#$#$..$. . ",
"++@##@@##@##@$@####$$##$$$.$....++@++@@+++@@@@#$$#$####$...$.. .",
"+@#@####@@##@##@@#$$$$#$$....$..+@@@++@+@++@#@$$#$..$#$$$.$.$.  ",
"+@@@@##@@#@#@@@@##$$##$$#$$.$.. @+@++@@@##@@@###$$$..$..$...$$. ",
"@+@@##@#@#@+@@###$$#####$#$$..  @++++@@##@@#$##$$#$$...$...$$...",
"+@++@@@####@+@@#@##@@##$$..$$.. ++@+@@@@#####$$##$$.............",
"+++@@@#####@++@@@@@@@@@#$$..$. .+++@@@@@@##@@@#$#$$$$$..$. . ...",
"++@@#@#@##@#@@#+@##@@@##@#$$.. .++@@+@@@@@@@#$$$$#$$$..$...   . ",
"@+@@####@######@+@##@@@@#$.$....+@++@@+@+@@+@@#$#$$$$$$..$. .  .",
"@@@+@#@#@@##@#@@++####@@$$..... +++@@@@+++@@+@$#$$#$$$$$##$.    ",
"+@+++@###@#@##@++@@##@@#$.$...  ++@+@@@+@+@+++@$$###$$$$$##$. . ",
"+++@#$#@##@@###@##@@@@###$$... .@++@@#@@++++@+@###$$$#####$. .  ",
"+++#$$#@@#@######@@@#$$#$$..... ++@#@##@+@+@@@##@#@#$$$##$$.$.  ",
"++@@##$#@@+#@#@#######$$.$.$.. .+@+##@##@@++@####@@###$#$##$... ",
"@+@@##$$@#@+@++@#@##$#$$$.$$..  @@@@###@@++++@@@#@@@#$##$$##$. .",
"+@+@$##$#$@++@++@#@#$$##$..$.   #@@###@#@+@+@#@#@@##@#@##$$$.$..",
"+@@@#$#$$#@@++@@@@@$#$$#$$.. .  $#@#@#@@+@@@@#@@@@#@@#@@$#$.....",
"@@@#$$$#$@@#@@@##@###$#$$...    $###@@@@@##@@@@+@+@@#@#@##$.$...",
"@@###$##$#@##@##@@#$$#$$... .   #$$#@#@@##@@@@+++@@@@##@###$#$..",
"@+#@###$$$##$#@###@#$$..$.$$.. .$$#@###@@###@@+@++@@@#@##$##$$. ",
"++@@#$$#$$#$##@##@@#$..$$$$.... $#@@@#@#@@#@@#@+@+@+#@@@##$#$$. ",
"+@+@@#$$$#$$#$###@#$$$$$$..$$.. $##@########@@#@@@++@#@#$#$##$ .",
"++++@@#$$$$$$$#@@#$$$...$$......$###$###########@@+@#@##$$$$#$  ",
"++@+@@$#$$$$$#@@$$$$#$$..$$.....$$###$$###.###$.$.$$#####$$#$$. ",
"@+@@@##@$$#$@#@@#$$#$#$$....... $.$$$$##$$..$$$$....$$#$$$$$$. .",
"@@+@@@@##$$##@@@@@@#@@#..$....  ..  ....  .     ..  .   ........",
"+@++@@@@##$##@@+@@#@@##$$....$ .   . ....  .  .....    .  ......",
"@++@@@##$##$#@+@#$$#@@##$$$.$.. $..$$...$..$$...$$............. ",
"+++@@####$#$$@++$$$$$#@@##.$$$..#$#.#$$###$$$$$..$$.$.$$$$$$$$ .",
"++@@@#@#$$$$$#@+@#$$#$###$.$.$..@#$$###@@@##$#$$$$$$...$..$.$$  ",
"@+@@#@@#$$$#$$#@+@#$$##$.$$$....@###$$#@#@@$$$#$###$$..$$...$$. ",
"@@+@#@#@#$$###@#@@@$@#$$..$$$...+#@@####@#@##$#$#$##$.$.$$.$$$. ",
"+@+@@@@@##$$@##@$#@@$#$.$.$.....+@@##@@@@###$#$$$#$$$$$$$.$$$$. ",
"+@@+@@@##$$##@###$$#$$...$$$....++@@@@##@@@###$#$##$$$#$.$.$.$. ",
"@+@++@@@@$##@@#$$$#$.$$$..$.....+@+@@#####@@#$#$##$#$#$$$$.$$.. ",
"+++@++@@##$#@#$$#$$....$........@+++@####@@@@@####$###$$.$..$ ..",
"+++++@@##@#@#@##$$..$$.....$.$..+++@###@@+@@##$$#$#####..$... . ",
"@+++@+@@@##@@##$$#$..$$..$..$$..+@+@@@@+@++@@##$$$$#$#$.$.$.   .",
"+@+@@+@@@@##@##@#@#$$#$$$$$.$...@@@@@@@@++@@#$$#$$#$$$$$$...    ",
"+@@@##@##@@@@@##@#$#$$##.$.$$...+@@+###@@++@@@#$$$$#$$..$$. . . ",
"@+@@@#####+@##@@@@$$$##$$...$...++@+@####@+@@##$#$$$$..$$...... ",
"@@@@####@+@@@##$#@##$$$$$.$.$$ .@++@@#####@@#$####$$......$.. . ",
"@+@#@##@@++@@@#$$@@$$$##$.$$$$. +++@@@##@@@#@$##$#$..$..$$..$.  ",
"+@@@+@@@+@+##$$#$#@##$$##$$.$.  ++@+@@@@@#@@##$#$$$$##$..$.$$. .",
"++@@+@@+++@@#####$#@######$$.. .++@@@@@@###$#$$@#$$##$#$$$$.$.. ",
"++@+@##@+++@@@##$$#$$##$#$.$... +@+@+@@@#@#$$$##@$#$##$#.$$..$. ",
"+@++####@+@+@#$#$$$$#$#$$#..$.. @@++++@@@###$$$@@####$$$..$$.$..",
"+@+@@@####@@###$$#$$.$$$##$.$...@+++@@@@@@##$#$@##$##$..$.$.$$..",
"++++@#@##@@##$$$##$$.$.$#$.$.$..+++@+@@#@##@####$#$$##$.....$...",
"+++@@@@@@@##@#$#$$$#$...$....$. +@@@##@##$#@##@#$$$.$##$.$..$.. ",
"+@+@@@#@###@#####$##$.$.$$$... .++@@####$$##@#@##$#$.#$#$$....  ",
"++@+@###@#@@##@#$##$$.$$.$....  ++@+#@#$$#$#@@######.$$#..$... .",
"+@@+@@###@@####@##$#$$$...$.... ++@+@@#$####@@#$$##$$.$...$.. . ",
"+@#@@###@#@##@@@######$.....$. .@++@@###$##$#@@##$$#$..$.$$.....",
"@#@@##@##@@#@@#@@###$$#$...$$. .+@+@#$#$$$$$@@@@@#$$##$$$.$$....",
"###@@@@##@#@#@@#$##$#$$$.$.$.$..+@@@@#$$$$$#@#@@#$$##$$#$..$... ",
"##@#@@#####@@@@##$##$$$.$..$.$..++@@##$#$$#$#@@####@@###$$...$. "};
