/* XPM */
static char * red0_xpm[] = {
"64 64 156 2",
"  	c #FF00FF",
". 	c #EEA9DB",
"+ 	c #EBAAC8",
"@ 	c #EE9BB5",
"# 	c #F386A1",
"$ 	c #F87C93",
"% 	c #FC7489",
"& 	c #FF6E80",
"* 	c #F87C94",
"= 	c #EDA8DB",
"- 	c #ECA8C4",
"; 	c #F4849E",
"> 	c #FF6D7E",
", 	c #FF6C7D",
"' 	c #FF6B7C",
") 	c #FF6A7C",
"! 	c #F4839D",
"~ 	c #F09EE4",
"{ 	c #ECACCE",
"] 	c #F386A0",
"^ 	c #FF697B",
"/ 	c #FF697A",
"( 	c #FF6879",
"_ 	c #FF6779",
": 	c #F3859F",
"< 	c #EBABCE",
"[ 	c #F97A91",
"} 	c #FF6678",
"| 	c #FF6577",
"1 	c #FF6476",
"2 	c #F97990",
"3 	c #F877F3",
"4 	c #ECACD1",
"5 	c #F77F97",
"6 	c #FF6375",
"7 	c #FF6275",
"8 	c #FF6174",
"9 	c #FF6173",
"0 	c #F67E96",
"a 	c #EBABD1",
"b 	c #EE97B1",
"c 	c #FF6072",
"d 	c #FF5F71",
"e 	c #FF5E71",
"f 	c #FF5D70",
"g 	c #FF5C6F",
"h 	c #F19BE5",
"i 	c #ECACD3",
"j 	c #F87B93",
"k 	c #FF5B6E",
"l 	c #FF5A6E",
"m 	c #FF596D",
"n 	c #FF596C",
"o 	c #ECABD3",
"p 	c #EBA8C6",
"q 	c #FF576A",
"r 	c #FF566A",
"s 	c #FF5569",
"t 	c #FF5468",
"u 	c #EBA7C6",
"v 	c #ECA3BE",
"w 	c #FF5367",
"x 	c #FF5166",
"y 	c #FF5165",
"z 	c #ECA1BB",
"A 	c #FF5266",
"B 	c #ECA0BB",
"C 	c #FF586B",
"D 	c #ECA2BE",
"E 	c #FF6E7F",
"F 	c #FF6F80",
"G 	c #F87A92",
"H 	c #FF7181",
"I 	c #FF7384",
"J 	c #FF7484",
"K 	c #FF7585",
"L 	c #FF7686",
"M 	c #EE96B1",
"N 	c #FF7988",
"O 	c #FF7B8B",
"P 	c #FF7C8B",
"Q 	c #FF7E8D",
"R 	c #FF7F8E",
"S 	c #F879A5",
"T 	c #FF7080",
"U 	c #FF7787",
"V 	c #FF8190",
"W 	c #FF8392",
"X 	c #FF8694",
"Y 	c #FF8896",
"Z 	c #FF8996",
"` 	c #F67D96",
" .	c #FF7182",
"..	c #FF7A8A",
"+.	c #FF8795",
"@.	c #FF8A98",
"#.	c #FF8E9B",
"$.	c #FF909D",
"%.	c #FF929F",
"&.	c #FF93A0",
"*.	c #EBA9C8",
"=.	c #FF7887",
"-.	c #FF7D8C",
";.	c #FF8291",
">.	c #FF8C9A",
",.	c #FF919D",
"'.	c #FF95A1",
").	c #FF99A5",
"!.	c #FF9CA8",
"~.	c #FF9EA9",
"{.	c #FFA0AB",
"].	c #F97890",
"^.	c #FF8492",
"/.	c #FF96A2",
"(.	c #FFA1AC",
"_.	c #FFA6B0",
":.	c #FFAAB4",
"<.	c #FFACB6",
"[.	c #FFAEB7",
"}.	c #FFAFB8",
"|.	c #FF9AA6",
"1.	c #FFA2AC",
"2.	c #FFA9B3",
"3.	c #FFB4BD",
"4.	c #FFB9C1",
"5.	c #FFBCC4",
"6.	c #FFBFC6",
"7.	c #FFC0C7",
"8.	c #F3849F",
"9.	c #FF8D9A",
"0.	c #FF9DA8",
"a.	c #FFB6BF",
"b.	c #FFBEC6",
"c.	c #FFC5CC",
"d.	c #E3E3E3",
"e.	c #FFA8B2",
"f.	c #FFB2BB",
"g.	c #FFBBC3",
"h.	c #FFC6CD",
"i.	c #EBA7C4",
"j.	c #F3829D",
"k.	c #F67DF1",
"l.	c #ED99B4",
"m.	c #F284A0",
"n.	c #F87A93",
"o.	c #FC7186",
"p.	c #FF6B7D",
"q.	c #F3819D",
"r.	c #EBA6C4",
"s.	c #F3839E",
"t.	c #EBAACE",
"u.	c #F9778F",
"v.	c #F67C96",
"w.	c #EE95B1",
"x.	c #F87991",
"y.	c #EC9FBB",
"                                                  . + @ # $ % & & % * # @ + =                                                   ",
"                                            - ; > , , ' ' ) ) ) ) ) ) ) ' ' , , ! - ~                                           ",
"                                      { ] > , ' ) ^ / / ( ( ( _ _ _ ( ( ( / / ^ ) ' , : <                                       ",
"                                  + [ , ' ) ^ / ( _ } | | 1 1 1 1 1 1 1 | | } _ ( / ^ ) ' 2 + 3                                 ",
"                              4 5 , ' ^ / ( } | 1 6 7 8 8 9 9 9 9 9 9 9 8 8 7 6 1 | } ( / ^ ' 0 a                               ",
"                            b > ' ^ / _ } 1 6 7 9 c d e e f f f g f f f e e d c 9 7 6 1 } _ / ^ ' b h                           ",
"                        i j , ) / _ } 1 7 8 c d f g k l m m n n n n n m m l k g f d c 8 7 1 } _ / ) j o                         ",
"                      p > ' ^ ( } 1 7 9 c e g l m n q r s s t t t t t s s r q n m l g e c 9 7 1 } ( ^ ' u                       ",
"                    v > ' ^ _ | 6 8 c e g l n q s t w x y y x x x x x y y x w t s q n l g e c 8 6 | _ ^ ' v                     ",
"                  z > ) / _ 1 7 9 e g l n r t A y x w t s r r q q q r r s t w x y A t r n l g e 9 7 1 _ / ) B                   ",
"                v > ) / } 1 8 c f k n q t A x w s r C n m l k k g k k l m n C r s w x A t q n k f c 8 1 } / ) D                 ",
"              p > ) / } 1 8 d f l C s A y w s C m k f e c 9 9 8 8 8 9 9 c e f k m C s w y A s C l f d 8 1 } / ) u               ",
"            i > ' / } 1 8 d g m q t x A s C m g e 9 7 1 | } _ ( ( ( _ } | 1 7 9 e g m C s A x t q m g d 8 1 } / ' o             ",
"            j ' ^ _ 1 8 d g m r w y w q m g d 8 1 } / ) ' > E F F F E > ' ) / } 1 8 d g m q w y w r m g d 8 1 _ ^ G h           ",
"          b , ^ _ 1 8 d g m r w x t C l e 9 1 _ ^ , F H I J K L L L K J I H F , ^ _ 1 9 e l C t x w r m g d 8 1 _ ^ M           ",
"          > ) ( | 7 c f m r w x s n k d 7 } ^ > H I L N O P Q R R R Q P O N L I H > ^ } 7 d k n s x w r m f c 7 | ( ) a         ",
"        S ' / } 6 9 f l q w x s n g c 1 ( ' T I U O Q V W X Y Z Z Z Y X W V Q O U I T ' ( 1 c g n s x w q l f 9 6 } / `         ",
"      + , ^ _ 1 8 e k C t y t n g 9 1 / >  .L ..R W +.@.#.$.%.&.&.&.%.$.#.@.+.W R ..L  .> / 1 9 g n t y t C k e 8 1 _ ^ *.      ",
"      [ ' / } 7 c g n s x w C k c 1 ^ E I =.-.;.Y >.,.'.).!.~.{.{.{.~.!.).'.,.>.Y ;.-.=.I E ^ 1 c k C w x s n g c 7 } / ].      ",
"    { , ^ _ 1 9 e l q A A q l d 1 / E I N R ^.@.,./.!.(._.:.<.[.}.[.<.:._.(.!./.,.@.^.R N I E / 1 d l q A A q l e 9 1 _ ^ <     ",
"    ] ' / } 7 c g n t y s m e 7 ( > I N R X >.&.|.1.2.}.3.4.5.6.7.6.5.4.3.}.2.1.|.&.>.X R N I > ( 7 e m s y t n g c 7 } / 8.    ",
"    > ) ( 1 8 e l r A w C g 9 } '  .=.R X 9.'.0._.[.a.b.c.d.d.d.d.d.d.d.c.b.a.[._.0.'.9.X R =. .' } 9 g C w A r l e 8 1 ( ) ~   ",
"  - , ^ } 6 c g n t x s m d 1 ^ T L -.^.>.'.~.e.f.g.h.d.d.d.d.d.d.d.d.d.d.d.h.g.f.e.~.'.>.^.-.L T ^ 1 d m s x t n g c 6 } ^ i.  ",
"  ; ' / | 7 d l q A w C g 8 _ > I ..;.@.&.0.e.f.6.d.d.d.d.d.d.d.d.d.d.d.d.d.d.d.6.f.e.0.&.@.;...I > _ 8 g C w A q l d 7 | / j.  ",
"  > ) ( 1 9 f m s y s m e 1 ^ H U R Y ,.|._.f.6.d.d.d.d.d.d.d.d.d.d.d.d.d.d.d.d.d.6.f._.|.,.Y R U H ^ 1 e m s y s m f 9 1 ( ) k.",
". , ^ _ 6 c g n t x r k 9 } , I O W >./.1.[.g.d.d.d.d.d.d.d.d.d.d.d.d.d.d.d.d.d.d.d.g.[.1./.>.W O I , } 9 k r x t n g c 6 _ ^ = ",
"+ , / } 7 d k q w w C f 7 / F L Q +.,.!.2.a.h.d.d.d.d.d.d.d.d.d.d.d.d.d.d.d.d.d.d.d.h.a.2.!.,.+.Q L F / 7 f C w w q k d 7 } / *.",
"@ ' / | 8 e l r x t n e 1 ) H N V @.'.(.}.b.d.d.d.d.d.d.d.d.d.d.d.d.d.d.d.d.d.d.d.d.d.b.}.(.'.@.V N H ) 1 e n t x r l e 8 | / l.",
"# ' ( | 8 e m s y s m c | ' I O W #.)._.3.c.d.d.d.d.d.d.d.d.d.d.d.d.d.d.d.d.d.d.d.d.d.c.3._.).#.W O I ' | c m s y s m e 8 | ( m.",
"$ ) ( 1 9 f m s y r l 9 } > J P X $.!.:.4.d.d.d.d.d.d.d.d.d.d.d.d.d.d.d.d.d.d.d.d.d.d.d.4.:.!.$.X P J > } 9 l r y s m f 9 1 ( n.",
"% ) ( 1 9 f n t x r k 9 _ E K Q Y %.~.<.5.d.d.d.d.d.d.d.d.d.d.d.d.d.d.d.d.d.d.d.d.d.d.d.5.<.~.%.Y Q K E _ 9 k r x t n f 9 1 ( o.",
"& ) _ 1 9 f n t x q k 8 ( F L R Z &.{.[.6.d.d.d.d.d.d.d.d.d.d.d.d.d.d.d.d.d.d.d.d.d.d.d.6.[.{.&.Z R L F ( 8 k q x t n f 9 1 _ p.",
"& ) _ 1 9 g n t x q g 8 ( F L R Z &.{.}.7.d.d.d.d.d.d.d.d.d.d.d.d.d.d.d.d.d.d.d.d.d.d.d.7.}.{.&.Z R L F ( 8 g q x t n g 9 1 _ p.",
"% ) _ 1 9 f n t x q k 8 ( F L R Z &.{.[.6.d.d.d.d.d.d.d.d.d.d.d.d.d.d.d.d.d.d.d.d.d.d.d.6.[.{.&.Z R L F ( 8 k q x t n f 9 1 _ o.",
"* ) ( 1 9 f n t x r k 9 _ E K Q Y %.~.<.5.d.d.d.d.d.d.d.d.d.d.d.d.d.d.d.d.d.d.d.d.d.d.d.5.<.~.%.Y Q K E _ 9 k r x t n f 9 1 ( n.",
"# ) ( 1 9 f m s y r l 9 } > J P X $.!.:.4.d.d.d.d.d.d.d.d.d.d.d.d.d.d.d.d.d.d.d.d.d.d.d.4.:.!.$.X P J > } 9 l r y s m f 9 1 ( m.",
"@ ' ( | 8 e m s y s m c | ' I O W #.)._.3.c.d.d.d.d.d.d.d.d.d.d.d.d.d.d.d.d.d.d.d.d.d.c.3._.).#.W O I ' | c m s y s m e 8 | ( l.",
"+ ' / | 8 e l r x t n e 1 ) H N V @.'.(.}.b.d.d.d.d.d.d.d.d.d.d.d.d.d.d.d.d.d.d.d.d.d.b.}.(.'.@.V N H ) 1 e n t x r l e 8 | / *.",
"= , / } 7 d k q w w C f 7 / F L Q +.,.!.2.a.h.d.d.d.d.d.d.d.d.d.d.d.d.d.d.d.d.d.d.d.h.a.2.!.,.+.Q L F / 7 f C w w q k d 7 } / = ",
"  , ^ _ 6 c g n t x r k 9 } , I O W >./.1.[.g.d.d.d.d.d.d.d.d.d.d.d.d.d.d.d.d.d.d.d.g.[.1./.>.W O I , } 9 k r x t n g c 6 _ ^ k.",
"  ! ) ( 1 9 f m s y s m e 1 ^ H U R Y ,.|._.f.6.d.d.d.d.d.d.d.d.d.d.d.d.d.d.d.d.d.6.f._.|.,.Y R U H ^ 1 e m s y s m f 9 1 ( q.  ",
"  - ' / | 7 d l q A w C g 8 _ > I ..;.@.&.0.e.f.6.d.d.d.d.d.d.d.d.d.d.d.d.d.d.d.6.f.e.0.&.@.;...I > _ 8 g C w A q l d 7 | / r.  ",
"  ~ , ^ } 6 c g n t x s m d 1 ^ T L -.^.>.'.~.e.f.g.h.d.d.d.d.d.d.d.d.d.d.d.h.g.f.e.~.'.>.^.-.L T ^ 1 d m s x t n g c 6 } ^ ~   ",
"    : ) ( 1 8 e l r A w C g 9 } '  .=.R X 9.'.0._.[.a.b.c.d.d.d.d.d.d.d.c.b.a.[._.0.'.9.X R =. .' } 9 g C w A r l e 8 1 ( s.    ",
"    < ' / } 7 c g n t y s m e 7 ( > I N R X >.&.|.1.2.}.3.4.5.6.7.6.5.4.3.}.2.1.|.&.>.X R N I > ( 7 e m s y t n g c 7 } / t.    ",
"      2 ^ _ 1 9 e l q A A q l d 1 / E I N R ^.@.,./.!.(._.:.<.[.}.[.<.:._.(.!./.,.@.^.R N I E / 1 d l q A A q l e 9 1 _ u.      ",
"      + ' / } 7 c g n s x w C k c 1 ^ E I =.-.;.Y >.,.'.).!.~.{.{.{.~.!.).'.,.>.Y ;.-.=.I E ^ 1 c k C w x s n g c 7 } / *.      ",
"        0 ^ _ 1 8 e k C t y t n g 9 1 / >  .L ..R W +.@.#.$.%.&.&.&.%.$.#.@.+.W R ..L  .> / 1 9 g n t y t C k e 8 1 _ v.        ",
"        a ' / } 6 9 f l q w x s n g c 1 ( ' T I U O Q V W X Y Z Z Z Y X W V Q O U I T ' ( 1 c g n s x w q l f 9 6 } / a         ",
"          b ) ( | 7 c f m r w x s n k d 7 } ^ > H I L N O P Q R R R Q P O N L I H > ^ } 7 d k n s x w r m f c 7 | ( w.          ",
"          h j ^ _ 1 8 d g m r w x t C l e 9 1 _ ^ , F H I J K L L L K J I H F , ^ _ 1 9 e l C t x w r m g d 8 1 _ x.h           ",
"            o ' ^ _ 1 8 d g m r w y w q m g d 8 1 } / ) ' > E F F F E > ' ) / } 1 8 d g m q w y w r m g d 8 1 _ ^ o             ",
"              u ' / } 1 8 d g m q t x A s C m g e 9 7 1 | } _ ( ( ( _ } | 1 7 9 e g m C s A x t q m g d 8 1 } / u               ",
"                v ) / } 1 8 d f l C s A y w s C m k f e c 9 9 8 8 8 9 9 c e f k m C s w y A s C l f d 8 1 } / D                 ",
"                  B ) / } 1 8 c f k n q t A x w s r C n m l k k g k k l m n C r s w x A t q n k f c 8 1 } / y.                  ",
"                    D ) / _ 1 7 9 e g l n r t A y x w t s r r q q q r r s t w x y A t r n l g e 9 7 1 _ / D                     ",
"                      u ' ^ _ | 6 8 c e g l n q s t w x y y x x x x x y y x w t s q n l g e c 8 6 | _ ^ u                       ",
"                        o G ^ ( } 1 7 9 c e g l m n q r s s t t t t t s s r q n m l g e c 9 7 1 } ( x.o                         ",
"                          h M ) / _ } 1 7 8 c d f g k l m m n n n n n m m l k g f d c 8 7 1 } _ / w.h                           ",
"                              a ` ^ / _ } 1 6 7 9 c d e e f f f g f f f e e d c 9 7 6 1 } _ / v.a                               ",
"                                  *.].^ / ( } | 1 6 7 8 8 9 9 9 9 9 9 9 8 8 7 6 1 | } ( / u.*.                                  ",
"                                      < 8.) ^ / ( _ } | | 1 1 1 1 1 1 1 | | } _ ( / ^ s.t.                                      ",
"                                          ~ i.j.) ^ / / ( ( ( _ _ _ ( ( ( / / ^ q.r.~                                           ",
"                                                k.= *.l.m.n.o.p.p.o.n.m.l.*.= k.                                                "};
