/* XPM */
static char * red1_xpm[] = {
"64 64 204 2",
"  	c #FF00FF",
". 	c #F77EF1",
"+ 	c #EEA9DB",
"@ 	c #ECABC8",
"# 	c #EE9DB6",
"$ 	c #F38BA5",
"% 	c #F8819A",
"& 	c #FC7791",
"* 	c #FF7189",
"= 	c #F8819B",
"- 	c #F19FE4",
"; 	c #ECA9C5",
"> 	c #F489A2",
", 	c #FF7187",
"' 	c #FF7088",
") 	c #FF7086",
"! 	c #FF6F85",
"~ 	c #FF6E86",
"{ 	c #FF6E85",
"] 	c #F489A3",
"^ 	c #F09FE4",
"/ 	c #ECAECF",
"( 	c #F38AA4",
"_ 	c #FF6D85",
": 	c #FF6C84",
"< 	c #FF6C83",
"[ 	c #FF6B84",
"} 	c #FF6B82",
"| 	c #FF6A83",
"1 	c #F389A4",
"2 	c #ECADCF",
"3 	c #F97F99",
"4 	c #FF6D84",
"5 	c #FF6A81",
"6 	c #FF6982",
"7 	c #FF6981",
"8 	c #FF6880",
"9 	c #F97E99",
"0 	c #ECAED1",
"a 	c #F7849D",
"b 	c #FF6780",
"c 	c #FF667F",
"d 	c #FF657E",
"e 	c #FF647D",
"f 	c #F7839D",
"g 	c #F19DE5",
"h 	c #EF9AB3",
"i 	c #FF637C",
"j 	c #FF627C",
"k 	c #FF617B",
"l 	c #FF617A",
"m 	c #EF99B3",
"n 	c #EDAED3",
"o 	c #F8829C",
"p 	c #FF5F7A",
"q 	c #FF5F78",
"r 	c #FF5E78",
"s 	c #FF5D78",
"t 	c #FF5D77",
"u 	c #FF5C77",
"v 	c #F8809A",
"w 	c #ECADD3",
"x 	c #ECABC7",
"y 	c #FF5B76",
"z 	c #FF5A76",
"A 	c #FF5975",
"B 	c #FF5973",
"C 	c #FF5974",
"D 	c #ECAAC6",
"E 	c #EDA5BF",
"F 	c #FF6079",
"G 	c #FF5E79",
"H 	c #FF5B75",
"I 	c #FF5772",
"J 	c #FF5672",
"K 	c #FF5571",
"L 	c #FF5470",
"M 	c #FF546F",
"N 	c #FF536F",
"O 	c #ECA4BF",
"P 	c #EDA3BD",
"Q 	c #FF6980",
"R 	c #FF526E",
"S 	c #FF516E",
"T 	c #FF516D",
"U 	c #EDA2BC",
"V 	c #FF5771",
"W 	c #FF5471",
"X 	c #FF5673",
"Y 	c #FF5774",
"Z 	c #FF5873",
"` 	c #FF5C76",
" .	c #FF5976",
"..	c #FF5A77",
"+.	c #FF5B78",
"@.	c #FF5C79",
"#.	c #FF607A",
"$.	c #FF5670",
"%.	c #FF5F7B",
"&.	c #FF617D",
"*.	c #FF627E",
"=.	c #FF637F",
"-.	c #FF556F",
";.	c #FF6581",
">.	c #FF6782",
",.	c #FF6885",
"'.	c #FF6985",
").	c #F8809B",
"!.	c #FF5A74",
"~.	c #FF6883",
"{.	c #FF6986",
"].	c #FF6C87",
"^.	c #FF6E89",
"/.	c #FF6F8B",
"(.	c #FF708C",
"_.	c #FF718D",
":.	c #EF98B3",
"<.	c #FF5E7A",
"[.	c #FF6B87",
"}.	c #FF6E8A",
"|.	c #FF738F",
"1.	c #FF7591",
"2.	c #FF7793",
"3.	c #FF7994",
"4.	c #FF7996",
"5.	c #FF7995",
"6.	c #ECADD1",
"7.	c #FF6A87",
"8.	c #FF718E",
"9.	c #FF7B97",
"0.	c #FF7E9A",
"a.	c #FF809D",
"b.	c #FF819D",
"c.	c #FF829F",
"d.	c #F7829C",
"e.	c #FF607C",
"f.	c #FF6480",
"g.	c #FF6C89",
"h.	c #FF7D9A",
"i.	c #FF819E",
"j.	c #FF84A1",
"k.	c #FF88A5",
"l.	c #FF89A8",
"m.	c #FF8BAA",
"n.	c #FF8DAA",
"o.	c #EBAAC8",
"p.	c #FF728F",
"q.	c #FF7894",
"r.	c #FF7C99",
"s.	c #FF86A3",
"t.	c #FF8AA7",
"u.	c #FF8FAC",
"v.	c #FF92B0",
"w.	c #FF95B4",
"x.	c #FF98B5",
"y.	c #FF99B8",
"z.	c #FF9AB9",
"A.	c #F97D98",
"B.	c #FF7F9A",
"C.	c #FF90AF",
"D.	c #FF9ABA",
"E.	c #FF9FBF",
"F.	c #FFA2C4",
"G.	c #FFA5C7",
"H.	c #FFA7CA",
"I.	c #FFA7CC",
"J.	c #FF94B2",
"K.	c #FFA1C4",
"L.	c #FFACD4",
"M.	c #FFB1DF",
"N.	c #FFB4E8",
"O.	c #FFB7EB",
"P.	c #FFB7EF",
"Q.	c #F388A4",
"R.	c #FF87A4",
"S.	c #FF97B4",
"T.	c #FFAEDA",
"U.	c #FFB6E9",
"V.	c #F7BCFF",
"W.	c #F8C2FF",
"X.	c #E3E3E3",
"Y.	c #FFA1C2",
"Z.	c #FFAAD0",
"`.	c #FFB3E5",
" +	c #F7BDFF",
".+	c #FFABD3",
"++	c #F487A1",
"@+	c #F8C4FF",
"#+	c #EE9BB6",
"$+	c #F87F9A",
"%+	c #FC758F",
"&+	c #FF6E87",
"*+	c #F67DF1",
"=+	c #F487A2",
"-+	c #ECA8C5",
";+	c #F388A5",
">+	c #F97C96",
",+	c #F6819D",
"'+	c #EE97B2",
")+	c #F87E98",
"!+	c #EBA9C6",
"~+	c #ECA3BF",
"{+	c #ECA1BC",
"]+	c #F19CE5",
"                                                . + @ # $ % & * * & = $ # @ + .                                                 ",
"                                          - ; > , ' ) ! ! ~ { { { { { ~ ! ! ) ' ] ; ^                                           ",
"                                      / ( , ) ! { _ : < [ [ } | | | } [ [ < : _ { ! ) 1 2                                       ",
"                                  @ 3 ' ! { 4 < } 5 6 7 7 8 8 8 8 8 8 8 7 7 6 5 } < 4 { ! 9 @                                   ",
"                              0 a ' ! _ : } 6 7 8 b c c d d e e e e e d d c c b 8 7 6 } : _ ! f 0                               ",
"                          g h , ! _ < | 6 8 b c d e i j k k l l l l l k k j i e d c b 8 6 | < _ ! m g                           ",
"                        n o ) { : | 7 8 c d i j k l p q r s t t u t t s r q p l k j i d c 8 7 | : { v w                         ",
"                      x , ! _ [ 6 8 c d i k l q r u y z A B C B B B C B A z y u r q l k i d c 8 6 [ _ ! D                       ",
"                    E ' ~ : | 7 b d i k F G u H A B I J K L L M N M L L K J I B A H u G F k i d b 7 | : ~ O                     ",
"                  P ' ~ : 5 Q c e j l G u z C I K L R S T S R R R R R S T S R L K I C z u G l j e c Q 5 : ~ U                   ",
"                E ' ~ < 6 8 c i k p t z C V L R T R N W J X I Y Z Y I X J W N R T R L V C z t p k i c 8 6 < ~ O                 ",
"              x ' ~ < 6 8 d i l G ` B I L R S N K I C  ...+.@.s s s @.+... .C I K N S R L I B ` G l i d 8 6 < ~ D               ",
"            n , ~ : 6 8 d j #.r H B $.N T N J Z  .u G %.&.&.*.*.=.*.*.&.&.%.G u  .Z J N T N $.B H r #.j d 8 6 : ~ w             ",
"            o ! : 5 8 d j #.s z Z -.S R K Z z s %.&.=.;.>.,.'.'.'.'.'.,.>.;.=.&.%.s z Z K R S -.Z z s #.j d 8 5 : ).g           ",
"          h ) _ | Q c i #.s !.I L T N X A @.%.*.;.~.{.].^./.(._._._.(./.^.].{.~.;.*.%.@.A X N T L I !.s #.i c Q | _ :.          ",
"        0 , { [ 7 c i l r z I L T L Y ..<.&.;.,.[.}._.|.1.2.3.4.5.4.3.2.1.|._.}.[.,.;.&.<...Y L T L I z r l i c 7 [ { 6.        ",
"        a ! : 6 b e k G H Z L T L Z +.%.=.>.7.}.8.1.3.9.0.a.b.c.c.c.b.a.0.9.3.1.8.}.7.>.=.%.+.Z L T L Z H G k e b 6 : d.        ",
"      @ ' _ | 8 d j p ` B -.T L Z +.e.f.,.g._.1.5.h.i.j.k.l.m.n.n.n.m.l.k.j.i.h.5.1._.g.,.f.e.+.Z L T -.B ` p j d 8 | _ o.      ",
"      3 ! < 7 c i l t B $.S N Y +.e.f.'.^.p.q.r.b.s.t.u.v.w.x.y.z.y.x.w.v.u.t.s.b.r.q.p.^.'.f.e.+.Y N S $.B t l i c 7 < A.      ",
"    / ' _ | 8 d k G z I N R X ..%.f.'.}.|.4.B.j.t.C.w.D.E.F.G.H.I.H.G.F.E.D.w.C.t.j.B.4.|.}.'.f.%...X R N I z G k d 8 | _ 2     ",
"    ( ! : 6 c i F u C L T K A <.=.,.^.|.5.a.s.n.J.D.K.I.L.M.N.O.P.O.N.M.L.I.K.D.J.n.s.a.5.|.^.,.=.<.A K T L C u F i c 6 : Q.    ",
"    , { } 8 d k G z V R N Z @.&.>.g.p.4.a.R.u.S.E.H.T.U.V.W.X.X.X.X.X.W.V.U.T.H.E.S.u.R.a.4.p.g.>.&.@.Z N R V z G k d 8 } { ^   ",
"  ; ) 4 6 b i l u C L S J z %.;.7._.q.B.s.u.x.Y.Z.`. +X.X.X.X.X.X.X.X.X.X.X. +`.Z.Y.x.u.s.B.q._.7.;.%.z J S L C u l i b 6 4 ;   ",
"  > ! < 7 c j q H I R N Z s *.,.}.1.r.j.n.S.Y..+O.W.X.X.X.X.X.X.X.X.X.X.X.X.X.W.O..+Y.S.n.j.r.1.}.,.*.s Z N R I H q j c 7 < ++  ",
"  , { } 8 d k r A K T K  .%.;.[.8.5.b.t.J.E.Z.O.@+X.X.X.X.X.X.X.X.X.X.X.X.X.X.X.@+O.Z.E.J.t.b.5.8.[.;.%. .K T K A r k d 8 } { . ",
"+ ' _ 5 b e l u B L R I u &.~.}.1.h.s.C.D.H.`.W.X.X.X.X.X.X.X.X.X.X.X.X.X.X.X.X.X.W.`.H.D.C.s.h.1.}.~.&.u I R L B u l e b 5 _ + ",
"@ ) : 6 c i p y I R N C G =.{._.3.i.t.w.K.T. +X.X.X.X.X.X.X.X.X.X.X.X.X.X.X.X.X.X.X. +T.K.w.t.i.3._.{.=.G C N R I y p i c 6 : o.",
"# ! < 7 c j q z J S W  .%.;.].|.9.j.u.D.I.U.X.X.X.X.X.X.X.X.X.X.X.X.X.X.X.X.X.X.X.X.X.U.I.D.u.j.9.|.].;.%. .W S J z q j c 7 < #+",
"$ ! [ 7 d k r A K T J ..&.>.^.1.0.k.v.E.L.V.X.X.X.X.X.X.X.X.X.X.X.X.X.X.X.X.X.X.X.X.X.V.L.E.v.k.0.1.^.>.&...J T K A r k d 7 [ 1 ",
"% ~ [ 8 d k s B L S X +.&.,./.2.a.l.w.F.M.W.X.X.X.X.X.X.X.X.X.X.X.X.X.X.X.X.X.X.X.X.X.W.M.F.w.l.a.2./.,.&.+.X S L B s k d 8 [ $+",
"& { } 8 e l t C L R I @.*.'.(.3.b.m.x.G.N.X.X.X.X.X.X.X.X.X.X.X.X.X.X.X.X.X.X.X.X.X.X.X.N.G.x.m.b.3.(.'.*.@.I R L C t l e 8 } %+",
"* { | 8 e l t B M R Y s *.'._.4.c.n.y.H.O.X.X.X.X.X.X.X.X.X.X.X.X.X.X.X.X.X.X.X.X.X.X.X.O.H.y.n.c.4._.'.*.s Y R M B t l e 8 | &+",
"* { | 8 e l u B N R Z s =.'._.5.c.n.z.I.P.X.X.X.X.X.X.X.X.X.X.X.X.X.X.X.X.X.X.X.X.X.X.X.P.I.z.n.c.5._.'.=.s Z R N B u l e 8 | &+",
"& { | 8 e l t B M R Y s *.'._.4.c.n.y.H.O.X.X.X.X.X.X.X.X.X.X.X.X.X.X.X.X.X.X.X.X.X.X.X.O.H.y.n.c.4._.'.*.s Y R M B t l e 8 | %+",
"= { } 8 e l t C L R I @.*.'.(.3.b.m.x.G.N.X.X.X.X.X.X.X.X.X.X.X.X.X.X.X.X.X.X.X.X.X.X.X.N.G.x.m.b.3.(.'.*.@.I R L C t l e 8 } $+",
"$ ~ [ 8 d k s B L S X +.&.,./.2.a.l.w.F.M.W.X.X.X.X.X.X.X.X.X.X.X.X.X.X.X.X.X.X.X.X.X.W.M.F.w.l.a.2./.,.&.+.X S L B s k d 8 [ 1 ",
"# ! [ 7 d k r A K T J ..&.>.^.1.0.k.v.E.L.V.X.X.X.X.X.X.X.X.X.X.X.X.X.X.X.X.X.X.X.X.X.V.L.E.v.k.0.1.^.>.&...J T K A r k d 7 [ #+",
"@ ! < 7 c j q z J S W  .%.;.].|.9.j.u.D.I.U.X.X.X.X.X.X.X.X.X.X.X.X.X.X.X.X.X.X.X.X.X.U.I.D.u.j.9.|.].;.%. .W S J z q j c 7 < o.",
"+ ) : 6 c i p y I R N C G =.{._.3.i.t.w.K.T. +X.X.X.X.X.X.X.X.X.X.X.X.X.X.X.X.X.X.X. +T.K.w.t.i.3._.{.=.G C N R I y p i c 6 : + ",
"  ' _ 5 b e l u B L R I u &.~.}.1.h.s.C.D.H.`.W.X.X.X.X.X.X.X.X.X.X.X.X.X.X.X.X.X.W.`.H.D.C.s.h.1.}.~.&.u I R L B u l e b 5 _ *+",
"  ] { } 8 d k r A K T K  .%.;.[.8.5.b.t.J.E.Z.O.@+X.X.X.X.X.X.X.X.X.X.X.X.X.X.X.@+O.Z.E.J.t.b.5.8.[.;.%. .K T K A r k d 8 } =+  ",
"  ; ! < 7 c j q H I R N Z s *.,.}.1.r.j.n.S.Y..+O.W.X.X.X.X.X.X.X.X.X.X.X.X.X.W.O..+Y.S.n.j.r.1.}.,.*.s Z N R I H q j c 7 < -+  ",
"  ^ ) 4 6 b i l u C L S J z %.;.7._.q.B.s.u.x.Y.Z.`. +X.X.X.X.X.X.X.X.X.X.X. +`.Z.Y.x.u.s.B.q._.7.;.%.z J S L C u l i b 6 4 ^   ",
"    1 { } 8 d k G z V R N Z @.&.>.g.p.4.a.R.u.S.E.H.T.U.V.W.X.X.X.X.X.W.V.U.T.H.E.S.u.R.a.4.p.g.>.&.@.Z N R V z G k d 8 } ;+    ",
"    2 ! : 6 c i F u C L T K A <.=.,.^.|.5.a.s.n.J.D.K.I.L.M.N.O.P.O.N.M.L.I.K.D.J.n.s.a.5.|.^.,.=.<.A K T L C u F i c 6 : 2     ",
"      9 _ | 8 d k G z I N R X ..%.f.'.}.|.4.B.j.t.C.w.D.E.F.G.H.I.H.G.F.E.D.w.C.t.j.B.4.|.}.'.f.%...X R N I z G k d 8 | >+      ",
"      @ ! < 7 c i l t B $.S N Y +.e.f.'.^.p.q.r.b.s.t.u.v.w.x.y.z.y.x.w.v.u.t.s.b.r.q.p.^.'.f.e.+.Y N S $.B t l i c 7 < o.      ",
"        f _ | 8 d j p ` B -.T L Z +.e.f.,.g._.1.5.h.i.j.k.l.m.n.n.n.m.l.k.j.i.h.5.1._.g.,.f.e.+.Z L T -.B ` p j d 8 | ,+        ",
"        0 ! : 6 b e k G H Z L T L Z +.%.=.>.7.}.8.1.3.9.0.a.b.c.c.c.b.a.0.9.3.1.8.}.7.>.=.%.+.Z L T L Z H G k e b 6 : 6.        ",
"          m { [ 7 c i l r z I L T L Y ..<.&.;.,.[.}._.|.1.2.3.4.5.4.3.2.1.|._.}.[.,.;.&.<...Y L T L I z r l i c 7 [ '+          ",
"          g v _ | Q c i #.s !.I L T N X A @.%.*.;.~.{.].^./.(._._._.(./.^.].{.~.;.*.%.@.A X N T L I !.s #.i c Q | )+            ",
"            w ! : 5 8 d j #.s z Z -.S R K Z z s %.&.=.;.>.,.'.'.'.'.'.,.>.;.=.&.%.s z Z K R S -.Z z s #.j d 8 5 : w             ",
"              D ~ : 6 8 d j #.r H B $.N T N J Z  .u G %.&.&.*.*.=.*.*.&.&.%.G u  .Z J N T N $.B H r #.j d 8 6 : !+              ",
"                O ~ < 6 8 d i l G ` B I L R S N K I C  ...+.@.s s s @.+... .C I K N S R L I B ` G l i d 8 6 < ~+                ",
"                  U ~ < 6 8 c i k p t z C V L R T R N W J X I Y Z Y I X J W N R T R L V C z t p k i c 8 6 < {+                  ",
"                    O ~ : 5 Q c e j l G u z C I K L R S T S R R R R R S T S R L K I C z u G l j e c Q 5 : ~+                    ",
"                      D ~ : | 7 b d i k F G u H A B I J K L L M N M L L K J I B A H u G F k i d b 7 | : !+                      ",
"                        w )._ [ 6 8 c d i k l q r u y z A B C B B B C B A z y u r q l k i d c 8 6 [ )+w                         ",
"                          g :.{ : | 7 8 c d i j k l p q r s t t u t t s r q p l k j i d c 8 7 | : '+]+                          ",
"                              6.d._ < | 6 8 b c d e i j k k l l l l l k k j i e d c b 8 6 | < ,+6.                              ",
"                                  o.A._ : } 6 7 8 b c c d d e e e e e d d c c b 8 7 6 } : >+o.                                  ",
"                                      2 Q.{ 4 < } 5 6 7 7 8 8 8 8 8 8 8 7 7 6 5 } < 4 ;+2                                       ",
"                                          ^ ; ++{ _ : < [ [ } | | | } [ [ < : _ =+-+^                                           ",
"                                                . + o.#+1 $+%+&+&+%+$+1 #+o.+ *+                                                "};
