/* XPM */
static char * red2_xpm[] = {
"64 64 222 2",
"  	c #FF00FF",
". 	c #F77EF1",
"+ 	c #EEABDB",
"@ 	c #EDAEC9",
"# 	c #EFA0B7",
"$ 	c #F38FAA",
"% 	c #F886A2",
"& 	c #FC7B98",
"* 	c #FF7492",
"= 	c #FF7491",
"- 	c #F885A1",
"; 	c #EF9FB7",
"> 	c #ECADC9",
", 	c #F1A0E4",
"' 	c #EDACC6",
") 	c #F48DA8",
"! 	c #FF7490",
"~ 	c #FF738F",
"{ 	c #FF7290",
"] 	c #FF728F",
"^ 	c #FF718F",
"/ 	c #FF718E",
"( 	c #ECABC6",
"_ 	c #EDAFCF",
": 	c #F48FA9",
"< 	c #FF7391",
"[ 	c #FF708E",
"} 	c #FF6F8D",
"| 	c #FF6E8C",
"1 	c #F48EA8",
"2 	c #F9829F",
"3 	c #FF718D",
"4 	c #FF708C",
"5 	c #FF6D8B",
"6 	c #FF6C8C",
"7 	c #FF6C8A",
"8 	c #FF6B8B",
"9 	c #FF6B89",
"0 	c #F9819F",
"a 	c #EDAFD2",
"b 	c #F78AA4",
"c 	c #FF6D8C",
"d 	c #FF6A8A",
"e 	c #FF6A89",
"f 	c #FF6988",
"g 	c #FF6987",
"h 	c #FF6887",
"i 	c #F788A4",
"j 	c #F19DE5",
"k 	c #EF9CB5",
"l 	c #FF6787",
"m 	c #FF6686",
"n 	c #FF6585",
"o 	c #FF6484",
"p 	c #EF9CB4",
"q 	c #EDAFD3",
"r 	c #F985A2",
"s 	c #FF6886",
"t 	c #FF6383",
"u 	c #FF6282",
"v 	c #FF6183",
"w 	c #FF6182",
"x 	c #FF6181",
"y 	c #F884A1",
"z 	c #EDAED3",
"A 	c #EDADC7",
"B 	c #FF6684",
"C 	c #FF6284",
"D 	c #FF6080",
"E 	c #FF5F7F",
"F 	c #FF5E80",
"G 	c #FF5D7F",
"H 	c #FF5D7E",
"I 	c #FF5C7E",
"J 	c #ECACC7",
"K 	c #EDA8C0",
"L 	c #FF5F81",
"M 	c #FF5B7D",
"N 	c #FF5A7C",
"O 	c #FF597C",
"P 	c #FF597B",
"Q 	c #FF587B",
"R 	c #EDA7C0",
"S 	c #EEA6BE",
"T 	c #FF6989",
"U 	c #FF577A",
"V 	c #FF567A",
"W 	c #FF5579",
"X 	c #FF5478",
"Y 	c #FF5477",
"Z 	c #FF5377",
"` 	c #EDA5BE",
" .	c #FF5276",
"..	c #FF5175",
"+.	c #FF5177",
"@.	c #FF6081",
"#.	c #FF5E7E",
"$.	c #FF5779",
"%.	c #FF557A",
"&.	c #FF567B",
"*.	c #FF577C",
"=.	c #FF587D",
"-.	c #FF6785",
";.	c #FF587A",
">.	c #FF5577",
",.	c #FF597D",
"'.	c #FF5A7F",
").	c #FF5B81",
"!.	c #FF5D82",
"~.	c #FF5D83",
"{.	c #FF5E82",
"].	c #FF5E84",
"^.	c #FF5C82",
"/.	c #FF5F83",
"(.	c #FF6185",
"_.	c #FF6187",
":.	c #FF6389",
"<.	c #FF648A",
"[.	c #FF648B",
"}.	c #F883A0",
"|.	c #FF6085",
"1.	c #FF6288",
"2.	c #FF678C",
"3.	c #FF698E",
"4.	c #FF6990",
"5.	c #FF6A91",
"6.	c #FF6B92",
"7.	c #EF9BB4",
"8.	c #FF597E",
"9.	c #FF668B",
"0.	c #FF698F",
"a.	c #FF6E95",
"b.	c #FF7096",
"c.	c #FF7198",
"d.	c #FF729A",
"e.	c #FF739B",
"f.	c #ECAFD2",
"g.	c #FF658C",
"h.	c #FF6C93",
"i.	c #FF769E",
"j.	c #FF78A1",
"k.	c #FF79A3",
"l.	c #FF7BA5",
"m.	c #FF7CA6",
"n.	c #F788A3",
"o.	c #FF5B80",
"p.	c #FF5F85",
"q.	c #FF678E",
"r.	c #FF78A0",
"s.	c #FF7BA3",
"t.	c #FF7EA8",
"u.	c #FF81AB",
"v.	c #FF83AF",
"w.	c #FF85B1",
"x.	c #FF86B2",
"y.	c #FF87B3",
"z.	c #FF6D94",
"A.	c #FF719A",
"B.	c #FF779F",
"C.	c #FF80AA",
"D.	c #FF84B0",
"E.	c #FF88B6",
"F.	c #FF8BBA",
"G.	c #FF8EBD",
"H.	c #FF91C0",
"I.	c #FF92C3",
"J.	c #FF92C2",
"K.	c #F9809E",
"L.	c #FF79A2",
"M.	c #FF84AE",
"N.	c #FF89B6",
"O.	c #FF93C3",
"P.	c #FF97CA",
"Q.	c #FF9AD0",
"R.	c #FF9DD4",
"S.	c #FF9FD7",
"T.	c #FFA0D8",
"U.	c #ECAFCF",
"V.	c #FF749B",
"W.	c #FF80AB",
"X.	c #FF8DBC",
"Y.	c #FF93C5",
"Z.	c #FF9ACD",
"`.	c #FFA5E1",
" +	c #FFA9EB",
".+	c #FFACF3",
"++	c #FFAFFA",
"@+	c #FFAFFC",
"#+	c #FF81AC",
"$+	c #FF90BF",
"%+	c #FFA7E5",
"&+	c #FFAEF7",
"*+	c #F6B4FF",
"=+	c #F7BAFF",
"-+	c #F7BEFF",
";+	c #F8C1FF",
">+	c #F8C2FF",
",+	c #FFA2DD",
"'+	c #FFABF3",
")+	c #F6B5FF",
"!+	c #F8C6FF",
"~+	c #E3E3E3",
"{+	c #FFA3E0",
"]+	c #F8C5FF",
"^+	c #F48CA8",
"/+	c #F7BBFF",
"(+	c #EE9EB7",
"_+	c #F38DA9",
":+	c #F883A1",
"<+	c #FC7997",
"[+	c #ECACC9",
"}+	c #EEAADB",
"|+	c #F48BA7",
"1+	c #ECAAC6",
"2+	c #F9809D",
"3+	c #F786A3",
"4+	c #ECAED1",
"5+	c #EF9AB4",
"6+	c #F882A0",
"7+	c #ECABC7",
"8+	c #EDA6C0",
"9+	c #EDA4BD",
"                                                . + @ # $ % & * = & - $ ; > + .                                                 ",
"                                          , ' ) ! ~ { ] ^ ^ / / / / / ^ ^ ] { ~ ) ( ,                                           ",
"                                      _ : < { ] / / [ [ } } } | | | } } } [ [ / / ] { 1 _                                       ",
"                                  @ 2 ~ ] / 3 4 } | 5 6 7 8 9 9 9 9 9 8 7 6 5 | } 4 3 / ] 0 >                                   ",
"                              a b ~ ^ / [ } c 6 8 d e f f g h h h h h g f f e d 8 6 c } [ / ^ i a                               ",
"                          j k < ] / [ | 5 8 d f g h l m n n n o o o n n n m l h g f d 8 5 | [ / ] p j                           ",
"                        q r { / [ | 5 9 e f s m n o t u v w w w x w w w v u t o n m s f e 9 5 | [ / y z                         ",
"                      A ! ] / } 5 8 e f l B o C w x D E F G G H I H G G F E D x w C o B l f e 8 5 } / ] J                       ",
"                    K < ^ [ | 6 d f l n o u x L F I M N O O P P Q P P O O N M I F L x u o n l f d 6 | [ ^ R                     ",
"                  S < ^ [ | 7 T h m o u x E G M O P U V W X Y Z Z Z Y X W V U P O M G E x u o m h T 7 | [ ^ `                   ",
"                K < ^ [ c 9 f l n t w L G N O U W Y  .....+. .Z Z Z  .+..... .Y W U O N G L w t n l f 9 c [ ^ R                 ",
"              A < ^ [ 5 9 f l o u @.#.M O $.X  ... .X %.&.*.=.=.O =.=.*.&.%.X  ... .X $.O M #.@.u o l f 9 5 [ ^ J               ",
"            q ! ^ [ c 9 f -.o w L I N ;.>. ...Z %.*.,.'.).!.~.{.].{.~.!.).'.,.*.%.Z .. .>.;.N I L w o -.f 9 c [ ^ z             ",
"          j r ] [ | 9 f -.o w E I O V Z ..Z V =.'.^./.(._.:.<.<.[.<.<.:._.(./.^.'.=.V Z ..Z V O I E w o -.f 9 | [ }.j           ",
"          k { / | 7 f l o w E M P W  .+.W =.'.~.|.1.[.2.3.4.5.6.6.6.5.4.3.2.[.1.|.~.'.=.W +. .W P M E w o l f 7 | / 7.          ",
"        a < / } 6 T l o w E M P W ..Z &.8.^.|.:.9.0.6.a.b.c.d.e.e.e.d.c.b.a.6.0.9.:.|.^.8.&.Z ..W P M E w o l T 6 } / f.        ",
"        b ] [ 5 d h n u L I P W ..Z *.'.]._.g.0.h.b.d.i.j.k.l.m.m.m.l.k.j.i.d.b.h.0.g._.].'.*.Z ..W P I L u n h d 5 [ n.        ",
"      @ ~ / | 8 f m t @.I O W ..Z *.o.p.:.q.6.b.e.r.s.t.u.v.w.x.y.x.w.v.u.t.s.r.e.b.6.q.:.p.o.*.Z ..W O I @.t m f 8 | / >       ",
"      2 ^ [ 5 e l o w #.N V  .Z *.o.p.<.3.z.A.B.l.C.D.E.F.G.H.I.J.I.H.G.F.E.D.C.l.B.A.z.3.<.p.o.*.Z  .V N #.w o l e 5 [ K.      ",
"    _ ~ / | 9 f n u L M ;.Z +.&.'.p.<.0.a.e.L.t.M.N.G.O.P.Q.R.S.T.S.R.Q.P.O.G.N.M.t.L.e.a.0.<.p.'.&.+.Z ;.M L u n f 9 | / U.    ",
"    : ] [ 5 e l o x G O >...W 8.].:.3.a.V.k.W.y.X.Y.Z.T.`. +.+++@+++.+ +`.T.Z.Y.X.y.W.k.V.a.3.:.].8.W ..>.O G x o l e 5 [ )     ",
"  , < / } 8 f B u E N $. .Z =.^._.q.z.e.k.#+E.$+P.S.%+&+*+=+-+;+>+;+-+=+*+&+%+S.P.$+E.#+k.e.z.q._.^.=.Z  .$.N E u B f 8 } / ,   ",
"  ' { 3 c d s o x G O X ..V '.|.g.6.A.L.W.E.H.Z.,+'+)+-+!+~+~+~+~+~+~+~+!+-+)+'+,+Z.H.E.W.L.A.6.g.|.'.V ..X O G x o s d c 3 (   ",
"  ) ] 4 6 f m C L M U  .Z =.~.:.0.b.B.t.y.$+Z.{+++=+]+~+~+~+~+~+~+~+~+~+~+~+]+=+++{+Z.$+y.t.B.b.0.:.~.=.Z  .U M L C m f 6 4 ^+  ",
". ! / } 8 g n w F O W ..%.'.|.9.h.e.l.M.X.P.,+++/+~+~+~+~+~+~+~+~+~+~+~+~+~+~+~+/+++,+P.X.M.l.e.h.9.|.'.%...W O F w n g 8 } / . ",
"+ ~ / | d h o x I P Y  .*.^.1.0.b.r.C.N.Y.S.'+=+~+~+~+~+~+~+~+~+~+~+~+~+~+~+~+~+~+=+'+S.Y.N.C.r.b.0.1.^.*. .Y P I x o h d | / + ",
"@ { [ 5 e l t D M U  .X ,./.[.6.d.s.D.G.Z.%+)+]+~+~+~+~+~+~+~+~+~+~+~+~+~+~+~+~+~+]+)+%+Z.G.D.s.d.6.[./.,.X  .U M D t l e 5 [ > ",
"# ] [ 6 f m u E N V ..%.'.(.2.a.i.t.E.O.T.&+-+~+~+~+~+~+~+~+~+~+~+~+~+~+~+~+~+~+~+~+-+&+T.O.E.t.i.a.2.(.'.%...V N E u m f 6 [ (+",
"$ ^ } 7 f n v F O W ..&.)._.3.b.j.u.F.P.`.*+!+~+~+~+~+~+~+~+~+~+~+~+~+~+~+~+~+~+~+~+!+*+`.P.F.u.j.b.3._.).&...W O F v n f 7 } _+",
"% ^ } 8 g n w G O X +.*.!.:.4.c.k.v.G.Q. +=+~+~+~+~+~+~+~+~+~+~+~+~+~+~+~+~+~+~+~+~+~+=+ +Q.G.v.k.c.4.:.!.*.+.X O G w n g 8 } :+",
"& / } 9 h n w G P Y  .=.~.<.5.d.l.w.H.R..+-+~+~+~+~+~+~+~+~+~+~+~+~+~+~+~+~+~+~+~+~+~+-+.+R.H.w.l.d.5.<.~.=. .Y P G w n h 9 } <+",
"* / | 9 h o w H P Z Z =.{.<.6.e.m.x.I.S.++;+~+~+~+~+~+~+~+~+~+~+~+~+~+~+~+~+~+~+~+~+~+;+++S.I.x.m.e.6.<.{.=.Z Z P H w o h 9 | { ",
"= / | 9 h o x I Q Z Z O ].[.6.e.m.y.J.T.@+>+~+~+~+~+~+~+~+~+~+~+~+~+~+~+~+~+~+~+~+~+~+>+@+T.J.y.m.e.6.[.].O Z Z Q I x o h 9 | { ",
"& / | 9 h o w H P Z Z =.{.<.6.e.m.x.I.S.++;+~+~+~+~+~+~+~+~+~+~+~+~+~+~+~+~+~+~+~+~+~+;+++S.I.x.m.e.6.<.{.=.Z Z P H w o h 9 | <+",
"- / } 9 h n w G P Y  .=.~.<.5.d.l.w.H.R..+-+~+~+~+~+~+~+~+~+~+~+~+~+~+~+~+~+~+~+~+~+~+-+.+R.H.w.l.d.5.<.~.=. .Y P G w n h 9 } }.",
"$ ^ } 8 g n w G O X +.*.!.:.4.c.k.v.G.Q. +=+~+~+~+~+~+~+~+~+~+~+~+~+~+~+~+~+~+~+~+~+~+=+ +Q.G.v.k.c.4.:.!.*.+.X O G w n g 8 } _+",
"; ^ } 7 f n v F O W ..&.)._.3.b.j.u.F.P.`.*+!+~+~+~+~+~+~+~+~+~+~+~+~+~+~+~+~+~+~+~+!+*+`.P.F.u.j.b.3._.).&...W O F v n f 7 } (+",
"> ] [ 6 f m u E N V ..%.'.(.2.a.i.t.E.O.T.&+-+~+~+~+~+~+~+~+~+~+~+~+~+~+~+~+~+~+~+~+-+&+T.O.E.t.i.a.2.(.'.%...V N E u m f 6 [ [+",
"+ { [ 5 e l t D M U  .X ,./.[.6.d.s.D.G.Z.%+)+]+~+~+~+~+~+~+~+~+~+~+~+~+~+~+~+~+~+]+)+%+Z.G.D.s.d.6.[./.,.X  .U M D t l e 5 [ }+",
". ~ / | d h o x I P Y  .*.^.1.0.b.r.C.N.Y.S.'+=+~+~+~+~+~+~+~+~+~+~+~+~+~+~+~+~+~+=+'+S.Y.N.C.r.b.0.1.^.*. .Y P I x o h d | / . ",
"  ) / } 8 g n w F O W ..%.'.|.9.h.e.l.M.X.P.,+++/+~+~+~+~+~+~+~+~+~+~+~+~+~+~+~+/+++,+P.X.M.l.e.h.9.|.'.%...W O F w n g 8 } |+  ",
"  ( ] 4 6 f m C L M U  .Z =.~.:.0.b.B.t.y.$+Z.{+++=+]+~+~+~+~+~+~+~+~+~+~+~+]+=+++{+Z.$+y.t.B.b.0.:.~.=.Z  .U M L C m f 6 4 1+  ",
"  , { 3 c d s o x G O X ..V '.|.g.6.A.L.W.E.H.Z.,+'+)+-+!+~+~+~+~+~+~+~+!+-+)+'+,+Z.H.E.W.L.A.6.g.|.'.V ..X O G x o s d c 3 ,   ",
"    1 / } 8 f B u E N $. .Z =.^._.q.z.e.k.#+E.$+P.S.%+&+*+=+-+;+>+;+-+=+*+&+%+S.P.$+E.#+k.e.z.q._.^.=.Z  .$.N E u B f 8 } _+    ",
"    _ ] [ 5 e l o x G O >...W 8.].:.3.a.V.k.W.y.X.Y.Z.T.`. +.+++@+++.+ +`.T.Z.Y.X.y.W.k.V.a.3.:.].8.W ..>.O G x o l e 5 [ U.    ",
"      0 / | 9 f n u L M ;.Z +.&.'.p.<.0.a.e.L.t.M.N.G.O.P.Q.R.S.T.S.R.Q.P.O.G.N.M.t.L.e.a.0.<.p.'.&.+.Z ;.M L u n f 9 | 2+      ",
"      > ^ [ 5 e l o w #.N V  .Z *.o.p.<.3.z.A.B.l.C.D.E.F.G.H.I.J.I.H.G.F.E.D.C.l.B.A.z.3.<.p.o.*.Z  .V N #.w o l e 5 [ [+      ",
"        i / | 8 f m t @.I O W ..Z *.o.p.:.q.6.b.e.r.s.t.u.v.w.x.y.x.w.v.u.t.s.r.e.b.6.q.:.p.o.*.Z ..W O I @.t m f 8 | 3+        ",
"        a ] [ 5 d h n u L I P W ..Z *.'.]._.g.0.h.b.d.i.j.k.l.m.m.m.l.k.j.i.d.b.h.0.g._.].'.*.Z ..W P I L u n h d 5 [ 4+        ",
"          p / } 6 T l o w E M P W ..Z &.8.^.|.:.9.0.6.a.b.c.d.e.e.e.d.c.b.a.6.0.9.:.|.^.8.&.Z ..W P M E w o l T 6 } 5+          ",
"          j y / | 7 f l o w E M P W  .+.W =.'.~.|.1.[.2.3.4.5.6.6.6.5.4.3.2.[.1.|.~.'.=.W +. .W P M E w o l f 7 | 6+j           ",
"            z ] [ | 9 f -.o w E I O V Z ..Z V =.'.^./.(._.:.<.<.[.<.<.:._.(./.^.'.=.V Z ..Z V O I E w o -.f 9 | [ z             ",
"              J ^ [ c 9 f -.o w L I N ;.>. ...Z %.*.,.'.).!.~.{.].{.~.!.).'.,.*.%.Z .. .>.;.N I L w o -.f 9 c [ 7+              ",
"                R ^ [ 5 9 f l o u @.#.M O $.X  ... .X %.&.*.=.=.O =.=.*.&.%.X  ... .X $.O M #.@.u o l f 9 5 [ 8+                ",
"                  ` ^ [ c 9 f l n t w L G N O U W Y  .....+. .Z Z Z  .+..... .Y W U O N G L w t n l f 9 c [ 9+                  ",
"                    R ^ [ | 7 T h m o u x E G M O P U V W X Y Z Z Z Y X W V U P O M G E x u o m h T 7 | [ 8+                    ",
"                      J ^ [ | 6 d f l n o u x L F I M N O O P P Q P P O O N M I F L x u o n l f d 6 | [ 7+                      ",
"                        z }./ } 5 8 e f l B o C w x D E F G G H I H G G F E D x w C o B l f e 8 5 } 6+z                         ",
"                          j 7./ [ | 5 9 e f s m n o t u v w w w x w w w v u t o n m s f e 9 5 | [ 5+j                           ",
"                              f.n./ [ | 5 8 d f g h l m n n n o o o n n n m l h g f d 8 5 | [ 3+4+                              ",
"                                  > K./ [ } c 6 8 d e f f g h h h h h g f f e d 8 6 c } [ 2+[+                                  ",
"                                      U.) / 3 4 } | 5 6 7 8 9 9 9 9 9 8 7 6 5 | } 4 3 _+U.                                      ",
"                                          , ( ^+/ / [ [ } } } | | | } } } [ [ / |+1+,                                           ",
"                                                . + > (+_+:+<+{ { <+}._+(+[+}+.                                                 "};
