/* XPM */
static char * red3_xpm[] = {
"64 64 217 2",
"  	c #FF00FF",
". 	c #F77EF1",
"+ 	c #EFACDB",
"@ 	c #EDAFCA",
"# 	c #EFA2B9",
"$ 	c #F494AE",
"% 	c #F989A7",
"& 	c #FC7EA0",
"* 	c #FF789A",
"= 	c #F888A7",
"- 	c #EFA1B9",
"; 	c #F2A1E4",
"> 	c #EDAEC7",
", 	c #F592AC",
"' 	c #FF779A",
") 	c #FF7799",
"! 	c #FF7698",
"~ 	c #FF7599",
"{ 	c #FF7597",
"] 	c #FF7498",
"^ 	c #F592AD",
"/ 	c #EDB1D0",
"( 	c #F493AE",
"_ 	c #FF7699",
": 	c #FF7496",
"< 	c #FF7397",
"[ 	c #FF7395",
"} 	c #FF7296",
"| 	c #FF7195",
"1 	c #F492AD",
"2 	c #FA86A5",
"3 	c #FF7194",
"4 	c #FF7095",
"5 	c #FF7093",
"6 	c #FF6F94",
"7 	c #FF6F93",
"8 	c #FA85A4",
"9 	c #EDB1D2",
"0 	c #F78CA9",
"a 	c #FF7196",
"b 	c #FF6E92",
"c 	c #FF6D92",
"d 	c #FF6D91",
"e 	c #FF6C91",
"f 	c #FF6C90",
"g 	c #FF6B91",
"h 	c #F78BA9",
"i 	c #F29EE5",
"j 	c #F09EB6",
"k 	c #FF6E93",
"l 	c #FF6A90",
"m 	c #FF6990",
"n 	c #FF698F",
"o 	c #FF698E",
"p 	c #EEB1D4",
"q 	c #F988A7",
"r 	c #FF688F",
"s 	c #FF678E",
"t 	c #FF678C",
"u 	c #FF668D",
"v 	c #FF658C",
"w 	c #F987A7",
"x 	c #EDB0D4",
"y 	c #EDAEC8",
"z 	c #FF648B",
"A 	c #FF638C",
"B 	c #FF628B",
"C 	c #FF6289",
"D 	c #FF618A",
"E 	c #FF6189",
"F 	c #EEA9C1",
"G 	c #FF638A",
"H 	c #FF6088",
"I 	c #FF5F87",
"J 	c #FF5E87",
"K 	c #FF5D86",
"L 	c #FF5C86",
"M 	c #EEA8BF",
"N 	c #FF5B85",
"O 	c #FF5A84",
"P 	c #FF5984",
"Q 	c #FF5983",
"R 	c #FF5882",
"S 	c #EEA7BF",
"T 	c #FF5781",
"U 	c #FF5680",
"V 	c #FF557F",
"W 	c #FF547F",
"X 	c #FF537F",
"Y 	c #FF537E",
"Z 	c #EDA8C1",
"` 	c #FF5B84",
" .	c #FF5982",
"..	c #FF5581",
"+.	c #FF527D",
"@.	c #FF517C",
"#.	c #FF517D",
"$.	c #FF527E",
"%.	c #FF5380",
"&.	c #FF5C85",
"*.	c #FF5280",
"=.	c #FF5481",
"-.	c #FF5683",
";.	c #FF5784",
">.	c #FF5885",
",.	c #FF5985",
"'.	c #FF5987",
").	c #FF5986",
"!.	c #FF5D87",
"~.	c #FF5988",
"{.	c #FF5B89",
"].	c #FF5D8B",
"^.	c #FF5E8C",
"/.	c #FF5F8D",
"(.	c #FF5F8E",
"_.	c #FF608E",
":.	c #F986A6",
"<.	c #FF5A83",
"[.	c #FF5B88",
"}.	c #FF6191",
"|.	c #FF6393",
"1.	c #FF6495",
"2.	c #FF6596",
"3.	c #FF6697",
"4.	c #F09DB6",
"5.	c #FF5682",
"6.	c #FF5A89",
"7.	c #FF6190",
"8.	c #FF6999",
"9.	c #FF6A9B",
"0.	c #FF6B9D",
"a.	c #FF6D9F",
"b.	c #FF6E9F",
"c.	c #FF6EA0",
"d.	c #EDB0D2",
"e.	c #FF608F",
"f.	c #FF6394",
"g.	c #FF6798",
"h.	c #FF70A2",
"i.	c #FF72A5",
"j.	c #FF74A8",
"k.	c #FF75A9",
"l.	c #FF76AA",
"m.	c #FF76AC",
"n.	c #FF5A87",
"o.	c #FF699C",
"p.	c #FF71A5",
"q.	c #FF78AD",
"r.	c #FF7AB2",
"s.	c #FF7DB3",
"t.	c #FF7FB7",
"u.	c #FF80B8",
"v.	c #FF6898",
"w.	c #FF6C9E",
"x.	c #FF71A4",
"y.	c #FF79AF",
"z.	c #FF7EB4",
"A.	c #FF81BA",
"B.	c #FF85BE",
"C.	c #FF88C3",
"D.	c #FF89C7",
"E.	c #FF8AC8",
"F.	c #FF8BC9",
"G.	c #FA83A4",
"H.	c #FF72A6",
"I.	c #FF7DB5",
"J.	c #FF82BD",
"K.	c #FF8CCA",
"L.	c #FF90D1",
"M.	c #FF93D6",
"N.	c #FF96DC",
"O.	c #FF98DE",
"P.	c #EDB0D0",
"Q.	c #FF86C1",
"R.	c #FF92D4",
"S.	c #FF9DE9",
"T.	c #FFA2F1",
"U.	c #FFA4F9",
"V.	c #FEA6FF",
"W.	c #FCA7FF",
"X.	c #F491AD",
"Y.	c #FF7AB0",
"Z.	c #FF89C6",
"`.	c #FF9FEC",
" +	c #FFA6FD",
".+	c #F5ACFF",
"++	c #F6B2FF",
"@+	c #F6B5FF",
"#+	c #F7B8FF",
"$+	c #F7B9FF",
"%+	c #F1A1E4",
"&+	c #FF92D3",
"*+	c #FF9AE5",
"=+	c #FFA3F7",
"-+	c #F5ADFF",
";+	c #F7BDFF",
">+	c #F8C4FF",
",+	c #E3E3E3",
"'+	c #EDADC6",
")+	c #FF9CE5",
"!+	c #F7BCFF",
"~+	c #F8C0FF",
"{+	c #EEACDB",
"]+	c #EFA0B9",
"^+	c #F392AD",
"/+	c #F886A7",
"(+	c #FC7C9E",
"_+	c #FF7598",
":+	c #FC7B9F",
"<+	c #F491AE",
"[+	c #F983A4",
"}+	c #F789A9",
"|+	c #EF9CB6",
"1+	c #F985A5",
"2+	c #F19EE5",
"3+	c #EDADC8",
"4+	c #EEA6BE",
"                                                . + @ # $ % & * * & = $ - @ + .                                                 ",
"                                          ; > , ' ) ! ! ~ { { ] ] ] { { ~ ! ! ) ^ > ;                                           ",
"                                      / ( ) _ ~ { : < [ } } } | | | } } } [ < : { ~ _ 1 /                                       ",
"                                  @ 2 ) ! ] < } } | 3 4 5 5 6 6 7 6 6 5 5 4 3 | } } < ] ! 8 @                                   ",
"                              9 0 ) ~ ] < } a 4 6 7 b c d e e f g f e e d c b 7 6 4 a } < ] ~ h 9                               ",
"                          i j ) ! ] [ | 3 5 k c e g l m n n o o o o o n n m l g e c k 5 3 | [ ] ! j i                           ",
"                        p q _ { < | 3 6 b e g l n r s t u v v v v v v v u t s r n l g e b 6 3 | < { w x                         ",
"                      y ' ! : } 3 5 b e g n r s u z A B C D E E E E E D C B A z u s r n g e b 5 3 } : ! y                       ",
"                    F ) ~ < | 4 k d g n r u v G C E H I J K K K L K K K J I H E C G v u r n g d k 4 | < ~ F                     ",
"                  M ) { < | 5 b f m r u z B E H J K N O P Q Q R R R Q Q P O N K J H E B z u r m f b 5 | < { S                   ",
"                F ) { [ a 6 c g n s v G E I K N P Q T U V W X Y Y Y X W V U T Q P N K I E G v s n g c 6 a [ { Z                 ",
"              y ) { [ 3 7 d l o u z D H K `  .T ..X +.@.#.$.X %.%.%.X $.#.@.+.X ..T  .` K H D z u o l d 7 3 [ { y               ",
"            p ' ~ < a 7 d l r u G E J &.P T V $.@.*.=.-.;.>.,.'.).'.,.>.;.-.=.*.@.$.V T P &.J E G u r l d 7 a < ~ x             ",
"          i q ! < | 6 d l r v B H !.O R ..$.#.%.-.>.~.{.].^./.(._.(./.^.].{.~.>.-.%.#.$...R O !.H B v r l d 6 | < :.i           ",
"          j _ : | 5 c l r v B H K <.T W @.X -.,.[.]._.}.|.1.2.3.3.3.2.1.|.}._.].[.,.-.X @.W T <.K H B v r l c 5 | : 4.          ",
"        9 ) { } 4 b g o u B H K P 5.Y #...>.6.^.7.|.3.8.9.0.a.b.c.b.a.0.9.8.3.|.7.^.6.>...#.Y 5.P K H B u o g b 4 } { d.        ",
"        0 ! < 3 k f n u G H K P U $.$.-.).].e.f.g.9.a.h.i.j.k.l.m.l.k.j.i.h.a.9.g.f.e.].).-.$.$.U P K H G u n f k 3 < h         ",
"      @ ) ] | 5 d m s z E !.<.5.$.$.-.n.^.}.3.o.c.p.k.q.r.s.t.u.u.u.t.s.r.q.k.p.c.o.3.}.^.n.-.$.$.5.<.!.E z s m d 5 | ] @       ",
"      2 ~ [ 3 b g r v D J O T Y $.-.6./.|.v.w.x.k.y.z.A.B.C.D.E.F.E.D.C.B.A.z.y.k.x.w.v.|./.6.-.$.Y T O J D v r g b 3 [ G.      ",
"    / ) ] | 6 e n u G H &.R W #.-.n./.|.8.b.H.q.I.J.C.K.L.M.N.O.O.O.N.M.L.K.C.J.I.q.H.b.8.|./.n.-.#.W R &.H G u n e 6 | ] P.    ",
"    ( ! < 3 b g r z E K P ..@...).^.|.8.c.j.y.u.Q.K.R.O.S.T.U.V.W.V.U.T.S.O.R.K.Q.u.y.j.c.8.|.^.)...@...P K E z r g b 3 < X.    ",
"  ; ) ] } 5 e n u B I ` T $.X >.].}.v.b.j.Y.A.Z.L.O.`. +.+++@+#+$+#+@+++.+ +`.O.L.Z.A.Y.j.b.v.}.].>.X $.T ` I B u n e 5 } ] %+  ",
"  > _ < a k g r v E K  .V #.-.6.e.3.w.H.y.A.D.&+*+=+-+@+;+>+,+,+,+,+,+>+;+@+-+=+*+&+D.A.y.H.w.3.e.6.-.#.V  .K E v r g k a < '+  ",
"  , ~ } 4 c l s G H N T $.%.,.^.f.o.x.q.u.Z.&+)+V.++!+,+,+,+,+,+,+,+,+,+,+,+!+++V.)+&+Z.u.q.x.o.f.^.,.%.$.T N H G s l c 4 } X.  ",
". ' { } 6 e n u C J P ..@.-.[.7.g.c.k.I.Q.L.*+V.++~+,+,+,+,+,+,+,+,+,+,+,+,+,+~+++V.*+L.Q.I.k.c.g.7.[.-.@...P J C u n e 6 } {   ",
"+ ) : | 7 g r z E K Q X *.>.].|.9.p.y.J.K.O.=+++~+,+,+,+,+,+,+,+,+,+,+,+,+,+,+,+~+++=+O.K.J.y.p.9.|.].>.*.X Q K E z r g 7 | : {+",
"@ ! < 3 b l s A H N T +.=.~._.3.a.k.z.C.R.`.-+!+,+,+,+,+,+,+,+,+,+,+,+,+,+,+,+,+,+!+-+`.R.C.z.k.a.3._.~.=.+.T N H A s l b 3 < @ ",
"# ! [ 4 c m t B I O U @.-.{.}.8.h.q.A.K.O. +@+,+,+,+,+,+,+,+,+,+,+,+,+,+,+,+,+,+,+,+@+ +O.K.A.q.h.8.}.{.-.@.U O I B t m c 4 [ ]+",
"$ ~ } 5 d n u C J P V #.;.].|.9.i.r.B.L.S..+;+,+,+,+,+,+,+,+,+,+,+,+,+,+,+,+,+,+,+,+;+.+S.L.B.r.i.9.|.].;.#.V P J C u n d 5 } ^+",
"% { } 5 e n v D K Q W $.>.^.1.0.j.s.C.M.T.++>+,+,+,+,+,+,+,+,+,+,+,+,+,+,+,+,+,+,+,+>+++T.M.C.s.j.0.1.^.>.$.W Q K D v n e 5 } /+",
"& { } 6 e o v E K Q X X ,./.2.a.k.t.D.N.U.@+,+,+,+,+,+,+,+,+,+,+,+,+,+,+,+,+,+,+,+,+,+@+U.N.D.t.k.a.2./.,.X X Q K E v o e 6 } (+",
"* ] | 6 f o v E K R Y %.'.(.3.b.l.u.E.O.V.#+,+,+,+,+,+,+,+,+,+,+,+,+,+,+,+,+,+,+,+,+,+#+V.O.E.u.l.b.3.(.'.%.Y R K E v o f 6 | _+",
"* ] | 7 g o v E L R Y %.)._.3.c.m.u.F.O.W.$+,+,+,+,+,+,+,+,+,+,+,+,+,+,+,+,+,+,+,+,+,+$+W.O.F.u.m.c.3._.).%.Y R L E v o g 7 | _+",
"& ] | 6 f o v E K R Y %.'.(.3.b.l.u.E.O.V.#+,+,+,+,+,+,+,+,+,+,+,+,+,+,+,+,+,+,+,+,+,+#+V.O.E.u.l.b.3.(.'.%.Y R K E v o f 6 | :+",
"= { } 6 e o v E K Q X X ,./.2.a.k.t.D.N.U.@+,+,+,+,+,+,+,+,+,+,+,+,+,+,+,+,+,+,+,+,+,+@+U.N.D.t.k.a.2./.,.X X Q K E v o e 6 } /+",
"$ { } 5 e n v D K Q W $.>.^.1.0.j.s.C.M.T.++>+,+,+,+,+,+,+,+,+,+,+,+,+,+,+,+,+,+,+,+>+++T.M.C.s.j.0.1.^.>.$.W Q K D v n e 5 } ^+",
"- ~ } 5 d n u C J P V #.;.].|.9.i.r.B.L.S..+;+,+,+,+,+,+,+,+,+,+,+,+,+,+,+,+,+,+,+,+;+.+S.L.B.r.i.9.|.].;.#.V P J C u n d 5 } ]+",
"@ ! [ 4 c m t B I O U @.-.{.}.8.h.q.A.K.O. +@+,+,+,+,+,+,+,+,+,+,+,+,+,+,+,+,+,+,+,+@+ +O.K.A.q.h.8.}.{.-.@.U O I B t m c 4 [ @ ",
"+ ! < 3 b l s A H N T +.=.~._.3.a.k.z.C.R.`.-+!+,+,+,+,+,+,+,+,+,+,+,+,+,+,+,+,+,+!+-+`.R.C.z.k.a.3._.~.=.+.T N H A s l b 3 < {+",
"  ) : | 7 g r z E K Q X *.>.].|.9.p.y.J.K.O.=+++~+,+,+,+,+,+,+,+,+,+,+,+,+,+,+,+~+++=+O.K.J.y.p.9.|.].>.*.X Q K E z r g 7 | : . ",
"  ^ { } 6 e n u C J P ..@.-.[.7.g.c.k.I.Q.L.*+V.++~+,+,+,+,+,+,+,+,+,+,+,+,+,+~+++V.*+L.Q.I.k.c.g.7.[.-.@...P J C u n e 6 } <+  ",
"  > ~ } 4 c l s G H N T $.%.,.^.f.o.x.q.u.Z.&+)+V.++!+,+,+,+,+,+,+,+,+,+,+,+!+++V.)+&+Z.u.q.x.o.f.^.,.%.$.T N H G s l c 4 } '+  ",
"  ; _ < a k g r v E K  .V #.-.6.e.3.w.H.y.A.D.&+*+=+-+@+;+>+,+,+,+,+,+>+;+@+-+=+*+&+D.A.y.H.w.3.e.6.-.#.V  .K E v r g k a < %+  ",
"    1 ] } 5 e n u B I ` T $.X >.].}.v.b.j.Y.A.Z.L.O.`. +.+++@+#+$+#+@+++.+ +`.O.L.Z.A.Y.j.b.v.}.].>.X $.T ` I B u n e 5 } X.    ",
"    / ! < 3 b g r z E K P ..@...).^.|.8.c.j.y.u.Q.K.R.O.S.T.U.V.W.V.U.T.S.O.R.K.Q.u.y.j.c.8.|.^.)...@...P K E z r g b 3 < P.    ",
"      8 ] | 6 e n u G H &.R W #.-.n./.|.8.b.H.q.I.J.C.K.L.M.N.O.O.O.N.M.L.K.C.J.I.q.H.b.8.|./.n.-.#.W R &.H G u n e 6 | [+      ",
"      @ ~ [ 3 b g r v D J O T Y $.-.6./.|.v.w.x.k.y.z.A.B.C.D.E.F.E.D.C.B.A.z.y.k.x.w.v.|./.6.-.$.Y T O J D v r g b 3 [ @       ",
"        h ] | 5 d m s z E !.<.5.$.$.-.n.^.}.3.o.c.p.k.q.r.s.t.u.u.u.t.s.r.q.k.p.c.o.3.}.^.n.-.$.$.5.<.!.E z s m d 5 | }+        ",
"        9 ! < 3 k f n u G H K P U $.$.-.).].e.f.g.9.a.h.i.j.k.l.m.l.k.j.i.h.a.9.g.f.e.].).-.$.$.U P K H G u n f k 3 < d.        ",
"          j { } 4 b g o u B H K P 5.Y #...>.6.^.7.|.3.8.9.0.a.b.c.b.a.0.9.8.3.|.7.^.6.>...#.Y 5.P K H B u o g b 4 } |+          ",
"          i w : | 5 c l r v B H K <.T W @.X -.,.[.]._.}.|.1.2.3.3.3.2.1.|.}._.].[.,.-.X @.W T <.K H B v r l c 5 | 1+2+          ",
"            x ! < | 6 d l r v B H !.O R ..$.#.%.-.>.~.{.].^./.(._.(./.^.].{.~.>.-.%.#.$...R O !.H B v r l d 6 | < x             ",
"              y ~ < a 7 d l r u G E J &.P T V $.@.*.=.-.;.>.,.'.).'.,.>.;.-.=.*.@.$.V T P &.J E G u r l d 7 a < 3+              ",
"                F { [ 3 7 d l o u z D H K `  .T ..X +.@.#.$.X %.%.%.X $.#.@.+.X ..T  .` K H D z u o l d 7 3 [ Z                 ",
"                  S { [ a 6 c g n s v G E I K N P Q T U V W X Y Y Y X W V U T Q P N K I E G v s n g c 6 a [ 4+                  ",
"                    Z { < | 5 b f m r u z B E H J K N O P Q Q R R R Q Q P O N K J H E B z u r m f b 5 | < Z                     ",
"                      y ~ < | 4 k d g n r u v G C E H I J K K K L K K K J I H E C G v u r n g d k 4 | < 3+                      ",
"                        x :.: } 3 5 b e g n r s u z A B C D E E E E E D C B A z u s r n g e b 5 3 } 1+x                         ",
"                          i 4.{ < | 3 6 b e g l n r s t u v v v v v v v u t s r n l g e b 6 3 | < |+2+                          ",
"                              d.h ] [ | 3 5 k c e g l m n n o o o o o n n m l g e c k 5 3 | [ }+d.                              ",
"                                  @ G.] < } a 4 6 7 b c d e e f g f e e d c b 7 6 4 a } < [+@                                   ",
"                                      P.X.] < } } | 3 4 5 5 6 6 7 6 6 5 5 4 3 | } } < X.P.                                      ",
"                                          %+'+X.{ : < [ } } } | | | } } } [ < : <+'+%+                                          ",
"                                                . {+@ ]+^+/+(+_+_+:+/+^+]+@ {+.                                                 "};
