/* XPM */
static char * red4_xpm[] = {
"64 64 216 2",
"  	c #FF00FF",
". 	c #F87FF1",
"+ 	c #F0AFDC",
"@ 	c #EDB2CB",
"# 	c #F0A5BC",
"$ 	c #F499B6",
"% 	c #F98DB1",
"& 	c #FC82AC",
"* 	c #FF7CA9",
"= 	c #FF7BA9",
"- 	c #F98CB1",
"; 	c #F0A3BC",
"> 	c #F77FF1",
", 	c #F2A2E4",
"' 	c #EEB1C8",
") 	c #F597B5",
"! 	c #FF7AA9",
"~ 	c #FF79A8",
"{ 	c #FF79A7",
"] 	c #FF78A6",
"^ 	c #F596B5",
"/ 	c #EDB0C8",
"( 	c #EEB3D0",
"_ 	c #F498B6",
": 	c #FF7AA7",
"< 	c #FF77A5",
"[ 	c #FF76A6",
"} 	c #FF76A4",
"| 	c #FF75A5",
"1 	c #FA71F5",
"2 	c #FA8AB0",
"3 	c #FF77A6",
"4 	c #FF74A4",
"5 	c #FF73A3",
"6 	c #FF72A3",
"7 	c #FA89B0",
"8 	c #F979F3",
"9 	c #EEB3D3",
"0 	c #F790B3",
"a 	c #FF73A4",
"b 	c #FF72A2",
"c 	c #FF71A2",
"d 	c #FF71A1",
"e 	c #FF70A1",
"f 	c #F78FB2",
"g 	c #F2A0E6",
"h 	c #F1A1B9",
"i 	c #FF6FA1",
"j 	c #FF6FA0",
"k 	c #FF6EA0",
"l 	c #FF6D9F",
"m 	c #FF6C9E",
"n 	c #F0A0B9",
"o 	c #EEB3D4",
"p 	c #F98CB2",
"q 	c #FF6B9D",
"r 	c #FF6A9E",
"s 	c #FF699D",
"t 	c #FF699C",
"u 	c #F98BB1",
"v 	c #EEB1C9",
"w 	c #FF689B",
"x 	c #FF679C",
"y 	c #FF669B",
"z 	c #FF659A",
"A 	c #EDB1C9",
"B 	c #EEACC3",
"C 	c #FF6B9F",
"D 	c #FF6A9D",
"E 	c #FF6499",
"F 	c #FF6398",
"G 	c #FF6299",
"H 	c #FF6198",
"I 	c #FF6196",
"J 	c #FF6197",
"K 	c #EEABC3",
"L 	c #EFAAC1",
"M 	c #FF6096",
"N 	c #FF5F96",
"O 	c #FF5E96",
"P 	c #FF5D95",
"Q 	c #FF5C95",
"R 	c #EEA9C1",
"S 	c #FF639A",
"T 	c #FF5F95",
"U 	c #FF5B94",
"V 	c #FF5A93",
"W 	c #FF5992",
"X 	c #FF5891",
"Y 	c #FF689D",
"Z 	c #FF5C94",
"` 	c #FF5A92",
" .	c #FF5791",
"..	c #FF568F",
"+.	c #FF548E",
"@.	c #FF538F",
"#.	c #FF538E",
"$.	c #FF528E",
"%.	c #FF558F",
"&.	c #FF518D",
"*.	c #FF518E",
"=.	c #FF5390",
"-.	c #FF5490",
";.	c #FF5491",
">.	c #FF5592",
",.	c #FF5694",
"'.	c #FF5896",
").	c #FF5998",
"!.	c #FF5999",
"~.	c #FF5A99",
"{.	c #FF5A9A",
"].	c #FF679A",
"^.	c #FF5690",
"/.	c #FF5997",
"(.	c #FF5C9C",
"_.	c #FF5E9F",
":.	c #FF5FA0",
"<.	c #FF60A2",
"[.	c #FF61A2",
"}.	c #FF61A3",
"|.	c #F09FB9",
"1.	c #FF5B93",
"2.	c #FF5693",
"3.	c #FF5B9B",
"4.	c #FF62A5",
"5.	c #FF64A8",
"6.	c #FF66AA",
"7.	c #FF67AD",
"8.	c #FF68AE",
"9.	c #FF61A4",
"0.	c #FF68AC",
"a.	c #FF69B1",
"b.	c #FF6CB4",
"c.	c #FF6EB6",
"d.	c #FF6FB8",
"e.	c #FF70B9",
"f.	c #FF71BA",
"g.	c #FF5D9D",
"h.	c #FF6BB3",
"i.	c #FF71BD",
"j.	c #FF74C2",
"k.	c #FF77C5",
"l.	c #FF79C7",
"m.	c #FF79C8",
"n.	c #FF79CA",
"o.	c #FF5593",
"p.	c #FF67AB",
"q.	c #FF6BB2",
"r.	c #FF73BF",
"s.	c #FF78C4",
"t.	c #FF7BCA",
"u.	c #FF7ED1",
"v.	c #FF81D6",
"w.	c #FF82D8",
"x.	c #FF84DB",
"y.	c #FF84DC",
"z.	c #FA88AF",
"A.	c #FF63A6",
"B.	c #FF6DB5",
"C.	c #FF7CCD",
"D.	c #FF85DD",
"E.	c #FF89E4",
"F.	c #FF8CEB",
"G.	c #FF8FF0",
"H.	c #FF90F3",
"I.	c #FF91F4",
"J.	c #FF69AD",
"K.	c #FF80D3",
"L.	c #FF8BE8",
"M.	c #FF95FE",
"N.	c #F59AFF",
"O.	c #F39CFF",
"P.	c #F49EFF",
"Q.	c #F49FFF",
"R.	c #F497B6",
"S.	c #FF74C0",
"T.	c #FF81D7",
"U.	c #FB97FF",
"V.	c #F4A3FF",
"W.	c #F5A9FF",
"X.	c #F5ACFF",
"Y.	c #F6AFFF",
"Z.	c #F6B0FF",
"`.	c #FF8AE9",
" +	c #FF93F9",
".+	c #F4A4FF",
"++	c #F6B4FF",
"@+	c #F7BAFF",
"#+	c #F8C0FF",
"$+	c #F8C3FF",
"%+	c #F8C4FF",
"&+	c #FF94FC",
"*+	c #F6B3FF",
"=+	c #F7BEFF",
"-+	c #E3E3E3",
";+	c #F595B5",
">+	c #F5AAFF",
",+	c #F7B7FF",
"'+	c #EFAEDC",
")+	c #EDB1CB",
"!+	c #EFA2BB",
"~+	c #F98AB0",
"{+	c #FC7FAB",
"]+	c #F497B7",
"^+	c #EDAFC8",
"/+	c #F496B6",
"(+	c #EDB3D0",
"_+	c #FA87AE",
":+	c #F78DB2",
"<+	c #EDB2D3",
"[+	c #F09EB9",
"}+	c #F989B1",
"|+	c #EEB2D4",
"1+	c #EDB0C9",
"2+	c #EEAAC3",
"3+	c #EEA8C1",
"                                                . + @ # $ % & * = & - $ ; @ + >                                                 ",
"                                          , ' ) ! ~ ~ { { { ] ] ] ] ] { { { ~ ~ ^ / ,                                           ",
"                                      ( _ : ~ { ] ] < < [ } } | | | } } [ < < ] ] { ~ _ ( 1                                     ",
"                                  @ 2 ~ { ] 3 [ } | 4 4 5 5 6 6 6 6 6 5 5 4 4 | } [ 3 ] { 7 @ 8                                 ",
"                              9 0 ~ { ] < } 4 a 5 b c d d e e e e e e e d d c b 5 a 4 } < ] { f 9                               ",
"                          g h : { ] < | 4 5 c d e i j k l l m m m m m l l k j i e d c 5 4 | < ] { n g                           ",
"                        o p ~ ] < | 4 6 c d i k l m q r s s t t t t t s s r q m l k i d c 6 4 | < ] u o                         ",
"                      v ! { ] [ 4 5 c e j l m r s t w x y y z z z z z y y x w t s r m l j e c 5 4 [ ] { A                       ",
"                    B : { < | a b d j l C D t w y z E F G H H I J I H H G F E z y w t D C l j d b a | < { K                     ",
"                  L : { < | 5 c e k m D t x z E G H M N O P P P Q P P P O N M H G E z x t D m k e c 5 | < { R                   ",
"                B : { < 4 6 d j l q t x z S H M T P U V W W W X X X W W W V U P T M H S z x t q l j d 6 4 < { K                 ",
"              v : { < 4 6 d j m D Y y E H M O Z ` W  ...+.@.#.$.$.$.#.@.+... .W ` Z O M H E y Y D m j d 6 4 < { A               ",
"            o ! { < 4 6 d k m s w z G J O Z W X %.@.&.*.$.=.-.;.;.;.-.=.$.*.&.@.%.X W Z O J G z w s m k d 6 4 < { o             ",
"          g p { < | 6 d k m s x E H N P ` X %.$.*.@.>.,.'.).!.~.{.~.!.).'.,.>.@.*.$.%.X ` P N H E x s m k d 6 | < u g           ",
"          h ~ ] | 5 d j m s ].E H T U W ^.#.&.=.,./.{.(._.:.<.[.}.[.<.:._.(.{./.,.=.&.#.^.W U T H E ].s m j d 5 | ] |.          ",
"        9 : ] [ a c j m s x E H O 1.X %.&.@.2.).3._.[.4.5.6.7.8.8.8.7.6.5.4.[._.3.).2.@.&.%.X 1.O H E x s m j c a [ ] 9         ",
"        0 { < 4 b e l D w E H O V X +.*.;.'.3._.9.5.0.a.b.c.d.e.f.e.d.c.b.a.0.5.9._.3.'.;.*.+.X V O H E w D l e b 4 < f         ",
"      @ ~ ] | 5 d k q Y z H T 1.X @.&.>.).g.[.5.8.h.d.i.j.k.l.m.n.m.l.k.j.i.d.h.8.5.[.g.).>.&.@.X 1.T H z Y q k d 5 | ] @       ",
"      2 { < 4 c j m t y G N U X +.&.o.!._.4.p.q.d.r.s.t.u.v.w.x.y.x.w.v.u.t.s.r.d.q.p.4._.!.o.&.+.X U N G y t m j c 4 < z.      ",
"    ( ~ ] | 6 e l D x E J P W %.*.>.!._.A.8.B.i.k.C.v.D.E.F.G.H.I.H.G.F.E.D.v.C.k.i.B.8.A._.!.>.*.%.W P J E x D l e 6 | ] (     ",
"    _ { < 4 c j C t z H O ` ^.&.;.)._.A.J.c.r.n.K.D.L.I.M.N.O.P.Q.P.O.N.M.I.L.D.K.n.r.c.J.A._.).;.&.^.` O H z t C j c 4 < R.    ",
"  , : ] } 5 d l D x S M Z X #.@.'.g.4.8.c.S.t.T.E.H.U.P.V.W.X.Y.Z.Y.X.W.V.P.U.H.E.T.t.S.c.8.4.g.'.@.#.X Z M S x D l d 5 } ] ,   ",
"  ' ~ 3 4 c i m t z H O W %.&.2.3.[.p.B.r.t.w.`. +O..+X.++@+#+$+%+$+#+@+++X..+O. +`.w.t.r.B.p.[.3.2.&.%.W O H z t m i c 4 3 /   ",
"  ) { [ a d k r w E M Z X $.=.)._.5.q.i.n.T.`.&+P.W.*+=+-+-+-+-+-+-+-+-+-+=+*+W.P.&+`.T.n.i.q.5._.).=.$.X Z M E w r k d a [ ;+  ",
". ! ] } 5 e l s y G T ` %.*.,.3.9.8.d.k.K.E. +P.>+,+%+-+-+-+-+-+-+-+-+-+-+-+%+,+>+P. +E.K.k.d.8.9.3.,.*.%.` T G y s l e 5 } ] > ",
"+ ~ ] | b i m t z H P W @.@./._.5.h.r.C.D.H.O.W.,+-+-+-+-+-+-+-+-+-+-+-+-+-+-+-+,+W.O.H.D.C.r.h.5._./.@.@.W P H z t m i b | ] '+",
"@ ~ < 4 c j q w E M U  .&.>.{.[.0.d.s.v.L.U..+*+%+-+-+-+-+-+-+-+-+-+-+-+-+-+-+-+%+*+.+U.L.v.s.d.0.[.{.>.&. .U M E w q j c 4 < )+",
"# { < 4 d k r x F N V ..*.,.(.4.a.i.t.D.I.P.X.=+-+-+-+-+-+-+-+-+-+-+-+-+-+-+-+-+-+=+X.P.I.D.t.i.a.4.(.,.*...V N F x r k d 4 < !+",
"$ { [ 5 d l s y G O W +.$.'._.5.b.j.u.E.M.V.++-+-+-+-+-+-+-+-+-+-+-+-+-+-+-+-+-+-+-+++V.M.E.u.j.b.5._.'.$.+.W O G y s l d 5 [ _ ",
"% { } 5 e l s y H P W @.=.).:.6.c.k.v.F.N.W.@+-+-+-+-+-+-+-+-+-+-+-+-+-+-+-+-+-+-+-+@+W.N.F.v.k.c.6.:.).=.@.W P H y s l e 5 } ~+",
"& ] } 6 e m t z H P W #.-.!.<.7.d.l.w.G.O.X.#+-+-+-+-+-+-+-+-+-+-+-+-+-+-+-+-+-+-+-+#+X.O.G.w.l.d.7.<.!.-.#.W P H z t m e 6 } {+",
"* ] | 6 e m t z I P X $.;.~.[.8.e.m.x.H.P.Y.$+-+-+-+-+-+-+-+-+-+-+-+-+-+-+-+-+-+-+-+$+Y.P.H.x.m.e.8.[.~.;.$.X P I z t m e 6 | { ",
"= ] | 6 e m t z J Q X $.;.{.}.8.f.n.y.I.Q.Z.%+-+-+-+-+-+-+-+-+-+-+-+-+-+-+-+-+-+-+-+%+Z.Q.I.y.n.f.8.}.{.;.$.X Q J z t m e 6 | { ",
"& ] | 6 e m t z I P X $.;.~.[.8.e.m.x.H.P.Y.$+-+-+-+-+-+-+-+-+-+-+-+-+-+-+-+-+-+-+-+$+Y.P.H.x.m.e.8.[.~.;.$.X P I z t m e 6 | {+",
"- ] } 6 e m t z H P W #.-.!.<.7.d.l.w.G.O.X.#+-+-+-+-+-+-+-+-+-+-+-+-+-+-+-+-+-+-+-+#+X.O.G.w.l.d.7.<.!.-.#.W P H z t m e 6 } ~+",
"$ { } 5 e l s y H P W @.=.).:.6.c.k.v.F.N.W.@+-+-+-+-+-+-+-+-+-+-+-+-+-+-+-+-+-+-+-+@+W.N.F.v.k.c.6.:.).=.@.W P H y s l e 5 } ]+",
"; { [ 5 d l s y G O W +.$.'._.5.b.j.u.E.M.V.++-+-+-+-+-+-+-+-+-+-+-+-+-+-+-+-+-+-+-+++V.M.E.u.j.b.5._.'.$.+.W O G y s l d 5 [ !+",
"@ { < 4 d k r x F N V ..*.,.(.4.a.i.t.D.I.P.X.=+-+-+-+-+-+-+-+-+-+-+-+-+-+-+-+-+-+=+X.P.I.D.t.i.a.4.(.,.*...V N F x r k d 4 < )+",
"+ ~ < 4 c j q w E M U  .&.>.{.[.0.d.s.v.L.U..+*+%+-+-+-+-+-+-+-+-+-+-+-+-+-+-+-+%+*+.+U.L.v.s.d.0.[.{.>.&. .U M E w q j c 4 < '+",
"  ~ ] | b i m t z H P W @.@./._.5.h.r.C.D.H.O.W.,+-+-+-+-+-+-+-+-+-+-+-+-+-+-+-+,+W.O.H.D.C.r.h.5._./.@.@.W P H z t m i b | ] > ",
"  ^ ] } 5 e l s y G T ` %.*.,.3.9.8.d.k.K.E. +P.>+,+%+-+-+-+-+-+-+-+-+-+-+-+%+,+>+P. +E.K.k.d.8.9.3.,.*.%.` T G y s l e 5 } ;+  ",
"  / { [ a d k r w E M Z X $.=.)._.5.q.i.n.T.`.&+P.W.*+=+-+-+-+-+-+-+-+-+-+=+*+W.P.&+`.T.n.i.q.5._.).=.$.X Z M E w r k d a [ ^+  ",
"  , ~ 3 4 c i m t z H O W %.&.2.3.[.p.B.r.t.w.`. +O..+X.++@+#+$+%+$+#+@+++X..+O. +`.w.t.r.B.p.[.3.2.&.%.W O H z t m i c 4 3 ,   ",
"    _ ] } 5 d l D x S M Z X #.@.'.g.4.8.c.S.t.T.E.H.U.P.V.W.X.Y.Z.Y.X.W.V.P.U.H.E.T.t.S.c.8.4.g.'.@.#.X Z M S x D l d 5 } /+    ",
"    ( { < 4 c j C t z H O ` ^.&.;.)._.A.J.c.r.n.K.D.L.I.M.N.O.P.Q.P.O.N.M.I.L.D.K.n.r.c.J.A._.).;.&.^.` O H z t C j c 4 < (+    ",
"      7 ] | 6 e l D x E J P W %.*.>.!._.A.8.B.i.k.C.v.D.E.F.G.H.I.H.G.F.E.D.v.C.k.i.B.8.A._.!.>.*.%.W P J E x D l e 6 | _+      ",
"      @ { < 4 c j m t y G N U X +.&.o.!._.4.p.q.d.r.s.t.u.v.w.x.y.x.w.v.u.t.s.r.d.q.p.4._.!.o.&.+.X U N G y t m j c 4 < )+      ",
"        f ] | 5 d k q Y z H T 1.X @.&.>.).g.[.5.8.h.d.i.j.k.l.m.n.m.l.k.j.i.d.h.8.5.[.g.).>.&.@.X 1.T H z Y q k d 5 | :+        ",
"        9 { < 4 b e l D w E H O V X +.*.;.'.3._.9.5.0.a.b.c.d.e.f.e.d.c.b.a.0.5.9._.3.'.;.*.+.X V O H E w D l e b 4 < <+        ",
"          n ] [ a c j m s x E H O 1.X %.&.@.2.).3._.[.4.5.6.7.8.8.8.7.6.5.4.[._.3.).2.@.&.%.X 1.O H E x s m j c a [ [+          ",
"          g u ] | 5 d j m s ].E H T U W ^.#.&.=.,./.{.(._.:.<.[.}.[.<.:._.(.{./.,.=.&.#.^.W U T H E ].s m j d 5 | }+g           ",
"            o { < | 6 d k m s x E H N P ` X %.$.*.@.>.,.'.).!.~.{.~.!.).'.,.>.@.*.$.%.X ` P N H E x s m k d 6 | < |+            ",
"              A { < 4 6 d k m s w z G J O Z W X %.@.&.*.$.=.-.;.;.;.-.=.$.*.&.@.%.X W Z O J G z w s m k d 6 4 < 1+              ",
"                K { < 4 6 d j m D Y y E H M O Z ` W  ...+.@.#.$.$.$.#.@.+... .W ` Z O M H E y Y D m j d 6 4 < 2+                ",
"                  R { < 4 6 d j l q t x z S H M T P U V W W W X X X W W W V U P T M H S z x t q l j d 6 4 < 3+                  ",
"                    K { < | 5 c e k m D t x z E G H M N O P P P Q P P P O N M H G E z x t D m k e c 5 | < 2+                    ",
"                      A { < | a b d j l C D t w y z E F G H H I J I H H G F E z y w t D C l j d b a | < 1+                      ",
"                        o u ] [ 4 5 c e j l m r s t w x y y z z z z z y y x w t s r m l j e c 5 4 [ }+|+                        ",
"                          g |.] < | 4 6 c d i k l m q r s s t t t t t s s r q m l k i d c 6 4 | < [+g                           ",
"                              9 f ] < | 4 5 c d e i j k l l m m m m m l l k j i e d c 5 4 | < :+<+                              ",
"                                  @ z.] < } 4 a 5 b c d d e e e e e e e d d c b 5 a 4 } < _+)+                                  ",
"                                      ( R.] 3 [ } | 4 4 5 5 6 6 6 6 6 5 5 4 4 | } [ 3 /+(+                                      ",
"                                          , / ;+] ] < < [ } } | | | } } [ < < ] ;+^+,                                           ",
"                                                > '+)+!+_ ~+{+{ { {+~+]+!+)+'+>                                                 "};
