/* XPM */
static char * red5_xpm[] = {
"64 64 207 2",
"  	c #FF00FF",
". 	c #F87FF1",
"+ 	c #F0B0DC",
"@ 	c #EEB4CC",
"# 	c #F0A7BD",
"$ 	c #F49CBB",
"% 	c #F990B6",
"& 	c #FD85B3",
"* 	c #FF7EB0",
"= 	c #F0A6BD",
"- 	c #F2A3E4",
"; 	c #EEB2C9",
"> 	c #F59ABA",
", 	c #FF7DB0",
"' 	c #FF7DAF",
") 	c #FF7CAF",
"! 	c #FF7CAE",
"~ 	c #FF7BAE",
"{ 	c #F599B8",
"] 	c #EFB6D1",
"^ 	c #F59BBA",
"/ 	c #FF7AAD",
"( 	c #FF79AE",
"_ 	c #FF79AC",
": 	c #FF79AD",
"< 	c #F59BB9",
"[ 	c #EEB5D1",
"} 	c #FA8DB6",
"| 	c #FF7AAF",
"1 	c #FF78AC",
"2 	c #FF77AD",
"3 	c #FF77AB",
"4 	c #FF76AC",
"5 	c #FA8CB6",
"6 	c #EEB5D3",
"7 	c #F893B8",
"8 	c #FF78AD",
"9 	c #FF75AB",
"0 	c #FF74AB",
"a 	c #FF74AA",
"b 	c #FF73AA",
"c 	c #F892B7",
"d 	c #F3A1E6",
"e 	c #F1A4BA",
"f 	c #FF76AA",
"g 	c #FF73A9",
"h 	c #FF72A9",
"i 	c #FF71A8",
"j 	c #FF71A7",
"k 	c #F1A2BA",
"l 	c #EFB4D5",
"m 	c #F98FB7",
"n 	c #FF71A9",
"o 	c #FF70A8",
"p 	c #FF6FA7",
"q 	c #FF6EA6",
"r 	c #FF6DA7",
"s 	c #FF6DA5",
"t 	c #F98EB6",
"u 	c #EEB4D5",
"v 	c #EEB3CA",
"w 	c #FF6CA4",
"x 	c #FF6BA5",
"y 	c #FF6AA4",
"z 	c #FF69A4",
"A 	c #FF69A3",
"B 	c #EFAFC4",
"C 	c #FF68A2",
"D 	c #FF67A1",
"E 	c #FF66A2",
"F 	c #FF66A0",
"G 	c #FF65A1",
"H 	c #EFAEC4",
"I 	c #EFADC2",
"J 	c #FF64A0",
"K 	c #FF63A1",
"L 	c #FF62A0",
"M 	c #FF629E",
"N 	c #FF619F",
"O 	c #EFABC2",
"P 	c #FF639F",
"Q 	c #FF619E",
"R 	c #FF5F9D",
"S 	c #FF5E9C",
"T 	c #FF5D9B",
"U 	c #FF5C9C",
"V 	c #FF6CA6",
"W 	c #FF5C9B",
"X 	c #FF5A9A",
"Y 	c #FF5999",
"Z 	c #FF599A",
"` 	c #FF5899",
" .	c #FF67A3",
"..	c #FF5798",
"+.	c #FF5597",
"@.	c #FF5496",
"#.	c #FF5395",
"$.	c #FF5296",
"%.	c #FF5295",
"&.	c #FF5195",
"*.	c #FF599B",
"=.	c #FF5297",
"-.	c #FF5399",
";.	c #FF549A",
">.	c #FF559A",
",.	c #FF559B",
"'.	c #FF5398",
").	c #FF579D",
"!.	c #FF59A0",
"~.	c #FF59A1",
"{.	c #FF5AA4",
"].	c #FF5BA3",
"^.	c #FF5BA4",
"/.	c #F1A1BA",
"(.	c #FF609D",
"_.	c #FF569C",
":.	c #FF5DA6",
"<.	c #FF5FAA",
"[.	c #FF61AC",
"}.	c #FF61AE",
"|.	c #FF62AF",
"1.	c #FF5CA5",
"2.	c #FF64B2",
"3.	c #FF66B6",
"4.	c #FF68B8",
"5.	c #FF69BA",
"6.	c #FF69BB",
"7.	c #FF6ABB",
"8.	c #FF5194",
"9.	c #FF5499",
"0.	c #FF589E",
"a.	c #FF66B4",
"b.	c #FF6CBE",
"c.	c #FF6EC2",
"d.	c #FF71C5",
"e.	c #FF71C9",
"f.	c #FF72CA",
"g.	c #FF73C9",
"h.	c #FF61AD",
"i.	c #FF65B3",
"j.	c #FF6DC1",
"k.	c #FF71C6",
"l.	c #FF74CC",
"m.	c #FF78D2",
"n.	c #FF79D6",
"o.	c #FF7CD9",
"p.	c #FF7DDC",
"q.	c #FA8BB5",
"r.	c #FF5DA8",
"s.	c #FF67B7",
"t.	c #FF75CF",
"u.	c #FF7EDD",
"v.	c #FF81E5",
"w.	c #FF85EB",
"x.	c #FF87F1",
"y.	c #FF89F3",
"z.	c #FF79D5",
"A.	c #FF7FDE",
"B.	c #FF84E9",
"C.	c #FF8EFE",
"D.	c #F692FF",
"E.	c #F394FF",
"F.	c #F396FF",
"G.	c #F397FF",
"H.	c #FF7BD8",
"I.	c #FD8FFF",
"J.	c #F39BFF",
"K.	c #F4A0FF",
"L.	c #F4A4FF",
"M.	c #F5A6FF",
"N.	c #F5A7FF",
"O.	c #FF83E8",
"P.	c #FF8BFA",
"Q.	c #F39CFF",
"R.	c #F5ABFF",
"S.	c #F6B2FF",
"T.	c #F6B6FF",
"U.	c #F7BAFF",
"V.	c #EEB1C8",
"W.	c #FF8CFD",
"X.	c #F5AAFF",
"Y.	c #F6B4FF",
"Z.	c #F7BEFF",
"`.	c #F8C6FF",
" +	c #E3E3E3",
".+	c #F598BA",
"++	c #F4A2FF",
"@+	c #F6AEFF",
"#+	c #F7BCFF",
"$+	c #F0AFDC",
"%+	c #F0A5BD",
"&+	c #F49BBB",
"*+	c #FC83B2",
"=+	c #FF7DAE",
"-+	c #F98DB5",
";+	c #F49AB9",
">+	c #F880F1",
",+	c #F598B8",
"'+	c #F499B9",
")+	c #EEB4D1",
"!+	c #FA8AB5",
"~+	c #F790B7",
"{+	c #EEB4D3",
"]+	c #F98CB6",
"^+	c #EEB2CA",
"/+	c #EEADC4",
"(+	c #EFAAC2",
"                                                . + @ # $ % & * * & % $ = @ + .                                                 ",
"                                          - ; > * , ' ) ) ! ~ ~ ~ ~ ~ ! ) ) ' , { ; -                                           ",
"                                      ] ^ * ' ) ~ ~ / ( ( _ : : : : : _ ( ( / ~ ~ ) ' < [                                       ",
"                                  @ } , ) ~ | ( _ : 1 1 2 3 4 4 4 4 4 3 2 1 1 : _ ( | ~ ) 5 @                                   ",
"                              6 7 , ) ~ / _ 8 1 3 4 9 0 a a b b b b b a a 0 9 4 3 1 8 _ / ~ ) c 6                               ",
"                          d e * ) ~ ( : 1 3 f 9 a g h i i j j j j j j j i i h g a 9 f 3 1 : ( ~ ) k d                           ",
"                        l m ' ~ / : 1 4 9 a g i n o p p q r r s s s r r q p p o n i g a 9 4 1 : / ~ t u                         ",
"                      v * ) ~ ( 1 3 9 a h i o p q s w x y y z A A A z y y x w s q p o i h a 9 3 1 ( ~ ) v                       ",
"                    B , ) / : 1 4 a h i o q s x y A A C D E F G G G F E D C A A y x s q o i h a 4 1 : / ) H                     ",
"                  I , ! / : 3 9 b i o q s x z C D F J K L M N N N N N M L K J F D C z x s q o i b 9 3 : / ! O                   ",
"                B , ~ ( 8 4 0 h n p r x z C E J P N Q R S S T T U T T S S R Q N P J E C z x r p n h 0 4 8 ( ~ H                 ",
"              v , ! ( 1 4 a h j q V y C E J L Q R T W X Y Z ` ` ` ` ` Z Y X W T R Q L J E C y V q j h a 4 1 ( ! v               ",
"            l * ) / 8 4 a h o q x A  .G L Q S U X Z ..+.@.#.$.%.&.%.$.#.@.+...Z X U S Q L G  .A x q o h a 4 8 / ) u             ",
"            m ) / : 4 a h o r x A E J N R U *.` +.#.&.&.=.-.;.>.,.>.;.-.=.&.&.#.+.` *.U R N J E A x r o h a 4 : / t             ",
"          e ' ~ : 3 0 h o r x A F P Q S X ` +.$.&.'.,.).!.~.{.].^.].{.~.!.).,.'.&.$.+.` X S Q P F A x r o h 0 3 : ~ /.          ",
"        6 * ~ ( 1 9 h j q x A F L (.T Y ..#.&.-._.!.].:.<.[.}.|.|.|.}.[.<.:.].!._.-.&.#...Y T (.L F A x q j h 9 1 ( ~ 6         ",
"        7 ) / 1 4 b n q x A F L (.U Z +.&.=._.!.1.<.}.2.3.4.5.6.7.6.5.4.3.2.}.<.1.!._.=.&.+.Z U (.L F A x q n b 4 1 / c         ",
"      @ , ~ : 3 a i p V A E P (.U Z +.8.9.0.].<.|.a.5.b.c.d.e.f.g.f.e.d.c.b.5.a.|.<.].0.9.8.+.Z U (.P E A V p i a 3 : ~ @       ",
"      } ) ( 1 9 h o r y  .J Q T Z +.8.;.!.:.h.i.5.j.k.l.m.n.o.p.p.p.o.n.m.l.k.j.5.i.h.:.!.;.8.+.Z T Q J  .y r o h 9 1 ( q.      ",
"    ] , ~ : 4 a i q x C G N S Y +.8.;.!.r.|.s.b.k.t.n.u.v.w.x.y.y.y.x.w.v.u.n.t.k.b.s.|.r.!.;.8.+.Y S N G C x q i a 4 : ~ [     ",
"    ^ ) / 1 9 h o s z E L R X ..&.9.!.r.|.4.j.g.z.A.B.y.C.D.E.F.G.F.E.D.C.y.B.A.z.g.j.4.|.r.!.9.&...X R L E z s o h 9 1 / >     ",
"    * ~ _ 3 a i q x C J Q U ` #.=.0.:.|.4.c.l.H.v.y.I.F.J.K.L.M.N.M.L.K.J.F.I.y.v.H.l.c.4.|.:.0.=.#.` U Q J C x q i a 3 _ ~ -   ",
"  ; ' | 8 f g o s z E L S *.+.&._.].h.s.j.l.o.O.P.E.Q.L.R.S.T.U.U.U.T.S.R.L.Q.E.P.O.o.l.j.s.h.]._.&.+.*.S L E z s o g f 8 | V.  ",
"  > ) ( 1 9 i p x C J Q U ` $.-.!.<.i.b.g.H.O.W.F.K.X.Y.Z.`. + + + + +`.Z.Y.X.K.F.W.O.H.g.b.i.<.!.-.$.` U Q J C x p i 9 1 ( .+  ",
". * ~ _ 3 a n q y D P R X +.&._.1.|.5.k.z.v.P.F.++@+U. + + + + + + + + + + +U.@+++F.P.v.z.k.5.|.1._.&.+.X R P D y q n a 3 _ ~ . ",
"+ , ~ : 4 g o s A F N T Z #.'.!.<.a.j.t.A.y.E.K.@+#+ + + + + + + + + + + + + +#+@+K.E.y.A.t.j.a.<.!.'.#.Z T N F A s o g 4 : ~ $+",
"@ ' / 1 9 h p w A J Q W ..&.,.].}.5.k.n.B.I.Q.X.U. + + + + + + + + + + + + + + +U.X.Q.I.B.n.k.5.}.].,.&...W Q J A w p h 9 1 / @ ",
"# ) ( 1 0 i p x C K R X +.&.).:.2.b.l.u.y.F.L.Y. + + + + + + + + + + + + + + + + +Y.L.F.y.u.l.b.2.:.).&.+.X R K C x p i 0 1 ( %+",
"$ ) ( 2 a i q y D L S Y @.=.!.<.3.c.m.v.C.J.R.Z. + + + + + + + + + + + + + + + + +Z.R.J.C.v.m.c.3.<.!.=.@.Y S L D y q i a 2 ( &+",
"% ! _ 3 a j r y E M S Z #.-.~.[.4.d.n.w.D.K.S.`. + + + + + + + + + + + + + + + + +`.S.K.D.w.n.d.4.[.~.-.#.Z S M E y r j a 3 _ t ",
"& ~ : 4 b j r z F N T ` $.;.{.}.5.e.o.x.E.L.T. + + + + + + + + + + + + + + + + + + +T.L.E.x.o.e.5.}.{.;.$.` T N F z r j b 4 : *+",
"* ~ : 4 b j s A G N T ` %.>.].|.6.f.p.y.F.M.U. + + + + + + + + + + + + + + + + + + +U.M.F.y.p.f.6.|.].>.%.` T N G A s j b 4 : , ",
"* ~ : 4 b j s A G N U ` &.,.^.|.7.g.p.y.G.N.U. + + + + + + + + + + + + + + + + + + +U.N.G.y.p.g.7.|.^.,.&.` U N G A s j b 4 : =+",
"& ~ : 4 b j s A G N T ` %.>.].|.6.f.p.y.F.M.U. + + + + + + + + + + + + + + + + + + +U.M.F.y.p.f.6.|.].>.%.` T N G A s j b 4 : *+",
"% ~ : 4 b j r z F N T ` $.;.{.}.5.e.o.x.E.L.T. + + + + + + + + + + + + + + + + + + +T.L.E.x.o.e.5.}.{.;.$.` T N F z r j b 4 : -+",
"$ ! _ 3 a j r y E M S Z #.-.~.[.4.d.n.w.D.K.S.`. + + + + + + + + + + + + + + + + +`.S.K.D.w.n.d.4.[.~.-.#.Z S M E y r j a 3 _ ;+",
"= ) ( 2 a i q y D L S Y @.=.!.<.3.c.m.v.C.J.R.Z. + + + + + + + + + + + + + + + + +Z.R.J.C.v.m.c.3.<.!.=.@.Y S L D y q i a 2 ( %+",
"@ ) ( 1 0 i p x C K R X +.&.).:.2.b.l.u.y.F.L.Y. + + + + + + + + + + + + + + + + +Y.L.F.y.u.l.b.2.:.).&.+.X R K C x p i 0 1 ( @ ",
"+ ' / 1 9 h p w A J Q W ..&.,.].}.5.k.n.B.I.Q.X.U. + + + + + + + + + + + + + + +U.X.Q.I.B.n.k.5.}.].,.&...W Q J A w p h 9 1 / $+",
". , ~ : 4 g o s A F N T Z #.'.!.<.a.j.t.A.y.E.K.@+#+ + + + + + + + + + + + + +#+@+K.E.y.A.t.j.a.<.!.'.#.Z T N F A s o g 4 : ~ >+",
"  { ~ _ 3 a n q y D P R X +.&._.1.|.5.k.z.v.P.F.++@+U. + + + + + + + + + + +U.@+++F.P.v.z.k.5.|.1._.&.+.X R P D y q n a 3 _ ,+  ",
"  ; ) ( 1 9 i p x C J Q U ` $.-.!.<.i.b.g.H.O.W.F.K.X.Y.Z.`. + + + + +`.Z.Y.X.K.F.W.O.H.g.b.i.<.!.-.$.` U Q J C x p i 9 1 ( V.  ",
"  - ' | 8 f g o s z E L S *.+.&._.].h.s.j.l.o.O.P.E.Q.L.R.S.T.U.U.U.T.S.R.L.Q.E.P.O.o.l.j.s.h.]._.&.+.*.S L E z s o g f 8 | -   ",
"    < ~ _ 3 a i q x C J Q U ` #.=.0.:.|.4.c.l.H.v.y.I.F.J.K.L.M.N.M.L.K.J.F.I.y.v.H.l.c.4.|.:.0.=.#.` U Q J C x q i a 3 _ '+    ",
"    [ ) / 1 9 h o s z E L R X ..&.9.!.r.|.4.j.g.z.A.B.y.C.D.E.F.G.F.E.D.C.y.B.A.z.g.j.4.|.r.!.9.&...X R L E z s o h 9 1 / )+    ",
"      5 ~ : 4 a i q x C G N S Y +.8.;.!.r.|.s.b.k.t.n.u.v.w.x.y.y.y.x.w.v.u.n.t.k.b.s.|.r.!.;.8.+.Y S N G C x q i a 4 : !+      ",
"      @ ) ( 1 9 h o r y  .J Q T Z +.8.;.!.:.h.i.5.j.k.l.m.n.o.p.p.p.o.n.m.l.k.j.5.i.h.:.!.;.8.+.Z T Q J  .y r o h 9 1 ( @       ",
"        c ~ : 3 a i p V A E P (.U Z +.8.9.0.].<.|.a.5.b.c.d.e.f.g.f.e.d.c.b.5.a.|.<.].0.9.8.+.Z U (.P E A V p i a 3 : ~+        ",
"        6 ) / 1 4 b n q x A F L (.U Z +.&.=._.!.1.<.}.2.3.4.5.6.7.6.5.4.3.2.}.<.1.!._.=.&.+.Z U (.L F A x q n b 4 1 / {+        ",
"          k ~ ( 1 9 h j q x A F L (.T Y ..#.&.-._.!.].:.<.[.}.|.|.|.}.[.<.:.].!._.-.&.#...Y T (.L F A x q j h 9 1 ( /.          ",
"          d t ~ : 3 0 h o r x A F P Q S X ` +.$.&.'.,.).!.~.{.].^.].{.~.!.).,.'.&.$.+.` X S Q P F A x r o h 0 3 : ]+d           ",
"            u ) / : 4 a h o r x A E J N R U *.` +.#.&.&.=.-.;.>.,.>.;.-.=.&.&.#.+.` *.U R N J E A x r o h a 4 : / u             ",
"              v ) / 8 4 a h o q x A  .G L Q S U X Z ..+.@.#.$.%.&.%.$.#.@.+...Z X U S Q L G  .A x q o h a 4 8 / ^+              ",
"                H ! ( 1 4 a h j q V y C E J L Q R T W X Y Z ` ` ` ` ` Z Y X W T R Q L J E C y V q j h a 4 1 ( /+                ",
"                  O ~ ( 8 4 0 h n p r x z C E J P N Q R S S T T U T T S S R Q N P J E C z x r p n h 0 4 8 ( (+                  ",
"                    H ! / : 3 9 b i o q s x z C D F J K L M N N N N N M L K J F D C z x s q o i b 9 3 : / /+                    ",
"                      v ) / : 1 4 a h i o q s x y A A C D E F G G G F E D C A A y x s q o i h a 4 1 : / ^+                      ",
"                        u t ~ ( 1 3 9 a h i o p q s w x y y z A A A z y y x w s q p o i h a 9 3 1 ( ]+u                         ",
"                          d /.~ / : 1 4 9 a g i n o p p q r r s s s r r q p p o n i g a 9 4 1 : / /.d                           ",
"                              6 c ~ ( : 1 3 f 9 a g h i i j j j j j j j i i h g a 9 f 3 1 : ( ~+{+                              ",
"                                  @ q.~ / _ 8 1 3 4 9 0 a a b b b b b a a 0 9 4 3 1 8 _ / !+@                                   ",
"                                      [ > ~ | ( _ : 1 1 2 3 4 4 4 4 4 3 2 1 1 : _ ( | '+)+                                      ",
"                                          - V..+~ ~ / ( ( _ : : : : : _ ( ( / ~ ,+V.-                                           ",
"                                                . $+@ %+&+t *+, =+*+-+;+%+@ $+>+                                                "};
