/* XPM */
static char * red6_xpm[] = {
"64 64 209 2",
"  	c #FF00FF",
". 	c #F880F1",
"+ 	c #F1B1DC",
"@ 	c #EFB6CC",
"# 	c #F1A9BE",
"$ 	c #F59FBE",
"% 	c #F993BC",
"& 	c #FD89B9",
"* 	c #FF82B9",
"= 	c #FD88BA",
"- 	c #F59EBE",
"; 	c #F1A8BE",
"> 	c #F0B0DC",
", 	c #F3A5E4",
"' 	c #EFB5C9",
") 	c #F69DBD",
"! 	c #FF81B7",
"~ 	c #FF80B8",
"{ 	c #FF80B6",
"] 	c #FF7FB7",
"^ 	c #F2A4E4",
"/ 	c #EFB7D1",
"( 	c #F59EBD",
"_ 	c #FF7EB6",
": 	c #FF7DB6",
"< 	c #FF7DB5",
"[ 	c #FF7CB5",
"} 	c #F59DBE",
"| 	c #FA90BC",
"1 	c #FF7CB4",
"2 	c #FF7BB4",
"3 	c #FF7AB3",
"4 	c #FF79B4",
"5 	c #FA8FBC",
"6 	c #EFB7D3",
"7 	c #F896BD",
"8 	c #FF7FB5",
"9 	c #FF79B3",
"0 	c #FF78B2",
"a 	c #FF77B3",
"b 	c #F895BC",
"c 	c #EFB6D3",
"d 	c #F4A1E6",
"e 	c #F2A6BC",
"f 	c #FF79B2",
"g 	c #FF76B2",
"h 	c #FF75B1",
"i 	c #FF74B1",
"j 	c #FF74B0",
"k 	c #F1A5BC",
"l 	c #F3A1E6",
"m 	c #EFB6D5",
"n 	c #F992BB",
"o 	c #FF77B1",
"p 	c #FF73B0",
"q 	c #FF72AF",
"r 	c #FF71AE",
"s 	c #FF71AF",
"t 	c #F991BC",
"u 	c #EFB6CA",
"v 	c #FF71B0",
"w 	c #FF70AE",
"x 	c #FF6FAE",
"y 	c #FF6FAD",
"z 	c #FF6EAD",
"A 	c #FF6EAC",
"B 	c #EFB5CA",
"C 	c #F0B1C5",
"D 	c #FF6CAD",
"E 	c #FF6CAB",
"F 	c #FF6BAC",
"G 	c #FF6AAB",
"H 	c #FF69AB",
"I 	c #EFB0C5",
"J 	c #F0AFC3",
"K 	c #FF69AA",
"L 	c #FF68A9",
"M 	c #FF67AA",
"N 	c #FF67A8",
"O 	c #FF66A9",
"P 	c #FF66A8",
"Q 	c #F0AEC3",
"R 	c #FF65A8",
"S 	c #FF64A7",
"T 	c #FF63A6",
"U 	c #FF62A7",
"V 	c #FF61A6",
"W 	c #FF63A7",
"X 	c #FF61A5",
"Y 	c #FF60A5",
"Z 	c #FF5FA4",
"` 	c #FF5EA3",
" .	c #FF5DA4",
"..	c #FF5DA2",
"+.	c #FF5CA3",
"@.	c #FF5AA2",
"#.	c #FF59A1",
"$.	c #FF59A0",
"%.	c #FF58A1",
"&.	c #FF589F",
"*.	c #FF57A0",
"=.	c #EFB5D5",
"-.	c #FF6DAC",
";.	c #FF69A9",
">.	c #FF559F",
",.	c #FF549E",
"'.	c #FF529E",
").	c #FF529D",
"!.	c #FF519D",
"~.	c #F991BB",
"{.	c #FF569F",
"].	c #FF539D",
"^.	c #FF519E",
"/.	c #FF53A0",
"(.	c #FF54A2",
"_.	c #FF55A3",
":.	c #FF56A4",
"<.	c #FF5BA3",
"[.	c #FF53A1",
"}.	c #FF58A7",
"|.	c #FF59A9",
"1.	c #FF5AAD",
"2.	c #FF5CAE",
"3.	c #FF5CAF",
"4.	c #FF519C",
"5.	c #FF57A5",
"6.	c #FF5EB2",
"7.	c #FF61B5",
"8.	c #FF61B8",
"9.	c #FF63BA",
"0.	c #FF64BB",
"a.	c #FF64BC",
"b.	c #FF5AA1",
"c.	c #FF529F",
"d.	c #FF60B4",
"e.	c #FF66BE",
"f.	c #FF68C3",
"g.	c #FF6AC6",
"h.	c #FF6BC9",
"i.	c #FF6CCA",
"j.	c #FF6DCB",
"k.	c #EEB5CC",
"l.	c #FF57A6",
"m.	c #FF5BAD",
"n.	c #FF5FB3",
"o.	c #FF67C0",
"p.	c #FF6ECC",
"q.	c #FF71D2",
"r.	c #FF73D5",
"s.	c #FF75D9",
"t.	c #FF76DC",
"u.	c #FA8EBB",
"v.	c #FF61B7",
"w.	c #FF6FCE",
"x.	c #FF77DD",
"y.	c #FF7AE5",
"z.	c #FF7EEA",
"A.	c #FF80F0",
"B.	c #FF81F2",
"C.	c #EFB6D1",
"D.	c #FF5DB0",
"E.	c #FF72D4",
"F.	c #FF78DE",
"G.	c #FF7DE9",
"H.	c #FF86FD",
"I.	c #FA89FF",
"J.	c #F28CFF",
"K.	c #F28EFF",
"L.	c #F28FFF",
"M.	c #F59CBD",
"N.	c #FF68C1",
"O.	c #FF74D8",
"P.	c #FF88FF",
"Q.	c #F293FF",
"R.	c #F398FF",
"S.	c #F39BFF",
"T.	c #F49DFF",
"U.	c #F49EFF",
"V.	c #FF7CE7",
"W.	c #FF84F8",
"X.	c #F38CFF",
"Y.	c #F4A2FF",
"Z.	c #F5A8FF",
"`.	c #F5ADFF",
" +	c #F6B0FF",
".+	c #F6B1FF",
"++	c #EFB4C9",
"@+	c #FF85F9",
"#+	c #F5ABFF",
"$+	c #F6B4FF",
"%+	c #F7BCFF",
"&+	c #F8C2FF",
"*+	c #F8C6FF",
"=+	c #E3E3E3",
"-+	c #F59BBD",
";+	c #F399FF",
">+	c #F4A4FF",
",+	c #F7BDFF",
"'+	c #F6B2FF",
")+	c #F0A7BE",
"!+	c #FD86BA",
"~+	c #FA8DBB",
"{+	c #F894BB",
"]+	c #EEB6D3",
"^+	c #F1A3BC",
"/+	c #F990BC",
"(+	c #EEB4CA",
"_+	c #EFAFC4",
":+	c #EFADC3",
"                                                . + @ # $ % & * * = % - ; @ > .                                                 ",
"                                          , ' ) ! ! ~ { { ] ] ] ] ] ] ] { { ~ ! ) ' ^                                           ",
"                                      / ( ! ! { ] _ _ : < < [ [ [ [ [ < < : _ _ ] { ! } /                                       ",
"                                  @ | ! { ] _ : < 1 2 2 3 3 3 4 4 4 3 3 3 2 2 1 < : _ ] { 5 @                                   ",
"                              6 7 ! { 8 _ < 1 2 3 4 9 9 0 0 0 a a a 0 0 0 9 9 4 3 2 1 < _ 8 { b c                               ",
"                          d e ! { 8 : [ 2 3 f 9 0 a g g h h i i j i i h h g g a 0 9 f 3 2 [ : 8 { k l                           ",
"                        m n ! ] _ [ 2 3 9 0 o g h j p q q r r s s s r r q q p j h g o 0 9 3 2 [ _ ] t m                         ",
"                      u ! { _ < 2 3 9 0 g h j q v s w x y z z A A A z z y x w s v q j h g 0 9 3 2 < _ { B                       ",
"                    C ! { _ [ 2 4 0 o h p q s w y A D E F G G H H H G G F E D A y w s q p h o 0 4 2 [ _ { I                     ",
"                  J ! ] _ 1 3 9 a g j q s x z D F G K L M N O P P P O N M L K G F D z x s q j g a 9 3 1 _ ] Q                   ",
"                C ! ] : 1 3 9 o h p r w z E G K L O R S T U V V V V V U T S R O L K G E z w r p h o 9 3 1 : ] I                 ",
"              u ! ] : 2 4 0 g i q s z D G K N R W U X Y Z `  ...+... .` Z Y X U W R N K G D z s q i g 0 4 2 : ] B               ",
"            m ! { _ 1 4 0 g j v w A F K N R T V Z  .+.@.#.$.%.&.*.&.%.$.#.@.+. .Z V T R N K F A w v j g 0 4 1 _ { =.            ",
"          d n { _ 1 3 0 g j r x -.G ;.P W V Z ..@.$.*.>.,.'.).!.!.!.).'.,.>.*.$.@...Z V W P ;.G -.x r j g 0 3 1 _ ~.l           ",
"          e ! _ [ 3 9 g j r x -.G L R U Y  .@.%.{.].!.^./.(._.:.:.:._.(./.^.!.].{.%.@. .Y U R L G -.x r j g 9 3 [ _ k           ",
"        6 ! ] < 2 9 o i v x -.G M S V Z <.$.{.'.!.[.:.}.|.1.2.3.3.3.2.1.|.}.:.[.!.'.{.$.<.Z V S M G -.x v i o 9 2 < ] c         ",
"        7 { _ 2 4 a h q w -.G M S V ` @.*.,.4.[.5.|.2.6.7.8.9.0.a.0.9.8.7.6.2.|.5.[.4.,.*.@.` V S M G -.w q h a 4 2 _ b         ",
"      @ ! 8 [ 3 0 g p s A G L S V ` b.*.'.c.:.|.3.d.9.e.f.g.h.i.j.i.h.g.f.e.9.d.3.|.:.c.'.*.b.` V S L G A s p g 0 3 [ 8 k.      ",
"      | { : 2 9 o j r z F ;.R V ` b.{.)./.l.m.n.9.o.g.p.q.r.s.t.t.t.s.r.q.p.g.o.9.n.m.l./.).{.b.` V R ;.F z r j o 9 2 : u.      ",
"    / ! 8 [ 3 0 h q w D K P U Z @.*.).[.}.3.v.e.g.w.r.x.y.z.A.B.B.B.A.z.y.x.r.w.g.e.v.3.}.[.).*.@.Z U P K D w q h 0 3 [ 8 C.    ",
"    ( { _ 2 9 g p s z G N W Y <.*.'./.}.D.8.o.j.E.F.G.B.H.I.J.K.L.K.J.I.H.B.G.F.E.j.o.8.D.}./.'.*.<.Y W N G z s p g 9 2 _ M.    ",
"  , ! ] < 3 0 h q x E K R V  .$.,.c.l.3.8.N.p.O.y.B.P.K.Q.R.S.T.U.T.S.R.Q.K.P.B.y.O.p.N.8.3.l.c.,.$. .V R K E x q h 0 3 < ] ^   ",
"  ' ! _ 1 f o j s z G N T Z @.{.4.:.m.v.o.p.s.V.W.X.Q.S.Y.Z.`. +.+ +`.Z.Y.S.Q.X.W.V.s.p.o.v.m.:.4.{.@.Z T N G z s j o f 1 _ ++  ",
"  ) { : 2 9 g q w D K R V ..%.'.[.|.n.e.j.O.V.@+K.R.Y.#+$+%+&+*+=+*+&+%+$+#+Y.R.K.@+V.O.j.e.n.|.[.'.%...V R K D w q g 9 2 : -+  ",
". ! ] < 3 0 h v y F L W Z @.{.!.5.3.9.g.E.y.W.K.;+>+.+,+=+=+=+=+=+=+=+=+=+,+.+>+;+K.W.y.E.g.9.3.5.!.{.@.Z W L F y v h 0 3 < ] . ",
"+ ! _ 1 4 a j s A G O U  .$.].[.|.d.o.w.F.B.X.R.>+'+&+=+=+=+=+=+=+=+=+=+=+=+&+'+>+R.X.B.F.w.o.d.|.[.].$. .U O G A s j a 4 1 _ > ",
"@ ~ _ 2 9 g p w D K R X +.*.!.:.2.9.g.r.G.P.Q.Y..+&+=+=+=+=+=+=+=+=+=+=+=+=+=+&+.+Y.Q.P.G.r.g.9.2.:.!.*.+.X R K D w p g 9 2 _ k.",
"# { : 2 9 g q x E L S Y @.>.^.}.6.e.p.x.B.K.S.#+,+=+=+=+=+=+=+=+=+=+=+=+=+=+=+=+,+#+S.K.B.x.p.e.6.}.^.>.@.Y S L E x q g 9 2 : )+",
"$ { < 3 0 h q y F M T Z #.,./.|.7.f.q.y.H.Q.Y.$+=+=+=+=+=+=+=+=+=+=+=+=+=+=+=+=+=+$+Y.Q.H.y.q.f.7.|./.,.#.Z T M F y q h 0 3 < - ",
"% ] < 3 0 h r z G N U ` $.'.(.1.8.g.r.z.I.R.Z.%+=+=+=+=+=+=+=+=+=+=+=+=+=+=+=+=+=+%+Z.R.I.z.r.g.8.1.(.'.$.` U N G z r h 0 3 < ~.",
"& ] [ 3 0 i r z G O V  .%.)._.2.9.h.s.A.J.S.`.&+=+=+=+=+=+=+=+=+=+=+=+=+=+=+=+=+=+&+`.S.J.A.s.h.9.2._.).%. .V O G z r i 0 3 [ !+",
"* ] [ 4 a i s A H P V ..&.!.:.3.0.i.t.B.K.T. +*+=+=+=+=+=+=+=+=+=+=+=+=+=+=+=+=+=+*+ +T.K.B.t.i.0.3.:.!.&...V P H A s i a 4 [ ] ",
"* ] [ 4 a j s A H P V +.*.!.:.3.a.j.t.B.L.U..+=+=+=+=+=+=+=+=+=+=+=+=+=+=+=+=+=+=+=+.+U.L.B.t.j.a.3.:.!.*.+.V P H A s j a 4 [ ] ",
"= ] [ 4 a i s A H P V ..&.!.:.3.0.i.t.B.K.T. +*+=+=+=+=+=+=+=+=+=+=+=+=+=+=+=+=+=+*+ +T.K.B.t.i.0.3.:.!.&...V P H A s i a 4 [ !+",
"% ] [ 3 0 i r z G O V  .%.)._.2.9.h.s.A.J.S.`.&+=+=+=+=+=+=+=+=+=+=+=+=+=+=+=+=+=+&+`.S.J.A.s.h.9.2._.).%. .V O G z r i 0 3 [ ~.",
"- ] < 3 0 h r z G N U ` $.'.(.1.8.g.r.z.I.R.Z.%+=+=+=+=+=+=+=+=+=+=+=+=+=+=+=+=+=+%+Z.R.I.z.r.g.8.1.(.'.$.` U N G z r h 0 3 < - ",
"; { < 3 0 h q y F M T Z #.,./.|.7.f.q.y.H.Q.Y.$+=+=+=+=+=+=+=+=+=+=+=+=+=+=+=+=+=+$+Y.Q.H.y.q.f.7.|./.,.#.Z T M F y q h 0 3 < )+",
"@ { : 2 9 g q x E L S Y @.>.^.}.6.e.p.x.B.K.S.#+,+=+=+=+=+=+=+=+=+=+=+=+=+=+=+=+,+#+S.K.B.x.p.e.6.}.^.>.@.Y S L E x q g 9 2 : k.",
"> ~ _ 2 9 g p w D K R X +.*.!.:.2.9.g.r.G.P.Q.Y..+&+=+=+=+=+=+=+=+=+=+=+=+=+=+&+.+Y.Q.P.G.r.g.9.2.:.!.*.+.X R K D w p g 9 2 _ > ",
". ! _ 1 4 a j s A G O U  .$.].[.|.d.o.w.F.B.X.R.>+'+&+=+=+=+=+=+=+=+=+=+=+=+&+'+>+R.X.B.F.w.o.d.|.[.].$. .U O G A s j a 4 1 _ . ",
"  ) ] < 3 0 h v y F L W Z @.{.!.5.3.9.g.E.y.W.K.;+>+.+,+=+=+=+=+=+=+=+=+=+,+.+>+;+K.W.y.E.g.9.3.5.!.{.@.Z W L F y v h 0 3 < -+  ",
"  ' { : 2 9 g q w D K R V ..%.'.[.|.n.e.j.O.V.@+K.R.Y.#+$+%+&+*+=+*+&+%+$+#+Y.R.K.@+V.O.j.e.n.|.[.'.%...V R K D w q g 9 2 : ++  ",
"  ^ ! _ 1 f o j s z G N T Z @.{.4.:.m.v.o.p.s.V.W.X.Q.S.Y.Z.`. +.+ +`.Z.Y.S.Q.X.W.V.s.p.o.v.m.:.4.{.@.Z T N G z s j o f 1 _ ^   ",
"    } ] < 3 0 h q x E K R V  .$.,.c.l.3.8.N.p.O.y.B.P.K.Q.R.S.T.U.T.S.R.Q.K.P.B.y.O.p.N.8.3.l.c.,.$. .V R K E x q h 0 3 < M.    ",
"    / { _ 2 9 g p s z G N W Y <.*.'./.}.D.8.o.j.E.F.G.B.H.I.J.K.L.K.J.I.H.B.G.F.E.j.o.8.D.}./.'.*.<.Y W N G z s p g 9 2 _ C.    ",
"      5 8 [ 3 0 h q w D K P U Z @.*.).[.}.3.v.e.g.w.r.x.y.z.A.B.B.B.A.z.y.x.r.w.g.e.v.3.}.[.).*.@.Z U P K D w q h 0 3 [ ~+      ",
"      @ { : 2 9 o j r z F ;.R V ` b.{.)./.l.m.n.9.o.g.p.q.r.s.t.t.t.s.r.q.p.g.o.9.n.m.l./.).{.b.` V R ;.F z r j o 9 2 : k.      ",
"        b 8 [ 3 0 g p s A G L S V ` b.*.'.c.:.|.3.d.9.e.f.g.h.i.j.i.h.g.f.e.9.d.3.|.:.c.'.*.b.` V S L G A s p g 0 3 [ {+        ",
"        c { _ 2 4 a h q w -.G M S V ` @.*.,.4.[.5.|.2.6.7.8.9.0.a.0.9.8.7.6.2.|.5.[.4.,.*.@.` V S M G -.w q h a 4 2 _ ]+        ",
"          k ] < 2 9 o i v x -.G M S V Z <.$.{.'.!.[.:.}.|.1.2.3.3.3.2.1.|.}.:.[.!.'.{.$.<.Z V S M G -.x v i o 9 2 < ^+          ",
"          l t _ [ 3 9 g j r x -.G L R U Y  .@.%.{.].!.^./.(._.:.:.:._.(./.^.!.].{.%.@. .Y U R L G -.x r j g 9 3 [ /+l           ",
"            m { _ 1 3 0 g j r x -.G ;.P W V Z ..@.$.*.>.,.'.).!.!.!.).'.,.>.*.$.@...Z V W P ;.G -.x r j g 0 3 1 _ =.            ",
"              B { _ 1 4 0 g j v w A F K N R T V Z  .+.@.#.$.%.&.*.&.%.$.#.@.+. .Z V T R N K F A w v j g 0 4 1 _ (+              ",
"                I ] : 2 4 0 g i q s z D G K N R W U X Y Z `  ...+... .` Z Y X U W R N K G D z s q i g 0 4 2 : _+                ",
"                  Q ] : 1 3 9 o h p r w z E G K L O R S T U V V V V V U T S R O L K G E z w r p h o 9 3 1 : :+                  ",
"                    I ] _ 1 3 9 a g j q s x z D F G K L M N O P P P O N M L K G F D z x s q j g a 9 3 1 _ _+                    ",
"                      B { _ [ 2 4 0 o h p q s w y A D E F G G H H H G G F E D A y w s q p h o 0 4 2 [ _ (+                      ",
"                        =.~._ < 2 3 9 0 g h j q v s w x y z z A A A z z y x w s v q j h g 0 9 3 2 < /+=.                        ",
"                          l k ] _ [ 2 3 9 0 o g h j p q q r r s s s r r q q p j h g o 0 9 3 2 [ _ ^+l                           ",
"                              c b 8 : [ 2 3 f 9 0 a g g h h i i j i i h h g g a 0 9 f 3 2 [ : {+]+                              ",
"                                  k.u.8 _ < 1 2 3 4 9 9 0 0 0 a a a 0 0 0 9 9 4 3 2 1 < _ ~+k.                                  ",
"                                      C.M.] _ : < 1 2 2 3 3 3 4 4 4 3 3 3 2 2 1 < : _ M.C.                                      ",
"                                          ^ ++-+] _ _ : < < [ [ [ [ [ < < : _ _ -+++^                                           ",
"                                                . > k.)+- ~.!+] ] !+~.- )+k.> .                                                 "};
