/* XPM */
static char * red7_xpm[] = {
"64 64 205 2",
"  	c #FF00FF",
". 	c #F880F1",
"+ 	c #F1B1DC",
"@ 	c #F0B8CD",
"# 	c #F1ABC0",
"$ 	c #F5A1C1",
"% 	c #F996C1",
"& 	c #FD8BC1",
"* 	c #FF85C0",
"= 	c #F1ABBF",
"- 	c #F3A5E4",
"; 	c #EFB6CA",
"> 	c #F69FC0",
", 	c #FF84BF",
"' 	c #FF83BF",
") 	c #FF83BE",
"! 	c #FF82BE",
"~ 	c #F69FC1",
"{ 	c #F0B9D2",
"] 	c #F6A1C1",
"^ 	c #FF81BD",
"/ 	c #FF81BE",
"( 	c #FF81BC",
"_ 	c #FF80BD",
": 	c #F5A0C1",
"< 	c #FA93C2",
"[ 	c #FF7FBC",
"} 	c #FF7EBC",
"| 	c #FF7EBB",
"1 	c #FA92C1",
"2 	c #EFB7CD",
"3 	c #F0B8D4",
"4 	c #F899C0",
"5 	c #FF7DBB",
"6 	c #FF7CBC",
"7 	c #FF7CBA",
"8 	c #FF7BBB",
"9 	c #F898C1",
"0 	c #EFB8D4",
"a 	c #F4A2E6",
"b 	c #F2A8BE",
"c 	c #FF7ABA",
"d 	c #FF79B9",
"e 	c #FF78BA",
"f 	c #F2A7BE",
"g 	c #F0B7D5",
"h 	c #FA95C1",
"i 	c #FF79BA",
"j 	c #FF78B8",
"k 	c #FF77B9",
"l 	c #FF77B7",
"m 	c #FF76B8",
"n 	c #FF75B8",
"o 	c #FF75B7",
"p 	c #FA94C1",
"q 	c #EFB7CB",
"r 	c #FF7FBD",
"s 	c #FF74B7",
"t 	c #FF73B6",
"u 	c #FF72B5",
"v 	c #FF71B6",
"w 	c #F0B3C6",
"x 	c #FF74B6",
"y 	c #FF72B7",
"z 	c #FF71B5",
"A 	c #FF70B5",
"B 	c #FF70B4",
"C 	c #FF6FB4",
"D 	c #FF6EB5",
"E 	c #FF6EB3",
"F 	c #F0B3C5",
"G 	c #F0B1C4",
"H 	c #FF6DB4",
"I 	c #FF6CB3",
"J 	c #FF6BB2",
"K 	c #FF6AB2",
"L 	c #F0B0C4",
"M 	c #FF69B1",
"N 	c #FF69B0",
"O 	c #FF68B0",
"P 	c #FF67B0",
"Q 	c #FF66B0",
"R 	c #FF65AF",
"S 	c #FF64AE",
"T 	c #FF63AE",
"U 	c #FF62AD",
"V 	c #FF61AC",
"W 	c #FF6BB3",
"X 	c #FF66AF",
"Y 	c #FF61AD",
"Z 	c #FF60AC",
"` 	c #FF5FAB",
" .	c #FF5EAB",
"..	c #FF5DAA",
"+.	c #FF5CAB",
"@.	c #FF6DB2",
"#.	c #FF5CA9",
"$.	c #FF5AA9",
"%.	c #FF59A8",
"&.	c #FF58A7",
"*.	c #FF57A8",
"=.	c #F994C0",
"-.	c #FF64AF",
";.	c #FF5BAA",
">.	c #FF55A6",
",.	c #FF53A5",
"'.	c #FF52A4",
").	c #FF51A5",
"!.	c #FF51A4",
"~.	c #F2A7BD",
"{.	c #FF56A7",
"].	c #FF52A7",
"^.	c #FF54A9",
"/.	c #FF55AB",
"(.	c #FF56AE",
"_.	c #FF57AE",
":.	c #FF63AD",
"<.	c #FF59B2",
"[.	c #FF5AB5",
"}.	c #FF5CB7",
"|.	c #FF5DB9",
"1.	c #FF5EBA",
"2.	c #FF5FAC",
"3.	c #FF54A6",
"4.	c #FF53A9",
"5.	c #FF5AB4",
"6.	c #FF5DB8",
"7.	c #FF60BE",
"8.	c #FF61C1",
"9.	c #FF63C5",
"0.	c #FF65C7",
"a.	c #FF66C9",
"b.	c #FF51A6",
"c.	c #FF55AD",
"d.	c #FF59B3",
"e.	c #FF61BF",
"f.	c #FF64C6",
"g.	c #FF68CB",
"h.	c #FF6AD0",
"i.	c #FF6CD5",
"j.	c #FF6ED7",
"k.	c #FF6FDA",
"l.	c #FF70DB",
"m.	c #FA91C0",
"n.	c #FF5BB6",
"o.	c #FF64C4",
"p.	c #FF69CC",
"q.	c #FF70DD",
"r.	c #FF73E3",
"s.	c #FF76E8",
"t.	c #FF79ED",
"u.	c #FF79F0",
"v.	c #FF7AF0",
"w.	c #EFB8D2",
"x.	c #FF61C0",
"y.	c #FF6BD3",
"z.	c #FF71DC",
"A.	c #FF75E7",
"B.	c #FF7EFA",
"C.	c #FD81FF",
"D.	c #F784FF",
"E.	c #F386FF",
"F.	c #F187FF",
"G.	c #F59FC1",
"H.	c #FF6DD6",
"I.	c #FF80FC",
"J.	c #F485FF",
"K.	c #F18AFF",
"L.	c #F28FFF",
"M.	c #F292FF",
"N.	c #F394FF",
"O.	c #F395FF",
"P.	c #FF75E5",
"Q.	c #FF7CF5",
"R.	c #F18BFF",
"S.	c #F39AFF",
"T.	c #F49FFF",
"U.	c #F4A3FF",
"V.	c #F5A6FF",
"W.	c #F5A7FF",
"X.	c #EFB5CA",
"Y.	c #FF7DF7",
"Z.	c #F399FF",
"`.	c #F4A2FF",
" +	c #F5AAFF",
".+	c #F6B2FF",
"++	c #F7B8FF",
"@+	c #F7BBFF",
"#+	c #F7BCFF",
"$+	c #F69EC0",
"%+	c #F291FF",
"&+	c #F39BFF",
"*+	c #F7BEFF",
"=+	c #E3E3E3",
"-+	c #F5A9FF",
";+	c #F1A9BF",
">+	c #F994C1",
",+	c #FD8ABF",
"'+	c #F897C0",
")+	c #F2A6BE",
"!+	c #F993C1",
"~+	c #EFB7D5",
"{+	c #EFB6CB",
"]+	c #F0B2C5",
"^+	c #F0AFC4",
"                                                . + @ # $ % & * * & % $ = @ + .                                                 ",
"                                          - ; > , , ' ) ! ! ! ! ! ! ! ! ! ) ' , ~ ; -                                           ",
"                                      { ] , ' ) ! ^ ^ / / ( _ _ _ _ _ ( / / ^ ^ ! ) ' : {                                       ",
"                                  @ < , ) ! ^ / _ _ [ [ } } } | | | } } } [ [ _ _ / ^ ! ) 1 2                                   ",
"                              3 4 , ) ! / _ _ [ } 5 6 7 8 8 8 8 8 8 8 8 8 7 6 5 } [ _ _ / ! ) 9 0                               ",
"                          a b , ) ! / _ [ } 5 7 8 c c d d d d e e e d d d d c c 8 7 5 } [ _ / ! ) f a                           ",
"                        g h ' ! ^ _ [ } 6 8 c i d j k l m m n o o o n m m l k j d i c 8 6 } [ _ ^ ! p g                         ",
"                      q , ) ^ / r } 5 8 c d j k m o s t t u u v v v u u t t s o m k j d c 8 5 } r / ^ ) q                       ",
"                    w , ! ^ _ [ 5 8 c d j m o x y v z A B C C D E D C C B A z v y x o m j d c 8 5 [ _ ^ ! F                     ",
"                  G , ! ^ _ } 6 8 d j m o t u z B C H I I J K K K K K J I I H C B z u t o m j d 8 6 } _ ^ ! L                   ",
"                w , ! / _ } 7 c d k n t u z C H I K M N O P P Q Q Q P P O N M K I H C z u t n k d c 7 } _ / ! F                 ",
"              q , ! / r | 7 c e m s y z C H J M N P R S T U U V V V U U T S R P N M J H C z y s m e c 7 | r / ! q               ",
"            g , ! ^ _ | 8 i j m x v A E W M O X S U Y Z `  .....+..... .` Z Y U S X O M W E A v x m j i 8 | _ ^ ! g             ",
"            h ) ^ _ } 7 i j m t v C @.K N Q S V Z  .#.$.%.%.&.*.*.*.&.%.%.$.#. .Z V S Q N K @.C v t m j i 7 } _ ^ =.a           ",
"          b ' ^ _ } 7 c j m t z C I M P -.U Z ..;.%.*.>.,.'.).!.!.!.).'.,.>.*.%.;...Z U -.P M I C z t m j c 7 } _ ^ ~.          ",
"        3 , ! / [ 6 c e m t z C I M Q T Y  .;.%.{.,.!.].^./.(._._._.(./.^.].!.,.{.%.;. .Y T Q M I C z t m e c 6 [ / ! 0         ",
"        4 ) ^ r 5 8 d m x v C I M X :.Z +.%.{.,.).^.(.<.[.}.|.1.1.1.|.}.[.<.(.^.).,.{.%.+.Z :.X M I C v x m d 8 5 r ^ 9         ",
"      @ , ! _ } 8 d k s v C I M X U 2.#.%.3.!.4._.5.6.7.8.9.0.a.a.a.0.9.8.7.6.5._.4.!.3.%.#.2.U X M I C v s k d 8 } _ ! 2       ",
"      < ) / [ 5 c j n y A @.M Q :.2.;.&.,.b.c.d.|.e.f.g.h.i.j.k.l.k.j.i.h.g.f.e.|.d.c.b.,.&.;.2.:.Q M @.A y n j c 5 [ / m.      ",
"    { , ! _ } 8 d m t z E K P T Z #.&.,.]._.n.7.o.p.i.q.r.s.t.u.v.u.t.s.r.q.i.p.o.7.n._.].,.&.#.Z T P K E z t m d 8 } _ ! w.    ",
"    ] ) / [ 6 c j o u C W N -.Y +.%.,.]._.}.x.a.y.z.A.v.B.C.D.E.F.E.D.C.B.v.A.z.y.a.x.}._.].,.%.+.Y -.N W C u o j c 6 [ / G.    ",
"  - , ! _ } 8 d m t z H M Q U  .%.3.b._.}.8.g.H.r.u.I.J.K.L.M.N.O.N.M.L.K.J.I.u.r.H.g.8.}._.b.3.%. .U Q M H z t m d 8 } _ ! -   ",
"  ; ' ^ _ 5 c j o u C J O S Z ;.{.!.c.n.x.g.j.P.Q.D.R.M.S.T.U.V.W.V.U.T.S.M.R.D.Q.P.j.g.x.n.c.!.{.;.Z S O J C u o j c 5 _ ^ X.  ",
"  > ) / [ 7 i k x z H M X V ..%.,.4.d.7.a.H.P.Y.E.L.Z.`. +.+++@+#+@+++.+ +`.Z.L.E.Y.P.H.a.7.d.4.,.%...V X M H z x k i 7 [ / $+  ",
". , ! _ } 8 d m y B I N S Z ;.{.)._.|.o.y.r.Q.E.%+&+W..+*+=+=+=+=+=+=+=+*+.+W.&+%+E.Q.r.y.o.|._.).{.;.Z S N I B y m d 8 } _ ! . ",
"+ , ^ _ 5 c j o v C K P U  .%.,.^.5.e.p.z.u.D.L.&+-+++=+=+=+=+=+=+=+=+=+=+=+++-+&+L.D.u.z.p.e.5.^.,.%. .U P K C v o j c 5 _ ^ + ",
"@ ' ^ [ 6 c k s z H M R Y #.*.!.(.6.f.i.A.I.R.Z.W.++=+=+=+=+=+=+=+=+=+=+=+=+=+++W.Z.R.I.A.i.f.6.(.!.*.#.Y R M H z s k c 6 [ ^ 2 ",
"# ) / [ 7 d l t A I N S Z $.>.].<.7.g.q.v.J.M.`..+=+=+=+=+=+=+=+=+=+=+=+=+=+=+=+.+`.M.J.v.q.g.7.<.].>.$.Z S N I A t l d 7 [ / ;+",
"$ ! / } 8 d m t B I O T ` %.,.^.[.8.h.r.B.K.S. +*+=+=+=+=+=+=+=+=+=+=+=+=+=+=+=+*+ +S.K.B.r.h.8.[.^.,.%.` T O I B t m d 8 } / : ",
"% ! ( } 8 d m u C J P U  .%.'./.}.9.i.s.C.L.T..+=+=+=+=+=+=+=+=+=+=+=+=+=+=+=+=+=+.+T.L.C.s.i.9.}./.'.%. .U P J C u m d 8 } ( >+",
"& ! _ } 8 d n u C K P U ..&.).(.|.0.j.t.D.M.U.++=+=+=+=+=+=+=+=+=+=+=+=+=+=+=+=+=+++U.M.D.t.j.0.|.(.).&...U P K C u n d 8 } _ ,+",
"* ! _ | 8 e o v D K Q V ..*.!._.1.a.k.u.E.N.V.@+=+=+=+=+=+=+=+=+=+=+=+=+=+=+=+=+=+@+V.N.E.u.k.a.1._.!.*...V Q K D v o e 8 | _ ' ",
"* ! _ | 8 e o v E K Q V +.*.!._.1.a.l.v.F.O.W.#+=+=+=+=+=+=+=+=+=+=+=+=+=+=+=+=+=+#+W.O.F.v.l.a.1._.!.*.+.V Q K E v o e 8 | _ ' ",
"& ! _ | 8 e o v D K Q V ..*.!._.1.a.k.u.E.N.V.@+=+=+=+=+=+=+=+=+=+=+=+=+=+=+=+=+=+@+V.N.E.u.k.a.1._.!.*...V Q K D v o e 8 | _ ,+",
"% ! _ } 8 d n u C K P U ..&.).(.|.0.j.t.D.M.U.++=+=+=+=+=+=+=+=+=+=+=+=+=+=+=+=+=+++U.M.D.t.j.0.|.(.).&...U P K C u n d 8 } _ >+",
"$ ! ( } 8 d m u C J P U  .%.'./.}.9.i.s.C.L.T..+=+=+=+=+=+=+=+=+=+=+=+=+=+=+=+=+=+.+T.L.C.s.i.9.}./.'.%. .U P J C u m d 8 } ( : ",
"= ! / } 8 d m t B I O T ` %.,.^.[.8.h.r.B.K.S. +*+=+=+=+=+=+=+=+=+=+=+=+=+=+=+=+*+ +S.K.B.r.h.8.[.^.,.%.` T O I B t m d 8 } / ;+",
"@ ) / [ 7 d l t A I N S Z $.>.].<.7.g.q.v.J.M.`..+=+=+=+=+=+=+=+=+=+=+=+=+=+=+=+.+`.M.J.v.q.g.7.<.].>.$.Z S N I A t l d 7 [ / 2 ",
"+ ' ^ [ 6 c k s z H M R Y #.*.!.(.6.f.i.A.I.R.Z.W.++=+=+=+=+=+=+=+=+=+=+=+=+=+++W.Z.R.I.A.i.f.6.(.!.*.#.Y R M H z s k c 6 [ ^ + ",
". , ^ _ 5 c j o v C K P U  .%.,.^.5.e.p.z.u.D.L.&+-+++=+=+=+=+=+=+=+=+=+=+=+++-+&+L.D.u.z.p.e.5.^.,.%. .U P K C v o j c 5 _ ^ . ",
"  ~ ! _ } 8 d m y B I N S Z ;.{.)._.|.o.y.r.Q.E.%+&+W..+*+=+=+=+=+=+=+=+*+.+W.&+%+E.Q.r.y.o.|._.).{.;.Z S N I B y m d 8 } _ $+  ",
"  ; ) / [ 7 i k x z H M X V ..%.,.4.d.7.a.H.P.Y.E.L.Z.`. +.+++@+#+@+++.+ +`.Z.L.E.Y.P.H.a.7.d.4.,.%...V X M H z x k i 7 [ / X.  ",
"  - ' ^ _ 5 c j o u C J O S Z ;.{.!.c.n.x.g.j.P.Q.D.R.M.S.T.U.V.W.V.U.T.S.M.R.D.Q.P.j.g.x.n.c.!.{.;.Z S O J C u o j c 5 _ ^ -   ",
"    : ! _ } 8 d m t z H M Q U  .%.3.b._.}.8.g.H.r.u.I.J.K.L.M.N.O.N.M.L.K.J.I.u.r.H.g.8.}._.b.3.%. .U Q M H z t m d 8 } _ G.    ",
"    { ) / [ 6 c j o u C W N -.Y +.%.,.]._.}.x.a.y.z.A.v.B.C.D.E.F.E.D.C.B.v.A.z.y.a.x.}._.].,.%.+.Y -.N W C u o j c 6 [ / w.    ",
"      1 ! _ } 8 d m t z E K P T Z #.&.,.]._.n.7.o.p.i.q.r.s.t.u.v.u.t.s.r.q.i.p.o.7.n._.].,.&.#.Z T P K E z t m d 8 } _ m.      ",
"      2 ) / [ 5 c j n y A @.M Q :.2.;.&.,.b.c.d.|.e.f.g.h.i.j.k.l.k.j.i.h.g.f.e.|.d.c.b.,.&.;.2.:.Q M @.A y n j c 5 [ / 2       ",
"        9 ! _ } 8 d k s v C I M X U 2.#.%.3.!.4._.5.6.7.8.9.0.a.a.a.0.9.8.7.6.5._.4.!.3.%.#.2.U X M I C v s k d 8 } _ '+        ",
"        0 ) ^ r 5 8 d m x v C I M X :.Z +.%.{.,.).^.(.<.[.}.|.1.1.1.|.}.[.<.(.^.).,.{.%.+.Z :.X M I C v x m d 8 5 r ^ 0         ",
"          f ! / [ 6 c e m t z C I M Q T Y  .;.%.{.,.!.].^./.(._._._.(./.^.].!.,.{.%.;. .Y T Q M I C z t m e c 6 [ / )+          ",
"          a p ^ _ } 7 c j m t z C I M P -.U Z ..;.%.*.>.,.'.).!.!.!.).'.,.>.*.%.;...Z U -.P M I C z t m j c 7 } _ !+a           ",
"            g ) ^ _ } 7 i j m t v C @.K N Q S V Z  .#.$.%.%.&.*.*.*.&.%.%.$.#. .Z V S Q N K @.C v t m j i 7 } _ ^ ~+            ",
"              q ! ^ _ | 8 i j m x v A E W M O X S U Y Z `  .....+..... .` Z Y U S X O M W E A v x m j i 8 | _ ^ {+              ",
"                F ! / r | 7 c e m s y z C H J M N P R S T U U V V V U U T S R P N M J H C z y s m e c 7 | r / ]+                ",
"                  L ! / _ } 7 c d k n t u z C H I K M N O P P Q Q Q P P O N M K I H C z u t n k d c 7 } _ / ^+                  ",
"                    F ! ^ _ } 6 8 d j m o t u z B C H I I J K K K K K J I I H C B z u t o m j d 8 6 } _ ^ ]+                    ",
"                      q ! ^ _ [ 5 8 c d j m o x y v z A B C C D E D C C B A z v y x o m j d c 8 5 [ _ ^ {+                      ",
"                        g =.^ / r } 5 8 c d j k m o s t t u u v v v u u t t s o m k j d c 8 5 } r / !+~+                        ",
"                          a ~.! ^ _ [ } 6 8 c i d j k l m m n o o o n m m l k j d i c 8 6 } [ _ ^ )+a                           ",
"                              0 9 ! / _ [ } 5 7 8 c c d d d d e e e d d d d c c 8 7 5 } [ _ / '+0                               ",
"                                  2 m.! / _ _ [ } 5 6 7 8 8 8 8 8 8 8 8 8 7 6 5 } [ _ _ / m.2                                   ",
"                                      w.G.! ^ / _ _ [ [ } } } | | | } } } [ [ _ _ / ^ G.w.                                      ",
"                                          - X.$+! ^ ^ / / ( _ _ _ _ _ ( / / ^ ^ $+X.-                                           ",
"                                                . + 2 ;+: >+,+' ' ,+>+: ;+2 + .                                                 "};
