/* XPM */
static char * blue5_xpm[] = {
"64 64 80 1",
" 	c #FF00FF",
".	c #00C1FF",
"+	c #5CBEFF",
"@	c #00C4FF",
"#	c #00C7FF",
"$	c #00C8FF",
"%	c #40C0FF",
"&	c #00C9FF",
"*	c #00C5FF",
"=	c #00C6FF",
"-	c #4BBEFF",
";	c #50BFFF",
">	c #58BDFF",
",	c #00C3FF",
"'	c #00C2FF",
")	c #00C0FF",
"!	c #00BEFF",
"~	c #00BFFF",
"{	c #00BDFF",
"]	c #00BCFF",
"^	c #00BBFF",
"/	c #00B9FF",
"(	c #00B8FF",
"_	c #00B7FF",
":	c #00B6FF",
"<	c #00B5FF",
"[	c #00B4FF",
"}	c #00B3FF",
"|	c #00B2FF",
"1	c #00B1FF",
"2	c #00B0FF",
"3	c #FF37FF",
"4	c #00AFFF",
"5	c #00AEFF",
"6	c #00ADFF",
"7	c #00ACFF",
"8	c #00BAFF",
"9	c #00ABFF",
"0	c #00AAFF",
"a	c #00A9FF",
"b	c #00A8FF",
"c	c #00A7FF",
"d	c #00A6FF",
"e	c #00A5FF",
"f	c #00A3FF",
"g	c #00A4FF",
"h	c #00A2FF",
"i	c #00CCFF",
"j	c #00CEFF",
"k	c #00D1FF",
"l	c #00D3FF",
"m	c #00D2FF",
"n	c #00A1FF",
"o	c #00CAFF",
"p	c #00D7FF",
"q	c #00DBFF",
"r	c #00DFFF",
"s	c #00E4FF",
"t	c #00E5FF",
"u	c #00DAFF",
"v	c #00E1FF",
"w	c #00E8FF",
"x	c #00EFFF",
"y	c #00F4FF",
"z	c #00F8FF",
"A	c #00FBFF",
"B	c #00CDFF",
"C	c #00EBFF",
"D	c #00FDFF",
"E	c #00FFFF",
"F	c #00F2FF",
"G	c #00FEFF",
"H	c #4EBEFF",
"I	c #00F7FF",
"J	c #FFFFFF",
"K	c #2CBFFF",
"L	c #50BEFF",
"M	c #58BCFF",
"N	c #3BBEFF",
"O	c #4CBDFF",
"                           .+@#$$#@+.                           ",
"                       %$&###*=====*###&-                       ",
"                    ;$##==***@@@@@@@***==##>                    ",
"                  =&#=#*@@,,,''''''',,,@@*#=#=                  ",
"                ,&#=*@*,''..)))))))))..'',*@*=#'                ",
"               $#=*@,').)!~!!{{{{{{{!!~!).)',@*=#.              ",
"             *#=*@,'.)!!!{]]^^^///^^^]]{!!!).',@*=@             ",
"            $#=*,'.)~!{]^/(/__(:::(__/(/^]{!~).',*=#            ",
"           &#*@,')~!{^//_:_<[<}}}}}<[<_:_//^{!~)',@*#           ",
"          &**@'.)!{^//(<[}|}122222221}|}[<(//^{!).'@**          ",
"       3 &=**'.~!]^/(<<|12456677777665421|<<(/^]!~.'**=         ",
"        &**,')~{^8_<<|145790aabbbbbaa097541|<<_8^{~)',**        ",
"       $#**')~{^/::}14670acdefghfhgfedca07641}::/^{~)'**#       ",
"      *#*@')~{^/_<|2570bdfffebaa0aabefffdb0752|<_/^{~)'@*@      ",
"      #=@'.~{^/_}1460bdgfc061|<<:<<|160cfgdb0641}_/^{~.'@=.     ",
"     $=*,.~{^/_}157acffb71</{~',,,'~{/<17bffca751}_/^{~.,*=     ",
"    ,#*,')!^/_}157adfe71_{'#ijklmlkji#'{_17efda751}_/^!)',*'    ",
"    &=@')!]8:<157adnb5<{,okpqrstttsrqpko,{<5bnda751<:8]!)'@=    ",
"   =#*,.~{^_:|47adna1/.&kuvwxyzAAAzyxwvuk&./1anda74|:_^{~.,**   ",
"   &=@')!^/<}26adna18,BpvCyDEEEEEEEEEDyCvpB,81anda62}</^!)'@=   ",
"  ;#*,.~{/(<150cfb18,jutFGEEEEEEEEEEEEEGFtuj,81bfc051<(/{~.,*H  ",
"  $=@')!^/<|47bfe5/,jqwIEEEEEEEEEEEEEEEEEIwqj,/5efb74|</^!)'@=  ",
"  ##*)!{/(<160df7<.BuwzEEEEEEEEEEEEEEEEEEEzwuB.<7fd061<(/{!)*#  ",
" %#*,.!]/<|47bgb1{&ptIEEEEEEEEJJJJJEEEEEEEEItp&{1bgb74|</]!.,*K ",
" $=@')!^_[150df7_,kvFEEEEEEJJJJJJJJJJJEEEEEEFvk,_7fd051[_^!)'@= ",
" &=@'!{/:}27afc1{ouCGEEEEEJJJJJJJJJJJJJEEEEEGCuo{1cfa72}:/{!'@= ",
" #*,.~](_|49cf0<'kvyEEEEEJJJJJJJJJJJJJJJEEEEEyvk'<0fc94|_(]~.,* ",
".#*,.!]/<}50df6/#pwDEEEEJJJJJJJJJJJJJJJJJEEEEDwp#/6fd05}</]!.,*.",
"+#*,)!^_[16aee1{iqxEEEEEJJJJJJJJJJJJJJJJJEEEEExqi{1eea61[_^!),*L",
"@*@'){^_<26afb|~jryEEEEEJJJJJJJJJJJJJJJJJEEEEEyrj~|bfa62<_^{)'@@",
"#=@'){^(}27bga<'kszEEEEJJJJJJJJJJJJJJJJJJJEEEEzsk'<agb72}(^{)'@#",
"$=@'){/:}27bha<,ltAEEEEJJJJJJJJJJJJJJJJJJJEEEEAtl,<ahb72}:/{)'@#",
"$=@'){/:}27bf0:,mtAEEEEJJJJJJJJJJJJJJJJJJJEEEEAtm,:0fb72}:/{)'@*",
"#=@'){/:}27bha<,ltAEEEEJJJJJJJJJJJJJJJJJJJEEEEAtl,<ahb72}:/{)'@#",
"@=@'){^(}27bga<'kszEEEEJJJJJJJJJJJJJJJJJJJEEEEzsk'<agb72}(^{)'@,",
"+*@'){^_<26afb|~jryEEEEEJJJJJJJJJJJJJJJJJEEEEEyrj~|bfa62<_^{)'@M",
".#*,)!^_[16aee1{iqxEEEEEJJJJJJJJJJJJJJJJJEEEEExqi{1eea61[_^!),*.",
" #*,.!]/<}50df6/#pwDEEEEJJJJJJJJJJJJJJJJJEEEEDwp#/6fd05}</]!.,* ",
" #*,.~](_|49cf0<'kvyEEEEEJJJJJJJJJJJJJJJEEEEEyvk'<0fc94|_(]~.,* ",
" &=@'!{/:}27afc1{ouCGEEEEEJJJJJJJJJJJJJEEEEEGCuo{1cfa72}:/{!'@= ",
" -=@')!^_[150df7_,kvFEEEEEEJJJJJJJJJJJEEEEEEFvk,_7fd051[_^!)'@N ",
"  #*,.!]/<|47bgb1{&ptIEEEEEEEEJJJJJEEEEEEEEItp&{1bgb74|</]!.,*  ",
"  ##*)!{/(<160df7<.BuwzEEEEEEEEEEEEEEEEEEEzwuB.<7fd061<(/{!)*#  ",
"  >=@')!^/<|47bfe5/,jqwIEEEEEEEEEEEEEEEEEIwqj,/5efb74|</^!)'@O  ",
"   #*,.~{/(<150cfb18,jutFGEEEEEEEEEEEEEGFtuj,81bfc051<(/{~.,*   ",
"   ==@')!^/<}26adna18,BpvCyDEEEEEEEEEDyCvpB,81anda62}</^!)'@@   ",
"    #*,.~{^_:|47adna1/.&kuvwxyzAAAzyxwvuk&./1anda74|:_^{~.,*    ",
"    '=@')!]8:<157adnb5<{,okpqrstttsrqpko,{<5bnda751<:8]!)'@.    ",
"     #*,')!^/_}157adfe71_{'#ijklmlkji#'{_17efda751}_/^!)',*     ",
"     .=*,.~{^/_}157acffb71</{~',,,'~{/<17bffca751}_/^{~.,*.     ",
"      @=@'.~{^/_}1460bdgfc061|<<:<<|160cfgdb0641}_/^{~.'@,      ",
"       #*@')~{^/_<|2570bdfffebaa0aabefffdb0752|<_/^{~)'@*       ",
"        #**')~{^/::}14670acdefghfhgfedca07641}::/^{~)'**        ",
"         **,')~{^8_<<|145790aabbbbbaa097541|<<_8^{~)',*         ",
"          =**'.~!]^/(<<|12456677777665421|<<(/^]!~.'**          ",
"           **@'.)!{^//(<[}|}122222221}|}[<(//^{!).'@*           ",
"          3 #*@,')~!{^//_:_<[<}}}}}<[<_:_//^{!~)',@*            ",
"             @=*,'.)~!{]^/(/__(:::(__/(/^]{!~).',*,             ",
"              .=*@,'.)!!!{]]^^^///^^^]]{!!!).',@*.              ",
"                '=*@,').)!~!!{{{{{{{!!~!).)',@*.                ",
"                  *=*@*,''..)))))))))..'',*@*@                  ",
"                    H=#*@@,,,''''''',,,@@*#O                    ",
"                       K==***@@@@@@@***=N                       ",
"                           .L@##*#,M.                           "};
