/* XPM */
static char * blue4_xpm[] = {
"64 64 86 1",
" 	c #FF00FF",
".	c #00B1FF",
"+	c #6BB7FF",
"@	c #00BDFF",
"#	c #00BEFF",
"$	c #00BFFF",
"%	c #00BCFF",
"&	c #63B8FF",
"*	c #56B8FF",
"=	c #4CB9FF",
"-	c #62B8FF",
";	c #00BBFF",
">	c #00B9FF",
",	c #00BAFF",
"'	c #59B8FF",
")	c #00B8FF",
"!	c #00B6FF",
"~	c #00B7FF",
"{	c #00B4FF",
"]	c #00B5FF",
"^	c #00B3FF",
"/	c #00B0FF",
"(	c #00AEFF",
"_	c #00ADFF",
":	c #00ACFF",
"<	c #00ABFF",
"[	c #00B2FF",
"}	c #00AFFF",
"|	c #00AAFF",
"1	c #00A9FF",
"2	c #00A8FF",
"3	c #00A7FF",
"4	c #00A6FF",
"5	c #00A5FF",
"6	c #00A4FF",
"7	c #FF37FF",
"8	c #00A3FF",
"9	c #00A2FF",
"0	c #00A1FF",
"a	c #00A0FF",
"b	c #009EFF",
"c	c #009FFF",
"d	c #009CFF",
"e	c #009BFF",
"f	c #009AFF",
"g	c #009DFF",
"h	c #0099FF",
"i	c #00C1FF",
"j	c #00C3FF",
"k	c #00C7FF",
"l	c #00CBFF",
"m	c #00CDFF",
"n	c #00D0FF",
"o	c #00D2FF",
"p	c #00D3FF",
"q	c #00C9FF",
"r	c #00D6FF",
"s	c #00DCFF",
"t	c #00E0FF",
"u	c #00E3FF",
"v	c #00E4FF",
"w	c #00E6FF",
"x	c #00C0FF",
"y	c #00C8FF",
"z	c #00D9FF",
"A	c #00E7FF",
"B	c #00EFFF",
"C	c #00F5FF",
"D	c #00F8FF",
"E	c #00FBFF",
"F	c #00FDFF",
"G	c #00CCFF",
"H	c #00EAFF",
"I	c #00FEFF",
"J	c #00FFFF",
"K	c #00C2FF",
"L	c #00F2FF",
"M	c #57B7FF",
"N	c #00DAFF",
"O	c #00F7FF",
"P	c #FFFFFF",
"Q	c #49B8FF",
"R	c #61B7FF",
"S	c #58B7FF",
"T	c #3DB8FF",
"U	c #4DB8FF",
"                           .+@#$$#%&.                           ",
"                       *$##@@@%%%%%@@@##=                       ",
"                    -##@%%;;;>>,,,>>;;;%%@#'                    ",
"                  $#@%%;>,>>)))))))))>>,>;%%@@                  ",
"                %#@%;>>>)!~!!{{{{{{{!!~!)>>>;%@;                ",
"               #@%;,>)~!{]^{^^.....^^{^]{!~)>,;%@               ",
"             ##%;,>)~!]{^././/(((((//./.^{]!~)>,;%@             ",
"            $@%;>)~{^^../(_(::<<<<<::(_(/..^^{~)>;%@            ",
"           #@;,>!!^^[}(_:<|11223332211|<:_(}[^^!!>,;@           ",
"          #@;,)~{{.}((<|12445666666654421|<((}.{{~),;@          ",
"       7 #@;>)!^^/((<<2456890aabbbaa0986542<<((/^^!)>;@ 7       ",
"        #@;>)!^.}}:|2458aacdedfeeefdedcaa8542|:}}.^!)>;@        ",
"       $@;>)!{./_<13580bgdhfeggbbbggefhdgb08531<_/.{!)>;@       ",
"      #@;,)!{./(|246abgefda95312|21359adfegba642|(/.{!),;@      ",
"      #%,)!^./:|258abfhg94|:/.{{!{{./:|49ghfba852|:/.^!),%.     ",
"     #%;>~^./(|259bghd03</{)%$ijjji$%){/<30dhgb952|(/.^~>;%     ",
"    %@;>!{^}_|259befb5</~%iklmnoponmlki%~/<5bfeb952|_}^{!>;;    ",
"    #%,)!{/}<259bdha3_{%jqnrstuvwvutsrnqj%{_3ahdb952<}/{!),%    ",
"   $@;>~^.(:148beh01/)xynztABCDEFEDCBAtznyx)/10heb841:(.^~>;%   ",
"   #%,){^}(|36agfa1/>jGrtHCIJJJJJJJJJICHtrGj>/1afga63|(}^{),%   ",
"  -@;>~^[(<25abhb3/>KmzwLIJJJJJJJJJJJJJILwzmK>/3bhba52<([^~>;M  ",
"  #%>)!^}(<48bfd5_)jmNAOJJJJJJJJJJJJJJJJJOANmj)_5dfb84<(}^!)>%  ",
"  #%>~].(<250gh0<{xGzADJJJJJJJJJJJJJJJJJJJDAzGx{<0hg052<(.]~>%  ",
" *@;>!{._|48beg3/%yrwOJJJJJJPPPPPPPPPJJJJJJOwry%/3geb84|_.{!>;Q ",
" $%>){^/:15agf9<~jntLJJJJJJPPPPPPPPPPPJJJJJJLtnj~<9fga51:/^{)>% ",
" #%,!].(<26add4/%qzHIJJJJPPPPPPPPPPPPPPPJJJJIHzq%/4dda62<(.]!,% ",
" #;>~^/_|48cha|{intCJJJJJPPPPPPPPPPPPPPPJJJJJCtni{|ahc84|_/^~>; ",
".@;>!{.(149df9:)krAIJJJJPPPPPPPPPPPPPPPPPJJJJIArk):9fd941(.{!>;.",
".@;)!^/:150ee5/%lsBJJJJPPPPPPPPPPPPPPPPPPPJJJJBsl%/5ee051:/^!);R",
".@>){^/:26adg3.$mtCJJJJPPPPPPPPPPPPPPPPPPPJJJJCtm$.3gda62:/^{)>%",
".%>){.(<26afg1{inuDJJJJPPPPPPPPPPPPPPPPPPPJJJJDuni{1gfa62<(.{)>%",
".%,){.(<36beb2{jovEJJJJPPPPPPPPPPPPPPPPPPPJJJJEvoj{2beb63<(.{),@",
".%,){.(<36beb|!jpwFJJJJPPPPPPPPPPPPPPPPPPPJJJJFwpj!|beb63<(.{),@",
".%,){.(<36beb2{jovEJJJJPPPPPPPPPPPPPPPPPPPJJJJEvoj{2beb63<(.{),%",
".%>){.(<26afg1{inuDJJJJPPPPPPPPPPPPPPPPPPPJJJJDuni{1gfa62<(.{)>%",
".@>){^/:26adg3.$mtCJJJJPPPPPPPPPPPPPPPPPPPJJJJCtm$.3gda62:/^{)>S",
".@;)!^/:150ee5/%lsBJJJJPPPPPPPPPPPPPPPPPPPJJJJBsl%/5ee051:/^!);.",
" @;>!{.(149df9:)krAIJJJJPPPPPPPPPPPPPPPPPJJJJIArk):9fd941(.{!>; ",
" #;>~^/_|48cha|{intCJJJJJPPPPPPPPPPPPPPPJJJJJCtni{|ahc84|_/^~>; ",
" #%,!].(<26add4/%qzHIJJJJPPPPPPPPPPPPPPPJJJJIHzq%/4dda62<(.]!,% ",
" =%>){^/:15agf9<~jntLJJJJJJPPPPPPPPPPPJJJJJJLtnj~<9fga51:/^{)>T ",
"  @;>!{._|48beg3/%yrwOJJJJJJPPPPPPPPPJJJJJJOwry%/3geb84|_.{!>;  ",
"  #%>~].(<250gh0<{xGzADJJJJJJJJJJJJJJJJJJJDAzGx{<0hg052<(.]~>%  ",
"  '%>)!^}(<48bfd5_)jmNAOJJJJJJJJJJJJJJJJJOANmj)_5dfb84<(}^!)>U  ",
"   @;>~^[(<25abhb3/>KmzwLIJJJJJJJJJJJJJILwzmK>/3bhba52<([^~>;   ",
"   @%,){^}(|36agfa1/>jGrtHCIJJJJJJJJJICHtrGj>/1afga63|(}^{),;   ",
"    @;>~^.(:148beh01/)xynztABCDEFEDCBAtznyx)/10heb841:(.^~>;    ",
"    ;%,)!{/}<259bdha3_{%jqnrstuvwvutsrnqj%{_3ahdb952<}/{!),,    ",
"     @;>!{^}_|259befb5</~%iklmnoponmlki%~/<5bfeb952|_}^{!>;     ",
"     .%;>~^./(|259bghd03</{)%$ijjji$%){/<30dhgb952|(/.^~>;.     ",
"      @%,)!^./:|258abfhg94|:/.{{!{{./:|49ghfba852|:/.^!),%      ",
"       @;,)!{./(|246abgefda95312|21359adfegba642|(/.{!),;       ",
"        @;>)!{./_<13580bgdhfeggbbbggefhdgb08531<_/.{!)>;        ",
"         @;>)!^.}}:|2458aacdedfeeefdedcaa8542|:}}.^!)>; 7       ",
"          @;>)!^^/((<<2456890aabbbaa0986542<<((/^^!)>;          ",
"           @;,)~{{.}((<|12445666666654421|<((}.{{~),;           ",
"            @;,>!!^^[}(_:<|11223332211|<:_(}[^^!!>,; 7          ",
"             @%;>)~{^^../(_(::<<<<<::(_(/..^^{~)>;%             ",
"              .%;,>)~!]{^././/(((((//./.^{]!~)>,;.              ",
"                ;%;,>)~!{]^{^^.....^^{^]{!~)>,;,                ",
"                  %%;>>>)!~!!{{{{{{{!!~!)>>>;;                  ",
"                    M%%;>,>>)))))))))>>,>;%U                    ",
"                       Q%%;;;>>,,,>>;;;%T                       ",
"                           .R%%@@%%S.                           "};
