/* XPM */
static char * blue3_xpm[] = {
"64 64 86 1",
" 	c #FF00FF",
".	c #00A3FF",
"+	c #00AEFF",
"@	c #00ACFF",
"#	c #00ABFF",
"$	c #00AAFF",
"%	c #00ADFF",
"&	c #00A9FF",
"*	c #00A8FF",
"=	c #00A7FF",
"-	c #00AFFF",
";	c #00A6FF",
">	c #00A5FF",
",	c #00A4FF",
"'	c #28AEFF",
")	c #00A2FF",
"!	c #00A1FF",
"~	c #22ADFF",
"{	c #00A0FF",
"]	c #009FFF",
"^	c #009EFF",
"/	c #00B0FF",
"(	c #009DFF",
"_	c #009CFF",
":	c #009BFF",
"<	c #009AFF",
"[	c #0099FF",
"}	c #0098FF",
"|	c #0096FF",
"1	c #0097FF",
"2	c #FF37FF",
"3	c #0095FF",
"4	c #0093FF",
"5	c #0092FF",
"6	c #0091FF",
"7	c #008FFF",
"8	c #008EFF",
"9	c #008DFF",
"0	c #008CFF",
"a	c #008BFF",
"b	c #008AFF",
"c	c #0089FF",
"d	c #0087FF",
"e	c #0090FF",
"f	c #0086FF",
"g	c #0088FF",
"h	c #0094FF",
"i	c #00B3FF",
"j	c #00B2FF",
"k	c #00B4FF",
"l	c #00B6FF",
"m	c #00BAFF",
"n	c #00BEFF",
"o	c #00BFFF",
"p	c #00C0FF",
"q	c #00C2FF",
"r	c #00C5FF",
"s	c #00CAFF",
"t	c #00CCFF",
"u	c #00D1FF",
"v	c #00D2FF",
"w	c #00B1FF",
"x	c #00B9FF",
"y	c #00C7FF",
"z	c #00CEFF",
"A	c #00D5FF",
"B	c #00DAFF",
"C	c #00E0FF",
"D	c #00E5FF",
"E	c #00E7FF",
"F	c #00E8FF",
"G	c #00BCFF",
"H	c #00D8FF",
"I	c #00EAFF",
"J	c #00F2FF",
"K	c #00F8FF",
"L	c #00FFFF",
"M	c #00DEFF",
"N	c #00F7FF",
"O	c #00C8FF",
"P	c #00E4FF",
"Q	c #00F5FF",
"R	c #FFFFFF",
"S	c #62ACFF",
"T	c #65ADFF",
"U	c #5AADFF",
"                           ..........                           ",
"                      ..+@##@$$###$$@##@.                       ",
"                    .@%@$&$*&&&===&&&*$&$@%.                    ",
"                  -@##$&&=;=>>;;,;;>>=;=&&$##+                  ",
"                '@@#$&*=;,..)))!!!)))..,;=*&$#@~                ",
"              .@##*=;>>.)!{!]]^^^^^]]!{!).>>;=*##.              ",
"             /%$$=;;.)!{]^(__:::::::__(^]{!).;;=$$-             ",
"            +#&&;>.)!]^(_<<[}}|111|}}[<<_(^]!).>;&&# 2          ",
"           @@$==>)!]^_:[}1|34555455543|1}[:_^]!)>==$@           ",
"          @$$=>.!!^_<[||45567889998876554||[<_^!!.>=$$          ",
"         @$**;.!](:[1355780abccdddccba0875531[:(]!.;**$ 2       ",
"        @$*;,){^_<}|5e80acffdgcaaacgdffca08e5|}<_^{),;*$        ",
"       +@$*,){^_[14670bgfc087e64446e780cfgb07641[_^{),*$@       ",
"      /#$=;){^:[|h69agda8eh|[<:(_(:<[|he8adga96h|[:^{);=$+      ",
"      %&=>.{^:[|570cfc863[_{)>;***;>){_[368cfc075|[:^{.>=&      ",
"     @$&=.!^_[|570ddae3<])*#%/ijkji/%#*)]<3eadd075|[_^!.=&$     ",
"    '#$;>!]_[|57agg84[^,&%ilmnopqponmli%&,^[48gga75|[_]!>;$~    ",
"    @#=>)!(<1h70gg8h<{*+kmorstuvvvutsromk+*{<h8gg07h1<(!)>=#    ",
"   -@*;.!^:}460dg83:)$wxoyzABCDEFEDCBAzyoxw$):38gd064}:^!.;*%   ",
"   @#=;)]_[|69cd8h:)#jGrzHCIJKLLLLLKJICHzrGj#):h8dc96|[_]);=#   ",
"  .#$;.!^<157afa4<)#knyvMINLLLLLLLLLLLNIMvynk#)<4afa751<^!.;$.  ",
"  @#&>)]_[3e0gce[{$jnOAPJLLLLLLLLLLLLLLLJPAOnj${[ecg0e3[_])>&#  ",
"  %$*>!^:|58bd83^*wGyADQLLLLLLRRRRRLLLLLLQDAyGw*^38db85|:^!>*$  ",
" .@&=.{([|50ga6<,+xrvPQLLLLRRRRRRRRRRRLLLLQPvrx+,<6ag05|[({.=&S ",
" .$&;)]_}47af83]&kozMJLLLLRRRRRRRRRRRRRLLLLJMzok&]38fa74}_]);&$ ",
" @&=,!^<158cce[)%myHILLLLRRRRRRRRRRRRRRRLLLLIHym%)[ecc851<^!,=& ",
" #$;.{(<|50f0h_*iozCNLLLRRRRRRRRRRRRRRRRRLLLNCzoi*_h0f05|<({.;$ ",
".#*=.!_[36af8|{#lrAILLLRRRRRRRRRRRRRRRRRRRLLLIArl#{|8fa63[_!.=*.",
".@&>)]_}47bd7[)%msBJLLLRRRRRRRRRRRRRRRRRRRLLLJBsm%)[7db74}_])>&.",
".$&>)]:}58cge<>/ntCKLLLRRRRRRRRRRRRRRRRRRRLLLKCtn/><egc85}:])>&.",
".$&;)^:|58cc6:;iouDLLLRRRRRRRRRRRRRRRRRRRRRLLLDuoi;:6cc85|:^);&.",
".#=;!^:159da4(*jpvELLLRRRRRRRRRRRRRRRRRRRRRLLLEvpj*(4ad951:^!;=.",
".#=,!^:149da4_*kqvFLLLRRRRRRRRRRRRRRRRRRRRRLLLFvqk*_4ad941:^!,=.",
".#=;!^:159da4(*jpvELLLRRRRRRRRRRRRRRRRRRRRRLLLEvpj*(4ad951:^!;=.",
".$&;)^:|58cc6:;iouDLLLRRRRRRRRRRRRRRRRRRRRRLLLDuoi;:6cc85|:^);&.",
".$&>)]:}58cge<>/ntCKLLLRRRRRRRRRRRRRRRRRRRLLLKCtn/><egc85}:])>&.",
".@&>)]_}47bd7[)%msBJLLLRRRRRRRRRRRRRRRRRRRLLLJBsm%)[7db74}_])>& ",
" #*=.!_[36af8|{#lrAILLLRRRRRRRRRRRRRRRRRRRLLLIArl#{|8fa63[_!.=* ",
" #$;.{(<|50f0h_*iozCNLLLRRRRRRRRRRRRRRRRRLLLNCzoi*_h0f05|<({.;$ ",
" @&=,!^<158cce[)%myHILLLLRRRRRRRRRRRRRRRLLLLIHym%)[ecc851<^!,=& ",
" T$&;)]_}47af83]&kozMJLLLLRRRRRRRRRRRRRLLLLJMzok&]38fa74}_]);&U ",
"  @&=.{([|50ga6<,+xrvPQLLLLRRRRRRRRRRRLLLLQPvrx+,<6ag05|[({.=&  ",
"  %$*>!^:|58bd83^*wGyADQLLLLLLRRRRRLLLLLLQDAyGw*^38db85|:^!>*$  ",
"  .#&>)]_[3e0gce[{$jnOAPJLLLLLLLLLLLLLLLJPAOnj${[ecg0e3[_])>&.  ",
"   #$;.!^<157afa4<)#knyvMINLLLLLLLLLLLNIMvynk#)<4afa751<^!.;$   ",
"   +#=;)]_[|69cd8h:)#jGrzHCIJKLLLLLKJICHzrGj#):h8dc96|[_]);=+   ",
"    @*;.!^:}460dg83:)$wxoyzABCDEFEDCBAzyoxw$):38gd064}:^!.;*    ",
"    ~#=>)!(<1h70gg8h<{*+kmorstuvvvutsromk+*{<h8gg07h1<(!)>=%    ",
"     #$;>!]_[|57agg84[^,&%ilmnopqponmli%&,^[48gga75|[_]!>;$     ",
"     .$&=.!^_[|570ddae3<])*#%/ijkji/%#*)]<3eadd075|[_^!.=&      ",
"      -&=>.{^:[|570cfc863[_{)>;***;>){_[368cfc075|[:^{.>=%      ",
"       #$=;){^:[|h69agda8eh|[<:(_(:<[|he8adga96h|[:^{);=$       ",
"        @$*,){^_[14670bgfc087e64446e780cfgb07641[_^{),*$        ",
"        .$*;,){^_<}|5e80acffdgcaaacgdffca08e5|}<_^{),;* 2       ",
"         .$**;.!](:[1355780abccdddccba0875531[:(]!.;**          ",
"          .$$=>.!!^_<[||45567889998876554||[<_^!!.>=$           ",
"            @$==>)!]^_:[}1|34555455543|1}[:_^]!)>==$            ",
"             +&&;>.)!]^(_<<[}}|111|}}[<<_(^]!).>;&%             ",
"              .$$=;;.)!{]^(__:::::::__(^]{!).;;=$               ",
"                ~#*=;>>.)!{!]]^^^^^]]!{!).>>;=*%                ",
"                  %#$&*=;,..)))!!!)))..,;=*&$+                  ",
"                    .#$&&=;=>>;;,;;>>=;=&&$.                    ",
"                       .$&$*&&&===&&&*$&.                       ",
"                           ..........                           "};
