/* XPM */
static char * \\wsl$\Ubuntu_20_04\home\kika75\Projet11\cub3d\bonus\imgs\s_blue\blue4_xpm[] = {
"64 64 85 1",
" 	c #FF00FF",
".	c #00B1FF",
"+	c #6BB7FF",
"@	c #00BDFF",
"#	c #00BEFF",
"$	c #00BFFF",
"%	c #00BCFF",
"&	c #63B8FF",
"*	c #56B8FF",
"=	c #4CB9FF",
"-	c #62B8FF",
";	c #00BBFF",
">	c #00B9FF",
",	c #00BAFF",
"'	c #59B8FF",
")	c #00B8FF",
"!	c #00B6FF",
"~	c #00B7FF",
"{	c #00B4FF",
"]	c #00B5FF",
"^	c #00B3FF",
"/	c #00B0FF",
"(	c #00AEFF",
"_	c #00ADFF",
":	c #00ACFF",
"<	c #00ABFF",
"[	c #00B2FF",
"}	c #00AFFF",
"|	c #00AAFF",
"1	c #00A9FF",
"2	c #00A8FF",
"3	c #00A7FF",
"4	c #00A6FF",
"5	c #00A5FF",
"6	c #00A4FF",
"7	c #00A3FF",
"8	c #00A2FF",
"9	c #00A1FF",
"0	c #00A0FF",
"a	c #009EFF",
"b	c #009FFF",
"c	c #009CFF",
"d	c #009BFF",
"e	c #009AFF",
"f	c #009DFF",
"g	c #0099FF",
"h	c #00C1FF",
"i	c #00C3FF",
"j	c #00C7FF",
"k	c #00CBFF",
"l	c #00CDFF",
"m	c #00D0FF",
"n	c #00D2FF",
"o	c #00D3FF",
"p	c #00C9FF",
"q	c #00D6FF",
"r	c #00DCFF",
"s	c #00E0FF",
"t	c #00E3FF",
"u	c #00E4FF",
"v	c #00E6FF",
"w	c #00C0FF",
"x	c #00C8FF",
"y	c #00D9FF",
"z	c #00E7FF",
"A	c #00EFFF",
"B	c #00F5FF",
"C	c #00F8FF",
"D	c #00FBFF",
"E	c #00FDFF",
"F	c #00CCFF",
"G	c #00EAFF",
"H	c #00FEFF",
"I	c #00FFFF",
"J	c #00C2FF",
"K	c #00F2FF",
"L	c #57B7FF",
"M	c #00DAFF",
"N	c #00F7FF",
"O	c #FFFFFF",
"P	c #49B8FF",
"Q	c #61B7FF",
"R	c #58B7FF",
"S	c #3DB8FF",
"T	c #4DB8FF",
"                           .+@#$$#%&.                           ",
"                       *$##@@@%%%%%@@@##=                       ",
"                    -##@%%;;;>>,,,>>;;;%%@#'                    ",
"                  $#@%%;>,>>)))))))))>>,>;%%@@                  ",
"                %#@%;>>>)!~!!{{{{{{{!!~!)>>>;%@;                ",
"               #@%;,>)~!{]^{^^.....^^{^]{!~)>,;%@               ",
"             ##%;,>)~!]{^././/(((((//./.^{]!~)>,;%@             ",
"            $@%;>)~{^^../(_(::<<<<<::(_(/..^^{~)>;%@            ",
"           #@;,>!!^^[}(_:<|11223332211|<:_(}[^^!!>,;@           ",
"          #@;,)~{{.}((<|12445666666654421|<((}.{{~),;@          ",
"         #@;>)!^^/((<<245678900aaa009876542<<((/^^!)>;@         ",
"        #@;>)!^.}}:|245700bcdcedddecdcb007542|:}}.^!)>;@        ",
"       $@;>)!{./_<13579afcgedffaaaffdegcfa97531<_/.{!)>;@       ",
"      #@;,)!{./(|2460afdec085312|213580cedfa0642|(/.{!),;@      ",
"      #%,)!^./:|2570aegf84|:/.{{!{{./:|48fgea0752|:/.^!),%.     ",
"     #%;>~^./(|258afgc93</{)%$hiiih$%){/<39cgfa852|(/.^~>;%     ",
"    %@;>!{^}_|258adea5</~%hjklmnonmlkjh%~/<5aeda852|_}^{!>;;    ",
"    #%,)!{/}<258acg03_{%ipmqrstuvutsrqmpi%{_30gca852<}/{!),%    ",
"   $@;>~^.(:147adg91/)wxmyszABCDEDCBAzsymxw)/19gda741:(.^~>;%   ",
"   #%,){^}(|360fe01/>iFqsGBHIIIIIIIIIHBGsqFi>/10ef063|(}^{),%   ",
"  -@;>~^[(<250aga3/>JlyvKHIIIIIIIIIIIIIHKvylJ>/3aga052<([^~>;L  ",
"  #%>)!^}(<47aec5_)ilMzNIIIIIIIIIIIIIIIIINzMli)_5cea74<(}^!)>%  ",
"  #%>~].(<259fg9<{wFyzCIIIIIIIIIIIIIIIIIIICzyFw{<9gf952<(.]~>%  ",
" *@;>!{._|47adf3/%xqvNIIIIIIOOOOOOOOOIIIIIINvqx%/3fda74|_.{!>;P ",
" $%>){^/:150fe8<~imsKIIIIIIOOOOOOOOOOOIIIIIIKsmi~<8ef051:/^{)>% ",
" #%,!].(<260cc4/%pyGHIIIIOOOOOOOOOOOOOOOIIIIHGyp%/4cc062<(.]!,% ",
" #;>~^/_|47bg0|{hmsBIIIIIOOOOOOOOOOOOOOOIIIIIBsmh{|0gb74|_/^~>; ",
".@;>!{.(148ce8:)jqzHIIIIOOOOOOOOOOOOOOOOOIIIIHzqj):8ec841(.{!>;.",
".@;)!^/:159dd5/%krAIIIIOOOOOOOOOOOOOOOOOOOIIIIArk%/5dd951:/^!);Q",
".@>){^/:260cf3.$lsBIIIIOOOOOOOOOOOOOOOOOOOIIIIBsl$.3fc062:/^{)>%",
".%>){.(<260ef1{hmtCIIIIOOOOOOOOOOOOOOOOOOOIIIICtmh{1fe062<(.{)>%",
".%,){.(<36ada2{inuDIIIIOOOOOOOOOOOOOOOOOOOIIIIDuni{2ada63<(.{),@",
".%,){.(<36ada|!iovEIIIIOOOOOOOOOOOOOOOOOOOIIIIEvoi!|ada63<(.{),@",
".%,){.(<36ada2{inuDIIIIOOOOOOOOOOOOOOOOOOOIIIIDuni{2ada63<(.{),%",
".%>){.(<260ef1{hmtCIIIIOOOOOOOOOOOOOOOOOOOIIIICtmh{1fe062<(.{)>%",
".@>){^/:260cf3.$lsBIIIIOOOOOOOOOOOOOOOOOOOIIIIBsl$.3fc062:/^{)>R",
".@;)!^/:159dd5/%krAIIIIOOOOOOOOOOOOOOOOOOOIIIIArk%/5dd951:/^!);.",
" @;>!{.(148ce8:)jqzHIIIIOOOOOOOOOOOOOOOOOIIIIHzqj):8ec841(.{!>; ",
" #;>~^/_|47bg0|{hmsBIIIIIOOOOOOOOOOOOOOOIIIIIBsmh{|0gb74|_/^~>; ",
" #%,!].(<260cc4/%pyGHIIIIOOOOOOOOOOOOOOOIIIIHGyp%/4cc062<(.]!,% ",
" =%>){^/:150fe8<~imsKIIIIIIOOOOOOOOOOOIIIIIIKsmi~<8ef051:/^{)>S ",
"  @;>!{._|47adf3/%xqvNIIIIIIOOOOOOOOOIIIIIINvqx%/3fda74|_.{!>;  ",
"  #%>~].(<259fg9<{wFyzCIIIIIIIIIIIIIIIIIIICzyFw{<9gf952<(.]~>%  ",
"  '%>)!^}(<47aec5_)ilMzNIIIIIIIIIIIIIIIIINzMli)_5cea74<(}^!)>T  ",
"   @;>~^[(<250aga3/>JlyvKHIIIIIIIIIIIIIHKvylJ>/3aga052<([^~>;   ",
"   @%,){^}(|360fe01/>iFqsGBHIIIIIIIIIHBGsqFi>/10ef063|(}^{),;   ",
"    @;>~^.(:147adg91/)wxmyszABCDEDCBAzsymxw)/19gda741:(.^~>;    ",
"    ;%,)!{/}<258acg03_{%ipmqrstuvutsrqmpi%{_30gca852<}/{!),,    ",
"     @;>!{^}_|258adea5</~%hjklmnonmlkjh%~/<5aeda852|_}^{!>;     ",
"     .%;>~^./(|258afgc93</{)%$hiiih$%){/<39cgfa852|(/.^~>;.     ",
"      @%,)!^./:|2570aegf84|:/.{{!{{./:|48fgea0752|:/.^!),%      ",
"       @;,)!{./(|2460afdec085312|213580cedfa0642|(/.{!),;       ",
"        @;>)!{./_<13579afcgedffaaaffdegcfa97531<_/.{!)>;        ",
"         @;>)!^.}}:|245700bcdcedddecdcb007542|:}}.^!)>;         ",
"          @;>)!^^/((<<245678900aaa009876542<<((/^^!)>;          ",
"           @;,)~{{.}((<|12445666666654421|<((}.{{~),;           ",
"            @;,>!!^^[}(_:<|11223332211|<:_(}[^^!!>,;            ",
"             @%;>)~{^^../(_(::<<<<<::(_(/..^^{~)>;%             ",
"              .%;,>)~!]{^././/(((((//./.^{]!~)>,;.              ",
"                ;%;,>)~!{]^{^^.....^^{^]{!~)>,;,                ",
"                  %%;>>>)!~!!{{{{{{{!!~!)>>>;;                  ",
"                    L%%;>,>>)))))))))>>,>;%T                    ",
"                       P%%;;;>>,,,>>;;;%S                       ",
"                           .Q%%@@%%R.                           "};
