/* XPM */
static char * blue0_xpm[] = {
"64 64 108 2",
"  	c #FF00FF",
". 	c #008AFF",
"+ 	c #3B95FF",
"@ 	c #0091FF",
"# 	c #008DFF",
"$ 	c #2D95FF",
"% 	c #FF30FF",
"& 	c #008CFF",
"* 	c #008BFF",
"= 	c #0089FF",
"- 	c #0087FF",
"; 	c #0086FF",
"> 	c #0085FF",
", 	c #0084FF",
"' 	c #FF1FFF",
") 	c #0083FF",
"! 	c #0082FF",
"~ 	c #0081FF",
"{ 	c #0094FF",
"] 	c #FE29FF",
"^ 	c #0080FF",
"/ 	c #007FFF",
"( 	c #007EFF",
"_ 	c #007DFF",
": 	c #FF18FF",
"< 	c #007BFF",
"[ 	c #007AFF",
"} 	c #0079FF",
"| 	c #0078FF",
"1 	c #0077FF",
"2 	c #0076FF",
"3 	c #0075FF",
"4 	c #0074FF",
"5 	c #0073FF",
"6 	c #0070FF",
"7 	c #006FFF",
"8 	c #006EFF",
"9 	c #006DFF",
"0 	c #FF36FF",
"a 	c #006CFF",
"b 	c #0069FF",
"c 	c #0068FF",
"d 	c #006BFF",
"e 	c #0071FF",
"f 	c #008EFF",
"g 	c #1E93FF",
"h 	c #0090FF",
"i 	c #0093FF",
"j 	c #0095FF",
"k 	c #0096FF",
"l 	c #009AFF",
"m 	c #009DFF",
"n 	c #009EFF",
"o 	c #00A0FF",
"p 	c #00A1FF",
"q 	c #008FFF",
"r 	c #0097FF",
"s 	c #00A4FF",
"t 	c #00A6FF",
"u 	c #24A9FF",
"v 	c #31ABFF",
"w 	c #36ACFF",
"x 	c #009CFF",
"y 	c #2BAAFF",
"z 	c #3FAFFF",
"A 	c #4DB3FF",
"B 	c #54B5FF",
"C 	c #5CB8FF",
"D 	c #5FB9FF",
"E 	c #0099FF",
"F 	c #009FFF",
"G 	c #00A5FF",
"H 	c #46B1FF",
"I 	c #57B6FF",
"J 	c #64BBFF",
"K 	c #6EBFFF",
"L 	c #77C3FF",
"M 	c #7BC5FF",
"N 	c #80C7FF",
"O 	c #12A7FF",
"P 	c #67BCFF",
"Q 	c #82C8FF",
"R 	c #8DCEFF",
"S 	c #95D3FF",
"T 	c #9AD6FF",
"U 	c #9DD8FF",
"V 	c #9FD9FF",
"W 	c #73C1FF",
"X 	c #84C9FF",
"Y 	c #93D2FF",
"Z 	c #A9DFFF",
"` 	c #B1E4FF",
" .	c #B8E8FF",
"..	c #BCEBFF",
"+.	c #BEECFF",
"@.	c #4AB2FF",
"#.	c #79C4FF",
"$.	c #ADE1FF",
"%.	c #BBEAFF",
"&.	c #C7F2FF",
"*.	c #FFFFFF",
"=.	c #91D0FF",
"-.	c #A4DCFF",
";.	c #B6E7FF",
">.	c #C8F3FF",
",.	c #A6DDFF",
"'.	c #2093FF",
").	c #2694FF",
"                                                        . + @ # # @ $ .                                                         ",
"                                          %   . & * * . . = = = = = = = . . * * .                                               ",
"                                        . & * . = - ; ; > > > , , , > > > ; ; - = . * .                                         ",
"                                '   . * . = - ; > , ) ! ! ~ ~ ~ ~ ~ ~ ~ ! ! ) , > ; - = . {                                     ",
"                              ] . * . - ; > ) ! ~ ^ / ( ( _ _ _ _ _ _ _ ( ( / ^ ~ ! ) > ; - . .                                 ",
"                          :   & . - ; , ) ~ ^ / _ < [ } } | | | 1 | | | } } [ < _ / ^ ~ ) , ; - .                               ",
"                          . * = ; , ) ~ / ( < [ | 1 2 3 4 4 5 5 5 5 5 4 4 3 2 1 | [ < ( / ~ ) , ; = .                           ",
"                        & . - > ) ~ / _ < } 1 3 4 5 6 7 8 8 9 9 9 9 9 8 8 7 6 5 4 3 1 } < _ / ~ ) > - .   0                     ",
"                      & . - , ! ^ ( < } 1 3 5 6 8 9 a b c c b b b b b c c b a 9 8 6 5 3 1 } < ( ^ ! , - .                       ",
"                    & = ; , ~ / _ } 1 3 5 7 9 d c b a 9 8 7 7 6 6 6 7 7 8 9 a b c d 9 7 5 3 1 } _ / ~ , ; =                     ",
"              0   & = ; ) ~ ( < | 2 5 6 9 d b a 8 7 e 5 4 3 2 2 1 2 2 3 4 5 e 7 8 a b d 9 6 5 2 | < ( ~ ) ; =   0               ",
"                & = ; ) ~ ( [ | 3 e 8 d c a 8 e 4 2 | } < _ _ ( ( ( _ _ < } | 2 4 e 8 a c d 8 e 3 | [ ( ~ ) ; =                 ",
"              & . ; ) ~ ( [ 1 4 6 9 b d 8 e 4 1 } _ / ~ ! ) , > > > , ) ! ~ / _ } 1 4 e 8 d b 9 6 4 1 [ ( ~ ) ; .               ",
"            . . - , ~ ( [ 1 4 7 a c a 6 4 1 [ ( ~ ) ; = . & # f f f # & . = ; ) ~ ( [ 1 4 6 a c a 7 4 1 [ ( ~ , - g             ",
"            * - , ~ ( [ 1 4 7 a b 9 e 3 } _ ~ , - * f h i { j k k k j { i h f * - , ~ _ } 3 e 9 b a 7 4 1 [ ( ~ , -             ",
"          & = > ! / < | 4 7 a b 8 5 2 [ / ) - & h i k l m n o p p p o n m l k i h & - ) / [ 2 5 8 b a 7 4 | < / ! > =           ",
"        . . ; ) ^ _ | 3 6 a b 8 5 1 < ~ > . q i r m o s t u v w w w v u t s o m r i q . > ~ < 1 5 8 b a 6 3 | _ ^ ) ; .         ",
"        * - , ~ ( } 2 e 9 c 9 5 1 _ ~ ; & @ k x p t y z A B C D D D C B A z y t p x k @ & ; ~ _ 1 5 9 c 9 e 2 } ( ~ , -         ",
"      j . ; ) / < 1 5 8 b a e 2 < ~ - # i E F G v H I J K L M N N N M L K J I H v G F E i # - ~ < 2 e a b 8 5 1 < / ) ; .       ",
"      * - , ~ _ } 3 6 d d 6 3 [ ~ ; # i l p O z I P L Q R S T U V U T S R Q L P I z O p l i # ; ~ [ 3 6 d d 6 3 } _ ~ , -       ",
"    . . ; ) / < 1 5 9 c 8 4 } / > & i l p u H D W X Y V Z `  ...+... .` Z V Y X W D H u p l i & > / } 4 8 c 9 5 1 < / ) ; .     ",
"    & = > ~ ( } 3 7 d a e 1 _ ) . @ E p u @.J #.R U $.%.&.*.*.*.*.*.*.*.&.%.$.U R #.J @.u p E @ . ) _ 1 e a d 7 3 } ( ~ > =     ",
"    * - ) ^ < 1 5 9 b 8 4 [ ~ - q k F O H J M =.-.;.>.*.*.*.*.*.*.*.*.*.*.*.>.;.-.=.M J H O F k q - ~ [ 4 8 b 9 5 1 < ^ ) -     ",
"  . . ; ! / [ 3 6 d a e 1 ( , & i x G z D #.=.,...*.*.*.*.*.*.*.*.*.*.*.*.*.*.*...,.=.#.D z G x i & , ( 1 e a d 6 3 [ / ! ; .   ",
"  & = > ~ _ | 4 8 c 8 4 } ~ - h r p v I W R -...*.*.*.*.*.*.*.*.*.*.*.*.*.*.*.*.*...-.R W I v p r h - ~ } 4 8 c 8 4 | _ ~ > =   ",
"  * - , ^ < 1 5 9 b 7 2 _ ) * i m t H P X U ;.*.*.*.*.*.*.*.*.*.*.*.*.*.*.*.*.*.*.*.;.U X P H t m i * ) _ 2 7 b 9 5 1 < ^ , -   ",
"  * ; ) / [ 2 6 a a e | / ; f k o y I L Y $.>.*.*.*.*.*.*.*.*.*.*.*.*.*.*.*.*.*.*.*.>.$.Y L I y o k f ; / | e a a 6 2 [ / ) ;   ",
"  . ; ! ( } 3 7 b 9 5 } ~ = h l s z J Q V %.*.*.*.*.*.*.*.*.*.*.*.*.*.*.*.*.*.*.*.*.*.%.V Q J z s l h = ~ } 5 9 b 7 3 } ( ! ; . ",
". . > ! ( } 4 8 c 8 4 < ! . i m t A K R Z &.*.*.*.*.*.*.*.*.*.*.*.*.*.*.*.*.*.*.*.*.*.&.Z R K A t m i . ! < 4 8 c 8 4 } ( ! > . ",
"+ = > ~ _ | 4 8 c 7 3 _ ) & { n u B L S ` *.*.*.*.*.*.*.*.*.*.*.*.*.*.*.*.*.*.*.*.*.*.*.` S L B u n { & ) _ 3 7 c 8 4 | _ ~ > '.",
"@ = > ~ _ | 5 9 b 7 2 _ , # j o v C M T  .*.*.*.*.*.*.*.*.*.*.*.*.*.*.*.*.*.*.*.*.*.*.*. .T M C v o j # , _ 2 7 b 9 5 | _ ~ > f ",
"# = , ~ _ | 5 9 b 6 2 ( > f k p w D N U ..*.*.*.*.*.*.*.*.*.*.*.*.*.*.*.*.*.*.*.*.*.*.*...U N D w p k f > ( 2 6 b 9 5 | _ ~ , = ",
"# = , ~ _ 1 5 9 b 6 1 ( > f k p w D N V +.*.*.*.*.*.*.*.*.*.*.*.*.*.*.*.*.*.*.*.*.*.*.*.+.V N D w p k f > ( 1 6 b 9 5 1 _ ~ , = ",
"@ = , ~ _ | 5 9 b 6 2 ( > f k p w D N U ..*.*.*.*.*.*.*.*.*.*.*.*.*.*.*.*.*.*.*.*.*.*.*...U N D w p k f > ( 2 6 b 9 5 | _ ~ , f ",
"$ = > ~ _ | 5 9 b 7 2 _ , # j o v C M T  .*.*.*.*.*.*.*.*.*.*.*.*.*.*.*.*.*.*.*.*.*.*.*. .T M C v o j # , _ 2 7 b 9 5 | _ ~ > '.",
". = > ~ _ | 4 8 c 7 3 _ ) & { n u B L S ` *.*.*.*.*.*.*.*.*.*.*.*.*.*.*.*.*.*.*.*.*.*.*.` S L B u n { & ) _ 3 7 c 8 4 | _ ~ > . ",
". . > ! ( } 4 8 c 8 4 < ! . i m t A K R Z &.*.*.*.*.*.*.*.*.*.*.*.*.*.*.*.*.*.*.*.*.*.&.Z R K A t m i . ! < 4 8 c 8 4 } ( ! > . ",
"  . ; ! ( } 3 7 b 9 5 } ~ = h l s z J Q V %.*.*.*.*.*.*.*.*.*.*.*.*.*.*.*.*.*.*.*.*.*.%.V Q J z s l h = ~ } 5 9 b 7 3 } ( ! ;   ",
"  * ; ) / [ 2 6 a a e | / ; f k o y I L Y $.>.*.*.*.*.*.*.*.*.*.*.*.*.*.*.*.*.*.*.*.>.$.Y L I y o k f ; / | e a a 6 2 [ / ) ;   ",
"  * - , ^ < 1 5 9 b 7 2 _ ) * i m t H P X U ;.*.*.*.*.*.*.*.*.*.*.*.*.*.*.*.*.*.*.*.;.U X P H t m i * ) _ 2 7 b 9 5 1 < ^ , -   ",
"  . = > ~ _ | 4 8 c 8 4 } ~ - h r p v I W R -...*.*.*.*.*.*.*.*.*.*.*.*.*.*.*.*.*...-.R W I v p r h - ~ } 4 8 c 8 4 | _ ~ > .   ",
"    . ; ! / [ 3 6 d a e 1 ( , & i x G z D #.=.,...*.*.*.*.*.*.*.*.*.*.*.*.*.*.*...,.=.#.D z G x i & , ( 1 e a d 6 3 [ / ! ;     ",
"    * - ) ^ < 1 5 9 b 8 4 [ ~ - q k F O H J M =.-.;.>.*.*.*.*.*.*.*.*.*.*.*.>.;.-.=.M J H O F k q - ~ [ 4 8 b 9 5 1 < ^ ) -     ",
"    . = > ~ ( } 3 7 d a e 1 _ ) . @ E p u @.J #.R U $.%.&.*.*.*.*.*.*.*.&.%.$.U R #.J @.u p E @ . ) _ 1 e a d 7 3 } ( ~ > .     ",
"      . ; ) / < 1 5 9 c 8 4 } / > & i l p u H D W X Y V Z `  ...+... .` Z V Y X W D H u p l i & > / } 4 8 c 9 5 1 < / ) ;       ",
"      . - , ~ _ } 3 6 d d 6 3 [ ~ ; # i l p O z I P L Q R S T U V U T S R Q L P I z O p l i # ; ~ [ 3 6 d d 6 3 } _ ~ , .       ",
"        . ; ) / < 1 5 8 b a e 2 < ~ - # i E F G v H I J K L M N N N M L K J I H v G F E i # - ~ < 2 e a b 8 5 1 < / ) ;         ",
"        . - , ~ ( } 2 e 9 c 9 5 1 _ ~ ; & @ k x p t y z A B C D D D C B A z y t p x k @ & ; ~ _ 1 5 9 c 9 e 2 } ( ~ , .         ",
"          . ; ) ^ _ | 3 6 a b 8 5 1 < ~ > . q i r m o s t u v w w w v u t s o m r i q . > ~ < 1 5 8 b a 6 3 | _ ^ ) ;           ",
"            = > ! / < | 4 7 a b 8 5 2 [ / ) - & h i k l m n o p p p o n m l k i h & - ) / [ 2 5 8 b a 7 4 | < / ! >             ",
"            ).- , ~ ( [ 1 4 7 a b 9 e 3 } _ ~ , - * f h i { j k k k j { i h f * - , ~ _ } 3 e 9 b a 7 4 1 [ ( ~ , .             ",
"              . - , ~ ( [ 1 4 7 a c a 6 4 1 [ ( ~ ) ; = . & # f f f # & . = ; ) ~ ( [ 1 4 6 a c a 7 4 1 [ ( ~ , -               ",
"                . ; ) ~ ( [ 1 4 6 9 b d 8 e 4 1 } _ / ~ ! ) , > > > , ) ! ~ / _ } 1 4 e 8 d b 9 6 4 1 [ ( ~ ) ;                 ",
"              0   = ; ) ~ ( [ | 3 e 8 d c a 8 e 4 2 | } < _ _ ( ( ( _ _ < } | 2 4 e 8 a c d 8 e 3 | [ ( ~ ) ;                   ",
"                    = ; ) ~ ( < | 2 5 6 9 d b a 8 7 e 5 4 3 2 2 1 2 2 3 4 5 e 7 8 a b d 9 6 5 2 | < ( ~ ) ;                     ",
"                      = ; , ~ / _ } 1 3 5 7 9 d c b a 9 8 7 7 6 6 6 7 7 8 9 a b c d 9 7 5 3 1 } _ / ~ , ;                       ",
"                    0   . - , ! ^ ( < } 1 3 5 6 8 9 a b c c b b b b b c c b a 9 8 6 5 3 1 } < ( ^ ! , -   0                     ",
"                          . - > ) ~ / _ < } 1 3 4 5 6 7 8 8 9 9 9 9 9 8 8 7 6 5 4 3 1 } < _ / ~ ) > .                           ",
"                              = ; , ) ~ / ( < [ | 1 2 3 4 4 5 5 5 5 5 4 4 3 2 1 | [ < ( / ~ ) , ;                               ",
"                                . - ; , ) ~ ^ / _ < [ } } | | | 1 | | | } } [ < _ / ^ ~ ) , ; .                                 ",
"                                    . - ; > ) ! ~ ^ / ( ( _ _ _ _ _ _ _ ( ( / ^ ~ ! ) > ; .                                     ",
"                                        . = - ; > , ) ! ! ~ ~ ~ ~ ~ ~ ~ ! ! ) , > ; - .                                         ",
"                                              . = - ; ; > > > , , , > > > ; ; - .                                               ",
"                                                        . . f = . . . . .                                                       "};
