/* XPM */
static char * \\wsl$\Ubuntu_20_04\home\kika75\Projet11\cub3d\bonus\imgs\s_blue\blue3_xpm[] = {
"64 64 85 1",
" 	c #FF00FF",
".	c #00A3FF",
"+	c #00AEFF",
"@	c #00ACFF",
"#	c #00ABFF",
"$	c #00AAFF",
"%	c #00ADFF",
"&	c #00A9FF",
"*	c #00A8FF",
"=	c #00A7FF",
"-	c #00AFFF",
";	c #00A6FF",
">	c #00A5FF",
",	c #00A4FF",
"'	c #28AEFF",
")	c #00A2FF",
"!	c #00A1FF",
"~	c #22ADFF",
"{	c #00A0FF",
"]	c #009FFF",
"^	c #009EFF",
"/	c #00B0FF",
"(	c #009DFF",
"_	c #009CFF",
":	c #009BFF",
"<	c #009AFF",
"[	c #0099FF",
"}	c #0098FF",
"|	c #0096FF",
"1	c #0097FF",
"2	c #0095FF",
"3	c #0093FF",
"4	c #0092FF",
"5	c #0091FF",
"6	c #008FFF",
"7	c #008EFF",
"8	c #008DFF",
"9	c #008CFF",
"0	c #008BFF",
"a	c #008AFF",
"b	c #0089FF",
"c	c #0087FF",
"d	c #0090FF",
"e	c #0086FF",
"f	c #0088FF",
"g	c #0094FF",
"h	c #00B3FF",
"i	c #00B2FF",
"j	c #00B4FF",
"k	c #00B6FF",
"l	c #00BAFF",
"m	c #00BEFF",
"n	c #00BFFF",
"o	c #00C0FF",
"p	c #00C2FF",
"q	c #00C5FF",
"r	c #00CAFF",
"s	c #00CCFF",
"t	c #00D1FF",
"u	c #00D2FF",
"v	c #00B1FF",
"w	c #00B9FF",
"x	c #00C7FF",
"y	c #00CEFF",
"z	c #00D5FF",
"A	c #00DAFF",
"B	c #00E0FF",
"C	c #00E5FF",
"D	c #00E7FF",
"E	c #00E8FF",
"F	c #00BCFF",
"G	c #00D8FF",
"H	c #00EAFF",
"I	c #00F2FF",
"J	c #00F8FF",
"K	c #00FFFF",
"L	c #00DEFF",
"M	c #00F7FF",
"N	c #00C8FF",
"O	c #00E4FF",
"P	c #00F5FF",
"Q	c #FFFFFF",
"R	c #62ACFF",
"S	c #65ADFF",
"T	c #5AADFF",
"                           ..........                           ",
"                      ..+@##@$$###$$@##@.                       ",
"                    .@%@$&$*&&&===&&&*$&$@%.                    ",
"                  -@##$&&=;=>>;;,;;>>=;=&&$##+                  ",
"                '@@#$&*=;,..)))!!!)))..,;=*&$#@~                ",
"              .@##*=;>>.)!{!]]^^^^^]]!{!).>>;=*##.              ",
"             /%$$=;;.)!{]^(__:::::::__(^]{!).;;=$$-             ",
"            +#&&;>.)!]^(_<<[}}|111|}}[<<_(^]!).>;&&#            ",
"           @@$==>)!]^_:[}1|23444344432|1}[:_^]!)>==$@           ",
"          @$$=>.!!^_<[||34456778887765443||[<_^!!.>=$$          ",
"         @$**;.!](:[12446790abbcccbba09764421[:(]!.;**$         ",
"        @$*;,){^_<}|4d790beecfb000bfceeb097d4|}<_^{),;*$        ",
"       +@$*,){^_[13569afeb976d53335d679befa96531[_^{),*$@       ",
"      /#$=;){^:[|g580fc07dg|[<:(_(:<[|gd70cf085g|[:^{);=$+      ",
"      %&=>.{^:[|469beb752[_{)>;***;>){_[257beb964|[:^{.>=&      ",
"     @$&=.!^_[|469cc0d2<])*#%/hijih/%#*)]<2d0cc964|[_^!.=&$     ",
"    '#$;>!]_[|460ff73[^,&%hklmnoponmlkh%&,^[37ff064|[_]!>;$~    ",
"    @#=>)!(<1g69ff7g<{*+jlnqrstuuutsrqnlj+*{<g7ff96g1<(!)>=#    ",
"   -@*;.!^:}359cf72:)$vwnxyzABCDEDCBAzyxnwv$):27fc953}:^!.;*%   ",
"   @#=;)]_[|58bc7g:)#iFqyGBHIJKKKKKJIHBGyqFi#):g7cb85|[_]);=#   ",
"  .#$;.!^<1460e03<)#jmxuLHMKKKKKKKKKKKMHLuxmj#)<30e0641<^!.;$.  ",
"  @#&>)]_[2d9fbd[{$imNzOIKKKKKKKKKKKKKKKIOzNmi${[dbf9d2[_])>&#  ",
"  %$*>!^:|47ac72^*vFxzCPKKKKKKQQQQQKKKKKKPCzxFv*^27ca74|:^!>*$  ",
" .@&=.{([|49f05<,+wquOPKKKKQQQQQQQQQQQKKKKPOuqw+,<50f94|[({.=&R ",
" .$&;)]_}360e72]&jnyLIKKKKQQQQQQQQQQQQQKKKKILynj&]27e063}_]);&$ ",
" @&=,!^<147bbd[)%lxGHKKKKQQQQQQQQQQQQQQQKKKKHGxl%)[dbb741<^!,=& ",
" #$;.{(<|49e9g_*hnyBMKKKQQQQQQQQQQQQQQQQQKKKMBynh*_g9e94|<({.;$ ",
".#*=.!_[250e7|{#kqzHKKKQQQQQQQQQQQQQQQQQQQKKKHzqk#{|7e052[_!.=*.",
".@&>)]_}36ac6[)%lrAIKKKQQQQQQQQQQQQQQQQQQQKKKIArl%)[6ca63}_])>&.",
".$&>)]:}47bfd<>/msBJKKKQQQQQQQQQQQQQQQQQQQKKKJBsm/><dfb74}:])>&.",
".$&;)^:|47bb5:;hntCKKKQQQQQQQQQQQQQQQQQQQQQKKKCtnh;:5bb74|:^);&.",
".#=;!^:148c03(*iouDKKKQQQQQQQQQQQQQQQQQQQQQKKKDuoi*(30c841:^!;=.",
".#=,!^:138c03_*jpuEKKKQQQQQQQQQQQQQQQQQQQQQKKKEupj*_30c831:^!,=.",
".#=;!^:148c03(*iouDKKKQQQQQQQQQQQQQQQQQQQQQKKKDuoi*(30c841:^!;=.",
".$&;)^:|47bb5:;hntCKKKQQQQQQQQQQQQQQQQQQQQQKKKCtnh;:5bb74|:^);&.",
".$&>)]:}47bfd<>/msBJKKKQQQQQQQQQQQQQQQQQQQKKKJBsm/><dfb74}:])>&.",
".@&>)]_}36ac6[)%lrAIKKKQQQQQQQQQQQQQQQQQQQKKKIArl%)[6ca63}_])>& ",
" #*=.!_[250e7|{#kqzHKKKQQQQQQQQQQQQQQQQQQQKKKHzqk#{|7e052[_!.=* ",
" #$;.{(<|49e9g_*hnyBMKKKQQQQQQQQQQQQQQQQQKKKMBynh*_g9e94|<({.;$ ",
" @&=,!^<147bbd[)%lxGHKKKKQQQQQQQQQQQQQQQKKKKHGxl%)[dbb741<^!,=& ",
" S$&;)]_}360e72]&jnyLIKKKKQQQQQQQQQQQQQKKKKILynj&]27e063}_]);&T ",
"  @&=.{([|49f05<,+wquOPKKKKQQQQQQQQQQQKKKKPOuqw+,<50f94|[({.=&  ",
"  %$*>!^:|47ac72^*vFxzCPKKKKKKQQQQQKKKKKKPCzxFv*^27ca74|:^!>*$  ",
"  .#&>)]_[2d9fbd[{$imNzOIKKKKKKKKKKKKKKKIOzNmi${[dbf9d2[_])>&.  ",
"   #$;.!^<1460e03<)#jmxuLHMKKKKKKKKKKKMHLuxmj#)<30e0641<^!.;$   ",
"   +#=;)]_[|58bc7g:)#iFqyGBHIJKKKKKJIHBGyqFi#):g7cb85|[_]);=+   ",
"    @*;.!^:}359cf72:)$vwnxyzABCDEDCBAzyxnwv$):27fc953}:^!.;*    ",
"    ~#=>)!(<1g69ff7g<{*+jlnqrstuuutsrqnlj+*{<g7ff96g1<(!)>=%    ",
"     #$;>!]_[|460ff73[^,&%hklmnoponmlkh%&,^[37ff064|[_]!>;$     ",
"     .$&=.!^_[|469cc0d2<])*#%/hijih/%#*)]<2d0cc964|[_^!.=&      ",
"      -&=>.{^:[|469beb752[_{)>;***;>){_[257beb964|[:^{.>=%      ",
"       #$=;){^:[|g580fc07dg|[<:(_(:<[|gd70cf085g|[:^{);=$       ",
"        @$*,){^_[13569afeb976d53335d679befa96531[_^{),*$        ",
"        .$*;,){^_<}|4d790beecfb000bfceeb097d4|}<_^{),;*         ",
"         .$**;.!](:[12446790abbcccbba09764421[:(]!.;**          ",
"          .$$=>.!!^_<[||34456778887765443||[<_^!!.>=$           ",
"            @$==>)!]^_:[}1|23444344432|1}[:_^]!)>==$            ",
"             +&&;>.)!]^(_<<[}}|111|}}[<<_(^]!).>;&%             ",
"              .$$=;;.)!{]^(__:::::::__(^]{!).;;=$               ",
"                ~#*=;>>.)!{!]]^^^^^]]!{!).>>;=*%                ",
"                  %#$&*=;,..)))!!!)))..,;=*&$+                  ",
"                    .#$&&=;=>>;;,;;>>=;=&&$.                    ",
"                       .$&$*&&&===&&&*$&.                       ",
"                           ..........                           "};
