/* XPM */
static char * blue6_xpm[] = {
"64 64 126 2",
"  	c #FF00FF",
". 	c #00C1FF",
"+ 	c #5BCCFF",
"@ 	c #56CCFF",
"# 	c #51CCFF",
"$ 	c #55CBFF",
"% 	c #50CBFF",
"& 	c #9DC6FF",
"* 	c #4FCAFF",
"= 	c #4ACAFF",
"- 	c #4FC9FF",
"; 	c #49C9FF",
"> 	c #77CCFF",
", 	c #4EC8FF",
"' 	c #48C8FF",
") 	c #47C7FF",
"! 	c #41C7FF",
"~ 	c #77CBFF",
"{ 	c #8AC9FF",
"] 	c #55CAFF",
"^ 	c #40C6FF",
"/ 	c #3FC5FF",
"( 	c #38C5FF",
"_ 	c #89C8FF",
": 	c #46C6FF",
"< 	c #37C4FF",
"[ 	c #36C3FF",
"} 	c #2DC3FF",
"| 	c #34C2FF",
"1 	c #82CAFF",
"2 	c #3EC4FF",
"3 	c #2CC2FF",
"4 	c #2AC1FF",
"5 	c #29C0FF",
"6 	c #1DC0FF",
"7 	c #7ACBFF",
"8 	c #1FC1FF",
"9 	c #1BBFFF",
"0 	c #06BFFF",
"a 	c #18BEFF",
"b 	c #01BEFF",
"c 	c #15BDFF",
"d 	c #00BDFF",
"e 	c #00BCFF",
"f 	c #00BBFF",
"g 	c #00BAFF",
"h 	c #00B9FF",
"i 	c #00B8FF",
"j 	c #00B6FF",
"k 	c #00B7FF",
"l 	c #00B4FF",
"m 	c #00B5FF",
"n 	c #00B3FF",
"o 	c #00B2FF",
"p 	c #00B1FF",
"q 	c #00B0FF",
"r 	c #00AFFF",
"s 	c #00AEFF",
"t 	c #00ADFF",
"u 	c #00ACFF",
"v 	c #00ABFF",
"w 	c #00AAFF",
"x 	c #00A9FF",
"y 	c #00A8FF",
"z 	c #00A7FF",
"A 	c #7EC9FF",
"B 	c #00A6FF",
"C 	c #00BFFF",
"D 	c #00C2FF",
"E 	c #00C5FF",
"F 	c #00C7FF",
"G 	c #00C8FF",
"H 	c #00C9FF",
"I 	c #00CCFF",
"J 	c #00D1FF",
"K 	c #00D4FF",
"L 	c #00D7FF",
"M 	c #00D8FF",
"N 	c #00D9FF",
"O 	c #00C0FF",
"P 	c #00CEFF",
"Q 	c #00DBFF",
"R 	c #00E1FF",
"S 	c #00E5FF",
"T 	c #00E9FF",
"U 	c #00EBFF",
"V 	c #76CAFF",
"W 	c #00C3FF",
"X 	c #00DDFF",
"Y 	c #00EDFF",
"Z 	c #00F4FF",
"` 	c #00F9FF",
" .	c #00FEFF",
"..	c #00FFFF",
"+.	c #A0C5FF",
"@.	c #00E4FF",
"#.	c #00EEFF",
"$.	c #00F8FF",
"%.	c #00CFFF",
"&.	c #00E7FF",
"*.	c #00F7FF",
"=.	c #FBFFFF",
"-.	c #E9FFFF",
";.	c #EAFFFF",
">.	c #EBFFFF",
",.	c #ECFFFF",
"'.	c #FFFFFF",
").	c #99C5FF",
"!.	c #F7FFFF",
"~.	c #11FFFF",
"{.	c #CCFFFF",
"].	c #A4C5FF",
"^.	c #24FFFF",
"/.	c #9FC4FF",
"(.	c #4CFFFF",
"_.	c #6ACCFF",
":.	c #61FFFF",
"<.	c #60CCFF",
"[.	c #57CDFF",
"}.	c #6AFFFF",
"|.	c #65CCFF",
"1.	c #50FFFF",
"2.	c #72CAFF",
"3.	c #88C7FF",
"4.	c #7ACAFF",
"5.	c #9CC5FF",
"                                                      . . . . . . . . . .                                                       ",
"                                              . + @ # $ $ % % % % % % % $ $ # @ &                                               ",
"                                        . @ @ $ % * * = - - ; ; ; ; ; - - = * * % $ @ .                                         ",
"                                    > @ $ % * = - , ' ' ) ) ) ! ! ! ) ) ) ' ' , - = * % $ ~                                     ",
"                                { @ $ ] * - , ' ) ! ^ ^ / / / ( ( ( / / / ^ ^ ! ) ' , - * ] $ _                                 ",
"                            . @ $ ] = ; ' ) : ^ / ( < < [ [ } } | } } [ [ < < ( / ^ : ) ' ; = ] $ .                             ",
"                          1 @ % * ; ' ) ^ / 2 < [ | 3 4 4 5 5 6 6 6 5 5 4 4 3 | [ < 2 / ^ ) ' ; * % 7                           ",
"                        + $ * - ' ) ^ / < [ | 4 8 6 9 0 a b b c c c b b a 0 9 6 8 4 | [ < / ^ ) ' - * $                         ",
"                      @ $ * ; ' ! / 2 [ 3 4 6 9 a c d e e f f f f f f f e e d c a 9 6 4 3 [ 2 / ! ' ; * $                       ",
"                    @ % * , ) ^ ( < | 4 6 0 b d e f g h h i i j j j i i h h g f e d b 0 6 4 | < ( ^ ) , * %                     ",
"                  @ % = , ) ^ 2 [ 3 5 9 b e f g h i k j l m n n n n n m l j k i h g f e b 9 5 3 [ 2 ^ ) , = %                   ",
"                @ % = ' ! / < } 4 6 b d f g i k j m o n p q q r r r q q p n o m j k i g f d b 6 4 } < / ! ' = %                 ",
"              + $ * , ! / < | 8 9 c e g i k l n p q r s t u u v v v u u t s r q p n l k i g e c 9 8 | < / ! , * $               ",
"            1 $ * , ) / < | 5 0 d f i j j n p r s u v w x y z z z z z y x w v u s r p n j j i f d 0 5 | < / ) , * A             ",
"            @ * ; ) ^ < | 5 0 d f h k m n q s u w y z y v t s r r r s t v y z y w u s q n m k h f d 0 5 | < ^ ) ; * .           ",
"          @ % - ' ^ 2 } 8 0 d f h j n p q u w y z u r n m h g f f f g h m n r u z y w u q p n j h f d 0 8 } 2 ^ ' - %           ",
"        { $ * ' ! ( [ 4 9 d f h j n q s v x B u q m g C D E F G H G F E D C g m q u B x v s q n j h f d 9 4 [ ( ! ' * _         ",
"        @ ] ; ) / < 3 6 c f h j n q t v y x r m f . F I J K L M N M L K J I F . f m r x y v t q n j h f c 6 3 < / ) ; ]         ",
"      > $ = ' ^ 2 | 5 b e i k n q t w z v o h O F P K Q R S T U U U T S R Q K P F O h o v z w t q n k i e b 5 | 2 ^ ' = V       ",
"      @ ] ; ) / [ 4 9 d g j m p s v z u n f W I K X S Y Z `  ....... .` Z Y S X K I W f n u z v s p m j g d 9 4 [ / ) ; ]       ",
"    +.$ * ' ^ < 3 6 b f i j n q v y v n e E P N @.#.$.......................$.#.@.N P E e n v y v q n j i f b 6 3 < ^ ' * .     ",
"    @ % - ) / [ 4 0 e g k n q u x x o f E %.Q &.Z ..............................Z &.Q %.E f o x x u q n k g e 0 4 [ / ) - %     ",
"    @ * , : 2 | 6 b f i l p s w B r h W P Q T *.................=.................*.T Q P W h r B w s p l i f b 6 | 2 : , * .   ",
"  & $ = ' ^ < 4 9 d g k n r u y u m O I N &.*...........-.;.>.,.'.,.>.;.-...........*.&.N I O m u y u r n k g d 9 4 < ^ ' = ).  ",
"  + % - ) / [ 8 a e h j p s w z q f F K @.Z ..........!.'.'.'.'.'.'.'.'.'.>...........Z @.K F f q z w s p j h e a 8 [ / ) - %   ",
"  @ * , ! ( | 6 c f i m q u y u m . P X #.........~.>.'.'.'.'.'.'.'.'.'.'.'.>.~.........#.X P . m u y u q m i f c 6 | ( ! , *   ",
"  # * ' ^ < 3 9 d g k o r v z r g F K S $.........!.'.'.'.'.'.'.'.'.'.'.'.'.'.>.........$.S K F g r z v r o k g d 9 3 < ^ ' *   ",
". $ = ' ^ < 4 0 e h j n s w y n C I Q Y ........{.'.'.'.'.'.'.'.'.'.'.'.'.'.'.'.>.........Y Q I C n y w s n j h e 0 4 < ^ ' = . ",
"].$ - ) / [ 4 a e h l p t x v m D J R Z ......^.'.'.'.'.'.'.'.'.'.'.'.'.'.'.'.'.'.^.......Z R J D m v x t p l h e a 4 [ / ) - /.",
"1 % - ) / [ 5 b f i m q u y t h E K S ` ......(.'.'.'.'.'.'.'.'.'.'.'.'.'.'.'.'.'.(.......` S K E h t y u q m i f b 5 [ / ) - A ",
"_.% ; ) / } 5 b f i n q u z s g F L T  .......:.'.'.'.'.'.'.'.'.'.'.'.'.'.'.'.'.'.:....... .T L F g s z u q n i f b 5 } / ) ; <.",
"[.% ; ! ( } 6 c f j n r v z r f G M U ........}.'.'.'.'.'.'.'.'.'.'.'.'.'.'.'.'.'.}.........U M G f r z v r n j f c 6 } ( ! ; % ",
"[.% ; ! ( | 6 c f j n r v z r f H N U ........'.'.'.'.'.'.'.'.'.'.'.'.'.'.'.'.'.'.'.........U N H f r z v r n j f c 6 | ( ! ; % ",
"|.% ; ! ( } 6 c f j n r v z r f G M U ........}.'.'.'.'.'.'.'.'.'.'.'.'.'.'.'.'.'.}.........U M G f r z v r n j f c 6 } ( ! ; <.",
"1 % ; ) / } 5 b f i n q u z s g F L T  .......:.'.'.'.'.'.'.'.'.'.'.'.'.'.'.'.'.'.:....... .T L F g s z u q n i f b 5 } / ) ; . ",
"+.% - ) / [ 5 b f i m q u y t h E K S ` ......(.'.'.'.'.'.'.'.'.'.'.'.'.'.'.'.'.'.(.......` S K E h t y u q m i f b 5 [ / ) - . ",
". $ - ) / [ 4 a e h l p t x v m D J R Z ......^.'.'.'.'.'.'.'.'.'.'.'.'.'.'.'.'.'.^.......Z R J D m v x t p l h e a 4 [ / ) - . ",
"  $ = ' ^ < 4 0 e h j n s w y n C I Q Y ........1.'.'.'.'.'.'.'.'.'.'.'.'.'.'.'.1.........Y Q I C n y w s n j h e 0 4 < ^ ' =   ",
"  # * ' ^ < 3 9 d g k o r v z r g F K S $.........:.'.'.'.'.'.'.'.'.'.'.'.'.'.:.........$.S K F g r z v r o k g d 9 3 < ^ ' *   ",
"  @ * , ! ( | 6 c f i m q u y u m . P X #.........~.:.'.'.'.'.'.'.'.'.'.'.'.:.~.........#.X P . m u y u q m i f c 6 | ( ! , *   ",
"  & % - ) / [ 8 a e h j p s w z q f F K @.Z ..........1.'.'.'.'.'.'.'.'.'.1...........Z @.K F f q z w s p j h e a 8 [ / ) - ).  ",
"    $ = ' ^ < 4 9 d g k n r u y u m O I N &.*...........^.(.:.}.'.}.:.(.^...........*.&.N I O m u y u r n k g d 9 4 < ^ ' =     ",
"    @ * , : 2 | 6 b f i l p s w B r h W P Q T *...................................*.T Q P W h r B w s p l i f b 6 | 2 : , *     ",
"    . % - ) / [ 4 0 e g k n q u x x o f E %.Q &.Z ..............................Z &.Q %.E f o x x u q n k g e 0 4 [ / ) - .     ",
"      $ * ' ^ < 3 6 b f i j n q v y v n e E P N @.#.$.......................$.#.@.N P E e n v y v q n j i f b 6 3 < ^ ' *       ",
"      ~ ] ; ) / [ 4 9 d g j m p s v z u n f W I K X S Y Z `  ....... .` Z Y S X K I W f n u z v s p m j g d 9 4 [ / ) ; 2.      ",
"        $ = ' ^ 2 | 5 b e i k n q t w z v o h O F P K Q R S T U U U T S R Q K P F O h o v z w t q n k i e b 5 | 2 ^ ' =         ",
"        _ ] ; ) / < 3 6 c f h j n q t v y x r m f . F I J K L M N M L K J I F . f m r x y v t q n j h f c 6 3 < / ) ; 3.        ",
"          $ * ' ! ( [ 4 9 d f h j n q s v x B u q m g C D E F G H G F E D C g m q u B x v s q n j h f d 9 4 [ ( ! ' *           ",
"            % - ' ^ 2 } 8 0 d f h j n p q u w y z u r n m h g f f f g h m n r u z y w u q p n j h f d 0 8 } 2 ^ ' - .           ",
"            . * ; ) ^ < | 5 0 d f h k m n q s u w y z y v t s r r r s t v y z y w u s q n m k h f d 0 5 | < ^ ) ; 4.            ",
"              $ * , ) / < | 5 0 d f i j j n p r s u v w x y z z z z z y x w v u s r p n j j i f d 0 5 | < / ) , *               ",
"                $ * , ! / < | 8 9 c e g i k l n p q r s t u u v v v u u t s r q p n l k i g e c 9 8 | < / ! , *                 ",
"                  % = ' ! / < } 4 6 b d f g i k j m o n p q q r r r q q p n o m j k i g f d b 6 4 } < / ! ' =                   ",
"                    % = , ) ^ 2 [ 3 5 9 b e f g h i k j l m n n n n n m l j k i h g f e b 9 5 3 [ 2 ^ ) , =                     ",
"                      % * , ) ^ ( < | 4 6 0 b d e f g h h i i j j j i i h h g f e d b 0 6 4 | < ( ^ ) , *                       ",
"                        $ * ; ' ! / 2 [ 3 4 6 9 a c d e e f f f f f f f e e d c a 9 6 4 3 [ 2 / ! ' ; *                         ",
"                          A * - ' ) ^ / < [ | 4 8 6 9 0 a b b c c c b b a 0 9 6 8 4 | [ < / ^ ) ' - 4.                          ",
"                              % * ; ' ) ^ / 2 < [ | 3 4 4 5 5 6 6 6 5 5 4 4 3 | [ < 2 / ^ ) ' ; *                               ",
"                                _ ] = ; ' ) : ^ / ( < < [ [ } } | } } [ [ < < ( / ^ : ) ' ; = .                                 ",
"                                    V ] * - , ' ) ! ^ ^ / / / ( ( ( / / / ^ ^ ! ) ' , - * 2.                                    ",
"                                        5.% * = - , ' ' ) ) ) ! ! ! ) ) ) ' ' , - = * .                                         ",
"                                              ).% * * = - - ; ; ; ; ; - - = * * .                                               ",
"                                                      . . A <.% % <.A /..                                                       "};
