/* XPM */
static char * blue7_xpm[] = {
"64 64 69 1",
" 	c #FF00FF",
".	c #00D8FF",
"+	c #4BC9FF",
"@	c #00D3FF",
"#	c #00DAFF",
"$	c #00DCFF",
"%	c #33CAFF",
"&	c #00DBFF",
"*	c #00D9FF",
"=	c #17CBFF",
"-	c #48C9FF",
";	c #00D7FF",
">	c #39CAFF",
",	c #00D6FF",
"'	c #00D5FF",
")	c #00D0FF",
"!	c #00D4FF",
"~	c #00D1FF",
"{	c #00D2FF",
"]	c #00CFFF",
"^	c #FF37FF",
"/	c #00CEFF",
"(	c #00CDFF",
"_	c #FF38FF",
":	c #00CCFF",
"<	c #00CBFF",
"[	c #00CAFF",
"}	c #00C9FF",
"|	c #00C8FF",
"1	c #00C7FF",
"2	c #00C6FF",
"3	c #00C5FF",
"4	c #00C4FF",
"5	c #00C3FF",
"6	c #00C2FF",
"7	c #00C0FF",
"8	c #00C1FF",
"9	c #00BEFF",
"0	c #00BFFF",
"a	c #00BDFF",
"b	c #00BCFF",
"c	c #00BBFF",
"d	c #00BAFF",
"e	c #00B9FF",
"f	c #00B7FF",
"g	c #00B6FF",
"h	c #00B5FF",
"i	c #00B4FF",
"j	c #00B8FF",
"k	c #00DDFF",
"l	c #00DFFF",
"m	c #00E2FF",
"n	c #00DEFF",
"o	c #00E5FF",
"p	c #00EBFF",
"q	c #00F0FF",
"r	c #00F3FF",
"s	c #00F6FF",
"t	c #00F7FF",
"u	c #00E6FF",
"v	c #00F9FF",
"w	c #00FFFF",
"x	c #00EEFF",
"y	c #37C9FF",
"z	c #00F2FF",
"A	c #12CAFF",
"B	c #FFFFFF",
"C	c #49C8FF",
"D	c #3AC9FF",
"                           .+@#$$#@+.                           ",
"                       %&&&*#########*&&=                       ",
"                    -&&*#****;.....;****#*&>                    ",
"                  ;&*#**..,,;;;''';;;,,..**#*,                  ",
"                )&*#*..,;,,!'''''''''!,,;,..*#*~                ",
"              .&*#*.,;,!'@@{@@@@@@@@@{@@'!,;,.*#*.              ",
"             @&#*.,;,'@!@~{)))~]]]~))){~@!@',;,.*#!             ",
"          ^ &***.;,'@@~{)])//(((((((//)]){~@@',;.*** _          ",
"           &#*.,,'@@~)]/](:(<<<:[:<<<(:(]/])~@@',,.*#           ",
"          &#*.;,'{~)]/(:<<[}}|||||||}}[<<:(/])~{',;.*#          ",
"       ^ &#*.;!@@{~/(:<[}|1223333333221|}[<:(/~{@@!;.*# _       ",
"        &#*.'!@@))]:<[|1234556677766554321|[<:]))@@!'.*#        ",
"       &#*.''!~)/(([}125568790aa9aa097865521}[((/)~!''.*#       ",
"      @**.;!!~)/(<}|235770bcddeeeeeddcb077532|}<(/)~!!;.*@      ",
"     .&*.;!@~)/:<}13467abdefghhiiihhgfedba76431}<:/)~@!;.*.     ",
"     &#*,,@@)/:<}13580bdjgijda78887adjigjdb08531}<:/)@@,,*#     ",
"    )**.,'@)/(<}15879djghd73}:])))]:}37dhgjd97851}<(/)@',.*~    ",
"    &#.;'{{)(<}1567bdfid8|(!.klmmmlk.!(|8difdb7651}<(){{';.#    ",
"   ;**,,@~~](}1387begg02],nopqrstsrqpon,]20ggeb7831}(]~~@,,*!   ",
"   &#.;'@)/:[|357begj8<!$uqvwwwwwwwwwvqu$!<8jgeb753|[:/)@';.#   ",
"  -**,,@~](<}2489dgj8:;mxvwwwwwwwwwwwwwvxm;:8jgd9842}<(]~@,,*y  ",
"  &#.;'@)/:[1360dfg8:.ozwwwwwwwwwwwwwwwwwzo.:8gfd0631[:/)@';.#  ",
"  &*.,@~](<|257bji0<;orwwwwwwwwwwwwwwwwwwwro;<0ijb752|<(]~@,.*  ",
" %**,!!{/:[157adgd2!mzwwwwwwwwwwwwwwwwwwwwwzm!2dgda751[:/{!!,*A ",
" &#.;'@)]<}257bjh8]$xwwwwwwwwBBBBBBBwwwwwwwwx$]8hjb752}<])@';.# ",
" &*.,@~](<|360dgd|,uvwwwwwwBBBBBBBBBBBwwwwwwvu,|dgd063|<(]~@,.* ",
" &*,,@{):[148bei7(nqwwwwwwBBBBBBBBBBBBBwwwwwwqn(7ieb841[:){@,,* ",
".**,!{)/(}257cfj3!ovwwwwwBBBBBBBBBBBBBBBwwwwwvo!3jfc752}(/){!,*.",
"+#*;'@)/<}259dgd}.pwwwwwwBBBBBBBBBBBBBBBwwwwwwp.}dgd952}</)@';*C",
"@#;;'@)(<|360dha:kqwwwwwBBBBBBBBBBBBBBBBBwwwwwqk:ahd063|<()@';;@",
"##.;'@~(<|36aeh7]lrwwwwwBBBBBBBBBBBBBBBBBwwwwwrl]7hea63|<(~@';.;",
"$#.''@](:|37aei8)mswwwwwBBBBBBBBBBBBBBBBBwwwwwsm)8iea73|:(]@''.#",
"$#.''@]([|379ei8)mtwwwwwBBBBBBBBBBBBBBBBBwwwwwtm)8ie973|[(]@''.#",
"##.''@](:|37aei8)mswwwwwBBBBBBBBBBBBBBBBBwwwwwsm)8iea73|:(]@''.;",
"@#.;'@~(<|36aeh7]lrwwwwwBBBBBBBBBBBBBBBBBwwwwwrl]7hea63|<(~@';.@",
"+#;;'@)(<|360dha:kqwwwwwBBBBBBBBBBBBBBBBBwwwwwqk:ahd063|<()@';;D",
".#*;'@)/<}259dgd}.pwwwwwwBBBBBBBBBBBBBBBwwwwwwp.}dgd952}</)@';*.",
" **,!{)/(}257cfj3!ovwwwwwBBBBBBBBBBBBBBBwwwwwvo!3jfc752}(/){!,* ",
" &*,,@{):[148bei7(nqwwwwwwBBBBBBBBBBBBBwwwwwwqn(7ieb841[:){@,,* ",
" &*.,@~](<|360dgd|,uvwwwwwwBBBBBBBBBBBwwwwwwvu,|dgd063|<(]~@,.* ",
" =#.;'@)]<}257bjh8]$xwwwwwwwwBBBBBBBwwwwwwwwx$]8hjb752}<])@';.A ",
"  **,!!{/:[157adgd2!mzwwwwwwwwwwwwwwwwwwwwwzm!2dgda751[:/{!!,*  ",
"  &*.,@~](<|257bji0<;orwwwwwwwwwwwwwwwwwwwro;<0ijb752|<(]~@,.*  ",
"  >#.;'@)/:[1360dfg8:.ozwwwwwwwwwwwwwwwwwzo.:8gfd0631[:/)@';.y  ",
"   **,,@~](<}2489dgj8:;mxvwwwwwwwwwwwwwvxm;:8jgd9842}<(]~@,,*   ",
"   ,#.;'@)/:[|357begj8<!$uqvwwwwwwwwwvqu$!<8jgeb753|[:/)@';.!   ",
"    **,,@~~](}1387begg02],nopqrstsrqpon,]20ggeb7831}(]~~@,,*    ",
"    ~#.;'{{)(<}1567bdfid8|(!.klmmmlk.!(|8difdb7651}<(){{';.]    ",
"     **.,'@)/(<}15879djghd73}:])))]:}37dhgjd97851}<(/)@',.*     ",
"     .#*,,@@)/:<}13580bdjgijda78887adjigjdb08531}<:/)@@,,*.     ",
"      !*.;!@~)/:<}13467abdefghhiiihhgfedba76431}<:/)~@!;.!      ",
"       **.;!!~)/(<}|235770bcddeeeeeddcb077532|}<(/)~!!;.*       ",
"        #*.''!~)/(([}125568790aa9aa097865521}[((/)~!''.*        ",
"       _ #*.'!@@))]:<[|1234556677766554321|[<:]))@@!'.*         ",
"          #*.;!@@{~/(:<[}|1223333333221|}[<:(/~{@@!;.*          ",
"           #*.;,'{~)]/(:<<[}}|||||||}}[<<:(/])~{',;.*           ",
"          _ #*.,,'@@~)]/](:(<<<:[:<<<(:(]/])~@@',,.*            ",
"             @**.;,'@@~{)])//(((((((//)]){~@@',;.*!             ",
"               #*.,;,'@!@~{)))~]]]~))){~@!@',;,.*.              ",
"                ~#*.,;,!'@@{@@@@@@@@@{@@'!,;,.*]                ",
"                  !#*..,;,,!'''''''''!,,;,..*!                  ",
"                    y#**..,,;;;''';;;,,..**y                    ",
"                       A#****;.....;****A                       ",
"                           .C@;##;@D.                           "};
