/* XPM */
static char * \\wsl$\Ubuntu_20_04\home\kika75\Projet11\cub3d\bonus\imgs\s_blue\blue0_xpm[] = {
"64 64 104 2",
"  	c #FF00FF",
". 	c #008AFF",
"+ 	c #3B95FF",
"@ 	c #0091FF",
"# 	c #008DFF",
"$ 	c #2D95FF",
"% 	c #008CFF",
"& 	c #008BFF",
"* 	c #0089FF",
"= 	c #0087FF",
"- 	c #0086FF",
"; 	c #0085FF",
"> 	c #0084FF",
", 	c #0083FF",
"' 	c #0082FF",
") 	c #0081FF",
"! 	c #0094FF",
"~ 	c #0080FF",
"{ 	c #007FFF",
"] 	c #007EFF",
"^ 	c #007DFF",
"/ 	c #FF18FF",
"( 	c #007BFF",
"_ 	c #007AFF",
": 	c #0079FF",
"< 	c #0078FF",
"[ 	c #0077FF",
"} 	c #0076FF",
"| 	c #0075FF",
"1 	c #0074FF",
"2 	c #0073FF",
"3 	c #0070FF",
"4 	c #006FFF",
"5 	c #006EFF",
"6 	c #006DFF",
"7 	c #006CFF",
"8 	c #0069FF",
"9 	c #0068FF",
"0 	c #006BFF",
"a 	c #0071FF",
"b 	c #008EFF",
"c 	c #1E93FF",
"d 	c #0090FF",
"e 	c #0093FF",
"f 	c #0095FF",
"g 	c #0096FF",
"h 	c #009AFF",
"i 	c #009DFF",
"j 	c #009EFF",
"k 	c #00A0FF",
"l 	c #00A1FF",
"m 	c #008FFF",
"n 	c #0097FF",
"o 	c #00A4FF",
"p 	c #00A6FF",
"q 	c #24A9FF",
"r 	c #31ABFF",
"s 	c #36ACFF",
"t 	c #009CFF",
"u 	c #2BAAFF",
"v 	c #3FAFFF",
"w 	c #4DB3FF",
"x 	c #54B5FF",
"y 	c #5CB8FF",
"z 	c #5FB9FF",
"A 	c #0099FF",
"B 	c #009FFF",
"C 	c #00A5FF",
"D 	c #46B1FF",
"E 	c #57B6FF",
"F 	c #64BBFF",
"G 	c #6EBFFF",
"H 	c #77C3FF",
"I 	c #7BC5FF",
"J 	c #80C7FF",
"K 	c #12A7FF",
"L 	c #67BCFF",
"M 	c #82C8FF",
"N 	c #8DCEFF",
"O 	c #95D3FF",
"P 	c #9AD6FF",
"Q 	c #9DD8FF",
"R 	c #9FD9FF",
"S 	c #73C1FF",
"T 	c #84C9FF",
"U 	c #93D2FF",
"V 	c #A9DFFF",
"W 	c #B1E4FF",
"X 	c #B8E8FF",
"Y 	c #BCEBFF",
"Z 	c #BEECFF",
"` 	c #4AB2FF",
" .	c #79C4FF",
"..	c #ADE1FF",
"+.	c #BBEAFF",
"@.	c #C7F2FF",
"#.	c #FFFFFF",
"$.	c #91D0FF",
"%.	c #A4DCFF",
"&.	c #B6E7FF",
"*.	c #C8F3FF",
"=.	c #A6DDFF",
"-.	c #2093FF",
";.	c #2694FF",
"                                                        . + @ # # @ $ .                                                         ",
"                                              . % & & . . * * * * * * * . . & & .                                               ",
"                                        . % & . * = - - ; ; ; > > > ; ; ; - - = * . & .                                         ",
"                                    . & . * = - ; > , ' ' ) ) ) ) ) ) ) ' ' , > ; - = * . !                                     ",
"                                . & . = - ; , ' ) ~ { ] ] ^ ^ ^ ^ ^ ^ ^ ] ] { ~ ) ' , ; - = . .                                 ",
"                          /   % . = - > , ) ~ { ^ ( _ : : < < < [ < < < : : _ ( ^ { ~ ) , > - = .                               ",
"                          . & * - > , ) { ] ( _ < [ } | 1 1 2 2 2 2 2 1 1 | } [ < _ ( ] { ) , > - * .                           ",
"                        % . = ; , ) { ^ ( : [ | 1 2 3 4 5 5 6 6 6 6 6 5 5 4 3 2 1 | [ : ( ^ { ) , ; = .                         ",
"                      % . = > ' ~ ] ( : [ | 2 3 5 6 7 8 9 9 8 8 8 8 8 9 9 8 7 6 5 3 2 | [ : ( ] ~ ' > = .                       ",
"                    % * - > ) { ^ : [ | 2 4 6 0 9 8 7 6 5 4 4 3 3 3 4 4 5 6 7 8 9 0 6 4 2 | [ : ^ { ) > - *                     ",
"                  % * - , ) ] ( < } 2 3 6 0 8 7 5 4 a 2 1 | } } [ } } | 1 2 a 4 5 7 8 0 6 3 2 } < ( ] ) , - *                   ",
"                % * - , ) ] _ < | a 5 0 9 7 5 a 1 } < : ( ^ ^ ] ] ] ^ ^ ( : < } 1 a 5 7 9 0 5 a | < _ ] ) , - *                 ",
"              % . - , ) ] _ [ 1 3 6 8 0 5 a 1 [ : ^ { ) ' , > ; ; ; > , ' ) { ^ : [ 1 a 5 0 8 6 3 1 [ _ ] ) , - .               ",
"            . . = > ) ] _ [ 1 4 7 9 7 3 1 [ _ ] ) , - * . % # b b b # % . * - , ) ] _ [ 1 3 7 9 7 4 1 [ _ ] ) > = c             ",
"            & = > ) ] _ [ 1 4 7 8 6 a | : ^ ) > = & b d e ! f g g g f ! e d b & = > ) ^ : | a 6 8 7 4 1 [ _ ] ) > =             ",
"          % * ; ' { ( < 1 4 7 8 5 2 } _ { , = % d e g h i j k l l l k j i h g e d % = , { _ } 2 5 8 7 4 1 < ( { ' ; *           ",
"        . . - , ~ ^ < | 3 7 8 5 2 [ ( ) ; . m e n i k o p q r s s s r q p o k i n e m . ; ) ( [ 2 5 8 7 3 | < ^ ~ , - .         ",
"        & = > ) ] : } a 6 9 6 2 [ ^ ) - % @ g t l p u v w x y z z z y x w v u p l t g @ % - ) ^ [ 2 6 9 6 a } : ] ) > =         ",
"      f . - , { ( [ 2 5 8 7 a } ( ) = # e A B C r D E F G H I J J J I H G F E D r C B A e # = ) ( } a 7 8 5 2 [ ( { , - .       ",
"      & = > ) ^ : | 3 0 0 3 | _ ) - # e h l K v E L H M N O P Q R Q P O N M H L E v K l h e # - ) _ | 3 0 0 3 | : ^ ) > =       ",
"    . . - , { ( [ 2 6 9 5 1 : { ; % e h l q D z S T U R V W X Y Z Y X W V R U T S z D q l h e % ; { : 1 5 9 6 2 [ ( { , - .     ",
"    % * ; ) ] : | 4 0 7 a [ ^ , . @ A l q ` F  .N Q ..+.@.#.#.#.#.#.#.#.@.+...Q N  .F ` q l A @ . , ^ [ a 7 0 4 | : ] ) ; *     ",
"    & = , ~ ( [ 2 6 8 5 1 _ ) = m g B K D F I $.%.&.*.#.#.#.#.#.#.#.#.#.#.#.*.&.%.$.I F D K B g m = ) _ 1 5 8 6 2 [ ( ~ , =     ",
"  . . - ' { _ | 3 0 7 a [ ] > % e t C v z  .$.=.Y #.#.#.#.#.#.#.#.#.#.#.#.#.#.#.Y =.$. .z v C t e % > ] [ a 7 0 3 | _ { ' - .   ",
"  % * ; ) ^ < 1 5 9 5 1 : ) = d n l r E S N %.Y #.#.#.#.#.#.#.#.#.#.#.#.#.#.#.#.#.Y %.N S E r l n d = ) : 1 5 9 5 1 < ^ ) ; *   ",
"  & = > ~ ( [ 2 6 8 4 } ^ , & e i p D L T Q &.#.#.#.#.#.#.#.#.#.#.#.#.#.#.#.#.#.#.#.&.Q T L D p i e & , ^ } 4 8 6 2 [ ( ~ > =   ",
"  & - , { _ } 3 7 7 a < { - b g k u E H U ..*.#.#.#.#.#.#.#.#.#.#.#.#.#.#.#.#.#.#.#.*...U H E u k g b - { < a 7 7 3 } _ { , -   ",
"  . - ' ] : | 4 8 6 2 : ) * d h o v F M R +.#.#.#.#.#.#.#.#.#.#.#.#.#.#.#.#.#.#.#.#.#.+.R M F v o h d * ) : 2 6 8 4 | : ] ' - . ",
". . ; ' ] : 1 5 9 5 1 ( ' . e i p w G N V @.#.#.#.#.#.#.#.#.#.#.#.#.#.#.#.#.#.#.#.#.#.@.V N G w p i e . ' ( 1 5 9 5 1 : ] ' ; . ",
"+ * ; ) ^ < 1 5 9 4 | ^ , % ! j q x H O W #.#.#.#.#.#.#.#.#.#.#.#.#.#.#.#.#.#.#.#.#.#.#.W O H x q j ! % , ^ | 4 9 5 1 < ^ ) ; -.",
"@ * ; ) ^ < 2 6 8 4 } ^ > # f k r y I P X #.#.#.#.#.#.#.#.#.#.#.#.#.#.#.#.#.#.#.#.#.#.#.X P I y r k f # > ^ } 4 8 6 2 < ^ ) ; b ",
"# * > ) ^ < 2 6 8 3 } ] ; b g l s z J Q Y #.#.#.#.#.#.#.#.#.#.#.#.#.#.#.#.#.#.#.#.#.#.#.Y Q J z s l g b ; ] } 3 8 6 2 < ^ ) > * ",
"# * > ) ^ [ 2 6 8 3 [ ] ; b g l s z J R Z #.#.#.#.#.#.#.#.#.#.#.#.#.#.#.#.#.#.#.#.#.#.#.Z R J z s l g b ; ] [ 3 8 6 2 [ ^ ) > * ",
"@ * > ) ^ < 2 6 8 3 } ] ; b g l s z J Q Y #.#.#.#.#.#.#.#.#.#.#.#.#.#.#.#.#.#.#.#.#.#.#.Y Q J z s l g b ; ] } 3 8 6 2 < ^ ) > b ",
"$ * ; ) ^ < 2 6 8 4 } ^ > # f k r y I P X #.#.#.#.#.#.#.#.#.#.#.#.#.#.#.#.#.#.#.#.#.#.#.X P I y r k f # > ^ } 4 8 6 2 < ^ ) ; -.",
". * ; ) ^ < 1 5 9 4 | ^ , % ! j q x H O W #.#.#.#.#.#.#.#.#.#.#.#.#.#.#.#.#.#.#.#.#.#.#.W O H x q j ! % , ^ | 4 9 5 1 < ^ ) ; . ",
". . ; ' ] : 1 5 9 5 1 ( ' . e i p w G N V @.#.#.#.#.#.#.#.#.#.#.#.#.#.#.#.#.#.#.#.#.#.@.V N G w p i e . ' ( 1 5 9 5 1 : ] ' ; . ",
"  . - ' ] : | 4 8 6 2 : ) * d h o v F M R +.#.#.#.#.#.#.#.#.#.#.#.#.#.#.#.#.#.#.#.#.#.+.R M F v o h d * ) : 2 6 8 4 | : ] ' -   ",
"  & - , { _ } 3 7 7 a < { - b g k u E H U ..*.#.#.#.#.#.#.#.#.#.#.#.#.#.#.#.#.#.#.#.*...U H E u k g b - { < a 7 7 3 } _ { , -   ",
"  & = > ~ ( [ 2 6 8 4 } ^ , & e i p D L T Q &.#.#.#.#.#.#.#.#.#.#.#.#.#.#.#.#.#.#.#.&.Q T L D p i e & , ^ } 4 8 6 2 [ ( ~ > =   ",
"  . * ; ) ^ < 1 5 9 5 1 : ) = d n l r E S N %.Y #.#.#.#.#.#.#.#.#.#.#.#.#.#.#.#.#.Y %.N S E r l n d = ) : 1 5 9 5 1 < ^ ) ; .   ",
"    . - ' { _ | 3 0 7 a [ ] > % e t C v z  .$.=.Y #.#.#.#.#.#.#.#.#.#.#.#.#.#.#.Y =.$. .z v C t e % > ] [ a 7 0 3 | _ { ' -     ",
"    & = , ~ ( [ 2 6 8 5 1 _ ) = m g B K D F I $.%.&.*.#.#.#.#.#.#.#.#.#.#.#.*.&.%.$.I F D K B g m = ) _ 1 5 8 6 2 [ ( ~ , =     ",
"    . * ; ) ] : | 4 0 7 a [ ^ , . @ A l q ` F  .N Q ..+.@.#.#.#.#.#.#.#.@.+...Q N  .F ` q l A @ . , ^ [ a 7 0 4 | : ] ) ; .     ",
"      . - , { ( [ 2 6 9 5 1 : { ; % e h l q D z S T U R V W X Y Z Y X W V R U T S z D q l h e % ; { : 1 5 9 6 2 [ ( { , -       ",
"      . = > ) ^ : | 3 0 0 3 | _ ) - # e h l K v E L H M N O P Q R Q P O N M H L E v K l h e # - ) _ | 3 0 0 3 | : ^ ) > .       ",
"        . - , { ( [ 2 5 8 7 a } ( ) = # e A B C r D E F G H I J J J I H G F E D r C B A e # = ) ( } a 7 8 5 2 [ ( { , -         ",
"        . = > ) ] : } a 6 9 6 2 [ ^ ) - % @ g t l p u v w x y z z z y x w v u p l t g @ % - ) ^ [ 2 6 9 6 a } : ] ) > .         ",
"          . - , ~ ^ < | 3 7 8 5 2 [ ( ) ; . m e n i k o p q r s s s r q p o k i n e m . ; ) ( [ 2 5 8 7 3 | < ^ ~ , -           ",
"            * ; ' { ( < 1 4 7 8 5 2 } _ { , = % d e g h i j k l l l k j i h g e d % = , { _ } 2 5 8 7 4 1 < ( { ' ;             ",
"            ;.= > ) ] _ [ 1 4 7 8 6 a | : ^ ) > = & b d e ! f g g g f ! e d b & = > ) ^ : | a 6 8 7 4 1 [ _ ] ) > .             ",
"              . = > ) ] _ [ 1 4 7 9 7 3 1 [ _ ] ) , - * . % # b b b # % . * - , ) ] _ [ 1 3 7 9 7 4 1 [ _ ] ) > =               ",
"                . - , ) ] _ [ 1 3 6 8 0 5 a 1 [ : ^ { ) ' , > ; ; ; > , ' ) { ^ : [ 1 a 5 0 8 6 3 1 [ _ ] ) , -                 ",
"                  * - , ) ] _ < | a 5 0 9 7 5 a 1 } < : ( ^ ^ ] ] ] ^ ^ ( : < } 1 a 5 7 9 0 5 a | < _ ] ) , -                   ",
"                    * - , ) ] ( < } 2 3 6 0 8 7 5 4 a 2 1 | } } [ } } | 1 2 a 4 5 7 8 0 6 3 2 } < ( ] ) , -                     ",
"                      * - > ) { ^ : [ | 2 4 6 0 9 8 7 6 5 4 4 3 3 3 4 4 5 6 7 8 9 0 6 4 2 | [ : ^ { ) > -                       ",
"                        . = > ' ~ ] ( : [ | 2 3 5 6 7 8 9 9 8 8 8 8 8 9 9 8 7 6 5 3 2 | [ : ( ] ~ ' > =                         ",
"                          . = ; , ) { ^ ( : [ | 1 2 3 4 5 5 6 6 6 6 6 5 5 4 3 2 1 | [ : ( ^ { ) , ; .                           ",
"                              * - > , ) { ] ( _ < [ } | 1 1 2 2 2 2 2 1 1 | } [ < _ ( ] { ) , > -                               ",
"                                . = - > , ) ~ { ^ ( _ : : < < < [ < < < : : _ ( ^ { ~ ) , > - .                                 ",
"                                    . = - ; , ' ) ~ { ] ] ^ ^ ^ ^ ^ ^ ^ ] ] { ~ ) ' , ; - .                                     ",
"                                        . * = - ; > , ' ' ) ) ) ) ) ) ) ' ' , > ; - = .                                         ",
"                                              . * = - - ; ; ; > > > ; ; ; - - = .                                               ",
"                                                        . . b * . . . . .                                                       "};
