/* XPM */
static char * \\wsl$\Ubuntu_20_04\home\kika75\Projet11\cub3d\bonus\imgs\s_blue\blue5_xpm[] = {
"64 64 79 1",
" 	c #FF00FF",
".	c #00C1FF",
"+	c #5CBEFF",
"@	c #00C4FF",
"#	c #00C7FF",
"$	c #00C8FF",
"%	c #40C0FF",
"&	c #00C9FF",
"*	c #00C5FF",
"=	c #00C6FF",
"-	c #4BBEFF",
";	c #50BFFF",
">	c #58BDFF",
",	c #00C3FF",
"'	c #00C2FF",
")	c #00C0FF",
"!	c #00BEFF",
"~	c #00BFFF",
"{	c #00BDFF",
"]	c #00BCFF",
"^	c #00BBFF",
"/	c #00B9FF",
"(	c #00B8FF",
"_	c #00B7FF",
":	c #00B6FF",
"<	c #00B5FF",
"[	c #00B4FF",
"}	c #00B3FF",
"|	c #00B2FF",
"1	c #00B1FF",
"2	c #00B0FF",
"3	c #00AFFF",
"4	c #00AEFF",
"5	c #00ADFF",
"6	c #00ACFF",
"7	c #00BAFF",
"8	c #00ABFF",
"9	c #00AAFF",
"0	c #00A9FF",
"a	c #00A8FF",
"b	c #00A7FF",
"c	c #00A6FF",
"d	c #00A5FF",
"e	c #00A3FF",
"f	c #00A4FF",
"g	c #00A2FF",
"h	c #00CCFF",
"i	c #00CEFF",
"j	c #00D1FF",
"k	c #00D3FF",
"l	c #00D2FF",
"m	c #00A1FF",
"n	c #00CAFF",
"o	c #00D7FF",
"p	c #00DBFF",
"q	c #00DFFF",
"r	c #00E4FF",
"s	c #00E5FF",
"t	c #00DAFF",
"u	c #00E1FF",
"v	c #00E8FF",
"w	c #00EFFF",
"x	c #00F4FF",
"y	c #00F8FF",
"z	c #00FBFF",
"A	c #00CDFF",
"B	c #00EBFF",
"C	c #00FDFF",
"D	c #00FFFF",
"E	c #00F2FF",
"F	c #00FEFF",
"G	c #4EBEFF",
"H	c #00F7FF",
"I	c #FFFFFF",
"J	c #2CBFFF",
"K	c #50BEFF",
"L	c #58BCFF",
"M	c #3BBEFF",
"N	c #4CBDFF",
"                           .+@#$$#@+.                           ",
"                       %$&###*=====*###&-                       ",
"                    ;$##==***@@@@@@@***==##>                    ",
"                  =&#=#*@@,,,''''''',,,@@*#=#=                  ",
"                ,&#=*@*,''..)))))))))..'',*@*=#'                ",
"               $#=*@,').)!~!!{{{{{{{!!~!).)',@*=#.              ",
"             *#=*@,'.)!!!{]]^^^///^^^]]{!!!).',@*=@             ",
"            $#=*,'.)~!{]^/(/__(:::(__/(/^]{!~).',*=#            ",
"           &#*@,')~!{^//_:_<[<}}}}}<[<_:_//^{!~)',@*#           ",
"          &**@'.)!{^//(<[}|}122222221}|}[<(//^{!).'@**          ",
"         &=**'.~!]^/(<<|12345566666554321|<<(/^]!~.'**=         ",
"        &**,')~{^7_<<|13468900aaaaa00986431|<<_7^{~)',**        ",
"       $#**')~{^/::}135690bcdefgegfedcb096531}::/^{~)'**#       ",
"      *#*@')~{^/_<|2469aceeeda00900adeeeca9642|<_/^{~)'@*@      ",
"      #=@'.~{^/_}1359acfeb951|<<:<<|159befca9531}_/^{~.'@=.     ",
"     $=*,.~{^/_}1460beea61</{~',,,'~{/<16aeeb0641}_/^{~.,*=     ",
"    ,#*,')!^/_}1460ced61_{'#hijklkjih#'{_16dec0641}_/^!)',*'    ",
"    &=@')!]7:<1460cma4<{,njopqrsssrqpojn,{<4amc0641<:7]!)'@=    ",
"   =#*,.~{^_:|360cm01/.&jtuvwxyzzzyxwvutj&./10mc063|:_^{~.,**   ",
"   &=@')!^/<}250cm017,AouBxCDDDDDDDDDCxBuoA,710mc052}</^!)'@=   ",
"  ;#*,.~{/(<149bea17,itsEFDDDDDDDDDDDDDFEsti,71aeb941<(/{~.,*G  ",
"  $=@')!^/<|36aed4/,ipvHDDDDDDDDDDDDDDDDDHvpi,/4dea63|</^!)'@=  ",
"  ##*)!{/(<159ce6<.AtvyDDDDDDDDDDDDDDDDDDDyvtA.<6ec951<(/{!)*#  ",
" %#*,.!]/<|36afa1{&osHDDDDDDDDIIIIIDDDDDDDDHso&{1afa63|</]!.,*J ",
" $=@')!^_[149ce6_,juEDDDDDDIIIIIIIIIIIDDDDDDEuj,_6ec941[_^!)'@= ",
" &=@'!{/:}260eb1{ntBFDDDDDIIIIIIIIIIIIIDDDDDFBtn{1be062}:/{!'@= ",
" #*,.~](_|38be9<'juxDDDDDIIIIIIIIIIIIIIIDDDDDxuj'<9eb83|_(]~.,* ",
".#*,.!]/<}49ce5/#ovCDDDDIIIIIIIIIIIIIIIIIDDDDCvo#/5ec94}</]!.,*.",
"+#*,)!^_[150dd1{hpwDDDDDIIIIIIIIIIIIIIIIIDDDDDwph{1dd051[_^!),*K",
"@*@'){^_<250ea|~iqxDDDDDIIIIIIIIIIIIIIIIIDDDDDxqi~|ae052<_^{)'@@",
"#=@'){^(}26af0<'jryDDDDIIIIIIIIIIIIIIIIIIIDDDDyrj'<0fa62}(^{)'@#",
"$=@'){/:}26ag0<,kszDDDDIIIIIIIIIIIIIIIIIIIDDDDzsk,<0ga62}:/{)'@#",
"$=@'){/:}26ae9:,lszDDDDIIIIIIIIIIIIIIIIIIIDDDDzsl,:9ea62}:/{)'@*",
"#=@'){/:}26ag0<,kszDDDDIIIIIIIIIIIIIIIIIIIDDDDzsk,<0ga62}:/{)'@#",
"@=@'){^(}26af0<'jryDDDDIIIIIIIIIIIIIIIIIIIDDDDyrj'<0fa62}(^{)'@,",
"+*@'){^_<250ea|~iqxDDDDDIIIIIIIIIIIIIIIIIDDDDDxqi~|ae052<_^{)'@L",
".#*,)!^_[150dd1{hpwDDDDDIIIIIIIIIIIIIIIIIDDDDDwph{1dd051[_^!),*.",
" #*,.!]/<}49ce5/#ovCDDDDIIIIIIIIIIIIIIIIIDDDDCvo#/5ec94}</]!.,* ",
" #*,.~](_|38be9<'juxDDDDDIIIIIIIIIIIIIIIDDDDDxuj'<9eb83|_(]~.,* ",
" &=@'!{/:}260eb1{ntBFDDDDDIIIIIIIIIIIIIDDDDDFBtn{1be062}:/{!'@= ",
" -=@')!^_[149ce6_,juEDDDDDDIIIIIIIIIIIDDDDDDEuj,_6ec941[_^!)'@M ",
"  #*,.!]/<|36afa1{&osHDDDDDDDDIIIIIDDDDDDDDHso&{1afa63|</]!.,*  ",
"  ##*)!{/(<159ce6<.AtvyDDDDDDDDDDDDDDDDDDDyvtA.<6ec951<(/{!)*#  ",
"  >=@')!^/<|36aed4/,ipvHDDDDDDDDDDDDDDDDDHvpi,/4dea63|</^!)'@N  ",
"   #*,.~{/(<149bea17,itsEFDDDDDDDDDDDDDFEsti,71aeb941<(/{~.,*   ",
"   ==@')!^/<}250cm017,AouBxCDDDDDDDDDCxBuoA,710mc052}</^!)'@@   ",
"    #*,.~{^_:|360cm01/.&jtuvwxyzzzyxwvutj&./10mc063|:_^{~.,*    ",
"    '=@')!]7:<1460cma4<{,njopqrsssrqpojn,{<4amc0641<:7]!)'@.    ",
"     #*,')!^/_}1460ced61_{'#hijklkjih#'{_16dec0641}_/^!)',*     ",
"     .=*,.~{^/_}1460beea61</{~',,,'~{/<16aeeb0641}_/^{~.,*.     ",
"      @=@'.~{^/_}1359acfeb951|<<:<<|159befca9531}_/^{~.'@,      ",
"       #*@')~{^/_<|2469aceeeda00900adeeeca9642|<_/^{~)'@*       ",
"        #**')~{^/::}135690bcdefgegfedcb096531}::/^{~)'**        ",
"         **,')~{^7_<<|13468900aaaaa00986431|<<_7^{~)',*         ",
"          =**'.~!]^/(<<|12345566666554321|<<(/^]!~.'**          ",
"           **@'.)!{^//(<[}|}122222221}|}[<(//^{!).'@*           ",
"            #*@,')~!{^//_:_<[<}}}}}<[<_:_//^{!~)',@*            ",
"             @=*,'.)~!{]^/(/__(:::(__/(/^]{!~).',*,             ",
"              .=*@,'.)!!!{]]^^^///^^^]]{!!!).',@*.              ",
"                '=*@,').)!~!!{{{{{{{!!~!).)',@*.                ",
"                  *=*@*,''..)))))))))..'',*@*@                  ",
"                    G=#*@@,,,''''''',,,@@*#N                    ",
"                       J==***@@@@@@@***=M                       ",
"                           .K@##*#,L.                           "};
