/* XPM */
static char * blue2_xpm[] = {
"64 64 93 2",
"  	c #FF00FF",
". 	c #009DFF",
"+ 	c #00A2FF",
"@ 	c #00A1FF",
"# 	c #00A0FF",
"$ 	c #009FFF",
"% 	c #00A3FF",
"& 	c #009EFF",
"* 	c #009CFF",
"= 	c #00A7FF",
"- 	c #009BFF",
"; 	c #009AFF",
"> 	c #0099FF",
", 	c #00A6FF",
"' 	c #40A7FF",
") 	c #0098FF",
"! 	c #0097FF",
"~ 	c #0095FF",
"{ 	c #0096FF",
"] 	c #2DA6FF",
"^ 	c #0094FF",
"/ 	c #0093FF",
"( 	c #0092FF",
"_ 	c #0090FF",
": 	c #008FFF",
"< 	c #008EFF",
"[ 	c #008DFF",
"} 	c #0091FF",
"| 	c #008CFF",
"1 	c #008BFF",
"2 	c #008AFF",
"3 	c #0089FF",
"4 	c #FF36FF",
"5 	c #0088FF",
"6 	c #0087FF",
"7 	c #0086FF",
"8 	c #0085FF",
"9 	c #0084FF",
"0 	c #0083FF",
"a 	c #0082FF",
"b 	c #0081FF",
"c 	c #007FFF",
"d 	c #007EFF",
"e 	c #007DFF",
"f 	c #FF37FF",
"g 	c #007CFF",
"h 	c #0080FF",
"i 	c #00A5FF",
"j 	c #00A9FF",
"k 	c #00ABFF",
"l 	c #00AEFF",
"m 	c #00AFFF",
"n 	c #00A4FF",
"o 	c #00B2FF",
"p 	c #00B6FF",
"q 	c #00B9FF",
"r 	c #00BBFF",
"s 	c #00BCFF",
"t 	c #00B5FF",
"u 	c #00BFFF",
"v 	c #00C4FF",
"w 	c #00C8FF",
"x 	c #00CAFF",
"y 	c #00CCFF",
"z 	c #00CDFF",
"A 	c #00ADFF",
"B 	c #00B3FF",
"C 	c #00C1FF",
"D 	c #00C9FF",
"E 	c #00D0FF",
"F 	c #00D5FF",
"G 	c #00D9FF",
"H 	c #00DEFF",
"I 	c #00E1FF",
"J 	c #00E0FF",
"K 	c #00B8FF",
"L 	c #00C7FF",
"M 	c #00D1FF",
"N 	c #00E2FF",
"O 	c #00EAFF",
"P 	c #00F3FF",
"Q 	c #00F8FF",
"R 	c #00FCFF",
"S 	c #00FDFF",
"T 	c #00C3FF",
"U 	c #00D8FF",
"V 	c #00E4FF",
"W 	c #00EFFF",
"X 	c #00FFFF",
"Y 	c #00DCFF",
"Z 	c #FFFFFF",
"` 	c #21A4FF",
" .	c #38A5FF",
"                                                        . . . . . . . .                                                         ",
"                                              . + @ + # @ @ $ $ $ $ $ @ @ # + @ .                                               ",
"                                        . % + # $ $ & & . . . * * * . . . & & $ $ # + .                                         ",
"                                    = @ # $ & . . * - * ; ; > > > > > ; ; * - * . . & $ # ,                                     ",
"                                ' @ @ $ & . . * ; > ) ! ! ~ { { { { { ~ ! ! ) > ; * . . & $ @ ]                                 ",
"                            . % # $ & * - ; > ! ~ { ~ ^ / / / ( ( ( / / / ^ ~ { ~ ! > ; - * & $ # .                             ",
"                          = + $ & * - > ) ! ^ ^ / ( _ : _ < : : [ : : < _ : _ ( / ^ ^ ! ) > - * & $ ,                           ",
"                        + # $ . - ; ) ! ~ ( ( } < [ | 1 1 2 2 3 3 3 2 2 1 1 | [ < } ( ( ~ ! ) ; - . $ #   4                     ",
"                      % @ & * * > ! ~ / ( : [ [ 1 3 5 6 7 7 8 8 8 8 8 7 7 6 5 3 1 [ [ : ( / ~ ! > * * & @                       ",
"                    % @ & * ; ) { ^ ( : [ 1 2 5 7 8 9 0 a b c c c c c b a 0 9 8 7 5 2 1 [ : ( ^ { ) ; * & @                     ",
"                  % @ & . > ! ~ / _ : [ 2 6 7 9 a c d e e c d c c c d c e e d c a 9 7 6 2 [ : _ / ~ ! > . & @   f               ",
"                % @ & - > ! ~ ( : < 2 5 7 a b d g d b 0 9 7 6 6 7 6 6 7 9 0 b d g d b a 7 5 2 < : ( ~ ! > - & @                 ",
"              + @ & . > ! / ( < [ 3 6 9 h d e c 0 7 5 2 [ [ : : _ : : [ [ 2 5 7 0 c e d h 9 6 3 [ < ( / ! > . & @               ",
"            = # & * > ! / ( < 1 3 7 0 c g c 0 6 2 < _ ( ~ ! ) ) ; ) ) ! ~ ( _ < 2 6 0 c g c 0 7 3 1 < ( / ! > * & i             ",
"            + $ * ; ! ~ ( < 1 5 8 a d c a 6 2 : ( { ; * & @ + % % % + @ & * ; { ( : 2 6 a c d a 8 5 1 < ( ~ ! ; * $ .           ",
"          % $ . * ) ~ ( < 1 5 8 a e c 9 3 < ( ! ; $ % , j k l m m m l k j , % $ ; ! ( < 3 9 c e a 8 5 1 < ( ~ ) * . $           ",
"        . # & - > { / : [ 3 8 a e c 7 2 _ ~ - $ n j l o p q r s s s r q p o l j n $ - ~ _ 2 7 c e a 8 3 [ : / { > - & .         ",
"        @ $ * ; ! ^ _ < 3 7 a e c 7 1 } ! . % j m t q u v w x y z y x w v u q t m j % . ! } 1 7 c e a 7 3 < _ ^ ! ; * $         ",
"      = @ & - ) ~ ( : 2 6 0 d c 7 1 } ) & i A B r C D E F G H I J I H G F E D C r B A i & ) } 1 7 c d 0 6 2 : ( ~ ) - & .       ",
"      @ $ * > ! / : [ 5 9 c c 9 2 } ) $ , m K u L M G N O P Q R S R Q P O N G M L u K m , $ ) } 2 9 c c 9 5 [ : / ! > * $       ",
"    . # & - ) ~ ( [ 2 7 h g a 3 _ ! & , l q T z U V W S X X X X X X X X X S W V U z T q l , & ! _ 3 a g h 7 2 [ ( ~ ) - & .     ",
"    % $ . ; ! ( : 1 6 a d c 6 < ~ . i m q v E Y O R X X X X X X X X X X X X X R O Y E v q m i . ~ < 6 c d a 6 1 : ( ! ; . $     ",
"    + & . > ^ ( [ 2 7 b e 0 2 ( - % A K T E H W X X X X X Z Z Z Z Z Z Z X X X X X W H E T K A % - ( 2 0 e b 7 2 [ ( ^ > . &     ",
"  . # . * ! ^ } [ 5 9 d c 6 : ! $ j B u z Y W X X X X Z Z Z Z Z Z Z Z Z Z Z X X X X W Y z u B j $ ! : 6 c d 9 5 [ } ^ ! * . .   ",
"  + $ . ; ~ / < 1 7 a g 0 2 ( ; n m r L U O X X X Z Z Z Z Z Z Z Z Z Z Z Z Z Z Z X X X O U L r m n ; ( 2 0 g a 7 1 < / ~ ; . $   ",
"  @ $ * > { ( [ 3 8 c d 7 < { $ j t C M V R X X Z Z Z Z Z Z Z Z Z Z Z Z Z Z Z Z Z X X R V M C t j $ { < 7 d c 8 3 [ ( { > * $   ",
"  + & - ) ~ _ | 5 9 d b 5 _ ; % l q D G W X X X Z Z Z Z Z Z Z Z Z Z Z Z Z Z Z Z Z X X X W G D q l % ; _ 5 b d 9 5 | _ ~ ) - &   ",
". # & * ! ^ : 1 6 0 e 0 2 ( * , o u E N S X X Z Z Z Z Z Z Z Z Z Z Z Z Z Z Z Z Z Z Z X X S N E u o , * ( 2 0 e 0 6 1 : ^ ! * & . ",
". @ . ; ! / _ 1 7 a e 9 [ ~ & j p v F O X X X Z Z Z Z Z Z Z Z Z Z Z Z Z Z Z Z Z Z Z X X X O F v p j & ~ [ 9 e a 7 1 _ / ! ; . . ",
". @ . ; ~ / < 2 7 b c 7 [ ! @ k q w G P X X Z Z Z Z Z Z Z Z Z Z Z Z Z Z Z Z Z Z Z Z Z X X P G w q k @ ! [ 7 c b 7 2 < / ~ ; . . ",
". $ . > { / : 2 8 c d 6 : ) + l r x H Q X X Z Z Z Z Z Z Z Z Z Z Z Z Z Z Z Z Z Z Z Z Z X X Q H x r l + ) : 6 d c 8 2 : / { > . . ",
". $ * > { ( : 3 8 c c 6 : ) % m s y I R X X Z Z Z Z Z Z Z Z Z Z Z Z Z Z Z Z Z Z Z Z Z X X R I y s m % ) : 6 c c 8 3 : ( { > * . ",
". $ * > { ( [ 3 8 c c 7 _ ; % m s z J S X X Z Z Z Z Z Z Z Z Z Z Z Z Z Z Z Z Z Z Z Z Z X X S J z s m % ; _ 7 c c 8 3 [ ( { > * . ",
". $ * > { ( : 3 8 c c 6 : ) % m s y I R X X Z Z Z Z Z Z Z Z Z Z Z Z Z Z Z Z Z Z Z Z Z X X R I y s m % ) : 6 c c 8 3 : ( { > * . ",
". $ . > { / : 2 8 c d 6 : ) + l r x H Q X X Z Z Z Z Z Z Z Z Z Z Z Z Z Z Z Z Z Z Z Z Z X X Q H x r l + ) : 6 d c 8 2 : / { > . . ",
". @ . ; ~ / < 2 7 b c 7 [ ! @ k q w G P X X Z Z Z Z Z Z Z Z Z Z Z Z Z Z Z Z Z Z Z Z Z X X P G w q k @ ! [ 7 c b 7 2 < / ~ ; . . ",
". @ . ; ! / _ 1 7 a e 9 [ ~ & j p v F O X X X Z Z Z Z Z Z Z Z Z Z Z Z Z Z Z Z Z Z Z X X X O F v p j & ~ [ 9 e a 7 1 _ / ! ; . . ",
"  # & * ! ^ : 1 6 0 e 0 2 ( * , o u E N S X X Z Z Z Z Z Z Z Z Z Z Z Z Z Z Z Z Z Z Z X X S N E u o , * ( 2 0 e 0 6 1 : ^ ! * &   ",
"  + & - ) ~ _ | 5 9 d b 5 _ ; % l q D G W X X X Z Z Z Z Z Z Z Z Z Z Z Z Z Z Z Z Z X X X W G D q l % ; _ 5 b d 9 5 | _ ~ ) - &   ",
"  @ $ * > { ( [ 3 8 c d 7 < { $ j t C M V R X X Z Z Z Z Z Z Z Z Z Z Z Z Z Z Z Z Z X X R V M C t j $ { < 7 d c 8 3 [ ( { > * $   ",
"  . $ . ; ~ / < 1 7 a g 0 2 ( ; n m r L U O X X X Z Z Z Z Z Z Z Z Z Z Z Z Z Z Z X X X O U L r m n ; ( 2 0 g a 7 1 < / ~ ; . .   ",
"    # . * ! ^ } [ 5 9 d c 6 : ! $ j B u z Y W X X X X Z Z Z Z Z Z Z Z Z Z Z X X X X W Y z u B j $ ! : 6 c d 9 5 [ } ^ ! * .     ",
"    + & . > ^ ( [ 2 7 b e 0 2 ( - % A K T E H W X X X X X Z Z Z Z Z Z Z X X X X X W H E T K A % - ( 2 0 e b 7 2 [ ( ^ > . &     ",
"    . $ . ; ! ( : 1 6 a d c 6 < ~ . i m q v E Y O R X X X X X X X X X X X X X R O Y E v q m i . ~ < 6 c d a 6 1 : ( ! ; . .     ",
"      # & - ) ~ ( [ 2 7 h g a 3 _ ! & , l q T z U V W S X X X X X X X X X S W V U z T q l , & ! _ 3 a g h 7 2 [ ( ~ ) - &       ",
"      . $ * > ! / : [ 5 9 c c 9 2 } ) $ , m K u L M G N O P Q R S R Q P O N G M L u K m , $ ) } 2 9 c c 9 5 [ : / ! > * n       ",
"        @ & - ) ~ ( : 2 6 0 d c 7 1 } ) & i A B r C D E F G H I J I H G F E D C r B A i & ) } 1 7 c d 0 6 2 : ( ~ ) - &         ",
"        ] $ * ; ! ^ _ < 3 7 a e c 7 1 } ! . % j m t q u v w x y z y x w v u q t m j % . ! } 1 7 c e a 7 3 < _ ^ ! ; * `         ",
"          # & - > { / : [ 3 8 a e c 7 2 _ ~ - $ n j l o p q r s s s r q p o l j n $ - ~ _ 2 7 c e a 8 3 [ : / { > - &           ",
"          . $ . * ) ~ ( < 1 5 8 a e c 9 3 < ( ! ; $ % , j k l m m m l k j , % $ ; ! ( < 3 9 c e a 8 5 1 < ( ~ ) * .             ",
"            , $ * ; ! ~ ( < 1 5 8 a d c a 6 2 : ( { ; * & @ + % % % + @ & * ; { ( : 2 6 a c d a 8 5 1 < ( ~ ! ; * .             ",
"              # & * > ! / ( < 1 3 7 0 c g c 0 6 2 < _ ( ~ ! ) ) ; ) ) ! ~ ( _ < 2 6 0 c g c 0 7 3 1 < ( / ! > * &               ",
"                @ & . > ! / ( < [ 3 6 9 h d e c 0 7 5 2 [ [ : : _ : : [ [ 2 5 7 0 c e d h 9 6 3 [ < ( / ! > . &                 ",
"                  @ & - > ! ~ ( : < 2 5 7 a b d g d b 0 9 7 6 6 7 6 6 7 9 0 b d g d b a 7 5 2 < : ( ~ ! > - &   f               ",
"                    @ & . > ! ~ / _ : [ 2 6 7 9 a c d e e c d c c c d c e e d c a 9 7 6 2 [ : _ / ~ ! > . &                     ",
"                      @ & * ; ) { ^ ( : [ 1 2 5 7 8 9 0 a b c c c c c b a 0 9 8 7 5 2 1 [ : ( ^ { ) ; * &                       ",
"                        @ & * * > ! ~ / ( : [ [ 1 3 5 6 7 7 8 8 8 8 8 7 7 6 5 3 1 [ [ : ( / ~ ! > * * &                         ",
"                          . $ . - ; ) ! ~ ( ( } < [ | 1 1 2 2 3 3 3 2 2 1 1 | [ < } ( ( ~ ! ) ; - . .                           ",
"                            . $ & * - > ) ! ^ ^ / ( _ : _ < : : [ : : < _ : _ ( / ^ ^ ! ) > - * &                               ",
"                                 .$ & * - ; > ! ~ { ~ ^ / / / ( ( ( / / / ^ ~ { ~ ! > ; - * & .                                 ",
"                                    i $ & . . * ; > ) ! ! ~ { { { { { ~ ! ! ) > ; * . . & n                                     ",
"                                        . $ & . . * - * ; ; > > > > > ; ; * - * . . & .                                         ",
"                                              . $ $ & & . . . * * * . . . & & . .                                               ",
"                                                      . . i % @ @ % . . .                                                       "};
