/* XPM */
static char * \\wsl$\Ubuntu_20_04\home\kika75\Projet11\cub3d\bonus\imgs\s_blue\blue2_xpm[] = {
"64 64 91 1",
" 	c #FF00FF",
".	c #009DFF",
"+	c #00A2FF",
"@	c #00A1FF",
"#	c #00A0FF",
"$	c #009FFF",
"%	c #00A3FF",
"&	c #009EFF",
"*	c #009CFF",
"=	c #00A7FF",
"-	c #009BFF",
";	c #009AFF",
">	c #0099FF",
",	c #00A6FF",
"'	c #40A7FF",
")	c #0098FF",
"!	c #0097FF",
"~	c #0095FF",
"{	c #0096FF",
"]	c #2DA6FF",
"^	c #0094FF",
"/	c #0093FF",
"(	c #0092FF",
"_	c #0090FF",
":	c #008FFF",
"<	c #008EFF",
"[	c #008DFF",
"}	c #0091FF",
"|	c #008CFF",
"1	c #008BFF",
"2	c #008AFF",
"3	c #0089FF",
"4	c #0088FF",
"5	c #0087FF",
"6	c #0086FF",
"7	c #0085FF",
"8	c #0084FF",
"9	c #0083FF",
"0	c #0082FF",
"a	c #0081FF",
"b	c #007FFF",
"c	c #007EFF",
"d	c #007DFF",
"e	c #007CFF",
"f	c #0080FF",
"g	c #00A5FF",
"h	c #00A9FF",
"i	c #00ABFF",
"j	c #00AEFF",
"k	c #00AFFF",
"l	c #00A4FF",
"m	c #00B2FF",
"n	c #00B6FF",
"o	c #00B9FF",
"p	c #00BBFF",
"q	c #00BCFF",
"r	c #00B5FF",
"s	c #00BFFF",
"t	c #00C4FF",
"u	c #00C8FF",
"v	c #00CAFF",
"w	c #00CCFF",
"x	c #00CDFF",
"y	c #00ADFF",
"z	c #00B3FF",
"A	c #00C1FF",
"B	c #00C9FF",
"C	c #00D0FF",
"D	c #00D5FF",
"E	c #00D9FF",
"F	c #00DEFF",
"G	c #00E1FF",
"H	c #00E0FF",
"I	c #00B8FF",
"J	c #00C7FF",
"K	c #00D1FF",
"L	c #00E2FF",
"M	c #00EAFF",
"N	c #00F3FF",
"O	c #00F8FF",
"P	c #00FCFF",
"Q	c #00FDFF",
"R	c #00C3FF",
"S	c #00D8FF",
"T	c #00E4FF",
"U	c #00EFFF",
"V	c #00FFFF",
"W	c #00DCFF",
"X	c #FFFFFF",
"Y	c #21A4FF",
"Z	c #38A5FF",
"                            ........                            ",
"                       .+@+#@@$$$$$@@#+@.                       ",
"                    .%+#$$&&...***...&&$$#+.                    ",
"                  =@#$&..*-*;;>>>>>;;*-*..&$#,                  ",
"                '@@$&..*;>)!!~{{{{{~!!)>;*..&$@]                ",
"              .%#$&*-;>!~{~^///(((///^~{~!>;-*&$#.              ",
"             =+$&*->)!^^/(_:_<::[::<_:_(/^^!)>-*&$,             ",
"            +#$.-;)!~((}<[|11223332211|[<}((~!);-.$#            ",
"           %@&**>!~/(:[[13456677777665431[[:(/~!>**&@           ",
"          %@&*;){^(:[12467890abbbbba09876421[:(^{);*&@          ",
"         %@&.>!~/_:[25680bcddbcbbbcbddcb08652[:_/~!>.&@         ",
"        %@&->!~(:<2460aceca98655655689aceca0642<:(~!>-&@        ",
"       +@&.>!/(<[358fcdb9642[[::_::[[2469bdcf853[<(/!>.&@       ",
"      =#&*>!/(<1369beb952<_(~!));))!~(_<259beb9631<(/!>*&g      ",
"      +$*;!~(<1470cb052:({;*&@+%%%+@&*;{(:250bc0741<(~!;*$.     ",
"     %$.*)~(<1470db83<(!;$%,hijkkkjih,%$;!(<38bd0741<(~)*.$     ",
"    .#&->{/:[370db62_~-$lhjmnopqqqponmjhl$-~_26bd073[:/{>-&.    ",
"    @$*;!^_<360db61}!.%hkrostuvwxwvutsorkh%.!}16bd063<_^!;*$    ",
"   =@&-)~(:259cb61})&gyzpABCDEFGHGFEDCBApzyg&)}16bc952:(~)-&.   ",
"   @$*>!/:[48bb82})$,kIsJKELMNOPQPONMLEKJsIk,$)}28bb84[:/!>*$   ",
"  .#&-)~([26fe03_!&,joRxSTUQVVVVVVVVVQUTSxRoj,&!_30ef62[(~)-&.  ",
"  %$.;!(:150cb5<~.gkotCWMPVVVVVVVVVVVVVPMWCtokg.~<5bc051:(!;.$  ",
"  +&.>^([26ad92(-%yIRCFUVVVVVXXXXXXXVVVVVUFCRIy%-(29da62[(^>.&  ",
" .#.*!^}[48cb5:!$hzsxWUVVVVXXXXXXXXXXXVVVVUWxszh$!:5bc84[}^!*.. ",
" +$.;~/<160e92(;lkpJSMVVVXXXXXXXXXXXXXXXVVVMSJpkl;(29e061</~;.$ ",
" @$*>{([37bc6<{$hrAKTPVVXXXXXXXXXXXXXXXXXVVPTKArh${<6cb73[({>*$ ",
" +&-)~_|48ca4_;%joBEUVVVXXXXXXXXXXXXXXXXXVVVUEBoj%;_4ac84|_~)-& ",
".#&*!^:159d92(*,msCLQVVXXXXXXXXXXXXXXXXXXXVVQLCsm,*(29d951:^!*&.",
".@.;!/_160d8[~&hntDMVVVXXXXXXXXXXXXXXXXXXXVVVMDtnh&~[8d061_/!;..",
".@.;~/<26ab6[!@iouENVVXXXXXXXXXXXXXXXXXXXXXVVNEuoi@![6ba62</~;..",
".$.>{/:27bc5:)+jpvFOVVXXXXXXXXXXXXXXXXXXXXXVVOFvpj+):5cb72:/{>..",
".$*>{(:37bb5:)%kqwGPVVXXXXXXXXXXXXXXXXXXXXXVVPGwqk%):5bb73:({>*.",
".$*>{([37bb6_;%kqxHQVVXXXXXXXXXXXXXXXXXXXXXVVQHxqk%;_6bb73[({>*.",
".$*>{(:37bb5:)%kqwGPVVXXXXXXXXXXXXXXXXXXXXXVVPGwqk%):5bb73:({>*.",
".$.>{/:27bc5:)+jpvFOVVXXXXXXXXXXXXXXXXXXXXXVVOFvpj+):5cb72:/{>..",
".@.;~/<26ab6[!@iouENVVXXXXXXXXXXXXXXXXXXXXXVVNEuoi@![6ba62</~;..",
".@.;!/_160d8[~&hntDMVVVXXXXXXXXXXXXXXXXXXXVVVMDtnh&~[8d061_/!;..",
" #&*!^:159d92(*,msCLQVVXXXXXXXXXXXXXXXXXXXVVQLCsm,*(29d951:^!*& ",
" +&-)~_|48ca4_;%joBEUVVVXXXXXXXXXXXXXXXXXVVVUEBoj%;_4ac84|_~)-& ",
" @$*>{([37bc6<{$hrAKTPVVXXXXXXXXXXXXXXXXXVVPTKArh${<6cb73[({>*$ ",
" .$.;~/<160e92(;lkpJSMVVVXXXXXXXXXXXXXXXVVVMSJpkl;(29e061</~;.. ",
"  #.*!^}[48cb5:!$hzsxWUVVVVXXXXXXXXXXXVVVVUWxszh$!:5bc84[}^!*.  ",
"  +&.>^([26ad92(-%yIRCFUVVVVVXXXXXXXVVVVVUFCRIy%-(29da62[(^>.&  ",
"  .$.;!(:150cb5<~.gkotCWMPVVVVVVVVVVVVVPMWCtokg.~<5bc051:(!;..  ",
"   #&-)~([26fe03_!&,joRxSTUQVVVVVVVVVQUTSxRoj,&!_30ef62[(~)-&   ",
"   .$*>!/:[48bb82})$,kIsJKELMNOPQPONMLEKJsIk,$)}28bb84[:/!>*l   ",
"    @&-)~(:259cb61})&gyzpABCDEFGHGFEDCBApzyg&)}16bc952:(~)-&    ",
"    ]$*;!^_<360db61}!.%hkrostuvwxwvutsorkh%.!}16bd063<_^!;*Y    ",
"     #&->{/:[370db62_~-$lhjmnopqqqponmjhl$-~_26bd073[:/{>-&     ",
"     .$.*)~(<1470db83<(!;$%,hijkkkjih,%$;!(<38bd0741<(~)*.      ",
"      ,$*;!~(<1470cb052:({;*&@+%%%+@&*;{(:250bc0741<(~!;*.      ",
"       #&*>!/(<1369beb952<_(~!));))!~(_<259beb9631<(/!>*&       ",
"        @&.>!/(<[358fcdb9642[[::_::[[2469bdcf853[<(/!>.&        ",
"         @&->!~(:<2460aceca98655655689aceca0642<:(~!>-&         ",
"          @&.>!~/_:[25680bcddbcbbbcbddcb08652[:_/~!>.&          ",
"           @&*;){^(:[12467890abbbbba09876421[:(^{);*&           ",
"            @&**>!~/(:[[13456677777665431[[:(/~!>**&            ",
"             .$.-;)!~((}<[|11223332211|[<}((~!);-..             ",
"              .$&*->)!^^/(_:_<::[::<_:_(/^^!)>-*&               ",
"                Z$&*-;>!~{~^///(((///^~{~!>;-*&.                ",
"                  g$&..*;>)!!~{{{{{~!!)>;*..&l                  ",
"                    .$&..*-*;;>>>>>;;*-*..&.                    ",
"                       .$$&&...***...&&..                       ",
"                           ..g%@@%...                           "};
