/* XPM */
static char * blue1_xpm[] = {
"64 64 88 1",
" 	c #FF00FF",
".	c #0095FF",
"+	c #0097FF",
"@	c #0098FF",
"#	c #0096FF",
"$	c #0094FF",
"%	c #0093FF",
"&	c #0091FF",
"*	c #0092FF",
"=	c #0090FF",
"-	c #009FFF",
";	c #008FFF",
">	c #008EFF",
",	c #008DFF",
"'	c #008CFF",
")	c #008AFF",
"!	c #0089FF",
"~	c #0088FF",
"{	c #0087FF",
"]	c #0086FF",
"^	c #0085FF",
"/	c #0084FF",
"(	c #0083FF",
"_	c #0082FF",
":	c #0080FF",
"<	c #0081FF",
"[	c #0E9CFF",
"}	c #FF36FF",
"|	c #007FFF",
"1	c #007EFF",
"2	c #007CFF",
"3	c #007DFF",
"4	c #007BFF",
"5	c #007AFF",
"6	c #0079FF",
"7	c #0078FF",
"8	c #0077FF",
"9	c #0075FF",
"0	c #0076FF",
"a	c #0073FF",
"b	c #0072FF",
"c	c #009DFF",
"d	c #0099FF",
"e	c #009CFF",
"f	c #009EFF",
"g	c #009AFF",
"h	c #00A1FF",
"i	c #00A3FF",
"j	c #00A5FF",
"k	c #00A8FF",
"l	c #00A9FF",
"m	c #00ABFF",
"n	c #00AEFF",
"o	c #00B2FF",
"p	c #00B3FF",
"q	c #00B6FF",
"r	c #00AFFF",
"s	c #00B8FF",
"t	c #00BDFF",
"u	c #00C1FF",
"v	c #00C3FF",
"w	c #00A0FF",
"x	c #00A7FF",
"y	c #00BAFF",
"z	c #00C0FF",
"A	c #00C6FF",
"B	c #00CAFF",
"C	c #00D0FF",
"D	c #00D2FF",
"E	c #00D5FF",
"F	c #00D7FF",
"G	c #00C9FF",
"H	c #00D8FF",
"I	c #00DFFF",
"J	c #00E4FF",
"K	c #00E9FF",
"L	c #00ECFF",
"M	c #00EFFF",
"N	c #00CDFF",
"O	c #00FAFF",
"P	c #00FFFF",
"Q	c #00BBFF",
"R	c #00D1FF",
"S	c #FFFFFF",
"T	c #00E1FF",
"U	c #00F4FF",
"V	c #00F8FF",
"W	c #029BFF",
"                            .........                           ",
"                       .+@#...$$$$$...#@.                       ",
"                    .+#.$$%&**=&&&=**&%$$.#.                    ",
"                  -@.$%&=;=;;>>>>>>>;;=;=&%$..                  ",
"                .@.$%==;>,''))!!!!!))'',>;==%$..                ",
"               +.$&&=>,')!~{]]^^^^^]]{~!)',>=&&$.               ",
"             .#$%&>>')~{]^/(__::<::__(/^]{~)'>>&%$[             ",
"          } +.$*=>')~]^(_<:|123444321|:<_(^]~)'>=*$.            ",
"           @.%&;,)~]/(<1145678890988765411<(/]~),;&%.           ",
"          @.%;,'!{^(<|35789aba99999aba98753|<(^{!',;%.          ",
"         @.&=>'~]/:|3689b906645242546609b9863|:/]~'>=&. }       ",
"        @.&=>)~^(|2589a0753|:_(___(_:|3570a9852|(^~)>=&.        ",
"       +.%=>){^_1470b064|<(]~!))'))!~](<|460b0741_^{)>=%.       ",
"      -.%;>){^_|40a974|_]!'>=%$%%%$%=>'!]_|479a04|_^{)>;%c      ",
"      #$&,'~^_358b041(])>&.+decfffced+.&>)](140b853_^~',&$.     ",
"     +$*;'~^_|58b82:^!>%.gfhijklllkjihfg.%>!^:28b85|_^~';*$     ",
"    ..%=,!](148b84_]'=#g-ikmnopqqqponmki-g#=']_48b841(]!,=%.    ",
"    @$&>){/|40b84_{,%@filrpstuvvvvvutsprlif@%,{_48b04|/{)>&$    ",
"   ..&>'~^:27a02_{,$dwxnpyzABCDEFEDCBAzypnxwd$,{_20a72:^~'>&.   ",
"   @$&>)](|5094:],$ghlrszGCHIJKLMLKJIHCGzsrlhg$,]:4905|(])>&$   ",
"  ..%='~/<38b71^'%dhloyvNHJMOPPPPPPPOMJHNvyolhd%'^17b83</~'=%.  ",
"  +$=>)](|6904(!=@wloQARILPPPPSSSSSPPPPLIRAQolw@=!(4096|(])>=$  ",
"  #%=,~^<38a6|]>#fxryADTUPPSSSSSSSSSSSPPUTDAyrxf#>]|6a83<^~,=%  ",
" ..&;'{(15904_)%ginsvRTVPPSSSSSSSSSSSSSPPVTRvsnig%)_40951({';&. ",
" +$=>)]_17b7|]>.-lpzNIUPPSSSSSSSSSSSSSSSPPUINzpl-.>]|7b71_])>=$ ",
" @$;,!^<4895<!&giryGHLPPSSSSSSSSSSSSSSSSSPPLHGyrig&!<5984<^!,;$ ",
" #%='~/:5903('.fkpzCJPPSSSSSSSSSSSSSSSSSSSPPJCzpkf.'(3095:/~'=% ",
" .&;'{(|6a6|]>+hmsAHMPSSSSSSSSSSSSSSSSSSSSSPMHAsmh+>]|6a6|({';&.",
"..*;)]_17b6:~=dintBIOPSSSSSSSSSSSSSSSSSSSSSPOIBtnid=~:6b71_]);*.",
"..*>)]_28a4_!%ejouCJPPSSSSSSSSSSSSSSSSSSSSSPPJCuoje%!_4a82_])>*.",
".$=>!^:3895()$ckpvDKPSSSSSSSSSSSSSSSSSSSSSSSPKDvpkc$)(5983:^!>=.",
".$&>!^:4992_)%flqvELPSSSSSSSSSSSSSSSSSSSSSSSPLEvqlf%)_2994:^!>&.",
".$&>!^<4094_'%flqvFMPSSSSSSSSSSSSSSSSSSSSSSSPMFvqlf%'_4904<^!>&.",
".$&>!^:4992_)%flqvELPSSSSSSSSSSSSSSSSSSSSSSSPLEvqlf%)_2994:^!>&.",
".$=>!^:3895()$ckpvDKPSSSSSSSSSSSSSSSSSSSSSSSPKDvpkc$)(5983:^!>=.",
"..*>)]_28a4_!%ejouCJPPSSSSSSSSSSSSSSSSSSSSSPPJCuoje%!_4a82_])>*.",
"..*;)]_17b6:~=dintBIOPSSSSSSSSSSSSSSSSSSSSSPOIBtnid=~:6b71_]);* ",
" .&;'{(|6a6|]>+hmsAHMPSSSSSSSSSSSSSSSSSSSSSPMHAsmh+>]|6a6|({';& ",
" #%='~/:5903('.fkpzCJPPSSSSSSSSSSSSSSSSSSSPPJCzpkf.'(3095:/~'=% ",
" @$;,!^<4895<!&giryGHLPPSSSSSSSSSSSSSSSSSPPLHGyrig&!<5984<^!,;$ ",
" .$=>)]_17b7|]>.-lpzNIUPPSSSSSSSSSSSSSSSPPUINzpl-.>]|7b71_])>=. ",
"  .&;'{(15904_)%ginsvRTVPPSSSSSSSSSSSSSPPVTRvsnig%)_40951({';&  ",
"  #%=,~^<38a6|]>#fxryADTUPPSSSSSSSSSSSPPUTDAyrxf#>]|6a83<^~,=%  ",
"  .$=>)](|6904(!=@wloQARILPPPPSSSSSPPPPLIRAQolw@=!(4096|(])>=.  ",
"   .%='~/<38b71^'%dhloyvNHJMOPPPPPPPOMJHNvyolhd%'^17b83</~'=%   ",
"   .$&>)](|5094:],$ghlrszGCHIJKLMLKJIHCGzsrlhg$,]:4905|(])>&g   ",
"    .&>'~^:27a02_{,$dwxnpyzABCDEFEDCBAzypnxwd$,{_20a72:^~'>&    ",
"    .$&>){/|40b84_{,%@filrpstuvvvvvutsprlif@%,{_48b04|/{)>&.    ",
"     .%=,!](148b84_]'=#g-ikmnopqqqponmki-g#=']_48b841(]!,=%     ",
"     .$*;'~^_|58b82:^!>%.gfhijklllkjihfg.%>!^:28b85|_^~';*.     ",
"      [$&,'~^_358b041(])>&.+decfffced+.&>)](140b853_^~',&g      ",
"       .%;>){^_|40a974|_]!'>=%$%%%$%=>'!]_|479a04|_^{)>;%       ",
"        .%=>){^_1470b064|<(]~!))'))!~](<|460b0741_^{)>=%        ",
"         .&=>)~^(|2589a0753|:_(___(_:|3570a9852|(^~)>=&         ",
"          .&=>'~]/:|3689b906645242546609b9863|:/]~'>=&          ",
"           .%;,'!{^(<|35789aba99999aba98753|<(^{!',;%           ",
"            .%&;,)~]/(<1145678890988765411<(/]~),;&%            ",
"             .$*=>')~]^(_<:|123444321|:<_(^]~)'>=*g             ",
"               $%&>>')~{]^/(__::<::__(/^]{~)'>>&%.              ",
"                .$&&=>,')!~{]]^^^^^]]{~!)',>=&&.                ",
"                  e$%==;>,''))!!!!!))'',>;==%.                  ",
"                    .$%&=;=;;>>>>>>>;;=;=&%.                    ",
"                       .$$%&**=&&&=**&%$.                       ",
"                            .W@......                           "};
