/* XPM */
static char * \\wsl$\Ubuntu_20_04\home\kika75\Projet11\cub3d\bonus\imgs\s_blue\blue7_xpm[] = {
"64 64 67 1",
" 	c #FF00FF",
".	c #00D8FF",
"+	c #4BC9FF",
"@	c #00D3FF",
"#	c #00DAFF",
"$	c #00DCFF",
"%	c #33CAFF",
"&	c #00DBFF",
"*	c #00D9FF",
"=	c #17CBFF",
"-	c #48C9FF",
";	c #00D7FF",
">	c #39CAFF",
",	c #00D6FF",
"'	c #00D5FF",
")	c #00D0FF",
"!	c #00D4FF",
"~	c #00D1FF",
"{	c #00D2FF",
"]	c #00CFFF",
"^	c #00CEFF",
"/	c #00CDFF",
"(	c #00CCFF",
"_	c #00CBFF",
":	c #00CAFF",
"<	c #00C9FF",
"[	c #00C8FF",
"}	c #00C7FF",
"|	c #00C6FF",
"1	c #00C5FF",
"2	c #00C4FF",
"3	c #00C3FF",
"4	c #00C2FF",
"5	c #00C0FF",
"6	c #00C1FF",
"7	c #00BEFF",
"8	c #00BFFF",
"9	c #00BDFF",
"0	c #00BCFF",
"a	c #00BBFF",
"b	c #00BAFF",
"c	c #00B9FF",
"d	c #00B7FF",
"e	c #00B6FF",
"f	c #00B5FF",
"g	c #00B4FF",
"h	c #00B8FF",
"i	c #00DDFF",
"j	c #00DFFF",
"k	c #00E2FF",
"l	c #00DEFF",
"m	c #00E5FF",
"n	c #00EBFF",
"o	c #00F0FF",
"p	c #00F3FF",
"q	c #00F6FF",
"r	c #00F7FF",
"s	c #00E6FF",
"t	c #00F9FF",
"u	c #00FFFF",
"v	c #00EEFF",
"w	c #37C9FF",
"x	c #00F2FF",
"y	c #12CAFF",
"z	c #FFFFFF",
"A	c #49C8FF",
"B	c #3AC9FF",
"                           .+@#$$#@+.                           ",
"                       %&&&*#########*&&=                       ",
"                    -&&*#****;.....;****#*&>                    ",
"                  ;&*#**..,,;;;''';;;,,..**#*,                  ",
"                )&*#*..,;,,!'''''''''!,,;,..*#*~                ",
"              .&*#*.,;,!'@@{@@@@@@@@@{@@'!,;,.*#*.              ",
"             @&#*.,;,'@!@~{)))~]]]~))){~@!@',;,.*#!             ",
"            &***.;,'@@~{)])^^///////^^)]){~@@',;.***            ",
"           &#*.,,'@@~)]^]/(/___(:(___/(/]^])~@@',,.*#           ",
"          &#*.;,'{~)]^/(__:<<[[[[[[[<<:__(/^])~{',;.*#          ",
"         &#*.;!@@{~^/(_:<[}||1111111||}[<:_(/^~{@@!;.*#         ",
"        &#*.'!@@))](_:[}|123344555443321|}[:_(]))@@!'.*#        ",
"       &#*.''!~)^//:<}|3346578997998756433|}<://^)~!''.*#       ",
"      @**.;!!~)^/_<[|135580abbcccccbba085531|[<_/^)~!!;.*@      ",
"     .&*.;!@~)^(_<}124590bcdeffgggffedcb095421}<_(^)~@!;.*.     ",
"     &#*,,@@)^(_<}13680bheghb9566659bhgehb08631}<_(^)@@,,*#     ",
"    )**.,'@)^/_<}3657bhefb51<(])))](<15bfehb7563}<_/^)@',.*~    ",
"    &#.;'{{)/_<}3450bdgb6[/!.ijkkkji.!/[6bgdb0543}<_/){{';.#    ",
"   ;**,,@~~]/<}1650cee8|],lmnopqrqponml,]|8eec0561}</]~~@,,*!   ",
"   &#.;'@)^(:[1350ceh6_!$sotuuuuuuuuutos$!_6hec0531[:(^)@';.#   ",
"  -**,,@~]/_<|267beh6(;kvtuuuuuuuuuuuuutvk;(6heb762|<_/]~@,,*w  ",
"  &#.;'@)^(:}148bde6(.mxuuuuuuuuuuuuuuuuuxm.(6edb841}:(^)@';.#  ",
"  &*.,@~]/_[|350hg8_;mpuuuuuuuuuuuuuuuuuuupm;_8gh053|[_/]~@,.*  ",
" %**,!!{^(:}359beb|!kxuuuuuuuuuuuuuuuuuuuuuxk!|beb953}:(^{!!,*y ",
" &#.;'@)]_<|350hf6]$vuuuuuuuuzzzzzzzuuuuuuuuv$]6fh053|<_])@';.# ",
" &*.,@~]/_[148beb[,stuuuuuuzzzzzzzzzzzuuuuuuts,[beb841[_/]~@,.* ",
" &*,,@{)(:}260cg5/louuuuuuzzzzzzzzzzzzzuuuuuuol/5gc062}:(){@,,* ",
".**,!{)^/<|35adh1!mtuuuuuzzzzzzzzzzzzzzzuuuuutm!1hda53|</^){!,*.",
"+#*;'@)^_<|37beb<.nuuuuuuzzzzzzzzzzzzzzzuuuuuun.<beb73|<_^)@';*A",
"@#;;'@)/_[148bf9(iouuuuuzzzzzzzzzzzzzzzzzuuuuuoi(9fb841[_/)@';;@",
"##.;'@~/_[149cf5]jpuuuuuzzzzzzzzzzzzzzzzzuuuuupj]5fc941[_/~@';.;",
"$#.''@]/([159cg6)kquuuuuzzzzzzzzzzzzzzzzzuuuuuqk)6gc951[(/]@''.#",
"$#.''@]/:[157cg6)kruuuuuzzzzzzzzzzzzzzzzzuuuuurk)6gc751[:/]@''.#",
"##.''@]/([159cg6)kquuuuuzzzzzzzzzzzzzzzzzuuuuuqk)6gc951[(/]@''.;",
"@#.;'@~/_[149cf5]jpuuuuuzzzzzzzzzzzzzzzzzuuuuupj]5fc941[_/~@';.@",
"+#;;'@)/_[148bf9(iouuuuuzzzzzzzzzzzzzzzzzuuuuuoi(9fb841[_/)@';;B",
".#*;'@)^_<|37beb<.nuuuuuuzzzzzzzzzzzzzzzuuuuuun.<beb73|<_^)@';*.",
" **,!{)^/<|35adh1!mtuuuuuzzzzzzzzzzzzzzzuuuuutm!1hda53|</^){!,* ",
" &*,,@{)(:}260cg5/louuuuuuzzzzzzzzzzzzzuuuuuuol/5gc062}:(){@,,* ",
" &*.,@~]/_[148beb[,stuuuuuuzzzzzzzzzzzuuuuuuts,[beb841[_/]~@,.* ",
" =#.;'@)]_<|350hf6]$vuuuuuuuuzzzzzzzuuuuuuuuv$]6fh053|<_])@';.y ",
"  **,!!{^(:}359beb|!kxuuuuuuuuuuuuuuuuuuuuuxk!|beb953}:(^{!!,*  ",
"  &*.,@~]/_[|350hg8_;mpuuuuuuuuuuuuuuuuuuupm;_8gh053|[_/]~@,.*  ",
"  >#.;'@)^(:}148bde6(.mxuuuuuuuuuuuuuuuuuxm.(6edb841}:(^)@';.w  ",
"   **,,@~]/_<|267beh6(;kvtuuuuuuuuuuuuutvk;(6heb762|<_/]~@,,*   ",
"   ,#.;'@)^(:[1350ceh6_!$sotuuuuuuuuutos$!_6hec0531[:(^)@';.!   ",
"    **,,@~~]/<}1650cee8|],lmnopqrqponml,]|8eec0561}</]~~@,,*    ",
"    ~#.;'{{)/_<}3450bdgb6[/!.ijkkkji.!/[6bgdb0543}<_/){{';.]    ",
"     **.,'@)^/_<}3657bhefb51<(])))](<15bfehb7563}<_/^)@',.*     ",
"     .#*,,@@)^(_<}13680bheghb9566659bhgehb08631}<_(^)@@,,*.     ",
"      !*.;!@~)^(_<}124590bcdeffgggffedcb095421}<_(^)~@!;.!      ",
"       **.;!!~)^/_<[|135580abbcccccbba085531|[<_/^)~!!;.*       ",
"        #*.''!~)^//:<}|3346578997998756433|}<://^)~!''.*        ",
"         #*.'!@@))](_:[}|123344555443321|}[:_(]))@@!'.*         ",
"          #*.;!@@{~^/(_:<[}||1111111||}[<:_(/^~{@@!;.*          ",
"           #*.;,'{~)]^/(__:<<[[[[[[[<<:__(/^])~{',;.*           ",
"            #*.,,'@@~)]^]/(/___(:(___/(/]^])~@@',,.*            ",
"             @**.;,'@@~{)])^^///////^^)]){~@@',;.*!             ",
"               #*.,;,'@!@~{)))~]]]~))){~@!@',;,.*.              ",
"                ~#*.,;,!'@@{@@@@@@@@@{@@'!,;,.*]                ",
"                  !#*..,;,,!'''''''''!,,;,..*!                  ",
"                    w#**..,,;;;''';;;,,..**w                    ",
"                       y#****;.....;****y                       ",
"                           .A@;##;@B.                           "};
