/* XPM */
static char * \\wsl$\Ubuntu_20_04\home\kika75\Projet11\cub3d\bonus\imgs\s_blue\blue1_xpm[] = {
"64 64 87 1",
" 	c #FF00FF",
".	c #0095FF",
"+	c #0097FF",
"@	c #0098FF",
"#	c #0096FF",
"$	c #0094FF",
"%	c #0093FF",
"&	c #0091FF",
"*	c #0092FF",
"=	c #0090FF",
"-	c #009FFF",
";	c #008FFF",
">	c #008EFF",
",	c #008DFF",
"'	c #008CFF",
")	c #008AFF",
"!	c #0089FF",
"~	c #0088FF",
"{	c #0087FF",
"]	c #0086FF",
"^	c #0085FF",
"/	c #0084FF",
"(	c #0083FF",
"_	c #0082FF",
":	c #0080FF",
"<	c #0081FF",
"[	c #0E9CFF",
"}	c #007FFF",
"|	c #007EFF",
"1	c #007CFF",
"2	c #007DFF",
"3	c #007BFF",
"4	c #007AFF",
"5	c #0079FF",
"6	c #0078FF",
"7	c #0077FF",
"8	c #0075FF",
"9	c #0076FF",
"0	c #0073FF",
"a	c #0072FF",
"b	c #009DFF",
"c	c #0099FF",
"d	c #009CFF",
"e	c #009EFF",
"f	c #009AFF",
"g	c #00A1FF",
"h	c #00A3FF",
"i	c #00A5FF",
"j	c #00A8FF",
"k	c #00A9FF",
"l	c #00ABFF",
"m	c #00AEFF",
"n	c #00B2FF",
"o	c #00B3FF",
"p	c #00B6FF",
"q	c #00AFFF",
"r	c #00B8FF",
"s	c #00BDFF",
"t	c #00C1FF",
"u	c #00C3FF",
"v	c #00A0FF",
"w	c #00A7FF",
"x	c #00BAFF",
"y	c #00C0FF",
"z	c #00C6FF",
"A	c #00CAFF",
"B	c #00D0FF",
"C	c #00D2FF",
"D	c #00D5FF",
"E	c #00D7FF",
"F	c #00C9FF",
"G	c #00D8FF",
"H	c #00DFFF",
"I	c #00E4FF",
"J	c #00E9FF",
"K	c #00ECFF",
"L	c #00EFFF",
"M	c #00CDFF",
"N	c #00FAFF",
"O	c #00FFFF",
"P	c #00BBFF",
"Q	c #00D1FF",
"R	c #FFFFFF",
"S	c #00E1FF",
"T	c #00F4FF",
"U	c #00F8FF",
"V	c #029BFF",
"                            .........                           ",
"                       .+@#...$$$$$...#@.                       ",
"                    .+#.$$%&**=&&&=**&%$$.#.                    ",
"                  -@.$%&=;=;;>>>>>>>;;=;=&%$..                  ",
"                .@.$%==;>,''))!!!!!))'',>;==%$..                ",
"               +.$&&=>,')!~{]]^^^^^]]{~!)',>=&&$.               ",
"             .#$%&>>')~{]^/(__::<::__(/^]{~)'>>&%$[             ",
"            +.$*=>')~]^(_<:}|1233321|}:<_(^]~)'>=*$.            ",
"           @.%&;,)~]/(<||345677898776543||<(/]~),;&%.           ",
"          @.%;,'!{^(<}246780a0888880a087642}<(^{!',;%.          ",
"         @.&=>'~]/:}2578a895534131435598a8752}:/]~'>=&.         ",
"        @.&=>)~^(}147809642}:_(___(_:}246908741}(^~)>=&.        ",
"       +.%=>){^_|369a953}<(]~!))'))!~](<}359a963|_^{)>=%.       ",
"      -.%;>){^_}390863}_]!'>=%$%%%$%=>'!]_}368093}_^{)>;%b      ",
"      #$&,'~^_247a93|(])>&.+cdbeeebdc+.&>)](|39a742_^~',&$.     ",
"     +$*;'~^_}47a71:^!>%.feghijkkkjihgef.%>!^:17a74}_^~';*$     ",
"    ..%=,!](|37a73_]'=#f-hjlmnoppponmljh-f#=']_37a73|(]!,=%.    ",
"    @$&>){/}39a73_{,%@ehkqorstuuuuutsroqkhe@%,{_37a93}/{)>&$    ",
"   ..&>'~^:16091_{,$cvwmoxyzABCDEDCBAzyxomwvc$,{_19061:^~'>&.   ",
"   @$&>)](}4983:],$fgkqryFBGHIJKLKJIHGBFyrqkgf$,]:3894}(])>&$   ",
"  ..%='~/<27a6|^'%cgknxuMGILNOOOOOOONLIGMuxnkgc%'^|6a72</~'=%.  ",
"  +$=>)](}5893(!=@vknPzQHKOOOORRRRROOOOKHQzPnkv@=!(3985}(])>=$  ",
"  #%=,~^<2705}]>#ewqxzCSTOORRRRRRRRRRROOTSCzxqwe#>]}5072<^~,=%  ",
" ..&;'{(|4893_)%fhmruQSUOORRRRRRRRRRRRROOUSQurmhf%)_3984|({';&. ",
" +$=>)]_|6a6}]>.-koyMHTOORRRRRRRRRRRRRRROOTHMyok-.>]}6a6|_])>=$ ",
" @$;,!^<3784<!&fhqxFGKOORRRRRRRRRRRRRRRRROOKGFxqhf&!<4873<^!,;$ ",
" #%='~/:4892('.ejoyBIOORRRRRRRRRRRRRRRRRRROOIByoje.'(2984:/~'=% ",
" .&;'{(}505}]>+glrzGLORRRRRRRRRRRRRRRRRRRRROLGzrlg+>]}505}({';&.",
"..*;)]_|6a5:~=chmsAHNORRRRRRRRRRRRRRRRRRRRRONHAsmhc=~:5a6|_]);*.",
"..*>)]_1703_!%dintBIOORRRRRRRRRRRRRRRRRRRRROOIBtnid%!_3071_])>*.",
".$=>!^:2784()$bjouCJORRRRRRRRRRRRRRRRRRRRRRROJCuojb$)(4872:^!>=.",
".$&>!^:3881_)%ekpuDKORRRRRRRRRRRRRRRRRRRRRRROKDupke%)_1883:^!>&.",
".$&>!^<3983_'%ekpuELORRRRRRRRRRRRRRRRRRRRRRROLEupke%'_3893<^!>&.",
".$&>!^:3881_)%ekpuDKORRRRRRRRRRRRRRRRRRRRRRROKDupke%)_1883:^!>&.",
".$=>!^:2784()$bjouCJORRRRRRRRRRRRRRRRRRRRRRROJCuojb$)(4872:^!>=.",
"..*>)]_1703_!%dintBIOORRRRRRRRRRRRRRRRRRRRROOIBtnid%!_3071_])>*.",
"..*;)]_|6a5:~=chmsAHNORRRRRRRRRRRRRRRRRRRRRONHAsmhc=~:5a6|_]);* ",
" .&;'{(}505}]>+glrzGLORRRRRRRRRRRRRRRRRRRRROLGzrlg+>]}505}({';& ",
" #%='~/:4892('.ejoyBIOORRRRRRRRRRRRRRRRRRROOIByoje.'(2984:/~'=% ",
" @$;,!^<3784<!&fhqxFGKOORRRRRRRRRRRRRRRRROOKGFxqhf&!<4873<^!,;$ ",
" .$=>)]_|6a6}]>.-koyMHTOORRRRRRRRRRRRRRROOTHMyok-.>]}6a6|_])>=. ",
"  .&;'{(|4893_)%fhmruQSUOORRRRRRRRRRRRROOUSQurmhf%)_3984|({';&  ",
"  #%=,~^<2705}]>#ewqxzCSTOORRRRRRRRRRROOTSCzxqwe#>]}5072<^~,=%  ",
"  .$=>)](}5893(!=@vknPzQHKOOOORRRRROOOOKHQzPnkv@=!(3985}(])>=.  ",
"   .%='~/<27a6|^'%cgknxuMGILNOOOOOOONLIGMuxnkgc%'^|6a72</~'=%   ",
"   .$&>)](}4983:],$fgkqryFBGHIJKLKJIHGBFyrqkgf$,]:3894}(])>&f   ",
"    .&>'~^:16091_{,$cvwmoxyzABCDEDCBAzyxomwvc$,{_19061:^~'>&    ",
"    .$&>){/}39a73_{,%@ehkqorstuuuuutsroqkhe@%,{_37a93}/{)>&.    ",
"     .%=,!](|37a73_]'=#f-hjlmnoppponmljh-f#=']_37a73|(]!,=%     ",
"     .$*;'~^_}47a71:^!>%.feghijkkkjihgef.%>!^:17a74}_^~';*.     ",
"      [$&,'~^_247a93|(])>&.+cdbeeebdc+.&>)](|39a742_^~',&f      ",
"       .%;>){^_}390863}_]!'>=%$%%%$%=>'!]_}368093}_^{)>;%       ",
"        .%=>){^_|369a953}<(]~!))'))!~](<}359a963|_^{)>=%        ",
"         .&=>)~^(}147809642}:_(___(_:}246908741}(^~)>=&         ",
"          .&=>'~]/:}2578a895534131435598a8752}:/]~'>=&          ",
"           .%;,'!{^(<}246780a0888880a087642}<(^{!',;%           ",
"            .%&;,)~]/(<||345677898776543||<(/]~),;&%            ",
"             .$*=>')~]^(_<:}|1233321|}:<_(^]~)'>=*f             ",
"               $%&>>')~{]^/(__::<::__(/^]{~)'>>&%.              ",
"                .$&&=>,')!~{]]^^^^^]]{~!)',>=&&.                ",
"                  d$%==;>,''))!!!!!))'',>;==%.                  ",
"                    .$%&=;=;;>>>>>>>;;=;=&%.                    ",
"                       .$$%&**=&&&=**&%$.                       ",
"                            .V@......                           "};
