/* XPM */
static char * light_xpm[] = {
"64 64 207 2",
"  	c #FF00FF",
". 	c #F513FF",
"+ 	c #E91FFF",
"@ 	c #DF27FF",
"# 	c #D62CFF",
"$ 	c #CF30FF",
"% 	c #CA32FF",
"& 	c #C734FF",
"* 	c #CA33FF",
"= 	c #D62DFF",
"- 	c #E920FF",
"; 	c #F514FF",
"> 	c #F218FF",
", 	c #E026FF",
"' 	c #CE30FF",
") 	c #C634FF",
"! 	c #C635FF",
"~ 	c #C535FF",
"{ 	c #C934FF",
"] 	c #CE31FF",
"^ 	c #E027FF",
"/ 	c #F118FF",
"( 	c #EB1EFF",
"_ 	c #D52DFF",
": 	c #D131FF",
"< 	c #D92DFF",
"[ 	c #D42EFF",
"} 	c #EA1FFF",
"| 	c #ED1CFF",
"1 	c #D42DFF",
"2 	c #E129FF",
"3 	c #E822FF",
"4 	c #E823FF",
"5 	c #ED1DFF",
"6 	c #F611FF",
"7 	c #DD28FF",
"8 	c #F01CFF",
"9 	c #F812FF",
"0 	c #DD29FF",
"a 	c #F612FF",
"b 	c #D12FFF",
"c 	c #D030FF",
"d 	c #E721FF",
"e 	c #C933FF",
"f 	c #C834FF",
"g 	c #E722FF",
"h 	c #FE02FF",
"i 	c #E423FF",
"j 	c #C536FF",
"k 	c #E424FF",
"l 	c #E523FF",
"m 	c #E821FF",
"n 	c #F01BFF",
"o 	c #EF1BFF",
"p 	c #EE1BFF",
"q 	c #F90EFF",
"r 	c #D32EFF",
"s 	c #D230FF",
"t 	c #F80EFF",
"u 	c #F51EFF",
"v 	c #EA2EFF",
"w 	c #DE3AFF",
"x 	c #D244FF",
"y 	c #DF28FF",
"z 	c #F019FF",
"A 	c #C34CFF",
"B 	c #A25CFF",
"C 	c #9660FF",
"D 	c #9561FF",
"E 	c #9462FF",
"F 	c #F01AFF",
"G 	c #D82CFF",
"H 	c #B454FF",
"I 	c #9661FF",
"J 	c #9363FF",
"K 	c #9165FF",
"L 	c #8F67FF",
"M 	c #8D68FF",
"N 	c #8C69FF",
"O 	c #8C6AFF",
"P 	c #D72DFF",
"Q 	c #C935FF",
"R 	c #9264FF",
"S 	c #896DFF",
"T 	c #866FFF",
"U 	c #8471FF",
"V 	c #8372FF",
"W 	c #EE1CFF",
"X 	c #D92BFF",
"Y 	c #9562FF",
"Z 	c #9066FF",
"` 	c #876EFF",
" .	c #7F75FF",
"..	c #7C78FF",
"+.	c #7A7AFF",
"@.	c #7C7CFF",
"#.	c #F613FF",
"$.	c #E128FF",
"%.	c #EA2DFF",
"&.	c #896CFF",
"*.	c #7E76FF",
"=.	c #7B7BFF",
"-.	c #7F7FFF",
";.	c #8383FF",
">.	c #8585FF",
",.	c #8787FF",
"'.	c #8888FF",
").	c #B453FF",
"!.	c #8E67FF",
"~.	c #886DFF",
"{.	c #8273FF",
"].	c #7B79FF",
"^.	c #8A8AFF",
"/.	c #8F8FFF",
"(.	c #9393FF",
"_.	c #9595FF",
":.	c #9696FF",
"<.	c #E425FF",
"[.	c #8173FF",
"}.	c #8181FF",
"|.	c #8989FF",
"1.	c #9191FF",
"2.	c #9898FF",
"3.	c #9E9EFF",
"4.	c #A3A3FF",
"5.	c #A7A7FF",
"6.	c #A8A8FF",
"7.	c #D130FF",
"8.	c #975FFF",
"9.	c #8A6BFF",
"0.	c #8282FF",
"a.	c #8B8BFF",
"b.	c #9494FF",
"c.	c #B0B0FF",
"d.	c #B8B8FF",
"e.	c #BCBCFF",
"f.	c #BEBEFF",
"g.	c #F80FFF",
"h.	c #8570FF",
"i.	c #7D78FF",
"j.	c #8080FF",
"k.	c #A1A1FF",
"l.	c #AEAEFF",
"m.	c #BBBBFF",
"n.	c #C7C7FF",
"o.	c #D2D2FF",
"p.	c #D9D9FF",
"q.	c #DBDBFF",
"r.	c #EC1EFF",
"s.	c #E225FF",
"t.	c #8174FF",
"u.	c #7D7DFF",
"v.	c #A0A0FF",
"w.	c #AFAFFF",
"x.	c #C0C0FF",
"y.	c #E3E3FF",
"z.	c #F3F3FF",
"A.	c #FFFFFF",
"B.	c #E127FF",
"C.	c #8E68FF",
"D.	c #8E8EFF",
"E.	c #9B9BFF",
"F.	c #ABABFF",
"G.	c #D4D4FF",
"H.	c #EDEDFF",
"I.	c #D82DFF",
"J.	c #B6B6FF",
"K.	c #CDCDFF",
"L.	c #E9E9FF",
"M.	c #CF31FF",
"N.	c #CB33FF",
"O.	c #8A6CFF",
"P.	c #8074FF",
"Q.	c #7E7EFF",
"R.	c #9999FF",
"S.	c #AAAAFF",
"T.	c #8D8DFF",
"U.	c #9C9CFF",
"V.	c #E6E6FF",
"W.	c #886EFF",
"X.	c #7E77FF",
"Y.	c #B2B2FF",
"Z.	c #CBCBFF",
"`.	c #CF32FF",
" +	c #E226FF",
".+	c #D22FFF",
"++	c #E325FF",
"@+	c #D92CFF",
"#+	c #EE1DFF",
"$+	c #D72CFF",
"%+	c #D62EFF",
"&+	c #DF29FF",
"*+	c #C735FF",
"=+	c #E723FF",
"-+	c #C636FF",
";+	c #E623FF",
">+	c #DC2AFF",
",+	c #D32FFF",
"'+	c #D42FFF",
")+	c #EA20FF",
"!+	c #F119FF",
"~+	c #CD32FF",
"{+	c #CC33FF",
"]+	c #E921FF",
"^+	c #DE29FF",
"/+	c #D52EFF",
"(+	c #F515FF",
"                                                                                                                                ",
"                                                                                                                                ",
"                                                                                                                                ",
"                                                                                                                                ",
"                                                  . + @ # $ % & & * $ = @ - ;                                                   ",
"                                            > , ' ) ! ~ ~ ~ { { { { { ~ ~ ~ ! ] ^ /                                             ",
"                                        ( _ ) ~ ~ { { : : < < < < < < < : : { { ~ ~ [ }                                         ",
"                                    | 1 ) ~ { : : < 2 2 3 4 4 4 4 4 4 4 3 2 2 < : : { ~ [ 5                                     ",
"                                6 7 ) ~ { : < 2 3 4 8 9 9               9 9 8 4 3 2 < : { ~ 0 a                                 ",
"                              | b ~ { : < 2 4 8 9                               9 8 4 2 < : { c 5                               ",
"                            d e ~ { < 2 4 8                                           8 4 2 < { f g                             ",
"                        h i ) j : < 3 8 9                                               9 8 3 < : j k h                         ",
"                        l ) { : 2 4 9                                                       9 4 2 : { k                         ",
"                      m ) { : 2 n 9                                                           9 n 2 : { 3                       ",
"                    o * { : 2 n                                                                   n 2 : { p                     ",
"                  q r ~ : 2 n                                                                       n 2 : s t                   ",
"                  ^ ~ : < 4 9                           u v w x x x w v u                           9 4 < : y                   ",
"                z ) { < 4 9                       u w A B C D E E E D C B A w u                       9 4 < { F                 ",
"                G ~ : 2 8                       w H I J K L M N O N M L K J I H w                       8 2 : P                 ",
"              o ! Q < n                     u A C R L O S T U V V V U T S O L R C A u                     n < Q W               ",
"              X j : 3 9                   v H Y Z O ` V  ...+.@.@.@.+... .V ` O Z Y H v                   9 3 : G               ",
"            #.! { $.8                   %.H E L &.U *.=.-.;.>.,.'.,.>.;.-.=.*.U &.L E H %.                  8 $.{ .             ",
"            l ~ : 2 9                 u ).E !.~.{.].-.>.^./.(._.:._.(./.^.>.-.].{.~.!.E ).u                 9 2 : <.            ",
"            r { < 4                   x D L S [.+.}.|.1.2.3.4.5.6.5.4.3.2.1.|.}.+.[.S L D x                   4 < 7.            ",
"          q ! : 2 8                 v 8.K 9.V +.0.a.b.3.6.c.d.e.f.e.d.c.6.3.b.a.0.+.V 9.K 8.v                 8 2 : g.          ",
"          5 ~ : 3 9                 A E M h.i.j.^._.k.l.m.n.o.p.q.p.o.n.m.l.k._.^.j.i.h.M E A                 9 3 : r.          ",
"          s.{ < 4                 u B K &.t.u.,.(.v.w.x.o.y.z.A.A.A.z.y.o.x.w.v.(.,.u.t.&.K B u                 4 < B.          ",
"          X { < n                 w D C.T ..0.D.E.F.f.G.H.A.A.A.A.A.A.A.H.G.f.F.E.D.0...T C.D w                 n < I.          ",
"          7.{ 2 8                 A J O V @.,.b.4.J.K.L.A.A.A.A.A.A.A.A.A.L.K.J.4.b.,.@.V O J A                 8 2 M.          ",
"          N.: 2 8                 H R O.P.Q.^.R.S.x.q.A.A.A.A.A.A.A.A.A.A.A.q.x.S.R.^.Q.P.O.R H                 8 2 {           ",
"          & : 2 9               u B K ~.*.j.T.U.w.n.V.A.A.A.A.A.A.A.A.A.A.A.V.n.w.U.T.j.*.~.K B u               9 2 j           ",
"          ~ : 2 9               u 8.Z W.X.}.D.3.Y.Z.H.A.A.A.A.A.A.A.A.A.A.A.H.Z.Y.3.D.}.X.W.Z 8.u               9 2 :           ",
"          & : 2 9               u 8.Z W.X.}.D.3.Y.Z.H.A.A.A.A.A.A.A.A.A.A.A.H.Z.Y.3.D.}.X.W.Z 8.u               9 2 j           ",
"          N.: 2 9               u B K ~.*.j.T.U.w.n.V.A.A.A.A.A.A.A.A.A.A.A.V.n.w.U.T.j.*.~.K B u               9 2 Q           ",
"          7.: 2 8                 H R O.P.Q.^.R.S.x.q.A.A.A.A.A.A.A.A.A.A.A.q.x.S.R.^.Q.P.O.R H                 8 2 `.          ",
"          X { 2 8                 A J O V @.,.b.4.J.K.L.A.A.A.A.A.A.A.A.A.L.K.J.4.b.,.@.V O J A                 8 2 P           ",
"           +{ < n                 w D C.T ..0.D.E.F.f.G.H.A.A.A.A.A.A.A.H.G.f.F.E.D.0...T C.D w                 n < B.          ",
"          5 { < 4                 u B K &.t.u.,.(.v.w.x.o.y.z.A.A.A.z.y.o.x.w.v.(.,.u.t.&.K B u                 4 < r.          ",
"          t ~ : 3 9                 A E M h.i.j.^._.k.l.m.n.o.p.q.p.o.n.m.l.k._.^.j.i.h.M E A                 9 3 : g.          ",
"            .+: 2 8                 v 8.K 9.V +.0.a.b.3.6.c.d.e.f.e.d.c.6.3.b.a.0.+.V 9.K 8.v                 8 2 :             ",
"            k { < 4                   x D L S [.+.}.|.1.2.3.4.5.6.5.4.3.2.1.|.}.+.[.S L D x                   4 < ++            ",
"            #.~ : 2 9                 u ).E !.~.{.].-.>.^./.(._.:._.(./.^.>.-.].{.~.!.E ).u                 9 2 : ;             ",
"              @+{ $.8                   %.H E L &.U *.=.-.;.>.,.'.,.>.;.-.=.*.U &.L E H %.                  8 $.P               ",
"              p j : 3 9                   v H Y Z O ` V  ...+.@.@.@.+... .V ` O Z Y H v                   9 3 : #+              ",
"                $+Q < n                     u A C R L O S T U V V V U T S O L R C A u                     n < %+                ",
"                F ~ : 2 8                       w H I J K L M N O N M L K J I H w                       8 2 : o                 ",
"                  @ { < 4 9                       u w A B C D E E E D C B A w u                       9 4 < &+                  ",
"                  t .+: < 4 9                           u v w x x x w v u                           9 4 < : g.                  ",
"                    o { : 2 n                                                                       n 2 *+W                     ",
"                      m { : 2 n                                                                   n 2 : =+                      ",
"                        k { : 2 n 9                                                           9 n 2 : <.                        ",
"                        h k { : 2 4 9                                                       9 4 2 : ++h                         ",
"                            g & : < 3 8 9                                               9 8 3 < -+;+                            ",
"                              5 c { < 2 4 8                                           8 4 2 < M.r.                              ",
"                                a 0 { : < 2 4 8 9                               9 8 4 2 < : >+a                                 ",
"                                    5 ,+{ : < 2 3 4 8 9 9               9 9 8 4 3 2 < : s r.                                    ",
"                                        } '+{ : : < 2 2 3 4 4 4 4 4 4 4 3 2 2 < : : ,+)+                                        ",
"                                            !+y ~+{ { : : < < < < < < < : : { {+y !+                                            ",
"                                                  ; ]+^+/+~+f j j f ~+/+^+]+(+                                                  ",
"                                                                                                                                ",
"                                                                                                                                ",
"                                                                                                                                ",
"                                                                                                                                ",
"                                                                                                                                "};
