/* XPM */
static char * light_xpm[] = {
"64 64 265 2",
"  	c #FF00FF",
". 	c #F513FF",
"+ 	c #E91FFF",
"@ 	c #DF27FF",
"# 	c #D62CFF",
"$ 	c #CF30FF",
"% 	c #CA32FF",
"& 	c #C734FF",
"* 	c #CA33FF",
"= 	c #D62DFF",
"- 	c #E920FF",
"; 	c #F514FF",
"> 	c #F218FF",
", 	c #E026FF",
"' 	c #CE30FF",
") 	c #C634FF",
"! 	c #C635FF",
"~ 	c #C535FF",
"{ 	c #C436FF",
"] 	c #CE31FF",
"^ 	c #E027FF",
"/ 	c #F118FF",
"( 	c #EB1EFF",
"_ 	c #D52DFF",
": 	c #C337FF",
"< 	c #C238FF",
"[ 	c #D42EFF",
"} 	c #EA1FFF",
"| 	c #ED1CFF",
"1 	c #D42DFF",
"2 	c #C139FF",
"3 	c #C039FF",
"4 	c #C03AFF",
"5 	c #ED1DFF",
"6 	c #F611FF",
"7 	c #DD28FF",
"8 	c #BF3BFF",
"9 	c #BE3BFF",
"0 	c #BE3CFF",
"a 	c #BD3CFF",
"b 	c #BD3DFF",
"c 	c #DD29FF",
"d 	c #F612FF",
"e 	c #D12FFF",
"f 	c #BC3DFF",
"g 	c #BC3EFF",
"h 	c #BB3EFF",
"i 	c #BA3FFF",
"j 	c #D030FF",
"k 	c #E721FF",
"l 	c #C933FF",
"m 	c #B940FF",
"n 	c #B941FF",
"o 	c #B841FF",
"p 	c #B742FF",
"q 	c #C834FF",
"r 	c #E722FF",
"s 	c #FE02FF",
"t 	c #E423FF",
"u 	c #C536FF",
"v 	c #BB3FFF",
"w 	c #BA40FF",
"x 	c #B643FF",
"y 	c #B544FF",
"z 	c #B445FF",
"A 	c #B346FF",
"B 	c #E424FF",
"C 	c #E523FF",
"D 	c #B247FF",
"E 	c #B148FF",
"F 	c #B048FF",
"G 	c #B049FF",
"H 	c #AF49FF",
"I 	c #E821FF",
"J 	c #BF3AFF",
"K 	c #B345FF",
"L 	c #AE4AFF",
"M 	c #AD4BFF",
"N 	c #AC4CFF",
"O 	c #AB4DFF",
"P 	c #E822FF",
"Q 	c #EF1BFF",
"R 	c #AD4CFF",
"S 	c #AA4EFF",
"T 	c #A84FFF",
"U 	c #A750FF",
"V 	c #A751FF",
"W 	c #A651FF",
"X 	c #A652FF",
"Y 	c #C934FF",
"Z 	c #EE1BFF",
"` 	c #F90EFF",
" .	c #D32EFF",
"..	c #A850FF",
"+.	c #A553FF",
"@.	c #A354FF",
"#.	c #A255FF",
"$.	c #A156FF",
"%.	c #D230FF",
"&.	c #F80EFF",
"*.	c #A454FF",
"=.	c #A058FF",
"-.	c #9E59FF",
";.	c #9D5AFF",
">.	c #9C5BFF",
",.	c #9B5CFF",
"'.	c #DF28FF",
").	c #F019FF",
"!.	c #B444FF",
"~.	c #9A5DFF",
"{.	c #985FFF",
"].	c #9660FF",
"^.	c #9561FF",
"/.	c #9462FF",
"(.	c #F01AFF",
"_.	c #D82CFF",
":.	c #A94FFF",
"<.	c #9F58FF",
"[.	c #995EFF",
"}.	c #9661FF",
"|.	c #9363FF",
"1.	c #9165FF",
"2.	c #8F67FF",
"3.	c #8D68FF",
"4.	c #8C69FF",
"5.	c #8C6AFF",
"6.	c #D72DFF",
"7.	c #C437FF",
"8.	c #B246FF",
"9.	c #A552FF",
"0.	c #A256FF",
"a.	c #9264FF",
"b.	c #896DFF",
"c.	c #866FFF",
"d.	c #8471FF",
"e.	c #8372FF",
"f.	c #EE1CFF",
"g.	c #D92BFF",
"h.	c #9562FF",
"i.	c #9066FF",
"j.	c #876EFF",
"k.	c #7F75FF",
"l.	c #7C78FF",
"m.	c #7A7AFF",
"n.	c #7C7CFF",
"o.	c #F613FF",
"p.	c #C138FF",
"q.	c #B147FF",
"r.	c #AE4BFF",
"s.	c #9D59FF",
"t.	c #896CFF",
"u.	c #7E76FF",
"v.	c #7B7BFF",
"w.	c #7F7FFF",
"x.	c #8383FF",
"y.	c #8585FF",
"z.	c #8787FF",
"A.	c #8888FF",
"B.	c #995DFF",
"C.	c #8E67FF",
"D.	c #886DFF",
"E.	c #8273FF",
"F.	c #7B79FF",
"G.	c #8A8AFF",
"H.	c #8F8FFF",
"I.	c #9393FF",
"J.	c #9595FF",
"K.	c #9696FF",
"L.	c #E425FF",
"M.	c #A057FF",
"N.	c #8173FF",
"O.	c #8181FF",
"P.	c #8989FF",
"Q.	c #9191FF",
"R.	c #9898FF",
"S.	c #9E9EFF",
"T.	c #A3A3FF",
"U.	c #A7A7FF",
"V.	c #A8A8FF",
"W.	c #D130FF",
"X.	c #975FFF",
"Y.	c #8A6BFF",
"Z.	c #8282FF",
"`.	c #8B8BFF",
" +	c #9494FF",
".+	c #B0B0FF",
"++	c #B8B8FF",
"@+	c #BCBCFF",
"#+	c #BEBEFF",
"$+	c #F80FFF",
"%+	c #9A5CFF",
"&+	c #8570FF",
"*+	c #7D78FF",
"=+	c #8080FF",
"-+	c #A1A1FF",
";+	c #AEAEFF",
">+	c #BBBBFF",
",+	c #C7C7FF",
"'+	c #D2D2FF",
")+	c #D9D9FF",
"!+	c #DBDBFF",
"~+	c #EC1EFF",
"{+	c #E225FF",
"]+	c #8174FF",
"^+	c #7D7DFF",
"/+	c #A0A0FF",
"(+	c #AFAFFF",
"_+	c #C0C0FF",
":+	c #E3E3FF",
"<+	c #F3F3FF",
"[+	c #FFFFFF",
"}+	c #E127FF",
"|+	c #8E68FF",
"1+	c #8E8EFF",
"2+	c #9B9BFF",
"3+	c #ABABFF",
"4+	c #D4D4FF",
"5+	c #EDEDFF",
"6+	c #D82DFF",
"7+	c #AF4AFF",
"8+	c #B6B6FF",
"9+	c #CDCDFF",
"0+	c #E9E9FF",
"a+	c #CF31FF",
"b+	c #CB33FF",
"c+	c #B543FF",
"d+	c #A94EFF",
"e+	c #8A6CFF",
"f+	c #8074FF",
"g+	c #7E7EFF",
"h+	c #9999FF",
"i+	c #AAAAFF",
"j+	c #8D8DFF",
"k+	c #9C9CFF",
"l+	c #E6E6FF",
"m+	c #886EFF",
"n+	c #7E77FF",
"o+	c #B2B2FF",
"p+	c #CBCBFF",
"q+	c #C935FF",
"r+	c #CF32FF",
"s+	c #E226FF",
"t+	c #D22FFF",
"u+	c #D131FF",
"v+	c #E325FF",
"w+	c #D92CFF",
"x+	c #EE1DFF",
"y+	c #D72CFF",
"z+	c #D62EFF",
"A+	c #DF29FF",
"B+	c #C735FF",
"C+	c #E723FF",
"D+	c #C636FF",
"E+	c #E623FF",
"F+	c #DC2AFF",
"G+	c #D32FFF",
"H+	c #D42FFF",
"I+	c #EA20FF",
"J+	c #F119FF",
"K+	c #CD32FF",
"L+	c #CC33FF",
"M+	c #E921FF",
"N+	c #DE29FF",
"O+	c #D52EFF",
"P+	c #F515FF",
"                                                                                                                                ",
"                                                                                                                                ",
"                                                                                                                                ",
"                                                                                                                                ",
"                                                  . + @ # $ % & & * $ = @ - ;                                                   ",
"                                            > , ' ) ! ~ ~ ~ { { { { { ~ ~ ~ ! ] ^ /                                             ",
"                                        ( _ ) ~ ~ { { : : < < < < < < < : : { { ~ ~ [ }                                         ",
"                                    | 1 ) ~ { : : < 2 2 3 4 4 4 4 4 4 4 3 2 2 < : : { ~ [ 5                                     ",
"                                6 7 ) ~ { : < 2 3 4 8 9 0 a a b b b a a 0 9 8 4 3 2 < : { ~ c d                                 ",
"                              | e ~ { : < 2 4 8 0 b f g h i i i i i i i h g f b 0 8 4 2 < : { j 5                               ",
"                            k l ~ { < 2 4 8 a f h i m n o p p p p p p p o n m i h f a 8 4 2 < { q r                             ",
"                        s t ) u : < 3 8 0 f v w o p x y y z z A A A z z y y x p o w v f 0 8 3 < : u B s                         ",
"                        C ) { : 2 4 9 b h w o p y z A D E F G H H H G F E D A z y p o w h b 9 4 2 : { B                         ",
"                      I ) { : 2 J 0 f i o p y K D F H L M N O O O O O N M L H F D K y p o i f 0 J 2 : { P                       ",
"                    Q * { : 2 J a g w o x z D F L R O S T U V W X W V U T S O R L F D z x o w g a J 2 : Y Z                     ",
"                  `  .~ : 2 J a h m p y A E L N S ..W +.@.#.$.$.$.$.$.#.@.+.W ..S N L E A y p m h a J 2 : %.&.                  ",
"                  ^ ~ : < 4 0 h m p y D G M O ..X *.$.=.-.;.>.,.,.,.>.;.-.=.$.*.X ..O M G D y p m h 0 4 < : '.                  ",
"                ).) { < 4 0 g m p !.D H N S V *.$.-.>.~.{.].^./././.^.].{.~.>.-.$.*.V S N H D !.p m g 0 4 < { (.                ",
"                _.~ : 2 8 f i p y D H N :.X #.<.>.[.}.|.1.2.3.4.5.4.3.2.1.|.}.[.>.<.#.X :.N H D y p i f 8 2 : 6.                ",
"              Q ! 7.< J a v o y 8.H N :.9.0.-.~.].a.2.5.b.c.d.e.e.e.d.c.b.5.2.a.].~.-.0.9.:.N H 8.y o v a J < 7.f.              ",
"              g.u : 3 0 g m x A F M :.9.$.;.[.h.i.5.j.e.k.l.m.n.n.n.m.l.k.e.j.5.i.h.[.;.$.9.:.M F A x m g 0 3 : _.              ",
"            o.! { p.8 b i p !.q.r.S X #.s.[./.2.t.d.u.v.w.x.y.z.A.z.y.x.w.v.u.d.t.2./.[.s.#.X S r.q.!.p i b 8 p.{ .             ",
"            C ~ : 2 0 g m x A H O U @.-.B./.C.D.E.F.w.y.G.H.I.J.K.J.I.H.G.y.w.F.E.D.C./.B.-.@.U O H A x m g 0 2 : L.            ",
"             .{ < 4 a i p z E M :.+.M.,.^.2.b.N.m.O.P.Q.R.S.T.U.V.U.T.S.R.Q.P.O.m.N.b.2.^.,.M.+.:.M E z p i a 4 < W.            ",
"          ` ! : 2 8 f m x A H O V #.;.X.1.Y.e.m.Z.`. +S.V..+++@+#+@+++.+V.S. +`.Z.m.e.Y.1.X.;.#.V O H A x m f 8 2 : $+          ",
"          5 ~ : 3 0 h o y D r.S +.M.%+/.3.&+*+=+G.J.-+;+>+,+'+)+!+)+'+,+>+;+-+J.G.=+*+&+3./.%+M.+.S r.D y o h 0 3 : ~+          ",
"          {+{ < 4 a i p z F N ..@.-.{.1.t.]+^+z.I./+(+_+'+:+<+[+[+[+<+:+'+_+(+/+I.z.^+]+t.1.{.-.@...N F z p i a 4 < }+          ",
"          g.{ < J b w p A H O V $.>.^.|+c.l.Z.1+2+3+#+4+5+[+[+[+[+[+[+[+5+4+#+3+2+1+Z.l.c.|+^.>.$.V O H A p w b J < 6+          ",
"          W.{ 2 8 f m x 8.7+S 9.M.~.|.5.e.n.z. +T.8+9+0+[+[+[+[+[+[+[+[+[+0+9+8+T. +z.n.e.5.|.~.M.9.S 7+8.x m f 8 2 a+          ",
"          b+: 2 8 g m c+D L d++.<.[.a.e+f+g+G.h+i+_+!+[+[+[+[+[+[+[+[+[+[+[+!+_+i+h+G.g+f+e+a.[.<.+.d+L D c+m g 8 2 Y           ",
"          & : 2 9 g o y q.M :.*.-.{.1.D.u.=+j+k+(+,+l+[+[+[+[+[+[+[+[+[+[+[+l+,+(+k+j+=+u.D.1.{.-.*.:.M q.y o g 9 2 u           ",
"          ~ : 2 9 h o y q.M :.*.-.X.i.m+n+O.1+S.o+p+5+[+[+[+[+[+[+[+[+[+[+[+5+p+o+S.1+O.n+m+i.X.-.*.:.M q.y o h 9 2 :           ",
"          & : 2 9 h o y q.M :.*.-.X.i.m+n+O.1+S.o+p+5+[+[+[+[+[+[+[+[+[+[+[+5+p+o+S.1+O.n+m+i.X.-.*.:.M q.y o h 9 2 u           ",
"          b+: 2 9 g o y q.M :.*.-.{.1.D.u.=+j+k+(+,+l+[+[+[+[+[+[+[+[+[+[+[+l+,+(+k+j+=+u.D.1.{.-.*.:.M q.y o g 9 2 q+          ",
"          W.: 2 8 g m c+D L d++.<.[.a.e+f+g+G.h+i+_+!+[+[+[+[+[+[+[+[+[+[+[+!+_+i+h+G.g+f+e+a.[.<.+.d+L D c+m g 8 2 r+          ",
"          g.{ 2 8 f m x 8.7+S 9.M.~.|.5.e.n.z. +T.8+9+0+[+[+[+[+[+[+[+[+[+0+9+8+T. +z.n.e.5.|.~.M.9.S 7+8.x m f 8 2 6.          ",
"          s+{ < J b w p A H O V $.>.^.|+c.l.Z.1+2+3+#+4+5+[+[+[+[+[+[+[+5+4+#+3+2+1+Z.l.c.|+^.>.$.V O H A p w b J < }+          ",
"          5 { < 4 a i p z F N ..@.-.{.1.t.]+^+z.I./+(+_+'+:+<+[+[+[+<+:+'+_+(+/+I.z.^+]+t.1.{.-.@...N F z p i a 4 < ~+          ",
"          &.~ : 3 0 h o y D r.S +.M.%+/.3.&+*+=+G.J.-+;+>+,+'+)+!+)+'+,+>+;+-+J.G.=+*+&+3./.%+M.+.S r.D y o h 0 3 : $+          ",
"            t+: 2 8 f m x A H O V #.;.X.1.Y.e.m.Z.`. +S.V..+++@+#+@+++.+V.S. +`.Z.m.e.Y.1.X.;.#.V O H A x m f 8 2 u+            ",
"            B { < 4 a i p z E M :.+.M.,.^.2.b.N.m.O.P.Q.R.S.T.U.V.U.T.S.R.Q.P.O.m.N.b.2.^.,.M.+.:.M E z p i a 4 < v+            ",
"            o.~ : 2 0 g m x A H O U @.-.B./.C.D.E.F.w.y.G.H.I.J.K.J.I.H.G.y.w.F.E.D.C./.B.-.@.U O H A x m g 0 2 : ;             ",
"              w+{ p.8 b i p !.q.r.S X #.s.[./.2.t.d.u.v.w.x.y.z.A.z.y.x.w.v.u.d.t.2./.[.s.#.X S r.q.!.p i b 8 p.6.              ",
"              Z u : 3 0 g m x A F M :.9.$.;.[.h.i.5.j.e.k.l.m.n.n.n.m.l.k.e.j.5.i.h.[.;.$.9.:.M F A x m g 0 3 : x+              ",
"                y+7.< J a v o y 8.H N :.9.0.-.~.].a.2.5.b.c.d.e.e.e.d.c.b.5.2.a.].~.-.0.9.:.N H 8.y o v a J < z+                ",
"                (.~ : 2 8 f i p y D H N :.X #.<.>.[.}.|.1.2.3.4.5.4.3.2.1.|.}.[.>.<.#.X :.N H D y p i f 8 2 : Q                 ",
"                  @ { < 4 0 g m p !.D H N S V *.$.-.>.~.{.].^./././.^.].{.~.>.-.$.*.V S N H D !.p m g 0 4 < A+                  ",
"                  &.t+: < 4 0 h m p y D G M O ..X *.$.=.-.;.>.,.,.,.>.;.-.=.$.*.X ..O M G D y p m h 0 4 < u+$+                  ",
"                    Q Y : 2 J a h m p y A E L N S ..W +.@.#.$.$.$.$.$.#.@.+.W ..S N L E A y p m h a J 2 B+f.                    ",
"                      I { : 2 J a g w o x z D F L R O S T U V W X W V U T S O R L F D z x o w g a J 2 : C+                      ",
"                        B { : 2 J 0 f i o p y K D F H L M N O O O O O N M L H F D K y p o i f 0 J 2 : L.                        ",
"                        s B { : 2 4 9 b h w o p y z A D E F G H H H G F E D A z y p o w h b 9 4 2 : v+s                         ",
"                            r & : < 3 8 0 f v w o p x y y z z A A A z z y y x p o w v f 0 8 3 < D+E+                            ",
"                              5 j { < 2 4 8 a f h i m n o p p p p p p p o n m i h f a 8 4 2 < a+~+                              ",
"                                d c { : < 2 4 8 0 b f g h i i i i i i i h g f b 0 8 4 2 < : F+d                                 ",
"                                    5 G+{ : < 2 3 4 8 9 0 a a b b b a a 0 9 8 4 3 2 < : %.~+                                    ",
"                                        } H+{ : : < 2 2 3 4 4 4 4 4 4 4 3 2 2 < : : G+I+                                        ",
"                                            J+'.K+{ { : : < < < < < < < : : { L+'.J+                                            ",
"                                                  ; M+N+O+K+q u u q K+O+N+M+P+                                                  ",
"                                                                                                                                ",
"                                                                                                                                ",
"                                                                                                                                ",
"                                                                                                                                ",
"                                                                                                                                "};
