/* XPM */
static char * pblackstone_xpm[] = {
"64 64 11 1",
" 	c #1E1819",
".	c #1B1515",
"+	c #221B1D",
"@	c #5B485D",
"#	c #322B33",
"$	c #292425",
"%	c #36303A",
"&	c #3B3441",
"*	c #443B47",
"=	c #38323D",
"-	c #36303B",
" ...............................................................",
"+@#####....##################################################...",
"+@@#####..###################################################$..",
"+@@@####.###################################################$$..",
"+@@@@######################################################$$$$.",
"+@@@@@%%%%%&&&&&&&&&&&&&&&&&&&&&&&&&&&&&&&&&&&&&&&&&&&&&&&&$$$$.",
"+@@@@@@@@@@@&&&&&&&&&&&&&&&&&&&&&&&&*******************&=&&$$$$.",
"+@@@@@@@@%%%%&&&&&%&&&&&&&&&&%&&&&&&&&&&&&&&*************&&$$$$.",
"+@@@@@@%%%%%%%&&&&&&&&&&&&&%%%%&&&&&&&&&&&&&&&&&&********&&$$$$.",
"+@@@@@%%%%%%%%&&&&&&&&&&&&&%%%%&&&&&&&&&&&&&&&&&&&&&*****&&$$$$.",
"+@@@@@%%%%%%%%&&&&&&&%%&&&%%%%%%&&&&&&%&&&&&&&&&&&&&&&****&$$$$.",
"+@@@@%%%%%%%%%%&&&&&&%%&&&%%%%%%%%&&&&&&&&&&&&&&&&&&&&****&$$$$.",
"+@@@@%%%%%%%%%%%&&&&&&&&&&&%%%%%%%&&&&&&&&&&&&&&&&&&&&&***&$$$$.",
"+@@@@%%%%%%%%%%%%&&&&&&&&&&&%%%%%%%&&&&&&&&&%&&&&&&&&&&***&$$$$.",
"+@@@@%%%%%%%%%%%%&&&&&&&&&%&%%%%%%%%&&&&&&&&&&&&&&&%&&&***&$$$$.",
"+@@@@%%%%%%%%%%%%%%&&&&&&&&%%%%%%%%%&&&&&&&&&&&&&&&&&&&***&$$$$.",
"+@@@@%%%%%%%%%%%%%%&&&&&&&%%%%%%%%%%&&&&&&&&&&&&&&&&&&&***&$$$$.",
"+++@@%%%%%%%%%%%%%%&&&&&&&%%%%%%%%%%&&%&&%&&&&&&&&&&&&&***&$$$$.",
"++@@@%%%%%%%%%%%%%&&&&&&&&%%%%%%%%%%&&&&%%&&&&&&&&&&&&&***&$$$$.",
"+@@@@%%%%%%%%%%%%%&&&&&&&&%%%%&%%%%%%&&&%%&&&&&&&&&&&&&&**&$$$$.",
"+@@@@%%%%%%%%%%%%&&&&%&&&&&%%&&%%%%%%%%%%%%&&&&&&&&&&&&&**&$$$$.",
"+@@@@%%%%%%%%%%%%&&&&&&&&&&%%&&&%%%%%%%%%%%&&&%%&&&&&&&&**&$$$$.",
"+@@@@%%%%%%%%%%%%%&&&&&&&&&%%&&&&%%%%%%%%%%&&&%%&&&&&&&&**&$$$$.",
"+@@@@%%%%%%%%%%%%%%%&&&&&&&&%&&&&%%%%%%%%%%&&&&&&&&&&%&&**&$$$$.",
"+@@@@%%%%%%%%&&%%%%%&&&&&&&&%&&&&%%%%%%%%%%%&&&&&&&&&&&&**&$$$$.",
"+@@@@%%%%%%%&&&&%%%%&&&&&&&&&&&&%%%%%%%%%%%%&&&&&&&&&&&&*%%$$$$.",
"+@@@@%%%%%%&&&&&&%%%&&&&&&&&&%&&%%%%%%%%%%%%&&&&&&&&&&&&*%%$$$$.",
"+@@@@%%%%%%&&&&&&%%&&&&&&&&&&&&&%%%%%%%%%%%&&%&&&&&&&&&%%%%$$$$.",
"+@@@@%%%%%&&&&&&&%&&&&&&&&&&&&&&%%%%%%%%%%%&&&&&&&&&&%%%%%%$$$$.",
"+@@@@%%%%&&&&&&&&&&&&&&&&&&&&&&%%%%%%%%%%%%&&&&&&&%%%%%%%%%$$$$.",
"+@@@@%%%%&&&&&&&&&&&&&&&&&&&&&&%%%%%%%%%%%&&&&&&&&&%%%%%%%%$$$$.",
"+@@@@%%%%&&&&&&&&&&%&&&&&&&&&&&%%%%%%%%%%&&&&&&&&&&&&&%%%%%$$$$.",
"+@@@@%%%%&&&&&&&&&&&&&&&&&&&&&&%%%%%%%%&&&&&&&&%&&&&&&%%%%%$$$$.",
"+@@@@%%%&&&%%&&&&&&&&&&&&%&&&&&%%%%%%&&&&&&&&&&&&&&&&&&%%%%$$...",
"+@@@@%%%&&&%%&&&&&&&&&&&&&&&&&&&%%%%&&&&&&&&&&&&&&&&&%&%%%%$$$..",
"+@@@@%%%&&&&&&&&&&&&&&&&&&&&&&&&%%%&&&&&&&&&&&&&&&&&&&&%%%%$$$$.",
"+@@@@%%&&&&&&&&&&&&&&&&&&&&&&&&%%%&&&&&&&&&&&&&&&&&&&&%%%%%$$$$.",
"+@@@@%%&&&&&&&&&&&&&&&&&&&&&&&%%%%%&&&%%&&&&&&&&&&&&%%%%%%%$$$$.",
"+@@@@%%&&&&&&&&&&&&&&&&&&&&&&&%%%%%&&&%%&&&&&&&&&&&%%%%%%%%$$$$.",
"+@@@@%&&&&&&&&&&&&&&&&&&&&&&&&%%%%%&&&&&&&&&&&&&&&%%%%%%%%%$$$$.",
"+@@@@%&&&&&&&&&&&&&&&&&&&&&&&&%%%%%&&&&&&&%&&&&&&%%%%%%%%%%$$$$.",
"+@@@@&&&&&&&&&&&%&&&&&&&%%&&&&%%%%&&&&&&&&&&&&&&%%%%%%%%%%%$$$$.",
"+@@@@&&&&&&&&&&%%&&&&&&&%%&&&&&%%%&&&&&&&&&&&&%%%%%%%%%%%%%$$$$.",
"+@@@@&&&&&&&&%&%%%%&&&&&&&&&&&&%%%&&&&&&&&&&%%%%%%%%%%%%%%%$$$$.",
"+@@@@&&%&&&&&%%%%%%&&&&&&&&%&&&&%&&&&&&&&&&&%%%%%%%%%%%%%%%$$$$.",
"+@@@@&&&&&&&%%%%%%%%&&&&&&&&&&&&&&&%&&&&&&&%%%%%%%%%%%%%%%%$$$$.",
"+@@@@&&&&&&%%%%%%%%%&&&&&&&&&&&&&&&&&&&&&&&%%%%%%%%%%%%%%%%$$$$.",
"+@@@@&&&&&%%%%%%%%%%&&&&&&&&&&&&&&&&&&&&&&%%%%%%%%%%%%%%%%%$$$$.",
"+@@@@&&&&&%%%%%%%%%%%&&&&&&&&&&&&&&&&&&&&&&&%%%%%%%%%%%%%%%$$$$.",
"+@@@@@&&&&%%%%%%%%%%%&&&&&&&&&&&&&&&&&&&&&&&&%%%%%%%%%%%%%%$$$$.",
"+@@@@@&&&%%%%%%%%%%%&&&&&&&&&&&&&&&&%&&&&&&&&&&%%%%%%%%%%%%$$$$.",
"+@@@@@&&%%%%%%%%%%%%&&&&&&&&&&&&&&&&&&&&&&&&&&%&%%%%%%%%%%%$$$$.",
"+@@@@@&&%%%%%%%%%%%&&%&&&&&&&&&&&&&&&&%&&&&&&&&%%%%%%%%%%%%$$$$.",
"+@@@@@@&&%%%%%%%%%%&&&&&&&&&&&&&&&&&&&&&%%&&&%%%%%%%%%%%%%%$$$$.",
"+@@@@@@&&&%%%%%%%%%&&&&&&&&&&&%&&&&&&&&&%%&%%%%%%%%%%%%%%%%$$$$.",
"+@@@@@@@&&%%%%%%%%%%&&&&&&&&&&&&&&&&&&&&&&&%%%%%%%%%%%%%%%%$$$$.",
"+@@@@@@@@@%%%%%%%%%%%&&&&&&&&&&&&&&&&&&&&&%%%%%&&&&%%%%%%%%$$$$.",
"+@@@@@@@@%%%%%%%%%%%%%%&&&&&&&&&&&&&&&%%%%%%%%&&&&&&%%%%%%%$$$..",
"+@@@@@-%%%%%%%%%%%%%%%%%%%%&&&&&&&&%%%%%%%%%%%&&&&&&&&&%%%%$$$$.",
"+@@@@#######################################################$$$.",
"++@@#########################################################$$.",
"++@#################################.#########################$.",
"+ ..################################..#########################.",
" ..............................................................."};
