/* XPM */
static char * purple3_xpm[] = {
"64 64 221 2",
"  	c #FF00FF",
". 	c #FC63FA",
"+ 	c #F394F6",
"@ 	c #E9A7F7",
"# 	c #DFAFF9",
"$ 	c #D6B0FB",
"% 	c #D0ADFC",
"& 	c #CBA9FC",
"* 	c #C9A6FC",
"= 	c #CFACFC",
"- 	c #DEAFF9",
"; 	c #F785F7",
"> 	c #E6AAF7",
", 	c #D5AFFB",
"' 	c #C9A5FC",
") 	c #C9A4FC",
"! 	c #C8A4FC",
"~ 	c #C8A3FB",
"{ 	c #C7A3FC",
"] 	c #D4AFFB",
"^ 	c #FC56FB",
"/ 	c #ECA3F6",
"( 	c #D5B0FB",
"_ 	c #C8A5FC",
": 	c #C8A2FB",
"< 	c #C7A2FB",
"[ 	c #C7A1FB",
"} 	c #C6A1FB",
"| 	c #C69FFB",
"1 	c #FC5DFA",
"2 	c #C59EFB",
"3 	c #C49EFB",
"4 	c #C59DFB",
"5 	c #C49DFB",
"6 	c #C49CFA",
"7 	c #CEABFC",
"8 	c #EDA1F6",
"9 	c #D1ADFC",
"0 	c #C59FFB",
"a 	c #C49BFA",
"b 	c #C39BFA",
"c 	c #C399FA",
"d 	c #C29AFA",
"e 	c #C398FA",
"f 	c #C298FA",
"g 	c #D0ACFB",
"h 	c #F882F7",
"i 	c #DCB0FA",
"j 	c #C39CFB",
"k 	c #C197FA",
"l 	c #C097FA",
"m 	c #C196F9",
"n 	c #C096FA",
"o 	c #C095F9",
"p 	c #DDAFF9",
"q 	c #EF9EF6",
"r 	c #CFADFC",
"s 	c #BF94F9",
"t 	c #BF92F9",
"u 	c #BE91F9",
"v 	c #CEACFC",
"w 	c #EE9EF6",
"x 	c #FE41FD",
"y 	c #E7A9F7",
"z 	c #BE90F8",
"A 	c #BD90F9",
"B 	c #BC8FF8",
"C 	c #BD8EF8",
"D 	c #BC8EF8",
"E 	c #BC8CF8",
"F 	c #BB8CF8",
"G 	c #FD41FD",
"H 	c #FC5FFA",
"I 	c #E3ADF8",
"J 	c #BD8FF8",
"K 	c #BB8BF8",
"L 	c #BB8AF7",
"M 	c #BA89F7",
"N 	c #BA88F7",
"O 	c #B988F7",
"P 	c #E2AEF8",
"Q 	c #B886F7",
"R 	c #B885F7",
"S 	c #B884F6",
"T 	c #B783F6",
"U 	c #B781F6",
"V 	c #E1AEF8",
"W 	c #B680F5",
"X 	c #B67FF5",
"Y 	c #B67EF5",
"Z 	c #B57DF5",
"` 	c #B47DF5",
" .	c #B57BF4",
"..	c #E2ADF8",
"+.	c #B985F6",
"@.	c #B883F6",
"#.	c #B57FF5",
"$.	c #B47AF4",
"%.	c #B379F4",
"&.	c #B47BF5",
"*.	c #B47EF5",
"=.	c #E7A8F7",
"-.	c #B986F7",
";.	c #B47FF6",
">.	c #B582F6",
",.	c #B683F6",
"'.	c #B684F7",
").	c #B685F7",
"!.	c #B686F7",
"~.	c #B786F7",
"{.	c #B989F7",
"].	c #B788F8",
"^.	c #B78AF8",
"/.	c #B88DF9",
"(.	c #B98EF9",
"_.	c #B98FF9",
":.	c #B990FA",
"<.	c #BA90F9",
"[.	c #B889F8",
"}.	c #BA94FA",
"|.	c #BB96FB",
"1.	c #BB99FB",
"2.	c #BB9AFC",
"3.	c #BC9BFC",
"4.	c #DCAFF9",
"5.	c #B680F6",
"6.	c #B789F8",
"7.	c #BA93FA",
"8.	c #BD9EFD",
"9.	c #BEA1FD",
"0.	c #BEA3FE",
"a.	c #BFA5FE",
"b.	c #C0A5FE",
"c.	c #C0A7FE",
"d.	c #B991FA",
"e.	c #BB97FB",
"f.	c #BC9CFC",
"g.	c #C0A9FF",
"h.	c #C2ACFF",
"i.	c #C2B0FF",
"j.	c #C3B1FF",
"k.	c #C3B2FF",
"l.	c #C3B3FF",
"m.	c #B788F7",
"n.	c #BDA1FD",
"o.	c #C1ACFF",
"p.	c #C4B6FF",
"q.	c #C5BAFF",
"r.	c #C7BDFF",
"s.	c #C7C0FF",
"t.	c #C8C1FF",
"u.	c #E8A7F7",
"v.	c #BD9DFC",
"w.	c #BFA4FE",
"x.	c #C1ABFF",
"y.	c #C5B8FF",
"z.	c #C7BEFF",
"A.	c #C8C4FF",
"B.	c #CAC8FF",
"C.	c #CBCDFF",
"D.	c #CBD0FF",
"E.	c #CCD1FF",
"F.	c #CCD3FF",
"G.	c #CDAAFC",
"H.	c #C1AEFF",
"I.	c #C6BEFF",
"J.	c #C8C6FF",
"K.	c #D2D3FB",
"L.	c #E4D4F0",
"M.	c #EFD6EA",
"N.	c #F7D9EA",
"O.	c #FBD9EA",
"P.	c #FDD8E9",
"Q.	c #EBA3F6",
"R.	c #CACAFF",
"S.	c #D6D2F8",
"T.	c #ECD6EC",
"U.	c #FBE1F6",
"V.	c #FAE7FF",
"W.	c #F8EDFF",
"X.	c #F7F1FF",
"Y.	c #F6F2FF",
"Z.	c #D4AEFB",
"`.	c #C5B9FF",
" +	c #CBCFFF",
".+	c #E4D4EF",
"++	c #F8DAEC",
"@+	c #FBE4FA",
"#+	c #F7EFFF",
"$+	c #F6F5FF",
"%+	c #F8F6FF",
"&+	c #F9F7FF",
"*+	c #F9F8FF",
"=+	c #F685F7",
"-+	c #CECFFD",
";+	c #EBD5EC",
">+	c #FCDEF1",
",+	c #F8EBFF",
"'+	c #F7F5FF",
")+	c #FBF9FF",
"!+	c #FCFBFF",
"~+	c #FFFFFF",
"{+	c #E6A9F7",
"]+	c #FCDFF2",
"^+	c #FAF9FF",
"/+	c #D3AEFB",
"(+	c #FBFAFF",
"_+	c #F294F6",
":+	c #DDAEF9",
"<+	c #CAA7FC",
"[+	c #C8A3FC",
"}+	c #C9A7FC",
"|+	c #D2AEFB",
"1+	c #CCAAFC",
"2+	c #CFABFB",
"3+	c #EDA0F6",
"4+	c #DBAEF9",
"5+	c #F782F7",
"6+	c #E6A8F7",
"7+	c #E2ACF8",
"8+	c #E1ADF8",
"                                                . + @ # $ % & * * & = $ - @ + .                                                 ",
"                                          ; > , * ' ) ) ! ~ ~ { { { ~ ~ ! ) ) ' ] > ;                                           ",
"                                    ^ / ( ' _ ! ~ : < [ } } } | | | } } } [ < : ~ ! _ , / ^                                     ",
"                                1 @ = ' ) { < } } | 2 3 4 4 5 5 6 5 5 4 4 3 2 | } } < { ) 7 @ 1                                 ",
"                              8 9 ' ! { < } 0 3 5 6 a b c d d e f e d d c b a 6 5 3 0 } < { ! g 8                               ",
"                          h i ' ) { [ | 2 4 j b d f k l m n o o o o o n m l k f d b j 4 2 | [ { ) p h                           ",
"                        q r _ ~ < | 2 5 a d f k n o s t t u u u u u u u t t s o n k f d a 5 2 | < ~ v w                         ",
"                    x y * ) : } 2 4 a d f m o s t z A B C D E F F F E D C B A z t s o m f d a 4 2 } : ) y G                     ",
"                  H I ' ! < | 3 j c f m o t u J C F K L M N N N O N N N M L K F C J u t o m f c j 3 | < ! I H                   ",
"                H P ' ~ < | 4 a e l o t z B E K M N Q R S T T U U U T T S R Q N M K E B z t o l e a 4 | < ~ V H                 ",
"              x I ' ~ [ 0 5 b f n s u J F L N Q S T W X Y Z `  . . .` Z Y X W T S Q N L F J u s n f b 5 0 [ ~ ..G               ",
"              y ' ~ [ 2 6 c k o t z D K N +.@.W #.` $.%.$.&.` *.*.*.` &.$.%.$.` #.W @.+.N K D z t o k c 6 2 [ ~ =.              ",
"            q * ! < 0 6 c k o t J F M -.S W Y &.%.` ;.>.,.'.).!.~.!.).'.,.>.;.` %.&.Y W S -.M F J t o k c 6 0 < ! w             ",
"          h r ) < | 5 c k o u B K {.R U #.&.$.*.>.'.].^./.(._.:.<.:._.(./.^.].'.>.*.$.&.#.U R {.K B u o k c 5 | < 7 h           ",
"          i _ : | 4 b k o u B K N S W Z %.` >.).[./.<.}.|.1.2.3.3.3.2.1.|.}.<./.[.).>.` %.Z W S N K B u o k b 4 | : 4.          ",
"        8 ' ~ } 3 a f o t B K N S 5. .$.#.'.6.(.7.|.3.8.9.0.a.b.c.b.a.0.9.8.3.|.7.(.6.'.#.$. .5.S N K B t o f a 3 } ~ 8         ",
"      1 9 ) < 2 j e n t J K N S X &.&.>.~./.d.e.f.9.a.g.h.i.j.k.l.k.j.i.h.g.a.9.f.e.d./.~.>.&.&.X S N K J t n e j 2 < g 1       ",
"      @ ' { | 4 c l s z F {.S 5.&.&.>.m.(.}.3.n.c.o.j.p.q.r.s.t.t.t.s.r.q.p.j.o.c.n.3.}.(.m.>.&.&.5.S {.F z s l c 4 | { u.      ",
"    ^ = ! [ 2 a f o u D M R W  .&.>.6._.|.v.w.x.j.y.z.A.B.C.D.E.F.E.D.C.B.A.z.y.j.x.w.v.|._.6.>.&. .W R M D u o f a 2 [ G.^     ",
"    / ' { | 5 d m t J K -.U Z $.>.m._.|.8.b.H.p.I.J.C.K.L.M.N.O.P.O.N.M.L.K.C.J.I.p.H.b.8.|._.m.>.$.Z U -.K J t m d 5 | { Q.    ",
"    ( ) < 2 a f o z F N S #.%.#.~.(.|.8.c.i.y.t.R.S.T.O.U.V.W.X.Y.X.W.V.U.O.T.S.R.t.y.i.c.8.|.(.~.#.%.#.S N F z o f a 2 < Z.    ",
"  ; ' { } 4 d m t B L +.W &.` './.}.v.b.i.`.A. +.+++@+#+$+%+&+*+*+*+&+%+$+#+@+++.+ +A.`.i.b.v.}./.'.` &.W +.L B t m d 4 } { =+  ",
"  > _ < 0 j f o u E N @.Y $.>.6.d.3.w.H.y.A.-+;+>+,+'+&+)+!+~+~+~+~+~+!+)+&+'+,+>+;+-+A.y.H.w.3.d.6.>.$.Y @.N E u o f j 0 < {+  ",
"  , ! } 3 b k s J K Q W &.*.).(.e.n.x.p.t. +;+]+X.%+^+~+~+~+~+~+~+~+~+~+~+~+^+%+X.]+;+ +t.p.x.n.e.(.).*.&.W Q K J s k b 3 } /+  ",
". * ~ } 5 d n t C M S #.%.>.[.7.f.c.j.I.R..+>+X.%+(+~+~+~+~+~+~+~+~+~+~+~+~+~+(+%+X.>+.+R.I.j.c.f.7.[.>.%.#.S M C t n d 5 } ~ . ",
"+ ' : | 6 f o z F N T ` ` './.|.9.o.y.J.S.++,+%+(+~+~+~+~+~+~+~+~+~+~+~+~+~+~+~+(+%+,+++S.J.y.o.9.|./.'.` ` T N F z o f 6 | : _+",
"@ ) < 2 a k s A K Q W $.;.].<.3.a.j.z.C.T.@+'+^+~+~+~+~+~+~+~+~+~+~+~+~+~+~+~+~+~+^+'+@+T.C.z.j.a.3.<.].;.$.W Q K A s k a 2 < u.",
"# ) [ 3 b l t B L R X %.>.^.}.8.g.p.A.K.O.#+&+~+~+~+~+~+~+~+~+~+~+~+~+~+~+~+~+~+~+~+&+#+O.K.A.p.g.8.}.^.>.%.X R L B t l b 3 [ :+",
"$ ! } 4 c m t C M S Y $.,./.|.9.h.q.B.L.U.$+)+~+~+~+~+~+~+~+~+~+~+~+~+~+~+~+~+~+~+~+)+$+U.L.B.q.h.9.|./.,.$.Y S M C t m c 4 } Z.",
"% ~ } 4 d n u D N T Z &.'.(.1.0.i.r.C.M.V.%+!+~+~+~+~+~+~+~+~+~+~+~+~+~+~+~+~+~+~+~+!+%+V.M.C.r.i.0.1.(.'.&.Z T N D u n d 4 } 7 ",
"& ~ } 5 d o u E N T ` ` )._.2.a.j.s.D.N.W.&+~+~+~+~+~+~+~+~+~+~+~+~+~+~+~+~+~+~+~+~+~+&+W.N.D.s.j.a.2._.).` ` T N E u o d 5 } <+",
"* { | 5 e o u F N U  .*.!.:.3.b.k.t.E.O.X.*+~+~+~+~+~+~+~+~+~+~+~+~+~+~+~+~+~+~+~+~+~+*+X.O.E.t.k.b.3.:.!.*. .U N F u o e 5 | [+",
"* { | 6 f o u F O U  .*.~.<.3.c.l.t.F.P.Y.*+~+~+~+~+~+~+~+~+~+~+~+~+~+~+~+~+~+~+~+~+~+*+Y.P.F.t.l.c.3.<.~.*. .U O F u o f 6 | [+",
"& { | 5 e o u F N U  .*.!.:.3.b.k.t.E.O.X.*+~+~+~+~+~+~+~+~+~+~+~+~+~+~+~+~+~+~+~+~+~+*+X.O.E.t.k.b.3.:.!.*. .U N F u o e 5 | }+",
"= ~ } 5 d o u E N T ` ` )._.2.a.j.s.D.N.W.&+~+~+~+~+~+~+~+~+~+~+~+~+~+~+~+~+~+~+~+~+~+&+W.N.D.s.j.a.2._.).` ` T N E u o d 5 } 7 ",
"$ ~ } 4 d n u D N T Z &.'.(.1.0.i.r.C.M.V.%+!+~+~+~+~+~+~+~+~+~+~+~+~+~+~+~+~+~+~+~+!+%+V.M.C.r.i.0.1.(.'.&.Z T N D u n d 4 } Z.",
"- ! } 4 c m t C M S Y $.,./.|.9.h.q.B.L.U.$+)+~+~+~+~+~+~+~+~+~+~+~+~+~+~+~+~+~+~+~+)+$+U.L.B.q.h.9.|./.,.$.Y S M C t m c 4 } :+",
"@ ) [ 3 b l t B L R X %.>.^.}.8.g.p.A.K.O.#+&+~+~+~+~+~+~+~+~+~+~+~+~+~+~+~+~+~+~+~+&+#+O.K.A.p.g.8.}.^.>.%.X R L B t l b 3 [ u.",
"+ ) < 2 a k s A K Q W $.;.].<.3.a.j.z.C.T.@+'+^+~+~+~+~+~+~+~+~+~+~+~+~+~+~+~+~+~+^+'+@+T.C.z.j.a.3.<.].;.$.W Q K A s k a 2 < _+",
". ' : | 6 f o z F N T ` ` './.|.9.o.y.J.S.++,+%+(+~+~+~+~+~+~+~+~+~+~+~+~+~+~+~+(+%+,+++S.J.y.o.9.|./.'.` ` T N F z o f 6 | : . ",
"  ] ~ } 5 d n t C M S #.%.>.[.7.f.c.j.I.R..+>+X.%+(+~+~+~+~+~+~+~+~+~+~+~+~+~+(+%+X.>+.+R.I.j.c.f.7.[.>.%.#.S M C t n d 5 } |+  ",
"  > ! } 3 b k s J K Q W &.*.).(.e.n.x.p.t. +;+]+X.%+^+~+~+~+~+~+~+~+~+~+~+~+^+%+X.]+;+ +t.p.x.n.e.(.).*.&.W Q K J s k b 3 } {+  ",
"  ; _ < 0 j f o u E N @.Y $.>.6.d.3.w.H.y.A.-+;+>+,+'+&+)+!+~+~+~+~+~+!+)+&+'+,+>+;+-+A.y.H.w.3.d.6.>.$.Y @.N E u o f j 0 < =+  ",
"    , { } 4 d m t B L +.W &.` './.}.v.b.i.`.A. +.+++@+#+$+%+&+*+*+*+&+%+$+#+@+++.+ +A.`.i.b.v.}./.'.` &.W +.L B t m d 4 } Z.    ",
"    / ) < 2 a f o z F N S #.%.#.~.(.|.8.c.i.y.t.R.S.T.O.U.V.W.X.Y.X.W.V.U.O.T.S.R.t.y.i.c.8.|.(.~.#.%.#.S N F z o f a 2 < Q.    ",
"    ^ 7 { | 5 d m t J K -.U Z $.>.m._.|.8.b.H.p.I.J.C.K.L.M.N.O.P.O.N.M.L.K.C.J.I.p.H.b.8.|._.m.>.$.Z U -.K J t m d 5 | 1+^     ",
"      @ ! [ 2 a f o u D M R W  .&.>.6._.|.v.w.x.j.y.z.A.B.C.D.E.F.E.D.C.B.A.z.y.j.x.w.v.|._.6.>.&. .W R M D u o f a 2 [ u.      ",
"      1 g { | 4 c l s z F {.S 5.&.&.>.m.(.}.3.n.c.o.j.p.q.r.s.t.t.t.s.r.q.p.j.o.c.n.3.}.(.m.>.&.&.5.S {.F z s l c 4 | 2+1       ",
"        8 ) < 2 j e n t J K N S X &.&.>.~./.d.e.f.9.a.g.h.i.j.k.l.k.j.i.h.g.a.9.f.e.d./.~.>.&.&.X S N K J t n e j 2 < 3+        ",
"          p ~ } 3 a f o t B K N S 5. .$.#.'.6.(.7.|.3.8.9.0.a.b.c.b.a.0.9.8.3.|.7.(.6.'.#.$. .5.S N K B t o f a 3 } 4+          ",
"          h v : | 4 b k o u B K N S W Z %.` >.).[./.<.}.|.1.2.3.3.3.2.1.|.}.<./.[.).>.` %.Z W S N K B u o k b 4 | G.5+          ",
"            w ) < | 5 c k o u B K {.R U #.&.$.*.>.'.].^./.(._.:.<.:._.(./.^.].'.>.*.$.&.#.U R {.K B u o k c 5 | < w             ",
"              y ! < 0 6 c k o t J F M -.S W Y &.%.` ;.>.,.'.).!.~.!.).'.,.>.;.` %.&.Y W S -.M F J t o k c 6 0 < 6+              ",
"              G I ~ [ 2 6 c k o t z D K N +.@.W #.` $.%.$.&.` *.*.*.` &.$.%.$.` #.W @.+.N K D z t o k c 6 2 [ 7+G               ",
"                H V ~ [ 0 5 b f n s u J F L N Q S T W X Y Z `  . . .` Z Y X W T S Q N L F J u s n f b 5 0 [ 8+H                 ",
"                  H ..~ < | 4 a e l o t z B E K M N Q R S T T U U U T T S R Q N M K E B z t o l e a 4 | < 7+H                   ",
"                    G =.! < | 3 j c f m o t u J C F K L M N N N O N N N M L K F C J u t o m f c j 3 | < 6+G                     ",
"                        w 7 : } 2 4 a d f m o s t z A B C D E F F F E D C B A z t s o m f d a 4 2 } G.w                         ",
"                          h 4.~ < | 2 5 a d f k n o s t t u u u u u u u t t s o n k f d a 5 2 | < 4+5+                          ",
"                              8 g { [ | 2 4 j b d f k l m n o o o o o n m l k f d b j 4 2 | [ 2+3+                              ",
"                                1 u.G.{ < } 0 3 5 6 a b c d d e f e d d c b a 6 5 3 0 } < 1+u.1                                 ",
"                                    ^ Q.Z.{ < } } | 2 3 4 4 5 5 6 5 5 4 4 3 2 | } } < Z.Q.^                                     ",
"                                          =+{+/+~ : < [ } } } | | | } } } [ < : |+{+=+                                          ",
"                                                . _+u.:+Z.7 <+[+[+}+7 Z.:+u._+.                                                 "};
