/* XPM */
static char * purple1_xpm[] = {
"64 64 201 2",
"  	c #FF00FF",
". 	c #FC62FA",
"+ 	c #F191F6",
"@ 	c #E7A2F6",
"# 	c #DDA8F8",
"$ 	c #D4A5F9",
"% 	c #CF9EF8",
"& 	c #CA99F8",
"* 	c #C895F7",
"= 	c #CE9EF8",
"- 	c #DDA6F7",
"; 	c #F683F7",
"> 	c #E5A4F6",
", 	c #D3A4F8",
"' 	c #C893F7",
") 	c #C892F7",
"! 	c #C791F6",
"~ 	c #C791F7",
"{ 	c #C790F6",
"] 	c #D2A4F9",
"^ 	c #F583F7",
"/ 	c #FC55FB",
"( 	c #EB9EF6",
"_ 	c #D3A5F9",
": 	c #C690F6",
"< 	c #C68FF6",
"[ 	c #C68DF6",
"} 	c #C58DF6",
"| 	c #C58CF6",
"1 	c #D3A4F9",
"2 	c #EA9EF6",
"3 	c #FC5CFA",
"4 	c #CC9EF9",
"5 	c #C58BF5",
"6 	c #C48BF5",
"7 	c #C48AF5",
"8 	c #C388F5",
"9 	c #CC9DF8",
"0 	c #EC9DF6",
"a 	c #D0A1F8",
"b 	c #C387F5",
"c 	c #C286F5",
"d 	c #C285F4",
"e 	c #C184F4",
"f 	c #CFA0F8",
"g 	c #F780F7",
"h 	c #DBA7F8",
"i 	c #C182F4",
"j 	c #C081F4",
"k 	c #C080F3",
"l 	c #BF7FF3",
"m 	c #DBA6F8",
"n 	c #ED9BF6",
"o 	c #CD9FF9",
"p 	c #BE7DF3",
"q 	c #BE7CF3",
"r 	c #BE7BF2",
"s 	c #BD7BF3",
"t 	c #BE7AF2",
"u 	c #BD7AF2",
"v 	c #CD9DF8",
"w 	c #ED9AF6",
"x 	c #FD40FD",
"y 	c #E6A4F6",
"z 	c #BC78F2",
"A 	c #BC77F2",
"B 	c #BB76F2",
"C 	c #BC75F1",
"D 	c #BB75F1",
"E 	c #BB73F1",
"F 	c #E5A3F6",
"G 	c #FC5EFA",
"H 	c #E1A6F7",
"I 	c #BF7DF3",
"J 	c #BD77F2",
"K 	c #BA72F1",
"L 	c #BA71F0",
"M 	c #B96FF0",
"N 	c #B96EF0",
"O 	c #B96DF0",
"P 	c #B86DF0",
"Q 	c #E0A6F7",
"R 	c #E0A7F7",
"S 	c #C488F5",
"T 	c #B86BEF",
"U 	c #B86AEF",
"V 	c #B769EF",
"W 	c #DFA6F7",
"X 	c #B972F1",
"Y 	c #BA73F1",
"Z 	c #BD78F2",
"` 	c #BB77F2",
" .	c #BC7AF2",
"..	c #BC7BF3",
"+.	c #BA6FF0",
"@.	c #BE7FF3",
"#.	c #BF81F4",
"$.	c #BF82F4",
"%.	c #C084F4",
"&.	c #C085F5",
"*.	c #BA6EF0",
"=.	c #C187F5",
"-.	c #C28AF6",
";.	c #C28CF6",
">.	c #C38DF7",
",.	c #C38DF6",
"'.	c #BC76F1",
").	c #C28BF6",
"!.	c #C38FF7",
"~.	c #C591F7",
"{.	c #C693F8",
"].	c #C696F8",
"^.	c #C797F8",
"/.	c #C798F9",
"(.	c #DAA6F8",
"_.	c #BD7DF3",
":.	c #C490F7",
"<.	c #C695F8",
"[.	c #C99CF9",
"}.	c #CA9EFA",
"|.	c #CBA0FA",
"1.	c #CCA3FB",
"2.	c #CBA4FB",
"3.	c #CCA4FB",
"4.	c #EB9BF6",
"5.	c #C899F9",
"6.	c #CDA6FB",
"7.	c #CFAAFC",
"8.	c #CFADFD",
"9.	c #D1AEFD",
"0.	c #D1B1FD",
"a.	c #BE80F4",
"b.	c #C186F5",
"c.	c #C592F7",
"d.	c #CEAAFC",
"e.	c #D0AEFD",
"f.	c #D2B3FE",
"g.	c #D4B8FF",
"h.	c #D5BBFF",
"i.	c #D6BDFF",
"j.	c #D7BFFF",
"k.	c #E6A2F6",
"l.	c #C89BF9",
"m.	c #CBA2FA",
"n.	c #CDA9FC",
"o.	c #D3B5FE",
"p.	c #D6BBFF",
"q.	c #D9C1FF",
"r.	c #DBC5FF",
"s.	c #DCCAFF",
"t.	c #DECCFF",
"u.	c #DECFFF",
"v.	c #DFD0FF",
"w.	c #CB9CF8",
"x.	c #CFABFC",
"y.	c #D9C3FF",
"z.	c #DFD1FF",
"A.	c #E2D7FF",
"B.	c #E4DBFF",
"C.	c #E5DFFF",
"D.	c #E6E1FF",
"E.	c #E6E2FF",
"F.	c #EA9DF6",
"G.	c #DCC8FF",
"H.	c #E2DAFF",
"I.	c #E8E9FF",
"J.	c #E9F0FF",
"K.	c #E9F5FF",
"L.	c #EBF8FF",
"M.	c #E9F9FF",
"N.	c #D2A3F8",
"O.	c #D4B7FE",
"P.	c #DDCBFF",
"Q.	c #E8EDFF",
"R.	c #EBF6FF",
"S.	c #E9FFFF",
"T.	c #F0FFFF",
"U.	c #FFFFFF",
"V.	c #E3D9FF",
"W.	c #E7E5FF",
"X.	c #E9F4FF",
"Y.	c #EAFFFF",
"Z.	c #E4A4F6",
"`.	c #E8E8FF",
" +	c #D2A1F8",
".+	c #F2FFFF",
"++	c #D3A3F8",
"@+	c #CC9CF8",
"#+	c #C691F7",
"$+	c #DBA5F7",
"%+	c #FB62FA",
"&+	c #D1A1F8",
"*+	c #E4A3F6",
"=+	c #D1A3F9",
"-+	c #CB99F8",
";+	c #D9A5F8",
">+	c #CC9BF8",
",+	c #F680F7",
"'+	c #E0A5F7",
")+	c #DEA5F7",
"!+	c #FB5EFA",
"                                                . + @ # $ % & * * & = $ - @ + .                                                 ",
"                                          ; > , ' ' ) ! ! ~ { { { { { ~ ! ! ) ' ] > ^                                           ",
"                                    / ( _ ' ) ! { : < [ } } | | | | | } } [ < : { ! ) 1 2 /                                     ",
"                                3 @ 4 ' ! { < [ | 5 6 7 7 8 8 8 8 8 8 8 7 7 6 5 | [ < { ! 9 @ 3                                 ",
"                              0 a ' ! : < | 6 7 8 b c c d d e e e e e d d c c b 8 7 6 | < : ! f 0                               ",
"                          g h ' ! : [ | 6 8 b c d e i j k k l l l l l k k j i e d c b 8 6 | [ : ! m g                           ",
"                        n o ) { < | 7 8 c d i j k l p q r s t t u t t s r q p l k j i d c 8 7 | < { v w                         ",
"                    x y ' ! : } 6 8 c d i k l q r u z A B C D E E E D C B A z u r q l k i d c 8 6 } : ! F x                     ",
"                  G H ' ~ < | 7 b d i k I q u J B E K L M N N O P O N N M L K E B J u q I k i d b 7 | < ~ Q G                   ",
"                G R ' ~ < 5 S c e j l q u A D K M N T U V U T T T T T U V U T N M K D A u q l j e c S 5 < ~ W G                 ",
"              x H ' ~ [ 6 8 c i k p t A D L N T V T P M L X K Y E Y K X L M P T V T N L D A t p k i c 8 6 [ ~ Q x               ",
"              y ' ~ [ 6 8 d i l q Z C K N T U P M K D ` z  ...s s s .. .z ` D K M P U T N K C Z q l i d 8 6 [ ~ F               ",
"            n ' ~ < 6 8 d j l r J E +.P V P L E ` u q @.#.$.%.%.&.%.%.$.#.@.q u ` E L P V P +.E J r l j d 8 6 < ~ w             ",
"          g o ! < 5 8 d j l s A E *.U T M E A s @.$.&.=.-.;.>.,.,.,.>.;.-.=.&.$.@.s A E M T U *.E A s l j d 8 5 < 9 g           ",
"          h ) : | S c i l s '.K N V P X B ..@.%.=.).!.~.{.].^./././.^.].{.~.!.).=.%.@...B X P V N K '.s l i c S | : (.          ",
"        0 ' { } 7 c i l r A K N V N Y z _.$.=.;.:.<./.[.}.|.1.2.3.2.1.|.}.[./.<.:.;.=.$._.z Y N V N K A r l i c 7 } { 4.        ",
"      3 a ! < 6 b e k q J E N V N E  .@.&.-.:.<.5.}.1.6.7.8.9.0.0.0.9.8.7.6.1.}.5.<.:.-.&.@. .E N V N E J q k e b 6 < % 3       ",
"      @ ' : | 8 d j p Z E *.V N E  .a.b.;.c./.}.3.d.e.f.g.h.i.j.j.j.i.h.g.f.e.d.3.}./.c.;.b.a. .E N V *.E Z p j d 8 | : k.      ",
"    / 4 ! [ 7 c i l t C +.U P Y  .a.b.>.{.l.m.n.9.o.p.q.r.s.t.u.v.u.t.s.r.q.p.o.9.n.m.l.{.>.b.a. .Y P U +.C t l i c 7 [ w./     ",
"    ( ' : | 8 d k q A K P T X z @.b.>.<.[.2.x.f.p.y.s.z.A.B.C.D.E.D.C.B.A.z.s.y.p.f.x.2.[.<.>.b.@.z X T P K A q k d 8 | : F.    ",
"    _ ! < 6 c i I u D N V M B _.&.;.{.[.3.8.o.j.G.z.H.E.I.J.K.L.M.L.K.J.I.E.H.z.G.j.o.8.3.[.{.;.&._.B M V N D u I i c 6 < N.    ",
"  ; ' { | 8 d k q A L T P E ..$.-.c.l.2.8.O.q.P.A.D.Q.R.S.T.U.U.U.U.U.T.S.R.Q.D.A.P.q.O.8.2.l.c.-.$...E P T L A q k d 8 | { ^   ",
"  > ) < 6 b i l u D N U L A @.=.:./.m.x.o.q.t.V.W.X.Y.U.U.U.U.U.U.U.U.U.U.U.Y.X.W.V.t.q.o.x.m./.:.=.@.A L U N D u l i b 6 < Z.  ",
"  , ! [ 7 c j q J K T P E s %.;.<.}.n.f.j.P.V.`.L.T.U.U.U.U.U.U.U.U.U.U.U.U.U.T.L.`.V.P.j.f.n.}.<.;.%.s E P T K J q j c 7 [  +  ",
". ' { | 8 d k r B M V M ` @.=.:.5.3.9.p.G.A.W.L..+U.U.U.U.U.U.U.U.U.U.U.U.U.U.U..+L.W.A.G.p.9.3.5.:.=.@.` M V M B r k d 8 | { . ",
"+ ' : 5 b e l u E N T K u $.).<.}.d.o.y.z.D.X.T.U.U.U.U.U.U.U.U.U.U.U.U.U.U.U.U.U.T.X.D.z.y.o.d.}.<.).$.u K T N E u l e b 5 : + ",
"@ ) < 6 c i p z K T P D q &.!./.1.e.p.s.H.Q.Y.U.U.U.U.U.U.U.U.U.U.U.U.U.U.U.U.U.U.U.Y.Q.H.s.p.e.1./.!.&.q D P T K z p i c 6 < k.",
"# ! [ 7 c j q A L U M ` @.=.~.[.6.f.q.z.E.R.U.U.U.U.U.U.U.U.U.U.U.U.U.U.U.U.U.U.U.U.U.R.E.z.q.f.6.[.~.=.@.` M U L A q j c 7 [ h ",
"$ ! } 7 d k r B M V L z #.-.{.}.7.g.r.A.I.S.U.U.U.U.U.U.U.U.U.U.U.U.U.U.U.U.U.U.U.U.U.S.I.A.r.g.7.}.{.-.#.z L V M B r k d 7 } ++",
"% ~ } 8 d k s C N U X  .$.;.].|.8.h.s.B.J.T.U.U.U.U.U.U.U.U.U.U.U.U.U.U.U.U.U.U.U.U.U.T.J.B.s.h.8.|.].;.$. .X U N C s k d 8 } @+",
"& { | 8 e l t D N T K ..%.>.^.1.9.i.t.C.K.U.U.U.U.U.U.U.U.U.U.U.U.U.U.U.U.U.U.U.U.U.U.U.K.C.t.i.9.1.^.>.%...K T N D t l e 8 | * ",
"* { | 8 e l t E O T Y s %.,./.2.0.j.u.D.L.U.U.U.U.U.U.U.U.U.U.U.U.U.U.U.U.U.U.U.U.U.U.U.L.D.u.j.0.2./.,.%.s Y T O E t l e 8 | #+",
"* { | 8 e l u E P T E s &.,./.3.0.j.v.E.M.U.U.U.U.U.U.U.U.U.U.U.U.U.U.U.U.U.U.U.U.U.U.U.M.E.v.j.0.3./.,.&.s E T P E u l e 8 | #+",
"& { | 8 e l t E O T Y s %.,./.2.0.j.u.D.L.U.U.U.U.U.U.U.U.U.U.U.U.U.U.U.U.U.U.U.U.U.U.U.L.D.u.j.0.2./.,.%.s Y T O E t l e 8 | * ",
"= { | 8 e l t D N T K ..%.>.^.1.9.i.t.C.K.U.U.U.U.U.U.U.U.U.U.U.U.U.U.U.U.U.U.U.U.U.U.U.K.C.t.i.9.1.^.>.%...K T N D t l e 8 | @+",
"$ ~ } 8 d k s C N U X  .$.;.].|.8.h.s.B.J.T.U.U.U.U.U.U.U.U.U.U.U.U.U.U.U.U.U.U.U.U.U.T.J.B.s.h.8.|.].;.$. .X U N C s k d 8 } ++",
"- ! } 7 d k r B M V L z #.-.{.}.7.g.r.A.I.S.U.U.U.U.U.U.U.U.U.U.U.U.U.U.U.U.U.U.U.U.U.S.I.A.r.g.7.}.{.-.#.z L V M B r k d 7 } $+",
"@ ! [ 7 c j q A L U M ` @.=.~.[.6.f.q.z.E.R.U.U.U.U.U.U.U.U.U.U.U.U.U.U.U.U.U.U.U.U.U.R.E.z.q.f.6.[.~.=.@.` M U L A q j c 7 [ k.",
"+ ) < 6 c i p z K T P D q &.!./.1.e.p.s.H.Q.Y.U.U.U.U.U.U.U.U.U.U.U.U.U.U.U.U.U.U.U.Y.Q.H.s.p.e.1./.!.&.q D P T K z p i c 6 < + ",
". ' : 5 b e l u E N T K u $.).<.}.d.o.y.z.D.X.T.U.U.U.U.U.U.U.U.U.U.U.U.U.U.U.U.U.T.X.D.z.y.o.d.}.<.).$.u K T N E u l e b 5 : %+",
"  ] { | 8 d k r B M V M ` @.=.:.5.3.9.p.G.A.W.L..+U.U.U.U.U.U.U.U.U.U.U.U.U.U.U..+L.W.A.G.p.9.3.5.:.=.@.` M V M B r k d 8 | &+  ",
"  > ! [ 7 c j q J K T P E s %.;.<.}.n.f.j.P.V.`.L.T.U.U.U.U.U.U.U.U.U.U.U.U.U.T.L.`.V.P.j.f.n.}.<.;.%.s E P T K J q j c 7 [ *+  ",
"  ^ ) < 6 b i l u D N U L A @.=.:./.m.x.o.q.t.V.W.X.Y.U.U.U.U.U.U.U.U.U.U.U.Y.X.W.V.t.q.o.x.m./.:.=.@.A L U N D u l i b 6 < ^   ",
"    1 { | 8 d k q A L T P E ..$.-.c.l.2.8.O.q.P.A.D.Q.R.S.T.U.U.U.U.U.T.S.R.Q.D.A.P.q.O.8.2.l.c.-.$...E P T L A q k d 8 | =+    ",
"    2 ! < 6 c i I u D N V M B _.&.;.{.[.3.8.o.j.G.z.H.E.I.J.K.L.M.L.K.J.I.E.H.z.G.j.o.8.3.[.{.;.&._.B M V N D u I i c 6 < F.    ",
"    / 9 : | 8 d k q A K P T X z @.b.>.<.[.2.x.f.p.y.s.z.A.B.C.D.E.D.C.B.A.z.s.y.p.f.x.2.[.<.>.b.@.z X T P K A q k d 8 | -+/     ",
"      @ ! [ 7 c i l t C +.U P Y  .a.b.>.{.l.m.n.9.o.p.q.r.s.t.u.v.u.t.s.r.q.p.o.9.n.m.l.{.>.b.a. .Y P U +.C t l i c 7 [ k.      ",
"      3 f : | 8 d j p Z E *.V N E  .a.b.;.c./.}.3.d.e.f.g.h.i.j.j.j.i.h.g.f.e.d.3.}./.c.;.b.a. .E N V *.E Z p j d 8 | v 3       ",
"        0 ! < 6 b e k q J E N V N E  .@.&.-.:.<.5.}.1.6.7.8.9.0.0.0.9.8.7.6.1.}.5.<.:.-.&.@. .E N V N E J q k e b 6 < 4.        ",
"          m { } 7 c i l r A K N V N Y z _.$.=.;.:.<./.[.}.|.1.2.3.2.1.|.}.[./.<.:.;.=.$._.z Y N V N K A r l i c 7 } ;+          ",
"          g v : | S c i l s '.K N V P X B ..@.%.=.).!.~.{.].^./././.^.].{.~.!.).=.%.@...B X P V N K '.s l i c S | >+,+          ",
"            w ! < 5 8 d j l s A E *.U T M E A s @.$.&.=.-.;.>.,.,.,.>.;.-.=.&.$.@.s A E M T U *.E A s l j d 8 5 < w             ",
"              F ~ < 6 8 d j l r J E +.P V P L E ` u q @.#.$.%.%.&.%.%.$.#.@.q u ` E L P V P +.E J r l j d 8 6 < *+              ",
"              x Q ~ [ 6 8 d i l q Z C K N T U P M K D ` z  ...s s s .. .z ` D K M P U T N K C Z q l i d 8 6 [ '+x               ",
"                G W ~ [ 6 8 c i k p t A D L N T V T P M L X K Y E Y K X L M P T V T N L D A t p k i c 8 6 [ )+!+                ",
"                  G Q ~ < 5 S c e j l q u A D K M N T U V U T T T T T U V U T N M K D A u q l j e c S 5 < '+!+                  ",
"                    x F ~ < | 7 b d i k I q u J B E K L M N N O P O N N M L K E B J u q I k i d b 7 | < *+x                     ",
"                        w 9 : } 6 8 c d i k l q r u z A B C D E E E D C B A z u r q l k i d c 8 6 } >+w                         ",
"                          g (.{ < | 7 8 c d i j k l p q r s t t u t t s r q p l k j i d c 8 7 | < ;+,+                          ",
"                              4.% : [ | 6 8 b c d e i j k k l l l l l k k j i e d c b 8 6 | [ v 4.                              ",
"                                3 k.w.: < | 6 7 8 b c c d d e e e e e d d c c b 8 7 6 | < -+k.3                                 ",
"                                    / F.N.{ < [ | 5 6 7 7 8 8 8 8 8 8 8 7 7 6 5 | [ < =+F./                                     ",
"                                          ^ Z. +{ : < [ } } | | | | | } } [ < : &+*+^                                           ",
"                                                . + k.h ++@+* #+#+* @+++$+k.+ %+                                                "};
