/* XPM */
static char * purple0_xpm[] = {
"64 64 157 2",
"  	c #FF00FF",
". 	c #FB61FA",
"+ 	c #F190F6",
"@ 	c #E6A0F6",
"# 	c #DCA3F7",
"$ 	c #D39FF7",
"% 	c #CE97F6",
"& 	c #CA90F6",
"* 	c #C88BF5",
"= 	c #CD97F7",
"- 	c #F090F6",
"; 	c #F582F7",
"> 	c #E4A0F6",
", 	c #D29EF7",
"' 	c #C88AF4",
") 	c #C788F4",
"! 	c #C787F4",
"~ 	c #C686F4",
"{ 	c #D29DF7",
"] 	c #FC55FB",
"^ 	c #EA9CF5",
"/ 	c #C685F3",
"( 	c #C583F3",
"_ 	c #C582F3",
": 	c #C481F3",
"< 	c #E99BF5",
"[ 	c #FC5CFA",
"} 	c #CC96F6",
"| 	c #C480F2",
"1 	c #C37EF2",
"2 	c #C37DF2",
"3 	c #CC94F6",
"4 	c #EB9AF5",
"5 	c #CF9AF7",
"6 	c #C27CF2",
"7 	c #C27BF1",
"8 	c #C179F1",
"9 	c #C178F1",
"0 	c #CE99F7",
"a 	c #EA9AF6",
"b 	c #F67FF7",
"c 	c #DAA3F7",
"d 	c #C177F1",
"e 	c #C076F0",
"f 	c #C074F0",
"g 	c #BF73F0",
"h 	c #BF72F0",
"i 	c #DAA2F7",
"j 	c #ED98F5",
"k 	c #BE70EF",
"l 	c #BE6FEF",
"m 	c #BD6EEF",
"n 	c #BD6DEF",
"o 	c #EC97F5",
"p 	c #FD40FD",
"q 	c #E5A0F6",
"r 	c #BC6AEE",
"s 	c #BC69EE",
"t 	c #BB67EE",
"u 	c #BB66ED",
"v 	c #E49FF6",
"w 	c #FB5DFA",
"x 	c #E0A3F6",
"y 	c #BA64ED",
"z 	c #B962ED",
"A 	c #B960EC",
"B 	c #E0A2F6",
"C 	c #FB5EFA",
"D 	c #DFA3F6",
"E 	c #BA63ED",
"F 	c #DEA3F7",
"G 	c #BC6BEE",
"H 	c #DFA2F6",
"I 	c #C88BF4",
"J 	c #C98CF5",
"K 	c #CC95F6",
"L 	c #CA8EF5",
"M 	c #CB92F6",
"N 	c #CC93F6",
"O 	c #CD96F6",
"P 	c #D9A2F7",
"Q 	c #CF99F7",
"R 	c #D09DF8",
"S 	c #D19EF8",
"T 	c #D2A0F8",
"U 	c #D2A1F9",
"V 	c #EA99F5",
"W 	c #C98DF5",
"X 	c #CE97F7",
"Y 	c #D4A5F9",
"Z 	c #D5A7FA",
"` 	c #D7ABFA",
" .	c #D8ADFB",
"..	c #D8AEFB",
"+.	c #CA90F5",
"@.	c #D09CF8",
"#.	c #D7ACFA",
"$.	c #DAB1FB",
"%.	c #DCB5FC",
"&.	c #DDB7FC",
"*.	c #DFBBFD",
"=.	c #DFBCFD",
"-.	c #E59FF6",
";.	c #CE98F7",
">.	c #D19FF8",
",.	c #D5A6F9",
"'.	c #DBB3FC",
").	c #DEB9FD",
"!.	c #E0BEFE",
"~.	c #E3C3FE",
"{.	c #E5C7FF",
"].	c #E6CAFF",
"^.	c #E7CCFF",
"/.	c #CB93F6",
"(.	c #D6A8FA",
"_.	c #E1C0FE",
":.	c #E8CDFF",
"<.	c #ECD4FF",
"[.	c #EED8FF",
"}.	c #F0DCFF",
"|.	c #F1DEFF",
"1.	c #F2DFFF",
"2.	c #E4C5FF",
"3.	c #E9CEFF",
"4.	c #EDD7FF",
"5.	c #F5E6FF",
"6.	c #F8EBFF",
"7.	c #FBF0FF",
"8.	c #FDF3FF",
"9.	c #FDF4FF",
"0.	c #DBB4FC",
"a.	c #E6C9FF",
"b.	c #F7E8FF",
"c.	c #FCF2FF",
"d.	c #FFFBFF",
"e.	c #FFFFFF",
"f.	c #EDD6FF",
"g.	c #F3E3FF",
"h.	c #FAEFFF",
"i.	c #FFFCFF",
"j.	c #E3A0F6",
"k.	c #F4E4FF",
"l.	c #D09CF7",
"m.	c #F08FF6",
"n.	c #D19DF7",
"o.	c #C88DF5",
"p.	c #DAA1F7",
"q.	c #D09AF7",
"r.	c #E29FF6",
"s.	c #F482F7",
"t.	c #D19CF7",
"u.	c #E89BF5",
"v.	c #CA92F6",
"w.	c #FB5CFA",
"x.	c #D8A1F7",
"y.	c #CB94F6",
"z.	c #DDA2F6",
"                                                . + @ # $ % & * * & = $ # @ - .                                                 ",
"                                          ; > , ' ) ) ! ! ~ ~ ~ ~ ~ ~ ~ ! ! ) ) { > ;                                           ",
"                                    ] ^ $ ' ) ! ~ / ( ( _ _ _ : : : _ _ _ ( ( / ~ ! ) , < ]                                     ",
"                                [ @ } ) ! ~ / ( _ : | 1 1 2 2 2 2 2 2 2 1 1 | : _ ( / ~ ! 3 @ [                                 ",
"                              4 5 ) ! / ( _ | 1 2 6 7 8 8 9 9 9 9 9 9 9 8 8 7 6 2 1 | _ ( / ! 0 a                               ",
"                          b c ' ! / ( : | 2 6 7 9 d e f f g g g h g g g f f e d 9 7 6 2 | : ( / ! i b                           ",
"                        j = ) ~ ( : | 2 7 8 d e g h k l m m n n n n n m m l k h g e d 8 7 2 | : ( ~ } o                         ",
"                    p q ' ! / _ | 2 7 9 d f h l m n r s t t u u u u u t t s r n m l h f d 9 7 2 | _ / ! v p                     ",
"                  w x ' ! / : 1 6 8 d f h l n r t u y z A A z z z z z A A z y u t r n l h f d 8 6 1 : / ! B C                   ",
"                w D ' ~ ( : 2 7 9 f h l n s u E A z y u t s s r r r s s t u y z A E u s n l h f 9 7 2 : ( ~ F C                 ",
"              p x ' ~ ( | 2 8 d g k n r u E z y t s G n m l k k h k k l m n G s t y z E u r n k g d 8 2 | ( ~ H p               ",
"              q ' ~ ( | 2 8 e g l G t E A y t G m k g f d 9 9 8 8 8 9 9 d f g k m G t y A E t G l g e 8 2 | ( ~ v               ",
"            j ' ! ( | 2 8 e h m r u z E t G m h f 9 7 2 1 | : _ _ _ : | 1 2 7 9 f h m G t E z u r m h e 8 2 | ( ! o             ",
"          b = ! / : 2 8 e h m s y A y r m h e 8 2 | ( ~ ! ' I J J J I ' ! ~ ( | 2 8 e h m r y A y s m h e 8 2 : / K b           ",
"          c ) / : 2 8 e h m s y z u G l f 9 2 : / ) J L M N 3 O O O 3 N M L J ) / : 2 9 f l G u z y s m h e 8 2 : / P           ",
"        4 ' ~ _ 1 7 d g m s y z t n k e 7 | / ' L M O Q R S T U U U T S R Q O M L ' / | 7 e k n t z y s m g d 7 1 _ ~ V         ",
"      [ 5 ! ( | 6 9 g l r y z t n h d 2 _ ! W M X R T Y Z `  ....... .` Z Y T R X M W ! _ 2 d h n t z y r l g 9 6 | ( % [       ",
"      @ ) / : 2 8 f k G u A u n h 9 2 ( ' +.O @.U Z #.$.%.&.*.=.=.=.*.&.%.$.#.Z U @.O +.' ( 2 9 h n u A u G k f 8 2 : / -.      ",
"    ] } ! ( | 7 d h n t z y G k d 2 / I M ;.>.,. .'.).!.~.{.].^.^.^.].{.~.!.).'. .,.>.;.M I / 2 d k G y z t n h d 7 | ( /.]     ",
"    ^ ) / : 2 9 f l r E E r l e 2 ( I M Q U (.$.)._.{.:.<.[.}.|.1.|.}.[.<.:.{._.).$.(.U Q M I ( 2 e l r E E r l f 9 2 : / <     ",
"    $ ! ( | 7 d h n u A t m f 7 _ ' M Q U ` '.=.2.3.4.1.5.6.7.8.9.8.7.6.5.1.4.3.2.=.'.` U Q M ' _ 7 f m t A u n h d 7 | ( {     ",
"  ; ' ~ _ 2 8 f l s E y G h 9 | ! +.;.U ` 0.!.a.<.|.b.c.d.e.e.e.e.e.e.e.d.c.b.|.<.a.!.0.` U ;.+.! | 9 h G y E s l f 8 2 _ ~ ;   ",
"  > ) / | 6 d h n u z t m e 2 / W O >.(.'.!.].f.g.h.i.e.e.e.e.e.e.e.e.e.e.e.i.h.g.f.].!.'.(.>.O W / 2 e m t z u n h d 6 | / j.  ",
"  , ! ( 1 7 e l r E y G h 8 : ' M @.,.$.=.a.f.k.8.e.e.e.e.e.e.e.e.e.e.e.e.e.e.e.8.k.f.a.=.$.,.@.M ' : 8 h G y E r l e 7 1 ( l.  ",
". ' ~ _ 2 9 g m t A t m f 2 / L X U  .).2.<.g.8.e.e.e.e.e.e.e.e.e.e.e.e.e.e.e.e.e.8.g.<.2.). .U X L / 2 f m t A t m g 9 2 _ ~ . ",
"+ ) / : 6 d h n u z s k 9 | ) M R Z '._.3.|.h.e.e.e.e.e.e.e.e.e.e.e.e.e.e.e.e.e.e.e.h.|.3._.'.Z R M ) | 9 k s z u n h d 6 : / m.",
"@ ) ( | 7 e k r y y G g 7 ( J O T #.).{.4.b.i.e.e.e.e.e.e.e.e.e.e.e.e.e.e.e.e.e.e.e.i.b.4.{.).#.T O J ( 7 g G y y r k e 7 | ( -.",
"# ! ( 1 8 f l s z u n f 2 ~ L Q Y $.!.:.1.c.e.e.e.e.e.e.e.e.e.e.e.e.e.e.e.e.e.e.e.e.e.c.1.:.!.$.Y Q L ~ 2 f n u z s l f 8 1 ( i ",
"$ ! _ 1 8 f m t A t m d 1 ! M R Z %.~.<.5.d.e.e.e.e.e.e.e.e.e.e.e.e.e.e.e.e.e.e.e.e.e.d.5.<.~.%.Z R M ! 1 d m t A t m f 8 1 _ n.",
"% ~ _ 2 9 g m t A s l 9 | ' N S ` &.{.[.6.e.e.e.e.e.e.e.e.e.e.e.e.e.e.e.e.e.e.e.e.e.e.e.6.[.{.&.` S N ' | 9 l s A t m g 9 2 _ K ",
"& ~ _ 2 9 g n u z s k 9 : I 3 T  .*.].}.7.e.e.e.e.e.e.e.e.e.e.e.e.e.e.e.e.e.e.e.e.e.e.e.7.}.].*. .T 3 I : 9 k s z u n g 9 2 _ o.",
"* ~ : 2 9 g n u z r k 8 _ J O U ..=.^.|.8.e.e.e.e.e.e.e.e.e.e.e.e.e.e.e.e.e.e.e.e.e.e.e.8.|.^.=...U O J _ 8 k r z u n g 9 2 : ~ ",
"* ~ : 2 9 h n u z r h 8 _ J O U ..=.^.1.9.e.e.e.e.e.e.e.e.e.e.e.e.e.e.e.e.e.e.e.e.e.e.e.9.1.^.=...U O J _ 8 h r z u n h 9 2 : ~ ",
"& ~ : 2 9 g n u z r k 8 _ J O U ..=.^.|.8.e.e.e.e.e.e.e.e.e.e.e.e.e.e.e.e.e.e.e.e.e.e.e.8.|.^.=...U O J _ 8 k r z u n g 9 2 : o.",
"= ~ _ 2 9 g n u z s k 9 : I 3 T  .*.].}.7.e.e.e.e.e.e.e.e.e.e.e.e.e.e.e.e.e.e.e.e.e.e.e.7.}.].*. .T 3 I : 9 k s z u n g 9 2 _ K ",
"$ ~ _ 2 9 g m t A s l 9 | ' N S ` &.{.[.6.e.e.e.e.e.e.e.e.e.e.e.e.e.e.e.e.e.e.e.e.e.e.e.6.[.{.&.` S N ' | 9 l s A t m g 9 2 _ n.",
"# ! _ 1 8 f m t A t m d 1 ! M R Z %.~.<.5.d.e.e.e.e.e.e.e.e.e.e.e.e.e.e.e.e.e.e.e.e.e.d.5.<.~.%.Z R M ! 1 d m t A t m f 8 1 _ p.",
"@ ! ( 1 8 f l s z u n f 2 ~ L Q Y $.!.:.1.c.e.e.e.e.e.e.e.e.e.e.e.e.e.e.e.e.e.e.e.e.e.c.1.:.!.$.Y Q L ~ 2 f n u z s l f 8 1 ( -.",
"- ) ( | 7 e k r y y G g 7 ( J O T #.).{.4.b.i.e.e.e.e.e.e.e.e.e.e.e.e.e.e.e.e.e.e.e.i.b.4.{.).#.T O J ( 7 g G y y r k e 7 | ( m.",
". ) / : 6 d h n u z s k 9 | ) M R Z '._.3.|.h.e.e.e.e.e.e.e.e.e.e.e.e.e.e.e.e.e.e.e.h.|.3._.'.Z R M ) | 9 k s z u n h d 6 : / . ",
"  { ~ _ 2 9 g m t A t m f 2 / L X U  .).2.<.g.8.e.e.e.e.e.e.e.e.e.e.e.e.e.e.e.e.e.8.g.<.2.). .U X L / 2 f m t A t m g 9 2 _ q.  ",
"  > ! ( 1 7 e l r E y G h 8 : ' M @.,.$.=.a.f.k.8.e.e.e.e.e.e.e.e.e.e.e.e.e.e.e.8.k.f.a.=.$.,.@.M ' : 8 h G y E r l e 7 1 ( r.  ",
"  ; ) / | 6 d h n u z t m e 2 / W O >.(.'.!.].f.g.h.i.e.e.e.e.e.e.e.e.e.e.e.i.h.g.f.].!.'.(.>.O W / 2 e m t z u n h d 6 | / s.  ",
"    , ~ _ 2 8 f l s E y G h 9 | ! +.;.U ` 0.!.a.<.|.b.c.d.e.e.e.e.e.e.e.d.c.b.|.<.a.!.0.` U ;.+.! | 9 h G y E s l f 8 2 _ t.    ",
"    < ! ( | 7 d h n u A t m f 7 _ ' M Q U ` '.=.2.3.4.1.5.6.7.8.9.8.7.6.5.1.4.3.2.=.'.` U Q M ' _ 7 f m t A u n h d 7 | ( u.    ",
"    ] 3 / : 2 9 f l r E E r l e 2 ( I M Q U (.$.)._.{.:.<.[.}.|.1.|.}.[.<.:.{._.).$.(.U Q M I ( 2 e l r E E r l f 9 2 : v.]     ",
"      @ ! ( | 7 d h n t z y G k d 2 / I M ;.>.,. .'.).!.~.{.].^.^.^.].{.~.!.).'. .,.>.;.M I / 2 d k G y z t n h d 7 | ( -.      ",
"      [ 0 / : 2 8 f k G u A u n h 9 2 ( ' +.O @.U Z #.$.%.&.*.=.=.=.*.&.%.$.#.Z U @.O +.' ( 2 9 h n u A u G k f 8 2 : } w.      ",
"        a ! ( | 6 9 g l r y z t n h d 2 _ ! W M X R T Y Z `  ....... .` Z Y T R X M W ! _ 2 d h n t z y r l g 9 6 | ( V         ",
"          i ~ _ 1 7 d g m s y z t n k e 7 | / ' L M O Q R S T U U U T S R Q O M L ' / | 7 e k n t z y s m g d 7 1 _ x.          ",
"          b } / : 2 8 e h m s y z u G l f 9 2 : / ) J L M N 3 O O O 3 N M L J ) / : 2 9 f l G u z y s m h e 8 2 : y.b           ",
"            o ! / : 2 8 e h m s y A y r m h e 8 2 | ( ~ ! ' I J J J I ' ! ~ ( | 2 8 e h m r y A y s m h e 8 2 : / o             ",
"              v ! ( | 2 8 e h m r u z E t G m h f 9 7 2 1 | : _ _ _ : | 1 2 7 9 f h m G t E z u r m h e 8 2 | ( v               ",
"              p B ~ ( | 2 8 e g l G t E A y t G m k g f d 9 9 8 8 8 9 9 d f g k m G t y A E t G l g e 8 2 | ( H p               ",
"                C F ~ ( | 2 8 d g k n r u E z y t s G n m l k k h k k l m n G s t y z E u r n k g d 8 2 | ( z.C                 ",
"                  C H ~ ( : 2 7 9 f h l n s u E A z y u t s s r r r s s t u y z A E u s n l h f 9 7 2 : ( H C                   ",
"                    p v ! / : 1 6 8 d f h l n r t u y z A A z z z z z A A z y u t r n l h f d 8 6 1 : / v p                     ",
"                        o K / _ | 2 7 9 d f h l m n r s t t u u u u u t t s r n m l h f d 9 7 2 | _ y.o                         ",
"                          b P ~ ( : | 2 7 8 d e g h k l m m n n n n n m m l k h g e d 8 7 2 | : ( x.b                           ",
"                              V % / ( : | 2 6 7 9 d e f f g g g h g g g f f e d 9 7 6 2 | : ( } V                               ",
"                                [ -././ ( _ | 1 2 6 7 8 8 9 9 9 9 9 9 9 8 8 7 6 2 1 | _ ( v.-.w.                                ",
"                                    ] < { ~ / ( _ : | 1 1 2 2 2 2 2 2 2 1 1 | : _ ( / t.u.]                                     ",
"                                          ; j.l.~ / ( ( _ _ _ : : : _ _ _ ( ( / q.r.s.                                          ",
"                                                . m.-.i n.K o.~ ~ o.K n.p.-.m..                                                 "};
