/* XPM */
static char * purple6_xpm[] = {
"64 64 268 2",
"  	c #FF00FF",
". 	c #FC65FA",
"+ 	c #F59AF6",
"@ 	c #EBB1F8",
"# 	c #E1BEFC",
"$ 	c #D8C2FF",
"% 	c #D1C3FF",
"& 	c #CCC3FF",
"* 	c #C9C2FF",
"= 	c #CBC3FF",
"- 	c #D7C2FF",
"; 	c #E1BDFC",
"> 	c #F49AF6",
", 	c #F989F7",
"' 	c #EAB4F8",
") 	c #D6C2FF",
"! 	c #CAC1FF",
"~ 	c #C9C1FF",
"{ 	c #C8C1FF",
"] 	c #C8C0FF",
"^ 	c #C7C0FF",
"/ 	c #F889F7",
"( 	c #FD57FB",
"_ 	c #EFABF7",
": 	c #C7BFFF",
"< 	c #C6BFFF",
"[ 	c #C6BEFF",
"} 	c #C5BEFF",
"| 	c #EEABF7",
"1 	c #FD5EFA",
"2 	c #CFC4FF",
"3 	c #C6BDFF",
"4 	c #C5BDFF",
"5 	c #C4BCFF",
"6 	c #C3BCFF",
"7 	c #CEC3FF",
"8 	c #FD5FFA",
"9 	c #F0A8F7",
"0 	c #D2C3FF",
"a 	c #C8BFFF",
"b 	c #C3BAFF",
"c 	c #C2B9FF",
"d 	c #C1B9FF",
"e 	c #D2C2FF",
"f 	c #F985F7",
"g 	c #E0BFFC",
"h 	c #C4BAFF",
"i 	c #C1B8FF",
"j 	c #C0B7FF",
"k 	c #BFB7FF",
"l 	c #C0B6FF",
"m 	c #DFBEFC",
"n 	c #F885F7",
"o 	c #F1A5F7",
"p 	c #C2B8FF",
"q 	c #BFB6FF",
"r 	c #BFB5FF",
"s 	c #BEB4FF",
"t 	c #BDB4FF",
"u 	c #CFC3FF",
"v 	c #FE41FD",
"w 	c #EBB3F8",
"x 	c #BEB5FF",
"y 	c #BDB2FF",
"z 	c #BCB2FF",
"A 	c #BCB1FF",
"B 	c #BBB1FF",
"C 	c #BCB0FF",
"D 	c #EAB3F8",
"E 	c #FD60FA",
"F 	c #E6B9FA",
"G 	c #BAB0FF",
"H 	c #BBAFFF",
"I 	c #BAAFFF",
"J 	c #B9AEFF",
"K 	c #B8AEFF",
"L 	c #FD61FA",
"M 	c #E5BBFA",
"N 	c #B8ADFF",
"O 	c #B7ACFF",
"P 	c #B6ACFF",
"Q 	c #B7AAFF",
"R 	c #B6AAFF",
"S 	c #B7A9FF",
"T 	c #E4BAFA",
"U 	c #B6A9FF",
"V 	c #B5A8FF",
"W 	c #B5A7FF",
"X 	c #B4A7FF",
"Y 	c #B4A6FF",
"Z 	c #B4A8FF",
"` 	c #B3A5FF",
" .	c #B2A5FF",
"..	c #B2A3FF",
"+.	c #B1A2FF",
"@.	c #B1A1FF",
"#.	c #B0A1FF",
"$.	c #B9ADFF",
"%.	c #AFA0FF",
"&.	c #AF9FFF",
"*.	c #AE9EFF",
"=.	c #AD9EFF",
"-.	c #AE9CFF",
";.	c #AD9CFF",
">.	c #F0A5F7",
",.	c #BBB0FF",
"'.	c #B8ACFF",
").	c #AC9BFF",
"!.	c #AB9AFF",
"~.	c #AA99FF",
"{.	c #AB98FF",
"].	c #AA98FF",
"^.	c #CFC2FF",
"/.	c #AD9BFF",
"(.	c #AB99FF",
"_.	c #A999FF",
":.	c #AA9BFF",
"<.	c #AA9EFF",
"[.	c #AA9FFF",
"}.	c #ABA0FF",
"|.	c #AFA1FF",
"1.	c #AA9DFF",
"2.	c #ABA4FF",
"3.	c #ACA6FF",
"4.	c #ABA9FF",
"5.	c #ACABFF",
"6.	c #ACACFF",
"7.	c #AA97FF",
"8.	c #ABA1FF",
"9.	c #ACAFFF",
"0.	c #ADB3FF",
"a.	c #ADB5FF",
"b.	c #AEB7FF",
"c.	c #AEB9FF",
"d.	c #ADBAFF",
"e.	c #AA9AFF",
"f.	c #ADB2FF",
"g.	c #AEBCFF",
"h.	c #AEC1FF",
"i.	c #AFC4FF",
"j.	c #AEC6FF",
"k.	c #AFC8FF",
"l.	c #AFC9FF",
"m.	c #EAB1F8",
"n.	c #ABA2FF",
"o.	c #ACA9FF",
"p.	c #ACB0FF",
"q.	c #AEBEFF",
"r.	c #BBC7F8",
"s.	c #CACAF1",
"t.	c #D5CAEC",
"u.	c #DCCBE9",
"v.	c #E0CDE9",
"w.	c #E2CDE8",
"x.	c #CEC2FF",
"y.	c #FD58FB",
"z.	c #ACB4FF",
"A.	c #C4C7F3",
"B.	c #D7CAEA",
"C.	c #E2CEE9",
"D.	c #E1D5F0",
"E.	c #E1D9F3",
"F.	c #E1DEF9",
"G.	c #E1E0FB",
"H.	c #EEAAF7",
"I.	c #ACADFF",
"J.	c #BEC6F7",
"K.	c #D5C9EB",
"L.	c #E2CFEA",
"M.	c #E1D8F2",
"N.	c #E0E8FF",
"O.	c #E0EEFF",
"P.	c #DFF3FF",
"Q.	c #E0F3FF",
"R.	c #D6C1FF",
"S.	c #AEBFFF",
"T.	c #C7C5F1",
"U.	c #DECAE7",
"V.	c #E0EAFF",
"W.	c #E3F4FF",
"X.	c #E5F4FF",
"Y.	c #E8F5FF",
"Z.	c #E9F5FF",
"`.	c #CAC4EF",
" +	c #E1CAE6",
".+	c #E1D7F2",
"++	c #E1E5FF",
"@+	c #DFF2FF",
"#+	c #ECF6FF",
"$+	c #EFF7FF",
"%+	c #F2F8FF",
"&+	c #F4F8FF",
"*+	c #F4F8FE",
"=+	c #E9B4F9",
"-+	c #C7C4F1",
";+	c #E1C9E5",
">+	c #E0E6FF",
",+	c #F1F7FF",
"'+	c #F7F9FD",
")+	c #FAFAFA",
"!+	c #FCFCFC",
"~+	c #FDFDFD",
"{+	c #FFFFFF",
"]+	c #D5C1FF",
"^+	c #BEC1F6",
"/+	c #DEC7E5",
"(+	c #E6F5FF",
"_+	c #EDF6FF",
":+	c #FBFBFB",
"<+	c #D6C3E8",
"[+	c #F5F9FE",
"}+	c #C5BFF1",
"|+	c #E3C7E3",
"1+	c #D8C0E4",
"2+	c #E0BDFC",
"3+	c #BBBEF7",
"4+	c #E3C3E0",
"5+	c #CCBEEC",
"6+	c #D6BCE4",
"7+	c #E2CAE6",
"8+	c #DEBCDE",
"9+	c #E3BCDB",
"0+	c #E5BBD8",
"a+	c #E3B9D9",
"b+	c #DFB8DB",
"c+	c #D7B7E1",
"d+	c #CCB5E9",
"e+	c #E4BDDA",
"f+	c #BCB4F5",
"g+	c #E6B6D5",
"h+	c #DAB3DC",
"i+	c #E4BFDC",
"j+	c #C6B1ED",
"k+	c #E3C5E2",
"l+	c #D8B2DE",
"m+	c #E5BCD9",
"n+	c #E2C9E5",
"o+	c #BDB0F3",
"p+	c #E2B1D4",
"q+	c #C9AFEA",
"r+	c #E5B1D2",
"s+	c #CCAEE7",
"t+	c #E6B0D1",
"u+	c #C8ADEA",
"v+	c #E3AFD3",
"w+	c #CDC2FF",
"x+	c #BEACF2",
"y+	c #D9ACDA",
"z+	c #E7AFCF",
"A+	c #C6ACEB",
"B+	c #DCABD8",
"C+	c #E8ADCD",
"D+	c #E6B3D2",
"E+	c #E5B8D7",
"F+	c #D1C1FF",
"G+	c #BBACF4",
"H+	c #CDABE5",
"I+	c #D9AAD9",
"J+	c #E2AAD0",
"K+	c #E7AACC",
"L+	c #E8AACB",
"M+	c #EFA8F7",
"N+	c #DEBEFC",
"O+	c #F886F7",
"P+	c #E9B3F8",
"Q+	c #E5B8FA",
"R+	c #FE42FD",
"S+	c #E3BAFA",
"                                                . + @ # $ % & * * = % - ; @ > .                                                 ",
"                                          , ' ) ! ~ { ] ] ^ ^ ^ ^ ^ ^ ^ ] ] { ~ ) ' /                                           ",
"                                    ( _ - ~ ~ ] ^ : : < [ [ } } } } } [ [ < : : ^ ] ~ ) | (                                     ",
"                                1 @ 2 ~ ] ^ : < [ 3 4 4 5 5 5 6 6 6 5 5 5 4 4 3 [ < : ^ ] 7 @ 8                                 ",
"                              9 0 ~ ] a : [ 3 4 5 6 b b c c c d d d c c c b b 6 5 4 3 [ : a ] e 9                               ",
"                          f g ~ ] a < } 4 5 h b c d i i j j k k l k k j j i i d c b h 5 4 } < a ] m n                           ",
"                        o % ~ ^ : } 4 5 b c p i j l q r r s s t t t s s r r q l j i p c b 5 4 } : ^ u o                         ",
"                    v w ! ] : [ 4 5 b c i j l r x t y z A B B C C C B B A z y t x r l j i c b 5 4 [ : ] D v                     ",
"                  E F ~ ] : } 4 6 c p j q r t y A C G H I J J K K K J J I H G C A y t r q j p c 6 4 } : ] F L                   ",
"                E M ~ ^ : 3 5 b d i l r t z B G I J N O P Q R S S S R Q P O N J I G B z t r l i d b 5 3 : ^ T L                 ",
"              v F ~ ^ < 3 5 b p j q s y B H J N O R U V W X Y Y Y Y Y X W V U R O N J H B y s q j p b 5 3 < ^ F v               ",
"              w ~ ^ < 4 6 c i k r t B G J N Q U Z X `  ...+.+.@.#.@.+.+... .` X Z U Q N J G B t r k i c 6 4 < ^ D               ",
"            o ! ] : 3 6 c i l x y C I $.Q U W Y ..+.#.%.&.*.=.-.;.-.=.*.&.%.#.+...Y W U Q $.I C y x l i c 6 3 : ] >.            ",
"          f % ] : 3 5 c i l s z ,.J '.S Z Y ..@.%.*.;.).!.~.{.].].].{.~.!.).;.*.%.@...Y Z S '.J ,.z s l i c 5 3 : ^.n           ",
"          g ~ : } 5 b i l s z ,.J O U X  .+.%.=./.(.]._.:.<.[.}.}.}.[.<.:._.].(./.=.%.+. .X U O J ,.z s l i b 5 } : m           ",
"        9 ~ ^ [ 4 b p k x z ,.J P V Y ..|.*./.~.].1.}.2.3.4.5.6.6.6.5.4.3.2.}.1.].~./.*.|...Y V P J ,.z x k p b 4 [ ^ 9         ",
"      1 0 ] : 4 6 d j r y ,.J P V Y +.%.;.!.7.1.8.3.5.9.0.a.b.c.d.c.b.a.0.9.5.3.8.1.7.!.;.%.+.Y V P J ,.y r j d 6 4 : e 8       ",
"      @ ~ a } 5 c i q t C J O V Y +.&.;.~.e.}.3.6.f.b.g.h.i.j.k.l.k.j.i.h.g.b.f.6.3.}.e.~.;.&.+.Y V O J C t q i c 5 } a m.      ",
"    ( 2 ] < 4 b p l s B I '.U Y +.&./.{.:.n.o.p.b.q.i.r.s.t.u.v.w.v.u.t.s.r.i.q.b.p.o.n.:.{./.&.+.Y U '.I B s l p b 4 < x.y.    ",
"    _ ~ a } 5 c j r y G $.S X ..%.;.{.1.2.6.z.g.i.A.B.C.D.E.F.G.G.G.F.E.D.C.B.A.i.g.z.6.2.1.{.;.%...X S $.G y r j c 5 } a H.    ",
"    - ] : 4 b i q t B J Q Z  .|.;.~.:.2.I.a.q.J.K.L.M.G.N.O.P.Q.Q.Q.P.O.N.G.M.L.K.J.q.a.I.2.:.~.;.|. .Z Q J B t q i b 4 : R.    ",
"  , ~ ^ [ 5 c j r z H N U Y +.*.!.e.n.6.a.S.T.U.D.G.V.Q.W.X.Y.Z.Z.Z.Y.X.W.Q.V.G.D.U.T.S.a.6.n.e.!.*.+.Y U N H z r j c 5 [ ^ /   ",
"  ' ~ : 3 h p l t B J Q W ..%./.7.}.o.z.q.`. +.+++@+W.Y.#+$+%+&+*+&+%+$+#+Y.W.@+++.+ +`.q.z.o.}.7./.%...W Q J B t l p h 3 : =+  ",
"  ) ] < 4 b i r y G N U Y @.=.~.1.3.p.g.-+;+.+>+Q.X.#+,+'+)+!+~+{+~+!+)+'+,+#+X.Q.>+.+;+-+g.p.3.1.~.=.@.Y U N G y r i b 4 < ]+  ",
". ! ^ [ 5 c j x A I O Z ..%./.].8.6.b.^+/+D.++Q.(+_+*+:+{+{+{+{+{+{+{+{+{+:+*+_+(+Q.++D./+^+b.6.8.]./.%...Z O I A x j c 5 [ ^ . ",
"+ ~ : 3 6 d l t C J R X +.*.(.1.3.f.q.<+L.G.@+X._+[+!+{+{+{+{+{+{+{+{+{+{+{+!+[+_+X.@+G.L.<+q.f.3.1.(.*.+.X R J C t l d 6 3 : > ",
"@ { : 4 b i q y G N U ` #.;.].}.5.b.}+|+M.V.W.#+*+!+{+{+{+{+{+{+{+{+{+{+{+{+{+!+*+#+W.V.M.|+}+b.5.}.].;.#.` U N G y q i b 4 : m.",
"# ] < 4 b i r z H O V  .%.)._.2.9.g.1+C.G.Q.Y.,+:+{+{+{+{+{+{+{+{+{+{+{+{+{+{+{+:+,+Y.Q.G.C.1+g.9.2._.).%. .V O H z r i b 4 < 2+",
"$ ] [ 5 c j r A I P W ..&.!.:.3.0.3+4+D.N.W.#+'+{+{+{+{+{+{+{+{+{+{+{+{+{+{+{+{+{+'+#+W.N.D.4+3+0.3.:.!.&...W P I A r j c 5 [ R.",
"% ^ [ 5 c j s B J Q X +.*.~.<.4.a.5+|+E.O.X.$+)+{+{+{+{+{+{+{+{+{+{+{+{+{+{+{+{+{+)+$+X.O.E.|+5+a.4.<.~.*.+.X Q J B s j c 5 [ ^.",
"& ^ } 5 c k s B J R Y +.=.{.[.5.b.6+7+F.P.Y.%+!+{+{+{+{+{+{+{+{+{+{+{+{+{+{+{+{+{+!+%+Y.P.F.7+6+b.5.[.{.=.+.Y R J B s k c 5 } ! ",
"* ^ } 6 d k t C K S Y @.-.].}.6.c.8+w.G.Q.Z.&+~+{+{+{+{+{+{+{+{+{+{+{+{+{+{+{+{+{+~+&+Z.Q.G.w.8+c.6.}.].-.@.Y S K C t k d 6 } ^ ",
"* ^ } 6 d l t C K S Y #.;.].}.6.d.9+w.G.Q.Z.*+{+{+{+{+{+{+{+{+{+{+{+{+{+{+{+{+{+{+{+*+Z.Q.G.w.9+d.6.}.].;.#.Y S K C t l d 6 } ^ ",
"= ^ } 6 d k t C K S Y @.-.].}.6.c.0+w.G.Q.Z.&+~+{+{+{+{+{+{+{+{+{+{+{+{+{+{+{+{+{+~+&+Z.Q.G.w.0+c.6.}.].-.@.Y S K C t k d 6 } ! ",
"% ^ } 5 c k s B J R Y +.=.{.[.5.b.a+7+F.P.Y.%+!+{+{+{+{+{+{+{+{+{+{+{+{+{+{+{+{+{+!+%+Y.P.F.7+a+b.5.[.{.=.+.Y R J B s k c 5 } ^.",
"- ^ [ 5 c j s B J Q X +.*.~.<.4.a.b+|+E.O.X.$+)+{+{+{+{+{+{+{+{+{+{+{+{+{+{+{+{+{+)+$+X.O.E.|+b+a.4.<.~.*.+.X Q J B s j c 5 [ R.",
"; ] [ 5 c j r A I P W ..&.!.:.3.0.c+4+D.N.W.#+'+{+{+{+{+{+{+{+{+{+{+{+{+{+{+{+{+{+'+#+W.N.D.4+c+0.3.:.!.&...W P I A r j c 5 [ 2+",
"@ ] < 4 b i r z H O V  .%.)._.2.9.d+e+C.G.Q.Y.,+:+{+{+{+{+{+{+{+{+{+{+{+{+{+{+{+:+,+Y.Q.G.C.e+d+9.2._.).%. .V O H z r i b 4 < m.",
"> { : 4 b i q y G N U ` #.;.].}.5.f+g+|+M.V.W.#+*+!+{+{+{+{+{+{+{+{+{+{+{+{+{+!+*+#+W.V.M.|+g+f+5.}.].;.#.` U N G y q i b 4 : > ",
". ~ : 3 6 d l t C J R X +.*.(.1.3.f.h+i+L.G.@+X._+[+!+{+{+{+{+{+{+{+{+{+{+{+!+[+_+X.@+G.L.i+h+f.3.1.(.*.+.X R J C t l d 6 3 : . ",
"  ) ^ [ 5 c j x A I O Z ..%./.].8.6.j+g+k+D.++Q.(+_+*+:+{+{+{+{+{+{+{+{+{+:+*+_+(+Q.++D.k+g+j+6.8.]./.%...Z O I A x j c 5 [ ]+  ",
"  ' ] < 4 b i r y G N U Y @.=.~.1.3.p.l+m+n+.+>+Q.X.#+,+'+)+!+~+{+~+!+)+'+,+#+X.Q.>+.+n+m+l+p.3.1.~.=.@.Y U N G y r i b 4 < =+  ",
"  / ~ : 3 h p l t B J Q W ..%./.7.}.o.o+p+e+7+.+++@+W.Y.#+$+%+&+*+&+%+$+#+Y.W.@+++.+7+e+p+o+o.}.7./.%...W Q J B t l p h 3 : /   ",
"    ) ^ [ 5 c j r z H N U Y +.*.!.e.n.6.q+r+e+n+D.G.V.Q.W.X.Y.Z.Z.Z.Y.X.W.Q.V.G.D.n+e+r+q+6.n.e.!.*.+.Y U N H z r j c 5 [ R.    ",
"    | ] : 4 b i q t B J Q Z  .|.;.~.:.2.I.s+t+m+k+L.M.G.N.O.P.Q.Q.Q.P.O.N.G.M.L.k+m+t+s+I.2.:.~.;.|. .Z Q J B t q i b 4 : H.    ",
"    ( 7 a } 5 c j r y G $.S X ..%.;.{.1.2.6.u+v+g+i+|+C.D.E.F.G.G.G.F.E.D.C.|+i+g+v+u+6.2.1.{.;.%...X S $.G y r j c 5 } w+y.    ",
"      @ ] < 4 b p l s B I '.U Y +.&./.{.:.n.o.x+y+z+g+e+4+|+7+w.w.w.7+|+4+e+g+z+y+x+o.n.:.{./.&.+.Y U '.I B s l p b 4 < m.      ",
"      8 e a } 5 c i q t C J O V Y +.&.;.~.e.}.3.6.A+B+C+D+g+E+0+m+0+E+g+D+C+B+A+6.3.}.e.~.;.&.+.Y V O J C t q i c 5 } F+8       ",
"        9 ] : 4 6 d j r y ,.J P V Y +.%.;.!.7.1.8.3.5.G+H+I+J+K+L+K+J+I+H+G+5.3.8.1.7.!.;.%.+.Y V P J ,.y r j d 6 4 : M+        ",
"          m ^ [ 4 b p k x z ,.J P V Y ..|.*./.~.].1.}.2.3.4.5.6.6.6.5.4.3.2.}.1.].~./.*.|...Y V P J ,.z x k p b 4 [ N+          ",
"          n u : } 5 b i l s z ,.J O U X  .+.%.=./.(.]._.:.<.[.}.}.}.[.<.:._.].(./.=.%.+. .X U O J ,.z s l i b 5 } x.O+          ",
"            o ] : 3 5 c i l s z ,.J '.S Z Y ..@.%.*.;.).!.~.{.].].].{.~.!.).;.*.%.@...Y Z S '.J ,.z s l i c 5 3 : >.            ",
"              D ] : 3 6 c i l x y C I $.Q U W Y ..+.#.%.&.*.=.-.;.-.=.*.&.%.#.+...Y W U Q $.I C y x l i c 6 3 : P+              ",
"              v F ^ < 4 6 c i k r t B G J N Q U Z X `  ...+.+.@.#.@.+.+... .` X Z U Q N J G B t r k i c 6 4 < Q+R+              ",
"                L T ^ < 3 5 b p j q s y B H J N O R U V W X Y Y Y Y Y X W V U R O N J H B y s q j p b 5 3 < S+L                 ",
"                  L F ^ : 3 5 b d i l r t z B G I J N O P Q R S S S R Q P O N J I G B z t r l i d b 5 3 : Q+L                   ",
"                    v D ] : } 4 6 c p j q r t y A C G H I J J K K K J J I H G C A y t r q j p c 6 4 } : P+R+                    ",
"                        >.^.: [ 4 5 b c i j l r x t y z A B B C C C B B A z y t x r l j i c b 5 4 [ x.>.                        ",
"                          n m ^ : } 4 5 b c p i j l q r r s s t t t s s r r q l j i p c b 5 4 } : N+O+                          ",
"                              9 e a < } 4 5 h b c d i i j j k k l k k j j i i d c b h 5 4 } < F+M+                              ",
"                                8 m.x.a : [ 3 4 5 6 b b c c c d d d c c c b b 6 5 4 3 [ : w+m.8                                 ",
"                                    y.H.R.^ : < [ 3 4 4 5 5 5 6 6 6 5 5 5 4 4 3 [ < : R.H.y.                                    ",
"                                          / =+]+^ : : < [ [ } } } } } [ [ < : : ]+=+/                                           ",
"                                                . > m.2+R.^.! ^ ^ ! ^.R.2+m.> .                                                 "};
