/* XPM */
static char * purple4_xpm[] = {
"64 64 267 2",
"  	c #FF00FF",
". 	c #FD64FA",
"+ 	c #F498F6",
"@ 	c #E9ADF7",
"# 	c #DFB6FA",
"$ 	c #D6B8FD",
"% 	c #CFB8FF",
"& 	c #CBB5FF",
"* 	c #C8B3FF",
"= 	c #C7B3FF",
"- 	c #CEB6FF",
"; 	c #D5B8FD",
"> 	c #DEB6FA",
", 	c #FC64FA",
"' 	c #F787F7",
") 	c #E8AFF8",
"! 	c #C7B2FF",
"~ 	c #C7B1FF",
"{ 	c #C6B0FF",
"] 	c #D4B8FE",
"^ 	c #E7AFF8",
"/ 	c #FD57FB",
"( 	c #EDA7F7",
"_ 	c #C8B2FF",
": 	c #C6AFFF",
"< 	c #C5AFFF",
"[ 	c #C5AEFF",
"} 	c #C4AEFF",
"| 	c #FD5EFA",
"1 	c #CEB7FF",
"2 	c #C5B0FF",
"3 	c #C4ACFF",
"4 	c #C3ABFF",
"5 	c #C2ABFF",
"6 	c #CDB6FF",
"7 	c #EEA4F6",
"8 	c #D0B8FF",
"9 	c #C3ACFF",
"0 	c #C3AAFF",
"a 	c #C2AAFF",
"b 	c #C1A9FF",
"c 	c #C1A8FF",
"d 	c #D0B7FE",
"e 	c #F884F7",
"f 	c #DEB7FB",
"g 	c #C0A8FF",
"h 	c #C0A7FE",
"i 	c #BFA5FE",
"j 	c #BFA4FE",
"k 	c #DDB6FB",
"l 	c #F0A2F6",
"m 	c #CEB8FF",
"n 	c #BEA3FE",
"o 	c #BDA3FE",
"p 	c #BDA2FE",
"q 	c #BDA1FD",
"r 	c #BCA1FE",
"s 	c #EFA2F6",
"t 	c #FE41FD",
"u 	c #E8AEF8",
"v 	c #BCA0FD",
"w 	c #BBA0FD",
"x 	c #BB9EFD",
"y 	c #BA9DFD",
"z 	c #E7AEF8",
"A 	c #FC60FA",
"B 	c #E4B3F9",
"C 	c #BEA4FE",
"D 	c #BEA2FE",
"E 	c #BA9CFD",
"F 	c #B99BFD",
"G 	c #B89BFD",
"H 	c #B89AFC",
"I 	c #B899FC",
"J 	c #E3B2F9",
"K 	c #E2B4F9",
"L 	c #B797FC",
"M 	c #B697FC",
"N 	c #B696FC",
"O 	c #B595FC",
"P 	c #E1B3F9",
"Q 	c #B99CFD",
"R 	c #B796FC",
"S 	c #B494FC",
"T 	c #B493FB",
"U 	c #B392FB",
"V 	c #B390FB",
"W 	c #B38FFB",
"X 	c #BBA1FE",
"Y 	c #B594FB",
"Z 	c #B492FB",
"` 	c #B28FFB",
" .	c #B28DFA",
"..	c #B18CFA",
"+.	c #B08CFA",
"@.	c #B08AFA",
"#.	c #AF8AFA",
"$.	c #B18DFA",
"%.	c #AF89FA",
"&.	c #AE89FA",
"*.	c #AF8DFB",
"=.	c #B08DFA",
"-.	c #B08EFB",
";.	c #B08FFB",
">.	c #B092FC",
",.	c #B194FC",
"'.	c #B196FD",
").	c #B198FD",
"!.	c #B298FD",
"~.	c #B299FE",
"{.	c #B18EFA",
"].	c #B195FD",
"^.	c #B29BFE",
"/.	c #B39FFF",
"(.	c #B3A0FF",
"_.	c #B3A2FF",
":.	c #B4A2FF",
"<.	c #B4A3FF",
"[.	c #DCB6FB",
"}.	c #B593FB",
"|.	c #B190FB",
"1.	c #B29AFE",
"2.	c #B4A6FF",
"3.	c #B5A9FF",
"4.	c #B6ACFF",
"5.	c #B5AEFF",
"6.	c #B6AFFF",
"7.	c #B4A5FF",
"8.	c #B6AEFF",
"9.	c #B6B3FF",
"0.	c #B7B6FF",
"a.	c #B8B8FF",
"b.	c #B8BBFF",
"c.	c #B9BCFF",
"d.	c #B9BDFF",
"e.	c #FC5EFA",
"f.	c #B39CFE",
"g.	c #B7B5FF",
"h.	c #B9BFFF",
"i.	c #B9C4FF",
"j.	c #BBC7FF",
"k.	c #BBCAFF",
"l.	c #BCCBFF",
"m.	c #BBCCFF",
"n.	c #E9ACF7",
"o.	c #B090FC",
"p.	c #B6ADFF",
"q.	c #B8B4FF",
"r.	c #BAC2FF",
"s.	c #BCC7FF",
"t.	c #BECDFE",
"u.	c #CBD0F5",
"v.	c #D6D1EF",
"w.	c #DED3EB",
"x.	c #E3D3E9",
"y.	c #E5D4E8",
"z.	c #E5D3E8",
"A.	c #E3D1E8",
"B.	c #DECFEA",
"C.	c #D6CDEE",
"D.	c #CCCAF4",
"E.	c #BDC7FE",
"F.	c #CDB5FF",
"G.	c #B5A7FF",
"H.	c #B8B7FF",
"I.	c #C1CEFB",
"J.	c #D3D2F1",
"K.	c #E1D6EC",
"L.	c #E5DAEE",
"M.	c #E6E0F4",
"N.	c #E6E3F6",
"O.	c #E6E6FA",
"P.	c #E7E7FA",
"Q.	c #E5D4E9",
"R.	c #E2CEE6",
"S.	c #D4CAEE",
"T.	c #C1C6FB",
"U.	c #B7AFFF",
"V.	c #CFD1F4",
"W.	c #E0D6EC",
"X.	c #E6DEF2",
"Y.	c #E7EEFF",
"Z.	c #E7F5FF",
"`.	c #E8F5FF",
" +	c #E9F5FF",
".+	c #EAF6FF",
"++	c #E1CDE6",
"@+	c #CFC8F1",
"#+	c #D4B7FD",
"$+	c #BAC3FF",
"%+	c #C1CCFC",
"&+	c #D5D4F1",
"*+	c #E7F1FF",
"=+	c #EDF6FF",
"-+	c #F0F7FF",
";+	c #F2F8FF",
">+	c #F3F8FF",
",+	c #F4F8FF",
"'+	c #E6CFE5",
")+	c #D7C7EB",
"!+	c #BEC2FC",
"~+	c #D7D4F0",
"{+	c #E5DEF2",
"]+	c #E7EAFD",
"^+	c #F7F9FD",
"/+	c #FAFAFA",
"(+	c #FBFBFB",
"_+	c #FCFCFC",
":+	c #E6D0E5",
"<+	c #D9C7E9",
"[+	c #BEC1FC",
"}+	c #E7EDFF",
"|+	c #F6F9FD",
"1+	c #FFFFFF",
"2+	c #D6C6EB",
"3+	c #D3B7FD",
"4+	c #F1F7FF",
"5+	c #F8F9FB",
"6+	c #E6CBE1",
"7+	c #CFC3EF",
"8+	c #E2C6E1",
"9+	c #C0C1FA",
"0+	c #F398F6",
"a+	c #E6CDE3",
"b+	c #D5C1EA",
"c+	c #E8ACF7",
"d+	c #E4C4DF",
"e+	c #BABFFE",
"f+	c #DEB5FA",
"g+	c #E6C9E0",
"h+	c #CAC0F2",
"i+	c #D5B7FD",
"j+	c #D7C0E8",
"k+	c #DFC1E1",
"l+	c #C9B2FF",
"m+	c #E6D2E7",
"n+	c #E5C1DC",
"o+	c #E7C1DA",
"p+	c #E8C0D9",
"q+	c #E5C0DB",
"r+	c #E0BEDF",
"s+	c #D7BDE6",
"t+	c #E8C3DA",
"u+	c #CBBBF0",
"v+	c #E5BDDA",
"w+	c #B9BBFE",
"x+	c #E7C4DC",
"y+	c #D5BCE8",
"z+	c #E3BDDB",
"A+	c #BFBAFA",
"B+	c #D2B7FE",
"C+	c #E8C1D9",
"D+	c #CFBAED",
"E+	c #E6AFF8",
"F+	c #D7BBE6",
"G+	c #D9BCE4",
"H+	c #BDB7FB",
"I+	c #ECA7F7",
"J+	c #CCB4FF",
"K+	c #FC57FB",
"L+	c #CEB6FE",
"M+	c #EDA4F7",
"N+	c #DBB6FB",
"O+	c #CCB5FF",
"P+	c #EFA1F6",
"Q+	c #E2B2F9",
"R+	c #E0B3FA",
"                                                . + @ # $ % & * = & - ; > @ + ,                                                 ",
"                                          ' ) ; * ! ! ~ ~ ~ { { { { { ~ ~ ~ ! ! ] ^ '                                           ",
"                                    / ( ; _ ! ~ { { : : < [ [ } } } [ [ < : : { { ~ ! ; ( /                                     ",
"                                | @ 1 ! ~ { 2 < [ } 3 3 4 4 5 5 5 5 5 4 4 3 3 } [ < 2 { ~ 6 @ |                                 ",
"                              7 8 ! ~ { : [ 3 9 4 0 a b b c c c c c c c b b a 0 4 9 3 [ : { ~ d 7                               ",
"                          e f _ ~ { : } 3 4 a b c g h h i i j j j j j i i h h g c b a 4 3 } : { ~ k e                           ",
"                        l m ! { : } 3 5 a b g h i j n o p p q r r r q p p o n j i h g b a 5 3 } : { - s                         ",
"                    t u * ~ { < 3 4 a c h i j o p r v w x x y y y y y x x w v r p o j i h c a 4 3 < { ~ z t                     ",
"                  A B _ ~ : } 9 0 b h i C D r v x y E F G H H I I I H H G F E y x v r D C i h b 0 9 } : ~ J A                   ",
"                A K _ ~ : } 4 a c h j D r w y E G H L M N O O O O O O O N M L H G E y w r D j h c a 4 } : ~ P A                 ",
"              t B _ ~ : 3 5 b h i n q w y Q H L R O S T U V V W W W V V U T S O R L H Q y w q n i h b 5 3 : ~ J t               ",
"              u _ ~ : 3 5 b h j D X x E H L N Y Z V `  ...+.@.#.#.#.@.+... .` V Z Y N L H E x X D j h b 5 3 : ~ z               ",
"            l * ~ : 3 5 b h j p v y G I N Y U W $.+.%.&.#.*.=.-.-.-.=.*.#.&.%.+.$.W U Y N I G y v p j h b 5 3 : ~ s             ",
"          e m ~ : } 5 b h j p w E H M O Z W $.#.&.+.;.>.,.'.).!.~.!.).'.,.>.;.+.&.#.$.W Z O M H E w p j h b 5 } : - e           ",
"          f ! { } 4 b h j p x E H R S V {.@.%.*.>.].~.^./.(._.:.<.:._.(./.^.~.].>.*.%.@.{.V S R H E x p j h b 4 } { [.          ",
"        7 _ { < 9 a h j p w E H N }.W $.%.+.|.'.1./.:.2.3.4.5.6.6.6.5.4.3.2.:./.1.'.|.+.%.$.W }.N H E w p j h a 9 < { 7         ",
"      | 8 ~ : 3 0 c i D v E H N T W ..&.-.,.1./.7.3.8.9.0.a.b.c.d.c.b.a.0.9.8.3.7./.1.,.-.&...W T N H E v D i c 0 3 : d e.      ",
"      @ ! { } 4 b h n X y H R }.W +.%.;.'.f.:.3.6.g.b.h.i.j.k.l.m.l.k.j.i.h.b.g.6.3.:.f.'.;.%.+.W }.R H y X n h b 4 } { n.      ",
"    / 1 ~ : 3 a h j q x G M S W ..%.o.)./.2.p.q.b.r.s.t.u.v.w.x.y.z.A.B.C.D.E.r.b.q.p.2./.).o.%...W S M G x q j h a 3 : F./     ",
"    ( ! { } 5 c i D w E I O V $.&.;.)./.G.6.H.h.j.I.J.K.L.M.N.O.P.O.N.M.L.Q.R.S.T.h.H.6.G./.).;.&.$.V O I E w D i c 5 } { (     ",
"    ; ~ : 3 a h C r y H N Z {.%.-.'./.G.U.a.r.m.V.W.X.P.Y.Z.`. +.+ +`.Z.Y.P.X.Q.++@+r.a.U.G./.'.-.%.{.Z N H y r C h a 3 : #+    ",
"  ' _ { [ 4 b i D w Q L Y W @.+.,.f.2.6.a.$+%+&+L.O.*+ +=+-+;+>+,+>+;+-+=+ +*+O.L.'+)+!+a.6.2.f.,.+.@.W Y L Q w D i b 4 [ { '   ",
"  ) ! 2 3 a g j r y H N U $.%.|.1.:.p.H.r.%+~+{+]+`.=+;+^+/+(+_+_+_+(+/+^+;+=+`.]+{+:+<+[+H.p.:.1.|.%.$.U N H y r j g a 3 2 ^   ",
"  ; ~ < 9 b h o v E L Y W #.*.'./.3.q.h.m.&+{+}+ +-+|+(+1+1+1+1+1+1+1+1+1+(+|+-+ +}+{+'+2+h.q.3./.'.*.#.W Y L E v o h b 9 < 3+  ",
". * { [ 4 c i p x G R Z $.&.>.1.7.6.b.j.V.L.]+ +4+5+_+1+1+1+1+1+1+1+1+1+1+1+_+5+4+ +]+L.6+7+b.6.7.1.>.&.$.Z R G x p i c 4 [ { , ",
"+ ! { } 0 g j r y H O V +.+.]./.3.g.r.I.W.O.`.-+5+1+1+1+1+1+1+1+1+1+1+1+1+1+1+1+5+-+`.O.Q.8+9+g.3./.].+.+.V O H y r j g 0 } { 0+",
"@ ! : 3 a h n v E L S ` %.;.~.:.8.b.s.J.X.*+=+|+_+1+1+1+1+1+1+1+1+1+1+1+1+1+1+1+_+|+=+*+X.a+b+b.8.:.~.;.%.` S L E v n h a 3 : c+",
"# ~ : 3 b h o w F M T  .&.>.^.2.9.h.t.K.P. +;+(+1+1+1+1+1+1+1+1+1+1+1+1+1+1+1+1+1+(+;+ +P.Q.d+e+9.2.^.>.&. .T M F w o h b 3 : f+",
"$ ~ < 4 b i p x G N U ..#.,./.3.0.i.u.L.Y.=+^+1+1+1+1+1+1+1+1+1+1+1+1+1+1+1+1+1+1+1+^+=+Y.L.g+h+0.3./.,.#...U N G x p i b 4 < i+",
"% ~ [ 4 c i p x H O V +.*.'.(.4.a.j.v.M.Z.-+/+1+1+1+1+1+1+1+1+1+1+1+1+1+1+1+1+1+1+1+/+-+Z.M.a+j+a.4.(.'.*.+.V O H x p i c 4 [ F.",
"& { [ 5 c j q y H O V @.=.)._.5.b.k.w.N.`.;+(+1+1+1+1+1+1+1+1+1+1+1+1+1+1+1+1+1+1+1+(+;+`.N.:+k+b.5._.).=.@.V O H y q j c 5 [ l+",
"* { } 5 c j r y I O W #.-.!.:.6.c.l.x.O. +>+_+1+1+1+1+1+1+1+1+1+1+1+1+1+1+1+1+1+1+1+_+>+ +O.m+n+c.6.:.!.-.#.W O I y r j c 5 } ~ ",
"= { } 5 c j r y I O W #.-.~.<.6.d.m.y.P..+,+_+1+1+1+1+1+1+1+1+1+1+1+1+1+1+1+1+1+1+1+_+,+.+P.z.o+d.6.<.~.-.#.W O I y r j c 5 } ~ ",
"& { } 5 c j r y I O W #.-.!.:.6.c.l.z.O. +>+_+1+1+1+1+1+1+1+1+1+1+1+1+1+1+1+1+1+1+1+_+>+ +O.m+p+c.6.:.!.-.#.W O I y r j c 5 } l+",
"- { [ 5 c j q y H O V @.=.)._.5.b.k.A.N.`.;+(+1+1+1+1+1+1+1+1+1+1+1+1+1+1+1+1+1+1+1+(+;+`.N.:+q+b.5._.).=.@.V O H y q j c 5 [ F.",
"; ~ [ 4 c i p x H O V +.*.'.(.4.a.j.B.M.Z.-+/+1+1+1+1+1+1+1+1+1+1+1+1+1+1+1+1+1+1+1+/+-+Z.M.a+r+a.4.(.'.*.+.V O H x p i c 4 [ #+",
"> ~ < 4 b i p x G N U ..#.,./.3.0.i.C.L.Y.=+^+1+1+1+1+1+1+1+1+1+1+1+1+1+1+1+1+1+1+1+^+=+Y.L.g+s+0.3./.,.#...U N G x p i b 4 < f+",
"@ ~ : 3 b h o w F M T  .&.>.^.2.9.h.D.Q.P. +;+(+1+1+1+1+1+1+1+1+1+1+1+1+1+1+1+1+1+(+;+ +P.Q.t+u+9.2.^.>.&. .T M F w o h b 3 : c+",
"+ ! : 3 a h n v E L S ` %.;.~.:.8.b.E.R.X.*+=+|+_+1+1+1+1+1+1+1+1+1+1+1+1+1+1+1+_+|+=+*+X.a+v+w+8.:.~.;.%.` S L E v n h a 3 : 0+",
", ! { } 0 g j r y H O V +.+.]./.3.g.r.S.Q.O.`.-+5+1+1+1+1+1+1+1+1+1+1+1+1+1+1+1+5+-+`.O.Q.x+y+g.3./.].+.+.V O H y r j g 0 } { , ",
"  ] { [ 4 c i p x G R Z $.&.>.1.7.6.b.T.++L.]+ +4+5+_+1+1+1+1+1+1+1+1+1+1+1+_+5+4+ +]+L.6+z+A+6.7.1.>.&.$.Z R G x p i c 4 [ B+  ",
"  ^ ~ < 9 b h o v E L Y W #.*.'./.3.q.h.@+'+{+}+ +-+|+(+1+1+1+1+1+1+1+1+1+(+|+-+ +}+{+'+C+D+q.3./.'.*.#.W Y L E v o h b 9 < E+  ",
"  ' ! 2 3 a g j r y H N U $.%.|.1.:.p.H.r.)+:+{+]+`.=+;+^+/+(+_+_+_+(+/+^+;+=+`.]+{+:+t+F+H.p.:.1.|.%.$.U N H y r j g a 3 2 '   ",
"    ; { [ 4 b i D w Q L Y W @.+.,.f.2.6.a.!+<+'+L.O.*+ +=+-+;+>+,+>+;+-+=+ +*+O.L.'+t+G+H+6.2.f.,.+.@.W Y L Q w D i b 4 [ 3+    ",
"    ( ~ : 3 a h C r y H N Z {.%.-.'./.G.U.a.[+2+6+Q.X.P.Y.Z.`. +.+ +`.Z.Y.P.X.Q.6+C+F+H+U.G./.'.-.%.{.Z N H y r C h a 3 : I+    ",
"    / 6 { } 5 c i D w E I O V $.&.;.)./.G.6.H.h.7+8+a+Q.L.M.N.O.P.O.N.M.L.Q.a+x+z+D+H.6.G./.).;.&.$.V O I E w D i c 5 } J+K+    ",
"      @ ~ : 3 a h j q x G M S W ..%.o.)./.2.p.q.b.9+b+d+g+a+:+m+z.m+:+a+g+t+v+y+A+q.p.2./.).o.%...W S M G x q j h a 3 : c+      ",
"      | d { } 4 b h n X y H R }.W +.%.;.'.f.:.3.6.g.b.e+h+j+k+n+o+p+q+r+s+u+w+g.6.3.:.f.'.;.%.+.W }.R H y X n h b 4 } L+e.      ",
"        7 ~ : 3 0 c i D v E H N T W ..&.-.,.1./.7.3.8.9.0.a.b.c.d.c.b.a.0.9.8.3.7./.1.,.-.&...W T N H E v D i c 0 3 : M+        ",
"          k { < 9 a h j p w E H N }.W $.%.+.|.'.1./.:.2.3.4.5.6.6.6.5.4.3.2.:./.1.'.|.+.%.$.W }.N H E w p j h a 9 < N+          ",
"          e - { } 4 b h j p x E H R S V {.@.%.*.>.].~.^./.(._.:.<.:._.(./.^.~.].>.*.%.@.{.V S R H E x p j h b 4 } O+e           ",
"            s ~ : } 5 b h j p w E H M O Z W $.#.&.+.;.>.,.'.).!.~.!.).'.,.>.;.+.&.#.$.W Z O M H E w p j h b 5 } : P+            ",
"              z ~ : 3 5 b h j p v y G I N Y U W $.+.%.&.#.*.=.-.-.-.=.*.#.&.%.+.$.W U Y N I G y v p j h b 5 3 : z               ",
"              t J ~ : 3 5 b h j D X x E H L N Y Z V `  ...+.@.#.#.#.@.+... .` V Z Y N L H E x X D j h b 5 3 : Q+t               ",
"                A P ~ : 3 5 b h i n q w y Q H L R O S T U V V W W W V V U T S O R L H Q y w q n i h b 5 3 : R+A                 ",
"                  A J ~ : } 4 a c h j D r w y E G H L M N O O O O O O O N M L H G E y w r D j h c a 4 } : Q+A                   ",
"                    t z ~ : } 9 0 b h i C D r v x y E F G H H I I I H H G F E y x v r D C i h b 0 9 } : z t                     ",
"                        s - { < 3 4 a c h i j o p r v w x x y y y y y x x w v r p o j i h c a 4 3 < O+P+                        ",
"                          e [.{ : } 3 5 a b g h i j n o p p q r r r q p p o n j i h g b a 5 3 } : N+e                           ",
"                              7 d { : } 3 4 a b c g h h i i j j j j j i i h h g c b a 4 3 } : L+M+                              ",
"                                e.n.F.{ : [ 3 9 4 0 a b b c c c c c c c b b a 0 4 9 3 [ : J+c+e.                                ",
"                                    / ( #+{ 2 < [ } 3 3 4 4 5 5 5 5 5 4 4 3 3 } [ < 2 3+I+K+                                    ",
"                                          ' ^ 3+{ { : : < [ [ } } } [ [ < : : { B+E+'                                           ",
"                                                , 0+c+f+i+F.l+~ ~ l+F.#+f+c+0+,                                                 "};
