/* XPM */
static char * purple7_xpm[] = {
"64 64 258 2",
"  	c #FF00FF",
". 	c #FC65FA",
"+ 	c #F59BF6",
"@ 	c #EDB3F8",
"# 	c #E3C1FC",
"$ 	c #D9C7FF",
"% 	c #D1C9FF",
"& 	c #CCCAFF",
"* 	c #CAC9FF",
"= 	c #E3C0FC",
"- 	c #F98AF7",
"; 	c #EAB6F9",
"> 	c #D8C7FF",
", 	c #C9C8FF",
"' 	c #C8C8FF",
") 	c #C9C7FF",
"! 	c #C8C7FF",
"~ 	c #D7C7FF",
"{ 	c #FD58FB",
"] 	c #F0ACF7",
"^ 	c #C7C6FF",
"/ 	c #C6C6FF",
"( 	c #C7C5FF",
"_ 	c #C6C5FF",
": 	c #FD5FFA",
"< 	c #CFCAFF",
"[ 	c #C5C4FF",
"} 	c #C4C4FF",
"| 	c #C5C2FF",
"1 	c #CFC9FF",
"2 	c #ECB3F8",
"3 	c #F1A9F7",
"4 	c #D4C8FF",
"5 	c #C4C2FF",
"6 	c #C3C3FF",
"7 	c #C4C1FF",
"8 	c #C3C1FF",
"9 	c #D2C8FF",
"0 	c #F0A9F7",
"a 	c #F986F7",
"b 	c #E1C2FD",
"c 	c #C2C0FF",
"d 	c #C2BFFF",
"e 	c #C1BFFF",
"f 	c #C0BFFF",
"g 	c #E0C2FD",
"h 	c #F2A7F7",
"i 	c #D2C9FF",
"j 	c #C1C0FF",
"k 	c #C0BEFF",
"l 	c #BFBEFF",
"m 	c #C0BDFF",
"n 	c #BFBDFF",
"o 	c #BEBDFF",
"p 	c #BEBCFF",
"q 	c #FE41FD",
"r 	c #EBB5F8",
"s 	c #C5C5FF",
"t 	c #BDBCFF",
"u 	c #BDBBFF",
"v 	c #BDB9FF",
"w 	c #BCB9FF",
"x 	c #FE42FD",
"y 	c #FD61FA",
"z 	c #E7BCFA",
"A 	c #BEBBFF",
"B 	c #BCBBFF",
"C 	c #BBB8FF",
"D 	c #BAB8FF",
"E 	c #BBB7FF",
"F 	c #BAB7FF",
"G 	c #B9B7FF",
"H 	c #B9B6FF",
"I 	c #E7BBFA",
"J 	c #E6BDFB",
"K 	c #B8B6FF",
"L 	c #B8B5FF",
"M 	c #B8B4FF",
"N 	c #B7B4FF",
"O 	c #E5BDFB",
"P 	c #B6B3FF",
"Q 	c #B6B1FF",
"R 	c #B5B1FF",
"S 	c #B4B0FF",
"T 	c #B3AFFF",
"U 	c #B3AEFF",
"V 	c #B2AEFF",
"W 	c #B1ADFF",
"X 	c #B1ACFF",
"Y 	c #B7B5FF",
"Z 	c #B4AFFF",
"` 	c #B0ACFF",
" .	c #B0ABFF",
"..	c #AFA9FF",
"+.	c #AEA8FF",
"@.	c #ADA8FF",
"#.	c #B9B5FF",
"$.	c #AEA7FF",
"%.	c #ADA6FF",
"&.	c #ACA5FF",
"*.	c #ABA5FF",
"=.	c #ABA4FF",
"-.	c #AAA4FF",
";.	c #D0C8FF",
">.	c #B2AFFF",
",.	c #ADA7FF",
"'.	c #A9A1FF",
").	c #A8A0FF",
"!.	c #A89FFF",
"~.	c #A79FFF",
"{.	c #A79EFF",
"].	c #E0C1FD",
"^.	c #AAA2FF",
"/.	c #A7A1FF",
"(.	c #A8A4FF",
"_.	c #A7A6FF",
":.	c #A7A8FF",
"<.	c #A8AAFF",
"[.	c #B5B3FF",
"}.	c #B2ADFF",
"|.	c #A8ADFF",
"1.	c #A8B1FF",
"2.	c #A8B3FF",
"3.	c #A8B5FF",
"4.	c #A9B6FF",
"5.	c #AFABFF",
"6.	c #A7A4FF",
"7.	c #A8AFFF",
"8.	c #A9B4FF",
"9.	c #B9B7F1",
"0.	c #C6B7E3",
"a.	c #D0B9D9",
"b.	c #D6BAD2",
"c.	c #DABBCE",
"d.	c #DCBBCC",
"e.	c #A7A0FF",
"f.	c #A7A7FF",
"g.	c #A8AEFF",
"h.	c #AEB4F9",
"i.	c #C5B6E4",
"j.	c #D5B9D2",
"k.	c #DBBECE",
"l.	c #DBC2D2",
"m.	c #DBC7D6",
"n.	c #DBC9D8",
"o.	c #DBCBD9",
"p.	c #DCCDDB",
"q.	c #CEC7FF",
"r.	c #A8B2FF",
"s.	c #C2B5E7",
"t.	c #D7B8D0",
"u.	c #DBBFCF",
"v.	c #DCCDDC",
"w.	c #DDD2E0",
"x.	c #DED7E4",
"y.	c #E0DBE8",
"z.	c #E1DCEB",
"A.	c #E1DDEA",
"B.	c #EFACF7",
"C.	c #B2B1F6",
"D.	c #CCB5DB",
"E.	c #DBC4D4",
"F.	c #DCCEDC",
"G.	c #DED5E3",
"H.	c #E4E3F3",
"I.	c #E6E8F9",
"J.	c #E8ECFF",
"K.	c #E8EFFF",
"L.	c #E8F0FF",
"M.	c #D7C6FF",
"N.	c #B7B0F1",
"O.	c #D1B5D6",
"P.	c #DBC8D7",
"Q.	c #E5E5F5",
"R.	c #E8EEFF",
"S.	c #EAF1FF",
"T.	c #ECF1FF",
"U.	c #EDF2FE",
"V.	c #EEF2FD",
"W.	c #EFF2FD",
"X.	c #B4B0F4",
"Y.	c #D1B4D5",
"Z.	c #DED5E2",
"`.	c #E3E0EE",
" +	c #F1F3FA",
".+	c #F3F4F8",
"++	c #F5F5F5",
"@+	c #F6F6F6",
"#+	c #E9B6F9",
"$+	c #AAAEFE",
"%+	c #CEB3D8",
"&+	c #E3E1F0",
"*+	c #F0F3FB",
"=+	c #F4F5F6",
"-+	c #F8F8F8",
";+	c #F9F9F9",
">+	c #FAFAFA",
",+	c #D6C6FF",
"'+	c #C5AFE2",
")+	c #DCB7C8",
"!+	c #EDF2FF",
"~+	c #F1F4FA",
"{+	c #FBFBFB",
"]+	c #FFFFFF",
"^+	c #B3ADF5",
"/+	c #DAB1C7",
"(+	c #CAAEDC",
"_+	c #DCB7C9",
":+	c #ABACFC",
"<+	c #DAB0C7",
"[+	c #E1C0FC",
"}+	c #BDADEA",
"|+	c #DDB2C4",
"1+	c #D8C6FF",
"2+	c #CBACDA",
"3+	c #DCB6C8",
"4+	c #D4ACCD",
"5+	c #DCB8CA",
"6+	c #CBC7FF",
"7+	c #DBABC4",
"8+	c #DEABBE",
"9+	c #DBAAC3",
"0+	c #D5AACB",
"a+	c #CBAAD8",
"b+	c #BEA9E9",
"c+	c #DDAFC1",
"d+	c #AAA7FC",
"e+	c #DBA9C1",
"f+	c #CAA8DA",
"g+	c #DDB0C2",
"h+	c #B3A8F4",
"i+	c #DBAAC2",
"j+	c #C6A8DF",
"k+	c #A9A7FD",
"l+	c #CFAAD3",
"m+	c #DDB1C3",
"n+	c #B4A8F3",
"o+	c #D2AACF",
"p+	c #B8A7EF",
"q+	c #B3A8F5",
"r+	c #CEAAD6",
"s+	c #C3A9E3",
"t+	c #D8ABC6",
"u+	c #AFA9F9",
"v+	c #C6A9DF",
"w+	c #D8AAC7",
"x+	c #D2C7FF",
"y+	c #B9AAEE",
"z+	c #C7ABDE",
"A+	c #D2AAD0",
"B+	c #DDABC0",
"C+	c #DEABBD",
"D+	c #DFC1FD",
"E+	c #CFC8FF",
"F+	c #F1A7F7",
"G+	c #EAB5F9",
"H+	c #E6BBFA",
"I+	c #E4BDFB",
"                                                . + @ # $ % & * * & % $ = @ + .                                                 ",
"                                          - ; > , , ' ) ! ! ! ! ! ! ! ! ! ) ' , ~ ; -                                           ",
"                                    { ] $ , ' ) ! ^ ^ / / ( _ _ _ _ _ ( / / ^ ^ ! ) ' > ] {                                     ",
"                                : @ < , ) ! ^ / _ _ [ [ } } } | | | } } } [ [ _ _ / ^ ! ) 1 2 :                                 ",
"                              3 4 , ) ! / _ _ [ } 5 6 7 8 8 8 8 8 8 8 8 8 7 6 5 } [ _ _ / ! ) 9 0                               ",
"                          a b , ) ! / _ [ } 5 7 8 c c d e e e f f f e e e d c c 8 7 5 } [ _ / ! ) g a                           ",
"                        h i ' ! ^ _ [ } 6 8 c j e k l m n n o p p p o n n m l k e j c 8 6 } [ _ ^ ! % h                         ",
"                    q r , ) ^ / s } 5 8 c e k l n p t u u v v w w w v v u u t p n l k e c 8 5 } s / ^ ) r x                     ",
"                  y z , ! ^ _ [ 5 8 c e k n p A B w C D E F F G H G F F E D C w B A p n k e c 8 5 [ _ ^ ! I y                   ",
"                y J , ! ^ _ } 6 8 d k n p u v C E F K L L M N N N N N M L L K F E C v u p n k d 8 6 } _ ^ ! O y                 ",
"              q z , ! / _ } 7 c e l o u v C F K L N P Q R S S S S S S S R Q P N L K F C v u o l e c 7 } _ / ! I x               ",
"              r , ! / s | 7 c f n t B C F K M P Q S T U V W W X X X W W V U T S Q P M K F C B t n f c 7 | s / ! r               ",
"            h , ! ^ _ | 8 j k n A w D H Y P R Z U W `  .....+.+.@.+.+..... .` W U Z R P Y H D w A n k j 8 | _ ^ ! h             ",
"          a i ) ^ _ } 7 j k n u w F #.N Q S U X  ...$.%.&.*.=.-.-.-.=.*.&.%.$... .X U S Q N #.F w u n k j 7 } _ ^ ;.a           ",
"          b ' ^ _ } 7 c k n u C F L P S >.W  .+.,.*.-.'.).!.~.{.{.{.~.!.).'.-.*.,.+. .W >.S P L F C u n k c 7 } _ ^ ].          ",
"        3 , ! / [ 6 c f n u C F L P S V ` ..,.*.^.).{./.(._.:.<.<.<.:._.(./.{.).^.*.,...` V S P L F C u n f c 6 [ / ! 0         ",
"      : 4 ) ^ s 5 8 e n A w F L [.Z }. .@.&.^.).~.(.:.|.1.2.3.4.4.4.3.2.1.|.:.(.~.).^.&.@. .}.Z [.L F w A n e 8 5 s ^ 9 :       ",
"      @ , ! _ } 8 d l t w F L P Z W 5.$.*.'.{.6.<.7.8.9.0.a.b.c.d.c.b.a.0.9.8.7.<.6.{.'.*.$.5.W Z P L F w t l d 8 } _ ! 2       ",
"    { < ) / [ 5 c k o B D #.P S }.5.,.=.).e.f.g.h.i.j.k.l.m.n.o.p.o.n.m.l.k.j.i.h.g.f.e.).=.,.5.}.S P #.D B o k c 5 [ / q.{     ",
"    ] , ! _ } 8 e n u C H N S V  .$.=.)./.<.r.s.t.u.m.v.w.x.y.z.A.z.y.x.w.v.m.u.t.s.r.<./.).=.$. .V S N H C u n e 8 } _ ! B.    ",
"    $ ) / [ 6 c k p v F Y Q >.` @.*.)./.<.C.D.d.E.F.G.A.H.I.J.K.L.K.J.I.H.A.G.F.E.d.D.C.<./.).*.@.` >.Q Y F v p k c 6 [ / M.    ",
"  - , ! _ } 8 e n u C K P S W ..&.'.e.<.N.O.k.P.w.z.Q.R.S.T.U.V.W.V.U.T.S.R.Q.z.w.P.k.O.N.<.e.'.&...W S P K C u n e 8 } _ ! -   ",
"  ; ' ^ _ 5 c k p v F M R U  .,.^.{.f.X.Y.k.n.Z.`.J.S.U. +.+++@+@+@+++.+ +U.S.J.`.Z.n.k.Y.X.f.{.^.,. .U R M F v p k c 5 _ ^ #+  ",
"  > ) / [ 7 j l A C K P Z X +.*.).6.$+%+d.P.Z.&+K.T.*+=+@+-+;+>+>+>+;+-+@+=+*+T.K.&+Z.P.d.%+$+6.).*.+.X Z P K C A l j 7 [ / ,+  ",
". , ! _ } 8 e n B E L Q U  .,.^.~.<.'+)+E.w.`.K.!+~+@+-+{+]+]+]+]+]+]+]+{+-+@+~+!+K.`.w.E.)+'+<.~.^.,. .U Q L E B n e 8 } _ ! . ",
"+ , ^ _ 5 c k p w F N S W ..*.).(.^+/+u.F.z.J.T.~+@+;+]+]+]+]+]+]+]+]+]+]+]+;+@+~+T.J.z.F.u./+^+(.).*...W S N F w p k c 5 _ ^ + ",
"@ ' ^ [ 6 c l t C K P T ` $.-.{.:.(+_+m.G.Q.S.*+@+;+]+]+]+]+]+]+]+]+]+]+]+]+]+;+@+*+S.Q.G.m._+(+:.{.-.$.` T P K C t l c 6 [ ^ 2 ",
"# ) / [ 7 d m u D L Q U  .%.'./.:+<+k.v.A.R.U.=+-+]+]+]+]+]+]+]+]+]+]+]+]+]+]+]+-+=+U.R.A.v.k.<+:+/.'.%. .U Q L D u m d 7 [ / [+",
"$ ! / } 8 e n u E L R V ..&.).(.}+|+l.w.H.S. +@+{+]+]+]+]+]+]+]+]+]+]+]+]+]+]+]+{+@+ +S.H.w.l.|+}+(.).&...V R L E u n e 8 } / 1+",
"% ! ( } 8 e n v F M S W ..*.!._.2+3+m.x.I.T..+-+]+]+]+]+]+]+]+]+]+]+]+]+]+]+]+]+]+-+.+T.I.x.m.3+2+_.!.*...W S M F v n e 8 } ( ;.",
"& ! _ } 8 e o v F N S W +.=.~.:.4+5+n.y.J.U.++;+]+]+]+]+]+]+]+]+]+]+]+]+]+]+]+]+]+;+++U.J.y.n.5+4+:.~.=.+.W S N F v o e 8 } _ 6+",
"* ! _ | 8 f p w G N S X +.-.{.<.7+d.o.z.K.V.@+>+]+]+]+]+]+]+]+]+]+]+]+]+]+]+]+]+]+>+@+V.K.z.o.d.7+<.{.-.+.X S N G w p f 8 | _ ! ",
"* ! _ | 8 f p w H N S X @.-.{.<.8+d.p.A.L.W.@+>+]+]+]+]+]+]+]+]+]+]+]+]+]+]+]+]+]+>+@+W.L.A.p.d.8+<.{.-.@.X S N H w p f 8 | _ ! ",
"& ! _ | 8 f p w G N S X +.-.{.<.8+d.o.z.K.V.@+>+]+]+]+]+]+]+]+]+]+]+]+]+]+]+]+]+]+>+@+V.K.z.o.d.8+<.{.-.+.X S N G w p f 8 | _ 6+",
"% ! _ } 8 e o v F N S W +.=.~.:.9+5+n.y.J.U.++;+]+]+]+]+]+]+]+]+]+]+]+]+]+]+]+]+]+;+++U.J.y.n.5+9+:.~.=.+.W S N F v o e 8 } _ ;.",
"$ ! ( } 8 e n v F M S W ..*.!._.0+3+m.x.I.T..+-+]+]+]+]+]+]+]+]+]+]+]+]+]+]+]+]+]+-+.+T.I.x.m.3+0+_.!.*...W S M F v n e 8 } ( M.",
"= ! / } 8 e n u E L R V ..&.).(.a+|+l.w.H.S. +@+{+]+]+]+]+]+]+]+]+]+]+]+]+]+]+]+{+@+ +S.H.w.l.|+a+(.).&...V R L E u n e 8 } / [+",
"@ ) / [ 7 d m u D L Q U  .%.'./.b+c+k.v.A.R.U.=+-+]+]+]+]+]+]+]+]+]+]+]+]+]+]+]+-+=+U.R.A.v.k.c+b+/.'.%. .U Q L D u m d 7 [ / 2 ",
"+ ' ^ [ 6 c l t C K P T ` $.-.{.d+e+_+m.G.Q.S.*+@+;+]+]+]+]+]+]+]+]+]+]+]+]+]+;+@+*+S.Q.G.m._+e+d+{.-.$.` T P K C t l c 6 [ ^ + ",
". , ^ _ 5 c k p w F N S W ..*.).(.f+g+u.F.z.J.T.~+@+;+]+]+]+]+]+]+]+]+]+]+]+;+@+~+T.J.z.F.u.g+f+(.).*...W S N F w p k c 5 _ ^ . ",
"  ~ ! _ } 8 e n B E L Q U  .,.^.~.h+i+)+E.w.`.K.!+~+@+-+{+]+]+]+]+]+]+]+{+-+@+~+!+K.`.w.E.)+i+h+~.^.,. .U Q L E B n e 8 } _ ,+  ",
"  ; ) / [ 7 j l A C K P Z X +.*.).6.j+c+d.P.Z.&+K.T.*+=+@+-+;+>+>+>+;+-+@+=+*+T.K.&+Z.P.d.c+j+6.).*.+.X Z P K C A l j 7 [ / #+  ",
"  - ' ^ _ 5 c k p v F M R U  .,.^.{.k+l+m+k.n.Z.`.J.S.U. +.+++@+@+@+++.+ +U.S.J.`.Z.n.k.m+l+k+{.^.,. .U R M F v p k c 5 _ ^ -   ",
"    > ! _ } 8 e n u C K P S W ..&.'.e.n+o+|+k.P.w.z.Q.R.S.T.U.V.W.V.U.T.S.R.Q.z.w.P.k.|+o+n+e.'.&...W S P K C u n e 8 } _ M.    ",
"    ] ) / [ 6 c k p v F Y Q >.` @.*.)./.p+o+m+d.E.F.G.A.H.I.J.K.L.K.J.I.H.A.G.F.E.d.m+o+p+/.).*.@.` >.Q Y F v p k c 6 [ / B.    ",
"    { 1 ! _ } 8 e n u C H N S V  .$.=.)./.q+r+c+)+u.m.v.w.x.y.z.A.z.y.x.w.v.m.u.)+c+r+q+/.).=.$. .V S N H C u n e 8 } _ q.{     ",
"      2 ) / [ 5 c k o B D #.P S }.5.,.=.).e.f.s+t+g+_+k.l.m.n.o.p.o.n.m.l.k._+g+t+s+f.e.).=.,.5.}.S P #.D B o k c 5 [ / 2       ",
"      : 9 ! _ } 8 d l t w F L P Z W 5.$.*.'.{.6.u+v+w+c+|+3+5+d.d.d.5+3+|+c+w+v+u+6.{.'.*.$.5.W Z P L F w t l d 8 } _ x+:       ",
"        0 ) ^ s 5 8 e n A w F L [.Z }. .@.&.^.).~.(.:.y+z+A+t+B+C+B+t+A+z+y+:.(.~.).^.&.@. .}.Z [.L F w A n e 8 5 s ^ 0         ",
"          g ! / [ 6 c f n u C F L P S V ` ..,.*.^.).{./.(._.:.<.<.<.:._.(./.{.).^.*.,...` V S P L F C u n f c 6 [ / D+          ",
"          a % ^ _ } 7 c k n u C F L P S >.W  .+.,.*.-.'.).!.~.{.{.{.~.!.).'.-.*.,.+. .W >.S P L F C u n k c 7 } _ E+a           ",
"            h ) ^ _ } 7 j k n u w F #.N Q S U X  ...$.%.&.*.=.-.-.-.=.*.&.%.$... .X U S Q N #.F w u n k j 7 } _ ^ F+            ",
"              r ! ^ _ | 8 j k n A w D H Y P R Z U W `  .....+.+.@.+.+..... .` W U Z R P Y H D w A n k j 8 | _ ^ G+              ",
"              x I ! / s | 7 c f n t B C F K M P Q S T U V W W X X X W W V U T S Q P M K F C B t n f c 7 | s / H+x               ",
"                y O ! / _ } 7 c e l o u v C F K L N P Q R S S S S S S S R Q P N L K F C v u o l e c 7 } _ / I+y                 ",
"                  y I ! ^ _ } 6 8 d k n p u v C E F K L L M N N N N N M L L K F E C v u p n k d 8 6 } _ ^ H+y                   ",
"                    x r ! ^ _ [ 5 8 c e k n p A B w C D E F F G H G F F E D C w B A p n k e c 8 5 [ _ ^ G+x                     ",
"                        h ;.^ / s } 5 8 c e k l n p t u u v v w w w v v u u t p n l k e c 8 5 } s / E+F+                        ",
"                          a ].! ^ _ [ } 6 8 c j e k l m n n o p p p o n n m l k e j c 8 6 } [ _ ^ D+a                           ",
"                              0 9 ! / _ [ } 5 7 8 c c d e e e f f f e e e d c c 8 7 5 } [ _ / x+0                               ",
"                                : 2 q.! / _ _ [ } 5 6 7 8 8 8 8 8 8 8 8 8 7 6 5 } [ _ _ / q.2 :                                 ",
"                                    { B.M.! ^ / _ _ [ [ } } } | | | } } } [ [ _ _ / ^ M.B.{                                     ",
"                                          - #+,+! ^ ^ / / ( _ _ _ _ _ ( / / ^ ^ ,+#+-                                           ",
"                                                . + 2 [+1+;.6+! ! 6+;.M.[+2 + .                                                 "};
