/* XPM */
static char * purple5_xpm[] = {
"64 64 256 2",
"  	c #FF00FF",
". 	c #FD64FA",
"+ 	c #F499F6",
"@ 	c #EBAFF8",
"# 	c #E0B9FB",
"$ 	c #D6BEFE",
"% 	c #D0BDFF",
"& 	c #CBBCFF",
"* 	c #C8BAFF",
"= 	c #DFB9FB",
"- 	c #F888F7",
"; 	c #E8B2F8",
"> 	c #D5BEFF",
", 	c #C9BAFF",
"' 	c #C8B9FF",
") 	c #C7B9FF",
"! 	c #C8B8FF",
"~ 	c #C7B8FF",
"{ 	c #D5BDFE",
"] 	c #FD57FB",
"^ 	c #EEA9F7",
"/ 	c #D6BEFF",
"( 	c #C6B7FF",
"_ 	c #C5B7FF",
": 	c #C6B6FF",
"< 	c #C5B6FF",
"[ 	c #D6BDFE",
"} 	c #EDA9F7",
"| 	c #FD5EFA",
"1 	c #CEBDFF",
"2 	c #C6B8FF",
"3 	c #C4B5FF",
"4 	c #C3B5FF",
"5 	c #C4B3FF",
"6 	c #C3B3FF",
"7 	c #CDBDFF",
"8 	c #EAAFF8",
"9 	c #EFA6F7",
"0 	c #D1BDFF",
"a 	c #C4B6FF",
"b 	c #C2B2FF",
"c 	c #C1B2FF",
"d 	c #C2B1FF",
"e 	c #C1B1FF",
"f 	c #D1BCFF",
"g 	c #F885F7",
"h 	c #DFBAFB",
"i 	c #C3B2FF",
"j 	c #C1B0FF",
"k 	c #C0AFFF",
"l 	c #C0AEFF",
"m 	c #DEBAFC",
"n 	c #F0A3F6",
"o 	c #CFBDFF",
"p 	c #BFAFFF",
"q 	c #BFAEFF",
"r 	c #BEADFF",
"s 	c #BEABFF",
"t 	c #BDABFF",
"u 	c #BDAAFF",
"v 	c #CEBCFF",
"w 	c #EFA3F6",
"x 	c #FE41FD",
"y 	c #E9B1F8",
"z 	c #BDA9FF",
"A 	c #BCA9FF",
"B 	c #BCA8FF",
"C 	c #BBA8FF",
"D 	c #BBA7FF",
"E 	c #E9B0F8",
"F 	c #FD60FA",
"G 	c #E5B6F9",
"H 	c #BAA7FF",
"I 	c #BAA6FF",
"J 	c #B9A4FF",
"K 	c #B8A4FF",
"L 	c #B9A3FF",
"M 	c #B8A3FF",
"N 	c #E4B6F9",
"O 	c #E3B8FA",
"P 	c #B8A2FF",
"Q 	c #B7A2FF",
"R 	c #B6A1FF",
"S 	c #B7A0FE",
"T 	c #B6A0FF",
"U 	c #E3B7FA",
"V 	c #B7A1FF",
"W 	c #B59FFE",
"X 	c #B49DFE",
"Y 	c #B49CFE",
"Z 	c #B39BFE",
"` 	c #B29BFE",
" .	c #BCAAFF",
"..	c #B39AFE",
"+.	c #B299FE",
"@.	c #B198FD",
"#.	c #B098FD",
"$.	c #B096FD",
"%.	c #B9A6FF",
"&.	c #B095FD",
"*.	c #AF94FD",
"=.	c #AE93FD",
"-.	c #AE92FC",
";.	c #AD92FC",
">.	c #AD91FC",
",.	c #B199FE",
"'.	c #AD93FD",
").	c #AC95FE",
"!.	c #AD97FE",
"~.	c #AE97FE",
"{.	c #AD98FE",
"].	c #AD94FD",
"^.	c #AE9AFF",
"/.	c #AE9EFF",
"(.	c #AF9FFF",
"_.	c #AFA1FF",
":.	c #AFA2FF",
"<.	c #DDBAFC",
"[.	c #B59DFE",
"}.	c #AC91FC",
"|.	c #AE99FE",
"1.	c #B0A5FF",
"2.	c #B0A8FF",
"3.	c #B1ABFF",
"4.	c #B1ADFF",
"5.	c #B1AEFF",
"6.	c #AFA4FF",
"7.	c #B1B1FF",
"8.	c #B1B5FF",
"9.	c #B2B7FF",
"0.	c #B3BAFF",
"a.	c #B2BBFF",
"b.	c #B3BBFF",
"c.	c #AC8FFC",
"d.	c #AD95FD",
"e.	c #AE9BFF",
"f.	c #B2B4FF",
"g.	c #B2BAFF",
"h.	c #B4BEFF",
"i.	c #B4C2FF",
"j.	c #B5C5FF",
"k.	c #B4C9FF",
"l.	c #B4CAFF",
"m.	c #B5CAFF",
"n.	c #B0ACFF",
"o.	c #B2B3FF",
"p.	c #B3C1FF",
"q.	c #B4C6FF",
"r.	c #C1C9F8",
"s.	c #CFCCF0",
"t.	c #D8CDEC",
"u.	c #DFD0EA",
"v.	c #E2D0E9",
"w.	c #E3D0E8",
"x.	c #CDBCFF",
"y.	c #AFA6FF",
"z.	c #B2B6FF",
"A.	c #CAC9F2",
"B.	c #DBCCEA",
"C.	c #E4D1E9",
"D.	c #E3D8F0",
"E.	c #E3DDF4",
"F.	c #E3E1F8",
"G.	c #E3E4FB",
"H.	c #E4E4FB",
"I.	c #C6C6F4",
"J.	c #DACCEA",
"K.	c #E3D2EA",
"L.	c #E3DCF3",
"M.	c #E4ECFF",
"N.	c #E3F2FF",
"O.	c #E3F4FF",
"P.	c #E4F4FF",
"Q.	c #E5F4FF",
"R.	c #CEC6EF",
"S.	c #E3CDE6",
"T.	c #E3EEFF",
"U.	c #E8F5FF",
"V.	c #EAF6FF",
"W.	c #EDF6FF",
"X.	c #EEF7FF",
"Y.	c #EFF7FF",
"Z.	c #B4C1FF",
"`.	c #D1C6ED",
" +	c #E4CEE6",
".+	c #E3DAF1",
"++	c #E3E8FF",
"@+	c #F1F7FF",
"#+	c #F5F8FE",
"$+	c #F8F9FC",
"%+	c #FAFAFA",
"&+	c #E7B1F8",
"*+	c #CFC4ED",
"=+	c #E4CDE5",
"-+	c #E3EAFF",
";+	c #F7F9FD",
">+	c #FBFBFB",
",+	c #FDFDFD",
"'+	c #FFFFFF",
")+	c #D3BDFF",
"!+	c #C8C2F2",
"~+	c #E4C9E2",
"{+	c #ECF6FF",
"]+	c #F3F8FF",
"^+	c #B7C0FC",
"/+	c #DDC5E4",
"(+	c #F399F6",
"_+	c #CEC0EC",
":+	c #E4CAE3",
"<+	c #E0C2E1",
"[+	c #C6BEF2",
"}+	c #E5C7E0",
"|+	c #D4BEE8",
"1+	c #DCBFE2",
"2+	c #CABBFF",
"3+	c #E2BFDD",
"4+	c #E6BED9",
"5+	c #E5BEDA",
"6+	c #E2BEDC",
"7+	c #CEBBFF",
"8+	c #DDBBDF",
"9+	c #D5BCFE",
"0+	c #D4BBE7",
"a+	c #C6BAF1",
"b+	c #E6C0DB",
"c+	c #E1BBDC",
"d+	c #CEBBEA",
"e+	c #E5C2DD",
"f+	c #FC65FA",
"g+	c #B7B9FC",
"h+	c #DEBCDE",
"i+	c #D4BCFE",
"j+	c #C9B9EF",
"k+	c #D0BAE9",
"l+	c #F788F7",
"m+	c #B3B7FE",
"n+	c #D2BBE8",
"o+	c #ECA9F7",
"p+	c #DCBCE0",
"q+	c #CCBBFF",
"r+	c #CBBCEE",
"s+	c #DDBCDF",
"t+	c #C2BBF5",
"u+	c #D0BCEA",
"v+	c #DABCE2",
"w+	c #E0BEDE",
"x+	c #E4BEDB",
"y+	c #CFBBFF",
"z+	c #EEA6F7",
"A+	c #DDB9FB",
"B+	c #CDBBFF",
"C+	c #E8B0F8",
"D+	c #E3B6FA",
"E+	c #FE42FD",
"F+	c #E2B7FA",
"G+	c #FC60FA",
"                                                . + @ # $ % & * * & % $ = @ + .                                                 ",
"                                          - ; > , * ' ) ) ! ~ ~ ~ ~ ~ ! ) ) ' * { ; -                                           ",
"                                    ] ^ / , ' ) ~ ~ ( _ _ : < < < < < : _ _ ( ~ ~ ) ' [ } ]                                     ",
"                                | @ 1 * ) ~ 2 _ : < 3 3 4 5 6 6 6 6 6 5 4 3 3 < : _ 2 ~ ) 7 8 |                                 ",
"                              9 0 * ) ~ ( : a 3 5 6 b c d d e e e e e d d c b 6 5 3 a : ( ~ ) f 9                               ",
"                          g h , ) ~ _ < 3 5 i b d j j k k l l l l l l l k k j j d b i 5 3 < _ ~ ) m g                           ",
"                        n o ' ~ ( < 3 6 b d j k p q r r s t t u u u t t s r r q p k j d b 6 3 < ( ~ v w                         ",
"                    x y , ) ~ _ 3 5 b d j k q r s u z A B B C D D D C B B A z u s r q k j d b 5 3 _ ~ ) E x                     ",
"                  F G * ) ( < 3 6 d j k q s u A B D H I J K L M M M L K J I H D B A u s q k j d 6 3 < ( ) N F                   ",
"                F O * ! ( < 5 b e k q s u A C I J L P Q R S T T T T T S R Q P L J I C A u s q k e b 5 < ( ! U F                 ",
"              x G * ~ _ a 6 c j p r t A C I K P V T W X Y Y Z Z ` Z Z Y Y X W T V P K I C A t r p j c 6 a _ ~ N x               ",
"              y * ! _ 3 6 d j l s  .B I K P R W X Z ..+.@.#.$.$.$.$.$.#.@.+...Z X W R P K I B  .s l j d 6 3 _ ! E               ",
"            n , ) ( a 6 d j q s A D %.M R W Y ` +.#.&.*.=.-.;.>.>.>.;.-.=.*.&.#.+.` Y W R M %.D A s q j d 6 a ( ) w             ",
"          g o ) ( < 6 d j q t A H K P T X ` ,.$.*.-.>.>.'.).!.~.{.~.!.).'.>.>.-.*.$.,.` X T P K H A t q j d 6 < ( v g           ",
"          h ' ~ < 5 c j q t A H L V W Y +.$.*.;.>.].{.^./.(._._.:._._.(./.^.{.].>.;.*.$.+.Y W V L H A t q j c 5 < ~ <.          ",
"        9 , ~ _ 3 b j l s A H L R [.Z @.&.-.}.).|./._.1.2.3.4.5.5.5.4.3.2.1._./.|.).}.-.&.@.Z [.R L H A s l j b 3 _ ~ 9         ",
"      | 0 ) ( 3 6 e p s A H L R [.` #.*.>.'.|./.6.2.4.7.8.9.0.a.b.a.0.9.8.7.4.2.6./.|.'.>.*.#.` [.R L H A s p e 6 3 ( f |       ",
"      @ * ~ < 5 d k r  .D K V [.` #.*.c.d.e._.2.5.f.g.h.i.j.k.l.m.l.k.j.i.h.g.f.5.2._.e.d.c.*.#.` [.V K D  .r k d 5 < ~ 8       ",
"    ] 1 ) _ 3 b j q t B %.P W Z #.*.c.!./.1.n.o.0.p.q.r.s.t.u.v.w.v.u.t.s.r.q.p.0.o.n.1./.!.c.*.#.Z W P %.B t q j b 3 _ x.]     ",
"    ^ * ~ < 6 d k s A I M T Y @.*.c.!./.y.5.z.h.q.A.B.C.D.E.F.G.H.G.F.E.D.C.B.A.q.h.z.5.y./.!.c.*.@.Y T M I A s k d 6 < ~ }     ",
"    / ) ( 3 b j q u C K R X +.&.>.d./.y.5.9.p.I.J.K.L.H.M.N.O.P.Q.P.O.N.M.H.L.K.J.I.p.9.5.y./.d.>.&.+.X R K C u q j b 3 ( {     ",
"  - , ~ : 5 d k s A I P W ` $.-.'.e.1.5.9.i.R.S.D.G.T.P.U.V.W.X.Y.X.W.V.U.P.T.G.D.S.R.i.9.5.1.e.'.-.$.` W P I A s k d 5 : ~ -   ",
"  ; ' 2 a i j q u C K R Y ,.*.}.|._.n.z.Z.`. +.+++O.U.W.@+#+$+%+%+%+$+#+@+W.U.O.++.+ +`.Z.z.n._.|.}.*.,.Y R K C u q j i a 2 &+  ",
"  > ) _ 3 b k r A I P W ` $.;.)./.2.o.h.*+=+.+-+P.V.@+;+>+,+'+'+'+'+'+,+>+;+@+V.P.-+.+=+*+h.o.2./.).;.$.` W P I A r k b 3 _ )+  ",
". , ~ : 5 d p s B J V X +.*.>.|.6.5.0.!+~+D.++P.{+]+%+'+'+'+'+'+'+'+'+'+'+'+%+]+{+P.++D.~+!+0.5.6.|.>.*.+.X V J B s p d 5 : ~ . ",
"+ * ~ < 6 j q u D L T Z #.-.]./.2.f.^+/+K.G.O.V.]+%+'+'+'+'+'+'+'+'+'+'+'+'+'+%+]+V.O.G.K./+^+f.2./.].-.#.Z T L D u q j 6 < ~ (+",
"@ ' ( 3 b j r z H P W ..&.>.{._.4.g._+:+L.T.U.@+%+'+'+'+'+'+'+'+'+'+'+'+'+'+'+'+%+@+U.T.L.:+_+g.4._.{.>.&...W P H z r j b 3 ( 8 ",
"# ) _ 3 c k r A I Q X +.*.>.^.1.7.h.<+C.H.P.W.;+'+'+'+'+'+'+'+'+'+'+'+'+'+'+'+'+'+;+W.P.H.C.<+h.7.1.^.>.*.+.X Q I A r k c 3 _ = ",
"$ ) _ 4 d k s B J R Y @.=.'./.2.8.[+}+D.M.U.@+>+'+'+'+'+'+'+'+'+'+'+'+'+'+'+'+'+'+>+@+U.M.D.}+[+8.2./.'.=.@.Y R J B s k d 4 _ { ",
"% ! : 5 d l t B K S Y #.-.).(.3.9.|+:+E.N.V.#+,+'+'+'+'+'+'+'+'+'+'+'+'+'+'+'+'+'+,+#+V.N.E.:+|+9.3.(.).-.#.Y S K B t l d 5 : v ",
"& ~ < 6 e l t C L T Z $.;.!._.4.0.1+ +F.O.W.$+'+'+'+'+'+'+'+'+'+'+'+'+'+'+'+'+'+'+'+$+W.O.F. +1+0.4._.!.;.$.Z T L C t l e 6 < 2+",
"* ~ < 6 e l u D M T Z $.>.~._.5.a.3+w.G.P.X.%+'+'+'+'+'+'+'+'+'+'+'+'+'+'+'+'+'+'+'+%+X.P.G.w.3+a.5._.~.>.$.Z T M D u l e 6 < ) ",
"* ~ < 6 e l u D M T ` $.>.{.:.5.b.4+w.H.Q.Y.%+'+'+'+'+'+'+'+'+'+'+'+'+'+'+'+'+'+'+'+%+Y.Q.H.w.4+b.5.:.{.>.$.` T M D u l e 6 < ! ",
"& ~ < 6 e l u D M T Z $.>.~._.5.a.5+w.G.P.X.%+'+'+'+'+'+'+'+'+'+'+'+'+'+'+'+'+'+'+'+%+X.P.G.w.5+a.5._.~.>.$.Z T M D u l e 6 < 2+",
"% ~ < 6 e l t C L T Z $.;.!._.4.0.6+ +F.O.W.$+'+'+'+'+'+'+'+'+'+'+'+'+'+'+'+'+'+'+'+$+W.O.F. +6+0.4._.!.;.$.Z T L C t l e 6 < 7+",
"$ ! : 5 d l t B K S Y #.-.).(.3.9.8+:+E.N.V.#+,+'+'+'+'+'+'+'+'+'+'+'+'+'+'+'+'+'+,+#+V.N.E.:+8+9.3.(.).-.#.Y S K B t l d 5 : 9+",
"= ) _ 4 d k s B J R Y @.=.'./.2.8.0+}+D.M.U.@+>+'+'+'+'+'+'+'+'+'+'+'+'+'+'+'+'+'+>+@+U.M.D.}+0+8.2./.'.=.@.Y R J B s k d 4 _ = ",
"@ ) _ 3 c k r A I Q X +.*.>.^.1.7.a+b+C.H.P.W.;+'+'+'+'+'+'+'+'+'+'+'+'+'+'+'+'+'+;+W.P.H.C.b+a+7.1.^.>.*.+.X Q I A r k c 3 _ 8 ",
"+ ' ( 3 b j r z H P W ..&.>.{._.4.g.c+:+L.T.U.@+%+'+'+'+'+'+'+'+'+'+'+'+'+'+'+'+%+@+U.T.L.:+c+g.4._.{.>.&...W P H z r j b 3 ( (+",
". * ~ < 6 j q u D L T Z #.-.]./.2.f.d+e+K.G.O.V.]+%+'+'+'+'+'+'+'+'+'+'+'+'+'+%+]+V.O.G.K.e+d+f.2./.].-.#.Z T L D u q j 6 < ~ f+",
"  { ~ : 5 d p s B J V X +.*.>.|.6.5.g+h+~+D.++P.{+]+%+'+'+'+'+'+'+'+'+'+'+'+%+]+{+P.++D.~+h+g+5.6.|.>.*.+.X V J B s p d 5 : i+  ",
"  ; ) _ 3 b k r A I P W ` $.;.)./.2.o.j+4+=+.+-+P.V.@+;+>+,+'+'+'+'+'+,+>+;+@+V.P.-+.+=+4+j+o.2./.).;.$.` W P I A r k b 3 _ &+  ",
"  - ' 2 a i j q u C K R Y ,.*.}.|._.n.z.k+b+ +.+++O.U.W.@+#+$+%+%+%+$+#+@+W.U.O.++.+ +b+k+z.n._.|.}.*.,.Y R K C u q j i a 2 l+  ",
"    [ ~ : 5 d k s A I P W ` $.-.'.e.1.5.m+n+b+=+D.G.T.P.U.V.W.X.Y.X.W.V.U.P.T.G.D.=+b+n+m+5.1.e.'.-.$.` W P I A s k d 5 : i+    ",
"    } ) ( 3 b j q u C K R X +.&.>.d./.y.5.9.d+5+~+K.L.H.M.N.O.P.Q.P.O.N.M.H.L.K.~+5+d+9.5.y./.d.>.&.+.X R K C u q j b 3 ( o+    ",
"    ] 7 ~ < 6 d k s A I M T Y @.*.c.!./.y.5.z.a+p+e+:+C.D.E.F.G.H.G.F.E.D.C.:+e+p+a+z.5.y./.!.c.*.@.Y T M I A s k d 6 < q+]     ",
"      8 ) _ 3 b j q t B %.P W Z #.*.c.!./.1.n.o.0.r+s+b+}+:+ +w.w.w. +:+}+b+s+r+0.o.n.1./.!.c.*.#.Z W P %.B t q j b 3 _ 8       ",
"      | f ~ < 5 d k r  .D K V [.` #.*.c.d.e._.2.5.f.g.t+u+v+w+x+4+x+w+v+u+t+g.f.5.2._.e.d.c.*.#.` [.V K D  .r k d 5 < y+|       ",
"        9 ) ( 3 6 e p s A H L R [.` #.*.>.'.|./.6.2.4.7.8.9.0.a.b.a.0.9.8.7.4.2.6./.|.'.>.*.#.` [.R L H A s p e 6 3 ( z+        ",
"          m ~ _ 3 b j l s A H L R [.Z @.&.-.}.).|./._.1.2.3.4.5.5.5.4.3.2.1._./.|.).}.-.&.@.Z [.R L H A s l j b 3 _ A+          ",
"          g v ~ < 5 c j q t A H L V W Y +.$.*.;.>.].{.^./.(._._.:._._.(./.^.{.].>.;.*.$.+.Y W V L H A t q j c 5 < B+g           ",
"            w ) ( < 6 d j q t A H K P T X ` ,.$.*.-.>.>.'.).!.~.{.~.!.).'.>.>.-.*.$.,.` X T P K H A t q j d 6 < ( w             ",
"              E ) ( a 6 d j q s A D %.M R W Y ` +.#.&.*.=.-.;.>.>.>.;.-.=.*.&.#.+.` Y W R M %.D A s q j d 6 a ( C+              ",
"              x N ! _ 3 6 d j l s  .B I K P R W X Z ..+.@.#.$.$.$.$.$.#.@.+...Z X W R P K I B  .s l j d 6 3 _ D+E+              ",
"                F U ~ _ a 6 c j p r t A C I K P V T W X Y Y Z Z ` Z Z Y Y X W T V P K I C A t r p j c 6 a _ F+G+                ",
"                  F N ! ( < 5 b e k q s u A C I J L P Q R S T T T T T S R Q P L J I C A u s q k e b 5 < ( D+G+                  ",
"                    x E ) ( < 3 6 d j k q s u A B D H I J K L M M M L K J I H D B A u s q k j d 6 3 < ( C+E+                    ",
"                        w v ~ _ 3 5 b d j k q r s u z A B B C D D D C B B A z u s r q k j d b 5 3 _ B+w                         ",
"                          g <.~ ( < 3 6 b d j k p q r r s t t u u u t t s r r q p k j d b 6 3 < ( A+g                           ",
"                              9 f ~ _ < 3 5 i b d j j k k l l l l l l l k k j j d b i 5 3 < _ y+z+                              ",
"                                | 8 x.~ ( : a 3 5 6 b c d d e e e e e d d c b 6 5 3 a : ( q+8 |                                 ",
"                                    ] } { ~ 2 _ : < 3 3 4 5 6 6 6 6 6 5 4 3 3 < : _ 2 i+o+]                                     ",
"                                          - &+)+~ ~ ( _ _ : < < < < < : _ _ ( ~ i+&+l+                                          ",
"                                                . (+8 = { v 2+) ! 2+7+9+= 8 (+f+                                                "};
