/* XPM */
static char * purple2_xpm[] = {
"64 64 233 2",
"  	c #FF00FF",
". 	c #FC62FA",
"+ 	c #F293F6",
"@ 	c #E8A5F6",
"# 	c #DEABF8",
"$ 	c #D4ABFA",
"% 	c #CFA6FA",
"& 	c #CBA1FA",
"* 	c #C99EFA",
"= 	c #C99DFA",
"- 	c #CEA5FA",
"; 	c #DDABF8",
"> 	c #E7A5F6",
", 	c #F684F7",
"' 	c #E6A7F7",
") 	c #D3A9FA",
"! 	c #C99CF9",
"~ 	c #C89CFA",
"{ 	c #C89BF9",
"] 	c #C79BF9",
"^ 	c #C899F9",
"/ 	c #E5A7F7",
"( 	c #FC56FB",
"_ 	c #EBA1F6",
": 	c #D5ABFA",
"< 	c #C89DFA",
"[ 	c #C799F9",
"} 	c #C698F9",
"| 	c #C697F9",
"1 	c #C596F8",
"2 	c #D4AAFA",
"3 	c #FC5DFA",
"4 	c #CDA5FA",
"5 	c #C798F9",
"6 	c #C797F8",
"7 	c #C595F8",
"8 	c #C495F8",
"9 	c #C493F8",
"0 	c #C393F8",
"a 	c #C492F8",
"b 	c #CDA4FA",
"c 	c #ED9FF6",
"d 	c #D1A8FA",
"e 	c #C496F9",
"f 	c #C392F8",
"g 	c #C391F7",
"h 	c #C390F7",
"i 	c #C290F7",
"j 	c #C28FF7",
"k 	c #C18FF7",
"l 	c #CFA7FA",
"m 	c #F781F7",
"n 	c #DBACF9",
"o 	c #C18DF7",
"p 	c #C08CF7",
"q 	c #C08BF6",
"r 	c #C08AF6",
"s 	c #DCABF8",
"t 	c #EE9CF6",
"u 	c #CEA6FA",
"v 	c #C28DF7",
"w 	c #BF89F6",
"x 	c #BF87F6",
"y 	c #BE87F6",
"z 	c #BE86F5",
"A 	c #BD86F6",
"B 	c #BE85F5",
"C 	c #ED9CF6",
"D 	c #FD40FD",
"E 	c #E7A6F6",
"F 	c #C18BF6",
"G 	c #BE89F6",
"H 	c #BD84F5",
"I 	c #BD82F5",
"J 	c #BC83F5",
"K 	c #BC81F5",
"L 	c #BC80F4",
"M 	c #BB80F4",
"N 	c #E6A6F7",
"O 	c #FC5EFA",
"P 	c #E3AAF7",
"Q 	c #BC84F5",
"R 	c #BB7FF4",
"S 	c #BA7EF4",
"T 	c #BA7CF4",
"U 	c #B97CF4",
"V 	c #B97BF3",
"W 	c #B97BF4",
"X 	c #E2AAF7",
"Y 	c #FC5FFA",
"Z 	c #E1AAF8",
"` 	c #C291F8",
" .	c #B87AF3",
"..	c #B879F3",
"+.	c #B777F3",
"@.	c #B776F3",
"#.	c #B775F2",
"$.	c #B675F2",
"%.	c #E0AAF8",
"&.	c #B673F2",
"*.	c #B672F2",
"=.	c #B574F2",
"-.	c #FD41FD",
";.	c #BD85F5",
">.	c #B571F1",
",.	c #B779F3",
"'.	c #B77AF3",
").	c #B87BF4",
"!.	c #B87CF4",
"~.	c #C18CF7",
"{.	c #B97AF3",
"].	c #B876F2",
"^.	c #B97EF4",
"/.	c #B980F5",
"(.	c #BA83F5",
"_.	c #BB84F6",
":.	c #BA85F6",
"<.	c #BB85F6",
"[.	c #BB86F6",
"}.	c #BA84F6",
"|.	c #BC86F6",
"1.	c #BD89F7",
"2.	c #BD8BF7",
"3.	c #BE8EF8",
"4.	c #BE8FF8",
"5.	c #BE90F8",
"6.	c #BC89F7",
"7.	c #BD8CF7",
"8.	c #BF92F9",
"9.	c #C095F9",
"0.	c #C097FA",
"a.	c #C198FA",
"b.	c #C19AFA",
"c.	c #DBABF9",
"d.	c #B97FF5",
"e.	c #BF91F8",
"f.	c #C096FA",
"g.	c #C39DFB",
"h.	c #C49FFB",
"i.	c #C5A2FC",
"j.	c #C5A4FD",
"k.	c #C5A5FD",
"l.	c #EC9FF6",
"m.	c #BE91F9",
"n.	c #C29BFB",
"o.	c #C7A9FD",
"p.	c #C7ACFE",
"q.	c #C8AFFF",
"r.	c #C9B1FF",
"s.	c #CAB2FF",
"t.	c #CFA5FA",
"u.	c #BA81F5",
"v.	c #BB88F6",
"w.	c #BF94F9",
"x.	c #C8ABFE",
"y.	c #CAB0FF",
"z.	c #CBB4FF",
"A.	c #CDB9FF",
"B.	c #CDBCFF",
"C.	c #CFBFFF",
"D.	c #CFC0FF",
"E.	c #D0C1FF",
"F.	c #C29CFB",
"G.	c #C4A3FC",
"H.	c #C7AAFE",
"I.	c #CCB7FF",
"J.	c #CEBEFF",
"K.	c #D0C3FF",
"L.	c #D1C8FF",
"M.	c #D3CBFF",
"N.	c #D4CFFF",
"O.	c #D4D1FF",
"P.	c #D5D1FF",
"Q.	c #CCA3FA",
"R.	c #C8ADFF",
"S.	c #CEBCFF",
"T.	c #D1C5FF",
"U.	c #DBD1FA",
"V.	c #E9D4EE",
"W.	c #F3D7E8",
"X.	c #FAD9E4",
"Y.	c #FEDBE5",
"Z.	c #FFDBE5",
"`.	c #C6A5FD",
" +	c #CBB8FF",
".+	c #D2CAFF",
"++	c #DDD1F8",
"@+	c #F0D5E8",
"#+	c #FEDCE6",
"$+	c #FEE3EF",
"%+	c #FCE9F9",
"&+	c #FBEEFF",
"*+	c #F9F2FF",
"=+	c #F9F3FF",
"-+	c #D3A8FA",
";+	c #CCB9FF",
">+	c #D4CEFF",
",+	c #EAD4ED",
"'+	c #FBDBE7",
")+	c #FDE5F2",
"!+	c #FAF0FF",
"~+	c #F8F7FF",
"{+	c #FAF8FF",
"]+	c #FBFAFF",
"^+	c #FCFBFF",
"/+	c #D6CEFD",
"(+	c #EFD6EA",
"_+	c #FFDFE9",
":+	c #FAEEFF",
"<+	c #F9F7FF",
"[+	c #FDFCFF",
"}+	c #FFFFFF",
"|+	c #E5A6F7",
"1+	c #FEE1EE",
"2+	c #FCFCFF",
"3+	c #D2A8FA",
"4+	c #FAF9FF",
"5+	c #F292F6",
"6+	c #E7A4F6",
"7+	c #DCAAF8",
"8+	c #C99FFA",
"9+	c #CDA3FA",
"0+	c #E6A4F6",
"a+	c #F192F6",
"b+	c #FC63FA",
"c+	c #D2A7F9",
"d+	c #E4A6F7",
"e+	c #CEA4FA",
"f+	c #EC9EF6",
"g+	c #DAAAF8",
"h+	c #E5A5F7",
"i+	c #E1A8F7",
"j+	c #DFA9F8",
"                                                . + @ # $ % & * = & - $ ; > + .                                                 ",
"                                          , ' ) = ! ~ { ] ] ^ ^ ^ ^ ^ ] ] { ~ ! ) / ,                                           ",
"                                    ( _ : < ~ { ^ [ } } | | | 1 1 1 | | | } } [ ^ { ~ 2 _ (                                     ",
"                                3 @ 4 ! { ^ 5 6 | 1 7 8 9 0 a a a a a 0 9 8 7 1 | 6 5 ^ { b > 3                                 ",
"                              c d ! ] [ } | e 8 0 f g h i j k k k k k j i h g f 0 8 e | } [ ] l c                               ",
"                          m n < { [ } 1 7 0 f h j k o p q q q r r r q q q p o k j h f 0 7 1 } [ { s m                           ",
"                        t u ~ ^ } 1 7 a g i v p q r w x y z A A B A A z y x w r q p v i g a 7 1 } ^ - C                         ",
"                    D E = { [ | 7 0 g i o F r G z B H I J K K L M L K K J I H B z G r F o i g 0 7 | [ { N D                     ",
"                  O P < ] } 1 8 f i o q r x B Q J M R S T U V V W V V U T S R M J Q B x r q o i f 8 1 } ] X Y                   ",
"                O Z < ] } 1 9 ` k p r x B I K R T V  ...+.@.#.$.$.$.#.@.+... .V T R K I B x r p k ` 9 1 } ] %.Y                 ",
"              D P < ] } e a h o q w A Q K S U  .+.#.&.*.*.=.&.$.$.$.&.=.*.*.&.#.+. .U S K Q A w q o h a e } ] X -.              ",
"              E < ] } 7 a i o r x ;.K R U ..@.&.>.&.@.,.'.).!.!.U !.!.).'.,.@.&.>.&.@...U R K ;.x r o i a 7 } ] N               ",
"            t = ] } e a i ~.r z Q M S {.].&.*.$.,.).^./.(._.:.<.[.<.:._.(./.^.).,.$.*.&.].{.S M Q z r ~.i a e } ] C             ",
"          m u { } 1 a i ~.r z I M T ..$.>.$...!./.}.|.1.2.3.4.4.5.4.4.3.2.1.|.}./.!...$.>.$...T M I z r ~.i a 1 } b m           ",
"          n ~ [ 1 9 h o r z I R V +.&.=.+.!./.:.6.7.5.8.9.0.a.b.b.b.a.0.9.8.5.7.6.:./.!.+.=.&.+.V R I z r o h 9 1 [ c.          ",
"        c < ^ | 8 ` o r z I R V +.*.$.'.d.}.6.3.e.f.b.g.h.i.j.k.k.k.j.i.h.g.b.f.e.3.6.}.d.'.$.*.+.V R I z r o ` 8 | ^ l.        ",
"      3 d { } 7 f k q x Q M V +.*.$.)./.[.2.m.f.n.h.j.o.p.q.r.s.s.s.r.q.p.o.j.h.n.f.m.2.[./.).$.*.+.V M Q x q k f 7 } t.3       ",
"      @ ! [ 1 0 i p w ;.M T +.*.$.).u.v.3.w.b.h.k.x.y.z.A.B.C.D.E.D.C.B.A.z.y.x.k.h.b.w.3.v.u.).$.*.+.T M ;.w p i 0 1 [ >       ",
"    ( 4 ] } 7 g o r A K S ..&.$.).u.v.4.9.F.G.H.r.I.J.K.L.M.N.O.P.O.N.M.L.K.J.I.r.H.G.F.9.4.v.u.).$.&...S K A r o g 7 } Q.(     ",
"    _ ! [ 1 a i q x Q R {.$.=.'./.v.4.f.g.k.R.z.S.T.M.U.V.W.X.Y.Z.Y.X.W.V.U.M.T.S.z.R.k.g.f.4.v./.'.=.$.{.R Q x q i a 1 [ _     ",
"    : { } 7 g o r B K U ].>.+.d.[.3.9.g.`.q. +E..+++@+#+$+%+&+*+=+*+&+%+$+#+@+++.+E. +q.`.g.9.3.[.d.+.>.].U K B r o g 7 } -+    ",
"  , < ^ | 0 i F x I S ..&.$.!.}.2.w.F.k.q.;+K.>+,+'+)+!+~+{+]+]+^+]+]+{+~+!+)+'+,+>+K.;+q.k.F.w.2.}.!.$.&...S I x F i 0 | ^ ,   ",
"  ' ~ 5 e f v r B K U @.*.../.6.m.b.G.R. +K./+(+_+:+<+]+[+}+}+}+}+}+}+}+[+]+<+:+_+(+/+K. +R.G.b.m.6./...*.@.U K B r v f e 5 |+  ",
"  ) { 6 8 h p G Q R  .&.$.!.:.3.f.h.H.z.E.>+(+1+*+{+2+}+}+}+}+}+}+}+}+}+}+}+2+{+*+1+(+>+E.z.H.h.f.3.:.!.$.&. .R Q G p h 8 6 3+  ",
". = ^ | 0 j q z J T +.>.,./.6.e.n.k.r.S..+,+_+*+4+}+}+}+}+}+}+}+}+}+}+}+}+}+}+}+4+*+_+,+.+S.r.k.n.e.6./.,.>.+.T J z q j 0 | ^ . ",
"+ ! [ 1 f k r B M V #.&.).}.7.f.h.x.I.T.++'+:+{+}+}+}+}+}+}+}+}+}+}+}+}+}+}+}+}+}+{+:+'+++T.I.x.h.f.7.}.).&.#.V M B r k f 1 [ 5+",
"@ ~ } 7 g o w H R  .&.@.^.|.5.b.j.y.J.M.@+)+<+2+}+}+}+}+}+}+}+}+}+}+}+}+}+}+}+}+}+2+<+)+@+M.J.y.j.b.5.|.^.@.&. .R H w o g 7 } 6+",
"# { } 8 h p x I S ..*.,./.1.8.g.o.z.K.U.#+!+]+}+}+}+}+}+}+}+}+}+}+}+}+}+}+}+}+}+}+}+]+!+#+U.K.z.o.g.8.1./.,.*...S I x p h 8 } 7+",
"$ ] | 9 i q y J T +.*.'.(.2.9.h.p.A.L.V.$+~+[+}+}+}+}+}+}+}+}+}+}+}+}+}+}+}+}+}+}+}+[+~+$+V.L.A.p.h.9.2.(.'.*.+.T J y q i 9 | -+",
"% ] | 0 j q z K U @.=.)._.3.0.i.q.B.M.W.%+{+}+}+}+}+}+}+}+}+}+}+}+}+}+}+}+}+}+}+}+}+}+{+%+W.M.B.q.i.0.3._.).=.@.U K z q j 0 | b ",
"& ^ | a k q A K V #.&.!.:.4.a.j.r.C.N.X.&+]+}+}+}+}+}+}+}+}+}+}+}+}+}+}+}+}+}+}+}+}+}+]+&+X.N.C.r.j.a.4.:.!.&.#.V K A q k a | 8+",
"* ^ 1 a k r A L V $.$.!.<.4.b.k.s.D.O.Y.*+]+}+}+}+}+}+}+}+}+}+}+}+}+}+}+}+}+}+}+}+}+}+]+*+Y.O.D.s.k.b.4.<.!.$.$.V L A r k a 1 ] ",
"= ^ 1 a k r B M W $.$.U [.5.b.k.s.E.P.Z.=+^+}+}+}+}+}+}+}+}+}+}+}+}+}+}+}+}+}+}+}+}+}+^+=+Z.P.E.s.k.b.5.[.U $.$.W M B r k a 1 ] ",
"& ^ 1 a k r A L V $.$.!.<.4.b.k.s.D.O.Y.*+]+}+}+}+}+}+}+}+}+}+}+}+}+}+}+}+}+}+}+}+}+}+]+*+Y.O.D.s.k.b.4.<.!.$.$.V L A r k a 1 8+",
"- ^ | a k q A K V #.&.!.:.4.a.j.r.C.N.X.&+]+}+}+}+}+}+}+}+}+}+}+}+}+}+}+}+}+}+}+}+}+}+]+&+X.N.C.r.j.a.4.:.!.&.#.V K A q k a | 9+",
"$ ] | 0 j q z K U @.=.)._.3.0.i.q.B.M.W.%+{+}+}+}+}+}+}+}+}+}+}+}+}+}+}+}+}+}+}+}+}+}+{+%+W.M.B.q.i.0.3._.).=.@.U K z q j 0 | -+",
"; ] | 9 i q y J T +.*.'.(.2.9.h.p.A.L.V.$+~+[+}+}+}+}+}+}+}+}+}+}+}+}+}+}+}+}+}+}+}+[+~+$+V.L.A.p.h.9.2.(.'.*.+.T J y q i 9 | 7+",
"> { } 8 h p x I S ..*.,./.1.8.g.o.z.K.U.#+!+]+}+}+}+}+}+}+}+}+}+}+}+}+}+}+}+}+}+}+}+]+!+#+U.K.z.o.g.8.1./.,.*...S I x p h 8 } 0+",
"+ ~ } 7 g o w H R  .&.@.^.|.5.b.j.y.J.M.@+)+<+2+}+}+}+}+}+}+}+}+}+}+}+}+}+}+}+}+}+2+<+)+@+M.J.y.j.b.5.|.^.@.&. .R H w o g 7 } a+",
". ! [ 1 f k r B M V #.&.).}.7.f.h.x.I.T.++'+:+{+}+}+}+}+}+}+}+}+}+}+}+}+}+}+}+}+}+{+:+'+++T.I.x.h.f.7.}.).&.#.V M B r k f 1 [ b+",
"  ) ^ | 0 j q z J T +.>.,./.6.e.n.k.r.S..+,+_+*+4+}+}+}+}+}+}+}+}+}+}+}+}+}+}+}+4+*+_+,+.+S.r.k.n.e.6./.,.>.+.T J z q j 0 | c+  ",
"  / { 6 8 h p G Q R  .&.$.!.:.3.f.h.H.z.E.>+(+1+*+{+2+}+}+}+}+}+}+}+}+}+}+}+2+{+*+1+(+>+E.z.H.h.f.3.:.!.$.&. .R Q G p h 8 6 d+  ",
"  , ~ 5 e f v r B K U @.*.../.6.m.b.G.R. +K./+(+_+:+<+]+[+}+}+}+}+}+}+}+[+]+<+:+_+(+/+K. +R.G.b.m.6./...*.@.U K B r v f e 5 ,   ",
"    2 ^ | 0 i F x I S ..&.$.!.}.2.w.F.k.q.;+K.>+,+'+)+!+~+{+]+]+^+]+]+{+~+!+)+'+,+>+K.;+q.k.F.w.2.}.!.$.&...S I x F i 0 | 3+    ",
"    _ { } 7 g o r B K U ].>.+.d.[.3.9.g.`.q. +E..+++@+#+$+%+&+*+=+*+&+%+$+#+@+++.+E. +q.`.g.9.3.[.d.+.>.].U K B r o g 7 } _     ",
"    ( b [ 1 a i q x Q R {.$.=.'./.v.4.f.g.k.R.z.S.T.M.U.V.W.X.Y.Z.Y.X.W.V.U.M.T.S.z.R.k.g.f.4.v./.'.=.$.{.R Q x q i a 1 & (     ",
"      > ] } 7 g o r A K S ..&.$.).u.v.4.9.F.G.H.r.I.J.K.L.M.N.O.P.O.N.M.L.K.J.I.r.H.G.F.9.4.v.u.).$.&...S K A r o g 7 } 0+      ",
"      3 l [ 1 0 i p w ;.M T +.*.$.).u.v.3.w.b.h.k.x.y.z.A.B.C.D.E.D.C.B.A.z.y.x.k.h.b.w.3.v.u.).$.*.+.T M ;.w p i 0 1 e+3       ",
"        c { } 7 f k q x Q M V +.*.$.)./.[.2.m.f.n.h.j.o.p.q.r.s.s.s.r.q.p.o.j.h.n.f.m.2.[./.).$.*.+.V M Q x q k f 7 } f+        ",
"          s ^ | 8 ` o r z I R V +.*.$.'.d.}.6.3.e.f.b.g.h.i.j.k.k.k.j.i.h.g.b.f.e.3.6.}.d.'.$.*.+.V R I z r o ` 8 | g+          ",
"          m - [ 1 9 h o r z I R V +.&.=.+.!./.:.6.7.5.8.9.0.a.b.b.b.a.0.9.8.5.7.6.:./.!.+.=.&.+.V R I z r o h 9 1 Q.m           ",
"            C { } 1 a i ~.r z I M T ..$.>.$...!./.}.|.1.2.3.4.4.5.4.4.3.2.1.|.}./.!...$.>.$...T M I z r ~.i a 1 } C             ",
"              N ] } e a i ~.r z Q M S {.].&.*.$.,.).^./.(._.:.<.[.<.:._.(./.^.).,.$.*.&.].{.S M Q z r ~.i a e } h+              ",
"              D X ] } 7 a i o r x ;.K R U ..@.&.>.&.@.,.'.).!.!.U !.!.).'.,.@.&.>.&.@...U R K ;.x r o i a 7 } i+-.              ",
"                Y %.] } e a h o q w A Q K S U  .+.#.&.*.*.=.&.$.$.$.&.=.*.*.&.#.+. .U S K Q A w q o h a e } j+Y                 ",
"                  Y X ] } 1 9 ` k p r x B I K R T V  ...+.@.#.$.$.$.#.@.+... .V T R K I B x r p k ` 9 1 } i+Y                   ",
"                    -.N ] } 1 8 f i o q r x B Q J M R S T U V V W V V U T S R M J Q B x r q o i f 8 1 } h+-.                    ",
"                        C b [ | 7 0 g i o F r G z B H I J K K L M L K K J I H B z G r F o i g 0 7 | Q.C                         ",
"                          m c.^ } 1 7 a g i v p q r w x y z A A B A A z y x w r q p v i g a 7 1 } g+m                           ",
"                              l.t.[ } 1 7 0 f h j k o p q q q r r r q q q p o k j h f 0 7 1 } e+f+                              ",
"                                3 > Q.[ } | e 8 0 f g h i j k k k k k j i h g f 0 8 e | } & 0+3                                 ",
"                                    ( _ -+^ 5 6 | 1 7 8 9 0 a a a a a 0 9 8 7 1 | 6 5 3+_ (                                     ",
"                                          , |+3+^ [ } } | | | 1 1 1 | | | } } [ c+d+,                                           ",
"                                                . 5+6+7+-+b 8+] ] 8+9+-+7+0+a+b+                                                "};
