/* XPM */
static char * blue6_xpm[] = {
"64 64 220 2",
"  	c #FF00FF",
". 	c #F769FF",
"+ 	c #E99FFF",
"@ 	c #DBB7FF",
"# 	c #CFC4FF",
"$ 	c #C4C9FF",
"% 	c #BBCAFF",
"& 	c #B5CAFF",
"* 	c #B1CAFF",
"= 	c #B4CAFF",
"- 	c #C3C9FF",
"; 	c #CEC3FF",
"> 	c #E89FFF",
", 	c #EF8EFF",
"' 	c #D9BAFF",
") 	c #C2C9FF",
"! 	c #B1C9FF",
"~ 	c #B0C9FF",
"{ 	c #AFC9FF",
"] 	c #AFC8FF",
"^ 	c #AEC8FF",
"/ 	c #EE8EFF",
"( 	c #F95BFF",
"_ 	c #E0B1FF",
": 	c #ADC7FF",
"< 	c #ACC7FF",
"[ 	c #ACC6FF",
"} 	c #ABC6FF",
"| 	c #DFB1FF",
"1 	c #F862FF",
"2 	c #B9CBFF",
"3 	c #ABC5FF",
"4 	c #AAC5FF",
"5 	c #A9C4FF",
"6 	c #A8C4FF",
"7 	c #B8CAFF",
"8 	c #F863FF",
"9 	c #E2AEFF",
"0 	c #BDCAFF",
"a 	c #AEC7FF",
"b 	c #A7C3FF",
"c 	c #A6C2FF",
"d 	c #A5C2FF",
"e 	c #BCC9FF",
"f 	c #E1AEFF",
"g 	c #F08AFF",
"h 	c #CDC5FF",
"i 	c #A8C3FF",
"j 	c #A4C1FF",
"k 	c #A3C0FF",
"l 	c #A2C0FF",
"m 	c #A2BFFF",
"n 	c #CCC4FF",
"o 	c #EF8AFF",
"p 	c #E3ABFF",
"q 	c #A5C1FF",
"r 	c #A1BFFF",
"s 	c #A0BEFF",
"t 	c #9FBDFF",
"u 	c #9EBDFF",
"v 	c #B9CAFF",
"w 	c #FC44FF",
"x 	c #DAB9FF",
"y 	c #9FBEFF",
"z 	c #9DBCFF",
"A 	c #9CBCFF",
"B 	c #9CBBFF",
"C 	c #9BBBFF",
"D 	c #9BBAFF",
"E 	c #D9B9FF",
"F 	c #F864FF",
"G 	c #D5BFFF",
"H 	c #99BAFF",
"I 	c #99B9FF",
"J 	c #98B9FF",
"K 	c #97B8FF",
"L 	c #96B8FF",
"M 	c #D4BFFF",
"N 	c #F865FF",
"O 	c #D3C1FF",
"P 	c #95B7FF",
"Q 	c #94B6FF",
"R 	c #93B6FF",
"S 	c #93B5FF",
"T 	c #92B5FF",
"U 	c #92B4FF",
"V 	c #D2C0FF",
"W 	c #91B4FF",
"X 	c #90B3FF",
"Y 	c #8FB2FF",
"Z 	c #8EB2FF",
"` 	c #8DB1FF",
" .	c #8FB3FF",
"..	c #8CB0FF",
"+.	c #8BB0FF",
"@.	c #8AAFFF",
"#.	c #89AEFF",
"$.	c #88AEFF",
"%.	c #88ADFF",
"&.	c #87ADFF",
"*.	c #96B7FF",
"=.	c #85ACFF",
"-.	c #84ABFF",
";.	c #83AAFF",
">.	c #82AAFF",
",.	c #82A9FF",
"'.	c #81A9FF",
").	c #E2ABFF",
"!.	c #9ABAFF",
"~.	c #95B6FF",
"{.	c #7FA8FF",
"].	c #7EA7FF",
"^.	c #7CA6FF",
"/.	c #7CA5FF",
"(.	c #7BA5FF",
"_.	c #B9C9FF",
":.	c #80A8FF",
"<.	c #7DA6FF",
"[.	c #7BA6FF",
"}.	c #7DA8FF",
"|.	c #7EAAFF",
"1.	c #7FABFF",
"2.	c #80ACFF",
"3.	c #86ADFF",
"4.	c #7DA9FF",
"5.	c #82AFFF",
"6.	c #84B1FF",
"7.	c #85B4FF",
"8.	c #87B5FF",
"9.	c #87B6FF",
"0.	c #7AA4FF",
"a.	c #81ADFF",
"b.	c #89B9FF",
"c.	c #8CBCFF",
"d.	c #8DBEFF",
"e.	c #8FC0FF",
"f.	c #90C1FF",
"g.	c #90C2FF",
"h.	c #85ABFF",
"i.	c #7CA7FF",
"j.	c #8BBBFF",
"k.	c #92C4FF",
"l.	c #94C8FF",
"m.	c #97CBFF",
"n.	c #98CDFF",
"o.	c #99CEFF",
"p.	c #9ACFFF",
"q.	c #DAB7FF",
"r.	c #81AEFF",
"s.	c #86B4FF",
"t.	c #8ABAFF",
"u.	c #93C6FF",
"v.	c #9BD0FF",
"w.	c #9ED5FF",
"x.	c #A1D8FF",
"y.	c #A3DBFF",
"z.	c #A4DDFF",
"A.	c #B7C9FF",
"B.	c #F95CFF",
"C.	c #8CBDFF",
"D.	c #9CD2FF",
"E.	c #A5DEFF",
"F.	c #A9E4FF",
"G.	c #ADE8FF",
"H.	c #AFECFF",
"I.	c #B1EEFF",
"J.	c #DFB0FF",
"K.	c #88B7FF",
"L.	c #A0D7FF",
"M.	c #A6DFFF",
"N.	c #ACE7FF",
"O.	c #B6F5FF",
"P.	c #BAFAFF",
"Q.	c #BDFFFF",
"R.	c #BFFFFF",
"S.	c #C0FFFF",
"T.	c #C1C8FF",
"U.	c #94C7FF",
"V.	c #A2DAFF",
"W.	c #B8F7FF",
"X.	c #C5FFFF",
"Y.	c #CAFFFF",
"Z.	c #CEFFFF",
"`.	c #D0FFFF",
" +	c #D1FFFF",
".+	c #ABE6FF",
"++	c #B4F2FF",
"@+	c #BDFEFF",
"#+	c #D6FFFF",
"$+	c #DCFFFF",
"%+	c #E2FFFF",
"&+	c #E5FFFF",
"*+	c #E6FFFF",
"=+	c #D8BAFF",
"-+	c #B5F3FF",
";+	c #D5FFFF",
">+	c #E0FFFF",
",+	c #EAFFFF",
"'+	c #F3FFFF",
")+	c #FAFFFF",
"!+	c #FEFFFF",
"~+	c #FFFFFF",
"{+	c #C0C8FF",
"]+	c #CBFFFF",
"^+	c #D8FFFF",
"/+	c #F4FFFF",
"(+	c #E8FFFF",
"_+	c #CDC3FF",
":+	c #C2C8FF",
"<+	c #B2C9FF",
"[+	c #B6C9FF",
"}+	c #BBC8FF",
"|+	c #E0AEFF",
"1+	c #CBC4FF",
"2+	c #B8C9FF",
"3+	c #EF8BFF",
"4+	c #D8B9FF",
"5+	c #D3BEFF",
"6+	c #FC45FF",
"7+	c #D1C0FF",
"                                                . + @ # $ % & * * = % - ; @ > .                                                 ",
"                                          , ' ) ! ~ { ] ] ^ ^ ^ ^ ^ ^ ^ ] ] { ~ ) ' /                                           ",
"                                    ( _ - ~ ~ ] ^ : : < [ [ } } } } } [ [ < : : ^ ] ~ ) | (                                     ",
"                                1 @ 2 ~ ] ^ : < [ 3 4 4 5 5 5 6 6 6 5 5 5 4 4 3 [ < : ^ ] 7 @ 8                                 ",
"                              9 0 ~ ] a : [ 3 4 5 6 b b c c c d d d c c c b b 6 5 4 3 [ : a ] e f                               ",
"                          g h ~ ] a < } 4 5 i b c d j j k k l l m l l k k j j d c b i 5 4 } < a ] n o                           ",
"                        p % ~ ^ : } 4 5 b c q j k m r s s t t u u u t t s s r m k j q c b 5 4 } : ^ v p                         ",
"                    w x ! ] : [ 4 5 b c j k m s y u z A B C C D D D C C B A z u y s m k j c b 5 4 [ : ] E w                     ",
"                  F G ~ ] : } 4 6 c q k r s u z B D H I J K K L L L K K J I H D B z u s r k q c 6 4 } : ] M N                   ",
"                F O ~ ^ : 3 5 b d j m s u A C H J K P Q R S T U U U T S R Q P K J H C A u s m j d b 5 3 : ^ V N                 ",
"              w G ~ ^ < 3 5 b q k r t z C I K P Q T W X Y Z ` ` ` ` ` Z Y X W T Q P K I C z t r k q b 5 3 < ^ M w               ",
"              x ~ ^ < 4 6 c j l s u C H K P S W  .Z ..+.@.#.$.%.&.%.$.#.@.+...Z  .W S P K H C u s l j c 6 4 < ^ E               ",
"            p ! ] : 3 6 c j m y z D J *.S W Y ` @.$.&.=.-.;.>.,.'.,.>.;.-.=.&.$.@.` Y W S *.J D z y m j c 6 3 : ] ).            ",
"          g % ] : 3 5 c j m t A !.K ~.U  .` @.%.=.;.'.{.].^./.(.(.(./.^.].{.'.;.=.%.@.`  .U ~.K !.A t m j c 5 3 : _.o           ",
"          h ~ : } 5 b j m t A !.K Q W Z +.$.=.>.:.<.(.[.}.|.1.2.2.2.1.|.}.[.(.<.:.>.=.$.+.Z W Q K !.A t m j b 5 } : n           ",
"        9 ~ ^ [ 4 b q l y A !.K R X ` @.3.;.:.^.(.4.2.5.6.7.8.9.9.9.8.7.6.5.2.4.(.^.:.;.3.@.` X R K !.A y l q b 4 [ ^ f         ",
"      1 0 ] : 4 6 d k s z !.K R X ` #.=.'.].0.4.a.6.8.b.c.d.e.f.g.f.e.d.c.b.8.6.a.4.0.].'.=.#.` X R K !.z s k d 6 4 : e 8       ",
"      @ ~ a } 5 c j r u D K Q X ` #.h.'.^.i.2.6.9.j.e.k.l.m.n.o.p.o.n.m.l.k.e.j.9.6.2.i.^.'.h.#.` X Q K D u r j c 5 } a q.      ",
"    ( 2 ] < 4 b q m t C J ~.W ` #.h.:./.}.r.s.t.e.u.m.v.w.x.y.z.z.z.y.x.w.v.m.u.e.t.s.r.}./.:.h.#.` W ~.J C t m q b 4 < A.B.    ",
"    _ ~ a } 5 c k s z H *.U Z @.=.'./.4.5.9.C.k.m.D.x.E.F.G.H.I.I.I.H.G.F.E.x.D.m.k.C.9.5.4./.'.=.@.Z U *.H z s k c 5 } a J.    ",
"    - ] : 4 b j r u C K S  .+.3.'.^.}.5.K.d.u.p.L.M.N.I.O.P.Q.R.S.R.Q.P.O.I.N.M.L.p.u.d.K.5.}.^.'.3.+. .S K C u r j b 4 : T.    ",
"  , ~ ^ [ 5 c k s A I P W ` $.;.].i.r.9.d.U.v.V.F.I.W.R.X.Y.Z.`. +`.Z.Y.X.R.W.I.F.V.v.U.d.9.r.i.].;.$.` W P I A s k c 5 [ ^ /   ",
"  ' ~ : 3 i q m u C K S Y @.=.:.0.2.s.C.u.v.y..+++@+X.Z.#+$+%+&+*+&+%+$+#+Z.X.@+++.+y.v.u.C.s.2.0.:.=.@.Y S K C u m q i 3 : =+  ",
"  ) ] < 4 b j s z H P W ` %.>.^.4.6.t.k.p.V..+-+R.Y.;+>+,+'+)+!+~+!+)+'+,+>+;+Y.R.-+.+V.p.k.t.6.4.^.>.%.` W P H z s j b 4 < {+  ",
". ! ^ [ 5 c k y B J Q  .@.=.:.(.a.9.e.m.L.F.++R.]+^+*+/+~+~+~+~+~+~+~+~+~+/+*+^+]+R.++F.L.m.e.9.a.(.:.=.@. .Q J B y k c 5 [ ^ . ",
"+ ~ : 3 6 d m u D K T Z $.;.<.4.6.j.u.D.M.I.@+Y.^+(+)+~+~+~+~+~+~+~+~+~+~+~+)+(+^+Y.@+I.M.D.u.j.6.4.<.;.$.Z T K D u m d 6 3 : > ",
"@ { : 4 b j r z H P W ..&.'.(.2.8.e.m.x.N.W.X.;+*+)+~+~+~+~+~+~+~+~+~+~+~+~+~+)+*+;+X.W.N.x.m.e.8.2.(.'.&...W P H z r j b 4 : q.",
"# ] < 4 b j s A I Q X +.=.{.[.5.b.k.v.E.I.R.Z.>+/+~+~+~+~+~+~+~+~+~+~+~+~+~+~+~+/+>+Z.R.I.E.v.k.b.5.[.{.=.+.X Q I A s j b 4 < _+",
"$ ] [ 5 c k s B J R Y @.-.].}.6.c.l.w.F.O.X.#+,+~+~+~+~+~+~+~+~+~+~+~+~+~+~+~+~+~+,+#+X.O.F.w.l.c.6.}.].-.@.Y R J B s k c 5 [ :+",
"% ^ [ 5 c k t C K S Z #.;.^.|.7.d.m.x.G.P.Y.$+'+~+~+~+~+~+~+~+~+~+~+~+~+~+~+~+~+~+'+$+Y.P.G.x.m.d.7.|.^.;.#.Z S K C t k c 5 [ _.",
"& ^ } 5 c l t C K T ` $.>./.1.8.e.n.y.H.Q.Z.%+)+~+~+~+~+~+~+~+~+~+~+~+~+~+~+~+~+~+)+%+Z.Q.H.y.n.e.8.1./.>.$.` T K C t l c 5 } <+",
"* ^ } 6 d l u D L U ` %.,.(.2.9.f.o.z.I.R.`.&+!+~+~+~+~+~+~+~+~+~+~+~+~+~+~+~+~+~+!+&+`.R.I.z.o.f.9.2.(.,.%.` U L D u l d 6 } ^ ",
"* ^ } 6 d m u D L U ` &.'.(.2.9.g.p.z.I.S. +*+~+~+~+~+~+~+~+~+~+~+~+~+~+~+~+~+~+~+~+*+ +S.I.z.p.g.9.2.(.'.&.` U L D u m d 6 } ^ ",
"= ^ } 6 d l u D L U ` %.,.(.2.9.f.o.z.I.R.`.&+!+~+~+~+~+~+~+~+~+~+~+~+~+~+~+~+~+~+!+&+`.R.I.z.o.f.9.2.(.,.%.` U L D u l d 6 } <+",
"% ^ } 5 c l t C K T ` $.>./.1.8.e.n.y.H.Q.Z.%+)+~+~+~+~+~+~+~+~+~+~+~+~+~+~+~+~+~+)+%+Z.Q.H.y.n.e.8.1./.>.$.` T K C t l c 5 } _.",
"- ^ [ 5 c k t C K S Z #.;.^.|.7.d.m.x.G.P.Y.$+'+~+~+~+~+~+~+~+~+~+~+~+~+~+~+~+~+~+'+$+Y.P.G.x.m.d.7.|.^.;.#.Z S K C t k c 5 [ :+",
"; ] [ 5 c k s B J R Y @.-.].}.6.c.l.w.F.O.X.#+,+~+~+~+~+~+~+~+~+~+~+~+~+~+~+~+~+~+,+#+X.O.F.w.l.c.6.}.].-.@.Y R J B s k c 5 [ _+",
"@ ] < 4 b j s A I Q X +.=.{.[.5.b.k.v.E.I.R.Z.>+/+~+~+~+~+~+~+~+~+~+~+~+~+~+~+~+/+>+Z.R.I.E.v.k.b.5.[.{.=.+.X Q I A s j b 4 < q.",
"> { : 4 b j r z H P W ..&.'.(.2.8.e.m.x.N.W.X.;+*+)+~+~+~+~+~+~+~+~+~+~+~+~+~+)+*+;+X.W.N.x.m.e.8.2.(.'.&...W P H z r j b 4 : > ",
". ~ : 3 6 d m u D K T Z $.;.<.4.6.j.u.D.M.I.@+Y.^+(+)+~+~+~+~+~+~+~+~+~+~+~+)+(+^+Y.@+I.M.D.u.j.6.4.<.;.$.Z T K D u m d 6 3 : . ",
"  ) ^ [ 5 c k y B J Q  .@.=.:.(.a.9.e.m.L.F.++R.]+^+*+/+~+~+~+~+~+~+~+~+~+/+*+^+]+R.++F.L.m.e.9.a.(.:.=.@. .Q J B y k c 5 [ {+  ",
"  ' ] < 4 b j s z H P W ` %.>.^.4.6.t.k.p.V..+-+R.Y.;+>+,+'+)+!+~+!+)+'+,+>+;+Y.R.-+.+V.p.k.t.6.4.^.>.%.` W P H z s j b 4 < =+  ",
"  / ~ : 3 i q m u C K S Y @.=.:.0.2.s.C.u.v.y..+++@+X.Z.#+$+%+&+*+&+%+$+#+Z.X.@+++.+y.v.u.C.s.2.0.:.=.@.Y S K C u m q i 3 : /   ",
"    ) ^ [ 5 c k s A I P W ` $.;.].i.r.9.d.U.v.V.F.I.W.R.X.Y.Z.`. +`.Z.Y.X.R.W.I.F.V.v.U.d.9.r.i.].;.$.` W P I A s k c 5 [ T.    ",
"    | ] : 4 b j r u C K S  .+.3.'.^.}.5.K.d.u.p.L.M.N.I.O.P.Q.R.S.R.Q.P.O.I.N.M.L.p.u.d.K.5.}.^.'.3.+. .S K C u r j b 4 : J.    ",
"    ( 7 a } 5 c k s z H *.U Z @.=.'./.4.5.9.C.k.m.D.x.E.F.G.H.I.I.I.H.G.F.E.x.D.m.k.C.9.5.4./.'.=.@.Z U *.H z s k c 5 } [+B.    ",
"      @ ] < 4 b q m t C J ~.W ` #.h.:./.}.r.s.t.e.u.m.v.w.x.y.z.z.z.y.x.w.v.m.u.e.t.s.r.}./.:.h.#.` W ~.J C t m q b 4 < q.      ",
"      8 e a } 5 c j r u D K Q X ` #.h.'.^.i.2.6.9.j.e.k.l.m.n.o.p.o.n.m.l.k.e.j.9.6.2.i.^.'.h.#.` X Q K D u r j c 5 } }+8       ",
"        f ] : 4 6 d k s z !.K R X ` #.=.'.].0.4.a.6.8.b.c.d.e.f.g.f.e.d.c.b.8.6.a.4.0.].'.=.#.` X R K !.z s k d 6 4 : |+        ",
"          n ^ [ 4 b q l y A !.K R X ` @.3.;.:.^.(.4.2.5.6.7.8.9.9.9.8.7.6.5.2.4.(.^.:.;.3.@.` X R K !.A y l q b 4 [ 1+          ",
"          o v : } 5 b j m t A !.K Q W Z +.$.=.>.:.<.(.[.}.|.1.2.2.2.1.|.}.[.(.<.:.>.=.$.+.Z W Q K !.A t m j b 5 } 2+3+          ",
"            p ] : 3 5 c j m t A !.K ~.U  .` @.%.=.;.'.{.].^./.(.(.(./.^.].{.'.;.=.%.@.`  .U ~.K !.A t m j c 5 3 : ).            ",
"              E ] : 3 6 c j m y z D J *.S W Y ` @.$.&.=.-.;.>.,.'.,.>.;.-.=.&.$.@.` Y W S *.J D z y m j c 6 3 : 4+              ",
"              w M ^ < 4 6 c j l s u C H K P S W  .Z ..+.@.#.$.%.&.%.$.#.@.+...Z  .W S P K H C u s l j c 6 4 < 5+6+              ",
"                N V ^ < 3 5 b q k r t z C I K P Q T W X Y Z ` ` ` ` ` Z Y X W T Q P K I C z t r k q b 5 3 < 7+N                 ",
"                  N M ^ : 3 5 b d j m s u A C H J K P Q R S T U U U T S R Q P K J H C A u s m j d b 5 3 : 5+N                   ",
"                    w E ] : } 4 6 c q k r s u z B D H I J K K L L L K K J I H D B z u s r k q c 6 4 } : 4+6+                    ",
"                        )._.: [ 4 5 b c j k m s y u z A B C C D D D C C B A z u y s m k j c b 5 4 [ 2+).                        ",
"                          o n ^ : } 4 5 b c q j k m r s s t t u u u t t s s r m k j q c b 5 4 } : 1+3+                          ",
"                              f e a < } 4 5 i b c d j j k k l l m l l k k j j d c b i 5 4 } < }+|+                              ",
"                                8 q.A.a : [ 3 4 5 6 b b c c c d d d c c c b b 6 5 4 3 [ : [+q.8                                 ",
"                                    B.J.T.^ : < [ 3 4 4 5 5 5 6 6 6 5 5 5 4 4 3 [ < : T.J.B.                                    ",
"                                          / =+{+^ : : < [ [ } } } } } [ [ < : : {+=+/                                           ",
"                                                . > q._+:+_.<+^ ^ <+_.:+_+q.> .                                                 "};
