/* XPM */
static char * blue2_xpm[] = {
"64 64 236 2",
"  	c #FF00FF",
". 	c #F666FF",
"+ 	c #E599FF",
"@ 	c #D6ACFF",
"# 	c #C7B3FF",
"$ 	c #B9B4FF",
"% 	c #AFB1FF",
"& 	c #A7ADFF",
"* 	c #A2ABFF",
"= 	c #A2AAFF",
"- 	c #AEB0FF",
"; 	c #C6B3FF",
"> 	c #D5ACFF",
", 	c #EC89FF",
"' 	c #D3AEFF",
") 	c #B7B3FF",
"! 	c #A1A9FF",
"~ 	c #A0A9FF",
"{ 	c #A0A8FF",
"] 	c #9FA8FF",
"^ 	c #9FA7FF",
"/ 	c #D2AEFF",
"( 	c #F85AFF",
"_ 	c #DBA7FF",
": 	c #A1AAFF",
"< 	c #9EA7FF",
"[ 	c #9DA6FF",
"} 	c #9CA5FF",
"| 	c #9BA4FF",
"1 	c #B8B3FF",
"2 	c #F761FF",
"3 	c #ACB0FF",
"4 	c #9EA6FF",
"5 	c #9DA5FF",
"6 	c #9AA3FF",
"7 	c #99A3FF",
"8 	c #99A2FF",
"9 	c #98A2FF",
"0 	c #98A1FF",
"a 	c #ABAFFF",
"b 	c #DDA5FF",
"c 	c #B2B2FF",
"d 	c #9AA4FF",
"e 	c #97A1FF",
"f 	c #97A0FF",
"g 	c #969FFF",
"h 	c #959FFF",
"i 	c #959EFF",
"j 	c #949EFF",
"k 	c #B0B1FF",
"l 	c #ED86FF",
"m 	c #C4B4FF",
"n 	c #939DFF",
"o 	c #929CFF",
"p 	c #919BFF",
"q 	c #909AFF",
"r 	c #C4B3FF",
"s 	c #DFA2FF",
"t 	c #AEB1FF",
"u 	c #949DFF",
"v 	c #8F99FF",
"w 	c #8E98FF",
"x 	c #8D98FF",
"y 	c #8D97FF",
"z 	c #8C97FF",
"A 	c #8C96FF",
"B 	c #ADB0FF",
"C 	c #DEA2FF",
"D 	c #FB43FF",
"E 	c #D4ADFF",
"F 	c #929BFF",
"G 	c #8E99FF",
"H 	c #8B95FF",
"I 	c #8A94FF",
"J 	c #8994FF",
"K 	c #8893FF",
"L 	c #8892FF",
"M 	c #8792FF",
"N 	c #D3ADFF",
"O 	c #F762FF",
"P 	c #CEB1FF",
"Q 	c #8A95FF",
"R 	c #8691FF",
"S 	c #8590FF",
"T 	c #848FFF",
"U 	c #838FFF",
"V 	c #838EFF",
"W 	c #828EFF",
"X 	c #CDB1FF",
"Y 	c #F763FF",
"Z 	c #CCB2FF",
"` 	c #96A0FF",
" .	c #818DFF",
"..	c #808CFF",
"+.	c #7F8BFF",
"@.	c #7E8AFF",
"#.	c #7E89FF",
"$.	c #7D89FF",
"%.	c #CBB2FF",
"&.	c #7C88FF",
"*.	c #7B87FF",
"=.	c #7B88FF",
"-.	c #FB44FF",
";.	c #8B96FF",
">.	c #8993FF",
",.	c #818CFF",
"'.	c #7A86FF",
").	c #7F8CFF",
"!.	c #808DFF",
"~.	c #818EFF",
"{.	c #828FFF",
"].	c #939CFF",
"^.	c #828DFF",
"/.	c #7F8AFF",
"(.	c #8390FF",
"_.	c #8592FF",
":.	c #8694FF",
"<.	c #8895FF",
"[.	c #8896FF",
"}.	c #8996FF",
"|.	c #8997FF",
"1.	c #8795FF",
"2.	c #8A97FF",
"3.	c #8C99FF",
"4.	c #8D9BFF",
"5.	c #8F9DFF",
"6.	c #909EFF",
"7.	c #909FFF",
"8.	c #ACAFFF",
"9.	c #8B99FF",
"0.	c #8E9CFF",
"a.	c #93A1FF",
"b.	c #95A3FF",
"c.	c #96A5FF",
"d.	c #97A6FF",
"e.	c #98A7FF",
"f.	c #C3B3FF",
"g.	c #8491FF",
"h.	c #92A0FF",
"i.	c #95A4FF",
"j.	c #9BAAFF",
"k.	c #9DACFF",
"l.	c #9FAEFF",
"m.	c #A0B0FF",
"n.	c #A1B1FF",
"o.	c #DCA5FF",
"p.	c #91A0FF",
"q.	c #99A8FF",
"r.	c #A4B4FF",
"s.	c #A6B7FF",
"t.	c #A8B9FF",
"u.	c #AABBFF",
"v.	c #ABBCFF",
"w.	c #B0B0FF",
"x.	c #8693FF",
"y.	c #8A98FF",
"z.	c #93A2FF",
"A.	c #A6B6FF",
"B.	c #AABAFF",
"C.	c #ADBEFF",
"D.	c #B1C2FF",
"E.	c #B3C5FF",
"F.	c #B5C7FF",
"G.	c #B6C8FF",
"H.	c #B7C9FF",
"I.	c #9AA9FF",
"J.	c #9FAFFF",
"K.	c #A5B5FF",
"L.	c #AFC0FF",
"M.	c #B4C6FF",
"N.	c #B8CBFF",
"O.	c #BCCFFF",
"P.	c #BFD2FF",
"Q.	c #C2D5FF",
"R.	c #C3D7FF",
"S.	c #C4D7FF",
"T.	c #AAAEFF",
"U.	c #A7B8FF",
"V.	c #B4C5FF",
"W.	c #BACCFF",
"X.	c #C5D8FF",
"Y.	c #C9DDFF",
"Z.	c #CDE2FF",
"`.	c #D0E5FF",
" +	c #D2E7FF",
".+	c #D3E8FF",
"++	c #DAA7FF",
"@+	c #A2B1FF",
"#+	c #AFC1FF",
"$+	c #BED1FF",
"%+	c #C5D9FF",
"&+	c #CCE0FF",
"*+	c #D9EEFF",
"=+	c #DDF3FF",
"-+	c #E1F7FF",
";+	c #E4FAFF",
">+	c #E4FBFF",
",+	c #B7B2FF",
"'+	c #B0C2FF",
")+	c #C1D4FF",
"!+	c #DBF0FF",
"~+	c #E3F9FF",
"{+	c #EAFFFF",
"]+	c #F0FFFF",
"^+	c #F5FFFF",
"/+	c #F8FFFF",
"(+	c #F9FFFF",
"_+	c #D6EBFF",
":+	c #E0F7FF",
"<+	c #EBFFFF",
"[+	c #FEFFFF",
"}+	c #FFFFFF",
"|+	c #D2ADFF",
"1+	c #D7EDFF",
"2+	c #FDFFFF",
"3+	c #B5B2FF",
"4+	c #F2FFFF",
"5+	c #E598FF",
"6+	c #D5ABFF",
"7+	c #C5B2FF",
"8+	c #A4ABFF",
"9+	c #ACAEFF",
"0+	c #D4ABFF",
"a+	c #E498FF",
"b+	c #F667FF",
"c+	c #B5B1FF",
"d+	c #D1ADFF",
"e+	c #B6B2FF",
"f+	c #A9ADFF",
"g+	c #AEAFFF",
"h+	c #DCA4FF",
"i+	c #C2B2FF",
"j+	c #ABAEFF",
"k+	c #D2ACFF",
"l+	c #CCB0FF",
"m+	c #CAB1FF",
"                                                . + @ # $ % & * = & - $ ; > + .                                                 ",
"                                          , ' ) = ! ~ { ] ] ^ ^ ^ ^ ^ ] ] { ~ ! ) / ,                                           ",
"                                    ( _ $ : ~ { ^ < [ [ } } } | | | } } } [ [ < ^ { ~ 1 _ (                                     ",
"                                2 @ 3 ! { ^ 4 5 } | 6 7 8 9 0 0 0 0 0 9 8 7 6 | } 5 4 ^ { a > 2                                 ",
"                              b c ! ] < [ } d 7 9 e f g h i j j j j j i h g f e 9 7 d } [ < ] k b                               ",
"                          l m : { < [ | 6 9 e g i j n o p p p q q q p p p o n j i g e 9 6 | [ < { r l                           ",
"                        s t ~ ^ [ | 6 0 f h u o p q v w x y z z A z z y x w v q p o u h f 0 6 | [ ^ B C                         ",
"                    D E = { < } 6 9 f h n F q G y A H I J K K L M L K K J I H A y G q F n h f 9 6 } < { N D                     ",
"                  O P : ] [ | 7 e h n p q w A Q J M R S T U V V W V V U T S R M J Q A w q p n h e 7 | [ ] X Y                   ",
"                O Z : ] [ | 8 ` j o q w A I K R T V  ...+.@.#.$.$.$.#.@.+... .V T R K I A w q o j ` 8 | [ ] %.Y                 ",
"              D P : ] [ d 0 g n p v z Q K S U  .+.#.&.*.*.=.&.$.$.$.&.=.*.*.&.#.+. .U S K Q z v p n g 0 d [ ] X -.              ",
"              E : ] [ 6 0 h n q w ;.>.R U ,.@.&.'.&.@.).!.~.{.{.U {.{.~.!.).@.&.'.&.@.,.U R >.;.w q n h 0 6 [ ] N               ",
"            s = ] [ d 0 h ].q y Q M S ^./.&.*.$.).~.(._.:.<.[.}.|.}.[.<.:._.(.~.).$.*.&./.^.S M Q y q ].h 0 d [ ] C             ",
"          l t { [ | 0 h ].q y I M T ..$.'.$...{._.1.2.3.4.5.6.6.7.6.6.5.4.3.2.1._.{...$.'.$...T M I y q ].h 0 | [ 8.l           ",
"          m ~ < | 8 g n q y I R V +.&.=.+.{._.[.9.0.7.a.b.c.d.e.e.e.d.c.b.a.7.0.9.[._.{.+.=.&.+.V R I y q n g 8 | < f.          ",
"        b : ^ } 7 ` n q y I R V +.*.$.!.g.1.9.5.h.i.e.j.k.l.m.n.n.n.m.l.k.j.e.i.h.5.9.1.g.!.$.*.+.V R I y q n ` 7 } ^ o.        ",
"      2 c { [ 6 e j p w Q M V +.*.$.~._.|.4.p.i.q.k.m.r.s.t.u.v.v.v.u.t.s.r.m.k.q.i.p.4.|._.~.$.*.+.V M Q w p j e 6 [ w.2       ",
"      @ ! < | 9 h o v ;.M T +.*.$.~.x.y.5.z.e.k.n.A.B.C.D.E.F.G.H.G.F.E.D.C.B.A.n.k.e.z.5.y.x.~.$.*.+.T M ;.v o h 9 | < >       ",
"    ( 3 ] [ 6 f n q z >.S ..&.$.~.x.y.6.b.I.J.K.u.L.M.N.O.P.Q.R.S.R.Q.P.O.N.M.L.u.K.J.I.b.6.y.x.~.$.&...S >.z q n f 6 [ T.(     ",
"    _ ! < | 0 h p w Q R ^.$.=.!._.y.6.i.j.n.U.C.V.W.P.X.Y.Z.`. +.+ +`.Z.Y.X.P.W.V.C.U.n.j.i.6.y._.!.=.$.^.R Q w p h 0 | < ++    ",
"    $ { [ 6 f n q A K U /.'.+.g.|.5.b.j.@+t.#+H.$+%+&+.+*+=+-+;+>+;+-+=+*+.+&+%+$+H.#+t.@+j.b.5.|.g.+.'./.U K A q n f 6 [ ,+    ",
"  , : ^ } 9 h F w I S ,.&.$.{.1.4.z.I.n.t.'+N.)+Y. +!+~+{+]+^+/+(+/+^+]+{+~+!+ +Y.)+N.'+t.n.I.z.4.1.{.$.&.,.S I w F h 9 } ^ ,   ",
"  ' ~ 4 d e u q A K U @.*..._.9.p.e.J.U.#+N.Q.&+_+:+<+^+[+}+}+}+}+}+}+}+[+^+<+:+_+&+Q.N.#+U.J.e.p.9._...*.@.U K A q u e d 4 |+  ",
"  ) { 5 7 g o G Q R  .&.$.{.[.5.i.k.K.C.H.)+&+1+;+]+2+}+}+}+}+}+}+}+}+}+}+}+2+]+;+1+&+)+H.C.K.k.i.5.[.{.$.&. .R Q G o g 7 5 3+  ",
". = ^ } 9 i p y J T +.'.)._.9.h.q.n.u.V.$+Y._+;+4+}+}+}+}+}+}+}+}+}+}+}+}+}+}+}+4+;+_+Y.$+V.u.n.q.h.9._.).'.+.T J y p i 9 } ^ . ",
"+ ! < | e j q A M V #.&.~.1.0.i.k.A.L.W.%+ +:+]+}+}+}+}+}+}+}+}+}+}+}+}+}+}+}+}+}+]+:+ +%+W.L.A.k.i.0.1.~.&.#.V M A q j e | < 5+",
"@ ~ [ 6 f n v H R  .&.@.(.2.7.e.m.B.M.P.&+!+<+2+}+}+}+}+}+}+}+}+}+}+}+}+}+}+}+}+}+2+<+!+&+P.M.B.m.e.7.2.(.@.&. .R H v n f 6 [ 6+",
"# { [ 7 g o w I S ..*.)._.3.a.j.r.C.N.X..+~+^+}+}+}+}+}+}+}+}+}+}+}+}+}+}+}+}+}+}+}+^+~+.+X.N.C.r.j.a.3._.).*...S I w o g 7 [ 7+",
"$ ] } 8 h p x J T +.*.!.:.4.b.k.s.D.O.Y.*+{+[+}+}+}+}+}+}+}+}+}+}+}+}+}+}+}+}+}+}+}+[+{+*+Y.O.D.s.k.b.4.:.!.*.+.T J x p h 8 } ,+",
"% ] } 9 i p y K U @.=.~.<.5.c.l.t.E.P.Z.=+]+}+}+}+}+}+}+}+}+}+}+}+}+}+}+}+}+}+}+}+}+}+]+=+Z.P.E.t.l.c.5.<.~.=.@.U K y p i 9 } 8.",
"& ^ } 0 j p z K V #.&.{.[.6.d.m.u.F.Q.`.-+^+}+}+}+}+}+}+}+}+}+}+}+}+}+}+}+}+}+}+}+}+}+^+-+`.Q.F.u.m.d.6.[.{.&.#.V K z p j 0 } 8+",
"* ^ | 0 j q z L V $.$.{.}.6.e.n.v.G.R. +;+/+}+}+}+}+}+}+}+}+}+}+}+}+}+}+}+}+}+}+}+}+}+/+;+ +R.G.v.n.e.6.}.{.$.$.V L z q j 0 | ] ",
"= ^ | 0 j q A M W $.$.U |.7.e.n.v.H.S..+>+(+}+}+}+}+}+}+}+}+}+}+}+}+}+}+}+}+}+}+}+}+}+(+>+.+S.H.v.n.e.7.|.U $.$.W M A q j 0 | ] ",
"& ^ | 0 j q z L V $.$.{.}.6.e.n.v.G.R. +;+/+}+}+}+}+}+}+}+}+}+}+}+}+}+}+}+}+}+}+}+}+}+/+;+ +R.G.v.n.e.6.}.{.$.$.V L z q j 0 | 8+",
"- ^ } 0 j p z K V #.&.{.[.6.d.m.u.F.Q.`.-+^+}+}+}+}+}+}+}+}+}+}+}+}+}+}+}+}+}+}+}+}+}+^+-+`.Q.F.u.m.d.6.[.{.&.#.V K z p j 0 } 9+",
"$ ] } 9 i p y K U @.=.~.<.5.c.l.t.E.P.Z.=+]+}+}+}+}+}+}+}+}+}+}+}+}+}+}+}+}+}+}+}+}+}+]+=+Z.P.E.t.l.c.5.<.~.=.@.U K y p i 9 } ,+",
"; ] } 8 h p x J T +.*.!.:.4.b.k.s.D.O.Y.*+{+[+}+}+}+}+}+}+}+}+}+}+}+}+}+}+}+}+}+}+}+[+{+*+Y.O.D.s.k.b.4.:.!.*.+.T J x p h 8 } 7+",
"> { [ 7 g o w I S ..*.)._.3.a.j.r.C.N.X..+~+^+}+}+}+}+}+}+}+}+}+}+}+}+}+}+}+}+}+}+}+^+~+.+X.N.C.r.j.a.3._.).*...S I w o g 7 [ 0+",
"+ ~ [ 6 f n v H R  .&.@.(.2.7.e.m.B.M.P.&+!+<+2+}+}+}+}+}+}+}+}+}+}+}+}+}+}+}+}+}+2+<+!+&+P.M.B.m.e.7.2.(.@.&. .R H v n f 6 [ a+",
". ! < | e j q A M V #.&.~.1.0.i.k.A.L.W.%+ +:+]+}+}+}+}+}+}+}+}+}+}+}+}+}+}+}+}+}+]+:+ +%+W.L.A.k.i.0.1.~.&.#.V M A q j e | < b+",
"  ) ^ } 9 i p y J T +.'.)._.9.h.q.n.u.V.$+Y._+;+4+}+}+}+}+}+}+}+}+}+}+}+}+}+}+}+4+;+_+Y.$+V.u.n.q.h.9._.).'.+.T J y p i 9 } c+  ",
"  / { 5 7 g o G Q R  .&.$.{.[.5.i.k.K.C.H.)+&+1+;+]+2+}+}+}+}+}+}+}+}+}+}+}+2+]+;+1+&+)+H.C.K.k.i.5.[.{.$.&. .R Q G o g 7 5 d+  ",
"  , ~ 4 d e u q A K U @.*..._.9.p.e.J.U.#+N.Q.&+_+:+<+^+[+}+}+}+}+}+}+}+[+^+<+:+_+&+Q.N.#+U.J.e.p.9._...*.@.U K A q u e d 4 ,   ",
"    1 ^ } 9 h F w I S ,.&.$.{.1.4.z.I.n.t.'+N.)+Y. +!+~+{+]+^+/+(+/+^+]+{+~+!+ +Y.)+N.'+t.n.I.z.4.1.{.$.&.,.S I w F h 9 } e+    ",
"    _ { [ 6 f n q A K U /.'.+.g.|.5.b.j.@+t.#+H.$+%+&+.+*+=+-+;+>+;+-+=+*+.+&+%+$+H.#+t.@+j.b.5.|.g.+.'./.U K A q n f 6 [ ++    ",
"    ( a < | 0 h p w Q R ^.$.=.!._.y.6.i.j.n.U.C.V.W.P.X.Y.Z.`. +.+ +`.Z.Y.X.P.W.V.C.U.n.j.i.6.y._.!.=.$.^.R Q w p h 0 | f+(     ",
"      > ] [ 6 f n q z >.S ..&.$.~.x.y.6.b.I.J.K.u.L.M.N.O.P.Q.R.S.R.Q.P.O.N.M.L.u.K.J.I.b.6.y.x.~.$.&...S >.z q n f 6 [ 0+      ",
"      2 k < | 9 h o v ;.M T +.*.$.~.x.y.5.z.e.k.n.A.B.C.D.E.F.G.H.G.F.E.D.C.B.A.n.k.e.z.5.y.x.~.$.*.+.T M ;.v o h 9 | g+2       ",
"        b { [ 6 e j p w Q M V +.*.$.~._.|.4.p.i.q.k.m.r.s.t.u.v.v.v.u.t.s.r.m.k.q.i.p.4.|._.~.$.*.+.V M Q w p j e 6 [ h+        ",
"          r ^ } 7 ` n q y I R V +.*.$.!.g.1.9.5.h.i.e.j.k.l.m.n.n.n.m.l.k.j.e.i.h.5.9.1.g.!.$.*.+.V R I y q n ` 7 } i+          ",
"          l B < | 8 g n q y I R V +.&.=.+.{._.[.9.0.7.a.b.c.d.e.e.e.d.c.b.a.7.0.9.[._.{.+.=.&.+.V R I y q n g 8 | j+l           ",
"            C { [ | 0 h ].q y I M T ..$.'.$...{._.1.2.3.4.5.6.6.7.6.6.5.4.3.2.1._.{...$.'.$...T M I y q ].h 0 | [ C             ",
"              N ] [ d 0 h ].q y Q M S ^./.&.*.$.).~.(._.:.<.[.}.|.}.[.<.:._.(.~.).$.*.&./.^.S M Q y q ].h 0 d [ k+              ",
"              D X ] [ 6 0 h n q w ;.>.R U ,.@.&.'.&.@.).!.~.{.{.U {.{.~.!.).@.&.'.&.@.,.U R >.;.w q n h 0 6 [ l+-.              ",
"                Y %.] [ d 0 g n p v z Q K S U  .+.#.&.*.*.=.&.$.$.$.&.=.*.*.&.#.+. .U S K Q z v p n g 0 d [ m+Y                 ",
"                  Y X ] [ | 8 ` j o q w A I K R T V  ...+.@.#.$.$.$.#.@.+... .V T R K I A w q o j ` 8 | [ l+Y                   ",
"                    -.N ] [ | 7 e h n p q w A Q J M R S T U V V W V V U T S R M J Q A w q p n h e 7 | [ k+-.                    ",
"                        C 8.< } 6 9 f h n F q G y A H I J K K L M L K K J I H A y G q F n h f 9 6 } j+C                         ",
"                          l f.^ [ | 6 0 f h u o p q v w x y z z A z z y x w v q p o u h f 0 6 | [ i+l                           ",
"                              o.w.< [ | 6 9 e g i j n o p p p q q q p p p o n j i g e 9 6 | [ g+h+                              ",
"                                2 > T.< [ } d 7 9 e f g h i j j j j j i h g f e 9 7 d } [ f+0+2                                 ",
"                                    ( ++,+^ 4 5 } | 6 7 8 9 0 0 0 0 0 9 8 7 6 | } 5 4 e+++(                                     ",
"                                          , |+3+^ < [ [ } } } | | | } } } [ [ < c+d+,                                           ",
"                                                . 5+6+7+,+8.8+] ] 8+9+,+7+0+a+b+                                                "};
