/* XPM */
static char * moss_xpm[] = {
"64 64 7 1",
" 	c #269D4D",
".	c #228C45",
"+	c #50B350",
"@	c #249549",
"#	c #8CC655",
"$	c #3BA84E",
"%	c #6EBC52",
"  ..+++++++++++++++++++++++++++++++              @++.........   ",
"  ++++++##++++++++++++++##++++++++      +$     @..............  ",
" +++++++##++++++++++++++##++++  +++      ++    ................ ",
"+++++++++++++++++++++++++++++$   $+$     ++$  ..............  $+",
"+++++++++++++++++++++++++++ ++    +$      ++ @.............  $++",
"++++++++++++++++++++++++++    $           ++.@  .... ...... ++++",
"++++++++++++#++++++++++++++               $++. .....  @... +++++",
"++++++++++++++++++   +++ +++      +$     @..++.......@  @+++++++",
"++++++++++++++  ++$   ++  $+       + ++ ....++.. .....  ++++++++",
"++++++++++++++   +++   +$        ..   ++ .....+.++..... ++++++++",
"+++++++++++ ++$   ++    +        ...@ $+@ ......$+..... $+++++##",
"++++++++++   ++    $+       +$   .....  .........$++.... +++++##",
"++++++++++     $            ++$   ............$...++....@+++++++",
"++++++++$                    +++  @.......@....+..+++..+++++++++",
"+++++++++                     $+   .......  ...++.$+++++++++++++",
"++++++++++    +             @      ........  @.+++++++++++++++++",
"+++++++++++   ++           ....    .........  ++++++++++++++++++",
"+++++++$+++$   $+     ++    .... @.... @....  +++++#++++++++++++",
"++++++  ++++    ++     +++   .........@ ..+$  $++++++++++++#++++",
"+++++    ##+    +++      $++ @......... $+++   +++++++++++++++++",
"++++$    %#++   +++$.@    +$  ........   ++++$ +++++++++++++++++",
"+$+++    ++++$  $+++...@     ....... @$   ++++$++++++++++++ ++++",
"++  ++    ++++.   +$.....@  ........ ++$  $++++$+++++++++    +++",
"+++       $+++$.      .......... @.$+++#+ $++++++++++++++$    $+",
" ++$       $+++.@    ...........  .+++++++++++++++++++++++      ",
"  $+        +++...  .............@ $+++++++++++++++++++++++     ",
"   +         +..... ...........++$  +++++++++++++++++$ ++++$    ",
"      @     ...............  ++++++ ++++++++++++++##+    +++    ",
"      ...@ ...............  ++++++++++++++++++++++##+$    $$    ",
"       ..........+....@   ++++++++++++++++++++++++++++          ",
".@   @..........++..   ++++++++++++++++++++#++++  ++++          ",
".............  +++$+++++##++++++++++++++++++++$    +++          ",
"...........@  $+++++++++##++++++++++++++++++++      $+       @..",
".......  ++++++++++++++++++++++++++++++++++++++           ......",
". + ..  ++++++++++++++++++++++++++++++++++++++++        @.......",
"++++  @.+++++++++++++++++++++++++++++   $++++++$++$   ........  ",
" ++++$.. +++++++++++++++++++++++++++$      +++      @.......... ",
"  +++++$$++++++++++++++++#++++    +++$      +  ...........  $+..",
"@ ++++++++++++++##+++++++++++$     +++  @..  @...........   ++..",
".++#++++++++++++##++++++++++         +$   ...........  ...$+++$+",
"++++++++++++++++++++ $++++++$         +    .........    ..++++++",
"++++++++++++  +++       +++++          ...........@    + @$+++++",
"#++++++++++++ $+          +++    @.  @............    ++   ++++#",
"#++++++$++++++             $++   ........... @..    $+++$   +++#",
"+++++++ ++++++$          @.  ++ ............. ...   ++++++$ ++++",
"+++++++   $++++        @....  +  .......+....@ .@  +++++++++++++",
"+++++++$    $++         ..... $+  ......++....    $+++++++++++++",
"++++++++  ++ +++        ......@ + ...... $.+$...  ++++++++++++++",
"++++++++  ++  +++  .@ @@........ @......  +++$..@+++++++++++++++",
"+  $+++   +++$ ++$.....@  ............++.. $++++++++++++++++++++",
"$   $+    $+++  ++...... .............$++.+ +++++++++++#++++++++",
"+    $     +++@...+.............+..... ++++++++#++++++++++++++$+",
"++   +$    .+@..............++..++..... ++++++++++++++++++++++  ",
"      + @................ ...++.$+++$...++++++++++++++++++++++++",
"    @ ++$...............   ...++$++++$..++++++++++++++++$  $+++ ",
"  ++...++..... ...... +.   @..+++++++++$++++++++++++ $+$        ",
" .++....... .@  ...   ++@    @++++++++++++++++++$     ++        ",
"...+........     ..@  ++++$   $++++++++++++++++       ++      ++",
"............@    @.. $+++++$  $+++++++#++++++         +     $+++",
"....    @....  +++++$+++++++ +++++++++++++++              ......",
"...+$    @...++++++++++++++++++++++++++  $++$           ........",
"..  ++$    +..++++++++++++++++++++++$      +++        ..........",
".    ++++ +++.++++++++++++++++++++++        +++  ++   ..........",
"  .. +++++++++++++++++++++++++++++++          +$ +++..........  "};
