/* XPM */
static char * light4_xpm[] = {
"64 64 97 2",
"  	c #FF00FF",
". 	c #E0CFF3",
"+ 	c #E0DCF1",
"@ 	c #E1E1ED",
"# 	c #E1E1E8",
"$ 	c #E0E0E3",
"% 	c #DFDFDF",
"& 	c #E0E0E7",
"* 	c #E0DBF1",
"= 	c #E0D3F3",
"- 	c #E1E0EC",
"; 	c #DEDEDE",
"> 	c #DDDDDD",
", 	c #DCDCDC",
"' 	c #E0E0EC",
") 	c #DBDBDB",
"! 	c #DADADA",
"~ 	c #D9D9D9",
"{ 	c #E0E1E6",
"] 	c #D8D8D8",
"^ 	c #D7D7D7",
"/ 	c #D6D6D6",
"( 	c #DFE0E6",
"_ 	c #E0E0E9",
": 	c #D5D5D5",
"< 	c #D4D4D4",
"[ 	c #DFE0E8",
"} 	c #E0DDF1",
"| 	c #D3D3D3",
"1 	c #D2D2D2",
"2 	c #D1D1D1",
"3 	c #E0DCF0",
"4 	c #D0D0D0",
"5 	c #CFCFCF",
"6 	c #CECECE",
"7 	c #E0D1F3",
"8 	c #CDCDCD",
"9 	c #CCCCCC",
"0 	c #CBCBCB",
"a 	c #CACACA",
"b 	c #E0D7F2",
"c 	c #C9C9C9",
"d 	c #C8C8C8",
"e 	c #C7C7C7",
"f 	c #C6C6C6",
"g 	c #E0D8F2",
"h 	c #C5C5C5",
"i 	c #C4C4C4",
"j 	c #C3C3C3",
"k 	c #C2C2C2",
"l 	c #C1C1C1",
"m 	c #C0C0C0",
"n 	c #BFBFBF",
"o 	c #BEBEBE",
"p 	c #BDBDBD",
"q 	c #DFD7F2",
"r 	c #BCBCBC",
"s 	c #BBBBBB",
"t 	c #E0D0F3",
"u 	c #DFDFE6",
"v 	c #DFDCF0",
"w 	c #E2E2E2",
"x 	c #E4E4E4",
"y 	c #E5E5E5",
"z 	c #E6E6E6",
"A 	c #E7E7E7",
"B 	c #E1E1E1",
"C 	c #E9E9E9",
"D 	c #ECECEC",
"E 	c #EEEEEE",
"F 	c #F1F1F1",
"G 	c #F2F2F2",
"H 	c #DFCFF3",
"I 	c #E0E0E0",
"J 	c #EBEBEB",
"K 	c #EFEFEF",
"L 	c #F4F4F4",
"M 	c #F8F8F8",
"N 	c #FBFBFB",
"O 	c #FEFEFE",
"P 	c #FFFFFF",
"Q 	c #DEDFE5",
"R 	c #F5F5F5",
"S 	c #F9F9F9",
"T 	c #DFDFEC",
"U 	c #FDFDFD",
"V 	c #DFD2F3",
"W 	c #DFDFEB",
"X 	c #DFDBF1",
"Y 	c #DEDEE1",
"Z 	c #DDDEE1",
"` 	c #DEDEE4",
" .	c #DEDEE7",
"..	c #DFDBF0",
"+.	c #DEDEE5",
"@.	c #DFD0F3",
"#.	c #DFD6F2",
"                                                    . + @ # $ % % $ & @ * .                                                     ",
"                                            = - % ; > > > , , , , , , , > > > ; ' =                                             ",
"                                        @ ; ; > , ) ) ! ! ! ! ~ ~ ~ ! ! ! ! ) ) , > ; '                                         ",
"                                  . { ; > , ) ! ! ~ ] ] ^ ^ ^ ^ / ^ ^ ^ ^ ] ] ~ ! ! ) , > ( .                                   ",
"                                _ ; > , ) ! ~ ] ^ / / : : < < < < < < < : : / / ^ ] ~ ! ) , > [                                 ",
"                            } ; > , ! ~ ] ^ / : < < | 1 1 2 2 2 2 2 2 2 1 1 | < < : / ^ ] ~ ! , > 3                             ",
"                          # ; , ) ~ ] ^ / < < | 2 2 4 5 5 6 6 6 6 6 6 6 5 5 4 2 2 | < < / ^ ] ~ ) , &                           ",
"                      7 % > ) ! ] ^ / < < 1 2 4 5 8 8 9 0 0 a a a a a 0 0 9 8 8 5 4 2 1 < < / ^ ] ! ) > 7                       ",
"                    b ; > ) ~ ] / : < 1 2 5 6 9 0 a c d e f f f f f f f e d c a 0 9 6 5 2 1 < : / ] ~ ) > b                     ",
"                  g ; , ) ~ ^ / < 1 2 5 8 9 a c e f h i j j j k k k j j j i h f e c a 9 8 5 2 1 < / ^ ~ ) , g                   ",
"                b ; , ! ~ ^ : < 2 4 6 9 a d f h j j l m n o o p p p o o n m l j j h f d a 9 6 4 2 < : ^ ~ ! , q                 ",
"              7 ; , ! ] / : | 2 5 8 0 c f h j l m o r s r p o n n n o p r s r o m l j h f c 0 8 5 2 | : / ] ! , t               ",
"              % > ) ~ / : | 2 5 9 a e h j l n p s o n l k j i h h h i j k l n o s p n l j h e a 9 5 2 | : / ~ ) >               ",
"            # > ) ~ ^ : | 2 6 9 c e i k m p r n l j f e c a 0 9 9 9 0 a c e f j l n r p m k i e c 9 6 2 | : ^ ~ ) u             ",
"          } ; ) ~ ^ : | 2 6 9 c f i l o s o l i e c 9 6 4 1 | < < < | 1 4 6 9 c e i l o s o l i f c 9 6 2 | : ^ ~ ) v           ",
"          ; , ! ] / < 2 5 9 c f j l p r m j f a 6 4 < ^ ] ! , , > , , ! ] ^ < 4 6 a f j m r p l j f c 9 5 2 < / ] ! ,           ",
"        _ > ) ] / < 2 5 9 c f j m p p l h c 8 2 : ] , % w x y z A z y x w % , ] : 2 8 c h l p p m j f c 9 5 2 < / ] ) [         ",
"      . ; , ~ ^ : 1 4 8 a e i l p p l f a 6 < ] > B y C D E F G G G F E D C y B > ] < 6 a f l p p l i e a 8 4 1 : ^ ~ , H       ",
"      { > ! ] / < 2 6 0 e i l p p l f 0 4 / ) I y J K L M N O P P P O N M L K J y I ) / 4 0 f l p p l i e 0 6 2 < / ] ! Q       ",
"      ; , ~ ^ < 1 5 9 c h k o r l f 0 4 ^ , w C K R N P P P P P P P P P P P N R K C w , ^ 4 0 f l r o k h c 9 5 1 < ^ ~ ,       ",
"    @ > ) ] / < 2 8 a f j m s m h a 4 ^ > x J G S P P P P P P P P P P P P P P P S G J x > ^ 4 a h m s m j f a 8 2 < / ] ) T     ",
"    ; , ! ^ < 1 5 9 d h l p o j c 6 / , x J L U P P P P P P P P P P P P P P P P P U L J x , / 6 c j o p l h d 9 5 1 < ^ ! ,     ",
"  = ; ) ~ / < 2 6 a f j n r l f 8 < ) w J L O P P P P P P P P P P P P P P P P P P P O L J w ) < 8 f l r n j f a 6 2 < / ~ ) V   ",
"  - > ! ] : | 4 9 c h l p n i a 2 ] I C G U P P P P P P P P P P P P P P P P P P P P P U G C I ] 2 a i n p l h c 9 4 | : ] ! W   ",
"  % , ! ^ < 2 5 0 e j m s l e 6 : > y K S P P P P P P P P P P P P P P P P P P P P P P P S K y > : 6 e l s m j e 0 5 2 < ^ ! ,   ",
"  ; ) ~ / < 2 8 a f j o o j c 4 ] B J R P P P P P P P P P P P P P P P P P P P P P P P P P R J B ] 4 c j o o j f a 8 2 < / ~ )   ",
". > ) ] / | 4 8 c h l r n f 9 < , y K N P P P P P P P P P P P P P P P P P P P P P P P P P N K y , < 9 f n r l h c 8 4 | / ] ) H ",
"+ > ! ] : 1 5 9 d i m s l e 6 ^ % C L P P P P P P P P P P P P P P P P P P P P P P P P P P P L C % ^ 6 e l s m i d 9 5 1 : ] ! X ",
"@ > ! ^ : 1 5 0 e j n r k c 4 ] w D M P P P P P P P P P P P P P P P P P P P P P P P P P P P M D w ] 4 c k r n j e 0 5 1 : ^ ! T ",
"# , ! ^ < 2 6 0 f j o p j a 1 ! x E N P P P P P P P P P P P P P P P P P P P P P P P P P P P N E x ! 1 a j p o j f 0 6 2 < ^ ! u ",
"$ , ! ^ < 2 6 a f j o o i 0 | , y F O P P P P P P P P P P P P P P P P P P P P P P P P P P P O F y , | 0 i o o j f a 6 2 < ^ ! Y ",
"% , ~ ^ < 2 6 a f k p n h 9 < , z G P P P P P P P P P P P P P P P P P P P P P P P P P P P P P G z , < 9 h n p k f a 6 2 < ^ ~ , ",
"% , ~ / < 2 6 a f k p n h 9 < > A G P P P P P P P P P P P P P P P P P P P P P P P P P P P P P G A > < 9 h n p k f a 6 2 < / ~ , ",
"$ , ~ ^ < 2 6 a f k p n h 9 < , z G P P P P P P P P P P P P P P P P P P P P P P P P P P P P P G z , < 9 h n p k f a 6 2 < ^ ~ Z ",
"& , ! ^ < 2 6 a f j o o i 0 | , y F O P P P P P P P P P P P P P P P P P P P P P P P P P P P O F y , | 0 i o o j f a 6 2 < ^ ! u ",
"@ , ! ^ < 2 6 0 f j o p j a 1 ! x E N P P P P P P P P P P P P P P P P P P P P P P P P P P P N E x ! 1 a j p o j f 0 6 2 < ^ ! T ",
"* > ! ^ : 1 5 0 e j n r k c 4 ] w D M P P P P P P P P P P P P P P P P P P P P P P P P P P P M D w ] 4 c k r n j e 0 5 1 : ^ ! X ",
". > ! ] : 1 5 9 d i m s l e 6 ^ % C L P P P P P P P P P P P P P P P P P P P P P P P P P P P L C % ^ 6 e l s m i d 9 5 1 : ] ! H ",
"  > ) ] / | 4 8 c h l r n f 9 < , y K N P P P P P P P P P P P P P P P P P P P P P P P P P N K y , < 9 f n r l h c 8 4 | / ] )   ",
"  ; ) ~ / < 2 8 a f j o o j c 4 ] B J R P P P P P P P P P P P P P P P P P P P P P P P P P R J B ] 4 c j o o j f a 8 2 < / ~ )   ",
"  ' , ! ^ < 2 5 0 e j m s l e 6 : > y K S P P P P P P P P P P P P P P P P P P P P P P P S K y > : 6 e l s m j e 0 5 2 < ^ ! W   ",
"  = > ! ] : | 4 9 c h l p n i a 2 ] I C G U P P P P P P P P P P P P P P P P P P P P P U G C I ] 2 a i n p l h c 9 4 | : ] ! V   ",
"    ; ) ~ / < 2 6 a f j n r l f 8 < ) w J L O P P P P P P P P P P P P P P P P P P P O L J w ) < 8 f l r n j f a 6 2 < / ~ )     ",
"    ' , ! ^ < 1 5 9 d h l p o j c 6 / , x J L U P P P P P P P P P P P P P P P P P U L J x , / 6 c j o p l h d 9 5 1 < ^ ! T     ",
"      > ) ] / < 2 8 a f j m s m h a 4 ^ > x J G S P P P P P P P P P P P P P P P S G J x > ^ 4 a h m s m j f a 8 2 < / ] )       ",
"      ( , ~ ^ < 1 5 9 c h k o r l f 0 4 ^ , w C K R N P P P P P P P P P P P N R K C w , ^ 4 0 f l r o k h c 9 5 1 < ^ ~ `       ",
"      . > ! ] / < 2 6 0 e i l p p l f 0 4 / ) I y J K L M N O P P P O N M L K J y I ) / 4 0 f l p p l i e 0 6 2 < / ] ! H       ",
"        [ , ~ ^ : 1 4 8 a e i l p p l f a 6 < ] > B y C D E F G G G F E D C y B > ] < 6 a f l p p l i e a 8 4 1 : ^ ~  .        ",
"          > ) ] / < 2 5 9 c f j m p p l h c 8 2 : ] , % w x y z A z y x w % , ] : 2 8 c h l p p m j f c 9 5 2 < / ] )           ",
"          3 , ! ] / < 2 5 9 c f j l p r m j f a 6 4 < ^ ] ! , , > , , ! ] ^ < 4 6 a f j m r p l j f c 9 5 2 < / ] ! ..          ",
"            & ) ~ ^ : | 2 6 9 c f i l o s o l i e c 9 6 4 1 | < < < | 1 4 6 9 c e i l o s o l i f c 9 6 2 | : ^ ~ +.            ",
"              > ) ~ ^ : | 2 6 9 c e i k m p r n l j f e c a 0 9 9 9 0 a c e f j l n r p m k i e c 9 6 2 | : ^ ~ )               ",
"              7 > ) ~ / : | 2 5 9 a e h j l n p s o n l k j i h h h i j k l n o s p n l j h e a 9 5 2 | : / ~ ) @.              ",
"                b , ! ] / : | 2 5 8 0 c f h j l m o r s r p o n n n o p r s r o m l j h f c 0 8 5 2 | : / ] ! #.                ",
"                  g , ! ~ ^ : < 2 4 6 9 a d f h j j l m n o o p p p o o n m l j j h f d a 9 6 4 2 < : ^ ~ ! q                   ",
"                    q , ) ~ ^ / < 1 2 5 8 9 a c e f h i j j j k k k j j j i h f e c a 9 8 5 2 1 < / ^ ~ ) #.                    ",
"                      t > ) ~ ] / : < 1 2 5 6 9 0 a c d e f f f f f f f e d c a 0 9 6 5 2 1 < : / ] ~ ) @.                      ",
"                          u ) ! ] ^ / < < 1 2 4 5 8 8 9 0 0 a a a a a 0 0 9 8 8 5 4 2 1 < < / ^ ] ! +.                          ",
"                            v , ) ~ ] ^ / < < | 2 2 4 5 5 6 6 6 6 6 6 6 5 5 4 2 2 | < < / ^ ] ~ ) ..                            ",
"                                [ , ! ~ ] ^ / : < < | 1 1 2 2 2 2 2 2 2 1 1 | < < : / ^ ] ~ !  .                                ",
"                                  H Q , ) ! ~ ] ^ / / : : < < < < < < < : : / / ^ ] ~ ! ) ` H                                   ",
"                                        T , ) ! ! ~ ] ] ^ ^ ^ ^ / ^ ^ ^ ^ ] ] ~ ! ! ) T                                         ",
"                                            V W , ) ) ! ! ! ! ~ ~ ~ ! ! ! ! ) ) W V                                             ",
"                                                    H X T u Y , , Z u T X H                                                     "};
