/* XPM */
static char * light2_xpm[] = {
"64 64 119 2",
"  	c #FF00FF",
". 	c #DCCBF1",
"+ 	c #DBD6EE",
"@ 	c #D9D8E7",
"# 	c #D6D6DF",
"$ 	c #D4D4D8",
"% 	c #D2D2D3",
"& 	c #D6D6DE",
"* 	c #DBD5ED",
"= 	c #DCCDF1",
"- 	c #D9D8E5",
"; 	c #D2D2D2",
"> 	c #D1D1D1",
", 	c #D0D0D0",
"' 	c #CFCFCF",
") 	c #D8D8E5",
"! 	c #DEC5F3",
"~ 	c #CECECE",
"{ 	c #CDCDCD",
"] 	c #CCCCCC",
"^ 	c #D8D7E6",
"/ 	c #DEC5F2",
"( 	c #D6D7DD",
"_ 	c #CBCBCB",
": 	c #CACACA",
"< 	c #C9C9C9",
"[ 	c #D6D6DC",
"} 	c #DFC2F3",
"| 	c #D8D7E1",
"1 	c #C8C8C8",
"2 	c #C7C7C7",
"3 	c #C6C6C6",
"4 	c #D7D6E1",
"5 	c #DBD6EC",
"6 	c #C5C5C5",
"7 	c #C4C4C4",
"8 	c #C3C3C3",
"9 	c #C2C2C2",
"0 	c #DAD5EC",
"a 	c #E0C0F3",
"b 	c #D7D7DF",
"c 	c #C1C1C1",
"d 	c #C0C0C0",
"e 	c #BFBFBF",
"f 	c #BEBEBE",
"g 	c #D5D5DE",
"h 	c #DFBFF3",
"i 	c #DDCDF1",
"j 	c #BDBDBD",
"k 	c #BCBCBC",
"l 	c #BBBBBB",
"m 	c #BABABA",
"n 	c #DCCCF1",
"o 	c #DCD2F0",
"p 	c #B9B9B9",
"q 	c #B8B8B8",
"r 	c #B7B7B7",
"s 	c #B6B6B6",
"t 	c #DBD2F0",
"u 	c #DCD3EF",
"v 	c #B5B5B5",
"w 	c #B4B4B4",
"x 	c #B3B3B3",
"y 	c #DBD2EF",
"z 	c #D5D5DD",
"A 	c #D3D3D3",
"B 	c #D4D4D4",
"C 	c #D5D5D5",
"D 	c #D8D8D8",
"E 	c #D9D9D9",
"F 	c #DBDBDB",
"G 	c #DDDDDD",
"H 	c #DEDEDE",
"I 	c #DEC1F3",
"J 	c #D6D6D6",
"K 	c #E0E0E0",
"L 	c #E3E3E3",
"M 	c #E5E5E5",
"N 	c #E6E6E6",
"O 	c #E8E8E8",
"P 	c #D6D5E0",
"Q 	c #E2E2E2",
"R 	c #EAEAEA",
"S 	c #EEEEEE",
"T 	c #F0F0F0",
"U 	c #F2F2F2",
"V 	c #F3F3F3",
"W 	c #DCCAF1",
"X 	c #D7D7D7",
"Y 	c #DCDCDC",
"Z 	c #ECECEC",
"` 	c #F1F1F1",
" .	c #F5F5F5",
"..	c #F9F9F9",
"+.	c #FDFDFD",
"@.	c #FFFFFF",
"#.	c #D5D5DC",
"$.	c #E4E4E4",
"%.	c #F7F7F7",
"&.	c #DDC4F2",
"*.	c #FBFBFB",
"=.	c #D7D6E5",
"-.	c #EDEDED",
";.	c #FEFEFE",
">.	c #DBCDF1",
",.	c #D7D6E4",
"'.	c #DAD4ED",
").	c #D7D6E6",
"!.	c #D4D4DD",
"~.	c #D1D1D5",
"{.	c #D9D4EC",
"].	c #DBCCF0",
"^.	c #D3D3DA",
"/.	c #D5D4DF",
"(.	c #D9D4EB",
"_.	c #D4D3DC",
":.	c #DBCCF1",
"<.	c #DAD1EF",
"[.	c #DAD1EE",
"                                                    . + @ # $ % % $ & @ * .                                                     ",
"                                            = - ; ; > , , , ' ' ' ' ' , , , > ; ) =                                             ",
"                                      ! @ ; > , ' ' ~ { { { ] ] ] ] ] { { { ~ ' ' , > ^ /                                       ",
"                                  . ( ; , ' ~ { ] _ _ : : < < < < < < < : : _ _ ] { ~ ' , [ .                                   ",
"                              } | ; , ' ~ ] _ : < < 1 1 2 2 3 3 3 3 3 2 2 1 1 < < : _ ] ~ ' , 4 }                               ",
"                            5 ; , ' { ] _ < < 1 2 3 6 7 8 8 9 9 9 9 9 8 8 7 6 3 2 1 < < _ ] { ' , 0                             ",
"                        a b > ' ~ ] _ < 1 2 6 7 8 9 c d d e e e f e e e d d c 9 8 7 6 2 1 < _ ] ~ ' g h                         ",
"                      i ; , ' { _ < 1 2 6 8 9 d d f f j k l l m m m l l k j f f d d 9 8 6 2 1 < _ { ' , n                       ",
"                    o ; , ~ ] : < 2 6 8 c d f j k m p q r s s s s s s s r q p m k j f d c 8 6 2 < : ] ~ , t                     ",
"                  u ; , ~ _ : 1 3 7 9 d f j l p r s v w x w v v v v v w x w v s r p l j f d 9 7 3 1 : _ ~ , y                   ",
"                o ; , { _ < 1 6 8 c e j l q s v x v s r q p p m m m p p q r s v x v s q l j e c 8 6 1 < _ { , t                 ",
"              i ; , { _ < 2 6 9 d f l p s v w s r p l k j f e e e e e f j k l p r s w v s p l f d 9 6 2 < _ { , n               ",
"            a ; , ~ _ < 2 7 9 d j m r s x s q m k f d 9 7 7 6 6 3 6 6 7 7 9 d f k m q s x s r m j d 9 7 2 < _ ~ , h             ",
"            b , ~ _ < 2 7 9 e j m r w v r m j e 9 7 3 1 : ] ] { { { ] ] : 1 3 7 9 e j m r v w r m j e 9 7 2 < _ ~ z             ",
"          5 > ' ] : 1 6 9 e k p s x s p k e 9 6 1 _ { ' > A B C C C B A > ' { _ 1 6 9 e k p s x s p k e 9 6 1 : ] ' 0           ",
"        } ; ' { : 1 6 9 d j p s x s m j c 7 1 ] ' ; C D E F G H H H G F E D C ; ' ] 1 7 c j m s x s p j d 9 6 1 : { ' I         ",
"        | , ~ _ < 3 8 d j m s x s m f 9 3 : ~ ; J E G K L M N O O O N M L K G E J ; ~ : 3 9 f m s x s m j d 8 3 < _ ~ P         ",
"      . ; ' ] < 2 7 c f m r x s m f 8 2 ] , C E H Q N R S T U V V V U T S R N Q H E C , ] 2 8 f m s x r m f c 7 2 < ] ' W       ",
"      ( , { _ 1 6 9 e l r w s m f 8 2 ] > X Y Q N Z `  ...+.@.@.@.@.@.+... .` Z N Q Y X > ] 2 8 f m s w r l e 9 6 1 _ { #.      ",
"    ! ; ' ] < 2 8 d j p s v p j 9 2 ] ; D H $.R ` %.+.@.@.@.@.@.@.@.@.@.@.@.+.%.` R $.H D ; ] 2 9 j p v s p j d 8 2 < ] ' &.    ",
"    @ , ~ _ 1 6 c f l s x r k c 3 ] > D H M Z V *.@.@.@.@.@.@.@.@.@.@.@.@.@.@.@.*.V Z M H D > ] 3 c k r x s l f c 6 1 _ ~ =.    ",
"    ; ' ] < 2 8 d j q v s m e 7 : , X H M -. .;.@.@.@.@.@.@.@.@.@.@.@.@.@.@.@.@.@.;. .-.M H X , : 7 e m s v q j d 8 2 < ] '     ",
"  = > ~ _ < 6 9 f l s w q j 9 1 ~ C Y $.Z  .@.@.@.@.@.@.@.@.@.@.@.@.@.@.@.@.@.@.@.@.@. .Z $.Y C ~ 1 9 j q w s l f 9 6 < _ ~ >.  ",
"  - , { : 1 7 d j p v s m e 6 ] ; E Q R V ;.@.@.@.@.@.@.@.@.@.@.@.@.@.@.@.@.@.@.@.@.@.;.V R Q E ; ] 6 e m s v p j d 7 1 : { ,.  ",
"  ; ' ] < 2 8 d k r x r k 9 1 ' J H N ` *.@.@.@.@.@.@.@.@.@.@.@.@.@.@.@.@.@.@.@.@.@.@.@.*.` N H J ' 1 9 k r x r k d 8 2 < ] '   ",
"  ; ' _ < 3 9 f m s v p f 7 _ ; E Q Z %.@.@.@.@.@.@.@.@.@.@.@.@.@.@.@.@.@.@.@.@.@.@.@.@.@.%.Z Q E ; _ 7 f p v s m f 9 3 < _ '   ",
". > ~ _ 1 6 c f p v s l d 3 { C G N ` +.@.@.@.@.@.@.@.@.@.@.@.@.@.@.@.@.@.@.@.@.@.@.@.@.@.+.` N G C { 3 d l s v p f c 6 1 _ ~ W ",
"+ , { : 1 7 d j q w r k 9 1 ' D K R  .@.@.@.@.@.@.@.@.@.@.@.@.@.@.@.@.@.@.@.@.@.@.@.@.@.@.@. .R K D ' 1 9 k r w q j d 7 1 : { '.",
"@ , { : 2 8 d k r x q j 7 : > E L S ..@.@.@.@.@.@.@.@.@.@.@.@.@.@.@.@.@.@.@.@.@.@.@.@.@.@.@...S L E > : 7 j q x r k d 8 2 : { ).",
"# , { < 2 8 e l s w p f 7 ] A F M T +.@.@.@.@.@.@.@.@.@.@.@.@.@.@.@.@.@.@.@.@.@.@.@.@.@.@.@.+.T M F A ] 7 f p w s l e 8 2 < { !.",
"$ ' ] < 3 9 e l s v p e 6 ] B G N U @.@.@.@.@.@.@.@.@.@.@.@.@.@.@.@.@.@.@.@.@.@.@.@.@.@.@.@.@.U N G B ] 6 e p v s l e 9 3 < ] ~.",
"% ' ] < 3 9 e m s v m e 6 { C H O V @.@.@.@.@.@.@.@.@.@.@.@.@.@.@.@.@.@.@.@.@.@.@.@.@.@.@.@.@.V O H C { 6 e m v s m e 9 3 < ] , ",
"% ' ] < 3 9 f m s v m e 3 { C H O V @.@.@.@.@.@.@.@.@.@.@.@.@.@.@.@.@.@.@.@.@.@.@.@.@.@.@.@.@.V O H C { 3 e m v s m f 9 3 < ] , ",
"$ ' ] < 3 9 e m s v m e 6 { C H O V @.@.@.@.@.@.@.@.@.@.@.@.@.@.@.@.@.@.@.@.@.@.@.@.@.@.@.@.@.V O H C { 6 e m v s m e 9 3 < ] ~.",
"& ' ] < 3 9 e l s v p e 6 ] B G N U @.@.@.@.@.@.@.@.@.@.@.@.@.@.@.@.@.@.@.@.@.@.@.@.@.@.@.@.@.U N G B ] 6 e p v s l e 9 3 < ] !.",
"@ , { < 2 8 e l s w p f 7 ] A F M T +.@.@.@.@.@.@.@.@.@.@.@.@.@.@.@.@.@.@.@.@.@.@.@.@.@.@.@.+.T M F A ] 7 f p w s l e 8 2 < { ).",
"* , { : 2 8 d k r x q j 7 : > E L S ..@.@.@.@.@.@.@.@.@.@.@.@.@.@.@.@.@.@.@.@.@.@.@.@.@.@.@...S L E > : 7 j q x r k d 8 2 : { {.",
". , { : 1 7 d j q w r k 9 1 ' D K R  .@.@.@.@.@.@.@.@.@.@.@.@.@.@.@.@.@.@.@.@.@.@.@.@.@.@.@. .R K D ' 1 9 k r w q j d 7 1 : { W ",
"  > ~ _ 1 6 c f p v s l d 3 { C G N ` +.@.@.@.@.@.@.@.@.@.@.@.@.@.@.@.@.@.@.@.@.@.@.@.@.@.+.` N G C { 3 d l s v p f c 6 1 _ ~   ",
"  ; ' _ < 3 9 f m s v p f 7 _ ; E Q Z %.@.@.@.@.@.@.@.@.@.@.@.@.@.@.@.@.@.@.@.@.@.@.@.@.@.%.Z Q E ; _ 7 f p v s m f 9 3 < _ '   ",
"  ) ' ] < 2 8 d k r x r k 9 1 ' J H N ` *.@.@.@.@.@.@.@.@.@.@.@.@.@.@.@.@.@.@.@.@.@.@.@.*.` N H J ' 1 9 k r x r k d 8 2 < ] ,.  ",
"  = , { : 1 7 d j p v s m e 6 ] ; E Q R V ;.@.@.@.@.@.@.@.@.@.@.@.@.@.@.@.@.@.@.@.@.@.;.V R Q E ; ] 6 e m s v p j d 7 1 : { ].  ",
"    > ~ _ < 6 9 f l s w q j 9 1 ~ C Y $.Z  .@.@.@.@.@.@.@.@.@.@.@.@.@.@.@.@.@.@.@.@.@. .Z $.Y C ~ 1 9 j q w s l f 9 6 < _ ~     ",
"    ^ ' ] < 2 8 d j q v s m e 7 : , X H M -. .;.@.@.@.@.@.@.@.@.@.@.@.@.@.@.@.@.@.;. .-.M H X , : 7 e m s v q j d 8 2 < ] =.    ",
"    / , ~ _ 1 6 c f l s x r k c 3 ] > D H M Z V *.@.@.@.@.@.@.@.@.@.@.@.@.@.@.@.*.V Z M H D > ] 3 c k r x s l f c 6 1 _ ~ &.    ",
"      [ ' ] < 2 8 d j p s v p j 9 2 ] ; D H $.R ` %.+.@.@.@.@.@.@.@.@.@.@.@.+.%.` R $.H D ; ] 2 9 j p v s p j d 8 2 < ] ^.      ",
"      . , { _ 1 6 9 e l r w s m f 8 2 ] > X Y Q N Z `  ...+.@.@.@.@.@.+... .` Z N Q Y X > ] 2 8 f m s w r l e 9 6 1 _ { W       ",
"        4 ' ] < 2 7 c f m r x s m f 8 2 ] , C E H Q N R S T U V V V U T S R N Q H E C , ] 2 8 f m s x r m f c 7 2 < ] /.        ",
"        } , ~ _ < 3 8 d j m s x s m f 9 3 : ~ ; J E G K L M N O O O N M L K G E J ; ~ : 3 9 f m s x s m j d 8 3 < _ ~ I         ",
"          0 ' { : 1 6 9 d j p s x s m j c 7 1 ] ' ; C D E F G H H H G F E D C ; ' ] 1 7 c j m s x s p j d 9 6 1 : { (.          ",
"            g ' ] : 1 6 9 e k p s x s p k e 9 6 1 _ { ' > A B C C C B A > ' { _ 1 6 9 e k p s x s p k e 9 6 1 : ] _.            ",
"            h , ~ _ < 2 7 9 e j m r w v r m j e 9 7 3 1 : ] ] { { { ] ] : 1 3 7 9 e j m r v w r m j e 9 7 2 < _ ~ h             ",
"              n , ~ _ < 2 7 9 d j m r s x s q m k f d 9 7 7 6 6 3 6 6 7 7 9 d f k m q s x s r m j d 9 7 2 < _ ~ :.              ",
"                t , { _ < 2 6 9 d f l p s v w s r p l k j f e e e e e f j k l p r s w v s p l f d 9 6 2 < _ { <.                ",
"                  y , { _ < 1 6 8 c e j l q s v x v s r q p p m m m p p q r s v x v s q l j e c 8 6 1 < _ { [.                  ",
"                    t , ~ _ : 1 3 7 9 d f j l p r s v w x w v v v v v w x w v s r p l j f d 9 7 3 1 : _ ~ <.                    ",
"                      n , ~ ] : < 2 6 8 c d f j k m p q r s s s s s s s r q p m k j f d c 8 6 2 < : ] ~ :.                      ",
"                        h z ' { _ < 1 2 6 8 9 d d f f j k l l m m m l l k j f f d d 9 8 6 2 1 < _ { _.h                         ",
"                            0 ' ~ ] _ < 1 2 6 7 8 9 c d d e e e f e e e d d c 9 8 7 6 2 1 < _ ] ~ (.                            ",
"                              I P ' { ] _ < < 1 2 3 6 7 8 8 9 9 9 9 9 8 8 7 6 3 2 1 < < _ ] { /.I                               ",
"                                  W #.' ~ ] _ : < < 1 1 2 2 3 3 3 3 3 2 2 1 1 < < : _ ] ~ ^.W                                   ",
"                                      &.=.' ~ { ] _ _ : : < < < < < < < : : _ _ ] { ~ =.&.                                      ",
"                                            >.,.' ' ~ { { { ] ] ] ] ] { { { ~ ' ,.].                                            ",
"                                                    W '.).!.~., , ~.!.).{.W                                                     "};
