/* XPM */
static char * light1_xpm[] = {
"64 64 123 2",
"  	c #FF00FF",
". 	c #DBC9F1",
"+ 	c #D8D2EB",
"@ 	c #D5D4E4",
"# 	c #D2D1DA",
"$ 	c #CFCFD2",
"% 	c #CCCCCD",
"& 	c #D1D1DA",
"* 	c #DACBF0",
"= 	c #D5D4E2",
"- 	c #CBCBCB",
"; 	c #CACACA",
"> 	c #C9C9C9",
", 	c #D4D3E2",
"' 	c #DDC3F2",
") 	c #D6D4E3",
"! 	c #C8C8C8",
"~ 	c #C7C7C7",
"{ 	c #C6C6C6",
"] 	c #C5C5C5",
"^ 	c #D5D3E3",
"/ 	c #DCC2F2",
"( 	c #D1D1D8",
"_ 	c #C4C4C4",
": 	c #C3C3C3",
"< 	c #C2C2C2",
"[ 	c #D0D0D7",
"} 	c #DEC0F2",
"| 	c #D3D2DD",
"1 	c #C1C1C1",
"2 	c #C0C0C0",
"3 	c #BFBFBF",
"4 	c #D2D1DC",
"5 	c #DDC0F2",
"6 	c #D8D3EA",
"7 	c #BEBEBE",
"8 	c #BDBDBD",
"9 	c #BCBCBC",
"0 	c #BBBBBB",
"a 	c #BABABA",
"b 	c #D7D2EA",
"c 	c #DEBEF3",
"d 	c #B9B9B9",
"e 	c #B8B8B8",
"f 	c #B7B7B7",
"g 	c #D1D0D9",
"h 	c #DDBDF2",
"i 	c #DBCAF0",
"j 	c #B5B5B5",
"k 	c #B4B4B4",
"l 	c #B3B3B3",
"m 	c #B2B2B2",
"n 	c #DAC9F0",
"o 	c #D9CFEE",
"p 	c #B0B0B0",
"q 	c #AFAFAF",
"r 	c #D9CEEE",
"s 	c #D9D0ED",
"t 	c #B1B1B1",
"u 	c #D8D0ED",
"v 	c #B6B6B6",
"w 	c #D8CEEE",
"x 	c #CCCCCC",
"y 	c #CDCDCD",
"z 	c #D0CFD8",
"A 	c #CFCFCF",
"B 	c #D2D2D2",
"C 	c #D3D3D3",
"D 	c #D4D4D4",
"E 	c #D5D5D5",
"F 	c #D7D7D7",
"G 	c #DADADA",
"H 	c #DBDBDB",
"I 	c #DDDDDD",
"J 	c #DEDEDE",
"K 	c #DDBFF2",
"L 	c #CECECE",
"M 	c #D6D6D6",
"N 	c #E1E1E1",
"O 	c #E3E3E3",
"P 	c #E5E5E5",
"Q 	c #E7E7E7",
"R 	c #E8E8E8",
"S 	c #D1D1DC",
"T 	c #D0D0D0",
"U 	c #D9D9D9",
"V 	c #E6E6E6",
"W 	c #EAEAEA",
"X 	c #EEEEEE",
"Y 	c #F0F0F0",
"Z 	c #F3F3F3",
"` 	c #F4F4F4",
" .	c #DAC8F0",
"..	c #DCDCDC",
"+.	c #E2E2E2",
"@.	c #ECECEC",
"#.	c #F1F1F1",
"$.	c #F5F5F5",
"%.	c #F9F9F9",
"&.	c #FDFDFD",
"*.	c #FFFFFF",
"=.	c #CFCFD7",
"-.	c #F6F6F6",
";.	c #FBFBFB",
">.	c #D4D2E2",
",.	c #EDEDED",
"'.	c #FEFEFE",
").	c #DACBEF",
"!.	c #D3D2E1",
"~.	c #D7D1EB",
"{.	c #D3D2E2",
"].	c #D0CFD9",
"^.	c #CCCCD0",
"/.	c #D6D0EA",
"(.	c #D2D1E0",
"_.	c #D9CAEF",
":.	c #D3D1E1",
"<.	c #DBC2F1",
"[.	c #CECED6",
"}.	c #D0CFDB",
"|.	c #D6D1E9",
"1.	c #CFCFD8",
"2.	c #D7CFED",
"                                                    . + @ # $ % % $ & @ + .                                                     ",
"                                            * = - - - ; ; > > > > > > > ; ; - - , *                                             ",
"                                      ' ) - - ; > ! ~ ~ { { { ] ] ] { { { ~ ~ ! > ; - ^ /                                       ",
"                                  . ( - ; > ! ~ { ] _ : : < < < < < < < : : _ ] { ~ ! > ; [ .                                   ",
"                              } | - ; ! ~ { _ : < 1 1 2 2 3 3 3 3 3 3 3 2 2 1 1 < : _ { ~ ! ; 4 5                               ",
"                            6 - ; ! ~ ] _ < 1 1 3 7 8 9 9 0 0 0 a 0 0 0 9 9 8 7 3 1 1 < _ ] ~ ! ; b                             ",
"                        c # - > ~ ] _ < 1 2 7 8 0 a d d e e f f f f f e e d d a 0 8 7 2 1 < _ ] ~ > g h                         ",
"                      i - ; ! { _ < 1 3 7 9 a d e f j k l l m m m m m l l k j f e d a 9 7 3 1 < _ { ! ; n                       ",
"                    o - ; ! ] : 1 2 7 9 a d f j l m m p q q p p p p p q q p m m l j f d a 9 7 2 1 : ] ! ; r                     ",
"                  s - > ~ ] < 1 3 9 a d f k m t q p m m l k k j j j k k l m m p q t m k f d a 9 3 1 < ] ~ > u                   ",
"                o - > ~ _ < 2 7 0 d f j m t p m l k v f e d d d a d d d e f v k l m p t m j f d 0 7 2 < _ ~ > w                 ",
"              i - > ~ _ < 2 8 0 d v l t q m l v e d 0 9 7 3 3 2 2 2 3 3 7 9 0 d e v l m q t l v d 0 8 2 < _ ~ > n               ",
"            c - ; ~ _ < 2 8 a e j m p t l v e a 9 3 1 < : _ ] { { { ] _ : < 1 3 9 a e v l t p m j e a 8 2 < _ ~ ; h             ",
"            # ; ! ] < 2 8 a e k m q m j e a 8 2 < _ ~ > ; - x y y y x - ; > ~ _ < 2 8 a e j m q m k e a 8 2 < ] ! z             ",
"          6 - ! ] < 2 8 a e k m p m v d 9 3 < ] ! - y A B C D E E E D C B A y - ! ] < 3 9 d v m p m k e a 8 2 < ] ! b           ",
"        } - > { : 1 7 0 e k m p l f d 8 1 _ ! - A B E F G H I J J J I H G F E B A - ! _ 1 8 d f l p m k e 0 7 1 : { > K         ",
"        | ; ~ _ 1 3 0 d j m p l f a 7 < { ; L B M G I N O P Q R R R Q P O N I G M B L ; { < 7 a f l p m j d 0 3 1 _ ~ S         ",
"      . - ! ] < 2 9 d v m q m f a 3 < ~ - T E U J O V W X Y Z ` ` ` Z Y X W V O J U E T - ~ < 3 a f m q m v d 9 2 < ] !  .      ",
"      ( ; ~ _ 1 7 a f l p m v d 7 < ! x B M ..+.Q @.#.$.%.&.*.*.*.*.*.&.%.$.#.@.Q +...M B x ! < 7 d v m p l f a 7 1 _ ~ =.      ",
"    ' - ! ] < 3 9 d j t t j d 8 < ~ x B F J O W #.-.&.*.*.*.*.*.*.*.*.*.*.*.&.-.#.W O J F B x ~ < 8 d j t t j d 9 3 < ] ! /     ",
"    ) ; ~ _ 1 7 a f m q l e 9 1 { - B F J P @.` ;.*.*.*.*.*.*.*.*.*.*.*.*.*.*.*.;.` @.P J F B - { 1 9 e l q m f a 7 1 _ ~ >.    ",
"    - > { < 2 9 d k t m v a 3 _ ; T M J P ,.$.'.*.*.*.*.*.*.*.*.*.*.*.*.*.*.*.*.*.'.$.,.P J M T ; _ 3 a v m t k d 9 2 < { >     ",
"  * - ! _ 1 7 a f m p l e 8 < ! L E ..O @.$.*.*.*.*.*.*.*.*.*.*.*.*.*.*.*.*.*.*.*.*.*.$.@.O ..E L ! < 8 e l p m f a 7 1 _ ! ).  ",
"  = ; ~ : 1 8 d j t m v a 2 ] - B U +.W ` '.*.*.*.*.*.*.*.*.*.*.*.*.*.*.*.*.*.*.*.*.*.'.` W +.U B - ] 2 a v m t j d 8 1 : ~ !.  ",
"  - > { < 3 0 e l q l e 9 < ! A M J Q #.;.*.*.*.*.*.*.*.*.*.*.*.*.*.*.*.*.*.*.*.*.*.*.*.;.#.Q J M A ! < 9 e l q l e 0 3 < { >   ",
"  - ! ] 1 7 a f m p k d 3 _ - B G O @.-.*.*.*.*.*.*.*.*.*.*.*.*.*.*.*.*.*.*.*.*.*.*.*.*.*.-.@.O G B - _ 3 d k p m f a 7 1 ] !   ",
". - ~ _ 1 8 d j m m v 0 1 ~ y E I V #.&.*.*.*.*.*.*.*.*.*.*.*.*.*.*.*.*.*.*.*.*.*.*.*.*.*.&.#.V I E y ~ 1 0 v m m j d 8 1 _ ~  .",
"+ ; ~ : 2 9 d k p m f 9 < > A F N W $.*.*.*.*.*.*.*.*.*.*.*.*.*.*.*.*.*.*.*.*.*.*.*.*.*.*.*.$.W N F A > < 9 f m p k d 9 2 : ~ ~.",
"@ ; { : 2 9 e l q l e 7 : ; B G O X %.*.*.*.*.*.*.*.*.*.*.*.*.*.*.*.*.*.*.*.*.*.*.*.*.*.*.*.%.X O G B ; : 7 e l q l e 9 2 : { {.",
"# > { < 3 0 e l q k d 3 _ - C H P Y &.*.*.*.*.*.*.*.*.*.*.*.*.*.*.*.*.*.*.*.*.*.*.*.*.*.*.*.&.Y P H C - _ 3 d k q l e 0 3 < { ].",
"$ > { < 3 0 f m p k d 3 ] x D I Q Z *.*.*.*.*.*.*.*.*.*.*.*.*.*.*.*.*.*.*.*.*.*.*.*.*.*.*.*.*.Z Q I D x ] 3 d k p m f 0 3 < { ^.",
"% > ] < 3 0 f m p j d 2 { y E J R ` *.*.*.*.*.*.*.*.*.*.*.*.*.*.*.*.*.*.*.*.*.*.*.*.*.*.*.*.*.` R J E y { 2 d j p m f 0 3 < ] > ",
"% > ] < 3 a f m p j a 2 { y E J R ` *.*.*.*.*.*.*.*.*.*.*.*.*.*.*.*.*.*.*.*.*.*.*.*.*.*.*.*.*.` R J E y { 2 a j p m f a 3 < ] > ",
"$ > ] < 3 0 f m p j d 2 { y E J R ` *.*.*.*.*.*.*.*.*.*.*.*.*.*.*.*.*.*.*.*.*.*.*.*.*.*.*.*.*.` R J E y { 2 d j p m f 0 3 < ] ^.",
"& > { < 3 0 f m p k d 3 ] x D I Q Z *.*.*.*.*.*.*.*.*.*.*.*.*.*.*.*.*.*.*.*.*.*.*.*.*.*.*.*.*.Z Q I D x ] 3 d k p m f 0 3 < { ].",
"@ > { < 3 0 e l q k d 3 _ - C H P Y &.*.*.*.*.*.*.*.*.*.*.*.*.*.*.*.*.*.*.*.*.*.*.*.*.*.*.*.&.Y P H C - _ 3 d k q l e 0 3 < { {.",
"+ ; { : 2 9 e l q l e 7 : ; B G O X %.*.*.*.*.*.*.*.*.*.*.*.*.*.*.*.*.*.*.*.*.*.*.*.*.*.*.*.%.X O G B ; : 7 e l q l e 9 2 : { /.",
". ; ~ : 2 9 d k p m f 9 < > A F N W $.*.*.*.*.*.*.*.*.*.*.*.*.*.*.*.*.*.*.*.*.*.*.*.*.*.*.*.$.W N F A > < 9 f m p k d 9 2 : ~  .",
"  - ~ _ 1 8 d j m m v 0 1 ~ y E I V #.&.*.*.*.*.*.*.*.*.*.*.*.*.*.*.*.*.*.*.*.*.*.*.*.*.*.&.#.V I E y ~ 1 0 v m m j d 8 1 _ ~   ",
"  - ! ] 1 7 a f m p k d 3 _ - B G O @.-.*.*.*.*.*.*.*.*.*.*.*.*.*.*.*.*.*.*.*.*.*.*.*.*.*.-.@.O G B - _ 3 d k p m f a 7 1 ] !   ",
"  , > { < 3 0 e l q l e 9 < ! A M J Q #.;.*.*.*.*.*.*.*.*.*.*.*.*.*.*.*.*.*.*.*.*.*.*.*.;.#.Q J M A ! < 9 e l q l e 0 3 < { (.  ",
"  * ; ~ : 1 8 d j t m v a 2 ] - B U +.W ` '.*.*.*.*.*.*.*.*.*.*.*.*.*.*.*.*.*.*.*.*.*.'.` W +.U B - ] 2 a v m t j d 8 1 : ~ _.  ",
"    - ! _ 1 7 a f m p l e 8 < ! L E ..O @.$.*.*.*.*.*.*.*.*.*.*.*.*.*.*.*.*.*.*.*.*.*.$.@.O ..E L ! < 8 e l p m f a 7 1 _ !     ",
"    ^ > { < 2 9 d k t m v a 3 _ ; T M J P ,.$.'.*.*.*.*.*.*.*.*.*.*.*.*.*.*.*.*.*.'.$.,.P J M T ; _ 3 a v m t k d 9 2 < { :.    ",
"    / ; ~ _ 1 7 a f m q l e 9 1 { - B F J P @.` ;.*.*.*.*.*.*.*.*.*.*.*.*.*.*.*.;.` @.P J F B - { 1 9 e l q m f a 7 1 _ ~ <.    ",
"      [ ! ] < 3 9 d j t t j d 8 < ~ x B F J O W #.-.&.*.*.*.*.*.*.*.*.*.*.*.&.-.#.W O J F B x ~ < 8 d j t t j d 9 3 < ] [.      ",
"      . ; ~ _ 1 7 a f l p m v d 7 < ! x B M ..+.Q @.#.$.%.&.*.*.*.*.*.&.%.$.#.@.Q +...M B x ! < 7 d v m p l f a 7 1 _ ~  .      ",
"        4 ! ] < 2 9 d v m q m f a 3 < ~ - T E U J O V W X Y Z ` ` ` Z Y X W V O J U E T - ~ < 3 a f m q m v d 9 2 < ] }.        ",
"        5 ; ~ _ 1 3 0 d j m p l f a 7 < { ; L B M G I N O P Q R R R Q P O N I G M B L ; { < 7 a f l p m j d 0 3 1 _ ~ K         ",
"          b > { : 1 7 0 e k m p l f d 8 1 _ ! - A B E F G H I J J J I H G F E B A - ! _ 1 8 d f l p m k e 0 7 1 : { |.          ",
"            g ! ] < 2 8 a e k m p m v d 9 3 < ] ! - y A B C D E E E D C B A y - ! ] < 3 9 d v m p m k e a 8 2 < ] 1.            ",
"            h ; ! ] < 2 8 a e k m q m j e a 8 2 < _ ~ > ; - x y y y x - ; > ~ _ < 2 8 a e j m q m k e a 8 2 < ] ! h             ",
"              n ; ~ _ < 2 8 a e j m p t l v e a 9 3 1 < : _ ] { { { ] _ : < 1 3 9 a e v l t p m j e a 8 2 < _ ~ n               ",
"                r > ~ _ < 2 8 0 d v l t q m l v e d 0 9 7 3 3 2 2 2 3 3 7 9 0 d e v l m q t l v d 0 8 2 < _ ~ w                 ",
"                  u > ~ _ < 2 7 0 d f j m t p m l k v f e d d d a d d d e f v k l m p t m j f d 0 7 2 < _ ~ 2.                  ",
"                    w > ~ ] < 1 3 9 a d f k m t q p m m l k k j j j k k l m m p q t m k f d a 9 3 1 < ] ~ w                     ",
"                      n ; ! ] : 1 2 7 9 a d f j l m m p q q p p p p p q q p m m l j f d a 9 7 2 1 : ] ! n                       ",
"                        h z ! { _ < 1 3 7 9 a d e f j k l l m m m m m l l k j f e d a 9 7 3 1 < _ { 1.h                         ",
"                            b > ~ ] _ < 1 2 7 8 0 a d d e e f f f f f e e d d a 0 8 7 2 1 < _ ] ~ |.                            ",
"                              K S ! ~ ] _ < 1 1 3 7 8 9 9 0 0 0 a 0 0 0 9 9 8 7 3 1 1 < _ ] ~ }.K                               ",
"                                   .=.! ~ { _ : < 1 1 2 2 3 3 3 3 3 3 3 2 2 1 1 < : _ { ~ [. .                                  ",
"                                      / >.> ! ~ { ] _ : : < < < < < < < : : _ ] { ~ ! :.<.                                      ",
"                                            ).!.> ! ~ ~ { { { ] ] ] { { { ~ ~ ! (._.                                            ",
"                                                     .~.{.].^.> > ^.].{./. .                                                    "};
