/* XPM */
static char * light5_xpm[] = {
"64 64 84 1",
" 	c #FF00FF",
".	c #E4D5F6",
"+	c #E7E3F6",
"@	c #EAEBF5",
"#	c #ECEDF2",
"$	c #ECEDEF",
"%	c #EDEDED",
"&	c #E6E3F6",
"*	c #E5D9F6",
"=	c #ECECEC",
"-	c #EBEBEB",
";	c #EAEAF4",
">	c #EBBAF8",
",	c #EAEAEA",
"'	c #E9E9E9",
")	c #E9EAF4",
"!	c #EDABF9",
"~	c #E8E8E8",
"{	c #E7E7E7",
"]	c #ECEDF1",
"^	c #EBECF3",
"/	c #E6E6E6",
"(	c #E5E5E5",
"_	c #EAEBF2",
":	c #E7E5F6",
"<	c #E4E4E4",
"[	c #E3E3E3",
"}	c #E2E2E2",
"|	c #E1E1E1",
"1	c #E0E0E0",
"2	c #DFDFDF",
"3	c #EBECF1",
"4	c #E4D7F6",
"5	c #DEDEDE",
"6	c #DDDDDD",
"7	c #DCDCDC",
"8	c #E4D6F6",
"9	c #E6DEF6",
"0	c #DBDBDB",
"a	c #DADADA",
"b	c #D9D9D9",
"c	c #E5DEF6",
"d	c #E6E0F7",
"e	c #D8D8D8",
"f	c #D7D7D7",
"g	c #D6D6D6",
"h	c #E5DFF6",
"i	c #D5D5D5",
"j	c #D4D4D4",
"k	c #D3D3D3",
"l	c #D2D2D2",
"m	c #D1D1D1",
"n	c #D0D0D0",
"o	c #CFCFCF",
"p	c #CECECE",
"q	c #CDCDCD",
"r	c #CCCCCC",
"s	c #CBCBCB",
"t	c #CACACA",
"u	c #C9C9C9",
"v	c #E6E4F6",
"w	c #C8C8C8",
"x	c #EEEEEE",
"y	c #F1F1F1",
"z	c #F4F4F4",
"A	c #F5F5F5",
"B	c #F2F2F2",
"C	c #F6F6F6",
"D	c #FBFBFB",
"E	c #FEFEFE",
"F	c #FFFFFF",
"G	c #EBECF0",
"H	c #F8F8F8",
"I	c #FDFDFD",
"J	c #E4D8F6",
"K	c #E9E9F4",
"L	c #EBECEE",
"M	c #EAEBF0",
"N	c #E8E9F4",
"O	c #E8E9F3",
"P	c #E9EAF1",
"Q	c #E6E4F5",
"R	c #E3D6F6",
"S	c #E4DDF6",
"                          .+@#$%%$#@&.                          ",
"                      *@%%===-------===%;*                      ",
"                   >@%==--,,,''''''',,,--==)!                   ",
"                 .#%=--,''~~~{{{{{{{~~~'',--=].                 ",
"                ^%=-,''~{{//(((((((((//{{~'',-=_                ",
"              :%=-,'~{//(<<[[}}}}}}}[[<<(//{~',-=:              ",
"             #=-,'~{/(<[[}||111222111||}[[<(/{~',-3             ",
"           4%=-,~{/(<[}|12556667776665521|}[<(/{~,-=8           ",
"          9%=,'~{(<[}1256770aabbbbbaa0776521}[<({~',=c          ",
"         d%-,'{/([}12560abeefgggggggfeeba06521}[(/{',-h         ",
"        9%-,'{/<[|1560aefgijkklllllkkjigfea0651|[</{',-c        ",
"       4%-,~{(<}1260aefijlmnoopppppoonmljifea0621}<({~,-8       ",
"       %=,'{(<}1570bfiklnoqrsttuuuttsrqonlkifb0751}<({',=       ",
"      #=,'{(<}157aegjlnprtuusrqqpqqrsuutrpnljgea751}<({',3      ",
"     :=-'{/<}157bfiknprturpnkjiigiijknprutrpnkifb751}</{'-v     ",
"     %-,~/<}157bfjloqturokie075222570eikorutqoljfb751}</~,-     ",
"    ^=,~{([157bfjlorusokf05}</~'''~/<}50fkosuroljfb751[({~,_    ",
"   .%-'{([|27afjlorwqmi02[~=xyzzAzzyx=~[20imqwroljfa72|[({'-.   ",
"   #=,~/<}160eilorwqke6[~%BCDEFFFFFEDCB%~[6ekqwrolie061}</~,G   ",
"  >%-'{([150bgkorwqkb2(=BHEFFFFFFFFFFFEHB=(2bkqwrokgb051[({'-!  ",
"  @=,~/<}26afjnquqkb2/%AIFFFFFFFFFFFFFFFIA%/2bkquqnjfa62}</~,)  ",
"  %-'{([150eilptsme2/xCFFFFFFFFFFFFFFFFFFFCx/2emstplie051[({'-  ",
" *=-'/<}26afknruoi6(%CFFFFFFFFFFFFFFFFFFFFFC%(6iournkfa62}</'-J ",
" @=,~/[|50eilptrk0[=AFFFFFFFFFFFFFFFFFFFFFFFA=[0krtplie05|[/~,) ",
" %-'{([16afjnruof2~BIFFFFFFFFFFFFFFFFFFFFFFFIB~2fournjfa61[({'- ",
" %-'{<}27bglotrk0[%HFFFFFFFFFFFFFFFFFFFFFFFFFH%[0krtolgb72}<{'- ",
".=,~/<|57eimqupi5~BEFFFFFFFFFFFFFFFFFFFFFFFFFEB~5ipuqmie75|</~,.",
"+=,~/[|50ejnrune}=CFFFFFFFFFFFFFFFFFFFFFFFFFFFC=}enurnje05|[/~,&",
"@=,~([16afkossk0<xDFFFFFFFFFFFFFFFFFFFFFFFFFFFDx<0kssokfa61[(~,K",
"#-'{(}16agkotrj7/yEFFFFFFFFFFFFFFFFFFFFFFFFFFFEy/7jrtokga61}({'3",
"$-'{(}16bglptqi5~zFFFFFFFFFFFFFFFFFFFFFFFFFFFFFz~5iqtplgb61}({'L",
"%-'{(}27bglpuqi2'zFFFFFFFFFFFFFFFFFFFFFFFFFFFFFz'2iquplgb72}({'=",
"%-'{(}27bglpupg2'AFFFFFFFFFFFFFFFFFFFFFFFFFFFFFA'2gpuplgb72}({'-",
"$-'{(}27bglpuqi2'zFFFFFFFFFFFFFFFFFFFFFFFFFFFFFz'2iquplgb72}({'L",
"#-'{(}16bglptqi5~zFFFFFFFFFFFFFFFFFFFFFFFFFFFFFz~5iqtplgb61}({'M",
"@-'{(}16agkotrj7/yEFFFFFFFFFFFFFFFFFFFFFFFFFFFEy/7jrtokga61}({'N",
"&=,~([16afkossk0<xDFFFFFFFFFFFFFFFFFFFFFFFFFFFDx<0kssokfa61[(~,&",
".=,~/[|50ejnrune}=CFFFFFFFFFFFFFFFFFFFFFFFFFFFC=}enurnje05|[/~,.",
" =,~/<|57eimqupi5~BEFFFFFFFFFFFFFFFFFFFFFFFFFEB~5ipuqmie75|</~, ",
" %-'{<}27bglotrk0[%HFFFFFFFFFFFFFFFFFFFFFFFFFH%[0krtolgb72}<{'- ",
" ;-'{([16afjnruof2~BIFFFFFFFFFFFFFFFFFFFFFFFIB~2fournjfa61[({'O ",
" *=,~/[|50eilptrk0[=AFFFFFFFFFFFFFFFFFFFFFFFA=[0krtplie05|[/~,J ",
"  =-'/<}26afknruoi6(%CFFFFFFFFFFFFFFFFFFFFFC%(6iournkfa62}</'-  ",
"  )-'{([150eilptsme2/xCFFFFFFFFFFFFFFFFFFFCx/2emstplie051[({'O  ",
"  !=,~/<}26afjnquqkb2/%AIFFFFFFFFFFFFFFFIA%/2bkquqnjfa62}</~,!  ",
"   ]-'{([150bgkorwqkb2(=BHEFFFFFFFFFFFEHB=(2bkqwrokgb051[({'M   ",
"   .=,~/<}160eilorwqke6[~%BCDEFFFFFEDCB%~[6ekqwrolie061}</~,.   ",
"    _-'{([|27afjlorwqmi02[~=xyzzAzzyx=~[20imqwroljfa72|[({'P    ",
"     =,~{([157bfjlorusokf05}</~'''~/<}50fkosuroljfb751[({~,     ",
"     :-,~/<}157bfjloqturokie075222570eikorutqoljfb751}</~,Q     ",
"      3-'{/<}157bfiknprturpnkjiigiijknprutrpnkifb751}</{'M      ",
"       =,'{(<}157aegjlnprtuusrqqpqqrsuutrpnljgea751}<({',       ",
"       8=,'{(<}1570bfiklnoqrsttuuuttsrqonlkifb0751}<({',R       ",
"        c-,~{(<}1260aefijlmnoopppppoonmljifea0621}<({~,S        ",
"         h-,'{/<[|1560aefgijkklllllkkjigfea0651|[</{',h         ",
"          c-,'{/([}12560abeefgggggggfeeba06521}[(/{',S          ",
"           8=,'~{(<[}1256770aabbbbbaa0776521}[<({~',R           ",
"             3-,~{/(<[}|12556667776665521|}[<(/{~,M             ",
"              v-,'~{/(<[[}||111222111||}[[<(/{~',Q              ",
"                _-,'~{//(<<[[}}}}}}}[[<<(//{~',P                ",
"                 .G-,''~{{//(((((((((//{{~'',M.                 ",
"                   !)--,''~~~{{{{{{{~~~'',-O!                   ",
"                      J)--,,,''''''',,,-OJ                      ",
"                          .&K3L=-LMN&.                          "};
