/* XPM */
static char * light7_xpm[] = {
"64 64 81 1",
" 	c #FF00FF",
".	c #E8D9F8",
"+	c #ECEAFA",
"@	c #F1F2FB",
"#	c #F4F5FA",
"$	c #F7F7F9",
"%	c #F8F8F8",
"&	c #ECE9FA",
"*	c #E8DCF8",
"=	c #F1F2FA",
"-	c #F7F7F7",
";	c #F6F6F6",
">	c #ECBCF9",
",	c #F5F5F5",
"'	c #F4F4F4",
")	c #F5F7FA",
"!	c #F3F3F3",
"~	c #F2F2F2",
"{	c #F4F6F9",
"]	c #E7D8F8",
"^	c #F3F4FA",
"/	c #F1F1F1",
"(	c #EDEBFA",
"_	c #F0F0F0",
":	c #EFEFEF",
"<	c #ECEBFA",
"[	c #F4F6FA",
"}	c #EEEEEE",
"|	c #EDEDED",
"1	c #ECECEC",
"2	c #E8DBF8",
"3	c #EBEBEB",
"4	c #EAEAEA",
"5	c #EAE3F9",
"6	c #E9E9E9",
"7	c #E8E8E8",
"8	c #E7E7E7",
"9	c #E9E2F9",
"0	c #EAE5F9",
"a	c #E6E6E6",
"b	c #E5E5E5",
"c	c #E4E4E4",
"d	c #EAE4F9",
"e	c #E3E3E3",
"f	c #E2E2E2",
"g	c #E1E1E1",
"h	c #E0E0E0",
"i	c #DFDFDF",
"j	c #DEDEDE",
"k	c #DDDDDD",
"l	c #DCDCDC",
"m	c #DBDBDB",
"n	c #DADADA",
"o	c #D9D9D9",
"p	c #D8D8D8",
"q	c #D7D7D7",
"r	c #D6D6D6",
"s	c #F3F4F9",
"t	c #D4D4D4",
"u	c #D3D3D3",
"v	c #D2D2D2",
"w	c #D1D1D1",
"x	c #ECEAF9",
"y	c #D5D5D5",
"z	c #FAFAFA",
"A	c #FCFCFC",
"B	c #FDFDFD",
"C	c #F3F5F8",
"D	c #FFFFFF",
"E	c #EBBCF9",
"F	c #F0F1FA",
"G	c #F9F9F9",
"H	c #E7DCF8",
"I	c #F0F1F9",
"J	c #EBE8F9",
"K	c #F5F6F7",
"L	c #EFF1FA",
"M	c #F2F3F9",
"N	c #EBEAF9",
"O	c #E7DBF8",
"P	c #E9E4F9",
"                          .+@#$%%$#@&.                          ",
"                      *=---;;;;;;;;;;;--=*                      ",
"                   >@--;;,,,,''''''',,,,;;-=>                   ",
"                 .)-;;,,''!!!!!~~~!!!!!'',,;;{]                 ",
"                ^-;;,''!!~~///////////~~!!'',;;^                ",
"              (-;;,'!!~//__:::::::::::__//~!!',;;<              ",
"             [-;,'!!~/__:}}||||111||||}}:__/~!!',;#             ",
"           2-;,,'!~/_:}}|113344444443311|}}:_/~!',,;2           ",
"          5-;,'!~/_:}|133467777888777764331|}:_/~!',;9          ",
"         0-;,'!~/:}|134677abbbcccccbbba776431|}:/~!',;d         ",
"        5-;,'!/_:}|3467abceffgggggggffecba7643|}:_/!',;9        ",
"       2-;,'~/_:|1367abefghiijjkkkjjiihgfeba7631|:_/~',;2       ",
"       -;,'~/_}|3478befhijklmmnnnnnmmlkjihfeb8743|}_/~',;       ",
"      [;,'!/_}|347acfgiklmopqqrrrrrqqpomlkigfca743|}_/!',s      ",
"     (-,'!/_}|367beghjlnoqrtuvvwwwvvutrqonljhgeb763|}_/!',x     ",
"     -;,!~_:|367begikmoqyuwtrqonnnoqrtwuyqomkigeb763|:_~!,;     ",
"    ^;,'~/:|347behjlnqyuvroligecccegilorvuyqnljheb743|:/~',^    ",
"   .-;'!/:}147behjloqtwynjfa63|:::|36afjnywtqoljheb741}:/!';]   ",
"   );,!~_}|37aegjloruupke81/,%zABAz%,/18ekpuuroljgea73|}_~!,C   ",
"  >-;'!/:|368cgilorutnha1~%BDDDDDDDDDB%~1ahnturoligc863|:/!';E  ",
"  @;,!~_}147bfhknqutng7:;BDDDDDDDDDDDDDB;:7gntuqnkhfb741}_~!,F  ",
"  -;'!/:|36aegjmqtung6/GDDDDDDDDDDDDDDDDDG/6gnutqmjgea63|:/!';  ",
" *-,'~_}147bfiloywph7/zDDDDDDDDDDDDDDDDDDDz/7hpwyolifb741}_~',H ",
" =;,!/_}36aehknquyka:GDDDDDDDDDDDDDDDDDDDDDG:akyuqnkhea63}_/!,I ",
" -;'!/:|37bfiloyvne1;DDDDDDDDDDDDDDDDDDDDDDD;1envyolifb73|:/!'; ",
" -,'~_}147cgjmqurj8~BDDDDDDDDDDDDDDDDDDDDDDDB~8jruqmjgc741}_~', ",
".-,!~_}16aehkorwof1%DDDDDDDDDDDDDDDDDDDDDDDDD%1fowrokhea61}_~!,]",
"+;,!/:|37bfilpttla/BDDDDDDDDDDDDDDDDDDDDDDDDDB/alttplifb73|:/!,J",
"@;,!/:|37bfimquri6,DDDDDDDDDDDDDDDDDDDDDDDDDDD,6iruqmifb73|:/!,F",
"#;'!/:|47bgjmqvqg3%DDDDDDDDDDDDDDDDDDDDDDDDDDD%3gqvqmjgb74|:/!'s",
"$;'!/:|47cgjnrvoe|zDDDDDDDDDDDDDDDDDDDDDDDDDDDz|eovrnjgc74|:/!'K",
"%;'~/:148cgknrwnc:ADDDDDDDDDDDDDDDDDDDDDDDDDDDA:cnwrnkgc841:/~';",
"%;'~/:148cgknrwnc:BDDDDDDDDDDDDDDDDDDDDDDDDDDDB:cnwrnkgc841:/~';",
"$;'~/:148cgknrwnc:ADDDDDDDDDDDDDDDDDDDDDDDDDDDA:cnwrnkgc841:/~'K",
"#;'!/:|47cgjnrvoe|zDDDDDDDDDDDDDDDDDDDDDDDDDDDz|eovrnjgc74|:/!'s",
"@;'!/:|47bgjmqvqg3%DDDDDDDDDDDDDDDDDDDDDDDDDDD%3gqvqmjgb74|:/!'L",
"&;,!/:|37bfimquri6,DDDDDDDDDDDDDDDDDDDDDDDDDDD,6iruqmifb73|:/!,J",
".;,!/:|37bfilpttla/BDDDDDDDDDDDDDDDDDDDDDDDDDB/alttplifb73|:/!,]",
" -,!~_}16aehkorwof1%DDDDDDDDDDDDDDDDDDDDDDDDD%1fowrokhea61}_~!, ",
" -,'~_}147cgjmqurj8~BDDDDDDDDDDDDDDDDDDDDDDDB~8jruqmjgc741}_~', ",
" =;'!/:|37bfiloyvne1;DDDDDDDDDDDDDDDDDDDDDDD;1envyolifb73|:/!'I ",
" *;,!/_}36aehknquyka:GDDDDDDDDDDDDDDDDDDDDDG:akyuqnkhea63}_/!,H ",
"  -,'~_}147bfiloywph7/zDDDDDDDDDDDDDDDDDDDz/7hpwyolifb741}_~',  ",
"  =;'!/:|36aegjmqtung6/GDDDDDDDDDDDDDDDDDG/6gnutqmjgea63|:/!'F  ",
"  >;,!~_}147bfhknqutng7:;BDDDDDDDDDDDDDB;:7gntuqnkhfb741}_~!,E  ",
"   {;'!/:|368cgilorutnha1~%BDDDDDDDDDB%~1ahnturoligc863|:/!'C   ",
"   ];,!~_}|37aegjloruupke81/,%zABAz%,/18ekpuuroljgea73|}_~!,]   ",
"    ^;'!/:}147behjloqtwynjfa63|:::|36afjnywtqoljheb741}:/!'M    ",
"     ;,'~/:|347behjlnqyuvroligecccegilorvuyqnljheb743|:/~',     ",
"     <;,!~_:|367begikmoqyuwtrqonnnoqrtwuyqomkigeb763|:_~!,N     ",
"      #,'!/_}|367beghjlnoqrtuvvwwwvvutrqonljhgeb763|}_/!'s      ",
"       ;,'!/_}|347acfgiklmopqqrrrrrqqpomlkigfca743|}_/!',       ",
"       2;,'~/_}|3478befhijklmmnnnnnmmlkjihfeb8743|}_/~',O       ",
"        9;,'~/_:|1367abefghiijjkkkjjiihgfeba7631|:_/~',9        ",
"         d;,'!/_:}|3467abceffgggggggffecba7643|}:_/!',P         ",
"          9;,'!~/:}|134677abbbcccccbbba776431|}:/~!',9          ",
"           2;,'!~/_:}|133467777888777764331|}:_/~!',O           ",
"             s,,'!~/_:}}|113344444443311|}}:_/~!',s             ",
"              x;,'!!~/__:}}||||111||||}}:__/~!!',N              ",
"                ^;,'!!~//__:::::::::::__//~!!',M                ",
"                 ]C;,''!!~~///////////~~!!'',C]                 ",
"                   EF;,,''!!!!!~~~!!!!!'',,FE                   ",
"                      HI;,,,,''''''',,,,IH                      ",
"                          ]JFsK;;KsLJ]                          "};
