/* XPM */
static char * light3_xpm[] = {
"64 64 110 2",
"  	c #FF00FF",
". 	c #DFCDF3",
"+ 	c #DED8EF",
"@ 	c #DDDCEA",
"# 	c #DCDCE4",
"$ 	c #DADADD",
"% 	c #D9D9D9",
"& 	c #D8D8D9",
"* 	c #DBDBE3",
"= 	c #DDD8EF",
"- 	c #DECDF2",
"; 	c #DED0F2",
"> 	c #DCDCE9",
", 	c #D8D8D8",
"' 	c #D7D7D7",
") 	c #D6D6D6",
"! 	c #F383FA",
"~ 	c #DDDDEA",
"{ 	c #D5D5D5",
"] 	c #D4D4D4",
"^ 	c #D3D3D3",
"/ 	c #DBDCE2",
"( 	c #D2D2D2",
"_ 	c #D1D1D1",
": 	c #D0D0D0",
"< 	c #DADBE1",
"[ 	c #DCDCE6",
"} 	c #CFCFCF",
"| 	c #CECECE",
"1 	c #CDCDCD",
"2 	c #DBDBE5",
"3 	c #DDDAEF",
"4 	c #CCCCCC",
"5 	c #CBCBCB",
"6 	c #CACACA",
"7 	c #C9C9C9",
"8 	c #DDD9EE",
"9 	c #DCDCE3",
"0 	c #C8C8C8",
"a 	c #C7C7C7",
"b 	c #C6C6C6",
"c 	c #DBDBE2",
"d 	c #DECFF2",
"e 	c #C5C5C5",
"f 	c #C4C4C4",
"g 	c #C3C3C3",
"h 	c #C2C2C2",
"i 	c #DED4F1",
"j 	c #C1C1C1",
"k 	c #C0C0C0",
"l 	c #BFBFBF",
"m 	c #BEBEBE",
"n 	c #DED6F1",
"o 	c #BDBDBD",
"p 	c #BCBCBC",
"q 	c #BBBBBB",
"r 	c #BABABA",
"s 	c #DDD6F1",
"t 	c #B9B9B9",
"u 	c #B8B8B8",
"v 	c #B7B7B7",
"w 	c #DADAE2",
"x 	c #DBDBDB",
"y 	c #DCDCDC",
"z 	c #DDDDDD",
"A 	c #E0E0E0",
"B 	c #E3E3E3",
"C 	c #E5E5E5",
"D 	c #E6E6E6",
"E 	c #E7E7E7",
"F 	c #DADAE4",
"G 	c #E2E2E2",
"H 	c #E9E9E9",
"I 	c #EDEDED",
"J 	c #F0F0F0",
"K 	c #F2F2F2",
"L 	c #F3F3F3",
"M 	c #E1E1E1",
"N 	c #EBEBEB",
"O 	c #F1F1F1",
"P 	c #F5F5F5",
"Q 	c #F9F9F9",
"R 	c #FCFCFC",
"S 	c #FFFFFF",
"T 	c #D9DAE0",
"U 	c #E4E4E4",
"V 	c #F6F6F6",
"W 	c #F76CFC",
"X 	c #DEDEDE",
"Y 	c #ECECEC",
"Z 	c #FBFBFB",
"` 	c #DBDBE8",
" .	c #FEFEFE",
"..	c #DDCFF2",
"+.	c #DECCF2",
"@.	c #DCD7EE",
"#.	c #DBDAE9",
"$.	c #D8D8DB",
"%.	c #D6D6D7",
"&.	c #D9D9E1",
"*.	c #DDCCF2",
"=.	c #DBDAE7",
"-.	c #DDCFF1",
";.	c #DBDAE8",
">.	c #D8D9DF",
",.	c #D9D9E3",
"'.	c #DCD8ED",
").	c #DDCEF2",
"!.	c #DDD3F0",
"~.	c #DDD5F0",
"                                                    . + @ # $ % & $ * @ = -                                                     ",
"                                            ; > , , ' ' ) ) ) ) ) ) ) ) ) ' ' , > ;                                             ",
"                                      ! ~ , ' ' ) { { { ] ] ] ^ ^ ^ ] ] ] { { { ) ' ' > !                                       ",
"                                  . / , ' ) { ] ] ^ ( ( _ _ : : : : : _ _ ( ( ^ ] ] { ) ' < -                                   ",
"                                [ , ) { { ] ( ( _ : } | | 1 1 1 1 1 1 1 | | } : _ ( ( ] { { ) 2                                 ",
"                            3 , ' { { ^ ( _ : | 1 1 4 5 6 6 6 7 7 7 6 6 6 5 4 1 1 | : _ ( ^ { { ' 8                             ",
"                          9 ' ) { ^ ( : } | 4 5 6 7 0 0 a a b b b b b a a 0 0 7 6 5 4 | } : ( ^ { ) c                           ",
"                      d , ' { ] ( _ } | 4 6 7 0 a b e f f g g h h h g g f f e b a 0 7 6 4 | } _ ( ] { ' d                       ",
"                    i , ) { ^ ( : | 4 6 7 0 b e f h j k l l m m m m m l l k j h f e b 0 7 6 4 | : ( ^ { ) i                     ",
"                  n , ) { ^ _ } 1 5 7 0 b f g j l m o p q q r r r r r q q p o m l j g f b 0 7 5 1 } _ ^ { ) s                   ",
"                i , ) { ( : | 4 6 0 b e g k l o q r t u u t t r r r t t u u t r q o l k g e b 0 6 4 | : ( { ) i                 ",
"              d , ) { ( : | 4 7 0 e g j l o q t v t q p o m l l l l l m o p q t v t q o l j g e 0 7 4 | : ( { ) d               ",
"              , ) { ( : | 5 7 a e h k o q t u r p m k j g f e e b e e f g j k m p r u t q o k h e a 7 5 | : ( { )               ",
"            9 ' { ^ : | 5 7 a f h l p r v r p l j f b 0 7 5 4 4 1 4 4 5 7 0 b f j l p r v r p l h f a 7 5 | : ^ { w             ",
"          3 ' { ^ _ | 4 7 a f j m q t t q l j e 0 6 1 } _ ( ^ ] ] ] ^ ( _ } 1 6 0 e j l q t t q m j f a 7 4 | _ ^ { 8           ",
"          , ) ] ( } 4 7 a f j m q u r o j f 0 5 | _ ] ' % x y z z z y x % ' ] _ | 5 0 f j o r u q m j f a 7 4 } ( ] )           ",
"        [ ' { ( : 1 6 0 e h m q u r m j b 7 | _ { % y A B C D E E E D C B A y % { _ | 7 b j m r u q m h e 0 6 1 : ( { F         ",
"      . , { ^ _ | 5 0 e h l q u r m h a 5 : ] % z G D H I J K L L L K J I H D G z % ] : 5 a h m r u q l h e 0 5 | _ ^ { -       ",
"      / ) { ( } 4 7 b g k p t r m h a 4 _ ) x M D N O P Q R S S S S S R Q P O N D M x ) _ 4 a h m r t p k g b 7 4 } ( { T       ",
"    ! , { ^ : | 6 0 e j o r t o j a 4 _ ' z U H J V R S S S S S S S S S S S R V J H U z ' _ 4 a j o t r o j e 0 6 | : ^ { W     ",
"    ~ ' { ( } 4 7 b g l q v q j b 5 _ ' X C Y L Z S S S S S S S S S S S S S S S Z L Y C X ' _ 5 b j q v q l g b 7 4 } ( { `     ",
"    , ) ] _ | 6 0 f k o t r l f 7 : ) z C I P  .S S S S S S S S S S S S S S S S S  .P I C z ) : 7 f l r t o k f 0 6 | _ ] )     ",
"  ; ' { ( : 4 7 b g l q u p j 0 | ] x U Y P S S S S S S S S S S S S S S S S S S S S S P Y U x ] | 0 j p u q l g b 7 4 : ( { ..  ",
"  > ' ] ( | 5 0 e j o t r l e 5 _ % M H L  .S S S S S S S S S S S S S S S S S S S S S  .L H M % _ 5 e l r t o j e 0 5 | ( ] `   ",
"  , ) ] _ 1 6 a f l q v p j 0 | { z D J Z S S S S S S S S S S S S S S S S S S S S S S S Z J D z { | 0 j p v q l f a 6 1 _ ] )   ",
"  , { ^ : 1 7 b h m r t m f 6 _ % G N V S S S S S S S S S S S S S S S S S S S S S S S S S V N G % _ 6 f m t r m h b 7 1 : ^ {   ",
". ' { ( } 4 0 e j o t q k b 1 ] y D O R S S S S S S S S S S S S S S S S S S S S S S S S S R O D y ] 1 b k q t o j e 0 4 } ( { +.",
"+ ' { ( | 5 0 f k p u p j 0 } ' A H P S S S S S S S S S S S S S S S S S S S S S S S S S S S P H A ' } 0 j p u p k f 0 5 | ( { @.",
"@ ) ] _ | 6 a f l q u o g 7 _ % B I Q S S S S S S S S S S S S S S S S S S S S S S S S S S S Q I B % _ 7 g o u q l f a 6 | _ ] #.",
"# ) ] _ 1 6 a g l q t m f 5 ( x C J R S S S S S S S S S S S S S S S S S S S S S S S S S S S R J C x ( 5 f m t q l g a 6 1 _ ] w ",
"$ ) ] : 1 6 b g m r t l e 4 ^ y D K S S S S S S S S S S S S S S S S S S S S S S S S S S S S S K D y ^ 4 e l t r m g b 6 1 : ] $.",
"% ) ^ : 1 7 b h m r r l e 4 ] z E L S S S S S S S S S S S S S S S S S S S S S S S S S S S S S L E z ] 4 e l r r m h b 7 1 : ^ %.",
"& ) ^ : 1 7 b h m r r l b 1 ] z E L S S S S S S S S S S S S S S S S S S S S S S S S S S S S S L E z ] 1 b l r r m h b 7 1 : ^ %.",
"$ ) ^ : 1 7 b h m r r l e 4 ] z E L S S S S S S S S S S S S S S S S S S S S S S S S S S S S S L E z ] 4 e l r r m h b 7 1 : ^ $.",
"* ) ] : 1 6 b g m r t l e 4 ^ y D K S S S S S S S S S S S S S S S S S S S S S S S S S S S S S K D y ^ 4 e l t r m g b 6 1 : ] &.",
"@ ) ] _ 1 6 a g l q t m f 5 ( x C J R S S S S S S S S S S S S S S S S S S S S S S S S S S S R J C x ( 5 f m t q l g a 6 1 _ ] #.",
"= ) ] _ | 6 a f l q u o g 7 _ % B I Q S S S S S S S S S S S S S S S S S S S S S S S S S S S Q I B % _ 7 g o u q l f a 6 | _ ] @.",
"- ' { ( | 5 0 f k p u p j 0 } ' A H P S S S S S S S S S S S S S S S S S S S S S S S S S S S P H A ' } 0 j p u p k f 0 5 | ( { *.",
"  ' { ( } 4 0 e j o t q k b 1 ] y D O R S S S S S S S S S S S S S S S S S S S S S S S S S R O D y ] 1 b k q t o j e 0 4 } ( {   ",
"  , { ^ : 1 7 b h m r t m f 6 _ % G N V S S S S S S S S S S S S S S S S S S S S S S S S S V N G % _ 6 f m t r m h b 7 1 : ^ {   ",
"  > ) ] _ 1 6 a f l q v p j 0 | { z D J Z S S S S S S S S S S S S S S S S S S S S S S S Z J D z { | 0 j p v q l f a 6 1 _ ] =.  ",
"  ; ' ] ( | 5 0 e j o t r l e 5 _ % M H L  .S S S S S S S S S S S S S S S S S S S S S  .L H M % _ 5 e l r t o j e 0 5 | ( ] -.  ",
"    ' { ( : 4 7 b g l q u p j 0 | ] x U Y P S S S S S S S S S S S S S S S S S S S S S P Y U x ] | 0 j p u q l g b 7 4 : ( {     ",
"    > ) ] _ | 6 0 f k o t r l f 7 : ) z C I P  .S S S S S S S S S S S S S S S S S  .P I C z ) : 7 f l r t o k f 0 6 | _ ] ;.    ",
"    ! ' { ( } 4 7 b g l q v q j b 5 _ ' X C Y L Z S S S S S S S S S S S S S S S Z L Y C X ' _ 5 b j q v q l g b 7 4 } ( { W     ",
"      < { ^ : | 6 0 e j o r t o j a 4 _ ' z U H J V R S S S S S S S S S S S R V J H U z ' _ 4 a j o t r o j e 0 6 | : ^ >.      ",
"      - ) { ( } 4 7 b g k p t r m h a 4 _ ) x M D N O P Q R S S S S S R Q P O N D M x ) _ 4 a h m r t p k g b 7 4 } ( { *.      ",
"        2 { ^ _ | 5 0 e h l q u r m h a 5 : ] % z G D H I J K L L L K J I H D G z % ] : 5 a h m r u q l h e 0 5 | _ ^ ,.        ",
"          ' { ( : 1 6 0 e h m q u r m j b 7 | _ { % y A B C D E E E D C B A y % { _ | 7 b j m r u q m h e 0 6 1 : ( {           ",
"          8 ) ] ( } 4 7 a f j m q u r o j f 0 5 | _ ] ' % x y z z z y x % ' ] _ | 5 0 f j o r u q m j f a 7 4 } ( ] '.          ",
"            c { ^ _ | 4 7 a f j m q t t q l j e 0 6 1 } _ ( ^ ] ] ] ^ ( _ } 1 6 0 e j l q t t q m j f a 7 4 | _ ^ &.            ",
"              ' { ^ : | 5 7 a f h l p r v r p l j f b 0 7 5 4 4 1 4 4 5 7 0 b f j l p r v r p l h f a 7 5 | : ^ {               ",
"              d ) { ( : | 5 7 a e h k o q t u r p m k j g f e e b e e f g j k m p r u t q o k h e a 7 5 | : ( { ).              ",
"                i ) { ( : | 4 7 0 e g j l o q t v t q p o m l l l l l m o p q t v t q o l j g e 0 7 4 | : ( { !.                ",
"                  s ) { ( : | 4 6 0 b e g k l o q r t u u t t r r r t t u u t r q o l k g e b 0 6 4 | : ( { ~.                  ",
"                    i ) { ^ _ } 1 5 7 0 b f g j l m o p q q r r r r r q q p o m l j g f b 0 7 5 1 } _ ^ { !.                    ",
"                      d ) { ^ ( : | 4 6 7 0 b e f h j k l l m m m m m l l k j h f e b 0 7 6 4 | : ( ^ { ).                      ",
"                          w { ] ( _ } | 4 6 7 0 a b e f f g g h h h g g f f e b a 0 7 6 4 | } _ ( ] &.                          ",
"                            8 ) { ^ ( : } | 4 5 6 7 0 0 a a b b b b b a a 0 0 7 6 5 4 | } : ( ^ { '.                            ",
"                                F { { ^ ( _ : | 1 1 4 5 6 6 6 7 7 7 6 6 6 5 4 1 1 | : _ ( ^ { ,.                                ",
"                                  - T { { ] ( ( _ : } | | 1 1 1 1 1 1 1 | | } : _ ( ( ] { >.*.                                  ",
"                                      W ` ) { ] ] ^ ( ( _ _ : : : : : _ _ ( ( ^ ] ] { ;.W                                       ",
"                                            ..` ) { { { ] ] ] ^ ^ ^ ] ] ] { { { =.-.                                            ",
"                                                    +.@.#.w $.%.%.$.&.#.@.*.                                                    "};
