/* XPM */
static char * light0_xpm[] = {
"64 64 123 2",
"  	c #FF00FF",
". 	c #DBC9F1",
"+ 	c #D8D2EB",
"@ 	c #D5D4E4",
"# 	c #D2D1DA",
"$ 	c #CFCFD2",
"% 	c #CCCCCD",
"& 	c #D1D1DA",
"* 	c #DACBF0",
"= 	c #D5D4E2",
"- 	c #CBCBCB",
"; 	c #CACACA",
"> 	c #C9C9C9",
", 	c #D4D3E2",
"' 	c #DDC3F2",
") 	c #D6D4E3",
"! 	c #C8C8C8",
"~ 	c #C7C7C7",
"{ 	c #C6C6C6",
"] 	c #C5C5C5",
"^ 	c #D5D3E3",
"/ 	c #DCC2F2",
"( 	c #D1D1D8",
"_ 	c #C4C4C4",
": 	c #C3C3C3",
"< 	c #C2C2C2",
"[ 	c #D0D0D7",
"} 	c #DEC0F2",
"| 	c #D3D2DD",
"1 	c #C1C1C1",
"2 	c #C0C0C0",
"3 	c #BFBFBF",
"4 	c #D2D1DC",
"5 	c #DDC0F2",
"6 	c #D8D3EA",
"7 	c #BEBEBE",
"8 	c #BDBDBD",
"9 	c #BCBCBC",
"0 	c #BBBBBB",
"a 	c #BABABA",
"b 	c #D7D2EA",
"c 	c #B9B9B9",
"d 	c #B8B8B8",
"e 	c #B7B7B7",
"f 	c #D1D0D9",
"g 	c #DDBDF2",
"h 	c #DBCAF0",
"i 	c #B5B5B5",
"j 	c #B4B4B4",
"k 	c #B3B3B3",
"l 	c #B2B2B2",
"m 	c #DAC9F0",
"n 	c #D9CFEE",
"o 	c #B0B0B0",
"p 	c #AFAFAF",
"q 	c #D9CEEE",
"r 	c #D9D0ED",
"s 	c #B1B1B1",
"t 	c #D8D0ED",
"u 	c #B6B6B6",
"v 	c #D8CEEE",
"w 	c #DEBEF3",
"x 	c #CCCCCC",
"y 	c #CDCDCD",
"z 	c #D0CFD8",
"A 	c #CFCFCF",
"B 	c #D2D2D2",
"C 	c #D3D3D3",
"D 	c #D4D4D4",
"E 	c #D5D5D5",
"F 	c #D7D7D7",
"G 	c #DADADA",
"H 	c #DBDBDB",
"I 	c #DDDDDD",
"J 	c #DEDEDE",
"K 	c #DDBFF2",
"L 	c #CECECE",
"M 	c #D6D6D6",
"N 	c #E1E1E1",
"O 	c #E3E3E3",
"P 	c #E5E5E5",
"Q 	c #E7E7E7",
"R 	c #E8E8E8",
"S 	c #D1D1DC",
"T 	c #D0D0D0",
"U 	c #D9D9D9",
"V 	c #E6E6E6",
"W 	c #EAEAEA",
"X 	c #EEEEEE",
"Y 	c #F0F0F0",
"Z 	c #F3F3F3",
"` 	c #F4F4F4",
" .	c #DAC8F0",
"..	c #DCDCDC",
"+.	c #E2E2E2",
"@.	c #ECECEC",
"#.	c #F1F1F1",
"$.	c #F5F5F5",
"%.	c #F9F9F9",
"&.	c #FDFDFD",
"*.	c #FFFFFF",
"=.	c #CFCFD7",
"-.	c #F6F6F6",
";.	c #FBFBFB",
">.	c #D4D2E2",
",.	c #EDEDED",
"'.	c #FEFEFE",
").	c #DACBEF",
"!.	c #D3D2E1",
"~.	c #D7D1EB",
"{.	c #D3D2E2",
"].	c #D0CFD9",
"^.	c #CCCCD0",
"/.	c #D6D0EA",
"(.	c #D2D1E0",
"_.	c #D9CAEF",
":.	c #D3D1E1",
"<.	c #DBC2F1",
"[.	c #CECED6",
"}.	c #D0CFDB",
"|.	c #D6D1E9",
"1.	c #CFCFD8",
"2.	c #D7CFED",
"                                                    . + @ # $ % % $ & @ + .                                                     ",
"                                            * = - - - ; ; > > > > > > > ; ; - - , *                                             ",
"                                      ' ) - - ; > ! ~ ~ { { { ] ] ] { { { ~ ~ ! > ; - ^ /                                       ",
"                                  . ( - ; > ! ~ { ] _ : : < < < < < < < : : _ ] { ~ ! > ; [ .                                   ",
"                              } | - ; ! ~ { _ : < 1 1 2 2 3 3 3 3 3 3 3 2 2 1 1 < : _ { ~ ! ; 4 5                               ",
"                            6 - ; ! ~ ] _ < 1 1 3 7 8 9 9 0 0 0 a 0 0 0 9 9 8 7 3 1 1 < _ ] ~ ! ; b                             ",
"                          # - > ~ ] _ < 1 2 7 8 0 a c c d d e e e e e d d c c a 0 8 7 2 1 < _ ] ~ > f g                         ",
"                      h - ; ! { _ < 1 3 7 9 a c d e i j k k l l l l l k k j i e d c a 9 7 3 1 < _ { ! ; m                       ",
"                    n - ; ! ] : 1 2 7 9 a c e i k l l o p p o o o o o p p o l l k i e c a 9 7 2 1 : ] ! ; q                     ",
"                  r - > ~ ] < 1 3 9 a c e j l s p o l l k j j i i i j j k l l o p s l j e c a 9 3 1 < ] ~ > t                   ",
"                n - > ~ _ < 2 7 0 c e i l s o l k j u e d c c c a c c c d e u j k l o s l i e c 0 7 2 < _ ~ > v                 ",
"              h - > ~ _ < 2 8 0 c u k s p l k u d c 0 9 7 3 3 2 2 2 3 3 7 9 0 c d u k l p s k u c 0 8 2 < _ ~ > m               ",
"            w - ; ~ _ < 2 8 a d i l o s k u d a 9 3 1 < : _ ] { { { ] _ : < 1 3 9 a d u k s o l i d a 8 2 < _ ~ ; g             ",
"            # ; ! ] < 2 8 a d j l p l i d a 8 2 < _ ~ > ; - x y y y x - ; > ~ _ < 2 8 a d i l p l j d a 8 2 < ] ! z             ",
"          6 - ! ] < 2 8 a d j l o l u c 9 3 < ] ! - y A B C D E E E D C B A y - ! ] < 3 9 c u l o l j d a 8 2 < ] ! b           ",
"          - > { : 1 7 0 d j l o k e c 8 1 _ ! - A B E F G H I J J J I H G F E B A - ! _ 1 8 c e k o l j d 0 7 1 : { > K         ",
"        | ; ~ _ 1 3 0 c i l o k e a 7 < { ; L B M G I N O P Q R R R Q P O N I G M B L ; { < 7 a e k o l i c 0 3 1 _ ~ S         ",
"        - ! ] < 2 9 c u l p l e a 3 < ~ - T E U J O V W X Y Z ` ` ` Z Y X W V O J U E T - ~ < 3 a e l p l u c 9 2 < ] !  .      ",
"      ( ; ~ _ 1 7 a e k o l u c 7 < ! x B M ..+.Q @.#.$.%.&.*.*.*.*.*.&.%.$.#.@.Q +...M B x ! < 7 c u l o k e a 7 1 _ ~ =.      ",
"      - ! ] < 3 9 c i s s i c 8 < ~ x B F J O W #.-.&.*.*.*.*.*.*.*.*.*.*.*.&.-.#.W O J F B x ~ < 8 c i s s i c 9 3 < ] ! /     ",
"    ) ; ~ _ 1 7 a e l p k d 9 1 { - B F J P @.` ;.*.*.*.*.*.*.*.*.*.*.*.*.*.*.*.;.` @.P J F B - { 1 9 d k p l e a 7 1 _ ~ >.    ",
"    - > { < 2 9 c j s l u a 3 _ ; T M J P ,.$.'.*.*.*.*.*.*.*.*.*.*.*.*.*.*.*.*.*.'.$.,.P J M T ; _ 3 a u l s j c 9 2 < { >     ",
"  * - ! _ 1 7 a e l o k d 8 < ! L E ..O @.$.*.*.*.*.*.*.*.*.*.*.*.*.*.*.*.*.*.*.*.*.*.$.@.O ..E L ! < 8 d k o l e a 7 1 _ ! ).  ",
"  = ; ~ : 1 8 c i s l u a 2 ] - B U +.W ` '.*.*.*.*.*.*.*.*.*.*.*.*.*.*.*.*.*.*.*.*.*.'.` W +.U B - ] 2 a u l s i c 8 1 : ~ !.  ",
"  - > { < 3 0 d k p k d 9 < ! A M J Q #.;.*.*.*.*.*.*.*.*.*.*.*.*.*.*.*.*.*.*.*.*.*.*.*.;.#.Q J M A ! < 9 d k p k d 0 3 < { >   ",
"  - ! ] 1 7 a e l o j c 3 _ - B G O @.-.*.*.*.*.*.*.*.*.*.*.*.*.*.*.*.*.*.*.*.*.*.*.*.*.*.-.@.O G B - _ 3 c j o l e a 7 1 ] !   ",
". - ~ _ 1 8 c i l l u 0 1 ~ y E I V #.&.*.*.*.*.*.*.*.*.*.*.*.*.*.*.*.*.*.*.*.*.*.*.*.*.*.&.#.V I E y ~ 1 0 u l l i c 8 1 _ ~  .",
"+ ; ~ : 2 9 c j o l e 9 < > A F N W $.*.*.*.*.*.*.*.*.*.*.*.*.*.*.*.*.*.*.*.*.*.*.*.*.*.*.*.$.W N F A > < 9 e l o j c 9 2 : ~ ~.",
"@ ; { : 2 9 d k p k d 7 : ; B G O X %.*.*.*.*.*.*.*.*.*.*.*.*.*.*.*.*.*.*.*.*.*.*.*.*.*.*.*.%.X O G B ; : 7 d k p k d 9 2 : { {.",
"# > { < 3 0 d k p j c 3 _ - C H P Y &.*.*.*.*.*.*.*.*.*.*.*.*.*.*.*.*.*.*.*.*.*.*.*.*.*.*.*.&.Y P H C - _ 3 c j p k d 0 3 < { ].",
"$ > { < 3 0 e l o j c 3 ] x D I Q Z *.*.*.*.*.*.*.*.*.*.*.*.*.*.*.*.*.*.*.*.*.*.*.*.*.*.*.*.*.Z Q I D x ] 3 c j o l e 0 3 < { ^.",
"% > ] < 3 0 e l o i c 2 { y E J R ` *.*.*.*.*.*.*.*.*.*.*.*.*.*.*.*.*.*.*.*.*.*.*.*.*.*.*.*.*.` R J E y { 2 c i o l e 0 3 < ] > ",
"% > ] < 3 a e l o i a 2 { y E J R ` *.*.*.*.*.*.*.*.*.*.*.*.*.*.*.*.*.*.*.*.*.*.*.*.*.*.*.*.*.` R J E y { 2 a i o l e a 3 < ] > ",
"$ > ] < 3 0 e l o i c 2 { y E J R ` *.*.*.*.*.*.*.*.*.*.*.*.*.*.*.*.*.*.*.*.*.*.*.*.*.*.*.*.*.` R J E y { 2 c i o l e 0 3 < ] ^.",
"& > { < 3 0 e l o j c 3 ] x D I Q Z *.*.*.*.*.*.*.*.*.*.*.*.*.*.*.*.*.*.*.*.*.*.*.*.*.*.*.*.*.Z Q I D x ] 3 c j o l e 0 3 < { ].",
"@ > { < 3 0 d k p j c 3 _ - C H P Y &.*.*.*.*.*.*.*.*.*.*.*.*.*.*.*.*.*.*.*.*.*.*.*.*.*.*.*.&.Y P H C - _ 3 c j p k d 0 3 < { {.",
"+ ; { : 2 9 d k p k d 7 : ; B G O X %.*.*.*.*.*.*.*.*.*.*.*.*.*.*.*.*.*.*.*.*.*.*.*.*.*.*.*.%.X O G B ; : 7 d k p k d 9 2 : { /.",
". ; ~ : 2 9 c j o l e 9 < > A F N W $.*.*.*.*.*.*.*.*.*.*.*.*.*.*.*.*.*.*.*.*.*.*.*.*.*.*.*.$.W N F A > < 9 e l o j c 9 2 : ~  .",
"  - ~ _ 1 8 c i l l u 0 1 ~ y E I V #.&.*.*.*.*.*.*.*.*.*.*.*.*.*.*.*.*.*.*.*.*.*.*.*.*.*.&.#.V I E y ~ 1 0 u l l i c 8 1 _ ~   ",
"  - ! ] 1 7 a e l o j c 3 _ - B G O @.-.*.*.*.*.*.*.*.*.*.*.*.*.*.*.*.*.*.*.*.*.*.*.*.*.*.-.@.O G B - _ 3 c j o l e a 7 1 ] !   ",
"  , > { < 3 0 d k p k d 9 < ! A M J Q #.;.*.*.*.*.*.*.*.*.*.*.*.*.*.*.*.*.*.*.*.*.*.*.*.;.#.Q J M A ! < 9 d k p k d 0 3 < { (.  ",
"  * ; ~ : 1 8 c i s l u a 2 ] - B U +.W ` '.*.*.*.*.*.*.*.*.*.*.*.*.*.*.*.*.*.*.*.*.*.'.` W +.U B - ] 2 a u l s i c 8 1 : ~ _.  ",
"    - ! _ 1 7 a e l o k d 8 < ! L E ..O @.$.*.*.*.*.*.*.*.*.*.*.*.*.*.*.*.*.*.*.*.*.*.$.@.O ..E L ! < 8 d k o l e a 7 1 _ !     ",
"    ^ > { < 2 9 c j s l u a 3 _ ; T M J P ,.$.'.*.*.*.*.*.*.*.*.*.*.*.*.*.*.*.*.*.'.$.,.P J M T ; _ 3 a u l s j c 9 2 < { :.    ",
"    / ; ~ _ 1 7 a e l p k d 9 1 { - B F J P @.` ;.*.*.*.*.*.*.*.*.*.*.*.*.*.*.*.;.` @.P J F B - { 1 9 d k p l e a 7 1 _ ~ <.    ",
"      [ ! ] < 3 9 c i s s i c 8 < ~ x B F J O W #.-.&.*.*.*.*.*.*.*.*.*.*.*.&.-.#.W O J F B x ~ < 8 c i s s i c 9 3 < ] [.      ",
"      . ; ~ _ 1 7 a e k o l u c 7 < ! x B M ..+.Q @.#.$.%.&.*.*.*.*.*.&.%.$.#.@.Q +...M B x ! < 7 c u l o k e a 7 1 _ ~  .      ",
"        4 ! ] < 2 9 c u l p l e a 3 < ~ - T E U J O V W X Y Z ` ` ` Z Y X W V O J U E T - ~ < 3 a e l p l u c 9 2 < ] }.        ",
"        5 ; ~ _ 1 3 0 c i l o k e a 7 < { ; L B M G I N O P Q R R R Q P O N I G M B L ; { < 7 a e k o l i c 0 3 1 _ ~ K         ",
"          b > { : 1 7 0 d j l o k e c 8 1 _ ! - A B E F G H I J J J I H G F E B A - ! _ 1 8 c e k o l j d 0 7 1 : { |.          ",
"            f ! ] < 2 8 a d j l o l u c 9 3 < ] ! - y A B C D E E E D C B A y - ! ] < 3 9 c u l o l j d a 8 2 < ] 1.            ",
"            g ; ! ] < 2 8 a d j l p l i d a 8 2 < _ ~ > ; - x y y y x - ; > ~ _ < 2 8 a d i l p l j d a 8 2 < ] !               ",
"              m ; ~ _ < 2 8 a d i l o s k u d a 9 3 1 < : _ ] { { { ] _ : < 1 3 9 a d u k s o l i d a 8 2 < _ ~ m               ",
"                q > ~ _ < 2 8 0 c u k s p l k u d c 0 9 7 3 3 2 2 2 3 3 7 9 0 c d u k l p s k u c 0 8 2 < _ ~ v                 ",
"                  t > ~ _ < 2 7 0 c e i l s o l k j u e d c c c a c c c d e u j k l o s l i e c 0 7 2 < _ ~ 2.                  ",
"                    v > ~ ] < 1 3 9 a c e j l s p o l l k j j i i i j j k l l o p s l j e c a 9 3 1 < ] ~ v                     ",
"                      m ; ! ] : 1 2 7 9 a c e i k l l o p p o o o o o p p o l l k i e c a 9 7 2 1 : ] ! m                       ",
"                        g z ! { _ < 1 3 7 9 a c d e i j k k l l l l l k k j i e d c a 9 7 3 1 < _ { 1.                          ",
"                            b > ~ ] _ < 1 2 7 8 0 a c c d d e e e e e d d c c a 0 8 7 2 1 < _ ] ~ |.                            ",
"                              K S ! ~ ] _ < 1 1 3 7 8 9 9 0 0 0 a 0 0 0 9 9 8 7 3 1 1 < _ ] ~ }.K                               ",
"                                   .=.! ~ { _ : < 1 1 2 2 3 3 3 3 3 3 3 2 2 1 1 < : _ { ~ [. .                                  ",
"                                      / >.> ! ~ { ] _ : : < < < < < < < : : _ ] { ~ ! :.<.                                      ",
"                                            ).!.> ! ~ ~ { { { ] ] ] { { { ~ ~ ! (._.                                            ",
"                                                     .~.{.].^.> > ^.].{./. .                                                    "};
