/* XPM */
static char * light6_xpm[] = {
"64 64 80 1",
" 	c #FF00FF",
".	c #E6D7F7",
"+	c #EAE7F8",
"@	c #EDEEF8",
"#	c #F0F1F6",
"$	c #F2F2F4",
"%	c #F3F3F3",
"&	c #E9E6F8",
"*	c #E6DAF7",
"=	c #EEEFF7",
"-	c #F2F2F2",
";	c #F1F1F1",
">	c #EBBBF9",
",	c #F0F0F0",
"'	c #EFEFEF",
")	c #F1F2F6",
"!	c #EEEEEE",
"~	c #EDEDED",
"{	c #F0F1F5",
"]	c #EFF1F7",
"^	c #ECECEC",
"/	c #EBEBEB",
"(	c #EEF0F6",
"_	c #EAE8F8",
":	c #EAEAEA",
"<	c #E9E9E9",
"[	c #E8E8E8",
"}	c #E9E7F8",
"|	c #E7E7E7",
"1	c #E6E6E6",
"2	c #E6D9F7",
"3	c #E5E5E5",
"4	c #E4E4E4",
"5	c #E3E3E3",
"6	c #E8E1F8",
"7	c #E2E2E2",
"8	c #E1E1E1",
"9	c #E0E0E0",
"0	c #E7E0F8",
"a	c #E8E3F8",
"b	c #DFDFDF",
"c	c #DEDEDE",
"d	c #DDDDDD",
"e	c #E7E2F8",
"f	c #DCDCDC",
"g	c #DBDBDB",
"h	c #DADADA",
"i	c #D9D9D9",
"j	c #D8D8D8",
"k	c #D7D7D7",
"l	c #D6D6D6",
"m	c #D4D4D4",
"n	c #D3D3D3",
"o	c #D2D2D2",
"p	c #D0D0D0",
"q	c #CECECE",
"r	c #EFF0F5",
"s	c #D1D1D1",
"t	c #CFCFCF",
"u	c #D5D5D5",
"v	c #CDCDCD",
"w	c #E5D7F7",
"x	c #F4F4F4",
"y	c #F8F8F8",
"z	c #FBFBFB",
"A	c #FDFDFD",
"B	c #FFFFFF",
"C	c #EFF0F4",
"D	c #F5F5F5",
"E	c #EEACF9",
"F	c #FAFAFA",
"G	c #ECEDF7",
"H	c #ECEEF6",
"I	c #E8E6F8",
"J	c #F0F1F3",
"K	c #EDEFF5",
"L	c #E9E7F7",
"M	c #E5D9F7",
"N	c #E6DFF7",
"O	c #E7E2F7",
"                          .+@#$%%$#@&.                          ",
"                      *=---;;;;;;;;;;;--=*                      ",
"                   >@--;;,,,''''''''',,,;;-@>                   ",
"                 .)-;;,,'!!!~~~~~~~~~!!!',,;;{.                 ",
"                ]-;,,'!!~~^^/////////^^~~!!',,;(                ",
"              _-;,,'!~^^//::<<<<[<<<<:://^^~!',,;}              ",
"             #-;,'!~^/::<[[||1111111||[[<::/^~!',;#             ",
"           2-;,'!~^/:<[||133444555444331||[<:/^~!',;2           ",
"          6-;,'!~/:<[|134577788999887775431|[<:/~!',;0          ",
"         a-;,!~^/:[|134778bbccdddddccbb877431|[:/^~!,;e         ",
"        6-;,!~^:<[13478bbddfghhhhhhhgfddbb87431[<:^~!,;0        ",
"       2-;,!~/:<|1478bcdghijjklllllkjjihgdcb8741|<:/~!,;2       ",
"       -;,!~/:[|3579cdghjllmmnooooonmmlljhgdc9753|[:/~!,;       ",
"      #;,!~/:[1358bdghjlmnoppqqqqqqqpponmljhgdb8531[:/~!,r      ",
"     _-,'~^:[1358bdhjlmostqqponmmmnopqqtsomljhdb8531[:^~',}     ",
"     -;'!^:<|358cfhjunsqqsmljhfffffhjlmsqqsnujhfc853|<:^!';     ",
"    ];,!~/<|358cfhkmopvsujfb7531|1357bfjusvpomkhfc853|</~!,(    ",
"   .-,'~/:[158bfhkmoqtmjf83<^';-%-;'^<38fjmtqomkhfb851[:/~',w   ",
"   );,!^:[147bdhkmsqpug93/'xyzABBBAzyx'/39gupqsmkhdb741[:^!,C   ",
"  >-,'~/<|379dhjmoqslf5<'DzBBBBBBBBBBBzD'<5flsqomjhd973|</~',E  ",
"  @;,!^:[148cgjuoqpld5/%FBBBBBBBBBBBBBBBF%/5dlpqoujgc841[:^!,G  ",
"  -;'~/<|37bdhlnptuf5^xABBBBBBBBBBBBBBBBBAx^5futpnlhdb73|</~';  ",
" *-,!^:[148cgjmsvmg5/xABBBBBBBBBBBBBBBBBBBAx/5gmvsmjgc841[:^!,* ",
" =;,!^:|37bdhloqsj9<%ABBBBBBBBBBBBBBBBBBBBBA%<9jsqolhdb73|:^!,H ",
" -;'~/<|47bgjmsquf3'FBBBBBBBBBBBBBBBBBBBBBBBF'3fuqsmjgb74|</~'; ",
" -,!~/[158dhlntsj8/DBBBBBBBBBBBBBBBBBBBBBBBBBD/8jstnlhd851[/~!, ",
".-,!^:[37bdiloqmf3'zBBBBBBBBBBBBBBBBBBBBBBBBBz'3fmqolidb73[:^!,w",
"+;,!^:|37bfjmpqlb<xBBBBBBBBBBBBBBBBBBBBBBBBBBBx<blqpmjfb73|:^!,I",
"@;'~/<|47cgjmppj7^yBBBBBBBBBBBBBBBBBBBBBBBBBBBy^7jppmjgc74|</~'G",
"#;'~/<148chknqoh5'zBBBBBBBBBBBBBBBBBBBBBBBBBBBz'5hoqnkhc841</~'r",
"$;'~/<148dhloqnf3;ABBBBBBBBBBBBBBBBBBBBBBBBBBBA;3fnqolhd841</~'J",
"%;'~/<159dhloqmf1-BBBBBBBBBBBBBBBBBBBBBBBBBBBBB-1fmqolhd951</~';",
"%;'~/[159dhloqmf|%BBBBBBBBBBBBBBBBBBBBBBBBBBBBB%|fmqolhd951[/~';",
"$;'~/<159dhloqmf1-BBBBBBBBBBBBBBBBBBBBBBBBBBBBB-1fmqolhd951</~'J",
"#;'~/<148dhloqnf3;ABBBBBBBBBBBBBBBBBBBBBBBBBBBA;3fnqolhd841</~'r",
"@;'~/<148chknqoh5'zBBBBBBBBBBBBBBBBBBBBBBBBBBBz'5hoqnkhc841</~'G",
"&;'~/<|47cgjmppj7^yBBBBBBBBBBBBBBBBBBBBBBBBBBBy^7jppmjgc74|</~'I",
".;,!^:|37bfjmpqlb<xBBBBBBBBBBBBBBBBBBBBBBBBBBBx<blqpmjfb73|:^!,w",
" -,!^:[37bdiloqmf3'zBBBBBBBBBBBBBBBBBBBBBBBBBz'3fmqolidb73[:^!, ",
" -,!~/[158dhlntsj8/DBBBBBBBBBBBBBBBBBBBBBBBBBD/8jstnlhd851[/~!, ",
" =;'~/<|47bgjmsquf3'FBBBBBBBBBBBBBBBBBBBBBBBF'3fuqsmjgb74|</~'H ",
" *;,!^:|37bdhloqsj9<%ABBBBBBBBBBBBBBBBBBBBBA%<9jsqolhdb73|:^!,* ",
"  -,!^:[148cgjmsvmg5/xABBBBBBBBBBBBBBBBBBBAx/5gmvsmjgc841[:^!,  ",
"  @;'~/<|37bdhlnptuf5^xABBBBBBBBBBBBBBBBBAx^5futpnlhdb73|</~'G  ",
"  >;,!^:[148cgjuoqpld5/%FBBBBBBBBBBBBBBBF%/5dlpqoujgc841[:^!,E  ",
"   {,'~/<|379dhjmoqslf5<'DzBBBBBBBBBBBzD'<5flsqomjhd973|</~'C   ",
"   .;,!^:[147bdhkmsqpug93/'xyzABBBAzyx'/39gupqsmkhdb741[:^!,w   ",
"    (,'~/:[158bfhkmoqtmjf83<^';-%-;'^<38fjmtqomkhfb851[:/~'K    ",
"     ;,!~/<|358cfhkmopvsujfb7531|1357bfjusvpomkhfc853|</~!,     ",
"     };'!^:<|358cfhjunsqqsmljhfffffhjlmsqqsnujhfc853|<:^!'L     ",
"      #,'~^:[1358bdhjlmostqqponmmmnopqqtsomljhdb8531[:^~'r      ",
"       ;,!~/:[1358bdghjlmnoppqqqqqqqpponmljhgdb8531[:/~!,       ",
"       2;,!~/:[|3579cdghjllmmnooooonmmlljhgdc9753|[:/~!,M       ",
"        0;,!~/:<|1478bcdghijjklllllkjjihgdcb8741|<:/~!,N        ",
"         e;,!~^:<[13478bbddfghhhhhhhgfddbb87431[<:^~!,O         ",
"          0;,!~^/:[|134778bbccdddddccbb877431|[:/^~!,N          ",
"           2;,'!~/:<[|134577788999887775431|[<:/~!',M           ",
"             r,'!~^/:<[||133444555444331||[<:/^~!'r             ",
"              };,'!~^/::<[[||1111111||[[<::/^~!',L              ",
"                (,,'!~^^//::<<<<[<<<<:://^^~!',K                ",
"                 wC,,'!!~~^^/////////^^~~!!',Cw                 ",
"                   EG;,,'!!!~~~~~~~~~!!!',,GE                   ",
"                      *H;,,,''''''''',,,H*                      ",
"                          wIGrJ;;JrGIw                          "};
