/* XPM */
static char * cyan6_xpm[] = {
"64 64 168 2",
"  	c #FF00FF",
". 	c #B0C9FF",
"+ 	c #ACC2FF",
"@ 	c #B1C9FF",
"# 	c #AFC9FF",
"$ 	c #AFC8FF",
"% 	c #AEC8FF",
"& 	c #ADC7FF",
"* 	c #ACC7FF",
"= 	c #ACC6FF",
"- 	c #ABC6FF",
"; 	c #ABC5FF",
"> 	c #AAC5FF",
", 	c #A9C4FF",
"' 	c #A8C4FF",
") 	c #AEC7FF",
"! 	c #A7C3FF",
"~ 	c #A6C2FF",
"{ 	c #A5C2FF",
"] 	c #A8C3FF",
"^ 	c #A4C1FF",
"/ 	c #A3C0FF",
"( 	c #A2C0FF",
"_ 	c #A2BFFF",
": 	c #BBCAFF",
"< 	c #A5C1FF",
"[ 	c #A1BFFF",
"} 	c #A0BEFF",
"| 	c #9FBDFF",
"1 	c #9EBDFF",
"2 	c #9FBEFF",
"3 	c #9DBCFF",
"4 	c #9CBCFF",
"5 	c #9CBBFF",
"6 	c #9BBBFF",
"7 	c #9BBAFF",
"8 	c #99BAFF",
"9 	c #99B9FF",
"0 	c #98B9FF",
"a 	c #97B8FF",
"b 	c #96B8FF",
"c 	c #95B7FF",
"d 	c #94B6FF",
"e 	c #93B6FF",
"f 	c #93B5FF",
"g 	c #92B5FF",
"h 	c #92B4FF",
"i 	c #91B4FF",
"j 	c #90B3FF",
"k 	c #8FB2FF",
"l 	c #8EB2FF",
"m 	c #8DB1FF",
"n 	c #8FB3FF",
"o 	c #8CB0FF",
"p 	c #8BB0FF",
"q 	c #8AAFFF",
"r 	c #89AEFF",
"s 	c #88AEFF",
"t 	c #88ADFF",
"u 	c #87ADFF",
"v 	c #96B7FF",
"w 	c #85ACFF",
"x 	c #84ABFF",
"y 	c #83AAFF",
"z 	c #82AAFF",
"A 	c #82A9FF",
"B 	c #81A9FF",
"C 	c #9ABAFF",
"D 	c #95B6FF",
"E 	c #7FA8FF",
"F 	c #7EA7FF",
"G 	c #7CA6FF",
"H 	c #7CA5FF",
"I 	c #7BA5FF",
"J 	c #B9C9FF",
"K 	c #CDC5FF",
"L 	c #80A8FF",
"M 	c #7DA6FF",
"N 	c #7BA6FF",
"O 	c #7DA8FF",
"P 	c #7EAAFF",
"Q 	c #7FABFF",
"R 	c #80ACFF",
"S 	c #86ADFF",
"T 	c #7DA9FF",
"U 	c #82AFFF",
"V 	c #84B1FF",
"W 	c #85B4FF",
"X 	c #87B5FF",
"Y 	c #87B6FF",
"Z 	c #7AA4FF",
"` 	c #81ADFF",
" .	c #89B9FF",
"..	c #8CBCFF",
"+.	c #8DBEFF",
"@.	c #8FC0FF",
"#.	c #90C1FF",
"$.	c #90C2FF",
"%.	c #BCC9FF",
"&.	c #85ABFF",
"*.	c #7CA7FF",
"=.	c #8BBBFF",
"-.	c #92C4FF",
";.	c #94C8FF",
">.	c #97CBFF",
",.	c #98CDFF",
"'.	c #99CEFF",
").	c #9ACFFF",
"!.	c #81AEFF",
"~.	c #86B4FF",
"{.	c #8ABAFF",
"].	c #93C6FF",
"^.	c #9BD0FF",
"/.	c #9ED5FF",
"(.	c #A1D8FF",
"_.	c #A3DBFF",
":.	c #A4DDFF",
"<.	c #B7C9FF",
"[.	c #8CBDFF",
"}.	c #9CD2FF",
"|.	c #A5DEFF",
"1.	c #A9E4FF",
"2.	c #ADE8FF",
"3.	c #AFECFF",
"4.	c #B1EEFF",
"5.	c #88B7FF",
"6.	c #A0D7FF",
"7.	c #A6DFFF",
"8.	c #ACE7FF",
"9.	c #B6F5FF",
"0.	c #BAFAFF",
"a.	c #BDFFFF",
"b.	c #BFFFFF",
"c.	c #C0FFFF",
"d.	c #C1C8FF",
"e.	c #94C7FF",
"f.	c #A2DAFF",
"g.	c #B8F7FF",
"h.	c #C5FFFF",
"i.	c #CAFFFF",
"j.	c #CEFFFF",
"k.	c #D0FFFF",
"l.	c #D1FFFF",
"m.	c #ABE6FF",
"n.	c #B4F2FF",
"o.	c #BDFEFF",
"p.	c #D6FFFF",
"q.	c #DCFFFF",
"r.	c #E2FFFF",
"s.	c #E5FFFF",
"t.	c #E6FFFF",
"u.	c #C2C9FF",
"v.	c #B5F3FF",
"w.	c #D5FFFF",
"x.	c #E0FFFF",
"y.	c #EAFFFF",
"z.	c #F3FFFF",
"A.	c #FAFFFF",
"B.	c #FEFFFF",
"C.	c #FFFFFF",
"D.	c #C0C8FF",
"E.	c #CBFFFF",
"F.	c #D8FFFF",
"G.	c #F4FFFF",
"H.	c #E8FFFF",
"I.	c #B8CAFF",
"J.	c #B6C9FF",
"K.	c #BBC8FF",
"                                                    . . . . . . . . . . . .                                                     ",
"                                            + + @ . # $ $ % % % % % % % $ $ # . . .                                             ",
"                                      . . . . $ % & & * = = - - - - - = = * & & % $ . . .                                       ",
"                                  . . . . % & * = ; > > , , , ' ' ' , , , > > ; = * & % $ . .                                   ",
"                              . . . $ ) & = ; > , ' ! ! ~ ~ ~ { { { ~ ~ ~ ! ! ' , > ; = & ) $ . .                               ",
"                            . . $ ) * - > , ] ! ~ { ^ ^ / / ( ( _ ( ( / / ^ ^ { ~ ! ] , > - * ) $ .                             ",
"                        . : . % & - > , ! ~ < ^ / _ [ } } | | 1 1 1 | | } } [ _ / ^ < ~ ! , > - & % . .                         ",
"                      . @ $ & = > , ! ~ ^ / _ } 2 1 3 4 5 6 6 7 7 7 6 6 5 4 3 1 2 } _ / ^ ~ ! , > = & $ .                       ",
"                    . . $ & - > ' ~ < / [ } 1 3 5 7 8 9 0 a a b b b a a 0 9 8 7 5 3 1 } [ / < ~ ' > - & $ .                     ",
"                  . . % & ; , ! { ^ _ } 1 4 6 8 0 a c d e f g h h h g f e d c a 0 8 6 4 1 } _ ^ { ! , ; & % .                   ",
"                . . % * ; , ! < / [ | 3 6 9 a c d g i j k l m m m m m l k j i g d c a 9 6 3 | [ / < ! , ; * % .                 ",
"              . . % * > ' ~ ^ ( } 1 6 8 a c f i n l o p q r s t u t s r q p o l n i f c a 8 6 1 } ( ^ ~ ' > * % .               ",
"              @ $ & ; ' ~ ^ _ 2 3 7 0 v f i k m q s u w x y z A B A z y x w u s q m k i f v 0 7 3 2 _ ^ ~ ' ; & $ .             ",
"            : $ & ; , ~ ^ _ | 4 C a D h n m q t w y B E F G H I I I H G F E B y w t q m n h D a C 4 | _ ^ ~ , ; & J             ",
"          K . & - , ! ^ _ | 4 C a d i l p s w z L M I N O P Q R R R Q P O N I M L z w s p l i d a C 4 | _ ^ ! , - & .           ",
"          . % = > ! < ( 2 4 C a e j m q S y L G I T R U V W X Y Y Y X W V U R T I G L y S q m j e a C 4 2 ( < ! > = % .         ",
"        . $ & > ' { / } 3 C a e j m r w B F Z T ` V X  ...+.@.#.$.#.@.+... .X V ` T Z F B w r m j e a C 3 } / { ' > & %.        ",
"      . . ) - , ~ ^ [ 1 7 a d j m r &.B G *.R V Y =.@.-.;.>.,.'.).'.,.>.;.-.@.=.Y V R *.G B &.r m j d a 7 1 [ ^ ~ , - ) .       ",
"      . $ * > ! < _ | 6 0 D i m r &.L H O !.~.{.@.].>.^./.(._.:.:.:._.(./.^.>.].@.{.~.!.O H L &.r m i D 0 6 | _ < ! > * <.      ",
"    . . ) - , ~ / } 3 8 v h l q w B H T U Y [.-.>.}.(.|.1.2.3.4.4.4.3.2.1.|.(.}.>.-.[.Y U T H B w q l h v 8 3 } / ~ , - ) .     ",
"    . $ & > ! ^ [ 1 6 a f n p S B G O U 5.+.].).6.7.8.4.9.0.a.b.c.b.a.0.9.4.8.7.6.).].+.5.U O G B S p n f a 6 1 [ ^ ! > & d.    ",
"    . % = , ~ / } 4 9 c i m s y F *.!.Y +.e.^.f.1.4.g.b.h.i.j.k.l.k.j.i.h.b.g.4.1.f.^.e.+.Y !.*.F y s m i c 9 4 } / ~ , = %     ",
"  . . & ; ] < _ 1 6 a f k q w L Z R ~.[.].^._.m.n.o.h.j.p.q.r.s.t.s.r.q.p.j.h.o.n.m._.^.].[.~.R Z L w q k f a 6 1 _ < ] ; & .   ",
"  u.$ * > ! ^ } 3 8 c i m t z G T V {.-.).f.m.v.b.i.w.x.y.z.A.B.C.B.A.z.y.x.w.i.b.v.m.f.).-.{.V T G z t m i c 8 3 } ^ ! > * D.  ",
"  @ % = , ~ / 2 5 0 d n q w L I ` Y @.>.6.1.n.b.E.F.t.G.C.C.C.C.C.C.C.C.C.G.t.F.E.b.n.1.6.>.@.Y ` I L w q n d 0 5 2 / ~ , = %   ",
"  . & ; ' { _ 1 7 a g l s y M T V =.].}.7.4.o.i.F.H.A.C.C.C.C.C.C.C.C.C.C.C.A.H.F.i.o.4.7.}.].=.V T M y s l g a 7 1 _ { ' ; &   ",
". # & > ! ^ [ 3 8 c i o u B I R X @.>.(.8.g.h.w.t.A.C.C.C.C.C.C.C.C.C.C.C.C.C.A.t.w.h.g.8.(.>.@.X R I B u o i c 8 3 [ ^ ! > & . ",
". $ * > ! ^ } 4 9 d j p w E N U  .-.^.|.4.b.j.x.G.C.C.C.C.C.C.C.C.C.C.C.C.C.C.C.G.x.j.b.4.|.^.-. .U N E w p j d 9 4 } ^ ! > * . ",
". $ = , ~ / } 5 0 e k q x F O V ..;./.1.9.h.p.y.C.C.C.C.C.C.C.C.C.C.C.C.C.C.C.C.C.y.p.h.9.1./.;...V O F x q k e 0 5 } / ~ , = . ",
". % = , ~ / | 6 a f l r y G P W +.>.(.2.0.i.q.z.C.C.C.C.C.C.C.C.C.C.C.C.C.C.C.C.C.z.q.i.0.2.(.>.+.W P G y r l f a 6 | / ~ , = . ",
". % - , ~ ( | 6 a g m s z H Q X @.,._.3.a.j.r.A.C.C.C.C.C.C.C.C.C.C.C.C.C.C.C.C.C.A.r.j.a.3._.,.@.X Q H z s m g a 6 | ( ~ , - . ",
". % - ' { ( 1 7 b h m t A I R Y #.'.:.4.b.k.s.B.C.C.C.C.C.C.C.C.C.C.C.C.C.C.C.C.C.B.s.k.b.4.:.'.#.Y R I A t m h b 7 1 ( { ' - . ",
". % - ' { _ 1 7 b h m u B I R Y $.).:.4.c.l.t.C.C.C.C.C.C.C.C.C.C.C.C.C.C.C.C.C.C.C.t.l.c.4.:.).$.Y R I B u m h b 7 1 _ { ' - . ",
". % - ' { ( 1 7 b h m t A I R Y #.'.:.4.b.k.s.B.C.C.C.C.C.C.C.C.C.C.C.C.C.C.C.C.C.B.s.k.b.4.:.'.#.Y R I A t m h b 7 1 ( { ' - . ",
". % - , ~ ( | 6 a g m s z H Q X @.,._.3.a.j.r.A.C.C.C.C.C.C.C.C.C.C.C.C.C.C.C.C.C.A.r.j.a.3._.,.@.X Q H z s m g a 6 | ( ~ , - . ",
". % = , ~ / | 6 a f l r y G P W +.>.(.2.0.i.q.z.C.C.C.C.C.C.C.C.C.C.C.C.C.C.C.C.C.z.q.i.0.2.(.>.+.W P G y r l f a 6 | / ~ , = . ",
". $ = , ~ / } 5 0 e k q x F O V ..;./.1.9.h.p.y.C.C.C.C.C.C.C.C.C.C.C.C.C.C.C.C.C.y.p.h.9.1./.;...V O F x q k e 0 5 } / ~ , = . ",
". $ * > ! ^ } 4 9 d j p w E N U  .-.^.|.4.b.j.x.G.C.C.C.C.C.C.C.C.C.C.C.C.C.C.C.G.x.j.b.4.|.^.-. .U N E w p j d 9 4 } ^ ! > * . ",
"  # & > ! ^ [ 3 8 c i o u B I R X @.>.(.8.g.h.w.t.A.C.C.C.C.C.C.C.C.C.C.C.C.C.A.t.w.h.g.8.(.>.@.X R I B u o i c 8 3 [ ^ ! > &   ",
"  . & ; ' { _ 1 7 a g l s y M T V =.].}.7.4.o.i.F.H.A.C.C.C.C.C.C.C.C.C.C.C.A.H.F.i.o.4.7.}.].=.V T M y s l g a 7 1 _ { ' ; &   ",
"  . % = , ~ / 2 5 0 d n q w L I ` Y @.>.6.1.n.b.E.F.t.G.C.C.C.C.C.C.C.C.C.G.t.F.E.b.n.1.6.>.@.Y ` I L w q n d 0 5 2 / ~ , . .   ",
"  . $ * > ! ^ } 3 8 c i m t z G T V {.-.).f.m.v.b.i.w.x.y.z.A.B.C.B.A.z.y.x.w.i.b.v.m.f.).-.{.V T G z t m i c 8 3 } ^ ! > . .   ",
"    . & ; ] < _ 1 6 a f k q w L Z R ~.[.].^._.m.n.o.h.j.p.q.r.s.t.s.r.q.p.j.h.o.n.m._.^.].[.~.R Z L w q k f a 6 1 _ < ] ; .     ",
"    . % = , ~ / } 4 9 c i m s y F *.!.Y +.e.^.f.1.4.g.b.h.i.j.k.l.k.j.i.h.b.g.4.1.f.^.e.+.Y !.*.F y s m i c 9 4 } / ~ , = .     ",
"    . $ & > ! ^ [ 1 6 a f n p S B G O U 5.+.].).6.7.8.4.9.0.a.b.c.b.a.0.9.4.8.7.6.).].+.5.U O G B S p n f a 6 1 [ ^ ! > . .     ",
"      I.) - , ~ / } 3 8 v h l q w B H T U Y [.-.>.}.(.|.1.2.3.4.4.4.3.2.1.|.(.}.>.-.[.Y U T H B w q l h v 8 3 } / ~ , - J.      ",
"      . $ * > ! < _ | 6 0 D i m r &.L H O !.~.{.@.].>.^./.(._.:.:.:._.(./.^.>.].@.{.~.!.O H L &.r m i D 0 6 | _ < ! > * .       ",
"        . ) - , ~ ^ [ 1 7 a d j m r &.B G *.R V Y =.@.-.;.>.,.'.).'.,.>.;.-.@.=.Y V R *.G B &.r m j d a 7 1 [ ^ ~ , - K.        ",
"        . . & > ' { / } 3 C a e j m r w B F Z T ` V X  ...+.@.#.$.#.@.+... .X V ` T Z F B w r m j e a C 3 } / { ' > & .         ",
"          . % = > ! < ( 2 4 C a e j m q S y L G I T R U V W X Y Y Y X W V U R T I G L y S q m j e a C 4 2 ( < ! > = .           ",
"            . & - , ! ^ _ | 4 C a d i l p s w z L M I N O P Q R R R Q P O N I M L z w s p l i d a C 4 | _ ^ ! , - .             ",
"            . . & ; , ~ ^ _ | 4 C a D h n m q t w y B E F G H I I I H G F E B y w t q m n h D a C 4 | _ ^ ~ , ; & .             ",
"              . . & ; ' ~ ^ _ 2 3 7 0 v f i k m q s u w x y z A B A z y x w u s q m k i f v 0 7 3 2 _ ^ ~ ' ; . .               ",
"                . . * > ' ~ ^ ( } 1 6 8 a c f i n l o p q r s t u t s r q p o l n i f c a 8 6 1 } ( ^ ~ ' > . .                 ",
"                  . % * ; , ! < / [ | 3 6 9 a c d g i j k l m m m m m l k j i g d c a 9 6 3 | [ / < ! , ; . .                   ",
"                    . % & ; , ! { ^ _ } 1 4 6 8 0 a c d e f g h h h g f e d c a 0 8 6 4 1 } _ ^ { ! , ; . .                     ",
"                      . $ & - > ' ~ < / [ } 1 3 5 7 8 9 0 a a b b b a a 0 9 8 7 5 3 1 } [ / < ~ ' > - . .                       ",
"                        . . & = > , ! ~ ^ / _ } 2 1 3 4 5 6 6 7 7 7 6 6 5 4 3 1 2 } _ / ^ ~ ! , > . . .                         ",
"                            . % & - > , ! ~ < ^ / _ [ } } | | 1 1 1 | | } } [ _ / ^ < ~ ! , > - . .                             ",
"                              . . ) * - > , ] ! ~ { ^ ^ / / ( ( _ ( ( / / ^ ^ { ~ ! ] , > - . . .                               ",
"                                  . <.) & = ; > , ' ! ! ~ ~ ~ { { { ~ ~ ~ ! ! ' , > ; = . . .                                   ",
"                                      . . % & * = ; > > , , , ' ' ' , , , > > . . . . . .                                       ",
"                                            . . % & & * = = - - - - - = = * & & . .                                             ",
"                                                    . . . . . . . . . . . .                                                     "};
