/* XPM */
static char * cyan3_xpm[] = {
"64 64 164 2",
"  	c #FF00FF",
". 	c #A5B1FF",
"+ 	c #A5B2FF",
"@ 	c #A4B0FF",
"# 	c #A3B0FF",
"$ 	c #A3AFFF",
"% 	c #A2AFFF",
"& 	c #A4B1FF",
"* 	c #A2AEFF",
"= 	c #A1AEFF",
"- 	c #A1ADFF",
"; 	c #A0ADFF",
"> 	c #9FACFF",
", 	c #9EABFF",
"' 	c #9DABFF",
") 	c #9DAAFF",
"! 	c #9CAAFF",
"~ 	c #9CA9FF",
"{ 	c #9EACFF",
"] 	c #9BA8FF",
"^ 	c #9AA8FF",
"/ 	c #9AA7FF",
"( 	c #99A7FF",
"_ 	c #99A6FF",
": 	c #98A6FF",
"< 	c #9BA9FF",
"[ 	c #97A5FF",
"} 	c #96A5FF",
"| 	c #96A4FF",
"1 	c #95A4FF",
"2 	c #95A3FF",
"3 	c #94A3FF",
"4 	c #93A2FF",
"5 	c #93A1FF",
"6 	c #92A1FF",
"7 	c #91A0FF",
"8 	c #909FFF",
"9 	c #8F9FFF",
"0 	c #8E9EFF",
"a 	c #8E9DFF",
"b 	c #8D9DFF",
"c 	c #8D9CFF",
"d 	c #8C9CFF",
"e 	c #8F9EFF",
"f 	c #8B9BFF",
"g 	c #8A9AFF",
"h 	c #8999FF",
"i 	c #8898FF",
"j 	c #8798FF",
"k 	c #8697FF",
"l 	c #8596FF",
"m 	c #8495FF",
"n 	c #8394FF",
"o 	c #8293FF",
"p 	c #8192FF",
"q 	c #8091FF",
"r 	c #7F90FF",
"s 	c #7E8FFF",
"t 	c #7D8FFF",
"u 	c #7D8EFF",
"v 	c #8696FF",
"w 	c #8494FF",
"x 	c #7F91FF",
"y 	c #7C8DFF",
"z 	c #7A8CFF",
"A 	c #7B8DFF",
"B 	c #7C8EFF",
"C 	c #7D90FF",
"D 	c #8797FF",
"E 	c #7C8FFF",
"F 	c #7E91FF",
"G 	c #8093FF",
"H 	c #8194FF",
"I 	c #8295FF",
"J 	c #8396FF",
"K 	c #8397FF",
"L 	c #8497FF",
"M 	c #8899FF",
"N 	c #8498FF",
"O 	c #869AFF",
"P 	c #889CFF",
"Q 	c #899DFF",
"R 	c #8A9EFF",
"S 	c #8A9FFF",
"T 	c #8B9FFF",
"U 	c #8595FF",
"V 	c #8699FF",
"W 	c #8DA2FF",
"X 	c #8FA4FF",
"Y 	c #90A6FF",
"Z 	c #91A7FF",
"` 	c #92A8FF",
" .	c #8092FF",
"..	c #8599FF",
"+.	c #8CA1FF",
"@.	c #95ABFF",
"#.	c #97ADFF",
"$.	c #98AFFF",
"%.	c #9AB1FF",
"&.	c #9BB1FF",
"*.	c #9BB2FF",
"=.	c #8BA0FF",
"-.	c #8FA5FF",
";.	c #93A9FF",
">.	c #9DB4FF",
",.	c #A0B7FF",
"'.	c #A2BAFF",
").	c #A3BBFF",
"!.	c #A4BCFF",
"~.	c #A4BDFF",
"{.	c #8598FF",
"].	c #96ADFF",
"^.	c #9FB7FF",
"/.	c #A6BFFF",
"(.	c #A9C3FF",
"_.	c #ACC5FF",
":.	c #AEC8FF",
"<.	c #AFC9FF",
"[.	c #94AAFF",
"}.	c #99B0FF",
"|.	c #9EB6FF",
"1.	c #A8C1FF",
"2.	c #ADC6FF",
"3.	c #B1CBFF",
"4.	c #B5CFFF",
"5.	c #B8D3FF",
"6.	c #BAD6FF",
"7.	c #BBD7FF",
"8.	c #BCD8FF",
"9.	c #A0B8FF",
"0.	c #ACC6FF",
"a.	c #B2CDFF",
"b.	c #BDD9FF",
"c.	c #C1DEFF",
"d.	c #C5E2FF",
"e.	c #C8E6FF",
"f.	c #CAE8FF",
"g.	c #B6D1FF",
"h.	c #C4E1FF",
"i.	c #D0EFFF",
"j.	c #D5F4FF",
"k.	c #D8F8FF",
"l.	c #DAFBFF",
"m.	c #DBFCFF",
"n.	c #A9C2FF",
"o.	c #B9D5FF",
"p.	c #D2F1FF",
"q.	c #DAFAFF",
"r.	c #E1FFFF",
"s.	c #E7FFFF",
"t.	c #EBFFFF",
"u.	c #EEFFFF",
"v.	c #EFFFFF",
"w.	c #C4E0FF",
"x.	c #CDECFF",
"y.	c #D7F7FF",
"z.	c #E2FFFF",
"A.	c #F4FFFF",
"B.	c #FCFFFF",
"C.	c #FFFFFF",
"D.	c #CFEDFF",
"E.	c #F3FFFF",
"F.	c #E8FFFF",
"G.	c #F7FFFF",
"                                                    . . . . . . . . . . . .                                                     ",
"                                            . . + . @ @ # $ $ % % % $ $ # @ @ . . .                                             ",
"                                        . . & # $ * = - ; ; ; > > > ; ; ; - = * $ # & . .                                       ",
"                                  . . . @ % = ; ; > , ' ) ) ! ! ~ ! ! ) ) ' , > ; ; = % @ . .                                   ",
"                              . . . # % = ; { ' ! ~ ] ^ / ( ( _ : _ ( ( / ^ ] ~ ! ' { ; = % # . .                               ",
"                            . . @ % - > , ) < ^ ( : [ } | 1 2 2 2 2 2 1 | } [ : ( ^ < ) , > - % @ .                             ",
"                        . . & $ = > , ! ] ( : [ 1 3 4 5 6 7 7 7 7 7 7 7 6 5 4 3 1 [ : ( ] ! , > = $ . .                         ",
"                      . + @ * ; , ) ] ( : | 3 4 6 8 9 0 a b c d d d c b a 0 9 8 6 4 3 | : ( ] ) , ; * @ .                       ",
"                    . . # = > ' < / : | 3 6 7 e a d f g h i i i j i i i h g f d a e 7 6 3 | : / < ' > = # .                     ",
"                  . . $ = > ) ] _ } 3 6 8 0 c f h i k l m n n o o o n n m l k i h f c 0 8 6 3 } _ ] ) > = $ .                   ",
"                . . $ - { ! ^ : 1 4 7 e d g i k m n p q r s t u u u t s r q p n m k i g d e 7 4 1 : ^ ! { - $ .                 ",
"              . . $ - , ~ / [ 2 6 8 b f i v w p x t y z A B t C C C t B A z y t x p w v i f b 8 6 2 [ / ~ , - $ .               ",
"            . + # = { ~ / [ 3 6 e d h D m p r B z E F G H I J K L K J I H G F E z B r p m D h d e 6 3 [ / ~ { = # .             ",
"            . @ = > ! / [ 3 7 0 f M l o x B A C G I N O P Q R S T S R Q P O N I G C A B x o l M f 0 7 3 [ / ! > = .             ",
"          . & * > ) ^ [ 3 7 0 f i U p s z t G J V P T W X Y Z ` ` ` Z Y X W T P V J G t z s p U i f 0 7 3 [ ^ ) > * .           ",
"        . . $ ; ' ] : 2 6 0 f i m  .u A x I ..Q +.X ` @.#.$.%.&.*.&.%.$.#.@.` X +.Q ..I x A u  .m i f 0 6 2 : ] ' ; $ .         ",
"        . @ = , < _ 1 6 e f i m q B B G L P =.-.;.#.%.>.,.'.).!.~.!.).'.,.>.%.#.;.-.=.P L G B B q m i f e 6 1 _ < , = .         ",
"      . . % > ) / } 4 8 d M U  .B B G {.Q W ` ].*.^.)./.(._.:.<.<.<.:._.(./.).^.*.].` W Q {.G B B  .U M d 8 4 } / ) > % .       ",
"      . # - , ] : 3 7 b h l p u B G ..R X [.}.|.).1.2.3.4.5.6.7.8.7.6.5.4.3.2.1.).|.}.[.X R ..G B u p l h b 7 3 : ] , - .       ",
"    . . % > ! ( | 6 e f D o s A G {.R X @.&.9./.0.a.5.b.c.d.e.f.f.f.e.d.c.b.5.a.0./.9.&.@.X R {.G A s o D f e 6 | ( ! > %       ",
"    . @ = , ] : 3 8 d i m x z x L Q X @.*.'.1.<.g.b.h.f.i.j.k.l.m.l.k.j.i.f.h.b.g.<.1.'.*.@.X Q L x z x m i d 8 3 : ] , = .     ",
"    . % ; ) ( | 6 0 g v p B t I P W [.&.'.n.3.o.c.f.p.q.r.s.t.u.v.u.t.s.r.q.p.f.c.o.3.n.'.&.[.W P I t B p v g 0 6 | ( ) ; %     ",
"  . & = { < : 3 7 c i w r A G ..=.` }.9.1.3.6.w.x.y.z.t.A.B.C.C.C.C.C.B.A.t.z.y.x.w.6.3.1.9.}.` =...G A r w i c 7 3 : < { = .   ",
"  . # ; ' ^ [ 4 e f k p B C J Q -.].|./.<.o.w.D.l.s.E.C.C.C.C.C.C.C.C.C.C.C.E.s.l.D.w.o.<./.|.].-.Q J C B p k f e 4 [ ^ ' ; .   ",
"  + $ ; ! ( 1 6 a h m x z G V +.;.*.).0.g.c.x.l.F.G.C.C.C.C.C.C.C.C.C.C.C.C.C.G.F.l.x.c.g.0.).*.;.+.V G z x m h a 6 1 ( ! ; $   ",
". . * > ~ : 3 8 d i n t E I P X #.^.1.a.b.f.y.s.G.C.C.C.C.C.C.C.C.C.C.C.C.C.C.C.G.s.y.f.b.a.1.^.#.X P I E t n i d 8 3 : ~ > *   ",
". @ = , ] [ 4 9 f k p y F N T ` %.).2.5.h.p.z.E.C.C.C.C.C.C.C.C.C.C.C.C.C.C.C.C.C.E.z.p.h.5.2.).%.` T N F y p k f 9 4 [ ] , = . ",
". @ - ' ^ } 5 0 g l q z G O W @.>./.3.b.f.q.t.C.C.C.C.C.C.C.C.C.C.C.C.C.C.C.C.C.C.C.t.q.f.b.3./.>.@.W O G z q l g 0 5 } ^ ' - . ",
". # ; ) / | 6 a h m r A H P X #.,.(.4.c.i.r.A.C.C.C.C.C.C.C.C.C.C.C.C.C.C.C.C.C.C.C.A.r.i.c.4.(.,.#.X P H A r m h a 6 | / ) ; . ",
". $ ; ) ( 1 7 b i n s B I Q Y $.'._.5.d.j.s.B.C.C.C.C.C.C.C.C.C.C.C.C.C.C.C.C.C.C.C.B.s.j.d.5._.'.$.Y Q I B s n i b 7 1 ( ) ; . ",
". $ ; ! ( 2 7 c i n t t J R Z %.).:.6.e.k.t.C.C.C.C.C.C.C.C.C.C.C.C.C.C.C.C.C.C.C.C.C.t.k.e.6.:.).%.Z R J t t n i c 7 2 ( ! . . ",
". % > ! _ 2 7 d i o u C K S ` &.!.<.7.f.l.u.C.C.C.C.C.C.C.C.C.C.C.C.C.C.C.C.C.C.C.C.C.u.l.f.7.<.!.&.` S K C u o i d 7 2 _ ! . . ",
". % > ~ : 2 7 d j o u C L T ` *.~.<.8.f.m.v.C.C.C.C.C.C.C.C.C.C.C.C.C.C.C.C.C.C.C.C.C.v.m.f.8.<.~.*.` T L C u o j d 7 2 : ~ . . ",
". % > ! _ 2 7 d i o u C K S ` &.!.<.7.f.l.u.C.C.C.C.C.C.C.C.C.C.C.C.C.C.C.C.C.C.C.C.C.u.l.f.7.<.!.&.` S K C u o i d 7 2 _ ! . . ",
". $ ; ! ( 2 7 c i n t t J R Z %.).:.6.e.k.t.C.C.C.C.C.C.C.C.C.C.C.C.C.C.C.C.C.C.C.C.C.t.k.e.6.:.).%.Z R J t t n i c 7 2 ( ! ; . ",
". $ ; ) ( 1 7 b i n s B I Q Y $.'._.5.d.j.s.B.C.C.C.C.C.C.C.C.C.C.C.C.C.C.C.C.C.C.C.B.s.j.d.5._.'.$.Y Q I B s n i b 7 1 ( ) ; . ",
". # ; ) / | 6 a h m r A H P X #.,.(.4.c.i.r.A.C.C.C.C.C.C.C.C.C.C.C.C.C.C.C.C.C.C.C.A.r.i.c.4.(.,.#.X P H A r m h a 6 | / ) ; . ",
". @ - ' ^ } 5 0 g l q z G O W @.>./.3.b.f.q.t.C.C.C.C.C.C.C.C.C.C.C.C.C.C.C.C.C.C.C.t.q.f.b.3./.>.@.W O G z q l g 0 5 } ^ ' - . ",
". @ = , ] [ 4 9 f k p y F N T ` %.).2.5.h.p.z.E.C.C.C.C.C.C.C.C.C.C.C.C.C.C.C.C.C.E.z.p.h.5.2.).%.` T N F y p k f 9 4 [ ] , =   ",
"  . * > ~ : 3 8 d i n t E I P X #.^.1.a.b.f.y.s.G.C.C.C.C.C.C.C.C.C.C.C.C.C.C.C.G.s.y.f.b.a.1.^.#.X P I E t n i d 8 3 : ~ > *   ",
"  . $ ; ! ( 1 6 a h m x z G V +.;.*.).0.g.c.x.l.F.G.C.C.C.C.C.C.C.C.C.C.C.C.C.G.F.l.x.c.g.0.).*.;.+.V G z x m h a 6 1 ( ! ; .   ",
"  . # ; ' ^ [ 4 e f k p B C J Q -.].|./.<.o.w.D.l.s.E.C.C.C.C.C.C.C.C.C.C.C.E.s.l.D.w.o.<./.|.].-.Q J C B p k f e 4 [ ^ ' ; .   ",
"    & = { < : 3 7 c i w r A G ..=.` }.9.1.3.6.w.x.y.z.t.A.B.C.C.C.C.C.B.A.t.z.y.x.w.6.3.1.9.}.` =...G A r w i c 7 3 : < { =     ",
"    . % ; ) ( | 6 0 g v p B t I P W [.&.'.n.3.o.c.f.p.q.r.s.t.u.v.u.t.s.r.q.p.f.c.o.3.n.'.&.[.W P I t B p v g 0 6 | ( ) ; .     ",
"    . @ = , ] : 3 8 d i m x z x L Q X @.*.'.1.<.g.b.h.f.i.j.k.l.m.l.k.j.i.f.h.b.g.<.1.'.*.@.X Q L x z x m i d 8 3 : ] , = .     ",
"      . % > ! ( | 6 e f D o s A G {.R X @.&.9./.0.a.5.b.c.d.e.f.f.f.e.d.c.b.5.a.0./.9.&.@.X R {.G A s o D f e 6 | ( ! > .       ",
"      . # - , ] : 3 7 b h l p u B G ..R X [.}.|.).1.2.3.4.5.6.7.8.7.6.5.4.3.2.1.).|.}.[.X R ..G B u p l h b 7 3 : ] , - .       ",
"        . % > ) / } 4 8 d M U  .B B G {.Q W ` ].*.^.)./.(._.:.<.<.<.:._.(./.).^.*.].` W Q {.G B B  .U M d 8 4 } / ) > .         ",
"        . @ = , < _ 1 6 e f i m q B B G L P =.-.;.#.%.>.,.'.).!.~.!.).'.,.>.%.#.;.-.=.P L G B B q m i f e 6 1 _ < , = .         ",
"          . $ ; ' ] : 2 6 0 f i m  .u A x I ..Q +.X ` @.#.$.%.&.*.&.%.$.#.@.` X +.Q ..I x A u  .m i f 0 6 2 : ] ' ; .           ",
"            . * > ) ^ [ 3 7 0 f i U p s z t G J V P T W X Y Z ` ` ` Z Y X W T P V J G t z s p U i f 0 7 3 [ ^ ) > .             ",
"            . @ = > ! / [ 3 7 0 f M l o x B A C G I N O P Q R S T S R Q P O N I G C A B x o l M f 0 7 3 [ / ! > = .             ",
"              . # = { ~ / [ 3 6 e d h D m p r B z E F G H I J K L K J I H G F E z B r p m D h d e 6 3 [ / ~ { = .               ",
"                . $ - , ~ / [ 2 6 8 b f i v w p x t y z A B t C C C t B A z y t x p w v i f b 8 6 2 [ / ~ , - .                 ",
"                  . $ - { ! ^ : 1 4 7 e d g i k m n p q r s t u u u t s r q p n m k i g d e 7 4 1 : ^ ! { - .                   ",
"                    . $ = > ) ] _ } 3 6 8 0 c f h i k l m n n o o o n n m l k i h f c 0 8 6 3 } _ ] ) > = .                     ",
"                      . # = > ' < / : | 3 6 7 e a d f g h i i i j i i i h g f d a e 7 6 3 | : / < ' > = .                       ",
"                        . . * ; , ) ] ( : | 3 4 6 8 9 0 a b c d d d c b a 0 9 8 6 4 3 | : ( ] ) , ; . .                         ",
"                            . $ = > , ! ] ( : [ 1 3 4 5 6 7 7 7 7 7 7 7 6 5 4 3 1 [ : ( ] ! , > = .                             ",
"                              . . % - > , ) < ^ ( : [ } | 1 2 2 2 2 2 1 | } [ : ( ^ < ) , > - . .                               ",
"                                  . . % = ; { ' ! ~ ] ^ / ( ( _ : _ ( ( / ^ ] ~ ! ' { ; = . .                                   ",
"                                      . . % = ; ; > , ' ) ) ! ! ~ ! ! ) ) ' , > ; ; = . .                                       ",
"                                            . . $ * = - ; ; ; > > > ; ; ; - = * . .                                             ",
"                                                    . . . . . . . . . . . .                                                     "};
