/* XPM */
static char * cyan5_xpm[] = {
"64 64 165 2",
"  	c #FF00FF",
". 	c #ACC2FF",
"+ 	c #C1C5FF",
"@ 	c #B8C5FF",
"# 	c #B1C4FF",
"$ 	c #ACC3FF",
"% 	c #ABC2FF",
"& 	c #ABC1FF",
"* 	c #AAC1FF",
"= 	c #ADC3FF",
"- 	c #A9C0FF",
"; 	c #A8C0FF",
"> 	c #A8BFFF",
", 	c #A7BFFF",
"' 	c #A9C1FF",
") 	c #A6BEFF",
"! 	c #A5BEFF",
"~ 	c #A5BDFF",
"{ 	c #A4BDFF",
"] 	c #A6BFFF",
"^ 	c #A3BCFF",
"/ 	c #A2BCFF",
"( 	c #A2BBFF",
"_ 	c #A1BBFF",
": 	c #A4BCFF",
"< 	c #A1BAFF",
"[ 	c #A0BAFF",
"} 	c #9FB9FF",
"| 	c #9EB8FF",
"1 	c #9EB9FF",
"2 	c #9DB8FF",
"3 	c #9CB7FF",
"4 	c #9BB6FF",
"5 	c #9AB6FF",
"6 	c #9AB5FF",
"7 	c #B6C4FF",
"8 	c #99B4FF",
"9 	c #98B4FF",
"0 	c #97B3FF",
"a 	c #96B3FF",
"b 	c #96B2FF",
"c 	c #95B2FF",
"d 	c #94B1FF",
"e 	c #93B0FF",
"f 	c #92B0FF",
"g 	c #92AFFF",
"h 	c #91AFFF",
"i 	c #90AEFF",
"j 	c #8FAEFF",
"k 	c #8EADFF",
"l 	c #8EACFF",
"m 	c #8DACFF",
"n 	c #8FADFF",
"o 	c #8CABFF",
"p 	c #8AAAFF",
"q 	c #89A9FF",
"r 	c #88A8FF",
"s 	c #87A8FF",
"t 	c #99B5FF",
"u 	c #87A7FF",
"v 	c #85A6FF",
"w 	c #84A5FF",
"x 	c #83A5FF",
"y 	c #82A4FF",
"z 	c #93B1FF",
"A 	c #81A3FF",
"B 	c #7FA2FF",
"C 	c #7EA1FF",
"D 	c #7DA0FF",
"E 	c #7CA0FF",
"F 	c #7C9FFF",
"G 	c #7B9FFF",
"H 	c #84A6FF",
"I 	c #7CA1FF",
"J 	c #7DA3FF",
"K 	c #7EA4FF",
"L 	c #7FA4FF",
"M 	c #7FA5FF",
"N 	c #7DA2FF",
"O 	c #81A7FF",
"P 	c #83AAFF",
"Q 	c #84ABFF",
"R 	c #85ADFF",
"S 	c #86ADFF",
"T 	c #86AEFF",
"U 	c #8BAAFF",
"V 	c #7A9FFF",
"W 	c #80A6FF",
"X 	c #88B0FF",
"Y 	c #8AB3FF",
"Z 	c #8CB5FF",
"` 	c #8DB7FF",
" .	c #8EB8FF",
"..	c #87AFFF",
"+.	c #90BBFF",
"@.	c #92BEFF",
"#.	c #94C0FF",
"$.	c #96C2FF",
"%.	c #96C3FF",
"&.	c #97C3FF",
"*.	c #B9C4FF",
"=.	c #7A9EFF",
"-.	c #7EA3FF",
";.	c #82A8FF",
">.	c #92BDFF",
",.	c #95C2FF",
"'.	c #99C6FF",
").	c #9BC9FF",
"!.	c #9ECCFF",
"~.	c #9FCFFF",
"{.	c #A0D0FF",
"].	c #A1D0FF",
"^.	c #8CB6FF",
"/.	c #91BCFF",
"(.	c #9AC8FF",
"_.	c #9ECDFF",
":.	c #A2D2FF",
"<.	c #A6D7FF",
"[.	c #A8DAFF",
"}.	c #ABDDFF",
"|.	c #ACDFFF",
"1.	c #B4C4FF",
"2.	c #88B1FF",
"3.	c #93BFFF",
"4.	c #A3D4FF",
"5.	c #ADE0FF",
"6.	c #B1E6FF",
"7.	c #B5EAFF",
"8.	c #B7EEFF",
"9.	c #B9F0FF",
"0.	c #BAF0FF",
"a.	c #A7D9FF",
"b.	c #AEE1FF",
"c.	c #B4E9FF",
"d.	c #BFF7FF",
"e.	c #C3FDFF",
"f.	c #C6FFFF",
"g.	c #C8FFFF",
"h.	c #C9FFFF",
"i.	c #AADCFF",
"j.	c #C0F9FF",
"k.	c #CEFFFF",
"l.	c #D3FFFF",
"m.	c #D8FFFF",
"n.	c #DAFFFF",
"o.	c #DBFFFF",
"p.	c #B3E8FF",
"q.	c #BCF4FF",
"r.	c #CFFFFF",
"s.	c #E0FFFF",
"t.	c #E7FFFF",
"u.	c #ECFFFF",
"v.	c #F0FFFF",
"w.	c #F1FFFF",
"x.	c #BDF6FF",
"y.	c #DFFFFF",
"z.	c #EAFFFF",
"A.	c #F5FFFF",
"B.	c #FEFFFF",
"C.	c #FFFFFF",
"D.	c #D5FFFF",
"E.	c #E3FFFF",
"F.	c #F3FFFF",
"G.	c #B3C3FF",
"H.	c #B7C3FF",
"                                                    . . + @ # . . . . . . .                                                     ",
"                                              . . $ . % % & * * * * * & % % . $ . .                                             ",
"                                        . = . % * * - ; ; > , , , , , > ; ; - * * % . . .                                       ",
"                                    . $ % * ' ; > , ) ) ! ~ { { { { { ~ ! ) ) , > ; ' * % . .                                   ",
"                                . $ % * - > ] ) ~ { ^ / ( ( _ _ _ _ _ ( ( / ^ { ~ ) ] > - * % . .                               ",
"                            . = % * ; , ) ~ : ^ ( < [ } } | | | | | | | } } [ < ( ^ : ~ ) , ; * % .                             ",
"                          . . * - , ) { ^ ( < } 1 2 3 3 4 5 5 6 6 6 5 5 4 3 3 2 1 } < ( ^ { ) , - * 7                           ",
"                      . = % * ; ) ~ ^ ( [ } 2 3 4 6 8 9 0 0 a b b b a 0 0 9 8 6 4 3 2 } [ ( ^ ~ ) ; * % .                       ",
"                    . $ % - , ) { ( [ } 2 4 6 9 0 b c d e f g h h h g f e d c b 0 9 6 4 2 } [ ( { ) , - % .                     ",
"                  . $ & - , ~ ^ _ } 2 4 6 9 a d e g i j k l m m m m m l k j i g e d a 9 6 4 2 } _ ^ ~ , - & .                   ",
"                . $ * ; ] { / [ 1 3 5 9 a d f i n m o p q q r r s r r q q p o m n i f d a 9 5 3 1 [ / { ] ; * .                 ",
"              . $ & ; ) { ( [ | 4 t 0 d f i k o p r u v w x y y y y y x w v u r p o k i f d 0 t 4 | [ ( { ) ; & .               ",
"            . = % - ] { ( [ 2 4 9 b z h k o q s v x A B C D E F G F E D C B A x v s q o k h z b 9 4 2 [ ( { ] - % .             ",
"            . % - , { ( [ 2 5 9 c f i m p s H y B D G G I J K L M L K J I G G D B y H s p m i f c 9 5 2 [ ( { , - .             ",
"          . . * , ~ / [ 2 5 9 c g n o q v y B E G N M O P Q R S T S R Q P O M N G E B y v q o n g c 9 5 2 [ / ~ , * .           ",
"        . = * ; ) ^ [ | 4 9 c g k U r w A D V J W P S X Y Z `  . . .` Z Y X S P W J V D A w r U k g c 9 4 | [ ^ ) ; * .         ",
"        . % - ) { _ 1 4 9 c g k U s x B G I W P ..Y ` +.@.#.$.%.&.%.$.#.@.+.` Y ..P W I G B x s U k g c 9 4 1 _ { ) - *.        ",
"      . $ * , ~ ( } 3 t b f n U s x B =.-.;.S Y  .>.,.'.).!.~.{.].{.~.!.).'.,.>. .Y S ;.-.=.B x s U n f b t 3 } ( ~ , * .       ",
"      . % ; ) ^ [ 2 5 0 z i o r x B =.K P X ^./.$.(._.:.<.[.}.|.|.|.}.[.<.:._.(.$./.^.X P K =.B x r o i z 0 5 2 [ ^ ) ; 1.      ",
"    . $ * , { ( } 4 9 d h m q w B =.K P 2. .3.'._.4.[.5.6.7.8.9.0.9.8.7.6.5.[.4._.'.3. .2.P K =.B w q m h d 9 4 } ( { , * .     ",
"    . % - ) ^ [ 2 6 a f k p v A G -.P 2. .#.(.].a.b.c.0.d.e.f.g.h.g.f.e.d.0.c.b.a.].(.#. .2.P -.G A v p k f a 6 2 [ ^ ) - .     ",
"    = * > ~ ( } 4 9 d i o s y D I ;.X  .#.).:.i.6.9.j.g.k.l.m.n.o.n.m.l.k.g.j.9.6.i.:.).#. .X ;.I D y s o i d 9 4 } ( ~ > * .   ",
"  . . ' ] : < 2 6 a f k q H B V W S ^.3.(.:.}.p.q.f.r.m.s.t.u.v.w.v.u.t.s.m.r.f.q.p.}.:.(.3.^.S W V B H q k f a 6 2 < : ] ' .   ",
"  . % ; ) ^ } 3 9 d i o s y E J P Y /.'.].i.p.x.g.l.y.z.A.B.C.C.C.C.C.B.A.z.y.l.g.x.p.i.].'./.Y P J E y s o i d 9 3 } ^ ) ; .   ",
"  = * > ~ ( 1 4 0 e n p v B G W .. .$._.a.6.q.g.D.E.w.C.C.C.C.C.C.C.C.C.C.C.w.E.D.g.q.6.a._.$. ...W G B v p n e 0 4 1 ( ~ > *   ",
"  $ * , { < 2 6 b g m r x D N P Y >.(.4.b.9.f.l.E.F.C.C.C.C.C.C.C.C.C.C.C.C.C.F.E.l.f.9.b.4.(.>.Y P N D x r m g b 6 2 < { , * . ",
". . - ) ^ [ 3 8 c i o u A G M S ` ,._.[.c.j.r.y.w.C.C.C.C.C.C.C.C.C.C.C.C.C.C.C.w.y.r.j.c.[._.,.` S M G A u o i c 8 3 [ ^ ) - . ",
". % ; ) / } 3 9 d j p v B G O X +.'.:.5.0.g.m.z.C.C.C.C.C.C.C.C.C.C.C.C.C.C.C.C.C.z.m.g.0.5.:.'.+.X O G B v p j d 9 3 } / ) ; . ",
". % ; ! ( } 4 0 e k q w C I P Y @.).<.6.d.k.s.A.C.C.C.C.C.C.C.C.C.C.C.C.C.C.C.C.C.A.s.k.d.6.<.).@.Y P I C w q k e 0 4 } ( ! ; . ",
". & > ~ ( | 5 0 f l q x D J Q Z #.!.[.7.e.l.t.B.C.C.C.C.C.C.C.C.C.C.C.C.C.C.C.C.C.B.t.l.e.7.[.!.#.Z Q J D x q l f 0 5 | ( ~ > . ",
". * , { _ | 5 a g m r y E K R ` $.~.}.8.f.m.u.C.C.C.C.C.C.C.C.C.C.C.C.C.C.C.C.C.C.C.u.m.f.8.}.~.$.` R K E y r m g a 5 | _ { , . ",
". * , { _ | 6 b h m r y F L S  .%.{.|.9.g.n.v.C.C.C.C.C.C.C.C.C.C.C.C.C.C.C.C.C.C.C.v.n.g.9.|.{.%. .S L F y r m h b 6 | _ { , . ",
". * , { _ | 6 b h m s y G M T  .&.].|.0.h.o.w.C.C.C.C.C.C.C.C.C.C.C.C.C.C.C.C.C.C.C.w.o.h.0.|.].&. .T M G y s m h b 6 | _ { , . ",
". * , { _ | 6 b h m r y F L S  .%.{.|.9.g.n.v.C.C.C.C.C.C.C.C.C.C.C.C.C.C.C.C.C.C.C.v.n.g.9.|.{.%. .S L F y r m h b 6 | _ { , . ",
". * , { _ | 5 a g m r y E K R ` $.~.}.8.f.m.u.C.C.C.C.C.C.C.C.C.C.C.C.C.C.C.C.C.C.C.u.m.f.8.}.~.$.` R K E y r m g a 5 | _ { , . ",
". & > ~ ( | 5 0 f l q x D J Q Z #.!.[.7.e.l.t.B.C.C.C.C.C.C.C.C.C.C.C.C.C.C.C.C.C.B.t.l.e.7.[.!.#.Z Q J D x q l f 0 5 | ( ~ > . ",
". % ; ! ( } 4 0 e k q w C I P Y @.).<.6.d.k.s.A.C.C.C.C.C.C.C.C.C.C.C.C.C.C.C.C.C.A.s.k.d.6.<.).@.Y P I C w q k e 0 4 } ( ! ; . ",
". % ; ) / } 3 9 d j p v B G O X +.'.:.5.0.g.m.z.C.C.C.C.C.C.C.C.C.C.C.C.C.C.C.C.C.z.m.g.0.5.:.'.+.X O G B v p j d 9 3 } / ) ; . ",
". . - ) ^ [ 3 8 c i o u A G M S ` ,._.[.c.j.r.y.w.C.C.C.C.C.C.C.C.C.C.C.C.C.C.C.w.y.r.j.c.[._.,.` S M G A u o i c 8 3 [ ^ ) -   ",
"  $ * , { < 2 6 b g m r x D N P Y >.(.4.b.9.f.l.E.F.C.C.C.C.C.C.C.C.C.C.C.C.C.F.E.l.f.9.b.4.(.>.Y P N D x r m g b 6 2 < { , *   ",
"  . * > ~ ( 1 4 0 e n p v B G W .. .$._.a.6.q.g.D.E.w.C.C.C.C.C.C.C.C.C.C.C.w.E.D.g.q.6.a._.$. ...W G B v p n e 0 4 1 ( ~ > .   ",
"  . % ; ) ^ } 3 9 d i o s y E J P Y /.'.].i.p.x.g.l.y.z.A.B.C.C.C.C.C.B.A.z.y.l.g.x.p.i.].'./.Y P J E y s o i d 9 3 } ^ ) ; .   ",
"    . ' ] : < 2 6 a f k q H B V W S ^.3.(.:.}.p.q.f.r.m.s.t.u.v.w.v.u.t.s.m.r.f.q.p.}.:.(.3.^.S W V B H q k f a 6 2 < : ] '     ",
"    . * > ~ ( } 4 9 d i o s y D I ;.X  .#.).:.i.6.9.j.g.k.l.m.n.o.n.m.l.k.g.j.9.6.i.:.).#. .X ;.I D y s o i d 9 4 } ( ~ > .     ",
"    . % - ) ^ [ 2 6 a f k p v A G -.P 2. .#.(.].a.b.c.0.d.e.f.g.h.g.f.e.d.0.c.b.a.].(.#. .2.P -.G A v p k f a 6 2 [ ^ ) - .     ",
"      . * , { ( } 4 9 d h m q w B =.K P 2. .3.'._.4.[.5.6.7.8.9.0.9.8.7.6.5.[.4._.'.3. .2.P K =.B w q m h d 9 4 } ( { , G.      ",
"      . % ; ) ^ [ 2 5 0 z i o r x B =.K P X ^./.$.(._.:.<.[.}.|.|.|.}.[.<.:._.(.$./.^.X P K =.B x r o i z 0 5 2 [ ^ ) ; .       ",
"        . * , ~ ( } 3 t b f n U s x B =.-.;.S Y  .>.,.'.).!.~.{.].{.~.!.).'.,.>. .Y S ;.-.=.B x s U n f b t 3 } ( ~ , H.        ",
"        . % - ) { _ 1 4 9 c g k U s x B G I W P ..Y ` +.@.#.$.%.&.%.$.#.@.+.` Y ..P W I G B x s U k g c 9 4 1 _ { ) - .         ",
"          . * ; ) ^ [ | 4 9 c g k U r w A D V J W P S X Y Z `  . . .` Z Y X S P W J V D A w r U k g c 9 4 | [ ^ ) ; .           ",
"            . * , ~ / [ 2 5 9 c g n o q v y B E G N M O P Q R S T S R Q P O M N G E B y v q o n g c 9 5 2 [ / ~ , .             ",
"            . % - , { ( [ 2 5 9 c f i m p s H y B D G G I J K L M L K J I G G D B y H s p m i f c 9 5 2 [ ( { , -               ",
"              . % - ] { ( [ 2 4 9 b z h k o q s v x A B C D E F G F E D C B A x v s q o k h z b 9 4 2 [ ( { ] - .               ",
"                . & ; ) { ( [ | 4 t 0 d f i k o p r u v w x y y y y y x w v u r p o k i f d 0 t 4 | [ ( { ) ; .                 ",
"                  . * ; ] { / [ 1 3 5 9 a d f i n m o p q q r r s r r q q p o m n i f d a 9 5 3 1 [ / { ] ; .                   ",
"                    . & - , ~ ^ _ } 2 4 6 9 a d e g i j k l m m m m m l k j i g e d a 9 6 4 2 } _ ^ ~ , - .                     ",
"                      . % - , ) { ( [ } 2 4 6 9 0 b c d e f g h h h g f e d c b 0 9 6 4 2 } [ ( { ) , - .                       ",
"                        . . * ; ) ~ ^ ( [ } 2 3 4 6 8 9 0 0 a b b b a 0 0 9 8 6 4 3 2 } [ ( ^ ~ ) ; . .                         ",
"                            . * - , ) { ^ ( < } 1 2 3 3 4 5 5 6 6 6 5 5 4 3 3 2 1 } < ( ^ { ) , - .                             ",
"                              . . * ; , ) ~ : ^ ( < [ } } | | | | | | | } } [ < ( ^ : ~ ) , ; . .                               ",
"                                  . . * - > ] ) ~ { ^ / ( ( _ _ _ _ _ ( ( / ^ { ~ ) ] > - . .                                   ",
"                                      . . * ' ; > , ) ) ! ~ { { { { { ~ ! ) ) , > ; ' . .                                       ",
"                                            . . * * - ; ; > , , , , , > ; ; - * . .                                             ",
"                                                    . . . . . . . . . . . .                                                     "};
