/* XPM */
static char * cyan2_xpm[] = {
"64 64 167 2",
"  	c #FF00FF",
". 	c #A0A9FF",
"+ 	c #A2AAFF",
"@ 	c #A1A9FF",
"# 	c #A0A8FF",
"$ 	c #9FA8FF",
"% 	c #9FA7FF",
"& 	c #A1AAFF",
"* 	c #9EA7FF",
"= 	c #9DA6FF",
"- 	c #9CA5FF",
"; 	c #9BA4FF",
"> 	c #9EA6FF",
", 	c #9DA5FF",
"' 	c #9AA3FF",
") 	c #99A3FF",
"! 	c #99A2FF",
"~ 	c #98A2FF",
"{ 	c #98A1FF",
"] 	c #9AA4FF",
"^ 	c #97A1FF",
"/ 	c #97A0FF",
"( 	c #969FFF",
"_ 	c #959FFF",
": 	c #959EFF",
"< 	c #949EFF",
"[ 	c #939DFF",
"} 	c #929CFF",
"| 	c #919BFF",
"1 	c #909AFF",
"2 	c #949DFF",
"3 	c #8F99FF",
"4 	c #8E98FF",
"5 	c #8D98FF",
"6 	c #8D97FF",
"7 	c #8C97FF",
"8 	c #8C96FF",
"9 	c #929BFF",
"0 	c #8E99FF",
"a 	c #8B95FF",
"b 	c #8A94FF",
"c 	c #8994FF",
"d 	c #8893FF",
"e 	c #8892FF",
"f 	c #8792FF",
"g 	c #8A95FF",
"h 	c #8691FF",
"i 	c #8590FF",
"j 	c #848FFF",
"k 	c #838FFF",
"l 	c #838EFF",
"m 	c #828EFF",
"n 	c #96A0FF",
"o 	c #818DFF",
"p 	c #808CFF",
"q 	c #7F8BFF",
"r 	c #7E8AFF",
"s 	c #7E89FF",
"t 	c #7D89FF",
"u 	c #7C88FF",
"v 	c #7B87FF",
"w 	c #7B88FF",
"x 	c #8B96FF",
"y 	c #8993FF",
"z 	c #818CFF",
"A 	c #7A86FF",
"B 	c #7F8CFF",
"C 	c #808DFF",
"D 	c #818EFF",
"E 	c #828FFF",
"F 	c #939CFF",
"G 	c #828DFF",
"H 	c #7F8AFF",
"I 	c #8390FF",
"J 	c #8592FF",
"K 	c #8694FF",
"L 	c #8895FF",
"M 	c #8896FF",
"N 	c #8996FF",
"O 	c #8997FF",
"P 	c #8795FF",
"Q 	c #8A97FF",
"R 	c #8C99FF",
"S 	c #8D9BFF",
"T 	c #8F9DFF",
"U 	c #909EFF",
"V 	c #909FFF",
"W 	c #8B99FF",
"X 	c #8E9CFF",
"Y 	c #93A1FF",
"Z 	c #95A3FF",
"` 	c #96A5FF",
" .	c #97A6FF",
"..	c #98A7FF",
"+.	c #8491FF",
"@.	c #92A0FF",
"#.	c #95A4FF",
"$.	c #9BAAFF",
"%.	c #9DACFF",
"&.	c #9FAEFF",
"*.	c #A0B0FF",
"=.	c #A1B1FF",
"-.	c #91A0FF",
";.	c #99A8FF",
">.	c #A4B4FF",
",.	c #A6B7FF",
"'.	c #A8B9FF",
").	c #AABBFF",
"!.	c #ABBCFF",
"~.	c #8693FF",
"{.	c #8A98FF",
"].	c #93A2FF",
"^.	c #A6B6FF",
"/.	c #AABAFF",
"(.	c #ADBEFF",
"_.	c #B1C2FF",
":.	c #B3C5FF",
"<.	c #B5C7FF",
"[.	c #B6C8FF",
"}.	c #B7C9FF",
"|.	c #9AA9FF",
"1.	c #9FAFFF",
"2.	c #A5B5FF",
"3.	c #AFC0FF",
"4.	c #B4C6FF",
"5.	c #B8CBFF",
"6.	c #BCCFFF",
"7.	c #BFD2FF",
"8.	c #C2D5FF",
"9.	c #C3D7FF",
"0.	c #C4D7FF",
"a.	c #A7B8FF",
"b.	c #B4C5FF",
"c.	c #BACCFF",
"d.	c #C5D8FF",
"e.	c #C9DDFF",
"f.	c #CDE2FF",
"g.	c #D0E5FF",
"h.	c #D2E7FF",
"i.	c #D3E8FF",
"j.	c #A2B1FF",
"k.	c #AFC1FF",
"l.	c #BED1FF",
"m.	c #C5D9FF",
"n.	c #CCE0FF",
"o.	c #D9EEFF",
"p.	c #DDF3FF",
"q.	c #E1F7FF",
"r.	c #E4FAFF",
"s.	c #E4FBFF",
"t.	c #B0C2FF",
"u.	c #C1D4FF",
"v.	c #DBF0FF",
"w.	c #E3F9FF",
"x.	c #EAFFFF",
"y.	c #F0FFFF",
"z.	c #F5FFFF",
"A.	c #F8FFFF",
"B.	c #F9FFFF",
"C.	c #D6EBFF",
"D.	c #E0F7FF",
"E.	c #EBFFFF",
"F.	c #FEFFFF",
"G.	c #FFFFFF",
"H.	c #D7EDFF",
"I.	c #FDFFFF",
"J.	c #F2FFFF",
"                                                    . . . . . . . . . . . .                                                     ",
"                                            . . + @ . # $ $ % % % % % $ . . . @ . .                                             ",
"                                      . . & . # % * = = - - - ; ; ; - - - = = * % # . .                                         ",
"                                  . . @ # % > , - ; ' ) ! ~ { { { { { ~ ! ) ' ; - , > % # . .                                   ",
"                              . . @ $ * = - ] ) ~ ^ / ( _ : < < < < < : _ ( / ^ ~ ) ] - = * $ . .                               ",
"                            . & # * = ; ' ~ ^ ( : < [ } | | | 1 1 1 | | | } [ < : ( ^ ~ ' ; = * # .                             ",
"                        . . . % = ; ' { / _ 2 } | 1 3 4 5 6 7 7 8 7 7 6 5 4 3 1 | } 2 _ / { ' ; = % . .                         ",
"                      . + # * - ' ~ / _ [ 9 1 0 6 8 a b c d d e f e d d c b a 8 6 0 1 9 [ _ / ~ ' - * # .                       ",
"                    . & $ = ; ) ^ _ [ | 1 4 8 g c f h i j k l l m l l k j i h f c g 8 4 1 | [ _ ^ ) ; = $ .                     ",
"                  . & $ = ; ! n < } 1 4 8 b d h j l o p q r s t t t s r q p o l j h d b 8 4 1 } < n ! ; = $ .                   ",
"                . & $ = ] { ( [ | 3 7 g d i k o q s u v v w u t t t u w v v u s q o k i d g 7 3 | [ ( { ] = $ .                 ",
"                & $ = ' { _ [ 1 4 x y h k z r u A u r B C D E E k E E D C B r u A u r z k h y x 4 1 [ _ { ' = $ .               ",
"              + $ = ] { _ F 1 6 g f i G H u v t B D I J K L M N O N M L K J I D B t v u H G i f g 6 1 F _ { ] = $ .             ",
"            . # = ; { _ F 1 6 b f j p t A t p E J P Q R S T U U V U U T S R Q P J E p t A t p j f b 6 1 F _ { ; = .             ",
"          . . * ; ! ( [ 1 6 b h l q u w q E J M W X V Y Z `  ....... .` Z Y V X W M J E q w u q l h b 6 1 [ ( ! ; * .           ",
"        . & % - ) n [ 1 6 b h l q v t C +.P W T @.#...$.%.&.*.=.=.=.*.&.%.$...#.@.T W P +.C t v q l h b 6 1 [ n ) - % .         ",
"        . # = ' ^ < | 4 g f l q v t D J O S -.#.;.%.*.>.,.'.).!.!.!.).'.,.>.*.%.;.#.-.S O J D t v q l f g 4 | < ^ ' = .         ",
"      . @ * ; ~ _ } 3 x f j q v t D ~.{.T ]...%.=.^./.(._.:.<.[.}.[.<.:._.(./.^.=.%...].T {.~.D t v q j f x 3 } _ ~ ; * .       ",
"      . $ = ' / [ 1 7 y i p u t D ~.{.U Z |.1.2.).3.4.5.6.7.8.9.0.9.8.7.6.5.4.3.).2.1.|.Z U {.~.D t u p i y 7 1 [ / ' = .       ",
"      @ * ; { _ | 4 g h G t w C J {.U #.$.=.a.(.b.c.7.d.e.f.g.h.i.h.g.f.e.d.7.c.b.(.a.=.$.#.U {.J C w t G h g 4 | _ { ; * .     ",
"    . # = ' / [ 1 8 d k H A q +.O T Z $.j.'.k.}.l.m.n.i.o.p.q.r.s.r.q.p.o.i.n.m.l.}.k.'.j.$.Z T O +.q A H k d 8 1 [ / ' = .     ",
"    & % - ~ _ 9 4 b i z u t E P S ].|.=.'.t.5.u.e.h.v.w.x.y.z.A.B.A.z.y.x.w.v.h.e.u.5.t.'.=.|.].S P E t u z i b 4 9 _ ~ - %     ",
"    . > ] ^ 2 1 8 d k r v p J W -...1.a.k.5.8.n.C.D.E.z.F.G.G.G.G.G.G.G.F.z.E.D.C.n.8.5.k.a.1...-.W J p v r k d 8 1 2 ^ ] > .   ",
"  . # , ) ( } 0 g h o u t E M T #.%.2.(.}.u.n.H.r.y.I.G.G.G.G.G.G.G.G.G.G.G.I.y.r.H.n.u.}.(.2.%.#.T M E t u o h g 0 } ( ) , .   ",
"  + % - ~ : | 6 c j q A B J W @.;.=.).b.l.e.C.r.J.G.G.G.G.G.G.G.G.G.G.G.G.G.G.G.J.r.C.e.l.b.).=.;.@.W J B A q j c 6 | : ~ - %   ",
"  @ * ; ^ < 1 8 f l s u D P X #.%.^.3.c.m.h.D.y.G.G.G.G.G.G.G.G.G.G.G.G.G.G.G.G.G.y.D.h.m.c.3.^.%.#.X P D u s l f 8 1 < ^ ; *   ",
"  . = ' / [ 3 a h o u r I Q V ..*./.4.7.n.v.E.I.G.G.G.G.G.G.G.G.G.G.G.G.G.G.G.G.G.I.E.v.n.7.4./.*...V Q I r u o h a 3 [ / ' = . ",
". # = ) ( } 4 b i p v B J R Y $.>.(.5.d.i.w.z.G.G.G.G.G.G.G.G.G.G.G.G.G.G.G.G.G.G.G.z.w.i.d.5.(.>.$.Y R J B v p i b 4 } ( ) = . ",
". $ - ! _ | 5 c j q v C K S Z %.,._.6.e.o.x.F.G.G.G.G.G.G.G.G.G.G.G.G.G.G.G.G.G.G.G.F.x.o.e.6._.,.%.Z S K C v q j c 5 | _ ! - . ",
". $ - ~ : | 6 d k r w D L T ` &.'.:.7.f.p.y.G.G.G.G.G.G.G.G.G.G.G.G.G.G.G.G.G.G.G.G.G.y.p.f.7.:.'.&.` T L D w r k d 6 | : ~ - . ",
". % - { < | 7 d l s u E M U  .*.).<.8.g.q.z.G.G.G.G.G.G.G.G.G.G.G.G.G.G.G.G.G.G.G.G.G.z.q.g.8.<.).*. .U M E u s l d 7 | < { - . ",
". % ; { < 1 7 e l t t E N U ..=.!.[.9.h.r.A.G.G.G.G.G.G.G.G.G.G.G.G.G.G.G.G.G.G.G.G.G.A.r.h.9.[.!.=...U N E t t l e 7 1 < { ; . ",
". % ; { < 1 8 f m t t k O V ..=.!.}.0.i.s.B.G.G.G.G.G.G.G.G.G.G.G.G.G.G.G.G.G.G.G.G.G.B.s.i.0.}.!.=...V O k t t m f 8 1 < { ; . ",
". % ; { < 1 7 e l t t E N U ..=.!.[.9.h.r.A.G.G.G.G.G.G.G.G.G.G.G.G.G.G.G.G.G.G.G.G.G.A.r.h.9.[.!.=...U N E t t l e 7 1 < { ; . ",
". % - { < | 7 d l s u E M U  .*.).<.8.g.q.z.G.G.G.G.G.G.G.G.G.G.G.G.G.G.G.G.G.G.G.G.G.z.q.g.8.<.).*. .U M E u s l d 7 | < { - . ",
". $ - ~ : | 6 d k r w D L T ` &.'.:.7.f.p.y.G.G.G.G.G.G.G.G.G.G.G.G.G.G.G.G.G.G.G.G.G.y.p.f.7.:.'.&.` T L D w r k d 6 | : ~ . . ",
". $ - ! _ | 5 c j q v C K S Z %.,._.6.e.o.x.F.G.G.G.G.G.G.G.G.G.G.G.G.G.G.G.G.G.G.G.F.x.o.e.6._.,.%.Z S K C v q j c 5 | _ ! . . ",
". # = ) ( } 4 b i p v B J R Y $.>.(.5.d.i.w.z.G.G.G.G.G.G.G.G.G.G.G.G.G.G.G.G.G.G.G.z.w.i.d.5.(.>.$.Y R J B v p i b 4 } ( ) = . ",
"  . = ' / [ 3 a h o u r I Q V ..*./.4.7.n.v.E.I.G.G.G.G.G.G.G.G.G.G.G.G.G.G.G.G.G.I.E.v.n.7.4./.*...V Q I r u o h a 3 [ / ' =   ",
"  @ * ; ^ < 1 8 f l s u D P X #.%.^.3.c.m.h.D.y.G.G.G.G.G.G.G.G.G.G.G.G.G.G.G.G.G.y.D.h.m.c.3.^.%.#.X P D u s l f 8 1 < ^ ; *   ",
"  . % - ~ : | 6 c j q A B J W @.;.=.).b.l.e.C.r.J.G.G.G.G.G.G.G.G.G.G.G.G.G.G.G.J.r.C.e.l.b.).=.;.@.W J B A q j c 6 | : ~ - .   ",
"  . # , ) ( } 0 g h o u t E M T #.%.2.(.}.u.n.H.r.y.I.G.G.G.G.G.G.G.G.G.G.G.I.y.r.H.n.u.}.(.2.%.#.T M E t u o h g 0 } ( ) , .   ",
"    . > ] ^ 2 1 8 d k r v p J W -...1.a.k.5.8.n.C.D.E.z.F.G.G.G.G.G.G.G.F.z.E.D.C.n.8.5.k.a.1...-.W J p v r k d 8 1 2 ^ ] >     ",
"    . % - ~ _ 9 4 b i z u t E P S ].|.=.'.t.5.u.e.h.v.w.x.y.z.A.B.A.z.y.x.w.v.h.e.u.5.t.'.=.|.].S P E t u z i b 4 9 _ ~ - .     ",
"    . # = ' / [ 1 8 d k H A q +.O T Z $.j.'.k.}.l.m.n.i.o.p.q.r.s.r.q.p.o.i.n.m.l.}.k.'.j.$.Z T O +.q A H k d 8 1 [ / ' = .     ",
"      . * ; { _ | 4 g h G t w C J {.U #.$.=.a.(.b.c.7.d.e.f.g.h.i.h.g.f.e.d.7.c.b.(.a.=.$.#.U {.J C w t G h g 4 | _ { ; .       ",
"      . $ = ' / [ 1 7 y i p u t D ~.{.U Z |.1.2.).3.4.5.6.7.8.9.0.9.8.7.6.5.4.3.).2.1.|.Z U {.~.D t u p i y 7 1 [ / ' = .       ",
"        . * ; ~ _ } 3 x f j q v t D ~.{.T ]...%.=.^./.(._.:.<.[.}.[.<.:._.(./.^.=.%...].T {.~.D t v q j f x 3 } _ ~ ; .         ",
"        . # = ' ^ < | 4 g f l q v t D J O S -.#.;.%.*.>.,.'.).!.!.!.).'.,.>.*.%.;.#.-.S O J D t v q l f g 4 | < ^ ' = .         ",
"          . % - ) n [ 1 6 b h l q v t C +.P W T @.#...$.%.&.*.=.=.=.*.&.%.$...#.@.T W P +.C t v q l h b 6 1 [ n ) - .           ",
"            . * ; ! ( [ 1 6 b h l q u w q E J M W X V Y Z `  ....... .` Z Y V X W M J E q w u q l h b 6 1 [ ( ! ; .             ",
"            . # = ; { _ F 1 6 b f j p t A t p E J P Q R S T U U V U U T S R Q P J E p t A t p j f b 6 1 F _ { ; =               ",
"              . $ = ] { _ F 1 6 g f i G H u v t B D I J K L M N O N M L K J I D B t v u H G i f g 6 1 F _ { ] = .               ",
"                . $ = ' { _ [ 1 4 x y h k z r u A u r B C D E E k E E D C B r u A u r z k h y x 4 1 [ _ { ' = .                 ",
"                  . $ = ] { ( [ | 3 7 g d i k o q s u v v w u t t t u w v v u s q o k i d g 7 3 | [ ( { ] = .                   ",
"                    . $ = ; ! n < } 1 4 8 b d h j l o p q r s t t t s r q p o l j h d b 8 4 1 } < n ! ; = .                     ",
"                      . $ = ; ) ^ _ [ | 1 4 8 g c f h i j k l l m l l k j i h f c g 8 4 1 | [ _ ^ ) ; = .                       ",
"                        . . * - ' ~ / _ [ 9 1 0 6 8 a b c d d e f e d d c b a 8 6 0 1 9 [ _ / ~ ' - . .                         ",
"                            . % = ; ' { / _ 2 } | 1 3 4 5 6 7 7 8 7 7 6 5 4 3 1 | } 2 _ / { ' ; = .                             ",
"                              . . * = ; ' ~ ^ ( : < [ } | | | 1 1 1 | | | } [ < : ( ^ ~ ' ; = . .                               ",
"                                  . . * = - ] ) ~ ^ / ( _ : < < < < < : _ ( / ^ ~ ) ] - = . .                                   ",
"                                        . % > , - ; ' ) ! ~ { { { { { ~ ! ) ' ; - , > . .                                       ",
"                                            . . % * = = - - - ; ; ; - - - = = * . .                                             ",
"                                                    . . . . . . . . . . . .                                                     "};
