/* XPM */
static char * cyan1_xpm[] = {
"64 64 149 2",
"  	c #FF00FF",
". 	c #9DA1FF",
"+ 	c #9EA2FF",
"@ 	c #9DA2FF",
"# 	c #9CA0FF",
"$ 	c #9BA0FF",
"% 	c #9B9FFF",
"& 	c #9A9FFF",
"* 	c #999EFF",
"= 	c #999DFF",
"- 	c #989DFF",
"; 	c #989CFF",
"> 	c #979CFF",
", 	c #9A9EFF",
"' 	c #979BFF",
") 	c #969BFF",
"! 	c #959AFF",
"~ 	c #9499FF",
"{ 	c #9398FF",
"] 	c #9297FF",
"^ 	c #9196FF",
"/ 	c #9095FF",
"( 	c #8F94FF",
"_ 	c #8E93FF",
": 	c #8D92FF",
"< 	c #8C91FF",
"[ 	c #969AFF",
"} 	c #8A90FF",
"| 	c #8A8FFF",
"1 	c #898EFF",
"2 	c #888EFF",
"3 	c #888DFF",
"4 	c #878DFF",
"5 	c #868CFF",
"6 	c #858BFF",
"7 	c #848AFF",
"8 	c #8489FF",
"9 	c #8389FF",
"0 	c #8388FF",
"a 	c #8B90FF",
"b 	c #898FFF",
"c 	c #868BFF",
"d 	c #8187FF",
"e 	c #8086FF",
"f 	c #7F85FF",
"g 	c #7E84FF",
"h 	c #7E83FF",
"i 	c #7D83FF",
"j 	c #9599FF",
"k 	c #7C82FF",
"l 	c #7B81FF",
"m 	c #7A80FF",
"n 	c #8186FF",
"o 	c #7E85FF",
"p 	c #8087FF",
"q 	c #8188FF",
"r 	c #8288FF",
"s 	c #878CFF",
"t 	c #848BFF",
"u 	c #858CFF",
"v 	c #868DFF",
"w 	c #878EFF",
"x 	c #8B91FF",
"y 	c #8085FF",
"z 	c #8A91FF",
"A 	c #8C93FF",
"B 	c #8D94FF",
"C 	c #8E95FF",
"D 	c #8F96FF",
"E 	c #7F84FF",
"F 	c #9198FF",
"G 	c #939AFF",
"H 	c #949CFF",
"I 	c #959DFF",
"J 	c #969DFF",
"K 	c #858AFF",
"L 	c #949BFF",
"M 	c #969EFF",
"N 	c #99A0FF",
"O 	c #9BA2FF",
"P 	c #9CA4FF",
"Q 	c #9DA5FF",
"R 	c #9EA6FF",
"S 	c #8990FF",
"T 	c #989FFF",
"U 	c #9BA3FF",
"V 	c #A1A9FF",
"W 	c #A3ABFF",
"X 	c #A5ADFF",
"Y 	c #A7AFFF",
"Z 	c #A7B0FF",
"` 	c #A8B0FF",
" .	c #979FFF",
"..	c #9FA7FF",
"+.	c #AAB2FF",
"@.	c #ADB5FF",
"#.	c #AFB8FF",
"$.	c #B1B9FF",
"%.	c #B2BBFF",
"&.	c #8B92FF",
"*.	c #9097FF",
"=.	c #99A1FF",
"-.	c #ACB5FF",
";.	c #B0B9FF",
">.	c #B4BDFF",
",.	c #B8C1FF",
"'.	c #BAC4FF",
").	c #BCC6FF",
"!.	c #BEC7FF",
"~.	c #A0A8FF",
"{.	c #A6AEFF",
"].	c #ABB4FF",
"^.	c #B6BFFF",
"/.	c #BBC4FF",
"(.	c #C0C9FF",
"_.	c #C4CDFF",
":.	c #C7D1FF",
"<.	c #CAD3FF",
"[.	c #CBD5FF",
"}.	c #CCD6FF",
"|.	c #AEB6FF",
"1.	c #C1CBFF",
"2.	c #CDD7FF",
"3.	c #D2DCFF",
"4.	c #D6E0FF",
"5.	c #D9E3FF",
"6.	c #DBE5FF",
"7.	c #DBE6FF",
"8.	c #C6CFFF",
"9.	c #D4DFFF",
"0.	c #E1ECFF",
"a.	c #E6F2FF",
"b.	c #EAF6FF",
"c.	c #EDF8FF",
"d.	c #EDF9FF",
"e.	c #B7C0FF",
"f.	c #C9D2FF",
"g.	c #E3EFFF",
"h.	c #ECF7FF",
"i.	c #F3FFFF",
"j.	c #FAFFFF",
"k.	c #FFFFFF",
"l.	c #D4DEFF",
"m.	c #DEE9FF",
"n.	c #E9F5FF",
"o.	c #F4FFFF",
"p.	c #E0EBFF",
"q.	c #FCFFFF",
"r.	c #A6A6FF",
"                                                    . . . . . . . . . . . .                                                     ",
"                                              . + @ . # # $ % % % % % $ # # . @ . .                                             ",
"                                        . + . # % & * = - - ; > > > ; - - = * & % # . . .                                       ",
"                                    . @ # % , = ; ' ) ! ! ~ ~ ~ ~ ~ ~ ~ ! ! ) ' ; = , % # . .                                   ",
"                                . @ # & * ; ) ! ~ { ] ] ^ ^ / / / / / ^ ^ ] ] { ~ ! ) ; * & # . .                               ",
"                              + # & = > ) ~ { ] ^ / ( _ : : < < < < < : : _ ( / ^ ] { ~ ) > = & # .                             ",
"                          . . % * > [ ~ ] ^ ( _ : < } | 1 2 3 3 4 3 3 2 1 | } < : _ ( ^ ] ~ [ > * % . .                         ",
"                        + # & - ) ~ ] ^ ( : < | 1 4 5 6 7 8 9 0 0 0 9 8 7 6 5 4 1 | < : ( ^ ] ~ ) - & # .                       ",
"                      @ $ * > ! { ^ ( : a b 4 c 7 0 d e f g g h i h g g f e d 0 7 c 4 b a : ( ^ { ! > * $ .                     ",
"                    @ $ * ' j ] / _ < b 4 6 9 d f g k l m l k k k k k l m l k g f d 9 6 4 b < _ / ] j ' * $ .                   ",
"                  @ $ = ) ~ ] ( : } 3 6 9 n g k m k i o e p d q r q d p e o i k m k g n 9 6 3 } : ( ] ~ ) = $ .                 ",
"                @ $ = ) ~ ^ ( < b s 8 d g k l i f d 9 t u v w 2 2 2 w v u t 9 d f i l k g d 8 s b < ( ^ ~ ) = $ .               ",
"              + $ * ) ~ ^ _ x 1 c 0 y i m i e r t 4 b z A B C C D C C B A z b 4 t r e i m i y 0 c 1 x _ ^ ~ ) * .               ",
"            . # * ' ~ ^ _ x 2 6 r E l k f r 6 2 z B D F G H I J J J I H G F D B z 2 6 r f k l E r 6 2 x _ ^ ~ ' * .             ",
"          . . & > j ] ( x 2 K d g m i p 7 w z C F L M N O P Q R R R Q P O N M L F C z w 7 p i m g d K 2 x ( ] j > & .           ",
"          + % - ! ] ( < 1 6 d g m g q u S B F H T U R V W X Y Z ` Z Y X W V R U T H F B S u q g m g d 6 1 < ( ] ! - %           ",
"        . # * ) { / : b c r g m g r v z D G  .U ..W Y +.@.#.$.%.%.%.$.#.@.+.Y W ..U  .G D z v r g m g r c b : / { ) * .         ",
"        @ & > ~ ^ _ } s 0 E m g r v &.*.H =.R W ` -.;.>.,.'.).!.!.!.).'.,.>.;.-.` W R =.H *.&.v r g m E 0 s } _ ^ ~ > & .       ",
"      . # = [ ] ( < 3 8 y l i q v &.*.I O ~.{.].$.^./.(._.:.<.[.}.[.<.:._.(./.^.$.].{.~.O I *.&.v q i l y 8 3 < ( ] [ = .       ",
"      @ & > ~ ^ : b 6 d i k p u z *.I U V Z |.>./.1.:.2.3.4.5.6.7.6.5.4.3.2.:.1./.>.|.Z V U I *.z u p k i d 6 b : ^ ~ > & .     ",
"    . # * ) ] ( a 4 9 g m f 7 S D H O V ` #.^.!.8.2.9.7.0.a.b.c.d.c.b.a.0.7.9.2.8.!.^.#.` V O H D S 7 f m g 9 4 a ( ] ) * .     ",
"    + % ; ~ ^ : b 6 n k i r w B G =.~.Z #.e.(.f.3.6.g.h.i.j.k.k.k.k.k.j.i.h.g.6.3.f.(.e.#.Z ~.=.G B w r i k n 6 b : ^ ~ ; %     ",
"    . , ) { ( < 4 9 g l e 6 z F  .R {.|.^.(.<.l.m.n.o.k.k.k.k.k.k.k.k.k.k.k.o.n.m.l.<.(.^.|.{.R  .F z 6 e l g 9 4 < ( { ) , .   ",
"  . # = ! ] _ | c d k i r 2 C H U W ].>.!.f.l.p.c.j.k.k.k.k.k.k.k.k.k.k.k.k.k.j.c.p.l.f.!.>.].W U H C 2 r i k d c | _ ] ! = .   ",
"  + % ; ~ ^ : 1 7 f m f t z F T ..` $./.8.3.m.c.q.k.k.k.k.k.k.k.k.k.k.k.k.k.k.k.q.c.m.3.8./.$.` ..T F z t f m f 7 1 : ^ ~ ; %   ",
"  @ & ' { / < 4 0 g k d 4 B L U W -.^.1.2.6.n.j.k.k.k.k.k.k.k.k.k.k.k.k.k.k.k.k.k.j.n.6.2.1.^.-.W U L B 4 d k g 0 4 < / { ' &   ",
"  . * ) ] ( } 5 d k i 9 b D M R Y ;./.:.9.g.o.k.k.k.k.k.k.k.k.k.k.k.k.k.k.k.k.k.k.k.o.g.9.:./.;.Y R M D b 9 i k d 5 } ( ] ) * . ",
". # = ! ] _ | 6 e l o t z F N V +.>.(.2.7.h.k.k.k.k.k.k.k.k.k.k.k.k.k.k.k.k.k.k.k.k.k.h.7.2.(.>.+.V N F z t o l e 6 | _ ] ! = . ",
". # - ! ^ : 1 7 f m e u A G O W @.,._.3.0.i.k.k.k.k.k.k.k.k.k.k.k.k.k.k.k.k.k.k.k.k.k.i.0.3._.,.@.W O G A u e m f 7 1 : ^ ! - . ",
". $ - ~ ^ : 2 8 g l p v B H P X #.'.:.4.a.j.k.k.k.k.k.k.k.k.k.k.k.k.k.k.k.k.k.k.k.k.k.j.a.4.:.'.#.X P H B v p l g 8 2 : ^ ~ - . ",
". % ; ~ / < 3 9 g k d w C I Q Y $.).<.5.b.k.k.k.k.k.k.k.k.k.k.k.k.k.k.k.k.k.k.k.k.k.k.k.b.5.<.).$.Y Q I C w d k g 9 3 < / ~ ; . ",
". % > ~ / < 3 0 h k q 2 C J R Z %.!.[.6.c.k.k.k.k.k.k.k.k.k.k.k.k.k.k.k.k.k.k.k.k.k.k.k.c.6.[.!.%.Z R J C 2 q k h 0 3 < / ~ > . ",
". % > ~ / < 4 0 i k r 2 D J R ` %.!.}.7.d.k.k.k.k.k.k.k.k.k.k.k.k.k.k.k.k.k.k.k.k.k.k.k.d.7.}.!.%.` R J D 2 r k i 0 4 < / ~ > . ",
". % > ~ / < 3 0 h k q 2 C J R Z %.!.[.6.c.k.k.k.k.k.k.k.k.k.k.k.k.k.k.k.k.k.k.k.k.k.k.k.c.6.[.!.%.Z R J C 2 q k h 0 3 < / ~ > . ",
". % ; ~ / < 3 9 g k d w C I Q Y $.).<.5.b.k.k.k.k.k.k.k.k.k.k.k.k.k.k.k.k.k.k.k.k.k.k.k.b.5.<.).$.Y Q I C w d k g 9 3 < / ~ ; . ",
". $ - ~ ^ : 2 8 g l p v B H P X #.'.:.4.a.j.k.k.k.k.k.k.k.k.k.k.k.k.k.k.k.k.k.k.k.k.k.j.a.4.:.'.#.X P H B v p l g 8 2 : ^ ~ - . ",
". # - ! ^ : 1 7 f m e u A G O W @.,._.3.0.i.k.k.k.k.k.k.k.k.k.k.k.k.k.k.k.k.k.k.k.k.k.i.0.3._.,.@.W O G A u e m f 7 1 : ^ ! - . ",
". # = ! ] _ | 6 e l o t z F N V +.>.(.2.7.h.k.k.k.k.k.k.k.k.k.k.k.k.k.k.k.k.k.k.k.k.k.h.7.2.(.>.+.V N F z t o l e 6 | _ ] ! = . ",
"  . * ) ] ( } 5 d k i 9 b D M R Y ;./.:.9.g.o.k.k.k.k.k.k.k.k.k.k.k.k.k.k.k.k.k.k.k.o.g.9.:./.;.Y R M D b 9 i k d 5 } ( ] ) *   ",
"  @ & ' { / < 4 0 g k d 4 B L U W -.^.1.2.6.n.j.k.k.k.k.k.k.k.k.k.k.k.k.k.k.k.k.k.j.n.6.2.1.^.-.W U L B 4 d k g 0 4 < / { ' &   ",
"  . % ; ~ ^ : 1 7 f m f t z F T ..` $./.8.3.m.c.q.k.k.k.k.k.k.k.k.k.k.k.k.k.k.k.q.c.m.3.8./.$.` ..T F z t f m f 7 1 : ^ ~ ; .   ",
"    # = ! ] _ | c d k i r 2 C H U W ].>.!.f.l.p.c.j.k.k.k.k.k.k.k.k.k.k.k.k.k.j.c.p.l.f.!.>.].W U H C 2 r i k d c | _ ] ! = .   ",
"    . , ) { ( < 4 9 g l e 6 z F  .R {.|.^.(.<.l.m.n.o.k.k.k.k.k.k.k.k.k.k.k.o.n.m.l.<.(.^.|.{.R  .F z 6 e l g 9 4 < ( { ) ,     ",
"    . % ; ~ ^ : b 6 n k i r w B G =.~.Z #.e.(.f.3.6.g.h.i.j.k.k.k.k.k.j.i.h.g.6.3.f.(.e.#.Z ~.=.G B w r i k n 6 b : ^ ~ ; .     ",
"    . # * ) ] ( a 4 9 g m f 7 S D H O V ` #.^.!.8.2.9.7.0.a.b.c.d.c.b.a.0.7.9.2.8.!.^.#.` V O H D S 7 f m g 9 4 a ( ] ) * .     ",
"      . & > ~ ^ : b 6 d i k p u z *.I U V Z |.>./.1.:.2.3.4.5.6.7.6.5.4.3.2.:.1./.>.|.Z V U I *.z u p k i d 6 b : ^ ~ > r.      ",
"        # = [ ] ( < 3 8 y l i q v &.*.I O ~.{.].$.^./.(._.:.<.[.}.[.<.:._.(./.^.$.].{.~.O I *.&.v q i l y 8 3 < ( ] [ = .       ",
"        . & > ~ ^ _ } s 0 E m g r v &.*.H =.R W ` -.;.>.,.'.).!.!.!.).'.,.>.;.-.` W R =.H *.&.v r g m E 0 s } _ ^ ~ > .         ",
"          # * ) { / : b c r g m g r v z D G  .U ..W Y +.@.#.$.%.%.%.$.#.@.+.Y W ..U  .G D z v r g m g r c b : / { ) *           ",
"          . % - ! ] ( < 1 6 d g m g q u S B F H T U R V W X Y Z ` Z Y X W V R U T H F B S u q g m g d 6 1 < ( ] ! - .           ",
"            . & > j ] ( x 2 K d g m i p 7 w z C F L M N O P Q R R R Q P O N M L F C z w 7 p i m g d K 2 x ( ] j > .             ",
"            . # * ' ~ ^ _ x 2 6 r E l k f r 6 2 z B D F G H I J J J I H G F D B z 2 6 r f k l E r 6 2 x _ ^ ~ ' *               ",
"              . $ * ) ~ ^ _ x 1 c 0 y i m i e r t 4 b z A B C C D C C B A z b 4 t r e i m i y 0 c 1 x _ ^ ~ ) * .               ",
"                . $ = ) ~ ^ ( < b s 8 d g k l i f d 9 t u v w 2 2 2 w v u t 9 d f i l k g d 8 s b < ( ^ ~ ) = .                 ",
"                  . $ = ) ~ ] ( : } 3 6 9 n g k m k i o e p d q r q d p e o i k m k g n 9 6 3 } : ( ] ~ ) = .                   ",
"                      $ * ' j ] / _ < b 4 6 9 d f g k l m l k k k k k l m l k g f d 9 6 4 b < _ / ] j ' * .                     ",
"                      . $ * > ! { ^ ( : a b 4 c 7 0 d e f g g h i h g g f e d 0 7 c 4 b a : ( ^ { ! > * .                       ",
"                          . & - ) ~ ] ^ ( : < | 1 4 5 6 7 8 9 0 0 0 9 8 7 6 5 4 1 | < : ( ^ ] ~ ) - .                           ",
"                            . % * > [ ~ ] ^ ( _ : < } | 1 2 3 3 4 3 3 2 1 | } < : _ ( ^ ] ~ [ > * .                             ",
"                                . & = > ) ~ { ] ^ / ( _ : : < < < < < : : _ ( / ^ ] { ~ ) > = .                                 ",
"                                  . . & * ; ) ! ~ { ] ] ^ ^ / / / / / ^ ^ ] ] { ~ ! ) ; * .                                     ",
"                                      . . % , = ; ' ) ! ! ~ ~ ~ ~ ~ ~ ~ ! ! ) ' ; = , .                                         ",
"                                            . . % & * = - - ; > > > ; - - = * & .                                               ",
"                                                    . . . . . . . . . . . .                                                     "};
