/* XPM */
static char * cyan7_xpm[] = {
"64 64 166 2",
"  	c #FF00FF",
". 	c #B4CFFF",
"+ 	c #B3CFFF",
"@ 	c #B3CEFF",
"# 	c #B2CEFF",
"$ 	c #B1CDFF",
"% 	c #B0CDFF",
"& 	c #B0CCFF",
"* 	c #AFCCFF",
"= 	c #BCD0FF",
"- 	c #AECBFF",
"; 	c #ADCBFF",
"> 	c #ADCAFF",
", 	c #BBCFFF",
"' 	c #C0CEFF",
") 	c #ACCAFF",
"! 	c #ABCAFF",
"~ 	c #ABC9FF",
"{ 	c #AAC9FF",
"] 	c #BFCEFF",
"^ 	c #A9C8FF",
"/ 	c #A8C7FF",
"( 	c #A7C7FF",
"_ 	c #A6C7FF",
": 	c #A8C8FF",
"< 	c #A6C6FF",
"[ 	c #A5C6FF",
"} 	c #A5C5FF",
"| 	c #A4C5FF",
"1 	c #A3C5FF",
"2 	c #A3C4FF",
"3 	c #BDCFFF",
"4 	c #AECCFF",
"5 	c #A2C4FF",
"6 	c #A1C3FF",
"7 	c #A0C2FF",
"8 	c #9FC2FF",
"9 	c #A2C3FF",
"0 	c #A0C3FF",
"a 	c #9EC1FF",
"b 	c #9DC1FF",
"c 	c #9DC0FF",
"d 	c #9CC0FF",
"e 	c #9BC0FF",
"f 	c #9BBFFF",
"g 	c #9ABFFF",
"h 	c #99BEFF",
"i 	c #98BDFF",
"j 	c #97BDFF",
"k 	c #96BCFF",
"l 	c #95BBFF",
"m 	c #94BBFF",
"n 	c #93BAFF",
"o 	c #92BAFF",
"p 	c #91B9FF",
"q 	c #90B8FF",
"r 	c #8FB8FF",
"s 	c #8EB7FF",
"t 	c #8DB6FF",
"u 	c #98BEFF",
"v 	c #92B9FF",
"w 	c #8CB6FF",
"x 	c #8BB5FF",
"y 	c #8AB4FF",
"z 	c #89B4FF",
"A 	c #88B3FF",
"B 	c #87B3FF",
"C 	c #9ABEFF",
"D 	c #87B2FF",
"E 	c #85B1FF",
"F 	c #84B0FF",
"G 	c #83B0FF",
"H 	c #82AFFF",
"I 	c #81AFFF",
"J 	c #90B9FF",
"K 	c #86B2FF",
"L 	c #7FADFF",
"M 	c #7DACFF",
"N 	c #7CABFF",
"O 	c #7BABFF",
"P 	c #7AAAFF",
"Q 	c #80AEFF",
"R 	c #7CADFF",
"S 	c #7EAFFF",
"T 	c #7FB1FF",
"U 	c #80B3FF",
"V 	c #81B4FF",
"W 	c #95BCFF",
"X 	c #8FB7FF",
"Y 	c #83B7FF",
"Z 	c #85BAFF",
"` 	c #87BCFF",
" .	c #88BEFF",
"..	c #89BFFF",
"+.	c #8AB5FF",
"@.	c #7EADFF",
"#.	c #7DAFFF",
"$.	c #85B9FF",
"%.	c #88BDFF",
"&.	c #8BC2FF",
"*.	c #8DC5FF",
"=.	c #8FC8FF",
"-.	c #91CAFF",
";.	c #92CCFF",
">.	c #7BACFF",
",.	c #7FB2FF",
"'.	c #84B8FF",
").	c #8CC3FF",
"!.	c #90C9FF",
"~.	c #94CEFF",
"{.	c #97D2FF",
"].	c #99D6FF",
"^.	c #9BD8FF",
"/.	c #9CDAFF",
"(.	c #9DDBFF",
"_.	c #86BBFF",
":.	c #90C8FF",
"<.	c #95CFFF",
"[.	c #9DDCFF",
"}.	c #A1E1FF",
"|.	c #A4E5FF",
"1.	c #A7E9FF",
"2.	c #A8EBFF",
"3.	c #A9EBFF",
"4.	c #8CC4FF",
"5.	c #98D4FF",
"6.	c #9EDCFF",
"7.	c #A3E4FF",
"8.	c #ADF2FF",
"9.	c #B1F7FF",
"0.	c #B4FBFF",
"a.	c #B6FEFF",
"b.	c #B7FFFF",
"c.	c #9AD7FF",
"d.	c #AFF4FF",
"e.	c #B5FDFF",
"f.	c #BBFFFF",
"g.	c #C0FFFF",
"h.	c #C4FFFF",
"i.	c #C6FFFF",
"j.	c #C7FFFF",
"k.	c #A3E3FF",
"l.	c #ABEFFF",
"m.	c #BCFFFF",
"n.	c #CCFFFF",
"o.	c #D2FFFF",
"p.	c #D7FFFF",
"q.	c #DAFFFF",
"r.	c #DBFFFF",
"s.	c #ACF0FF",
"t.	c #CBFFFF",
"u.	c #D5FFFF",
"v.	c #DFFFFF",
"w.	c #E7FFFF",
"x.	c #EEFFFF",
"y.	c #F2FFFF",
"z.	c #F3FFFF",
"A.	c #C2FFFF",
"B.	c #CEFFFF",
"C.	c #E8FFFF",
"D.	c #F5FFFF",
"E.	c #FFFFFF",
"F.	c #DDFFFF",
"G.	c #BCCEFF",
"H.	c #BBCEFF",
"I.	c #BACEFF",
"                                                    . . . . . . . . . . . .                                                     ",
"                                            . . . . + @ # # # # # # # # # @ + . . .                                             ",
"                                      . . . + @ # $ $ % % & * * * * * & % % $ $ # @ + . .                                       ",
"                                  . = . @ # $ % * * - - ; ; ; > > > ; ; ; - - * * % $ # @ , .                                   ",
"                              . ' . @ # % * * - ; ) ! ~ { { { { { { { { { ~ ! ) ; - * * % # . ] .                               ",
"                            . . @ # % * - ; ) ~ { ^ ^ / ( ( ( _ _ _ ( ( ( / ^ ^ { ~ ) ; - * % # @ .                             ",
"                        . . + # $ * - ; ! { ^ : ( < [ } | | 1 2 2 2 1 | | } [ < ( : ^ { ! ; - * $ # 3 .                         ",
"                      . . @ $ % 4 ; ) { ^ ( < [ | 2 5 6 6 7 7 8 8 8 7 7 6 6 5 2 | [ < ( ^ { ) ; 4 % $ . .                       ",
"                    . . # $ * - ) { ^ ( < | 2 9 0 8 a b c d d e f e d d c b a 8 0 9 2 | < ( ^ { ) - * $ . .                     ",
"                  . . # $ * ; ! { / < | 2 6 7 a c d g h h i j j j j j i h h g d c a 7 6 2 | < / { ! ; * . . .                   ",
"                . . # % * ; ~ ^ ( [ 1 6 7 a d g h j k l m n n o o o n n m l k j h g d a 7 6 1 [ ( ^ ~ ; * % # .                 ",
"              . . # % 4 > ~ ^ _ | 5 0 a d g i k l n p q r s s t t t s s r q p n l k i g d a 0 5 | _ ^ ~ > 4 % . .               ",
"            . . # $ * > { : < | 9 8 b f u k m v q s w x y z A A B A A z y x w s q v m k u f b 8 9 | < : { > * $ . .             ",
"            . @ $ * ; ~ : < | 6 8 d C j l o q t x z D E F G H I I I H G F E D z x t q o l j C d 8 6 | < : ~ ; * $ .             ",
"          . + $ * ; ~ ^ < | 6 a d h k n J s x A K G I L M N O P P P O N M L I G K A x s J n k h d a 6 | < ^ ~ ; * $ .           ",
"        . . # % - ! ^ _ | 6 a d h k o r w z K G Q M P R S T U V V V U T S R P M Q G K z w r o k h d a 6 | _ ^ ! - % # .         ",
"        . @ $ 4 ) { ( | 9 8 d h W v X x B F Q M O S U Y Z `  ....... .` Z Y U S O M Q F B x X v W h d 8 9 | ( { ) 4 $ .         ",
"      . . # * ; { / [ 5 8 d h k v s +.D G @.P #.V $.%.&.*.=.-.;.;.;.-.=.*.&.%.$.V #.P @.G D +.s v k h d 8 5 [ / { ; * # .       ",
"      = @ % - ) ^ < 1 0 b C k o X +.K H M >.,.'. .).!.~.{.].^./.(./.^.].{.~.!.). .'.,.>.M H K +.X o k C b 0 1 < ^ ) - % .       ",
"    . . # * ; { ( | 6 a f j n r x D H M R V _.&.:.<.].[.}.|.1.2.3.2.1.|.}.[.].<.:.&._.V R M H D x r n j f a 6 | ( { ; * # .     ",
"    . @ % - ! ^ < 2 7 d u l J w B G M R V ` 4.;.5.6.7.3.8.9.0.a.b.a.0.9.8.3.7.6.5.;.4.` V R M G B w J l u d 7 2 < ^ ! - % .     ",
"    . # * ; { ( | 6 a g k o s z F @.>.V ` *.~.c.}.2.d.e.f.g.h.i.j.i.h.g.f.e.d.2.}.c.~.*.` V >.@.F z s o k g a 6 | ( { ; * #     ",
"  . . $ * ) ^ < 2 7 d i m q x K Q P ,._.4.~.^.k.l.0.m.h.n.o.p.q.r.q.p.o.n.h.m.0.l.k.^.~.4._.,.P Q K x q m i d 7 2 < ^ ) * $ .   ",
"  . @ % - ~ : [ 9 a g k v t A G M #.'.&.;.c.k.s.a.g.t.u.v.w.x.y.z.y.x.w.v.u.t.g.a.s.k.c.;.&.'.#.M G A t v k g a 9 [ : ~ - % .   ",
"  . # * ; { ( | 0 c h l q x K Q O V  .:.5.}.l.a.A.B.r.C.D.E.E.E.E.E.E.E.D.C.r.B.A.a.l.}.5.:. .V O Q K x q l h c 0 | ( { ; * .   ",
"  . $ * ) ^ < 2 8 d j n s z G M S $.).<.6.2.0.g.B.F.x.E.E.E.E.E.E.E.E.E.E.E.x.F.B.g.0.2.6.<.).$.S M G z s n j d 8 2 < ^ ) * $ . ",
". + $ - ! ^ [ 5 a g k p w D I P U %.!.].7.d.m.t.r.x.E.E.E.E.E.E.E.E.E.E.E.E.E.x.r.t.m.d.7.].!.%.U P I D w p k g a 5 [ ^ ! - $ . ",
". @ % - ~ / } 6 b h l q x E L R Y &.~.[.3.e.h.u.C.E.E.E.E.E.E.E.E.E.E.E.E.E.E.E.C.u.h.e.3.[.~.&.Y R L E x q l h b 6 } / ~ - % . ",
". # % ; { ( | 6 c h m r y F M S Z *.{.}.8.f.n.v.D.E.E.E.E.E.E.E.E.E.E.E.E.E.E.E.D.v.n.f.8.}.{.*.Z S M F y r m h c 6 | ( { ; % . ",
". # & ; { ( | 7 d i n s z G N T ` =.].|.9.g.o.w.E.E.E.E.E.E.E.E.E.E.E.E.E.E.E.E.E.w.o.g.9.|.].=.` T N G z s n i d 7 | ( { ; & . ",
". # * ; { ( 1 7 d j n s A H O U  .-.^.1.0.h.p.x.E.E.E.E.E.E.E.E.E.E.E.E.E.E.E.E.E.x.p.h.0.1.^.-. .U O H A s n j d 7 1 ( { ; * . ",
". # * > { _ 2 8 e j o t A I P V ..;./.2.a.i.q.y.E.E.E.E.E.E.E.E.E.E.E.E.E.E.E.E.E.y.q.i.a.2./.;...V P I A t o j e 8 2 _ { > * . ",
". # * > { _ 2 8 f j o t B I P V ..;.(.3.b.j.r.z.E.E.E.E.E.E.E.E.E.E.E.E.E.E.E.E.E.z.r.j.b.3.(.;...V P I B t o j f 8 2 _ { > * . ",
". # * > { _ 2 8 e j o t A I P V ..;./.2.a.i.q.y.E.E.E.E.E.E.E.E.E.E.E.E.E.E.E.E.E.y.q.i.a.2./.;...V P I A t o j e 8 2 _ { > * . ",
". # * ; { ( 1 7 d j n s A H O U  .-.^.1.0.h.p.x.E.E.E.E.E.E.E.E.E.E.E.E.E.E.E.E.E.x.p.h.0.1.^.-. .U O H A s n j d 7 1 ( { ; * . ",
". # & ; { ( | 7 d i n s z G N T ` =.].|.9.g.o.w.E.E.E.E.E.E.E.E.E.E.E.E.E.E.E.E.E.w.o.g.9.|.].=.` T N G z s n i d 7 | ( { ; & . ",
". # % ; { ( | 6 c h m r y F M S Z *.{.}.8.f.n.v.D.E.E.E.E.E.E.E.E.E.E.E.E.E.E.E.D.v.n.f.8.}.{.*.Z S M F y r m h c 6 | ( { ; % . ",
". @ % - ~ / } 6 b h l q x E L R Y &.~.[.3.e.h.u.C.E.E.E.E.E.E.E.E.E.E.E.E.E.E.E.C.u.h.e.3.[.~.&.Y R L E x q l h b 6 } / ~ - % . ",
"  + $ - ! ^ [ 5 a g k p w D I P U %.!.].7.d.m.t.r.x.E.E.E.E.E.E.E.E.E.E.E.E.E.x.r.t.m.d.7.].!.%.U P I D w p k g a 5 [ ^ ! - $   ",
"  . $ * ) ^ < 2 8 d j n s z G M S $.).<.6.2.0.g.B.F.x.E.E.E.E.E.E.E.E.E.E.E.x.F.B.g.0.2.6.<.).$.S M G z s n j d 8 2 < ^ ) * .   ",
"  . # * ; { ( | 0 c h l q x K Q O V  .:.5.}.l.a.A.B.r.C.D.E.E.E.E.E.E.E.D.C.r.B.A.a.l.}.5.:. .V O Q K x q l h c 0 | ( { ; * .   ",
"  . @ % - ~ : [ 9 a g k v t A G M #.'.&.;.c.k.s.a.g.t.u.v.w.x.y.z.y.x.w.v.u.t.g.a.s.k.c.;.&.'.#.M G A t v k g a 9 [ : ~ - . .   ",
"    . $ * ) ^ < 2 7 d i m q x K Q P ,._.4.~.^.k.l.0.m.h.n.o.p.q.r.q.p.o.n.h.m.0.l.k.^.~.4._.,.P Q K x q m i d 7 2 < ^ ) * .     ",
"    . # * ; { ( | 6 a g k o s z F @.>.V ` *.~.c.}.2.d.e.f.g.h.i.j.i.h.g.f.e.d.2.}.c.~.*.` V >.@.F z s o k g a 6 | ( { ; * .     ",
"    . @ % - ! ^ < 2 7 d u l J w B G M R V ` 4.;.5.6.7.3.8.9.0.a.b.a.0.9.8.3.7.6.5.;.4.` V R M G B w J l u d 7 2 < ^ ! - % .     ",
"      . # * ; { ( | 6 a f j n r x D H M R V _.&.:.<.].[.}.|.1.2.3.2.1.|.}.[.].<.:.&._.V R M H D x r n j f a 6 | ( { ; * .       ",
"      . @ % - ) ^ < 1 0 b C k o X +.K H M >.,.'. .).!.~.{.].^./.(./.^.].{.~.!.). .'.,.>.M H K +.X o k C b 0 1 < ^ ) - % .       ",
"        . # * ; { / [ 5 8 d h k v s +.D G @.P #.V $.%.&.*.=.-.;.;.;.-.=.*.&.%.$.V #.P @.G D +.s v k h d 8 5 [ / { ; * .         ",
"        . . $ 4 ) { ( | 9 8 d h W v X x B F Q M O S U Y Z `  ....... .` Z Y U S O M Q F B x X v W h d 8 9 | ( { ) 4 $ .         ",
"          . . % - ! ^ _ | 6 a d h k o r w z K G Q M P R S T U V V V U T S R P M Q G K z w r o k h d a 6 | _ ^ ! - % .           ",
"            . $ * ; ~ ^ < | 6 a d h k n J s x A K G I L M N O P P P O N M L I G K A x s J n k h d a 6 | < ^ ~ ; * .             ",
"            . . $ * ; ~ : < | 6 8 d C j l o q t x z D E F G H I I I H G F E D z x t q o l j C d 8 6 | < : ~ ; * $ .             ",
"              . # $ * > { : < | 9 8 b f u k m v q s w x y z A A B A A z y x w s q v m k u f b 8 9 | < : { > * $ .               ",
"                . . % 4 > ~ ^ _ | 5 0 a d g i k l n p q r s s t t t s s r q p n l k i g d a 0 5 | _ ^ ~ > 4 % .                 ",
"                  . # % * ; ~ ^ ( [ 1 6 7 a d g h j k l m n n o o o n n m l k j h g d a 7 6 1 [ ( ^ ~ ; * % .                   ",
"                    . # $ * ; ! { / < | 2 6 7 a c d g h h i j j j j j i h h g d c a 7 6 2 | < / { ! ; * $ .                     ",
"                      . # $ * - ) { ^ ( < | 2 9 0 8 a b c d d e f e d d c b a 8 0 9 2 | < ( ^ { ) - * . .                       ",
"                        . G.$ % 4 ; ) { ^ ( < [ | 2 5 6 6 7 7 8 8 8 7 7 6 6 5 2 | [ < ( ^ { ) ; 4 % H..                         ",
"                          . . # $ * - ; ! { ^ : ( < [ } | | 1 2 2 2 1 | | } [ < ( : ^ { ! ; - * . .                             ",
"                              . . # % * - ; ) ~ { ^ ^ / ( ( ( _ _ _ ( ( ( / ^ ^ { ~ ) ; - * % . .                               ",
"                                  . I.# % * * - ; ) ! ~ { { { { { { { { { ~ ! ) ; - * * . . .                                   ",
"                                      . . # $ % * * - - ; ; ; > > > ; ; ; - - * * % . . .                                       ",
"                                            . . . . . . . . . . * * * & % % $ . . .                                             ",
"                                                      . . . . . . . . . . .                                                     "};
