/* XPM */
static char * cyan4_xpm[] = {
"64 64 158 2",
"  	c #FF00FF",
". 	c #A7BBFF",
"+ 	c #A9BDFF",
"@ 	c #A8BCFF",
"# 	c #A6BAFF",
"$ 	c #A9BCFF",
"% 	c #A5B9FF",
"& 	c #A4B9FF",
"* 	c #A4B8FF",
"= 	c #A3B8FF",
"- 	c #A5BAFF",
"; 	c #A2B7FF",
"> 	c #A1B6FF",
", 	c #A0B6FF",
"' 	c #A1B7FF",
") 	c #A0B5FF",
"! 	c #9FB5FF",
"~ 	c #9EB4FF",
"{ 	c #9DB3FF",
"] 	c #9CB3FF",
"^ 	c #9CB2FF",
"/ 	c #9BB2FF",
"( 	c #9AB1FF",
"_ 	c #99B0FF",
": 	c #98AFFF",
"< 	c #97AFFF",
"[ 	c #96AEFF",
"} 	c #96ADFF",
"| 	c #95ADFF",
"1 	c #94ACFF",
"2 	c #93ACFF",
"3 	c #92ABFF",
"4 	c #91AAFF",
"5 	c #98B0FF",
"6 	c #97AEFF",
"7 	c #90A9FF",
"8 	c #8FA8FF",
"9 	c #8EA8FF",
"0 	c #8DA7FF",
"a 	c #8DA6FF",
"b 	c #8CA6FF",
"c 	c #8BA5FF",
"d 	c #8AA5FF",
"e 	c #89A4FF",
"f 	c #88A3FF",
"g 	c #87A3FF",
"h 	c #8FA9FF",
"i 	c #8AA4FF",
"j 	c #86A2FF",
"k 	c #85A1FF",
"l 	c #84A0FF",
"m 	c #839FFF",
"n 	c #829EFF",
"o 	c #94ADFF",
"p 	c #87A2FF",
"q 	c #85A0FF",
"r 	c #819EFF",
"s 	c #809CFF",
"t 	c #7E9BFF",
"u 	c #7D9BFF",
"v 	c #7D9AFF",
"w 	c #7C9AFF",
"x 	c #7F9CFF",
"y 	c #7B99FF",
"z 	c #7A99FF",
"A 	c #7D9CFF",
"B 	c #7E9CFF",
"C 	c #7E9DFF",
"D 	c #7F9EFF",
"E 	c #80A0FF",
"F 	c #82A2FF",
"G 	c #83A4FF",
"H 	c #84A5FF",
"I 	c #85A5FF",
"J 	c #85A6FF",
"K 	c #93ABFF",
"L 	c #809DFF",
"M 	c #83A3FF",
"N 	c #87A8FF",
"O 	c #89ABFF",
"P 	c #8AACFF",
"Q 	c #8BAEFF",
"R 	c #8CAEFF",
"S 	c #8CAFFF",
"T 	c #86A1FF",
"U 	c #809FFF",
"V 	c #86A7FF",
"W 	c #8EB1FF",
"X 	c #90B4FF",
"Y 	c #92B6FF",
"Z 	c #93B8FF",
"` 	c #94B9FF",
" .	c #8DB0FF",
"..	c #94B8FF",
"+.	c #96BCFF",
"@.	c #99BFFF",
"#.	c #9BC1FF",
"$.	c #9CC3FF",
"%.	c #9DC4FF",
"&.	c #9EC5FF",
"*.	c #88A9FF",
"=.	c #98BEFF",
"-.	c #9FC7FF",
";.	c #A2CBFF",
">.	c #A5CEFF",
",.	c #A7D0FF",
"'.	c #A8D1FF",
").	c #A8D2FF",
"!.	c #7F9FFF",
"~.	c #93B7FF",
"{.	c #98BDFF",
"].	c #A1C9FF",
"^.	c #A6CEFF",
"/.	c #AAD3FF",
"(.	c #ADD8FF",
"_.	c #B0DCFF",
":.	c #B2DEFF",
"<.	c #B4E0FF",
"[.	c #B4E1FF",
"}.	c #8FB2FF",
"|.	c #9AC0FF",
"1.	c #ABD5FF",
"2.	c #B5E2FF",
"3.	c #B9E7FF",
"4.	c #BDECFF",
"5.	c #C0EFFF",
"6.	c #C1F1FF",
"7.	c #C2F2FF",
"8.	c #95B9FF",
"9.	c #AFDAFF",
"0.	c #BCEAFF",
"a.	c #C7F8FF",
"b.	c #CCFEFF",
"c.	c #CFFFFF",
"d.	c #D1FFFF",
"e.	c #D2FFFF",
"f.	c #A2CAFF",
"g.	c #B1DDFF",
"h.	c #C9FBFF",
"i.	c #D7FFFF",
"j.	c #DDFFFF",
"k.	c #E1FFFF",
"l.	c #E4FFFF",
"m.	c #E5FFFF",
"n.	c #BBEAFF",
"o.	c #C5F5FF",
"p.	c #D8FFFF",
"q.	c #EAFFFF",
"r.	c #F1FFFF",
"s.	c #F7FFFF",
"t.	c #FBFFFF",
"u.	c #FCFFFF",
"v.	c #C6F7FF",
"w.	c #E9FFFF",
"x.	c #F5FFFF",
"y.	c #FFFFFF",
"z.	c #DFFFFF",
"A.	c #EDFFFF",
"                                                    . . . . . . . . . . . .                                                     ",
"                                            . . + @ @ . . . # # # # # . . . @ @ . .                                             ",
"                                        . $ @ . # # % % & * * = = = * * & % % # # . @ . .                                       ",
"                                  . . @ . # - & * = ; ; > > , , , , , > > ; ; = * & - # . . .                                   ",
"                              . . @ . # % * ; ' > ) ! ~ ~ { { { { { { { ~ ~ ! ) > ' ; * % # . . .                               ",
"                            . $ . # % = ; > ! ~ { ] ^ / ( ( _ _ _ _ _ ( ( / ^ ] { ~ ! > ; = % # . .                             ",
"                        . . @ # % = ; , ! ~ ] / ( _ : < [ [ } | | | } [ [ < : _ ( / ] ~ ! , ; = % # . .                         ",
"                      . + . # & ; > ! { ^ ( _ < [ | 1 2 3 3 4 4 4 4 4 3 3 2 1 | [ < _ ( ^ { ! > ; & # . .                       ",
"                    . . . % = ' ) ~ ^ ( 5 6 | 1 3 4 7 8 9 0 0 a b a 0 0 9 8 7 4 3 1 | 6 5 ( ^ ~ ) ' = % . .                     ",
"                  . . . % = > ! { / _ 6 | 2 4 7 9 0 c d e f f f g f f f e d c 0 9 7 4 2 | 6 _ / { ! > = % . .                   ",
"                . $ . % ; , ~ ^ ( : } 2 4 h 0 c i f j k l m m n n n m m l k j f i c 0 h 4 2 } : ( ^ ~ , ; % . .                 ",
"              . $ . % ; , ~ ^ _ 6 o 3 7 0 c e p q m r s t u v w w w v u t s r m q p e c 0 7 3 o 6 _ ^ ~ , ; % . .               ",
"            . + . % ; , ~ / _ [ 1 4 9 b e p l n x u y z w A B C C C B A w z y u x n l p e b 9 4 1 [ _ / ~ , ; % . .             ",
"            . . % = , ~ / _ [ 2 7 0 d f q n x w z u D E F G H I J I H G F E D u z w x n q f d 0 7 2 [ _ / ~ , = % .             ",
"          . @ # = > ~ ^ _ [ K 7 0 i j m L v y A E M J N O P Q R S R Q P O N J M E A y v L m j i 0 7 K [ _ ^ ~ > = # .           ",
"          $ # & ' ! ^ _ [ 2 7 0 e T n x y u U G V O R W X Y Z ` ` ` Z Y X W R O V G U u y x n T e 0 7 2 [ _ ^ ! ' & # .         ",
"        . . % ; ) { ( 6 1 7 0 e k n t z C F V O  .X ..+.@.#.$.%.&.%.$.#.@.+...X  .O V F C z t n k e 0 7 1 6 ( { ) ; % .         ",
"      . @ # = > ~ / : o 4 0 i T n u y D G *.R X ` =.$.-.;.>.,.'.).'.,.>.;.-.$.=.` X R *.G D y u n T i 0 4 o : / ~ > = # .       ",
"      . . % ; ! ^ _ } 3 9 d j n t y !.H O W ~.{.$.].^./.(._.:.<.[.<.:._.(./.^.].$.{.~.W O H !.y t n j d 9 3 } _ ^ ! ; % .       ",
"    . @ # = , { ( 6 2 7 b f m x z D H O }.` |.-.>.1._.2.3.4.5.6.7.6.5.4.3.2._.1.>.-.|.` }.O H D z x m f b 7 2 6 ( { , = # .     ",
"    . . % ; ! ^ 5 | 4 0 e q L y C G O }.8.#.].).9.2.0.7.a.b.c.d.e.d.c.b.a.7.0.2.9.).].#.8.}.O G C y L q e 0 4 | 5 ^ ! ; % .     ",
"    $ # * > ~ ( 6 2 h c p n v u F *.W ` #.f./.g.3.6.h.d.i.j.k.l.m.l.k.j.i.d.h.6.3.g./.f.#.` W *.F u v n p c h 2 6 ( ~ > * #     ",
"  . @ - ; ! ] _ | 4 0 e l x y U V R ~.|.]./.:.n.o.c.p.k.q.r.s.t.u.t.s.r.q.k.p.c.o.n.:./.].|.~.R V U y x l e 0 4 | _ ] ! ; - .   ",
"  . . & ' ~ / < 1 7 c p n w A G O X {.-.).g.n.v.d.j.w.x.y.y.y.y.y.y.y.y.y.x.w.j.d.v.n.g.).-.{.X O G A w n p c 7 1 < / ~ ' & .   ",
"  + # * > { ( [ 3 9 i q x z E V  .` $.>.9.3.o.d.z.A.u.y.y.y.y.y.y.y.y.y.y.y.u.A.z.d.o.3.9.>.$.`  .V E z x q i 9 3 [ ( { > * #   ",
"  @ # = ) ] _ | 4 0 f m u u M O X =.].1.2.6.c.j.A.y.y.y.y.y.y.y.y.y.y.y.y.y.y.y.A.j.c.6.2.1.].=.X O M u u m f 0 4 | _ ] ) = #   ",
". @ % ; ! ^ : 1 7 c j r y D J R ..$.^._.0.h.p.w.u.y.y.y.y.y.y.y.y.y.y.y.y.y.y.y.u.w.p.h.0._.^.$...R J D y r j c 7 1 : ^ ! ; % . ",
". . % ; ~ / < 2 8 d k s z E N W +.-./.2.7.d.k.x.y.y.y.y.y.y.y.y.y.y.y.y.y.y.y.y.y.x.k.d.7.2./.-.+.W N E z s k d 8 2 < / ~ ; % . ",
". . & > ~ ( [ 3 9 e l t w F O X @.;.(.3.a.i.q.y.y.y.y.y.y.y.y.y.y.y.y.y.y.y.y.y.y.y.q.i.a.3.(.;.@.X O F w t l e 9 3 [ ( ~ > & . ",
". . * > { ( [ 3 0 f m u A G P Y #.>._.4.b.j.r.y.y.y.y.y.y.y.y.y.y.y.y.y.y.y.y.y.y.y.r.j.b.4._.>.#.Y P G A u m f 0 3 [ ( { > * . ",
". # * , { _ } 4 0 f m v B H Q Z $.,.:.5.c.k.s.y.y.y.y.y.y.y.y.y.y.y.y.y.y.y.y.y.y.y.s.k.c.5.:.,.$.Z Q H B v m f 0 4 } _ { , * . ",
". # = , { _ | 4 a f n w C I R ` %.'.<.6.d.l.t.y.y.y.y.y.y.y.y.y.y.y.y.y.y.y.y.y.y.y.t.l.d.6.<.'.%.` R I C w n f a 4 | _ { , = . ",
". # = , { _ | 4 b g n w C J S ` &.).[.7.e.m.u.y.y.y.y.y.y.y.y.y.y.y.y.y.y.y.y.y.y.y.u.m.e.7.[.).&.` S J C w n g b 4 | _ { , = . ",
". # = , { _ | 4 a f n w C I R ` %.'.<.6.d.l.t.y.y.y.y.y.y.y.y.y.y.y.y.y.y.y.y.y.y.y.t.l.d.6.<.'.%.` R I C w n f a 4 | _ { , = . ",
". # * , { _ } 4 0 f m v B H Q Z $.,.:.5.c.k.s.y.y.y.y.y.y.y.y.y.y.y.y.y.y.y.y.y.y.y.s.k.c.5.:.,.$.Z Q H B v m f 0 4 } _ { , * . ",
". . * > { ( [ 3 0 f m u A G P Y #.>._.4.b.j.r.y.y.y.y.y.y.y.y.y.y.y.y.y.y.y.y.y.y.y.r.j.b.4._.>.#.Y P G A u m f 0 3 [ ( { > * . ",
". . & > ~ ( [ 3 9 e l t w F O X @.;.(.3.a.i.q.y.y.y.y.y.y.y.y.y.y.y.y.y.y.y.y.y.y.y.q.i.a.3.(.;.@.X O F w t l e 9 3 [ ( ~ > & . ",
". . % ; ~ / < 2 8 d k s z E N W +.-./.2.7.d.k.x.y.y.y.y.y.y.y.y.y.y.y.y.y.y.y.y.y.x.k.d.7.2./.-.+.W N E z s k d 8 2 < / ~ ; % . ",
"  @ % ; ! ^ : 1 7 c j r y D J R ..$.^._.0.h.p.w.u.y.y.y.y.y.y.y.y.y.y.y.y.y.y.y.u.w.p.h.0._.^.$...R J D y r j c 7 1 : ^ ! ; %   ",
"  @ # = ) ] _ | 4 0 f m u u M O X =.].1.2.6.c.j.A.y.y.y.y.y.y.y.y.y.y.y.y.y.y.y.A.j.c.6.2.1.].=.X O M u u m f 0 4 | _ ] ) = #   ",
"  . # * > { ( [ 3 9 i q x z E V  .` $.>.9.3.o.d.z.A.u.y.y.y.y.y.y.y.y.y.y.y.u.A.z.d.o.3.9.>.$.`  .V E z x q i 9 3 [ ( { > * .   ",
"  . . & ' ~ / < 1 7 c p n w A G O X {.-.).g.n.v.d.j.w.x.y.y.y.y.y.y.y.y.y.x.w.j.d.v.n.g.).-.{.X O G A w n p c 7 1 < / ~ ' & .   ",
"    @ - ; ! ] _ | 4 0 e l x y U V R ~.|.]./.:.n.o.c.p.k.q.r.s.t.u.t.s.r.q.k.p.c.o.n.:./.].|.~.R V U y x l e 0 4 | _ ] ! ; -     ",
"    . # * > ~ ( 6 2 h c p n v u F *.W ` #.f./.g.3.6.h.d.i.j.k.l.m.l.k.j.i.d.h.6.3.g./.f.#.` W *.F u v n p c h 2 6 ( ~ > * .     ",
"    . . % ; ! ^ 5 | 4 0 e q L y C G O }.8.#.].).9.2.0.7.a.b.c.d.e.d.c.b.a.7.0.2.9.).].#.8.}.O G C y L q e 0 4 | 5 ^ ! ; % .     ",
"      . # = , { ( 6 2 7 b f m x z D H O }.` |.-.>.1._.2.3.4.5.6.7.6.5.4.3.2._.1.>.-.|.` }.O H D z x m f b 7 2 6 ( { , = .       ",
"      . . % ; ! ^ _ } 3 9 d j n t y !.H O W ~.{.$.].^./.(._.:.<.[.<.:._.(./.^.].$.{.~.W O H !.y t n j d 9 3 } _ ^ ! ; % .       ",
"        . # = > ~ / : o 4 0 i T n u y D G *.R X ` =.$.-.;.>.,.'.).'.,.>.;.-.$.=.` X R *.G D y u n T i 0 4 o : / ~ > = .         ",
"        . . % ; ) { ( 6 1 7 0 e k n t z C F V O  .X ..+.@.#.$.%.&.%.$.#.@.+...X  .O V F C z t n k e 0 7 1 6 ( { ) ; % .         ",
"          . # & ' ! ^ _ [ 2 7 0 e T n x y u U G V O R W X Y Z ` ` ` Z Y X W R O V G U u y x n T e 0 7 2 [ _ ^ ! ' & .           ",
"            . # = > ~ ^ _ [ K 7 0 i j m L v y A E M J N O P Q R S R Q P O N J M E A y v L m j i 0 7 K [ _ ^ ~ > = .             ",
"              . % = , ~ / _ [ 2 7 0 d f q n x w z u D E F G H I J I H G F E D u z w x n q f d 0 7 2 [ _ / ~ , = % .             ",
"              . . % ; , ~ / _ [ 1 4 9 b e p l n x u y z w A B C C C B A w z y u x n l p e b 9 4 1 [ _ / ~ , ; % .               ",
"                . . % ; , ~ ^ _ 6 o 3 7 0 c e p q m r s t u v w w w v u t s r m q p e c 0 7 3 o 6 _ ^ ~ , ; % .                 ",
"                  . . % ; , ~ ^ ( : } 2 4 h 0 c i f j k l m m n n n m m l k j f i c 0 h 4 2 } : ( ^ ~ , ; % .                   ",
"                    . . % = > ! { / _ 6 | 2 4 7 9 0 c d e f f f g f f f e d c 0 9 7 4 2 | 6 _ / { ! > = % .                     ",
"                      . . % = ' ) ~ ^ ( 5 6 | 1 3 4 7 8 9 0 0 a b a 0 0 9 8 7 4 3 1 | 6 5 ( ^ ~ ) ' = % .                       ",
"                        . . # & ; > ! { ^ ( _ < [ | 1 2 3 3 4 4 4 4 4 3 3 2 1 | [ < _ ( ^ { ! > ; & . .                         ",
"                            . # % = ; , ! ~ ] / ( _ : < [ [ } | | | } [ [ < : _ ( / ] ~ ! , ; = . .                             ",
"                              . . # % = ; > ! ~ { ] ^ / ( ( _ _ _ _ _ ( ( / ^ ] { ~ ! > ; = % . .                               ",
"                                  . . # % * ; ' > ) ! ~ ~ { { { { { { { ~ ~ ! ) > ' ; * % . .                                   ",
"                                      . . . - & * = ; ; > > , , , , , > > ; ; = * & - . .                                       ",
"                                            . . # # % % & * * = = = * * & % % # . .                                             ",
"                                                    . . . . . . . . . . . . .                                                   "};
