/* XPM */
static char * cyan0_xpm[] = {
"64 64 98 2",
"  	c #FF00FF",
". 	c #9898FF",
"+ 	c #9A9AFF",
"@ 	c #9999FF",
"# 	c #9797FF",
"$ 	c #9696FF",
"% 	c #9595FF",
"& 	c #9494FF",
"* 	c #9393FF",
"= 	c #9292FF",
"- 	c #9191FF",
"; 	c #9090FF",
"> 	c #8F8FFF",
", 	c #8E8EFF",
"' 	c #8D8DFF",
") 	c #8C8CFF",
"! 	c #8B8BFF",
"~ 	c #8A8AFF",
"{ 	c #8989FF",
"] 	c #8888FF",
"^ 	c #8787FF",
"/ 	c #8686FF",
"( 	c #8585FF",
"_ 	c #8484FF",
": 	c #8383FF",
"< 	c #8181FF",
"[ 	c #8080FF",
"} 	c #7F7FFF",
"| 	c #7E7EFF",
"1 	c #7D7DFF",
"2 	c #7B7BFF",
"3 	c #7A7AFF",
"4 	c #7C7CFF",
"5 	c #8282FF",
"6 	c #9B9BFF",
"7 	c #9C9CFF",
"8 	c #9E9EFF",
"9 	c #A1A1FF",
"0 	c #A2A2FF",
"a 	c #A3A3FF",
"b 	c #A4A4FF",
"c 	c #A7A7FF",
"d 	c #AAAAFF",
"e 	c #ABABFF",
"f 	c #ADADFF",
"g 	c #AEAEFF",
"h 	c #9D9DFF",
"i 	c #A5A5FF",
"j 	c #B1B1FF",
"k 	c #B3B3FF",
"l 	c #B6B6FF",
"m 	c #B8B8FF",
"n 	c #B9B9FF",
"o 	c #9F9FFF",
"p 	c #A9A9FF",
"q 	c #B7B7FF",
"r 	c #BBBBFF",
"s 	c #BFBFFF",
"t 	c #C1C1FF",
"u 	c #C4C4FF",
"v 	c #C5C5FF",
"w 	c #A6A6FF",
"x 	c #ACACFF",
"y 	c #B2B2FF",
"z 	c #BDBDFF",
"A 	c #C2C2FF",
"B 	c #C7C7FF",
"C 	c #CBCBFF",
"D 	c #CFCFFF",
"E 	c #D1D1FF",
"F 	c #D3D3FF",
"G 	c #B4B4FF",
"H 	c #C8C8FF",
"I 	c #D4D4FF",
"J 	c #DADAFF",
"K 	c #DEDEFF",
"L 	c #E1E1FF",
"M 	c #E3E3FF",
"N 	c #E4E4FF",
"O 	c #CDCDFF",
"P 	c #D5D5FF",
"Q 	c #DDDDFF",
"R 	c #EAEAFF",
"S 	c #EFEFFF",
"T 	c #F3F3FF",
"U 	c #F6F6FF",
"V 	c #F7F7FF",
"W 	c #BEBEFF",
"X 	c #D0D0FF",
"Y 	c #ECECFF",
"Z 	c #F5F5FF",
"` 	c #FDFDFF",
" .	c #FFFFFF",
"..	c #DCDCFF",
"+.	c #E7E7FF",
"@.	c #F2F2FF",
"#.	c #FEFEFF",
"$.	c #E8E8FF",
"                                                      . . . . . . . . . . .                                                     ",
"                                              . + @ @ . . # # # # # # # . . @ @ .                                               ",
"                                        . + @ . # $ % % & & & * * * & & & % % $ # . @ .                                         ",
"                                    . @ . # $ % & * = - - ; ; ; ; ; ; ; - - = * & % $ # . .                                     ",
"                                  @ . $ % & = - ; > , ' ' ) ) ) ) ) ) ) ' ' , > ; - = & % $ . .                                 ",
"                              + . $ % * = ; > , ) ! ~ { { ] ] ] ^ ] ] ] { { ~ ! ) , > ; = * % $ .                               ",
"                            @ # % * = ; , ' ! ~ ] ^ / ( _ _ : : : : : _ _ ( / ^ ] ~ ! ' , ; = * % # .                           ",
"                        + . $ & = ; , ) ! { ^ ( _ : < [ } } | | | | | } } [ < : _ ( ^ { ! ) , ; = & $ .                         ",
"                      + . $ * - > ' ! { ^ ( : < } | 1 2 3 3 2 2 2 2 2 3 3 2 1 | } < : ( ^ { ! ' > - * $ .                       ",
"                    + # % * ; , ) { ^ ( : [ | 4 3 2 1 | } [ [ < < < [ [ } | 1 2 3 4 | [ : ( ^ { ) , ; * % #                     ",
"                  + # % = ; ' ! ] / : < | 4 2 1 } [ 5 : _ ( / / ^ / / ( _ : 5 [ } 1 2 4 | < : / ] ! ' ; = % #                   ",
"                + # % = ; ' ~ ] ( 5 } 4 3 1 } 5 _ / ] { ! ) ) ' ' ' ) ) ! { ] / _ 5 } 1 3 4 } 5 ( ] ~ ' ; = % #                 ",
"              + . % = ; ' ~ ^ _ < | 2 4 } 5 _ ^ { ) , ; - = * & & & * = - ; , ) { ^ _ 5 } 4 2 | < _ ^ ~ ' ; = % .               ",
"            . . $ * ; ' ~ ^ _ [ 1 3 1 < _ ^ ~ ' ; = % # . + 6 7 7 7 6 + . # % = ; ' ~ ^ _ < 1 3 1 [ _ ^ ~ ' ; * $ .             ",
"          . @ $ * ; ' ~ ^ _ [ 1 2 | 5 ( { ) ; * $ @ 7 8 9 0 a b b b a 0 9 8 7 @ $ * ; ) { ( 5 | 2 1 [ _ ^ ~ ' ; * $ .           ",
"          + # & - , ! ] _ [ 1 2 } : / ~ , = $ + 8 9 b c d e f g g g f e d c b 9 8 + $ = , ~ / : } 2 1 [ _ ] ! , - & #           ",
"        . . % = > ) ] ( < 1 2 } : ^ ! ; & . h 9 i d f j k l m n n n m l k j f d i 9 h . & ; ! ^ : } 2 1 < ( ] ) > = % .         ",
"        @ $ * ; ' { / 5 | 3 | : ^ ) ; % + o b p g k q r s t u v v v u t s r q k g p b o + % ; ) ^ : | 3 | 5 / { ' ; * $         ",
"      . . % = , ! ^ : } 2 1 5 / ! ; $ 6 9 w x y m z A B C D E F F F E D C B A z m y x w 9 6 $ ; ! / 5 1 2 } : ^ ! , = % .       ",
"      @ $ * ; ) { ( < 4 4 < ( ~ ; % 6 9 c g G r A H D I J K L M N M L K J I D H A r G g c 9 6 % ; ~ ( < 4 4 < ( { ) ; * $       ",
"      . % = , ! ^ : | 3 } _ { , & + 9 c g l z v O P Q N R S T U V U T S R N Q P O v z l g c 9 + & , { _ } 3 | : ^ ! , = % .     ",
"    + # & ; ' { ( [ 4 1 5 ^ ) = . o w g l W B X J M Y Z `  . . . . . . .` Z Y M J X B W l g w o . = ) ^ 5 1 4 [ ( { ' ; & #     ",
"    @ $ = > ! ^ : | 2 } _ ~ ; $ h b x G z B E ..+.@.#. . . . . . . . . . . .#.@.+...E B z G x b h $ ; ~ _ } 2 | : ^ ! > = $     ",
"  . . % - , ~ ( < 4 1 5 ^ ' * + 9 p y r v X ..$.U  . . . . . . . . . . . . . . .U $...X v r y p 9 + * ' ^ 5 1 4 < ( ~ , - % .   ",
"  + # & ; ) ] _ } 3 } _ { ; $ 8 i g m A O J +.U  . . . . . . . . . . . . . . . . .U +.J O A m g i 8 $ ; { _ } 3 } _ ] ) ; & #   ",
"  @ $ * > ! ^ : | 2 [ / ) = @ 9 d k z H P M @. . . . . . . . . . . . . . . . . . . .@.M P H z k d 9 @ = ) / [ 2 | : ^ ! > * $   ",
"  @ % = , ~ / < 1 1 5 ] , % 7 b f q A D Q Y #. . . . . . . . . . . . . . . . . . . .#.Y Q D A q f b 7 % , ] 5 1 1 < / ~ , = % . ",
"  . % - ' { ( [ 2 | : { ; # 8 c j r B I N Z  . . . . . . . . . . . . . . . . . . . . .Z N I B r j c 8 # ; { : | 2 [ ( { ' - % . ",
". . & - ' { _ } 3 } _ ! - . 9 d k s C J R `  . . . . . . . . . . . . . . . . . . . . .` R J C s k d 9 . - ! _ } 3 } _ { ' - & . ",
". # & ; ) ] _ } 3 [ ( ) = + 0 e l t D K S  . . . . . . . . . . . . . . . . . . . . . . .S K D t l e 0 + = ) ( [ 3 } _ ] ) ; & . ",
". # & ; ) ] : | 2 [ / ) * 6 a f m u E L T  . . . . . . . . . . . . . . . . . . . . . . .T L E u m f a 6 * ) / [ 2 | : ] ) ; & . ",
". # * ; ) ] : | 2 < / ' & 7 b g n v F M U  . . . . . . . . . . . . . . . . . . . . . . .U M F v n g b 7 & ' / < 2 | : ] ) ; * . ",
". # * ; ) ^ : | 2 < ^ ' & 7 b g n v F N V  . . . . . . . . . . . . . . . . . . . . . . .V N F v n g b 7 & ' ^ < 2 | : ^ ) ; * . ",
". # * ; ) ] : | 2 < / ' & 7 b g n v F M U  . . . . . . . . . . . . . . . . . . . . . . .U M F v n g b 7 & ' / < 2 | : ] ) ; * . ",
". # & ; ) ] : | 2 [ / ) * 6 a f m u E L T  . . . . . . . . . . . . . . . . . . . . . . .T L E u m f a 6 * ) / [ 2 | : ] ) ; & . ",
". # & ; ) ] _ } 3 [ ( ) = + 0 e l t D K S  . . . . . . . . . . . . . . . . . . . . . . .S K D t l e 0 + = ) ( [ 3 } _ ] ) ; & . ",
". . & - ' { _ } 3 } _ ! - . 9 d k s C J R `  . . . . . . . . . . . . . . . . . . . . .` R J C s k d 9 . - ! _ } 3 } _ { ' - & . ",
". . % - ' { ( [ 2 | : { ; # 8 c j r B I N Z  . . . . . . . . . . . . . . . . . . . . .Z N I B r j c 8 # ; { : | 2 [ ( { ' - %   ",
"  @ % = , ~ / < 1 1 5 ] , % 7 b f q A D Q Y #. . . . . . . . . . . . . . . . . . . .#.Y Q D A q f b 7 % , ] 5 1 1 < / ~ , = %   ",
"  @ $ * > ! ^ : | 2 [ / ) = @ 9 d k z H P M @. . . . . . . . . . . . . . . . . . . .@.M P H z k d 9 @ = ) / [ 2 | : ^ ! > * $   ",
"  . # & ; ) ] _ } 3 } _ { ; $ 8 i g m A O J +.U  . . . . . . . . . . . . . . . . .U +.J O A m g i 8 $ ; { _ } 3 } _ ] ) ; & .   ",
"  . . % - , ~ ( < 4 1 5 ^ ' * + 9 p y r v X ..$.U  . . . . . . . . . . . . . . .U $...X v r y p 9 + * ' ^ 5 1 4 < ( ~ , - %     ",
"    @ $ = > ! ^ : | 2 } _ ~ ; $ h b x G z B E ..+.@.#. . . . . . . . . . . .#.@.+...E B z G x b h $ ; ~ _ } 2 | : ^ ! > = $     ",
"    . # & ; ' { ( [ 4 1 5 ^ ) = . o w g l W B X J M Y Z `  . . . . . . .` Z Y M J X B W l g w o . = ) ^ 5 1 4 [ ( { ' ; & .     ",
"      . % = , ! ^ : | 3 } _ { , & + 9 c g l z v O P Q N R S T U V U T S R N Q P O v z l g c 9 + & , { _ } 3 | : ^ ! , = %       ",
"      . $ * ; ) { ( < 4 4 < ( ~ ; % 6 9 c g G r A H D I J K L M N M L K J I D H A r G g c 9 6 % ; ~ ( < 4 4 < ( { ) ; * .       ",
"        . % = , ! ^ : } 2 1 5 / ! ; $ 6 9 w x y m z A B C D E F F F E D C B A z m y x w 9 6 $ ; ! / 5 1 2 } : ^ ! , = %         ",
"        . $ * ; ' { / 5 | 3 | : ^ ) ; % + o b p g k q r s t u v v v u t s r q k g p b o + % ; ) ^ : | 3 | 5 / { ' ; * .         ",
"          . % = > ) ] ( < 1 2 } : ^ ! ; & . h 9 i d f j k l m n n n m l k j f d i 9 h . & ; ! ^ : } 2 1 < ( ] ) > = %           ",
"          . # & - , ! ] _ [ 1 2 } : / ~ , = $ + 8 9 b c d e f g g g f e d c b 9 8 + $ = , ~ / : } 2 1 [ _ ] ! , - & .           ",
"            . $ * ; ' ~ ^ _ [ 1 2 | 5 ( { ) ; * $ @ 7 8 9 0 a b b b a 0 9 8 7 @ $ * ; ) { ( 5 | 2 1 [ _ ^ ~ ' ; * .             ",
"              . $ * ; ' ~ ^ _ [ 1 3 1 < _ ^ ~ ' ; = % # . + 6 7 7 7 6 + . # % = ; ' ~ ^ _ < 1 3 1 [ _ ^ ~ ' ; * $               ",
"              . . % = ; ' ~ ^ _ < | 2 4 } 5 _ ^ { ) , ; - = * & & & * = - ; , ) { ^ _ 5 } 4 2 | < _ ^ ~ ' ; = %                 ",
"                . # % = ; ' ~ ] ( 5 } 4 3 1 } 5 _ / ] { ! ) ) ' ' ' ) ) ! { ] / _ 5 } 1 3 4 } 5 ( ] ~ ' ; = %                   ",
"                  . # % = ; ' ! ] / : < | 4 2 1 } [ 5 : _ ( / / ^ / / ( _ : 5 [ } 1 2 4 | < : / ] ! ' ; = %                     ",
"                    . # % * ; , ) { ^ ( : [ | 4 3 2 1 | } [ [ < < < [ [ } | 1 2 3 4 | [ : ( ^ { ) , ; * %                       ",
"                      . . $ * - > ' ! { ^ ( : < } | 1 2 3 3 2 2 2 2 2 3 3 2 1 | } < : ( ^ { ! ' > - * $                         ",
"                          . $ & = ; , ) ! { ^ ( _ : < [ } } | | | | | } } [ < : _ ( ^ { ! ) , ; = & .                           ",
"                            . # % * = ; , ' ! ~ ] ^ / ( _ _ : : : : : _ _ ( / ^ ] ~ ! ' , ; = * % .                             ",
"                                . $ % * = ; > , ) ! ~ { { ] ] ] ^ ] ] ] { { ~ ! ) , > ; = * % .                                 ",
"                                  . . $ % & = - ; > , ' ' ) ) ) ) ) ) ) ' ' , > ; - = & % .                                     ",
"                                        . # $ % & * = - - ; ; ; ; ; ; ; - - = * & % $ .                                         ",
"                                              . # $ % % & & & * * * & & & % % $ . .                                             ",
"                                                      . . . . . . . . . . .                                                     "};
