/* XPM */
static char * blue7_xpm[] = {
"64 64 211 2",
"  	c #FF00FF",
". 	c #F769FF",
"+ 	c #E9A0FF",
"@ 	c #DDB9FF",
"# 	c #D1C7FF",
"$ 	c #C6CDFF",
"% 	c #BECFFF",
"& 	c #B8D0FF",
"* 	c #B5D0FF",
"= 	c #D1C6FF",
"- 	c #EF8FFF",
"; 	c #DABCFF",
"> 	c #C5CDFF",
", 	c #B4CFFF",
"' 	c #B3CFFF",
") 	c #B3CEFF",
"! 	c #B2CEFF",
"~ 	c #C4CDFF",
"{ 	c #F95CFF",
"] 	c #E1B2FF",
"^ 	c #B1CDFF",
"/ 	c #B0CDFF",
"( 	c #B0CCFF",
"_ 	c #AFCCFF",
": 	c #F863FF",
"< 	c #BCD0FF",
"[ 	c #AECBFF",
"} 	c #ADCBFF",
"| 	c #ADCAFF",
"1 	c #BBCFFF",
"2 	c #DCB9FF",
"3 	c #E3AFFF",
"4 	c #C0CEFF",
"5 	c #ACCAFF",
"6 	c #ABCAFF",
"7 	c #ABC9FF",
"8 	c #AAC9FF",
"9 	c #BFCEFF",
"0 	c #E2AFFF",
"a 	c #F08BFF",
"b 	c #CFC8FF",
"c 	c #A9C8FF",
"d 	c #A8C7FF",
"e 	c #A7C7FF",
"f 	c #A6C7FF",
"g 	c #CEC8FF",
"h 	c #E4ACFF",
"i 	c #A8C8FF",
"j 	c #A6C6FF",
"k 	c #A5C6FF",
"l 	c #A5C5FF",
"m 	c #A4C5FF",
"n 	c #A3C5FF",
"o 	c #A3C4FF",
"p 	c #BDCFFF",
"q 	c #FC44FF",
"r 	c #DBBBFF",
"s 	c #AECCFF",
"t 	c #A2C4FF",
"u 	c #A1C3FF",
"v 	c #A0C2FF",
"w 	c #9FC2FF",
"x 	c #FC45FF",
"y 	c #F865FF",
"z 	c #D6C2FF",
"A 	c #A2C3FF",
"B 	c #A0C3FF",
"C 	c #9EC1FF",
"D 	c #9DC1FF",
"E 	c #9DC0FF",
"F 	c #9CC0FF",
"G 	c #9BC0FF",
"H 	c #9BBFFF",
"I 	c #D6C1FF",
"J 	c #D5C3FF",
"K 	c #9ABFFF",
"L 	c #99BEFF",
"M 	c #98BDFF",
"N 	c #97BDFF",
"O 	c #D4C3FF",
"P 	c #96BCFF",
"Q 	c #95BBFF",
"R 	c #94BBFF",
"S 	c #93BAFF",
"T 	c #92BAFF",
"U 	c #91B9FF",
"V 	c #90B8FF",
"W 	c #8FB8FF",
"X 	c #8EB7FF",
"Y 	c #8DB6FF",
"Z 	c #98BEFF",
"` 	c #92B9FF",
" .	c #8CB6FF",
"..	c #8BB5FF",
"+.	c #8AB4FF",
"@.	c #89B4FF",
"#.	c #88B3FF",
"$.	c #87B3FF",
"%.	c #9ABEFF",
"&.	c #87B2FF",
"*.	c #85B1FF",
"=.	c #84B0FF",
"-.	c #83B0FF",
";.	c #82AFFF",
">.	c #81AFFF",
",.	c #BCCEFF",
"'.	c #90B9FF",
").	c #86B2FF",
"!.	c #7FADFF",
"~.	c #7DACFF",
"{.	c #7CABFF",
"].	c #7BABFF",
"^.	c #7AAAFF",
"/.	c #CEC7FF",
"(.	c #80AEFF",
"_.	c #7CADFF",
":.	c #7EAFFF",
"<.	c #7FB1FF",
"[.	c #80B3FF",
"}.	c #81B4FF",
"|.	c #95BCFF",
"1.	c #8FB7FF",
"2.	c #83B7FF",
"3.	c #85BAFF",
"4.	c #87BCFF",
"5.	c #88BEFF",
"6.	c #89BFFF",
"7.	c #8AB5FF",
"8.	c #7EADFF",
"9.	c #7DAFFF",
"0.	c #85B9FF",
"a.	c #88BDFF",
"b.	c #8BC2FF",
"c.	c #8DC5FF",
"d.	c #8FC8FF",
"e.	c #91CAFF",
"f.	c #92CCFF",
"g.	c #7BACFF",
"h.	c #7FB2FF",
"i.	c #84B8FF",
"j.	c #8CC3FF",
"k.	c #90C9FF",
"l.	c #94CEFF",
"m.	c #97D2FF",
"n.	c #99D6FF",
"o.	c #9BD8FF",
"p.	c #9CDAFF",
"q.	c #9DDBFF",
"r.	c #BACEFF",
"s.	c #86BBFF",
"t.	c #90C8FF",
"u.	c #95CFFF",
"v.	c #9DDCFF",
"w.	c #A1E1FF",
"x.	c #A4E5FF",
"y.	c #A7E9FF",
"z.	c #A8EBFF",
"A.	c #A9EBFF",
"B.	c #E0B2FF",
"C.	c #8CC4FF",
"D.	c #98D4FF",
"E.	c #9EDCFF",
"F.	c #A3E4FF",
"G.	c #ADF2FF",
"H.	c #B1F7FF",
"I.	c #B4FBFF",
"J.	c #B6FEFF",
"K.	c #B7FFFF",
"L.	c #C4CCFF",
"M.	c #9AD7FF",
"N.	c #AFF4FF",
"O.	c #B5FDFF",
"P.	c #BBFFFF",
"Q.	c #C0FFFF",
"R.	c #C4FFFF",
"S.	c #C6FFFF",
"T.	c #C7FFFF",
"U.	c #A3E3FF",
"V.	c #ABEFFF",
"W.	c #BCFFFF",
"X.	c #CCFFFF",
"Y.	c #D2FFFF",
"Z.	c #D7FFFF",
"`.	c #DAFFFF",
" +	c #DBFFFF",
".+	c #D9BCFF",
"++	c #ACF0FF",
"@+	c #CBFFFF",
"#+	c #D5FFFF",
"$+	c #DFFFFF",
"%+	c #E7FFFF",
"&+	c #EEFFFF",
"*+	c #F2FFFF",
"=+	c #F3FFFF",
"-+	c #C3CCFF",
";+	c #C2FFFF",
">+	c #CEFFFF",
",+	c #E8FFFF",
"'+	c #F5FFFF",
")+	c #FFFFFF",
"!+	c #DDFFFF",
"~+	c #CFC6FF",
"{+	c #C5CCFF",
"]+	c #B6CEFF",
"^+	c #BECDFF",
"/+	c #CDC7FF",
"(+	c #BBCEFF",
"_+	c #E3ACFF",
":+	c #DABBFF",
"<+	c #D5C1FF",
"[+	c #D3C3FF",
"                                                . + @ # $ % & * * & % $ = @ + .                                                 ",
"                                          - ; > , , ' ) ! ! ! ! ! ! ! ! ! ) ' , ~ ; -                                           ",
"                                    { ] $ , ' ) ! ^ ^ / / ( _ _ _ _ _ ( / / ^ ^ ! ) ' > ] {                                     ",
"                                : @ < , ) ! ^ / _ _ [ [ } } } | | | } } } [ [ _ _ / ^ ! ) 1 2 :                                 ",
"                              3 4 , ) ! / _ _ [ } 5 6 7 8 8 8 8 8 8 8 8 8 7 6 5 } [ _ _ / ! ) 9 0                               ",
"                          a b , ) ! / _ [ } 5 7 8 c c d e e e f f f e e e d c c 8 7 5 } [ _ / ! ) g a                           ",
"                        h % ' ! ^ _ [ } 6 8 c i e j k l m m n o o o n m m l k j e i c 8 6 } [ _ ^ ! p h                         ",
"                    q r , ) ^ / s } 5 8 c e j k m o t u u v v w w w v v u u t o m k j e c 8 5 } s / ^ ) r x                     ",
"                  y z , ! ^ _ [ 5 8 c e j m o A B w C D E F F G H G F F E D C w B A o m j e c 8 5 [ _ ^ ! I y                   ",
"                y J , ! ^ _ } 6 8 d j m o u v C E F K L L M N N N N N M L L K F E C v u o m j d 8 6 } _ ^ ! O y                 ",
"              q z , ! / _ } 7 c e k n u v C F K L N P Q R S S T T T S S R Q P N L K F C v u n k e c 7 } _ / ! I x               ",
"              r , ! / s | 7 c f m t B C F K M P Q S U V W X X Y Y Y X X W V U S Q P M K F C B t m f c 7 | s / ! r               ",
"            h , ! ^ _ | 8 i j m A w D H Z P R ` V X  ...+.@.#.#.$.#.#.@.+... .X V ` R P Z H D w A m j i 8 | _ ^ ! h             ",
"          a % ) ^ _ } 7 i j m u w F %.N Q T V Y ..@.&.*.=.-.;.>.>.>.;.-.=.*.&.@...Y V T Q N %.F w u m j i 7 } _ ^ ,.a           ",
"          b ' ^ _ } 7 c j m u C F L P S '.X ..#.).-.>.!.~.{.].^.^.^.].{.~.!.>.-.).#...X '.S P L F C u m j c 7 } _ ^ /.          ",
"        3 , ! / [ 6 c f m u C F L P T W  .@.).-.(.~.^._.:.<.[.}.}.}.[.<.:._.^.~.(.-.).@. .W T P L F C u m f c 6 [ / ! 0         ",
"      : 4 ) ^ s 5 8 e m A w F L |.` 1...$.=.(.~.].:.[.2.3.4.5.6.6.6.5.4.3.2.[.:.].~.(.=.$...1.` |.L F w A m e 8 5 s ^ 9 :       ",
"      @ , ! _ } 8 d k t w F L P ` X 7.&.-.8.^.9.}.0.a.b.c.d.e.f.f.f.e.d.c.b.a.0.}.9.^.8.-.&.7.X ` P L F w t k d 8 } _ ! 2       ",
"    { < ) / [ 5 c j n B D %.P T 1.7.).;.~.g.h.i.5.j.k.l.m.n.o.p.q.p.o.n.m.l.k.j.5.i.h.g.~.;.).7.1.T P %.D B n j c 5 [ / r.{     ",
"    ] , ! _ } 8 e m u C H N S W ..&.;.~._.}.s.b.t.u.n.v.w.x.y.z.A.z.y.x.w.v.n.u.t.b.s.}._.~.;.&...W S N H C u m e 8 } _ ! B.    ",
"    $ ) / [ 6 c j o v F Z Q '. .$.-.~._.}.4.C.f.D.E.F.A.G.H.I.J.K.J.I.H.G.A.F.E.D.f.C.4.}._.~.-.$. .'.Q Z F v o j c 6 [ / L.    ",
"  - , ! _ } 8 e m u C K P T X @.=.8.g.}.4.c.l.M.w.z.N.O.P.Q.R.S.T.S.R.Q.P.O.N.z.w.M.l.c.4.}.g.8.=.@.X T P K C u m e 8 } _ ! -   ",
"  ; ' ^ _ 5 c j o v F M R V ..).(.^.h.s.C.l.o.U.V.I.W.R.X.Y.Z.`. +`.Z.Y.X.R.W.I.V.U.o.l.C.s.h.^.(.)...V R M F v o j c 5 _ ^ .+  ",
"  > ) / [ 7 i k A C K P ` Y #.-.~.9.i.b.f.M.U.++J.Q.@+#+$+%+&+*+=+*+&+%+$+#+@+Q.J.++U.M.f.b.i.9.~.-.#.Y ` P K C A k i 7 [ / -+  ",
". , ! _ } 8 e m B E L Q V ..).(.].}.5.t.D.w.V.J.;+>+ +,+'+)+)+)+)+)+)+)+'+,+ +>+;+J.V.w.D.t.5.}.].(.)...V Q L E B m e 8 } _ ! . ",
"+ , ^ _ 5 c j o w F N S X @.-.~.:.0.j.u.E.z.I.Q.>+!+&+)+)+)+)+)+)+)+)+)+)+)+&+!+>+Q.I.z.E.u.j.0.:.~.-.@.X S N F w o j c 5 _ ^ + ",
"@ ' ^ [ 6 c k t C K P U  .&.>.^.[.a.k.n.F.N.W.@+ +&+)+)+)+)+)+)+)+)+)+)+)+)+)+&+ +@+W.N.F.n.k.a.[.^.>.&. .U P K C t k c 6 [ ^ 2 ",
"# ) / [ 7 d l u D L Q V ..*.!._.2.b.l.v.A.O.R.#+,+)+)+)+)+)+)+)+)+)+)+)+)+)+)+)+,+#+R.O.A.v.l.b.2._.!.*...V Q L D u l d 7 [ / ~+",
"$ ! / } 8 e m u E L R W +.=.~.:.3.c.m.w.G.P.X.$+'+)+)+)+)+)+)+)+)+)+)+)+)+)+)+)+'+$+X.P.G.w.m.c.3.:.~.=.+.W R L E u m e 8 } / {+",
"% ! ( } 8 e m v F M S X @.-.{.<.4.d.n.x.H.Q.Y.%+)+)+)+)+)+)+)+)+)+)+)+)+)+)+)+)+)+%+Y.Q.H.x.n.d.4.<.{.-.@.X S M F v m e 8 } ( ,.",
"& ! _ } 8 e n v F N S X #.;.].[.5.e.o.y.I.R.Z.&+)+)+)+)+)+)+)+)+)+)+)+)+)+)+)+)+)+&+Z.R.I.y.o.e.5.[.].;.#.X S N F v n e 8 } _ ]+",
"* ! _ | 8 f o w G N T Y #.>.^.}.6.f.p.z.J.S.`.*+)+)+)+)+)+)+)+)+)+)+)+)+)+)+)+)+)+*+`.S.J.z.p.f.6.}.^.>.#.Y T N G w o f 8 | _ ! ",
"* ! _ | 8 f o w H N T Y $.>.^.}.6.f.q.A.K.T. +=+)+)+)+)+)+)+)+)+)+)+)+)+)+)+)+)+)+=+ +T.K.A.q.f.6.}.^.>.$.Y T N H w o f 8 | _ ! ",
"& ! _ | 8 f o w G N T Y #.>.^.}.6.f.p.z.J.S.`.*+)+)+)+)+)+)+)+)+)+)+)+)+)+)+)+)+)+*+`.S.J.z.p.f.6.}.^.>.#.Y T N G w o f 8 | _ ]+",
"% ! _ } 8 e n v F N S X #.;.].[.5.e.o.y.I.R.Z.&+)+)+)+)+)+)+)+)+)+)+)+)+)+)+)+)+)+&+Z.R.I.y.o.e.5.[.].;.#.X S N F v n e 8 } _ ,.",
"$ ! ( } 8 e m v F M S X @.-.{.<.4.d.n.x.H.Q.Y.%+)+)+)+)+)+)+)+)+)+)+)+)+)+)+)+)+)+%+Y.Q.H.x.n.d.4.<.{.-.@.X S M F v m e 8 } ( L.",
"= ! / } 8 e m u E L R W +.=.~.:.3.c.m.w.G.P.X.$+'+)+)+)+)+)+)+)+)+)+)+)+)+)+)+)+'+$+X.P.G.w.m.c.3.:.~.=.+.W R L E u m e 8 } / ~+",
"@ ) / [ 7 d l u D L Q V ..*.!._.2.b.l.v.A.O.R.#+,+)+)+)+)+)+)+)+)+)+)+)+)+)+)+)+,+#+R.O.A.v.l.b.2._.!.*...V Q L D u l d 7 [ / 2 ",
"+ ' ^ [ 6 c k t C K P U  .&.>.^.[.a.k.n.F.N.W.@+ +&+)+)+)+)+)+)+)+)+)+)+)+)+)+&+ +@+W.N.F.n.k.a.[.^.>.&. .U P K C t k c 6 [ ^ + ",
". , ^ _ 5 c j o w F N S X @.-.~.:.0.j.u.E.z.I.Q.>+!+&+)+)+)+)+)+)+)+)+)+)+)+&+!+>+Q.I.z.E.u.j.0.:.~.-.@.X S N F w o j c 5 _ ^ . ",
"  ~ ! _ } 8 e m B E L Q V ..).(.].}.5.t.D.w.V.J.;+>+ +,+'+)+)+)+)+)+)+)+'+,+ +>+;+J.V.w.D.t.5.}.].(.)...V Q L E B m e 8 } _ -+  ",
"  ; ) / [ 7 i k A C K P ` Y #.-.~.9.i.b.f.M.U.++J.Q.@+#+$+%+&+*+=+*+&+%+$+#+@+Q.J.++U.M.f.b.i.9.~.-.#.Y ` P K C A k i 7 [ / .+  ",
"  - ' ^ _ 5 c j o v F M R V ..).(.^.h.s.C.l.o.U.V.I.W.R.X.Y.Z.`. +`.Z.Y.X.R.W.I.V.U.o.l.C.s.h.^.(.)...V R M F v o j c 5 _ ^ -   ",
"    > ! _ } 8 e m u C K P T X @.=.8.g.}.4.c.l.M.w.z.N.O.P.Q.R.S.T.S.R.Q.P.O.N.z.w.M.l.c.4.}.g.8.=.@.X T P K C u m e 8 } _ L.    ",
"    ] ) / [ 6 c j o v F Z Q '. .$.-.~._.}.4.C.f.D.E.F.A.G.H.I.J.K.J.I.H.G.A.F.E.D.f.C.4.}._.~.-.$. .'.Q Z F v o j c 6 [ / B.    ",
"    { 1 ! _ } 8 e m u C H N S W ..&.;.~._.}.s.b.t.u.n.v.w.x.y.z.A.z.y.x.w.v.n.u.t.b.s.}._.~.;.&...W S N H C u m e 8 } _ r.{     ",
"      2 ) / [ 5 c j n B D %.P T 1.7.).;.~.g.h.i.5.j.k.l.m.n.o.p.q.p.o.n.m.l.k.j.5.i.h.g.~.;.).7.1.T P %.D B n j c 5 [ / 2       ",
"      : 9 ! _ } 8 d k t w F L P ` X 7.&.-.8.^.9.}.0.a.b.c.d.e.f.f.f.e.d.c.b.a.0.}.9.^.8.-.&.7.X ` P L F w t k d 8 } _ ^+:       ",
"        0 ) ^ s 5 8 e m A w F L |.` 1...$.=.(.~.].:.[.2.3.4.5.6.6.6.5.4.3.2.[.:.].~.(.=.$...1.` |.L F w A m e 8 5 s ^ 0         ",
"          g ! / [ 6 c f m u C F L P T W  .@.).-.(.~.^._.:.<.[.}.}.}.[.<.:._.^.~.(.-.).@. .W T P L F C u m f c 6 [ / /+          ",
"          a p ^ _ } 7 c j m u C F L P S '.X ..#.).-.>.!.~.{.].^.^.^.].{.~.!.>.-.).#...X '.S P L F C u m j c 7 } _ (+a           ",
"            h ) ^ _ } 7 i j m u w F %.N Q T V Y ..@.&.*.=.-.;.>.>.>.;.-.=.*.&.@...Y V T Q N %.F w u m j i 7 } _ ^ _+            ",
"              r ! ^ _ | 8 i j m A w D H Z P R ` V X  ...+.@.#.#.$.#.#.@.+... .X V ` R P Z H D w A m j i 8 | _ ^ :+              ",
"              x I ! / s | 7 c f m t B C F K M P Q S U V W X X Y Y Y X X W V U S Q P M K F C B t m f c 7 | s / <+x               ",
"                y O ! / _ } 7 c e k n u v C F K L N P Q R S S T T T S S R Q P N L K F C v u n k e c 7 } _ / [+y                 ",
"                  y I ! ^ _ } 6 8 d j m o u v C E F K L L M N N N N N M L L K F E C v u o m j d 8 6 } _ ^ <+y                   ",
"                    x r ! ^ _ [ 5 8 c e j m o A B w C D E F F G H G F F E D C w B A o m j e c 8 5 [ _ ^ :+x                     ",
"                        h ,.^ / s } 5 8 c e j k m o t u u v v w w w v v u u t o m k j e c 8 5 } s / (+_+                        ",
"                          a /.! ^ _ [ } 6 8 c i e j k l m m n o o o n m m l k j e i c 8 6 } [ _ ^ /+a                           ",
"                              0 9 ! / _ [ } 5 7 8 c c d e e e f f f e e e d c c 8 7 5 } [ _ / ^+0                               ",
"                                : 2 r.! / _ _ [ } 5 6 7 8 8 8 8 8 8 8 8 8 7 6 5 } [ _ _ / r.2 :                                 ",
"                                    { B.L.! ^ / _ _ [ [ } } } | | | } } } [ [ _ _ / ^ L.B.{                                     ",
"                                          - .+-+! ^ ^ / / ( _ _ _ _ _ ( / / ^ ^ -+.+-                                           ",
"                                                . + 2 ~+{+,.]+! ! ]+,.L.~+2 + .                                                 "};
