/* XPM */
static char * yellow0_xpm[] = {
"64 64 143 2",
"  	c #FF00FF",
". 	c #EB86F1",
"+ 	c #D9C2DB",
"@ 	c #DEDBC8",
"# 	c #EEE3B5",
"$ 	c #F3D9A1",
"% 	c #F8D48D",
"& 	c #FCD07B",
"* 	c #FFCF6F",
"= 	c #F8D38D",
"- 	c #DDB0E4",
"; 	c #E1DEC4",
"> 	c #F4D89D",
", 	c #FFCF6D",
"' 	c #FFCE6C",
") 	c #FFCE6B",
"! 	c #FFCE6A",
"~ 	c #F4D99D",
"{ 	c #DAD4CE",
"] 	c #F3DAA0",
"^ 	c #FFCD69",
"/ 	c #FFCD68",
"( 	c #FFCD67",
"_ 	c #F3D99F",
": 	c #F9D288",
"< 	c #FFCC66",
"[ 	c #FFCC65",
"} 	c #FFCC64",
"| 	c #F9D287",
"1 	c #D9D1D1",
"2 	c #F7D592",
"3 	c #FFCB63",
"4 	c #FFCB62",
"5 	c #FFCB61",
"6 	c #FFCA61",
"7 	c #F6D592",
"8 	c #EEE1B1",
"9 	c #FFCA60",
"0 	c #FFCA5F",
"a 	c #FFCA5E",
"b 	c #FFC95D",
"c 	c #FFC95C",
"d 	c #EEE2B1",
"e 	c #D9CFD3",
"f 	c #F8D38C",
"g 	c #FFC95B",
"h 	c #FFC85A",
"i 	c #FFC859",
"j 	c #F8D38B",
"k 	c #D8CED3",
"l 	c #E0DDC6",
"m 	c #FFC757",
"n 	c #FFC756",
"o 	c #FFC755",
"p 	c #FFC654",
"q 	c #E0DCC6",
"r 	c #E9E3BE",
"s 	c #FFC653",
"t 	c #FFC551",
"u 	c #E8E3BE",
"v 	c #EBE4BB",
"w 	c #FFC652",
"x 	c #ECE4BB",
"y 	c #FFC758",
"z 	c #DFACE5",
"A 	c #FFCF6E",
"B 	c #F8D28A",
"C 	c #FFD071",
"D 	c #FFD173",
"E 	c #FFD174",
"F 	c #FFD175",
"G 	c #FFD276",
"H 	c #EEE0B1",
"I 	c #FFD279",
"J 	c #FFD37B",
"K 	c #FFD47C",
"L 	c #FFD47E",
"M 	c #FFD47F",
"N 	c #FFCF70",
"O 	c #FFD277",
"P 	c #FFD581",
"Q 	c #FFD683",
"R 	c #FFD786",
"S 	c #FFD788",
"T 	c #FFD889",
"U 	c #F6D591",
"V 	c #FFD37A",
"W 	c #FFD787",
"X 	c #FFD88A",
"Y 	c #FFDA8E",
"Z 	c #FFDA90",
"` 	c #FFDB92",
" .	c #FFDB93",
"..	c #DEDAC8",
"+.	c #FFD278",
"@.	c #FFD47D",
"#.	c #FFD682",
"$.	c #FFD98C",
"%.	c #FFDA91",
"&.	c #FFDC95",
"*.	c #FFDD99",
"=.	c #FFDE9C",
"-.	c #FFDF9E",
";.	c #FFDFA0",
">.	c #F9D187",
",.	c #FFD684",
"'.	c #FFDC96",
").	c #FFE0A1",
"!.	c #FFE1A6",
"~.	c #FFE3AA",
"{.	c #FFE4AC",
"].	c #FFE4AE",
"^.	c #FFE4AF",
"/.	c #FFDE9A",
"(.	c #FFE0A2",
"_.	c #FFE2A9",
":.	c #FFE6B4",
"<.	c #FFE8B9",
"[.	c #FFE9BC",
"}.	c #FFEABF",
"|.	c #FFEAC0",
"1.	c #FFD98D",
"2.	c #FFDF9D",
"3.	c #FFE7B6",
"4.	c #FFE9BE",
"5.	c #FFECC5",
"6.	c #E3E3E3",
"7.	c #FFE2A8",
"8.	c #FFE5B2",
"9.	c #FFE9BB",
"0.	c #FFECC6",
"a.	c #E2DEC4",
"b.	c #FFE6B2",
"c.	c #F3D79C",
"d.	c #EDE1B4",
"e.	c #F2D8A0",
"f.	c #F8D28B",
"g.	c #FCCF79",
"h.	c #EDE2B4",
"i.	c #E2DDC4",
"j.	c #F3D89E",
"k.	c #F9D186",
"l.	c #F6D391",
"                                                . + @ # $ % & * * & = $ # @ + .                                                 ",
"                                          - ; > , ' ' ) ) ! ! ! ! ! ! ! ) ) ' ' ~ ; -                                           ",
"                                      { ] , ' ) ! ^ ^ ^ / / / ( ( ( / / / ^ ^ ^ ! ) ' _ {                                       ",
"                                  @ : ' ) ! ^ ^ / ( < [ [ } } } } } } } [ [ < ( / ^ ^ ! ) | @                                   ",
"                              1 2 ' ) ^ ^ / < [ } 3 4 5 5 6 6 6 6 6 6 6 5 5 4 3 } [ < / ^ ^ ) 7 1                               ",
"                            8 , ) ^ ^ ( < } 3 4 6 9 0 a a b b b c b b b a a 0 9 6 4 3 } < ( ^ ^ ) d                             ",
"                        e f ' ! ^ ( < } 4 5 9 0 b c g h i i i i i i i i i h g c b 0 9 5 4 } < ( ^ ! j k                         ",
"                      l , ) ^ / < } 4 6 9 a c h i i m n o o p p p p p o o n m i i h c a 9 6 4 } < / ^ ) q                       ",
"                    r , ) ^ ( [ 3 5 9 a c h i m o p s t t t t t t t t t t t s p o m i h c a 9 5 3 [ ( ^ ) u                     ",
"                  v , ! ^ ( } 4 6 a c h i n p w t t s p o n n m m m n n o p s t t w p n i h c a 6 4 } ( ^ ! x                   ",
"                r , ! ^ < } 5 9 b g i m p w t s o n y i i h g g c g g h i i y n o s t w p m i g b 9 5 } < ^ ! r                 ",
"              l , ! ^ < } 5 0 b h y o w t s o y i g b a 9 6 6 5 5 5 6 6 9 a b g i y o s t w o y h b 0 5 } < ^ ! q               ",
"            e , ) ^ < } 5 0 c i m p t w o y i c a 6 4 } [ < ( / / / ( < [ } 4 6 a c i y o w t p m i c 0 5 } < ^ ) k             ",
"          z f ) ^ ( } 5 0 c i n s t s m i c 0 5 } < ^ ! ) , A * * * A , ) ! ^ < } 5 0 c i m s t s n i c 0 5 } ( ^ B             ",
"          8 ' ^ ( } 5 0 c i n s t p y h a 6 } ( ^ ' * C D E F G G G F E D C * ' ^ ( } 6 a h y p t s n i c 0 5 } ( ^ H           ",
"        1 , ! / [ 4 9 b i n s t o i g 0 4 < ^ , C D G I J K L M M M L K J I G D C , ^ < 4 0 g i o t s n i b 9 4 [ / ! 1         ",
"        2 ) ^ < 3 6 b h m s t o i c 9 } / ) N D O J L P Q R S T T T S R Q P L J O D N ) / } 9 c i o t s m h b 6 3 < ^ U         ",
"      @ ' ^ ( } 5 a g y p t p i c 6 } ^ , C G V M Q W X Y Z `  . . .` Z Y X W Q M V G C , ^ } 6 c i p t p y g a 5 } ( ^ ..      ",
"      : ) ^ < 4 9 c i o t s y g 9 } ^ A D +.@.#.S $.%.&.*.=.-.;.;.;.-.=.*.&.%.$.S #.@.+.D A ^ } 9 g y s t o i c 9 4 < ^ >.      ",
"    { ' ^ ( } 6 a h m w w m h 0 } ^ A D I M ,.X %.'.=.).!.~.{.].^.].{.~.!.).=.'.%.X ,.M I D A ^ } 0 h m w w m h a 6 } ( ^ {     ",
"    ] ) ^ < 4 9 c i p t o i a 4 / , D I M R $. ./.(._.^.:.<.[.}.|.}.[.<.:.^._.(./. .$.R M I D , / 4 a i o t p i c 9 4 < ^ _     ",
"    , ! / } 5 a h n w s y c 6 < ) C +.M R 1.&.2.!.].3.4.5.6.6.6.6.6.6.6.5.4.3.].!.2.&.1.R M +.C ) < 6 c y s w n h a 5 } / ! -   ",
"  ; ' ^ < 3 9 c i p t o i 0 } ^ N G @.,.$.&.-.7.8.9.0.6.6.6.6.6.6.6.6.6.6.6.0.9.8.7.-.&.$.,.@.G N ^ } 0 i o t p i c 9 3 < ^ a.  ",
"  > ) ^ [ 4 0 h m w s y c 5 ( , D V #.X  .2.7.b.}.6.6.6.6.6.6.6.6.6.6.6.6.6.6.6.}.b.7.2. .X #.V D , ( 5 c y s w m h 0 4 [ ^ c.  ",
"  , ! / } 6 b i o t o i a } ^ C O M S %./.!.8.}.6.6.6.6.6.6.6.6.6.6.6.6.6.6.6.6.6.}.8.!./.%.S M O C ^ } a i o t o i b 6 } / !   ",
"+ ' ^ ( 3 9 c i p t n g 6 < ' D J Q $.'.(.].9.6.6.6.6.6.6.6.6.6.6.6.6.6.6.6.6.6.6.6.9.].(.'.$.Q J D ' < 6 g n t p i c 9 3 ( ^ + ",
"@ ' ^ < 4 0 g m s s y b 4 ^ * G L W %.=._.3.0.6.6.6.6.6.6.6.6.6.6.6.6.6.6.6.6.6.6.6.0.3._.=.%.W L G * ^ 4 b y s s m g 0 4 < ^ ..",
"# ) ^ [ 5 a h n t p i a } ! C I P X &.).^.4.6.6.6.6.6.6.6.6.6.6.6.6.6.6.6.6.6.6.6.6.6.4.^.).&.X P I C ! } a i p t n h a 5 [ ^ d.",
"$ ) / [ 5 a i o t o i 9 [ ) D J Q Y *.!.:.5.6.6.6.6.6.6.6.6.6.6.6.6.6.6.6.6.6.6.6.6.6.5.:.!.*.Y Q J D ) [ 9 i o t o i a 5 [ / e.",
"% ! / } 6 b i o t n h 6 < , E K R Z =.~.<.6.6.6.6.6.6.6.6.6.6.6.6.6.6.6.6.6.6.6.6.6.6.6.<.~.=.Z R K E , < 6 h n t o i b 6 } / f.",
"& ! / } 6 b i p t n g 6 ( A F L S ` -.{.[.6.6.6.6.6.6.6.6.6.6.6.6.6.6.6.6.6.6.6.6.6.6.6.[.{.-.` S L F A ( 6 g n t p i b 6 } / g.",
"* ! ( } 6 b i p t m g 5 / * G M T  .;.].}.6.6.6.6.6.6.6.6.6.6.6.6.6.6.6.6.6.6.6.6.6.6.6.}.].;. .T M G * / 5 g m t p i b 6 } ( ) ",
"* ! ( } 6 c i p t m c 5 / * G M T  .;.^.|.6.6.6.6.6.6.6.6.6.6.6.6.6.6.6.6.6.6.6.6.6.6.6.|.^.;. .T M G * / 5 c m t p i c 6 } ( ) ",
"& ! ( } 6 b i p t m g 5 / * G M T  .;.].}.6.6.6.6.6.6.6.6.6.6.6.6.6.6.6.6.6.6.6.6.6.6.6.}.].;. .T M G * / 5 g m t p i b 6 } ( g.",
"= ! / } 6 b i p t n g 6 ( A F L S ` -.{.[.6.6.6.6.6.6.6.6.6.6.6.6.6.6.6.6.6.6.6.6.6.6.6.[.{.-.` S L F A ( 6 g n t p i b 6 } / f.",
"$ ! / } 6 b i o t n h 6 < , E K R Z =.~.<.6.6.6.6.6.6.6.6.6.6.6.6.6.6.6.6.6.6.6.6.6.6.6.<.~.=.Z R K E , < 6 h n t o i b 6 } / e.",
"# ) / [ 5 a i o t o i 9 [ ) D J Q Y *.!.:.5.6.6.6.6.6.6.6.6.6.6.6.6.6.6.6.6.6.6.6.6.6.5.:.!.*.Y Q J D ) [ 9 i o t o i a 5 [ / h.",
"@ ) ^ [ 5 a h n t p i a } ! C I P X &.).^.4.6.6.6.6.6.6.6.6.6.6.6.6.6.6.6.6.6.6.6.6.6.4.^.).&.X P I C ! } a i p t n h a 5 [ ^ ..",
"+ ' ^ < 4 0 g m s s y b 4 ^ * G L W %.=._.3.0.6.6.6.6.6.6.6.6.6.6.6.6.6.6.6.6.6.6.6.0.3._.=.%.W L G * ^ 4 b y s s m g 0 4 < ^ + ",
". ' ^ ( 3 9 c i p t n g 6 < ' D J Q $.'.(.].9.6.6.6.6.6.6.6.6.6.6.6.6.6.6.6.6.6.6.6.9.].(.'.$.Q J D ' < 6 g n t p i c 9 3 ( ^   ",
"  ~ ! / } 6 b i o t o i a } ^ C O M S %./.!.8.}.6.6.6.6.6.6.6.6.6.6.6.6.6.6.6.6.6.}.8.!./.%.S M O C ^ } a i o t o i b 6 } / c.  ",
"  ; ) ^ [ 4 0 h m w s y c 5 ( , D V #.X  .2.7.b.}.6.6.6.6.6.6.6.6.6.6.6.6.6.6.6.}.b.7.2. .X #.V D , ( 5 c y s w m h 0 4 [ ^ i.  ",
"    ' ^ < 3 9 c i p t o i 0 } ^ N G @.,.$.&.-.7.8.9.0.6.6.6.6.6.6.6.6.6.6.6.0.9.8.7.-.&.$.,.@.G N ^ } 0 i o t p i c 9 3 < ^ -   ",
"    _ ! / } 5 a h n w s y c 6 < ) C +.M R 1.&.2.!.].3.4.5.6.6.6.6.6.6.6.5.4.3.].!.2.&.1.R M +.C ) < 6 c y s w n h a 5 } / j.    ",
"    { ) ^ < 4 9 c i p t o i a 4 / , D I M R $. ./.(._.^.:.<.[.}.|.}.[.<.:.^._.(./. .$.R M I D , / 4 a i o t p i c 9 4 < ^ {     ",
"      | ^ ( } 6 a h m w w m h 0 } ^ A D I M ,.X %.'.=.).!.~.{.].^.].{.~.!.).=.'.%.X ,.M I D A ^ } 0 h m w w m h a 6 } ( k.      ",
"      @ ) ^ < 4 9 c i o t s y g 9 } ^ A D +.@.#.S $.%.&.*.=.-.;.;.;.-.=.*.&.%.$.S #.@.+.D A ^ } 9 g y s t o i c 9 4 < ^ ..      ",
"        7 ^ ( } 5 a g y p t p i c 6 } ^ , C G V M Q W X Y Z `  . . .` Z Y X W Q M V G C , ^ } 6 c i p t p y g a 5 } ( l.        ",
"        1 ) ^ < 3 6 b h m s t o i c 9 } / ) N D O J L P Q R S T T T S R Q P L J O D N ) / } 9 c i o t s m h b 6 3 < ^ 1         ",
"          d ! / [ 4 9 b i n s t o i g 0 4 < ^ , C D G I J K L M M M L K J I G D C , ^ < 4 0 g i o t s n i b 9 4 [ / H           ",
"            j ^ ( } 5 0 c i n s t p y h a 6 } ( ^ ' * C D E F G G G F E D C * ' ^ ( } 6 a h y p t s n i c 0 5 } ( B             ",
"            k ) ^ ( } 5 0 c i n s t s m i c 0 5 } < ^ ! ) , A * * * A , ) ! ^ < } 5 0 c i m s t s n i c 0 5 } ( ^ k             ",
"              q ) ^ < } 5 0 c i m p t w o y i c a 6 4 } [ < ( / / / ( < [ } 4 6 a c i y o w t p m i c 0 5 } < ^ q               ",
"                u ! ^ < } 5 0 b h y o w t s o y i g b a 9 6 6 5 5 5 6 6 9 a b g i y o s t w o y h b 0 5 } < ^ r                 ",
"                  x ! ^ < } 5 9 b g i m p w t s o n y i i h g g c g g h i i y n o s t w p m i g b 9 5 } < ^ x                   ",
"                    r ! ^ ( } 4 6 a c h i n p w t t s p o n n m m m n n o p s t t w p n i h c a 6 4 } ( ^ r                     ",
"                      q ) ^ ( [ 3 5 9 a c h i m o p s t t t t t t t t t t t s p o m i h c a 9 5 3 [ ( ^ q                       ",
"                        k B ^ / < } 4 6 9 a c h i i m n o o p p p p p o o n m i i h c a 9 6 4 } < / B k                         ",
"                            H ! ^ ( < } 4 5 9 0 b c g h i i i i i i i i i h g c b 0 9 5 4 } < ( ^ H                             ",
"                              1 U ^ ^ ( < } 3 4 6 9 0 a a b b b c b b b a a 0 9 6 4 3 } < ( ^ l.1                               ",
"                                  ..>.^ ^ / < [ } 3 4 5 5 6 6 6 6 6 6 6 5 5 4 3 } [ < / ^ k...                                  ",
"                                      { _ ! ^ ^ / ( < [ [ } } } } } } } [ [ < ( / ^ ^ j.{                                       ",
"                                          - a.c.! ^ ^ ^ / / / ( ( ( / / / ^ ^ ^ c.i.                                            ",
"                                                  + ..d.e.f.g.) ) g.f.e.h...+                                                   "};
