/* XPM */
static char * yellow6_xpm[] = {
"64 64 197 2",
"  	c #FF00FF",
". 	c #DCC7DC",
"+ 	c #E4E0CC",
"@ 	c #F1E2BE",
"# 	c #F5D0AF",
"$ 	c #F9C09C",
"% 	c #FDB58D",
"& 	c #FFAD82",
"* 	c #FDB38C",
"= 	c #F5CEAE",
"- 	c #E1B4E4",
"; 	c #E7E4C9",
"> 	c #F6CDAB",
", 	c #FFAF81",
"' 	c #FFAD81",
") 	c #FFAB80",
"! 	c #FFAD80",
"~ 	c #FFAB7F",
"{ 	c #E0B4E4",
"] 	c #DFDAD1",
"^ 	c #F5CEAD",
"/ 	c #FFAB7E",
"( 	c #FFA97D",
"_ 	c #FFAB7D",
": 	c #FFA97C",
"< 	c #F5CDAD",
"[ 	c #FABB97",
"} 	c #FFAB7C",
"| 	c #FFA97B",
"1 	c #FFA97A",
"2 	c #FFA879",
"3 	c #FABA97",
"4 	c #DDD7D3",
"5 	c #F8C3A1",
"6 	c #FFAD7F",
"7 	c #FFA779",
"8 	c #FFA778",
"9 	c #FFA677",
"0 	c #F8C3A0",
"a 	c #DED7D3",
"b 	c #E2B0E6",
"c 	c #F2E0BC",
"d 	c #FFA979",
"e 	c #FFA676",
"f 	c #FFA675",
"g 	c #FFA474",
"h 	c #FFA574",
"i 	c #F1DFBC",
"j 	c #DDD4D5",
"k 	c #F9C09B",
"l 	c #FFA777",
"m 	c #FFA473",
"n 	c #FFA472",
"o 	c #FFA471",
"p 	c #FFA271",
"q 	c #F9BC9A",
"r 	c #E5E2CA",
"s 	c #FFA270",
"t 	c #FFA06F",
"u 	c #FFA26F",
"v 	c #FFA06E",
"w 	c #FFA26E",
"x 	c #E6E2CA",
"y 	c #EFE9C5",
"z 	c #FF9F6C",
"A 	c #FFA06C",
"B 	c #FF9E6B",
"C 	c #FF9E6A",
"D 	c #FF9D69",
"E 	c #EFE8C5",
"F 	c #F0E7C3",
"G 	c #FF9C68",
"H 	c #FF9B67",
"I 	c #FF9C67",
"J 	c #FF9B66",
"K 	c #FF9C66",
"L 	c #F0E6C3",
"M 	c #FF9B65",
"N 	c #FF9B64",
"O 	c #FF9A63",
"P 	c #FF9962",
"Q 	c #FF9961",
"R 	c #FF9963",
"S 	c #FF9760",
"T 	c #FF975F",
"U 	c #FF975E",
"V 	c #FF955D",
"W 	c #FF975D",
"X 	c #FF955C",
"Y 	c #FF9E69",
"Z 	c #FF935A",
"` 	c #FF9359",
" .	c #FF9258",
"..	c #FF9358",
"+.	c #FF9257",
"@.	c #FFA06D",
"#.	c #FF9055",
"$.	c #FF9054",
"%.	c #FF8E52",
"&.	c #FF8F52",
"*.	c #FF8E51",
"=.	c #F9BE9A",
"-.	c #E1B0E6",
";.	c #FF9156",
">.	c #FF9053",
",.	c #FF8D51",
"'.	c #FF8D53",
").	c #FF8C54",
"!.	c #FF8C55",
"~.	c #FF8C56",
"{.	c #FF945B",
"].	c #FF8C53",
"^.	c #FF8B58",
"/.	c #FF8B59",
"(.	c #FF895A",
"_.	c #FF8A5C",
":.	c #FF895C",
"<.	c #FF8C57",
"[.	c #FF885E",
"}.	c #FF8861",
"|.	c #FF8761",
"1.	c #FF8763",
"2.	c #FF8764",
"3.	c #FF8664",
"4.	c #FF955A",
"5.	c #FF8D52",
"6.	c #FF8860",
"7.	c #FF8666",
"8.	c #FF8368",
"9.	c #FF836A",
"0.	c #FF826B",
"a.	c #FF826C",
"b.	c #FF826D",
"c.	c #FF8B57",
"d.	c #FF8A5B",
"e.	c #FF885F",
"f.	c #FF8467",
"g.	c #FF826E",
"h.	c #FF7F71",
"i.	c #FF7F73",
"j.	c #FF7D75",
"k.	c #FF7B76",
"l.	c #FABA96",
"m.	c #FF806F",
"n.	c #FF7B77",
"o.	c #FF7A7D",
"p.	c #FF7E85",
"q.	c #FF808C",
"r.	c #FF8190",
"s.	c #DFD9D1",
"t.	c #FF895D",
"u.	c #FF7F72",
"v.	c #FF7B78",
"w.	c #FF7D83",
"x.	c #FF869E",
"y.	c #FF89A8",
"z.	c #FF8CB2",
"A.	c #FF8EB4",
"B.	c #FF8FB4",
"C.	c #F5CCAC",
"D.	c #FF8468",
"E.	c #FF7D74",
"F.	c #FF88A2",
"G.	c #FF93B7",
"H.	c #FF98BA",
"I.	c #FF9BBD",
"J.	c #FF9DBE",
"K.	c #FF9EBE",
"L.	c #FF7C81",
"M.	c #FF8498",
"N.	c #FF8CB1",
"O.	c #FFA2C1",
"P.	c #FFA8C5",
"Q.	c #FFADC8",
"R.	c #FFB0CA",
"S.	c #FFB1CB",
"T.	c #FF859A",
"U.	c #FFABC7",
"V.	c #FFB4CD",
"W.	c #FFBCD2",
"X.	c #FFC2D7",
"Y.	c #FFC6D9",
"Z.	c #E3E3E3",
"`.	c #F5CBAA",
" +	c #FF99BB",
".+	c #FFA4C2",
"++	c #FFBDD3",
"@+	c #FFB2CC",
"#+	c #F0E0BE",
"$+	c #FDB18A",
"%+	c #FAB995",
"&+	c #F8C39F",
"*+	c #F1DEBC",
"=+	c #F9BC99",
"-+	c #E7E2CA",
";+	c #EFE8C4",
">+	c #EFE5C3",
"                                                  . + @ # $ % & & * $ = @ + .                                                   ",
"                                          - ; > , ' ) ! ! ~ ~ ~ ~ ~ ~ ~ ! ! ) ' > ; {                                           ",
"                                      ] ^ ' ' ! ~ / / ( _ _ : : : : : _ _ ( / / ~ ! ' < ]                                       ",
"                                  + [ ' ! ~ / ( _ } | | 1 1 1 2 2 2 1 1 1 | | } _ ( / ~ ! 3 +                                   ",
"                              4 5 ' ! 6 / _ } | 1 2 7 7 8 8 8 9 9 9 8 8 8 7 7 2 1 | } _ / 6 ! 0 a                               ",
"                          b c ' ! 6 ( : | 1 d 7 8 9 e e f f g g h g g f f e e 9 8 7 d 1 | : ( 6 ! i                             ",
"                        j k ' ~ / : | 1 7 8 l e f h m n n o o p p p o o n n m h f e l 8 7 1 | : / ~ q j                         ",
"                      r , ! / _ | 1 7 8 e f h n p p s t u v v w w w v v u t s p p n h f e 8 7 1 | _ / ! x                       ",
"                    y ' ! / : | 2 8 l f m n p s u w z A B C C D D D C C B A z w u s p n m f l 8 2 | : / ! E                     ",
"                  F ' ~ / } 1 7 9 e h n p t v z B C D G H I J K K K J I H G D C B z v t p n h e 9 7 1 } / ~ L                   ",
"                y ' ~ ( } 1 7 l f m o s v A C D G J M N O P Q Q Q Q Q P O N M J G D C A v s o m f l 7 1 } ( ~ E                 ",
"              r ' ~ ( | 2 8 e g n p v z C D I M R P Q S T U V W X W V U T S Q P R M I D C z v p n g e 8 2 | ( ~ x               ",
"            j , ! / } 2 8 e h p s w B Y I M O Q T V X Z ` `  ...+... .` ` Z X V T Q O M I Y B w s p h e 8 2 } / ! j             ",
"            k ! / } 1 8 e h o t @.C Y K R Q T W Z ` +.#.$.%.&.*.*.*.&.%.$.#.+.` Z W T Q R K Y C @.t o h e 8 1 } / =.-.          ",
"          c ' / : 1 7 e h o t @.C G M P S V Z  .;.>.*.,.'.).!.~.~.~.!.).'.,.*.>.;. .Z V S P M G C @.t o h e 7 1 : / i           ",
"        4 ' ~ _ | 7 l g p t @.C H N Q T {.` ;.%.*.].~.^./.(._.:.:.:._.(./.^.~.].*.%.;.` {.T Q N H C @.t p g l 7 | _ ~ a         ",
"        5 ! / | 2 9 f n s @.C H N Q U Z +.$.*.].<./._.[.}.|.1.2.3.2.1.|.}.[._./.<.].*.$.+.Z U Q N H C @.s n f 9 2 | / 0         ",
"      + ' 6 : 1 8 e m p w C G N Q U 4.+.%.5.~./.:.6.1.7.8.9.0.a.b.a.0.9.8.7.1.6.:./.~.5.%.+.4.U Q N G C w p m e 8 1 : 6 +       ",
"      [ ! ( | 7 l h o v B Y M Q U 4.;.&.'.c.d.e.1.f.9.g.h.i.j.k.k.k.j.i.h.g.9.f.1.e.d.c.'.&.;.4.U Q M Y B v o h l 7 | ( l.      ",
"    ] ' 6 : 1 8 f n s z Y K P T Z +.&.].^.:.|.7.9.m.i.n.o.p.q.r.r.r.q.p.o.n.i.m.9.7.|.:.^.].&.+.Z T P K Y z s n f 8 1 : 6 s.    ",
"    ^ ! / | 7 e m p v C I R S {.+.%.'.^.t.|.f.b.u.v.w.r.x.y.z.A.B.A.z.y.x.r.w.v.u.b.f.|.t.^.'.%.+.{.S R I C v p m e 7 | / C.    ",
"  - ' ~ _ 1 8 f n t A D M Q V ` $.5.c.:.|.D.g.E.o.r.F.A.G.H.I.J.K.J.I.H.G.A.F.r.o.E.g.D.|.:.c.5.$.` V Q M D A t n f 8 1 _ ~ {   ",
"  ; ' / } d l h p v C I O T Z ;.*.~.d.|.f.g.j.L.M.N.G.I.O.P.Q.R.S.R.Q.P.O.I.G.N.M.L.j.g.f.|.d.~.*.;.Z T O I C v p h l d } / ;   ",
"  > ! ( | 7 e n s z D M Q W  .%.]./.e.7.b.E.L.T.A.H.O.U.V.W.X.Y.Z.Y.X.W.V.U.O.H.A.T.L.E.b.7.e./.].%. .W Q M D z s n e 7 | ( `.  ",
"  , ~ _ 1 8 f p u B G R T Z ;.*.<.:.1.9.u.o.M.A. +.+S.++Z.Z.Z.Z.Z.Z.Z.Z.Z.++S..+ +A.M.o.u.9.1.:.<.*.;.Z T R G B u p f 8 1 _ ~   ",
". ' / } 2 9 h p w C J P V ` >.]./.6.f.m.v.r.N.H..+@+X.Z.Z.Z.Z.Z.Z.Z.Z.Z.Z.Z.X.@+.+H.N.r.v.m.f.6./.].>.` V P J C w p h 9 2 } / . ",
"+ ) / | 7 e m s z D M Q X +.*.~._.1.9.i.w.F.G.O.S.X.Z.Z.Z.Z.Z.Z.Z.Z.Z.Z.Z.Z.Z.X.S.O.G.F.w.i.9.1._.~.*.+.X Q M D z s m e 7 | / + ",
"@ ! ( | 7 e n t A G N S Z #.,.^.[.7.g.n.r.A.I.U.++Z.Z.Z.Z.Z.Z.Z.Z.Z.Z.Z.Z.Z.Z.Z.++U.I.A.r.n.g.7.[.^.,.#.Z S N G A t n e 7 | ( #+",
"# ! _ 1 8 f n u B H O T ` $.'./.}.8.h.o.x.G.O.V.Z.Z.Z.Z.Z.Z.Z.Z.Z.Z.Z.Z.Z.Z.Z.Z.Z.V.O.G.x.o.h.8.}./.'.$.` T O H B u n f 8 1 _ = ",
"$ ~ _ 1 8 f o v C I P U ` %.).(.|.9.i.p.y.H.P.W.Z.Z.Z.Z.Z.Z.Z.Z.Z.Z.Z.Z.Z.Z.Z.Z.Z.W.P.H.y.p.i.9.|.(.).%.` U P I C v o f 8 1 _ =.",
"% ~ : 1 8 g o v C J Q V  .&.!._.1.0.j.q.z.I.Q.X.Z.Z.Z.Z.Z.Z.Z.Z.Z.Z.Z.Z.Z.Z.Z.Z.Z.X.Q.I.z.q.j.0.1._.!.&. .V Q J C v o g 8 1 : $+",
"& ~ : 2 9 g p w D K Q W ..*.~.:.2.a.k.r.A.J.R.Y.Z.Z.Z.Z.Z.Z.Z.Z.Z.Z.Z.Z.Z.Z.Z.Z.Z.Y.R.J.A.r.k.a.2.:.~.*...W Q K D w p g 9 2 : ) ",
"& ~ : 2 9 h p w D K Q X +.*.~.:.3.b.k.r.B.K.S.Z.Z.Z.Z.Z.Z.Z.Z.Z.Z.Z.Z.Z.Z.Z.Z.Z.Z.Z.S.K.B.r.k.b.3.:.~.*.+.X Q K D w p h 9 2 : ) ",
"* ~ : 2 9 g p w D K Q W ..*.~.:.2.a.k.r.A.J.R.Y.Z.Z.Z.Z.Z.Z.Z.Z.Z.Z.Z.Z.Z.Z.Z.Z.Z.Y.R.J.A.r.k.a.2.:.~.*...W Q K D w p g 9 2 : $+",
"$ ~ : 1 8 g o v C J Q V  .&.!._.1.0.j.q.z.I.Q.X.Z.Z.Z.Z.Z.Z.Z.Z.Z.Z.Z.Z.Z.Z.Z.Z.Z.X.Q.I.z.q.j.0.1._.!.&. .V Q J C v o g 8 1 : =.",
"= ~ _ 1 8 f o v C I P U ` %.).(.|.9.i.p.y.H.P.W.Z.Z.Z.Z.Z.Z.Z.Z.Z.Z.Z.Z.Z.Z.Z.Z.Z.W.P.H.y.p.i.9.|.(.).%.` U P I C v o f 8 1 _ = ",
"@ ! _ 1 8 f n u B H O T ` $.'./.}.8.h.o.x.G.O.V.Z.Z.Z.Z.Z.Z.Z.Z.Z.Z.Z.Z.Z.Z.Z.Z.Z.V.O.G.x.o.h.8.}./.'.$.` T O H B u n f 8 1 _ #+",
"+ ! ( | 7 e n t A G N S Z #.,.^.[.7.g.n.r.A.I.U.++Z.Z.Z.Z.Z.Z.Z.Z.Z.Z.Z.Z.Z.Z.Z.++U.I.A.r.n.g.7.[.^.,.#.Z S N G A t n e 7 | ( + ",
". ) / | 7 e m s z D M Q X +.*.~._.1.9.i.w.F.G.O.S.X.Z.Z.Z.Z.Z.Z.Z.Z.Z.Z.Z.Z.Z.X.S.O.G.F.w.i.9.1._.~.*.+.X Q M D z s m e 7 | / . ",
"  ' / } 2 9 h p w C J P V ` >.]./.6.f.m.v.r.N.H..+@+X.Z.Z.Z.Z.Z.Z.Z.Z.Z.Z.Z.X.@+.+H.N.r.v.m.f.6./.].>.` V P J C w p h 9 2 } /   ",
"  > ~ _ 1 8 f p u B G R T Z ;.*.<.:.1.9.u.o.M.A. +.+S.++Z.Z.Z.Z.Z.Z.Z.Z.Z.++S..+ +A.M.o.u.9.1.:.<.*.;.Z T R G B u p f 8 1 _ `.  ",
"  ; ! ( | 7 e n s z D M Q W  .%.]./.e.7.b.E.L.T.A.H.O.U.V.W.X.Y.Z.Y.X.W.V.U.O.H.A.T.L.E.b.7.e./.].%. .W Q M D z s n e 7 | ( ;   ",
"  { ' / } d l h p v C I O T Z ;.*.~.d.|.f.g.j.L.M.N.G.I.O.P.Q.R.S.R.Q.P.O.I.G.N.M.L.j.g.f.|.d.~.*.;.Z T O I C v p h l d } / {   ",
"    < ~ _ 1 8 f n t A D M Q V ` $.5.c.:.|.D.g.E.o.r.F.A.G.H.I.J.K.J.I.H.G.A.F.r.o.E.g.D.|.:.c.5.$.` V Q M D A t n f 8 1 _ C.    ",
"    ] ! / | 7 e m p v C I R S {.+.%.'.^.t.|.f.b.u.v.w.r.x.y.z.A.B.A.z.y.x.r.w.v.u.b.f.|.t.^.'.%.+.{.S R I C v p m e 7 | / s.    ",
"      3 6 : 1 8 f n s z Y K P T Z +.&.].^.:.|.7.9.m.i.n.o.p.q.r.r.r.q.p.o.n.i.m.9.7.|.:.^.].&.+.Z T P K Y z s n f 8 1 : %+      ",
"      + ! ( | 7 l h o v B Y M Q U 4.;.&.'.c.d.e.1.f.9.g.h.i.j.k.k.k.j.i.h.g.9.f.1.e.d.c.'.&.;.4.U Q M Y B v o h l 7 | ( +       ",
"        0 6 : 1 8 e m p w C G N Q U 4.+.%.5.~./.:.6.1.7.8.9.0.a.b.a.0.9.8.7.1.6.:./.~.5.%.+.4.U Q N G C w p m e 8 1 : &+        ",
"        a ! / | 2 9 f n s @.C H N Q U Z +.$.*.].<./._.[.}.|.1.2.3.2.1.|.}.[._./.<.].*.$.+.Z U Q N H C @.s n f 9 2 | / a         ",
"          i ~ _ | 7 l g p t @.C H N Q T {.` ;.%.*.].~.^./.(._.:.:.:._.(./.^.~.].*.%.;.` {.T Q N H C @.t p g l 7 | _ *+          ",
"            q / : 1 7 e h o t @.C G M P S V Z  .;.>.*.,.'.).!.~.~.~.!.).'.,.*.>.;. .Z V S P M G C @.t o h e 7 1 : =+            ",
"            j ! / } 1 8 e h o t @.C Y K R Q T W Z ` +.#.$.%.&.*.*.*.&.%.$.#.+.` Z W T Q R K Y C @.t o h e 8 1 } / j             ",
"              x ! / } 2 8 e h p s w B Y I M O Q T V X Z ` `  ...+... .` ` Z X V T Q O M I Y B w s p h e 8 2 } / -+              ",
"                E ~ ( | 2 8 e g n p v z C D I M R P Q S T U V W X W V U T S Q P R M I D C z v p n g e 8 2 | ( ;+                ",
"                  L ~ ( } 1 7 l f m o s v A C D G J M N O P Q Q Q Q Q P O N M J G D C A v s o m f l 7 1 } ( >+                  ",
"                    E ~ / } 1 7 9 e h n p t v z B C D G H I J K K K J I H G D C B z v t p n h e 9 7 1 } / ;+                    ",
"                      x ! / : | 2 8 l f m n p s u w z A B C C D D D C C B A z w u s p n m f l 8 2 | : / -+                      ",
"                        j =./ _ | 1 7 8 e f h n p p s t u v v w w w v v u t s p p n h f e 8 7 1 | _ =+j                         ",
"                            i ~ / : | 1 7 8 l e f h m n n o o p p p o o n n m h f e l 8 7 1 | : / *+                            ",
"                              a 0 6 ( : | 1 d 7 8 9 e e f f g g h g g f f e e 9 8 7 d 1 | : ( &+a                               ",
"                                  + l.6 / _ } | 1 2 7 7 8 8 8 9 9 9 8 8 8 7 7 2 1 | } _ / %++                                   ",
"                                      s.C.~ / ( _ } | | 1 1 1 2 2 2 1 1 1 | | } _ ( / C.s.                                      ",
"                                          { ; `.~ / / ( _ _ : : : : : _ _ ( / / `.; {                                           ",
"                                                  . + #+= =.$+) ) $+=.= #++ .                                                   "};
