/* XPM */
static char * yellow3_xpm[] = {
"64 64 203 2",
"  	c #FF00FF",
". 	c #DBC4DB",
"+ 	c #E1DDCA",
"@ 	c #EFE3B9",
"# 	c #F4D6A9",
"$ 	c #F9CB96",
"% 	c #FCC384",
"& 	c #FFC079",
"* 	c #F8CB95",
"= 	c #EFE2B9",
"- 	c #DFB2E4",
"; 	c #E4E1C7",
"> 	c #F5D5A5",
", 	c #FFBE77",
"' 	c #FFBF77",
") 	c #FFBF76",
"! 	c #FFBE75",
"~ 	c #FFBF75",
"{ 	c #FFBD74",
"] 	c #F5D4A5",
"^ 	c #DCD6D0",
"/ 	c #F4D5A8",
"( 	c #FFBE76",
"_ 	c #FFBF74",
": 	c #FFBD73",
"< 	c #FFBF73",
"[ 	c #FFBD72",
"} 	c #FFBD71",
"| 	c #F4D6A7",
"1 	c #FACA91",
"2 	c #FFBC71",
"3 	c #FFBB70",
"4 	c #FFBC70",
"5 	c #FFBB6F",
"6 	c #FFBC6F",
"7 	c #FAC990",
"8 	c #DBD4D2",
"9 	c #F7CE9B",
"0 	c #FFBB71",
"a 	c #FFBC6E",
"b 	c #FFBA6D",
"c 	c #FFBC6D",
"d 	c #FFBA6C",
"e 	c #FFBB6C",
"f 	c #FFBA6B",
"g 	c #F7CE9A",
"h 	c #F0E0B6",
"i 	c #FFBA6E",
"j 	c #FFB96A",
"k 	c #FFB869",
"l 	c #FFB969",
"m 	c #F0E1B6",
"n 	c #DAD1D4",
"o 	c #F9CA94",
"p 	c #FFB768",
"q 	c #FFB767",
"r 	c #FFB967",
"s 	c #FFB766",
"t 	c #FFB765",
"u 	c #F9C994",
"v 	c #E3DFC8",
"w 	c #FFB664",
"x 	c #FFB563",
"y 	c #FFB562",
"z 	c #FFB662",
"A 	c #FFB461",
"B 	c #FFB661",
"C 	c #ECE5C1",
"D 	c #FFB663",
"E 	c #FFB460",
"F 	c #FFB45F",
"G 	c #FFB35E",
"H 	c #FFB35D",
"I 	c #FFB25C",
"J 	c #EEE7BF",
"K 	c #FFB15B",
"L 	c #FFB15A",
"M 	c #FFB159",
"N 	c #FFB058",
"O 	c #EEE6BF",
"P 	c #FFB057",
"Q 	c #FFB056",
"R 	c #FFB055",
"S 	c #FFB054",
"T 	c #FFAE53",
"U 	c #FFAF53",
"V 	c #FFB35B",
"W 	c #FFB259",
"X 	c #FFAE55",
"Y 	c #FFAF52",
"Z 	c #FFAD51",
"` 	c #FFAE52",
" .	c #FFAD53",
"..	c #E2DFC8",
"+.	c #FFB35C",
"@.	c #FFAC52",
"#.	c #FFAD54",
"$.	c #FFAD56",
"%.	c #FFAE57",
"&.	c #FFAE58",
"*.	c #FFAE59",
"=.	c #FFAD59",
"-.	c #FFB25D",
";.	c #FFAD5B",
">.	c #FFAE5D",
",.	c #FFAE5E",
"'.	c #FFAE5F",
").	c #FFAD5F",
"!.	c #FFAE60",
"~.	c #F9C993",
"{.	c #FFB35A",
"].	c #FFAF5B",
"^.	c #FFAD61",
"/.	c #FFAE63",
"(.	c #FFAD64",
"_.	c #FFAD65",
":.	c #FFAD66",
"<.	c #FFAF56",
"[.	c #FFAD5A",
"}.	c #FFAE69",
"|.	c #FFAE6A",
"1.	c #FFAD6B",
"2.	c #FFAD6D",
"3.	c #FFAF6E",
"4.	c #FFAD6E",
"5.	c #FFAD60",
"6.	c #FFAC63",
"7.	c #FFAD67",
"8.	c #FFAE70",
"9.	c #FFAE72",
"0.	c #FFAD74",
"a.	c #FFAD75",
"b.	c #FFAD76",
"c.	c #FFAC76",
"d.	c #FFAE5A",
"e.	c #FFAC69",
"f.	c #FFAC71",
"g.	c #FFAC78",
"h.	c #FFAB7A",
"i.	c #FFAD7D",
"j.	c #FFAB7F",
"k.	c #FFAB80",
"l.	c #FFAD68",
"m.	c #FFAD6C",
"n.	c #FFAC79",
"o.	c #FFAD7E",
"p.	c #FFAB81",
"q.	c #FFAB85",
"r.	c #FFAA88",
"s.	c #FFA889",
"t.	c #FFA88A",
"u.	c #FFA88B",
"v.	c #FAC78F",
"w.	c #FFAD72",
"x.	c #FFAB7D",
"y.	c #FFAA82",
"z.	c #FFA88C",
"A.	c #FFA690",
"B.	c #FFA593",
"C.	c #FFA396",
"D.	c #FFA298",
"E.	c #FFAA86",
"F.	c #FFA592",
"G.	c #FF9E9D",
"H.	c #FFA2A8",
"I.	c #FFA4B2",
"J.	c #FFA6BA",
"K.	c #FFA7BD",
"L.	c #F4D4A7",
"M.	c #FFAC7A",
"N.	c #FF9FA1",
"O.	c #FFA6B8",
"P.	c #FFACC8",
"Q.	c #FFB2CB",
"R.	c #FFB5CE",
"S.	c #FFB8D0",
"T.	c #FFB9D0",
"U.	c #FFA792",
"V.	c #FF9F9A",
"W.	c #FFA3B0",
"X.	c #FFADC8",
"Y.	c #FFBDD3",
"Z.	c #FFC4D8",
"`.	c #E3E3E3",
" +	c #E4E0C6",
".+	c #FFA09C",
"++	c #FFBCD2",
"@+	c #F4D3A5",
"#+	c #FFB2CC",
"$+	c #FFC0D5",
"%+	c #DAC4DB",
"&+	c #F3D5A8",
"*+	c #F8C994",
"=+	c #FCC382",
"-+	c #FCC182",
";+	c #F4D2A5",
">+	c #DEB2E4",
",+	c #F9C68E",
"'+	c #F7CC99",
")+	c #DBD3D2",
"!+	c #EFDFB6",
"~+	c #F9C992",
"{+	c #EEE6BE",
"                                                  . + @ # $ % & & % * # = + .                                                   ",
"                                          - ; > , ' ) ) ! ~ ~ { { { ~ ~ ! ) ) ' ] ; -                                           ",
"                                      ^ / ' ( ! ~ _ : < [ [ [ } } } [ [ [ < : _ ~ ! ( | ^                                       ",
"                                  + 1 ' ) { : [ [ } 2 3 4 4 5 5 6 5 5 4 4 3 2 } [ [ : { ) 7 +                                   ",
"                              8 9 ' ! { : [ 0 3 5 6 a b c d d e f e d d c b a 6 5 3 0 [ : { ! g 8                               ",
"                            h ' ) { < } 2 4 i b d f j k l k l l l l l k l k j f d b i 4 2 } < { ) m                             ",
"                        n o ( ~ : } 2 5 a d f j k p q r s t t t t t t t s r q p k j f d a 5 2 } : ~ u n                         ",
"                      v , ) _ [ 2 4 a d f l p q s w x y z A B A A A B A z y x w s q p l f d a 4 2 [ _ ) v                       ",
"                    C ' ! : } 3 i c f l p s t D z A E F G H H H I H H H G F E A z D t s p l f c i 3 } : ! C                     ",
"                  J ' ~ : } 4 a e k p s w y B E G H K L M M M N N N M M M L K H G E B y w s p k e a 4 } : ~ O                   ",
"                C ' ~ < 0 5 b f k q t D A F H K M M P Q R S T U U U T S R Q P M M K H F A D t q k f b 5 0 < ~ C                 ",
"              v ' ~ < 2 6 c j l s w A E H V W P X T Y Z Z ` T  . . .T ` Z Z Y T X P W V H E A w s l j c 6 2 < ~ ..              ",
"            n , ! : 0 6 c j p s D A G +.M P R ` Z @.#.$.%.&.*.=.*.=.*.&.%.$.#.@.Z ` R P M +.G A D s p j c 6 0 : ! n             ",
"            o ) : } 5 c j p t y E -.L N X ` Z  .$.&.=.;.>.,.'.).!.).'.,.>.;.=.&.$. .Z ` X N L -.E y t p j c 5 } : ~.            ",
"          h ( _ } 4 b j p t y E H {.P S Z T $.*.].>.!.^./.(._.:.:.:._.(./.^.!.>.].*.$.T Z S P {.H E y t p j b 4 } _ h           ",
"        8 ' ~ [ 3 a f l s y E H M <.U Z X &.[.,.^./.:.}.|.1.2.3.4.3.2.1.|.}.:./.^.,.[.&.X Z U <.M H E y s l f a 3 [ ~ 8         ",
"        9 ) : 2 i e k s D E H M Q ` ` $.*.>.5.6.7.|.2.8.9.0.a.b.c.b.a.0.9.8.2.|.7.6.5.>.*.$.` ` Q M H E D s k e i 2 : g         ",
"      + ' { } 4 c k q w A -.{.<.` ` $.d.,.^.:.e.4.f.a.g.h.i.j.k.k.k.j.i.h.g.a.f.4.e.:.^.,.d.$.` ` <.{.-.A w q k c 4 } { +       ",
"      1 ! < 2 a f p t A G L P U ` $.[.'./.l.m.f.a.n.o.p.q.r.s.t.u.t.s.r.q.p.o.n.a.f.m.l./.'.[.$.` U P L G A t p f a 2 < v.      ",
"    ^ ' { } 5 d l s D E +.N S Z $.d.'./.}.3.w.g.x.y.r.z.A.B.C.D.D.D.C.B.A.z.r.y.x.g.w.3.}./.'.d.$.Z S N +.E D s l d 5 } { ^     ",
"    / ) : 2 a f p w A H M X Z X *.,./.}.4.0.n.k.E.z.F.D.G.H.I.J.K.J.I.H.G.D.F.z.E.k.n.0.4.}./.,.*.X Z X M H A w p f a 2 : L.    ",
"    ' { [ 4 d l s y F V P ` T &.>.^.l.3.0.M.p.s.A.D.N.O.P.Q.R.S.T.S.R.Q.P.O.N.D.A.s.p.M.0.3.l.^.>.&.T ` P V F y s l d 4 [ {     ",
"  ; ( : 0 i f p t B H W R Z $.[.5.:.m.w.n.p.s.U.V.W.X.R.Y.Z.`.`.`.`.`.Z.Y.R.X.W.V.U.s.p.n.w.m.:.5.[.$.Z R W H B t p f i 0 :  +  ",
"  > ! [ 3 b j q D E K P `  .*.,.6.e.f.g.k.s.U..+J.Q.++`.`.`.`.`.`.`.`.`.`.`.++Q.J..+U.s.k.g.f.e.6.,.*. .` P K E D q j b 3 [ @+  ",
"  , ~ [ 5 d k s z G M X Z $.].^.7.4.a.x.E.A.V.J.#+$+`.`.`.`.`.`.`.`.`.`.`.`.`.$+#+J.V.A.E.x.a.4.7.^.].$.Z X M G z s k d 5 [ ~   ",
". ' _ } 6 f p w A H M T @.&.>./.|.f.n.y.z.D.W.Q.$+`.`.`.`.`.`.`.`.`.`.`.`.`.`.`.$+Q.W.D.z.y.n.f.|./.>.&.@.T M H A w p f 6 } _ %+",
"+ ) : 2 a j q x E K P Y #.=.!.:.2.a.o.r.F.N.X.++`.`.`.`.`.`.`.`.`.`.`.`.`.`.`.`.`.++X.N.F.r.o.a.2.:.!.=.#.Y P K E x q j a 2 : + ",
"@ ) < 3 b k r y F L Q Z $.;.^.}.8.g.p.z.D.O.R.`.`.`.`.`.`.`.`.`.`.`.`.`.`.`.`.`.`.`.R.O.D.z.p.g.8.}.^.;.$.Z Q L F y r k b 3 < = ",
"# ! [ 4 c l s z G M R Z %.>./.|.9.h.q.A.G.P.Y.`.`.`.`.`.`.`.`.`.`.`.`.`.`.`.`.`.`.`.Y.P.G.A.q.h.9.|./.>.%.Z R M G z s l c 4 [ &+",
"$ ~ [ 4 d k t A H M S ` &.,.(.1.0.i.r.B.H.Q.Z.`.`.`.`.`.`.`.`.`.`.`.`.`.`.`.`.`.`.`.Z.Q.H.B.r.i.0.1.(.,.&.` S M H A t k d 4 [ *+",
"% ~ [ 5 d l t B H M T T *.'._.2.a.j.s.C.I.R.`.`.`.`.`.`.`.`.`.`.`.`.`.`.`.`.`.`.`.`.`.R.I.C.s.j.a.2._.'.*.T T M H B t l d 5 [ =+",
"& { } 5 e l t A H N U  .=.).:.3.b.k.t.D.J.S.`.`.`.`.`.`.`.`.`.`.`.`.`.`.`.`.`.`.`.`.`.S.J.D.t.k.b.3.:.).=. .U N H A t l e 5 } ) ",
"& { } 6 f l t A I N U  .*.!.:.4.c.k.u.D.K.T.`.`.`.`.`.`.`.`.`.`.`.`.`.`.`.`.`.`.`.`.`.T.K.D.u.k.c.4.:.!.*. .U N I A t l f 6 } ) ",
"% { } 5 e l t A H N U  .=.).:.3.b.k.t.D.J.S.`.`.`.`.`.`.`.`.`.`.`.`.`.`.`.`.`.`.`.`.`.S.J.D.t.k.b.3.:.).=. .U N H A t l e 5 } -+",
"* ~ [ 5 d l t B H M T T *.'._.2.a.j.s.C.I.R.`.`.`.`.`.`.`.`.`.`.`.`.`.`.`.`.`.`.`.`.`.R.I.C.s.j.a.2._.'.*.T T M H B t l d 5 [ *+",
"# ~ [ 4 d k t A H M S ` &.,.(.1.0.i.r.B.H.Q.Z.`.`.`.`.`.`.`.`.`.`.`.`.`.`.`.`.`.`.`.Z.Q.H.B.r.i.0.1.(.,.&.` S M H A t k d 4 [ &+",
"= ! [ 4 c l s z G M R Z %.>./.|.9.h.q.A.G.P.Y.`.`.`.`.`.`.`.`.`.`.`.`.`.`.`.`.`.`.`.Y.P.G.A.q.h.9.|./.>.%.Z R M G z s l c 4 [ = ",
"+ ) < 3 b k r y F L Q Z $.;.^.}.8.g.p.z.D.O.R.`.`.`.`.`.`.`.`.`.`.`.`.`.`.`.`.`.`.`.R.O.D.z.p.g.8.}.^.;.$.Z Q L F y r k b 3 < + ",
". ) : 2 a j q x E K P Y #.=.!.:.2.a.o.r.F.N.X.++`.`.`.`.`.`.`.`.`.`.`.`.`.`.`.`.`.++X.N.F.r.o.a.2.:.!.=.#.Y P K E x q j a 2 : %+",
"  ' _ } 6 f p w A H M T @.&.>./.|.f.n.y.z.D.W.Q.$+`.`.`.`.`.`.`.`.`.`.`.`.`.`.`.$+Q.W.D.z.y.n.f.|./.>.&.@.T M H A w p f 6 } _   ",
"  ] ~ [ 5 d k s z G M X Z $.].^.7.4.a.x.E.A.V.J.#+$+`.`.`.`.`.`.`.`.`.`.`.`.`.$+#+J.V.A.E.x.a.4.7.^.].$.Z X M G z s k d 5 [ ;+  ",
"  ; ! [ 3 b j q D E K P `  .*.,.6.e.f.g.k.s.U..+J.Q.++`.`.`.`.`.`.`.`.`.`.`.++Q.J..+U.s.k.g.f.e.6.,.*. .` P K E D q j b 3 [  +  ",
"  - ( : 0 i f p t B H W R Z $.[.5.:.m.w.n.p.s.U.V.W.X.R.Y.Z.`.`.`.`.`.Z.Y.R.X.W.V.U.s.p.n.w.m.:.5.[.$.Z R W H B t p f i 0 : >+  ",
"    | { [ 4 d l s y F V P ` T &.>.^.l.3.0.M.p.s.A.D.N.O.P.Q.R.S.T.S.R.Q.P.O.N.D.A.s.p.M.0.3.l.^.>.&.T ` P V F y s l d 4 [ L.    ",
"    ^ ) : 2 a f p w A H M X Z X *.,./.}.4.0.n.k.E.z.F.D.G.H.I.J.K.J.I.H.G.D.F.z.E.k.n.0.4.}./.,.*.X Z X M H A w p f a 2 : ^     ",
"      7 { } 5 d l s D E +.N S Z $.d.'./.}.3.w.g.x.y.r.z.A.B.C.D.D.D.C.B.A.z.r.y.x.g.w.3.}./.'.d.$.Z S N +.E D s l d 5 } ,+      ",
"      + ! < 2 a f p t A G L P U ` $.[.'./.l.m.f.a.n.o.p.q.r.s.t.u.t.s.r.q.p.o.n.a.f.m.l./.'.[.$.` U P L G A t p f a 2 < +       ",
"        g { } 4 c k q w A -.{.<.` ` $.d.,.^.:.e.4.f.a.g.h.i.j.k.k.k.j.i.h.g.a.f.4.e.:.^.,.d.$.` ` <.{.-.A w q k c 4 } '+        ",
"        8 ) : 2 i e k s D E H M Q ` ` $.*.>.5.6.7.|.2.8.9.0.a.b.c.b.a.0.9.8.2.|.7.6.5.>.*.$.` ` Q M H E D s k e i 2 : )+        ",
"          m ~ [ 3 a f l s y E H M <.U Z X &.[.,.^./.:.}.|.1.2.3.4.3.2.1.|.}.:./.^.,.[.&.X Z U <.M H E y s l f a 3 [ !+          ",
"            u _ } 4 b j p t y E H {.P S Z T $.*.].>.!.^./.(._.:.:.:._.(./.^.!.>.].*.$.T Z S P {.H E y t p j b 4 } ~+            ",
"            n ) : } 5 c j p t y E -.L N X ` Z  .$.&.=.;.>.,.'.).!.).'.,.>.;.=.&.$. .Z ` X N L -.E y t p j c 5 } : n             ",
"              v ! : 0 6 c j p s D A G +.M P R ` Z @.#.$.%.&.*.=.*.=.*.&.%.$.#.@.Z ` R P M +.G A D s p j c 6 0 : v               ",
"                C ~ < 2 6 c j l s w A E H V W P X T Y Z Z ` T  . . .T ` Z Z Y T X P W V H E A w s l j c 6 2 < C                 ",
"                  O ~ < 0 5 b f k q t D A F H K M M P Q R S T U U U T S R Q P M M K H F A D t q k f b 5 0 < {+                  ",
"                    C ~ : } 4 a e k p s w y B E G H K L M M M N N N M M M L K H G E B y w s p k e a 4 } : C                     ",
"                      ..! : } 3 i c f l p s t D z A E F G H H H I H H H G F E A z D t s p l f c i 3 } : v                       ",
"                        n ~._ [ 2 4 a d f l p q s w x y z A B A A A B A z y x w s q p l f d a 4 2 [ ~+n                         ",
"                            h ~ : } 2 5 a d f j k p q r s t t t t t t t s r q p k j f d a 5 2 } : !+                            ",
"                              8 g { < } 2 4 i b d f j k l k l l l l l k l k j f d b i 4 2 } < '+)+                              ",
"                                  + v.{ : [ 0 3 5 6 a b c d d e f e d d c b a 6 5 3 0 [ : ,++                                   ",
"                                      ^ L.{ : [ [ } 2 3 4 4 5 5 6 5 5 4 4 3 2 } [ [ : L.^                                       ",
"                                          >+ +@+~ _ : < [ [ [ } } } [ [ [ < : _ ;+ +>+                                          ",
"                                                  %++ = &+*+=+) ) -+*+&+= + %+                                                  "};
