/* XPM */
static char * yellow7_xpm[] = {
"64 64 195 2",
"  	c #FF00FF",
". 	c #DDC7DC",
"+ 	c #E4E1CD",
"@ 	c #F1E3C0",
"# 	c #F5CEB0",
"$ 	c #F9BD9E",
"% 	c #FDB08F",
"& 	c #FFAA86",
"* 	c #F1E4BF",
"= 	c #E1B5E4",
"- 	c #E8E4CA",
"; 	c #F6CCAD",
"> 	c #FFAA84",
", 	c #FFA883",
"' 	c #FFAA83",
") 	c #FFA882",
"! 	c #F6CBAC",
"~ 	c #DFDAD2",
"{ 	c #F6CEAF",
"] 	c #FFA881",
"^ 	c #FFA681",
"/ 	c #FFA680",
"( 	c #F5CCAF",
"_ 	c #FAB899",
": 	c #FFA67F",
"< 	c #FFA57E",
"[ 	c #FFA67E",
"} 	c #DED7D4",
"| 	c #F8C2A3",
"1 	c #FFA57D",
"2 	c #FFA37C",
"3 	c #FFA57C",
"4 	c #FFA37B",
"5 	c #F8C1A2",
"6 	c #E2B0E6",
"7 	c #F2E0BE",
"8 	c #FFA37A",
"9 	c #FFA379",
"0 	c #FFA179",
"a 	c #FFA078",
"b 	c #F2DFBE",
"c 	c #DDD4D5",
"d 	c #FABD9D",
"e 	c #FFA178",
"f 	c #FFA077",
"g 	c #FFA177",
"h 	c #FFA076",
"i 	c #FF9E75",
"j 	c #FFA075",
"k 	c #FABC9D",
"l 	c #E6E3CB",
"m 	c #FFA57F",
"n 	c #FF9E74",
"o 	c #FF9E73",
"p 	c #FF9E72",
"q 	c #FF9C71",
"r 	c #F0E9C6",
"s 	c #FF9F74",
"t 	c #FF9C72",
"u 	c #FF9B70",
"v 	c #FF9C70",
"w 	c #FF9A6F",
"x 	c #FF996E",
"y 	c #FF9A6E",
"z 	c #F0E9C5",
"A 	c #F0E8C4",
"B 	c #FF996D",
"C 	c #FF996C",
"D 	c #FF996B",
"E 	c #FF976A",
"F 	c #F0E7C4",
"G 	c #FF9769",
"H 	c #FF9568",
"I 	c #FF9567",
"J 	c #FF9466",
"K 	c #FF9465",
"L 	c #FF9464",
"M 	c #FF9263",
"N 	c #FF9262",
"O 	c #FF9261",
"P 	c #FF976B",
"Q 	c #FF9566",
"R 	c #FF9061",
"S 	c #FF9060",
"T 	c #FF905F",
"U 	c #FF8F5E",
"V 	c #FF8E5D",
"W 	c #FF8D5C",
"X 	c #FF9A6D",
"Y 	c #FF8E5C",
"Z 	c #FF8D5A",
"` 	c #FF8D59",
" .	c #FF8B59",
"..	c #FF8B58",
"+.	c #FF8957",
"@.	c #F9BB9C",
"#.	c #FF9264",
"$.	c #FF8D5B",
"%.	c #FF8955",
"&.	c #FF8853",
"*.	c #FF8752",
"=.	c #FF8651",
"-.	c #F2E0BD",
";.	c #FF8956",
">.	c #FF8552",
",.	c #FF8554",
"'.	c #FF8455",
").	c #FF8356",
"!.	c #FF8357",
"~.	c #FF9669",
"{.	c #FF9363",
"].	c #FF8259",
"^.	c #FF815A",
"/.	c #FF815C",
"(.	c #FF7F5D",
"_.	c #FF805E",
":.	c #FF8F5F",
"<.	c #FF8854",
"[.	c #FF8453",
"}.	c #FF825A",
"|.	c #FF815D",
"1.	c #FF7E60",
"2.	c #FF7D61",
"3.	c #FF7C63",
"4.	c #FF7C65",
"5.	c #FF7A66",
"6.	c #FF8551",
"7.	c #FF8355",
"8.	c #FF7E61",
"9.	c #FF7C64",
"0.	c #FF7B68",
"a.	c #FF796A",
"b.	c #FF766C",
"c.	c #FF766E",
"d.	c #FF756F",
"e.	c #FF7570",
"f.	c #FAB898",
"g.	c #FF815B",
"h.	c #FF7D64",
"i.	c #FF7B69",
"j.	c #FF7370",
"k.	c #FF7375",
"l.	c #FF767C",
"m.	c #FF7984",
"n.	c #FF7987",
"o.	c #FF7A88",
"p.	c #FF786B",
"q.	c #FF7471",
"r.	c #FF757B",
"s.	c #FF7E94",
"t.	c #FF819E",
"u.	c #FF84A7",
"v.	c #FF86AD",
"w.	c #FF87AF",
"x.	c #F5CCAE",
"y.	c #FF766D",
"z.	c #FF8099",
"A.	c #FF85AA",
"B.	c #FF8AB1",
"C.	c #FF8FB4",
"D.	c #FF92B7",
"E.	c #FF94B8",
"F.	c #FF95B8",
"G.	c #FF7579",
"H.	c #FF7C8F",
"I.	c #FF8BB2",
"J.	c #FF9ABB",
"K.	c #FF9FBF",
"L.	c #FFA3C2",
"M.	c #FFA6C4",
"N.	c #FFA7C4",
"O.	c #FF7D91",
"P.	c #FF99BB",
"Q.	c #FFA2C1",
"R.	c #FFAAC7",
"S.	c #FFB2CB",
"T.	c #FFB8D0",
"U.	c #FFBBD2",
"V.	c #FFBCD2",
"W.	c #F6CAAC",
"X.	c #FF91B5",
"Y.	c #FF9BBD",
"Z.	c #FFB2CC",
"`.	c #FFBED4",
" +	c #E3E3E3",
".+	c #FFA9C5",
"++	c #F1E1BF",
"@+	c #F9BC9C",
"#+	c #FDB08D",
"$+	c #F8C1A1",
"%+	c #F2DEBD",
"&+	c #F9BA9B",
"*+	c #E7E3CB",
"=+	c #F0E8C5",
"-+	c #F0E6C4",
"                                                  . + @ # $ % & & % $ # * + .                                                   ",
"                                          = - ; > > , ' ) ) ) ) ) ) ) ) ) ' , > ! -                                             ",
"                                      ~ { > , ' ) ] ] ^ ^ ] / / / / / ] ^ ^ ] ] ) ' , ( ~                                       ",
"                                  + _ > ' ) ] ^ / / : : < < < [ [ [ < < < : : / / ^ ] ) ' _ +                                   ",
"                              } | > ' ) ^ / / : < 1 2 3 4 4 4 4 4 4 4 4 4 3 2 1 < : / / ^ ) ' 5 }                               ",
"                          6 7 > ' ) ^ / : < 1 3 4 8 8 9 0 0 0 a a a 0 0 0 9 8 8 4 3 1 < : / ^ ) ' b                             ",
"                        c d , ) ] / : < 2 4 8 0 0 e f g h h i j j j i h h g f e 0 0 8 4 2 < : / ] ) k c                         ",
"                      l > ' ] ^ m < 1 4 8 0 e f h j n o o p p q q q p p o o n j h f e 0 8 4 1 < m ^ ] ' l                       ",
"                    r > ) ] / : 1 4 8 0 e h j s t q q u v w w x y x w w v u q q t s j h e 0 8 4 1 : / ] ) z                     ",
"                  A > ) ] / < 2 4 9 e h j o p q v w B C C D E E E E E D C C B w v q p o j h e 9 4 2 < / ] ) F                   ",
"                r > ) ^ / < 3 8 0 f i o p q w B C E G G H I I J J J I I H G G E C B w q p o i f 0 8 3 < / ^ ) z                 ",
"              l > ) ^ m [ 3 8 a h n t q w B D G G I K L M N N O O O N N M L K I G G D B w q t n h a 8 3 [ m ^ ) l               ",
"            c > ) ] / [ 4 0 e h s q u y P G H Q L N R S T U V V W V V U T S R N L Q H G P y u q s h e 0 4 [ / ] ) c             ",
"            d ' ] / < 3 0 e h o q w X E G J L O S U Y Z `  ...+.+.+... .` Z Y U S O L J G E X w q o h e 0 3 < / ] @.            ",
"          7 , ] / < 3 8 e h o q w C G I #.N S V $. .+.%.&.*.=.=.=.=.=.*.&.%.+. .$.V S N #.I G C w q o h e 8 3 < / ] -.          ",
"        } > ) ^ : 2 8 a h o q w C G J M R U $. .;.&.=.>.,.'.).!.!.!.).'.,.>.=.&.;. .$.U R M J G C w q o h a 8 2 : ^ ) }         ",
"        | ' ] m 1 4 0 h s q w C ~.Q {.S W ` ;.&.=.,.).].^./.(._._._.(./.^.].).,.=.&.;.` W S {.Q ~.C w q s h 0 4 1 m ] 5         ",
"      + > ) / < 4 9 f n q w C G Q N :.Y  .<.=.[.!.}.|.1.2.3.4.5.5.5.4.3.2.1.|.}.!.[.=.<. .Y :.N Q G C w q n f 9 4 < / ) +       ",
"      _ ' ^ : 1 8 e i t u X G J {.:.$...&.6.7.].(.8.9.0.a.b.c.d.e.d.c.b.a.0.9.8.(.].7.6.&...$.:.{.J G X u t i e 8 1 : ^ f.      ",
"    ~ > ) / < 4 0 h o q y E I M S Y ..&.>.!.g.1.h.i.b.j.k.l.m.n.o.n.m.l.k.j.b.i.h.1.g.!.>.&...Y S M I E y q o h 0 4 < / ) ~     ",
"    { ' ^ : 2 8 e j p w P G #.R W  .&.>.!./.2.5.p.q.r.o.s.t.u.v.w.v.u.t.s.o.r.q.p.5.2./.!.>.&. .W R #.G P w p j e 8 2 : ^ x.    ",
"    > ) / < 4 0 h o q B G J N U ` <.6.!./.2.0.y.k.n.z.A.B.C.D.E.F.E.D.C.B.A.z.n.k.y.0.2./.!.6.<.` U N J G B q o h 0 4 < / ) =   ",
"  - , ] / 1 8 e j p w D H L S $.;.=.7.g.2.0.c.G.H.u.I.D.J.K.L.M.N.M.L.K.J.D.I.u.H.G.c.0.2.g.7.=.;.$.S L H D w p j e 8 1 / ] -   ",
"  ; ' ^ : 3 0 f s q B G Q O V  .&.[.].1.5.y.G.O.v.C.P.Q.R.S.T.U.V.U.T.S.R.Q.P.C.v.O.G.y.5.1.].[.&. .V O Q G B q s f 0 3 : ^ W.  ",
"  > ) / < 4 0 h t v C G L S $.;.=.!.(.h.p.k.H.v.X.Y.N.Z.`. + + + + + + +`.Z.N.Y.X.v.H.k.p.h.(.!.=.;.$.S L G C v t h 0 4 < / )   ",
". > ] / 1 8 e j q w E I N U  .&.,.}.8.i.q.n.u.C.Y..+T. + + + + + + + + + + +T..+Y.C.u.n.q.i.8.}.,.&. .U N I E w q j e 8 1 / ] . ",
"+ , ] : 2 8 f n q B G K R Y +.=.).|.9.b.r.z.I.P.N.T. + + + + + + + + + + + + +T.N.P.I.z.r.b.9.|.).=.+.Y R K G B q n f 8 2 : ] + ",
"@ ' ^ : 3 9 g o u C G L S Z %.>.].1.0.j.o.A.D.Q.Z. + + + + + + + + + + + + + + +Z.Q.D.A.o.j.0.1.].>.%.Z S L G C u o g 9 3 : ^ ++",
"# ) ^ < 4 0 h o v C H M T ` &.,.^.2.a.k.s.B.J.R.`. + + + + + + + + + + + + + + +`.R.J.B.s.k.a.2.^.,.&.` T M H C v o h 0 4 < ^ # ",
"$ ) ] < 4 0 h p w D I N U  .*.'./.3.b.l.t.C.K.S. + + + + + + + + + + + + + + + + +S.K.C.t.l.b.3./.'.*. .U N I D w p h 0 4 < ] @+",
"% ) / < 4 0 i p w E I N V ..=.).(.4.c.m.u.D.L.T. + + + + + + + + + + + + + + + + +T.L.D.u.m.c.4.(.).=...V N I E w p i 0 4 < / #+",
"& ) / [ 4 a j q x E J O V +.=.!._.5.d.n.v.E.M.U. + + + + + + + + + + + + + + + + +U.M.E.v.n.d.5._.!.=.+.V O J E x q j a 4 [ / , ",
"& ) / [ 4 a j q y E J O W +.=.!._.5.e.o.w.F.N.V. + + + + + + + + + + + + + + + + +V.N.F.w.o.e.5._.!.=.+.W O J E y q j a 4 [ / , ",
"% ) / [ 4 a j q x E J O V +.=.!._.5.d.n.v.E.M.U. + + + + + + + + + + + + + + + + +U.M.E.v.n.d.5._.!.=.+.V O J E x q j a 4 [ / #+",
"$ ) / < 4 0 i p w E I N V ..=.).(.4.c.m.u.D.L.T. + + + + + + + + + + + + + + + + +T.L.D.u.m.c.4.(.).=...V N I E w p i 0 4 < / @+",
"# ) ] < 4 0 h p w D I N U  .*.'./.3.b.l.t.C.K.S. + + + + + + + + + + + + + + + + +S.K.C.t.l.b.3./.'.*. .U N I D w p h 0 4 < ] ( ",
"* ) ^ < 4 0 h o v C H M T ` &.,.^.2.a.k.s.B.J.R.`. + + + + + + + + + + + + + + +`.R.J.B.s.k.a.2.^.,.&.` T M H C v o h 0 4 < ^ ++",
"+ ' ^ : 3 9 g o u C G L S Z %.>.].1.0.j.o.A.D.Q.Z. + + + + + + + + + + + + + + +Z.Q.D.A.o.j.0.1.].>.%.Z S L G C u o g 9 3 : ^ + ",
". , ] : 2 8 f n q B G K R Y +.=.).|.9.b.r.z.I.P.N.T. + + + + + + + + + + + + +T.N.P.I.z.r.b.9.|.).=.+.Y R K G B q n f 8 2 : ] . ",
"  > ] / 1 8 e j q w E I N U  .&.,.}.8.i.q.n.u.C.Y..+T. + + + + + + + + + + +T..+Y.C.u.n.q.i.8.}.,.&. .U N I E w q j e 8 1 / ]   ",
"  ! ) / < 4 0 h t v C G L S $.;.=.!.(.h.p.k.H.v.X.Y.N.Z.`. + + + + + + +`.Z.N.Y.X.v.H.k.p.h.(.!.=.;.$.S L G C v t h 0 4 < / W.  ",
"  - ' ^ : 3 0 f s q B G Q O V  .&.[.].1.5.y.G.O.v.C.P.Q.R.S.T.U.V.U.T.S.R.Q.P.C.v.O.G.y.5.1.].[.&. .V O Q G B q s f 0 3 : ^ -   ",
"  = , ] / 1 8 e j p w D H L S $.;.=.7.g.2.0.c.G.H.u.I.D.J.K.L.M.N.M.L.K.J.D.I.u.H.G.c.0.2.g.7.=.;.$.S L H D w p j e 8 1 / ] =   ",
"    ( ) / < 4 0 h o q B G J N U ` <.6.!./.2.0.y.k.n.z.A.B.C.D.E.F.E.D.C.B.A.z.n.k.y.0.2./.!.6.<.` U N J G B q o h 0 4 < / x.    ",
"    ~ ' ^ : 2 8 e j p w P G #.R W  .&.>.!./.2.5.p.q.r.o.s.t.u.v.w.v.u.t.s.o.r.q.p.5.2./.!.>.&. .W R #.G P w p j e 8 2 : ^ ~     ",
"      _ ) / < 4 0 h o q y E I M S Y ..&.>.!.g.1.h.i.b.j.k.l.m.n.o.n.m.l.k.j.b.i.h.1.g.!.>.&...Y S M I E y q o h 0 4 < / f.      ",
"      + ' ^ : 1 8 e i t u X G J {.:.$...&.6.7.].(.8.9.0.a.b.c.d.e.d.c.b.a.0.9.8.(.].7.6.&...$.:.{.J G X u t i e 8 1 : ^ +       ",
"        5 ) / < 4 9 f n q w C G Q N :.Y  .<.=.[.!.}.|.1.2.3.4.5.5.5.4.3.2.1.|.}.!.[.=.<. .Y :.N Q G C w q n f 9 4 < / $+        ",
"        } ' ] m 1 4 0 h s q w C ~.Q {.S W ` ;.&.=.,.).].^./.(._._._.(./.^.].).,.=.&.;.` W S {.Q ~.C w q s h 0 4 1 m ] }         ",
"          b ) ^ : 2 8 a h o q w C G J M R U $. .;.&.=.>.,.'.).!.!.!.).'.,.>.=.&.;. .$.U R M J G C w q o h a 8 2 : ^ %+          ",
"            k ] / < 3 8 e h o q w C G I #.N S V $. .+.%.&.*.=.=.=.=.=.*.&.%.+. .$.V S N #.I G C w q o h e 8 3 < / &+            ",
"            c ' ] / < 3 0 e h o q w X E G J L O S U Y Z `  ...+.+.+... .` Z Y U S O L J G E X w q o h e 0 3 < / ] c             ",
"              l ) ] / [ 4 0 e h s q u y P G H Q L N R S T U V V W V V U T S R N L Q H G P y u q s h e 0 4 [ / ] *+              ",
"                z ) ^ m [ 3 8 a h n t q w B D G G I K L M N N O O O N N M L K I G G D B w q t n h a 8 3 [ m ^ =+                ",
"                  F ) ^ / < 3 8 0 f i o p q w B C E G G H I I J J J I I H G G E C B w q p o i f 0 8 3 < / ^ -+                  ",
"                    z ) ] / < 2 4 9 e h j o p q v w B C C D E E E E E D C C B w v q p o j h e 9 4 2 < / ] =+                    ",
"                      l ) ] / : 1 4 8 0 e h j s t q q u v w w x y x w w v u q q t s j h e 0 8 4 1 : / ] *+                      ",
"                        c @.] ^ m < 1 4 8 0 e f h j n o o p p q q q p p o o n j h f e 0 8 4 1 < m ^ &+c                         ",
"                            -.) ] / : < 2 4 8 0 0 e f g h h i j j j i h h g f e 0 0 8 4 2 < : / ] %+                            ",
"                              } 5 ) ^ / : < 1 3 4 8 8 9 0 0 0 a a a 0 0 0 9 8 8 4 3 1 < : / ^ $+}                               ",
"                                  + f.) ^ / / : < 1 2 3 4 4 4 4 4 4 4 4 4 3 2 1 < : / / ^ f.+                                   ",
"                                      ~ x.) ] ^ / / : : < < < [ [ [ < < < : : / / ^ ] x.~                                       ",
"                                          = - W.) ] ] ^ ^ ] / / / / / ] ^ ^ ] ] W.- =                                           ",
"                                                  . + ++# @+#+, , #+@+( +++ .                                                   "};
