/* XPM */
static char * yellow1_xpm[] = {
"64 64 192 2",
"  	c #FF00FF",
". 	c #D9C3DB",
"+ 	c #DFDBC8",
"@ 	c #EEE3B6",
"# 	c #F3D9A3",
"$ 	c #F8D290",
"% 	c #FCCB7E",
"& 	c #FFC872",
"* 	c #F8D190",
"= 	c #EEE4B6",
"- 	c #DEB1E4",
"; 	c #E2DFC5",
"> 	c #F4D8A0",
", 	c #FFCA71",
"' 	c #FFC870",
") 	c #FFC970",
"! 	c #FFC96F",
"~ 	c #FFC76E",
"{ 	c #FFC96E",
"] 	c #F4D6A0",
"^ 	c #DBD5CF",
"/ 	c #F3D8A2",
"( 	c #FFC76D",
"_ 	c #FFC76C",
": 	c #FFC86C",
"< 	c #FFC76B",
"[ 	c #FFC86B",
"} 	c #FFC66A",
"| 	c #F3D7A2",
"1 	c #F9CE8C",
"2 	c #FFC96D",
"3 	c #FFC86A",
"4 	c #FFC669",
"5 	c #FFC568",
"6 	c #F9CE8B",
"7 	c #DAD2D1",
"8 	c #F7D396",
"9 	c #FFC567",
"0 	c #FFC566",
"a 	c #FFC565",
"b 	c #FFC464",
"c 	c #F7D395",
"d 	c #DFADE5",
"e 	c #EFE1B3",
"f 	c #FFC463",
"g 	c #FFC462",
"h 	c #FFC461",
"i 	c #FFC361",
"j 	c #D9CFD3",
"k 	c #F8D090",
"l 	c #FFC769",
"m 	c #FFC15F",
"n 	c #FFC35F",
"o 	c #FFC25E",
"p 	c #FFC15D",
"q 	c #FFC25D",
"r 	c #FFC15C",
"s 	c #F8D18F",
"t 	c #E1DEC7",
"u 	c #FFC05B",
"v 	c #FFC05A",
"w 	c #FFC059",
"x 	c #FFC159",
"y 	c #FFBF59",
"z 	c #E1DDC6",
"A 	c #EAE4BF",
"B 	c #FFC360",
"C 	c #FFC15E",
"D 	c #FFC25B",
"E 	c #FFBF57",
"F 	c #FFBF56",
"G 	c #FFBE55",
"H 	c #FFBE54",
"I 	c #FFBF54",
"J 	c #FFBE53",
"K 	c #EDE5BD",
"L 	c #FFBE52",
"M 	c #FFBD51",
"N 	c #EDE5BC",
"O 	c #FFC057",
"P 	c #FFBD54",
"Q 	c #FFBD56",
"R 	c #FFBE57",
"S 	c #FFBF58",
"T 	c #FFC25C",
"U 	c #FFBE59",
"V 	c #FFBF5A",
"W 	c #FFBF5B",
"X 	c #FFBF5C",
"Y 	c #FFC260",
"Z 	c #FFC056",
"` 	c #FFC05F",
" .	c #FFC161",
"..	c #FFC162",
"+.	c #FFC163",
"@.	c #FFC055",
"#.	c #FFC265",
"$.	c #FFC267",
"%.	c #FFC168",
"&.	c #FFC169",
"*.	c #FFC369",
"=.	c #F8CF8F",
"-.	c #FFC15A",
";.	c #FFC368",
">.	c #FFC269",
",.	c #FFC46C",
"'.	c #FFC46E",
").	c #FFC36F",
"!.	c #FFC470",
"~.	c #FFC471",
"{.	c #EFE0B3",
"].	c #FFC05E",
"^.	c #FFC46B",
"/.	c #FFC36E",
"(.	c #FFC573",
"_.	c #FFC575",
":.	c #FFC577",
"<.	c #FFC679",
"[.	c #FFC479",
"}.	c #FFC26A",
"|.	c #FFC77B",
"1.	c #FFC77E",
"2.	c #FFC680",
"3.	c #FFC881",
"4.	c #FFC782",
"5.	c #FFC060",
"6.	c #FFC264",
"7.	c #FFC36C",
"8.	c #FFC67D",
"9.	c #FFC681",
"0.	c #FFC784",
"a.	c #FFC888",
"b.	c #FFC789",
"c.	c #FFC78B",
"d.	c #FFC98D",
"e.	c #E0DBC8",
"f.	c #FFC472",
"g.	c #FFC678",
"h.	c #FFC57C",
"i.	c #FFC886",
"j.	c #FFC98A",
"k.	c #FFCA8F",
"l.	c #FFCA92",
"m.	c #FFC995",
"n.	c #FFCB98",
"o.	c #FFC999",
"p.	c #FFC99A",
"q.	c #FFC87F",
"r.	c #FFC890",
"s.	c #FFCA9F",
"t.	c #FFCAA2",
"u.	c #FFC9A5",
"v.	c #FFC9A7",
"w.	c #FFC7A7",
"x.	c #FFCB94",
"y.	c #FFC7A1",
"z.	c #FFC5AC",
"A.	c #FFBFB1",
"B.	c #FFBBB4",
"C.	c #FFBBB7",
"D.	c #FFB7B7",
"E.	c #F3D7A1",
"F.	c #FFC887",
"G.	c #FFCB97",
"H.	c #FFC1AE",
"I.	c #FFBCB6",
"J.	c #FFBCD2",
"K.	c #FFC2D7",
"L.	c #E3E3E3",
"M.	c #FFCAA1",
"N.	c #FFC6AA",
"O.	c #FFBCB3",
"P.	c #FFBDD3",
"Q.	c #E3DFC5",
"R.	c #FFC5AB",
"S.	c #F4D79F",
"T.	c #FFC4D8",
"U.	c #EEE1B6",
"V.	c #F8D08F",
"W.	c #FCCA7C",
"X.	c #FFC76F",
"Y.	c #EEE2B6",
"Z.	c #F4D59F",
"`.	c #E2DEC5",
" +	c #F3D5A1",
".+	c #F9CF8A",
"++	c #F6D194",
"@+	c #EEE0B2",
"#+	c #F8D08E",
"$+	c #E2DDC6",
"%+	c #EAE3BF",
"&+	c #ECE5BC",
"                                                  . + @ # $ % & & % * # = + .                                                   ",
"                                          - ; > , ' ) ! ! ~ { { { { { ~ ! ! ) ' ] ; -                                           ",
"                                      ^ / , ) ! { ( _ : < < [ } } } [ < < : _ ( { ! ) | ^                                       ",
"                                  + 1 ' ! { 2 : [ 3 4 4 4 5 5 5 5 5 5 5 4 4 4 3 [ : 2 { ! 6 +                                   ",
"                              7 8 ' ! ( _ [ 4 4 5 9 0 0 a a b b b b b a a 0 0 9 5 4 4 [ _ ( ! c 7                               ",
"                          d e , ! ( : } 4 5 9 0 a b f g h h i i i i i h h g f b a 0 9 5 4 } : ( ! e                             ",
"                        j k ) { _ } l 5 0 a f g h i m n o p q q r q q p o n m i h g f a 0 5 l } _ { s j                         ",
"                      t , ! ( < 4 5 0 a f h i n o r u v w x y x x x y x w v u r o n i h f a 0 5 4 < ( ! z                       ",
"                    A ' ~ _ } 4 9 a f h B C r D w x E F G H H I J I H H G F E x w D r C B h f a 9 4 } _ ~ A                     ",
"                  K ' ~ _ 3 l 0 b g i C r v y E G H L M M M L L L L L M M M L H G E y v r C i g b 0 l 3 _ ~ N                   ",
"                A ' ~ : 4 5 0 f h m q v y O H L M L J P F Q E R S R E Q F P J L M L H O y v q m h f 0 5 4 : ~ A                 ",
"              t ' ~ : 4 5 a f i C T x E H L M J G E y U V W X p p p X W V U y E G J M L H E x T C i f a 5 4 : ~ z               ",
"            j , ~ _ 4 5 a g Y o D x Z J M J F S U r C `  . .....+..... . .` C r U S F J M J Z x D o Y g a 5 4 _ ~ j             ",
"            k ! _ 3 5 a g Y p v S @.M L G S v p `  .+.#.$.%.&.*.*.*.&.%.$.#.+. .` p v S G L M @.S v p Y g a 5 3 _ =.            ",
"          e ) ( } l 0 f Y p -.E H M J Q w X ` ..#.;.>.,.'.).!.~.~.~.!.).'.,.>.;.#...` X w Q J M H E -.p Y f 0 l } ( {.          ",
"        7 , { < 4 0 f i o v E H M H R V ]. .#.%.^./.~.(._.:.<.[.<.[.<.:._.(.~./.^.%.#. .].V R H M H E v o i f 0 4 < { 7         ",
"        8 ! _ 4 9 b h C D S H M H S W ` +.$.}./.~._.<.|.1.2.3.4.4.4.3.2.1.|.<._.~./.}.$.+.` W S H M H S D C h b 9 4 _ c         ",
"      + ' ( } 5 a g m T x @.M H S W 5.6.%.7.~._.<.8.9.0.a.b.c.d.d.d.c.b.a.0.9.8.<._.~.7.%.6.5.W S H M @.x T m g a 5 } ( e.      ",
"      1 ! : l 0 f i q x Z M J R W 5.6.&.'.f.g.h.3.i.j.k.l.m.n.o.p.o.n.m.l.k.j.i.3.h.g.f.'.&.6.5.W R J M Z x q i f 0 l : 6       ",
"    ^ ' ( } 5 a h C v E J L Q V ` 6.&./.(.[.q.0.j.r.m.p.s.t.u.v.w.v.u.t.s.p.m.r.j.0.q.[.(./.&.6.` V Q L J E v C h a 5 } ( ^     ",
"    / ! _ 4 0 f B r y H M G w ].+.%.'.(.<.2.i.d.x.p.y.w.z.A.B.C.D.C.B.A.z.w.y.p.x.d.i.2.<.(.'.%.+.].w G M H y r B f 0 4 _ E.    ",
"    , { [ 5 a h C v O L J S X  .$.7.f.[.2.F.k.G.s.v.H.I.J.K.L.L.L.L.L.K.J.I.H.v.s.G.k.F.2.[.f.7.$. .X S J L O v C h a 5 [ {     ",
"  ; ) 2 4 9 f i r y H M F v ` #.}.~.g.q.i.k.n.M.N.O.P.L.L.L.L.L.L.L.L.L.L.L.P.O.N.M.n.k.i.q.g.~.}.#.` v F M H y r i f 9 4 2 Q.  ",
"  > ! : 4 0 g n D E L J S p ..%./._.h.0.d.G.M.R.C.K.L.L.L.L.L.L.L.L.L.L.L.L.L.K.C.R.M.G.d.0.h._./.%...p S J L E D n g 0 4 : S.  ",
"  , { [ 5 a h o w G M G U ` #.^.~.<.3.j.x.s.N.C.T.L.L.L.L.L.L.L.L.L.L.L.L.L.L.L.T.C.N.s.x.j.3.<.~.^.#.` U G M G w o h a 5 [ {   ",
". ' ( 3 9 b i r x H L E r  .;./._.8.i.r.p.v.O.K.L.L.L.L.L.L.L.L.L.L.L.L.L.L.L.L.L.K.O.v.p.r.i.8._./.;. .r E L H x r i b 9 3 ( . ",
"+ ) _ 4 0 f m u E L J y C +.>.~.<.9.j.m.y.H.P.L.L.L.L.L.L.L.L.L.L.L.L.L.L.L.L.L.L.L.P.H.y.m.j.9.<.~.>.+.C y J L E u m f 0 4 _ e.",
"@ ! : 4 0 g n v F M P U ` #.,.(.|.0.k.p.w.I.L.L.L.L.L.L.L.L.L.L.L.L.L.L.L.L.L.L.L.L.L.I.w.p.k.0.|.(.,.#.` U P M F v n g 0 4 : U.",
"# ! < 4 a h o w G M F V  .$.'._.1.a.l.s.z.J.L.L.L.L.L.L.L.L.L.L.L.L.L.L.L.L.L.L.L.L.L.J.z.s.l.a.1._.'.$. .V F M G w o h a 4 < / ",
"$ ~ < 5 a h p x H M Q W  .%.).:.2.b.m.t.A.K.L.L.L.L.L.L.L.L.L.L.L.L.L.L.L.L.L.L.L.L.L.K.A.t.m.b.2.:.).%. .W Q M H x p h a 5 < V.",
"% { [ 5 b i q y H L E X ..&.!.<.3.c.n.u.B.L.L.L.L.L.L.L.L.L.L.L.L.L.L.L.L.L.L.L.L.L.L.L.B.u.n.c.3.<.!.&...X E L H y q i b 5 [ W.",
"& { } 5 b i q x I L R p ..*.~.[.4.d.o.v.C.L.L.L.L.L.L.L.L.L.L.L.L.L.L.L.L.L.L.L.L.L.L.L.C.v.o.d.4.[.~.*...p R L I x q i b 5 } X.",
"& { } 5 b i r x J L S p +.*.~.<.4.d.p.w.D.L.L.L.L.L.L.L.L.L.L.L.L.L.L.L.L.L.L.L.L.L.L.L.D.w.p.d.4.<.~.*.+.p S L J x r i b 5 } X.",
"% { } 5 b i q x I L R p ..*.~.[.4.d.o.v.C.L.L.L.L.L.L.L.L.L.L.L.L.L.L.L.L.L.L.L.L.L.L.L.C.v.o.d.4.[.~.*...p R L I x q i b 5 } W.",
"* { [ 5 b i q y H L E X ..&.!.<.3.c.n.u.B.L.L.L.L.L.L.L.L.L.L.L.L.L.L.L.L.L.L.L.L.L.L.L.B.u.n.c.3.<.!.&...X E L H y q i b 5 [ V.",
"# ~ < 5 a h p x H M Q W  .%.).:.2.b.m.t.A.K.L.L.L.L.L.L.L.L.L.L.L.L.L.L.L.L.L.L.L.L.L.K.A.t.m.b.2.:.).%. .W Q M H x p h a 5 < / ",
"= ! < 4 a h o w G M F V  .$.'._.1.a.l.s.z.J.L.L.L.L.L.L.L.L.L.L.L.L.L.L.L.L.L.L.L.L.L.J.z.s.l.a.1._.'.$. .V F M G w o h a 4 < Y.",
"+ ! : 4 0 g n v F M P U ` #.,.(.|.0.k.p.w.I.L.L.L.L.L.L.L.L.L.L.L.L.L.L.L.L.L.L.L.L.L.I.w.p.k.0.|.(.,.#.` U P M F v n g 0 4 : e.",
". ) _ 4 0 f m u E L J y C +.>.~.<.9.j.m.y.H.P.L.L.L.L.L.L.L.L.L.L.L.L.L.L.L.L.L.L.L.P.H.y.m.j.9.<.~.>.+.C y J L E u m f 0 4 _ . ",
"  ' ( 3 9 b i r x H L E r  .;./._.8.i.r.p.v.O.K.L.L.L.L.L.L.L.L.L.L.L.L.L.L.L.L.L.K.O.v.p.r.i.8._./.;. .r E L H x r i b 9 3 (   ",
"  ] { [ 5 a h o w G M G U ` #.^.~.<.3.j.x.s.N.C.T.L.L.L.L.L.L.L.L.L.L.L.L.L.L.L.T.C.N.s.x.j.3.<.~.^.#.` U G M G w o h a 5 [ Z.  ",
"  ; ! : 4 0 g n D E L J S p ..%./._.h.0.d.G.M.R.C.K.L.L.L.L.L.L.L.L.L.L.L.L.L.K.C.R.M.G.d.0.h._./.%...p S J L E D n g 0 4 : `.  ",
"    ) 2 4 9 f i r y H M F v ` #.}.~.g.q.i.k.n.M.N.O.P.L.L.L.L.L.L.L.L.L.L.L.P.O.N.M.n.k.i.q.g.~.}.#.` v F M H y r i f 9 4 2 -   ",
"    | { [ 5 a h C v O L J S X  .$.7.f.[.2.F.k.G.s.v.H.I.J.K.L.L.L.L.L.K.J.I.H.v.s.G.k.F.2.[.f.7.$. .X S J L O v C h a 5 [  +    ",
"    ^ ! _ 4 0 f B r y H M G w ].+.%.'.(.<.2.i.d.x.p.y.w.z.A.B.C.D.C.B.A.z.w.y.p.x.d.i.2.<.(.'.%.+.].w G M H y r B f 0 4 _ ^     ",
"      6 ( } 5 a h C v E J L Q V ` 6.&./.(.[.q.0.j.r.m.p.s.t.u.v.w.v.u.t.s.p.m.r.j.0.q.[.(./.&.6.` V Q L J E v C h a 5 } .+      ",
"      + ! : l 0 f i q x Z M J R W 5.6.&.'.f.g.h.3.i.j.k.l.m.n.o.p.o.n.m.l.k.j.i.3.h.g.f.'.&.6.5.W R J M Z x q i f 0 l : e.      ",
"        c ( } 5 a g m T x @.M H S W 5.6.%.7.~._.<.8.9.0.a.b.c.d.d.d.c.b.a.0.9.8.<._.~.7.%.6.5.W S H M @.x T m g a 5 } ++        ",
"        7 ! _ 4 9 b h C D S H M H S W ` +.$.}./.~._.<.|.1.2.3.4.4.4.3.2.1.|.<._.~./.}.$.+.` W S H M H S D C h b 9 4 _ 7         ",
"          e { < 4 0 f i o v E H M H R V ]. .#.%.^./.~.(._.:.<.[.<.[.<.:._.(.~./.^.%.#. .].V R H M H E v o i f 0 4 < @+          ",
"            s ( } l 0 f Y p -.E H M J Q w X ` ..#.;.>.,.'.).!.~.~.~.!.).'.,.>.;.#...` X w Q J M H E -.p Y f 0 l } #+            ",
"            j ! _ 3 5 a g Y p v S @.M L G S v p `  .+.#.$.%.&.*.*.*.&.%.$.#.+. .` p v S G L M @.S v p Y g a 5 3 _ j             ",
"              z ~ _ 4 5 a g Y o D x Z J M J F S U r C `  . .....+..... . .` C r U S F J M J Z x D o Y g a 5 4 _ $+              ",
"                A ~ : 4 5 a f i C T x E H L M J G E y U V W X p p p X W V U y E G J M L H E x T C i f a 5 4 : %+                ",
"                  N ~ : 4 5 0 f h m q v y O H L M L J P F Q E R S R E Q F P J L M L H O y v q m h f 0 5 4 : &+                  ",
"                    A ~ _ 3 l 0 b g i C r v y E G H L M M M L L L L L M M M L H G E y v r C i g b 0 l 3 _ %+                    ",
"                      z ~ _ } 4 9 a f h B C r D w x E F G H H I J I H H G F E x w D r C B h f a 9 4 } _ $+                      ",
"                        j =.( < 4 5 0 a f h i n o r u v w x y x x x y x w v u r o n i h f a 0 5 4 < #+                          ",
"                            {.{ _ } l 5 0 a f g h i m n o p q q r q q p o n m i h g f a 0 5 l } _ @+                            ",
"                              7 c ( : } 4 5 9 0 a b f g h h i i i i i h h g f b a 0 9 5 4 } : ++                                ",
"                                  e.6 ( _ [ 4 4 5 9 0 0 a a b b b b b a a 0 0 9 5 4 4 [ _ .+e.                                  ",
"                                      ^ E.{ 2 : [ 3 4 4 4 5 5 5 5 5 5 5 4 4 4 3 [ : 2  +^                                       ",
"                                          - Q.S.{ ( _ : < < [ } } } [ < < : _ ( Z.`.                                            ",
"                                                  . e.U./ V.W.X.X.W.V./ Y.e..                                                   "};
