/* XPM */
static char * yellow2_xpm[] = {
"64 64 214 2",
"  	c #FF00FF",
". 	c #DAC4DB",
"+ 	c #E0DCC9",
"@ 	c #EFE4B7",
"# 	c #F3D7A6",
"$ 	c #F8CE94",
"% 	c #FCC882",
"& 	c #FFC375",
"* 	c #FFC575",
"= 	c #F8CE93",
"- 	c #EFE2B7",
"; 	c #DEB1E4",
"> 	c #E3E0C6",
", 	c #F4D6A3",
"' 	c #FFC574",
") 	c #FFC573",
"! 	c #FFC372",
"~ 	c #FFC472",
"{ 	c #FFC371",
"] 	c #FFC471",
"^ 	c #E4E0C6",
"/ 	c #DCD6CF",
"( 	c #F4D7A5",
"_ 	c #FFC373",
": 	c #FFC271",
"< 	c #FFC270",
"[ 	c #FFC26F",
"} 	c #FFC26E",
"| 	c #F4D7A4",
"1 	c #F9CB8E",
"2 	c #FFC470",
"3 	c #FFC16D",
"4 	c #FFC06C",
"5 	c #FFC16C",
"6 	c #FFBF6B",
"7 	c #FFC16B",
"8 	c #F9CB8D",
"9 	c #DBD3D2",
"0 	c #F7D19A",
"a 	c #FFC06D",
"b 	c #FFBF6A",
"c 	c #FFC16A",
"d 	c #FFC069",
"e 	c #FFBF69",
"f 	c #FFBE68",
"g 	c #F7CF98",
"h 	c #EFE1B5",
"i 	c #FFBE67",
"j 	c #FFBE66",
"k 	c #FFBE65",
"l 	c #FFBD64",
"m 	c #EFE1B4",
"n 	c #DAD0D3",
"o 	c #F9CD92",
"p 	c #FFC068",
"q 	c #FFBD63",
"r 	c #FFBD62",
"s 	c #FFBB61",
"t 	c #FFBD61",
"u 	c #FFBC61",
"v 	c #F8CC92",
"w 	c #E2DEC7",
"x 	c #FFBF66",
"y 	c #FFBC62",
"z 	c #FFBC60",
"A 	c #FFBC5F",
"B 	c #FFBA5E",
"C 	c #FFBA5D",
"D 	c #FFBB5D",
"E 	c #FFBA5C",
"F 	c #EAE5C0",
"G 	c #FFBB5F",
"H 	c #FFBA5B",
"I 	c #FFB95A",
"J 	c #FFB959",
"K 	c #FFB759",
"L 	c #FFB758",
"M 	c #EBE5C0",
"N 	c #EDE6BE",
"O 	c #FFB757",
"P 	c #FFB756",
"Q 	c #FFB655",
"R 	c #FFB654",
"S 	c #FFB754",
"T 	c #FFB653",
"U 	c #EDE5BE",
"V 	c #FFB652",
"W 	c #FFB551",
"X 	c #FFB451",
"Y 	c #FFBB60",
"Z 	c #FFBC5E",
"` 	c #FFB857",
" .	c #FFB555",
"..	c #FFB556",
"+.	c #FFB657",
"@.	c #FFB658",
"#.	c #FFC067",
"$.	c #FFB858",
"%.	c #FFB855",
"&.	c #FFB659",
"*.	c #FFB75A",
"=.	c #FFB55B",
"-.	c #FFB75D",
";.	c #FFB65D",
">.	c #FFB85E",
",.	c #FFB65E",
"'.	c #FFB65C",
").	c #FFB85F",
"!.	c #FFB861",
"~.	c #FFB761",
"{.	c #FFB863",
"].	c #FFB864",
"^.	c #FFB664",
"/.	c #F8CC91",
"(.	c #FFB760",
"_.	c #FFB762",
":.	c #FFB967",
"<.	c #FFB969",
"[.	c #FFB869",
"}.	c #FFB86A",
"|.	c #FFB86B",
"1.	c #EFE0B4",
"2.	c #FFB866",
"3.	c #FFB96E",
"4.	c #FFB970",
"5.	c #FFBA71",
"6.	c #FFB872",
"7.	c #FFB973",
"8.	c #FFB765",
"9.	c #FFB86C",
"0.	c #FFB976",
"a.	c #FFB878",
"b.	c #FFB879",
"c.	c #FFB97B",
"d.	c #FFB97C",
"e.	c #F7D198",
"f.	c #FFB75B",
"g.	c #FFB65F",
"h.	c #FFB767",
"i.	c #FFBA78",
"j.	c #FFBA7B",
"k.	c #FFB97E",
"l.	c #FFBA81",
"m.	c #FFB883",
"n.	c #FFB985",
"o.	c #FFB986",
"p.	c #FFB987",
"q.	c #FFB96D",
"r.	c #FFB871",
"s.	c #FFB977",
"t.	c #FFBA80",
"u.	c #FFB984",
"v.	c #FFB788",
"w.	c #FFB88B",
"x.	c #FFB88E",
"y.	c #FFB891",
"z.	c #FFB692",
"A.	c #FFB892",
"B.	c #FFBA84",
"C.	c #FFB989",
"D.	c #FFB893",
"E.	c #FFB697",
"F.	c #FFB39A",
"G.	c #FFB39D",
"H.	c #FFB29F",
"I.	c #FFB2A0",
"J.	c #FFBA74",
"K.	c #FFB880",
"L.	c #FFB88D",
"M.	c #FFB693",
"N.	c #FFB59A",
"O.	c #FFAFA5",
"P.	c #FFAAA9",
"Q.	c #FFACB2",
"R.	c #FFAFBB",
"S.	c #FFAFBE",
"T.	c #F4D6A4",
"U.	c #FFB881",
"V.	c #FFB890",
"W.	c #FFAEA7",
"X.	c #FFAEB8",
"Y.	c #FFB4CD",
"Z.	c #FFBAD1",
"`.	c #FFBED4",
" +	c #FFC1D5",
".+	c #FFC2D6",
"++	c #FFB1A2",
"@+	c #FFABB2",
"#+	c #FFB5CE",
"$+	c #FFC6D9",
"%+	c #E3E3E3",
"&+	c #E3DFC6",
"*+	c #FFAEA3",
"=+	c #FFC5D8",
"-+	c #F4D4A2",
";+	c #EC87F1",
">+	c #FFBBD2",
",+	c #DAC3DB",
"'+	c #EEE2B7",
")+	c #F3D6A5",
"!+	c #FCC67F",
"~+	c #FFC272",
"{+	c #F8CD92",
"]+	c #F4D5A1",
"^+	c #E4DFC6",
"/+	c #F3D5A4",
"(+	c #F9CA8C",
"_+	c #F7CF97",
":+	c #DAD2D1",
"<+	c #EFDFB4",
"[+	c #F8CC90",
"}+	c #EBE4C0",
"|+	c #EDE5BD",
"1+	c #DFAEE5",
"                                                  . + @ # $ % & * % = # - + .                                                   ",
"                                          ; > , ' ) ! ~ { { ] ] ] ] ] { { ~ ! ) , ^ ;                                           ",
"                                      / ( _ ! ~ ] : < < [ [ [ } } } [ [ [ < < : ] ~ ! | /                                       ",
"                                  + 1 ) ~ ] ] 2 [ } 3 4 5 6 7 7 7 7 7 6 5 4 3 } [ 2 ] ] ~ 8 +                                   ",
"                              9 0 ) { : < [ a 4 6 b c d e d f f f f f d e d c b 6 4 a [ < : { g 9                               ",
"                            h _ ~ : < } 3 6 b d d f i j k k k l l l k k k j i f d d b 6 3 } < : ~ m                             ",
"                        n o ! ] < } 3 7 c e p j k l q r s t s s u s s t s r q l k j p e c 7 3 } < ] v n                         ",
"                      w ' ~ : [ 3 6 c e i x l y t u z A B C C D E D C C B A z u t y l x i e c 6 3 [ : ~ w                       ",
"                    F _ { < } 4 b e i k l r u G B E H I J K J J L J J K J I H E B G u r l k i e b 4 } < { M                     ",
"                  N _ { < } 5 e f j l r u A C H J J O P Q R S T T T S R Q P O J J H C A u r l j f e 5 } < { U                   ",
"                F _ { < a 7 d i k q s G C I K O Q S V W W X V T T T V X W W V S Q O K I C G s q k i d 7 a < { M                 ",
"              w _ { < 3 7 e i l r Y Z H K ` R V W V R  ...+.@.@.K @.@.+... .R V W V R ` K H Z Y r l i e 7 3 < { w               ",
"            n ' { < a 7 e #.l t G E I $.%.V W T  .+.&.*.=.-.;.>.,.>.;.-.=.*.&.+. .T W V %.$.I E G t l #.e 7 a < { n             ",
"            o ~ < } 7 e #.l t A E J P T W T P @.*.'.).!.~.{.].].^.].].{.~.!.).'.*.@.P T W T P J E A t l #.e 7 } < /.            ",
"          h ! : } 5 d i l t A H J Q V X Q @.*.;.(._.^.:.<.[.}.|.|.|.}.[.<.:.^._.(.;.*.@.Q X V Q J H A t l i d 5 } : 1.          ",
"        9 _ ] [ 4 e i l t A H J Q W T ..&.'.(.{.2.[.|.3.4.5.6.7.7.7.6.5.4.3.|.[.2.{.(.'.&...T W Q J H A t l i e 4 [ ] 9         ",
"        0 ~ < 3 b f k r G E J Q W T +.*.,.~.8.[.9.4.6.0.a.b.c.d.d.d.c.b.a.0.6.4.9.[.8.~.,.*.+.T W Q J E G r k f b 3 < e.        ",
"      + ) : } 6 e j q Y E J Q W T +.f.g.{.h.|.4.7.i.j.k.l.m.n.o.p.o.n.m.l.k.j.i.7.4.|.h.{.g.f.+.T W Q J E Y q j e 6 } : +       ",
"      1 { < 3 c i l s Z I P V T +.f.g.].<.q.r.s.c.t.u.v.w.x.y.z.A.z.y.x.w.v.u.t.c.s.r.q.<.].g.f.+.T V P I Z s l i c 3 < 8       ",
"    / ) : } 7 e k r G H $.T X ..*.g.].[.3.7.b.k.B.C.x.D.E.F.G.H.I.H.G.F.E.D.x.C.B.k.b.7.3.[.].g.*...X T $.H G r k e 7 } : /     ",
"    ( ~ < 3 c i l u C K %.W Q &.,.{.<.3.J.b.K.p.L.M.N.I.O.P.Q.R.S.R.Q.P.O.I.N.M.L.p.K.b.J.3.<.{.,.&.Q W %.K C u l i c 3 < T.    ",
"    _ ] [ 6 e x r A I ` V T @.'.~.h.q.7.b.U.v.V.E.H.W.X.Y.Z.`. +.+ +`.Z.Y.X.W.H.E.V.v.U.b.7.q.h.~.'.@.T V ` I A r x e 6 [ ]     ",
"  > ! ] a b p l u C K R W P *.(.8.|.r.b.K.v.y.N.++@+#+`.$+%+%+%+%+%+%+%+$+`.#+@+++N.y.v.K.b.r.|.8.(.*.P W R K C u l p b a ] &+  ",
"  , ~ 2 4 d j y G H O V T @.;.{.[.4.s.k.p.V.N.*+R.Z.=+%+%+%+%+%+%+%+%+%+%+%+=+Z.R.*+N.V.p.k.s.4.[.{.;.@.T V O H G y j d 4 2 -+  ",
";+' ] [ 6 d k t B J Q W  .*.(.2.9.7.c.B.L.E.++R.>+%+%+%+%+%+%+%+%+%+%+%+%+%+%+%+>+R.++E.L.B.c.7.9.2.(.*. .W Q J B t k d 6 [ ]   ",
". ) : } b f l u E J S V +.'._.[.4.i.t.C.M.H.@+Z.%+%+%+%+%+%+%+%+%+%+%+%+%+%+%+%+%+Z.@+H.M.C.t.i.4.[._.'.+.V S J E u l f b } : ,+",
"+ ! < 3 c i q z H O V R &.).^.|.6.j.u.x.N.W.#+=+%+%+%+%+%+%+%+%+%+%+%+%+%+%+%+%+%+=+#+W.N.x.u.j.6.|.^.).&.R V O H z q i c 3 < + ",
"@ ~ < 4 d j r A I P W  .*.!.:.3.0.k.v.D.I.X.`.%+%+%+%+%+%+%+%+%+%+%+%+%+%+%+%+%+%+%+`.X.I.D.v.k.0.3.:.!.*. .W P I A r j d 4 < '+",
"# { [ 5 e k s B J Q W ..=.~.<.4.a.l.w.E.O.Y.$+%+%+%+%+%+%+%+%+%+%+%+%+%+%+%+%+%+%+%+$+Y.O.E.w.l.a.4.<.~.=...W Q J B s k e 5 [ )+",
"$ { [ 6 d k t C K R X +.-.{.[.5.b.m.x.F.P.Z.%+%+%+%+%+%+%+%+%+%+%+%+%+%+%+%+%+%+%+%+%+Z.P.F.x.m.b.5.[.{.-.+.X R K C t k d 6 [ v ",
"% ] [ 7 f k s C J S V @.;.].}.6.c.n.y.G.Q.`.%+%+%+%+%+%+%+%+%+%+%+%+%+%+%+%+%+%+%+%+%+`.Q.G.y.n.c.6.}.].;.@.V S J C s k f 7 [ !+",
"& ] } 7 f l s D J T T @.>.].|.7.d.o.z.H.R. +%+%+%+%+%+%+%+%+%+%+%+%+%+%+%+%+%+%+%+%+%+ +R.H.z.o.d.7.|.].>.@.T T J D s l f 7 } ~+",
"* ] } 7 f l u E L T T K ,.^.|.7.d.p.A.I.S..+%+%+%+%+%+%+%+%+%+%+%+%+%+%+%+%+%+%+%+%+%+.+S.I.A.p.d.7.|.^.,.K T T L E u l f 7 } ~+",
"% ] } 7 f l s D J T T @.>.].|.7.d.o.z.H.R. +%+%+%+%+%+%+%+%+%+%+%+%+%+%+%+%+%+%+%+%+%+ +R.H.z.o.d.7.|.].>.@.T T J D s l f 7 } !+",
"= ] [ 7 f k s C J S V @.;.].}.6.c.n.y.G.Q.`.%+%+%+%+%+%+%+%+%+%+%+%+%+%+%+%+%+%+%+%+%+`.Q.G.y.n.c.6.}.].;.@.V S J C s k f 7 [ {+",
"# { [ 6 d k t C K R X +.-.{.[.5.b.m.x.F.P.Z.%+%+%+%+%+%+%+%+%+%+%+%+%+%+%+%+%+%+%+%+%+Z.P.F.x.m.b.5.[.{.-.+.X R K C t k d 6 [ )+",
"- { [ 5 e k s B J Q W ..=.~.<.4.a.l.w.E.O.Y.$+%+%+%+%+%+%+%+%+%+%+%+%+%+%+%+%+%+%+%+$+Y.O.E.w.l.a.4.<.~.=...W Q J B s k e 5 [ '+",
"+ ~ < 4 d j r A I P W  .*.!.:.3.0.k.v.D.I.X.`.%+%+%+%+%+%+%+%+%+%+%+%+%+%+%+%+%+%+%+`.X.I.D.v.k.0.3.:.!.*. .W P I A r j d 4 < + ",
". ! < 3 c i q z H O V R &.).^.|.6.j.u.x.N.W.#+=+%+%+%+%+%+%+%+%+%+%+%+%+%+%+%+%+%+=+#+W.N.x.u.j.6.|.^.).&.R V O H z q i c 3 < ,+",
"  ) : } b f l u E J S V +.'._.[.4.i.t.C.M.H.@+Z.%+%+%+%+%+%+%+%+%+%+%+%+%+%+%+%+%+Z.@+H.M.C.t.i.4.[._.'.+.V S J E u l f b } :   ",
"  , ] [ 6 d k t B J Q W  .*.(.2.9.7.c.B.L.E.++R.>+%+%+%+%+%+%+%+%+%+%+%+%+%+%+%+>+R.++E.L.B.c.7.9.2.(.*. .W Q J B t k d 6 [ ]+  ",
"  ^ ~ 2 4 d j y G H O V T @.;.{.[.4.s.k.p.V.N.*+R.Z.=+%+%+%+%+%+%+%+%+%+%+%+=+Z.R.*+N.V.p.k.s.4.[.{.;.@.T V O H G y j d 4 2 ^+  ",
"  ; ! ] a b p l u C K R W P *.(.8.|.r.b.K.v.y.N.++@+#+`.$+%+%+%+%+%+%+%+$+`.#+@+++N.y.v.K.b.r.|.8.(.*.P W R K C u l p b a ] ;   ",
"    | ] [ 6 e x r A I ` V T @.'.~.h.q.7.b.U.v.V.E.H.W.X.Y.Z.`. +.+ +`.Z.Y.X.W.H.E.V.v.U.b.7.q.h.~.'.@.T V ` I A r x e 6 [ /+    ",
"    / ~ < 3 c i l u C K %.W Q &.,.{.<.3.J.b.K.p.L.M.N.I.O.P.Q.R.S.R.Q.P.O.I.N.M.L.p.K.b.J.3.<.{.,.&.Q W %.K C u l i c 3 < /     ",
"      8 : } 7 e k r G H $.T X ..*.g.].[.3.7.b.k.B.C.x.D.E.F.G.H.I.H.G.F.E.D.x.C.B.k.b.7.3.[.].g.*...X T $.H G r k e 7 } (+      ",
"      + { < 3 c i l s Z I P V T +.f.g.].<.q.r.s.c.t.u.v.w.x.y.z.A.z.y.x.w.v.u.t.c.s.r.q.<.].g.f.+.T V P I Z s l i c 3 < +       ",
"        g : } 6 e j q Y E J Q W T +.f.g.{.h.|.4.7.i.j.k.l.m.n.o.p.o.n.m.l.k.j.i.7.4.|.h.{.g.f.+.T W Q J E Y q j e 6 } _+        ",
"        9 ~ < 3 b f k r G E J Q W T +.*.,.~.8.[.9.4.6.0.a.b.c.d.d.d.c.b.a.0.6.4.9.[.8.~.,.*.+.T W Q J E G r k f b 3 < :+        ",
"          m ] [ 4 e i l t A H J Q W T ..&.'.(.{.2.[.|.3.4.5.6.7.7.7.6.5.4.3.|.[.2.{.(.'.&...T W Q J H A t l i e 4 [ <+          ",
"            v : } 5 d i l t A H J Q V X Q @.*.;.(._.^.:.<.[.}.|.|.|.}.[.<.:.^._.(.;.*.@.Q X V Q J H A t l i d 5 } [+            ",
"            n ~ < } 7 e #.l t A E J P T W T P @.*.'.).!.~.{.].].^.].].{.~.!.).'.*.@.P T W T P J E A t l #.e 7 } < n             ",
"              w { < a 7 e #.l t G E I $.%.V W T  .+.&.*.=.-.;.>.,.>.;.-.=.*.&.+. .T W V %.$.I E G t l #.e 7 a < w               ",
"                M { < 3 7 e i l r Y Z H K ` R V W V R  ...+.@.@.K @.@.+... .R V W V R ` K H Z Y r l i e 7 3 < }+                ",
"                  U { < a 7 d i k q s G C I K O Q S V W W X V T T T V X W W V S Q O K I C G s q k i d 7 a < |+                  ",
"                    M { < } 5 e f j l r u A C H J J O P Q R S T T T S R Q P O J J H C A u r l j f e 5 } < }+                    ",
"                      w { < } 4 b e i k l r u G B E H I J K J J L J J K J I H E B G u r l k i e b 4 } < w                       ",
"                        n /.: [ 3 6 c e i x l y t u z A B C C D E D C C B A z u t y l x i e c 6 3 [ [+n                         ",
"                          1+1.] < } 3 7 c e p j k l q r s t s s u s s t s r q l k j p e c 7 3 } < <+                            ",
"                              9 e.: < } 3 6 b d d f i j k k k l l l k k k j i f d d b 6 3 } < _+:+                              ",
"                                  + 8 : < [ a 4 6 b c d e d f f f f f d e d c b 6 4 a [ < (++                                   ",
"                                      / T.] ] 2 [ } 3 4 5 6 7 7 7 7 7 6 5 4 3 } [ 2 ] /+/                                       ",
"                                          ; &+-+] : < < [ [ [ } } } [ [ [ < < : ]+^+;                                           ",
"                                                  ,++ '+)+v !+~+~+!+{+)+'++ ,+                                                  "};
