/* XPM */
static char * yellow4_xpm[] = {
"64 64 202 2",
"  	c #FF00FF",
". 	c #DBC6DC",
"+ 	c #E3DFCB",
"@ 	c #F0E2BC",
"# 	c #F4D3AC",
"$ 	c #F9C498",
"% 	c #FCBB87",
"& 	c #FFB67C",
"* 	c #FFB47B",
"= 	c #F9C497",
"- 	c #F4D2AC",
"; 	c #F0E1BC",
"> 	c #DFB3E4",
", 	c #E6E2C8",
"' 	c #F5D0A8",
") 	c #FFB47A",
"! 	c #FFB479",
"~ 	c #FFB378",
"{ 	c #F5CFA8",
"] 	c #DED8D0",
"^ 	c #F4D2AB",
"/ 	c #FFB57A",
"( 	c #FFB377",
"_ 	c #FFB276",
": 	c #FFB376",
"< 	c #FFB275",
"[ 	c #F4D0AA",
"} 	c #FAC193",
"| 	c #FFB277",
"1 	c #FFB174",
"2 	c #FFB173",
"3 	c #FFB072",
"4 	c #FAC092",
"5 	c #DCD5D3",
"6 	c #F7C79D",
"7 	c #FFB073",
"8 	c #FFB172",
"9 	c #FFAF71",
"0 	c #FFAF70",
"a 	c #F7C79C",
"b 	c #F1E0B9",
"c 	c #FFAD6F",
"d 	c #FFAF6F",
"e 	c #FFAD6E",
"f 	c #FFAD6D",
"g 	c #FFAD6C",
"h 	c #F0DFB9",
"i 	c #DCD2D4",
"j 	c #F9C296",
"k 	c #FFAD6B",
"l 	c #FFAB6A",
"m 	c #FFAB69",
"n 	c #FFAC69",
"o 	c #E4E1C9",
"p 	c #FFAB68",
"q 	c #FFA967",
"r 	c #FFA966",
"s 	c #FFA965",
"t 	c #E5E1C9",
"u 	c #EEE7C3",
"v 	c #FFAB6B",
"w 	c #FFAD6A",
"x 	c #FFA864",
"y 	c #FFA863",
"z 	c #FFA762",
"A 	c #FFA761",
"B 	c #FFA861",
"C 	c #FFA661",
"D 	c #EEE6C3",
"E 	c #EFE5C1",
"F 	c #FFA660",
"G 	c #FFA55F",
"H 	c #FFA45E",
"I 	c #FFA45D",
"J 	c #FFA35C",
"K 	c #EEE5C1",
"L 	c #FFA763",
"M 	c #FFA65F",
"N 	c #FFA35B",
"O 	c #FFA25A",
"P 	c #FFA259",
"Q 	c #FFA258",
"R 	c #FFA968",
"S 	c #FFA45C",
"T 	c #FFA45A",
"U 	c #FFA057",
"V 	c #FFA156",
"W 	c #FFA054",
"X 	c #FF9E53",
"Y 	c #FF9F53",
"Z 	c #FF9E52",
"` 	c #FFA055",
" .	c #FF9E51",
"..	c #FF9C51",
"+.	c #FF9D53",
"@.	c #FF9E54",
"#.	c #FF9D54",
"$.	c #FF9D55",
"%.	c #FF9C56",
"&.	c #FF9C58",
"*.	c #FF9B59",
"=.	c #FF9D5A",
"-.	c #FF9C5A",
";.	c #FFAA67",
">.	c #FFA056",
",.	c #FF9D59",
"'.	c #FF9C5C",
").	c #FF9B5E",
"!.	c #FF9B5F",
"~.	c #FF9A60",
"{.	c #FF9B61",
"].	c #FF9A61",
"^.	c #F0DEB9",
"/.	c #FFA45B",
"(.	c #FF9D56",
"_.	c #FF9C5B",
":.	c #FF9A62",
"<.	c #FF9964",
"[.	c #FF9966",
"}.	c #FF9867",
"|.	c #FF9868",
"1.	c #FF9A68",
"2.	c #FF9769",
"3.	c #FF976C",
"4.	c #FF976E",
"5.	c #FF966F",
"6.	c #FF9670",
"7.	c #FF9671",
"8.	c #FF9C5D",
"9.	c #FF976B",
"0.	c #FF9571",
"a.	c #FF9374",
"b.	c #FF9477",
"c.	c #FF9479",
"d.	c #FF9279",
"e.	c #E2DFCB",
"f.	c #FF9C55",
"g.	c #FF9A67",
"h.	c #FF996B",
"i.	c #FF9573",
"j.	c #FF9578",
"k.	c #FF947B",
"l.	c #FF907E",
"m.	c #FF8E81",
"n.	c #FF8E82",
"o.	c #FF8E84",
"p.	c #FF8C84",
"q.	c #FF9A63",
"r.	c #FF976D",
"s.	c #FF927C",
"t.	c #FF8C85",
"u.	c #FF8A89",
"v.	c #FF8C91",
"w.	c #FF8F98",
"x.	c #FF909C",
"y.	c #FF919E",
"z.	c #FF9A69",
"A.	c #FF9080",
"B.	c #FF8B8E",
"C.	c #FF95AB",
"D.	c #FF9AB9",
"E.	c #FF9CBD",
"F.	c #FF9EBE",
"G.	c #FF9FBF",
"H.	c #F4D0A9",
"I.	c #FF9574",
"J.	c #FF97B2",
"K.	c #FFA3C2",
"L.	c #FFA9C5",
"M.	c #FFACC8",
"N.	c #FFAFCA",
"O.	c #FFB0CA",
"P.	c #FF8A8D",
"Q.	c #FF93A5",
"R.	c #FFA4C2",
"S.	c #FFB4CD",
"T.	c #FFBAD1",
"U.	c #FFC0D5",
"V.	c #FFC3D7",
"W.	c #FFC4D8",
"X.	c #FF94A9",
"Y.	c #FFB3CD",
"Z.	c #FFBED4",
"`.	c #E3E3E3",
" +	c #F5CEA7",
".+	c #FFAAC7",
"++	c #FFB7CF",
"@+	c #EFE0BB",
"#+	c #F4D1AB",
"$+	c #FCB985",
"%+	c #F4CFAA",
"&+	c #F5CDA7",
"*+	c #E7E2C8",
"=+	c #F4CEA9",
"-+	c #FAC091",
";+	c #F7C59B",
">+	c #F0DDB9",
",+	c #F9C094",
"'+	c #DBD2D4",
")+	c #EEE5C3",
"!+	c #EEE4C1",
"~+	c #E0AFE6",
"                                                  . + @ # $ % & * % = - ; + .                                                   ",
"                                          > , ' ) ! ! ! ! ! ~ ~ ~ ~ ~ ! ! ! ! ! { , >                                           ",
"                                      ] ^ / ! ! ~ ~ ( ( _ : : < < < : : _ ( ( ~ ~ ! ! [ ]                                       ",
"                                  + } ! ! ~ | _ : < 1 1 2 2 3 3 3 3 3 2 2 1 1 < : _ | ~ ! 4 +                                   ",
"                              5 6 ! ! ~ ( : 1 7 2 8 9 9 9 0 0 0 0 0 0 0 9 9 9 8 2 7 1 : ( ~ ! a 5                               ",
"                            b / ! ~ ( < 1 2 9 9 0 c d e f f g g g g g f f e d c 0 9 9 2 1 < ( ~ ! h                             ",
"                        i j ! ~ ( < 1 3 9 9 c e f g k l m m n m m m n m m l k g f e c 9 9 3 1 < ( ~ j i                         ",
"                      o ) ! ~ _ 1 2 9 0 d f g l m m p q r r s s s s s r r q p m m l g f d 0 9 2 1 _ ~ ! t                       ",
"                    u / ! ( < 7 8 9 d f v w m p r s x y z A A B C B A A z y x s r p m w v f d 9 8 7 < ( ! D                     ",
"                  E / ! ( < 2 9 0 e g w m q s x z A F G H I I I J I I I H G F A z x s q m w g e 0 9 2 < ( ! K                   ",
"                u / ! ( 1 3 9 d f k n q s L A F M I N O P P P Q Q Q P P P O N I M F A L s q n k f d 9 3 1 ( ! D                 ",
"              o / ! ( 1 3 9 d g w R r x A F H S T P U V W X Y Z Z Z Y X W V U P T S H F A x r R w g d 9 3 1 ( ! t               ",
"            i ) ! ( 1 3 9 e g m p s z C H S P Q ` X  ...Z +.@.#.#.#.@.+.Z .. .X ` Q P S H C z s p m g e 9 3 1 ( ! i             ",
"            j ! ( < 3 9 e g m q x A G I T Q ` Z ..X $.%.&.*.*.=.-.=.*.*.&.%.$.X ..Z ` Q T I G A x q m g e 9 3 < ( j             ",
"          b ! ~ < 2 9 d g m ;.x A M N P >.Y  .+.%.,.-.'.).!.~.{.].{.~.!.).'.-.,.%.+. .Y >.P N M A x ;.m g d 9 2 < ~ ^.          ",
"        5 / ~ _ 7 9 d g m q x A H /.Q `  .X (.*._.).{.:.<.[.}.|.|.|.}.[.<.:.{.)._.*.(.X  .` Q /.H A x q m g d 9 7 _ ~ 5         ",
"        6 ! ( 1 8 0 f w p x A H O Q W ..#.&._.).].<.1.2.3.4.5.6.7.6.5.4.3.2.1.<.].)._.&.#...W Q O H A x p w f 0 8 1 ( a         ",
"      + ! ~ < 2 9 e k R s A M /.Q X  .$.*.8.{.<.|.9.5.0.a.b.c.c.d.c.c.b.a.0.5.9.|.<.{.8.*.$. .X Q /.M A s R k e 9 2 < ~ e.      ",
"      } ! ( 1 9 d g n r z G N Q W  .f.*.).:.g.h.5.i.j.k.l.m.n.o.p.o.n.m.l.k.j.i.5.h.g.:.).*.f. .W Q N G z r n g d 9 1 ( 4       ",
"    ] ! ~ < 3 0 f w q x C I P ` ..$.*.).q.|.r.0.b.s.m.t.u.v.w.x.y.x.w.v.u.t.m.s.b.0.r.|.q.).*.$...` P I C x q w f 0 3 < ~ ]     ",
"    ^ ! ( 1 9 d v m s A H T >. .#.*.).q.z.4.i.d.A.t.B.y.C.D.E.F.G.F.E.D.C.y.B.t.A.d.i.4.z.q.).*.#. .>.T H A s m v d 9 1 ( H.    ",
"  > / ~ : 2 9 f w q L F S Q Y X &.8.:.|.4.I.k.m.u.x.J.F.K.L.M.N.O.N.M.L.K.F.J.x.u.m.k.I.4.|.:.8.&.X Y Q S F L q w f 9 2 : ~ >   ",
"  , ! | 1 9 c g m s A H P `  .(._.{.g.r.i.k.n.P.Q.E.R.M.S.T.U.V.W.V.U.T.S.M.R.E.Q.P.n.k.i.r.g.{._.(. .` P H A s m g c 9 1 | ,   ",
"  ' ! _ 7 9 e l p x F S Q Z +.*.).<.h.0.d.m.P.X.F.L.Y.Z.`.`.`.`.`.`.`.`.`.Z.Y.L.F.X.P.m.d.0.h.<.).*.+.Z Q S F x p l e 9 7 _  +  ",
"  ) ~ : 2 0 f m r z M T ` ..%._.].|.5.b.A.u.Q.F..+++W.`.`.`.`.`.`.`.`.`.`.`.W.++.+F.Q.u.A.b.5.|.]._.%...` T M z r m f 0 2 : ~   ",
". ! ~ < 8 c g m s A I P X X ,.).<.9.i.s.t.x.E.L.++`.`.`.`.`.`.`.`.`.`.`.`.`.`.`.++L.E.x.t.s.i.9.<.).,.X X P I A s m g c 8 < ~ . ",
"+ ! ( 1 9 d k p x F N U  .$.-.{.1.5.j.m.B.J.R.Y.W.`.`.`.`.`.`.`.`.`.`.`.`.`.`.`.W.Y.R.J.B.m.j.5.1.{.-.$. .U N F x p k d 9 1 ( + ",
"@ ! ( 1 9 e l q y G O V ..%.'.:.2.0.k.t.y.F.M.Z.`.`.`.`.`.`.`.`.`.`.`.`.`.`.`.`.`.Z.M.F.y.t.k.0.2.:.'.%...V O G y q l e 9 1 ( @+",
"# ! _ 2 9 f m r z H P W Z &.).<.3.a.l.u.C.K.S.`.`.`.`.`.`.`.`.`.`.`.`.`.`.`.`.`.`.`.S.K.C.u.l.a.3.<.).&.Z W P H z r m f 9 2 _ #+",
"$ ! : 2 0 f m r A I P X +.*.!.[.4.b.m.v.D.L.T.`.`.`.`.`.`.`.`.`.`.`.`.`.`.`.`.`.`.`.T.L.D.v.m.b.4.[.!.*.+.X P I A r m f 0 2 : j ",
"% ~ : 3 0 g n s A I P Y @.*.~.}.5.c.n.w.E.M.U.`.`.`.`.`.`.`.`.`.`.`.`.`.`.`.`.`.`.`.U.M.E.w.n.c.5.}.~.*.@.Y P I A s n g 0 3 : $+",
"& ~ < 3 0 g m s B I Q Z #.=.{.|.6.c.o.x.F.N.V.`.`.`.`.`.`.`.`.`.`.`.`.`.`.`.`.`.`.`.V.N.F.x.o.c.6.|.{.=.#.Z Q I B s m g 0 3 < ) ",
"* ~ < 3 0 g m s C J Q Z #.-.].|.7.d.p.y.G.O.W.`.`.`.`.`.`.`.`.`.`.`.`.`.`.`.`.`.`.`.W.O.G.y.p.d.7.|.].-.#.Z Q J C s m g 0 3 < ) ",
"% ~ < 3 0 g m s B I Q Z #.=.{.|.6.c.o.x.F.N.V.`.`.`.`.`.`.`.`.`.`.`.`.`.`.`.`.`.`.`.V.N.F.x.o.c.6.|.{.=.#.Z Q I B s m g 0 3 < $+",
"= ~ : 3 0 g n s A I P Y @.*.~.}.5.c.n.w.E.M.U.`.`.`.`.`.`.`.`.`.`.`.`.`.`.`.`.`.`.`.U.M.E.w.n.c.5.}.~.*.@.Y P I A s n g 0 3 : j ",
"- ! : 2 0 f m r A I P X +.*.!.[.4.b.m.v.D.L.T.`.`.`.`.`.`.`.`.`.`.`.`.`.`.`.`.`.`.`.T.L.D.v.m.b.4.[.!.*.+.X P I A r m f 0 2 : %+",
"; ! _ 2 9 f m r z H P W Z &.).<.3.a.l.u.C.K.S.`.`.`.`.`.`.`.`.`.`.`.`.`.`.`.`.`.`.`.S.K.C.u.l.a.3.<.).&.Z W P H z r m f 9 2 _ @+",
"+ ! ( 1 9 e l q y G O V ..%.'.:.2.0.k.t.y.F.M.Z.`.`.`.`.`.`.`.`.`.`.`.`.`.`.`.`.`.Z.M.F.y.t.k.0.2.:.'.%...V O G y q l e 9 1 ( + ",
". ! ( 1 9 d k p x F N U  .$.-.{.1.5.j.m.B.J.R.Y.W.`.`.`.`.`.`.`.`.`.`.`.`.`.`.`.W.Y.R.J.B.m.j.5.1.{.-.$. .U N F x p k d 9 1 ( . ",
"  ! ~ < 8 c g m s A I P X X ,.).<.9.i.s.t.x.E.L.++`.`.`.`.`.`.`.`.`.`.`.`.`.`.`.++L.E.x.t.s.i.9.<.).,.X X P I A s m g c 8 < ~   ",
"  { ~ : 2 0 f m r z M T ` ..%._.].|.5.b.A.u.Q.F..+++W.`.`.`.`.`.`.`.`.`.`.`.W.++.+F.Q.u.A.b.5.|.]._.%...` T M z r m f 0 2 : &+  ",
"  , ! _ 7 9 e l p x F S Q Z +.*.).<.h.0.d.m.P.X.F.L.Y.Z.`.`.`.`.`.`.`.`.`.Z.Y.L.F.X.P.m.d.0.h.<.).*.+.Z Q S F x p l e 9 7 _ *+  ",
"    ! | 1 9 c g m s A H P `  .(._.{.g.r.i.k.n.P.Q.E.R.M.S.T.U.V.W.V.U.T.S.M.R.E.Q.P.n.k.i.r.g.{._.(. .` P H A s m g c 9 1 | >   ",
"    [ ~ : 2 9 f w q L F S Q Y X &.8.:.|.4.I.k.m.u.x.J.F.K.L.M.N.O.N.M.L.K.F.J.x.u.m.k.I.4.|.:.8.&.X Y Q S F L q w f 9 2 : =+    ",
"    ] ! ( 1 9 d v m s A H T >. .#.*.).q.z.4.i.d.A.t.B.y.C.D.E.F.G.F.E.D.C.y.B.t.A.d.i.4.z.q.).*.#. .>.T H A s m v d 9 1 ( ]     ",
"      4 ~ < 3 0 f w q x C I P ` ..$.*.).q.|.r.0.b.s.m.t.u.v.w.x.y.x.w.v.u.t.m.s.b.0.r.|.q.).*.$...` P I C x q w f 0 3 < -+      ",
"      + ! ( 1 9 d g n r z G N Q W  .f.*.).:.g.h.5.i.j.k.l.m.n.o.p.o.n.m.l.k.j.i.5.h.g.:.).*.f. .W Q N G z r n g d 9 1 ( +       ",
"        a ~ < 2 9 e k R s A M /.Q X  .$.*.8.{.<.|.9.5.0.a.b.c.c.d.c.c.b.a.0.5.9.|.<.{.8.*.$. .X Q /.M A s R k e 9 2 < ;+        ",
"        5 ! ( 1 8 0 f w p x A H O Q W ..#.&._.).].<.1.2.3.4.5.6.7.6.5.4.3.2.1.<.].)._.&.#...W Q O H A x p w f 0 8 1 ( 5         ",
"          h ~ _ 7 9 d g m q x A H /.Q `  .X (.*._.).{.:.<.[.}.|.|.|.}.[.<.:.{.)._.*.(.X  .` Q /.H A x q m g d 9 7 _ >+          ",
"            j ~ < 2 9 d g m ;.x A M N P >.Y  .+.%.,.-.'.).!.~.{.].{.~.!.).'.-.,.%.+. .Y >.P N M A x ;.m g d 9 2 < ,+            ",
"            i ! ( < 3 9 e g m q x A G I T Q ` Z ..X $.%.&.*.*.=.-.=.*.*.&.%.$.X ..Z ` Q T I G A x q m g e 9 3 < ( '+            ",
"              t ! ( 1 3 9 e g m p s z C H S P Q ` X  ...Z +.@.#.#.#.@.+.Z .. .X ` Q P S H C z s p m g e 9 3 1 ( t               ",
"                D ! ( 1 3 9 d g w R r x A F H S T P U V W X Y Z Z Z Y X W V U P T S H F A x r R w g d 9 3 1 ( )+                ",
"                  K ! ( 1 3 9 d f k n q s L A F M I N O P P P Q Q Q P P P O N I M F A L s q n k f d 9 3 1 ( !+                  ",
"                    D ! ( < 2 9 0 e g w m q s x z A F G H I I I J I I I H G F A z x s q m w g e 0 9 2 < ( )+                    ",
"                      t ! ( < 7 8 9 d f v w m p r s x y z A A B C B A A z y x s r p m w v f d 9 8 7 < ( t                       ",
"                        i j ~ _ 1 2 9 0 d f g l m m p q r r s s s s s r r q p m m l g f d 0 9 2 1 _ ,+'+                        ",
"                            ^.~ ( < 1 3 9 9 c e f g k l m m n m m m n m m l k g f e c 9 9 3 1 < ( >+~+                          ",
"                              5 a ~ ( < 1 2 9 9 0 c d e f f g g g g g f f e d c 0 9 9 2 1 < ( ;+5                               ",
"                                  e.4 ~ ( : 1 7 2 8 9 9 9 0 0 0 0 0 0 0 9 9 9 8 2 7 1 : ( -++                                   ",
"                                      ] H.~ | _ : < 1 1 2 2 3 3 3 3 3 2 2 1 1 < : _ | =+]                                       ",
"                                          > ,  +~ ~ ( ( _ : : < < < : : _ ( ( ~ &+*+>                                           ",
"                                                  . + @+#+j $+) ) $+j %+@++ .                                                   "};
