/* XPM */
static char * yellow5_xpm[] = {
"64 64 192 2",
"  	c #FF00FF",
". 	c #DCC6DC",
"+ 	c #E3E0CC",
"@ 	c #F0E3BD",
"# 	c #F4D0AD",
"$ 	c #F9C29A",
"% 	c #FDB789",
"& 	c #FFB17F",
"* 	c #F0E1BD",
"= 	c #E0B3E4",
"- 	c #E7E3C9",
"; 	c #F5CDA9",
"> 	c #FFB17E",
", 	c #FFB07D",
"' 	c #FFB17D",
") 	c #FFB07C",
"! 	c #FFB17C",
"~ 	c #FFAF7B",
"{ 	c #F5CEA9",
"] 	c #DED9D1",
"^ 	c #F5CFAC",
"/ 	c #FFAF7A",
"( 	c #FFAE79",
"_ 	c #FFAF79",
": 	c #F5D0AC",
"< 	c #FABE95",
"[ 	c #FFAE7A",
"} 	c #FFAD78",
"| 	c #FFAC77",
"1 	c #FFAD77",
"2 	c #FFAC76",
"3 	c #FABD94",
"4 	c #DDD6D3",
"5 	c #F8C59F",
"6 	c #FFAC78",
"7 	c #FFAC75",
"8 	c #FFAA74",
"9 	c #FFAB74",
"0 	c #FFAA73",
"a 	c #F8C59E",
"b 	c #F1E0BA",
"c 	c #FFAD76",
"d 	c #FFAB73",
"e 	c #FFAA72",
"f 	c #FFA971",
"g 	c #F1DFBA",
"h 	c #DCD3D5",
"i 	c #F9C098",
"j 	c #FFA871",
"k 	c #FFA870",
"l 	c #FFA86F",
"m 	c #FFA76E",
"n 	c #FFA66D",
"o 	c #FFA76D",
"p 	c #E5E2CA",
"q 	c #FFA76C",
"r 	c #FFA66B",
"s 	c #FFA56A",
"t 	c #FFA469",
"u 	c #FFA569",
"v 	c #E5E1CA",
"w 	c #EEE8C4",
"x 	c #FFA468",
"y 	c #FFA367",
"z 	c #FFA266",
"A 	c #FFA366",
"B 	c #FFA265",
"C 	c #EFE7C4",
"D 	c #EFE6C2",
"E 	c #FFA264",
"F 	c #FFA063",
"G 	c #FFA062",
"H 	c #FFA162",
"I 	c #FFA061",
"J 	c #FFA163",
"K 	c #FF9F61",
"L 	c #FF9E5F",
"M 	c #FF9E5E",
"N 	c #FF9D5D",
"O 	c #FF9C5C",
"P 	c #FFA66C",
"Q 	c #FF9D5C",
"R 	c #FF9C5A",
"S 	c #FF9B59",
"T 	c #FF9A59",
"U 	c #FF9A58",
"V 	c #FFA267",
"W 	c #FF9A57",
"X 	c #FF9855",
"Y 	c #FF9854",
"Z 	c #FF9753",
"` 	c #FF9652",
" .	c #FF9752",
"..	c #FF9651",
"+.	c #FF9552",
"@.	c #FF9453",
"#.	c #FF9454",
"$.	c #FF9555",
"%.	c #FF9455",
"&.	c #FF9553",
"*.	c #FF9457",
"=.	c #FF9359",
"-.	c #FF925A",
";.	c #FF945B",
">.	c #FF925B",
",.	c #F1DEBA",
"'.	c #FF9F60",
").	c #FF9451",
"!.	c #FF9456",
"~.	c #FF935D",
"{.	c #FF915F",
"].	c #FF9261",
"^.	c #FF9061",
"/.	c #FF9162",
"(.	c #FF925C",
"_.	c #FF8F64",
":.	c #FF8E66",
"<.	c #FF8E68",
"[.	c #FF8E69",
"}.	c #FF8D69",
"|.	c #FF8F6A",
"1.	c #FF9554",
"2.	c #FF9458",
"3.	c #FF9066",
"4.	c #FF8D6C",
"5.	c #FF8C6E",
"6.	c #FF8C71",
"7.	c #FF8971",
"8.	c #FF8972",
"9.	c #FF8B73",
"0.	c #FF8F65",
"a.	c #FF8C6D",
"b.	c #FF8B71",
"c.	c #FF8974",
"d.	c #FF8778",
"e.	c #FF8679",
"f.	c #FF857C",
"g.	c #FF847D",
"h.	c #FF915D",
"i.	c #FF8E67",
"j.	c #FF8875",
"k.	c #FF847E",
"l.	c #FF8183",
"m.	c #FF858B",
"n.	c #FF8793",
"o.	c #FF8997",
"p.	c #FF847F",
"q.	c #FF8489",
"r.	c #FF8EA5",
"s.	c #FF92B2",
"t.	c #FF94B8",
"u.	c #FF96B9",
"v.	c #FF97BA",
"w.	c #F5CEAB",
"x.	c #FF867B",
"y.	c #FF8FAA",
"z.	c #FF9BBD",
"A.	c #FFA0BF",
"B.	c #FFA4C2",
"C.	c #FFA6C4",
"D.	c #FFA7C4",
"E.	c #FF8387",
"F.	c #FF8B9F",
"G.	c #FF9CBD",
"H.	c #FFABC7",
"I.	c #FFB2CB",
"J.	c #FFB6CE",
"K.	c #FFBAD1",
"L.	c #E7E3C8",
"M.	c #FF8CA3",
"N.	c #FFAAC7",
"O.	c #FFB4CD",
"P.	c #FFBED4",
"Q.	c #FFC6D9",
"R.	c #E3E3E3",
"S.	c #F5CBA8",
"T.	c #FFA2C1",
"U.	c #FFAEC9",
"V.	c #FFBCD2",
"W.	c #F0E0BD",
"X.	c #F4CEAC",
"Y.	c #FCB588",
"Z.	c #F4CFAC",
"`.	c #F5CCA8",
" +	c #DFB3E4",
".+	c #F4CEAB",
"++	c #DFD9D1",
"@+	c #FABC93",
"#+	c #F7C39D",
"$+	c #F9BE96",
"%+	c #EEE6C4",
"&+	c #EFE4C2",
"                                                  . + @ # $ % & & % $ # * + .                                                   ",
"                                          = - ; > , ' ) ) ! ~ ~ ~ ~ ~ ! ) ) ' , { - =                                           ",
"                                      ] ^ > ' ) ~ ~ / ( ( _ ( ( ( ( ( _ ( ( / ~ ~ ) ' : ]                                       ",
"                                  + < , ) ~ [ ( _ ( } } | 1 2 2 2 2 2 1 | } } ( _ ( [ ~ ) 3 +                                   ",
"                              4 5 , ) ~ / _ 6 } 1 2 7 8 9 9 0 0 0 0 0 9 9 8 7 2 1 } 6 _ / ~ ) a 4                               ",
"                            b > ) ~ ( ( } 1 c 7 9 d e f f f f f f f f f f f e d 9 7 c 1 } ( ( ~ ) g                             ",
"                        h i ' ~ / ( } 2 7 9 d f j k l l m n n o o o n n m l l k j f d 9 7 2 } ( / ~ i h                         ",
"                      p > ) ~ ( } 1 7 9 e f k l m o q r s s t u u u t s s r q o m l k f e 9 7 1 } ( ~ ) v                       ",
"                    w , ) / ( } 2 9 e f k m o r s u t x y z A B B B A z y x t u s r o m k f e 9 2 } ( / ) C                     ",
"                  D , ! / ( 1 7 0 f k m o r t x y A E F G H I I I I I H G F E A y x t r o m k f 0 7 1 ( / ! D                   ",
"                w , ~ ( 6 2 8 e j l n r t x z E J I K L M M N N O N N M M L K I J E z x t r n l j e 8 2 6 ( ~ C                 ",
"              p , ! ( } 2 9 e f m P s x z E G K L N Q R S T U U U U U T S R Q N L K G E z x s P m f e 9 2 } ( ! v               ",
"            h > ) / 6 2 9 e k m r u V B G K M O R T W X Y Z `  ... .` Z Y X W T R O M K G B V u r m k e 9 2 6 / ) h             ",
"            i ) / ( 2 9 e k n r t z E I L O T U X Z ....+.@.#.$.%.$.#.@.+.....Z X U T O L I E z t r n k e 9 2 ( / i             ",
"          b ' ~ ( 1 8 e k n r t A J K M R U X ` ..&.%.*.=.=.-.;.>.;.-.=.=.*.%.&...` X U R M K J A t r n k e 8 1 ( ~ ,.          ",
"        4 > ~ ( } 7 e f m r t A G '.N S W Z ).@.!.=.;.~.{.].^./././.^.].{.~.;.=.!.@.).Z W S N '.G A t r m f e 7 } ( ~ 4         ",
"        5 ) / } 2 0 j m r t A G '.O T X ..+.!.=.(.{.^._.:.<.[.}.|.}.[.<.:._.^.{.(.=.!.+...X T O '.G A t r m j 0 2 } / a         ",
"      + , ~ ( 1 9 f l P u z J '.O T X ..1.2.;.{./.3.}.4.5.6.7.8.9.8.7.6.5.4.}.3./.{.;.2.1...X T O '.J z u P l f 9 1 ( ~ +       ",
"      < ) ( } 7 e k n s V E K N T X ..#.=.~.^.0.[.a.b.c.d.e.f.g.g.g.f.e.d.c.b.a.[.0.^.~.=.#...X T N K E V s n k e 7 } ( 3       ",
"    ] , ~ ( 2 9 f m r x B I M S X ..#.=.h./.i.4.b.j.e.k.l.m.n.o.o.o.n.m.l.k.e.j.b.4.i./.h.=.#...X S M I B x r m f 9 2 ( ~ ]     ",
"    ^ ) / } 7 e k o t z G L R W ..1.=.h./.<.a.9.e.p.q.o.r.s.t.u.v.u.t.s.r.o.q.p.e.9.a.<./.h.=.1...W R L G z t o k e 7 } / w.    ",
"    > ~ _ 1 9 f m r x E K O U Z +.2.~./.<.5.c.x.l.o.y.u.z.A.B.C.D.C.B.A.z.u.y.o.l.x.c.5.<./.~.2.+.Z U O K E x r m f 9 1 _ ~ =   ",
"  - ' [ 6 c d k o t z G M T X ).!.;.^.i.a.c.f.E.F.t.G.B.H.I.J.K.K.K.J.I.H.B.G.t.F.E.f.c.a.i.^.;.!.).X T M G z t o k d c 6 [ L.  ",
"  ; ) ( } 7 f l r x E K O U ` @.=.{.0.4.9.x.E.M.u.A.N.O.P.Q.R.R.R.R.R.Q.P.O.N.A.u.M.E.x.9.4.0.{.=.@.` U O K E x r l f 7 } ( S.  ",
"  > ~ _ 1 9 j m s y J L R X ..!.(./.[.b.e.l.F.u.T.U.K.R.R.R.R.R.R.R.R.R.R.R.K.U.T.u.F.l.e.b.[./.(.!...X R L J y s m j 9 1 _ ~   ",
". , ~ ( 2 d k o u A I N T Z &.=.{.3.a.j.p.o.t.A.U.V.R.R.R.R.R.R.R.R.R.R.R.R.R.V.U.A.t.o.p.j.a.3.{.=.&.Z T N I A u o k d 2 ( ~ . ",
"+ ' / } 7 e l q t E K Q W ..%.;.^.}.b.e.q.y.G.N.K.R.R.R.R.R.R.R.R.R.R.R.R.R.R.R.K.N.G.y.q.e.b.}.^.;.%...W Q K E t q l e 7 } / + ",
"@ ) ( } 8 f l r x F L R X ..*.~._.4.c.k.o.u.B.O.R.R.R.R.R.R.R.R.R.R.R.R.R.R.R.R.R.O.B.u.o.k.c.4._.~.*...X R L F x r l f 8 } ( W.",
"# ) ( | 9 f m s y G M S Y +.=.{.:.5.d.l.r.z.H.P.R.R.R.R.R.R.R.R.R.R.R.R.R.R.R.R.R.P.H.z.r.l.d.5.:.{.=.+.Y S M G y s m f 9 | ( X.",
"$ ! _ 1 9 f n s z H M T Z @.=.].<.6.e.m.s.A.I.Q.R.R.R.R.R.R.R.R.R.R.R.R.R.R.R.R.R.Q.I.A.s.m.e.6.<.].=.@.Z T M H z s n f 9 1 _ i ",
"% ~ ( 2 0 f n t A I N U ` #.-.^.[.7.f.n.t.B.J.R.R.R.R.R.R.R.R.R.R.R.R.R.R.R.R.R.R.R.J.B.t.n.f.7.[.^.-.#.` U N I A t n f 0 2 ( Y.",
"& ~ ( 2 0 f o u B I N U  .$.;./.}.8.g.o.u.C.K.R.R.R.R.R.R.R.R.R.R.R.R.R.R.R.R.R.R.R.K.C.u.o.g.8.}./.;.$. .U N I B u o f 0 2 ( , ",
"& ~ ( 2 0 f o u B I O U ..%.>./.|.9.g.o.v.D.K.R.R.R.R.R.R.R.R.R.R.R.R.R.R.R.R.R.R.R.K.D.v.o.g.9.|./.>.%...U O I B u o f 0 2 ( ' ",
"% ~ ( 2 0 f o u B I N U  .$.;./.}.8.g.o.u.C.K.R.R.R.R.R.R.R.R.R.R.R.R.R.R.R.R.R.R.R.K.C.u.o.g.8.}./.;.$. .U N I B u o f 0 2 ( Y.",
"$ ~ ( 2 0 f n t A I N U ` #.-.^.[.7.f.n.t.B.J.R.R.R.R.R.R.R.R.R.R.R.R.R.R.R.R.R.R.R.J.B.t.n.f.7.[.^.-.#.` U N I A t n f 0 2 ( i ",
"# ! _ 1 9 f n s z H M T Z @.=.].<.6.e.m.s.A.I.Q.R.R.R.R.R.R.R.R.R.R.R.R.R.R.R.R.R.Q.I.A.s.m.e.6.<.].=.@.Z T M H z s n f 9 1 _ Z.",
"* ) ( | 9 f m s y G M S Y +.=.{.:.5.d.l.r.z.H.P.R.R.R.R.R.R.R.R.R.R.R.R.R.R.R.R.R.P.H.z.r.l.d.5.:.{.=.+.Y S M G y s m f 9 | ( W.",
"+ ) ( } 8 f l r x F L R X ..*.~._.4.c.k.o.u.B.O.R.R.R.R.R.R.R.R.R.R.R.R.R.R.R.R.R.O.B.u.o.k.c.4._.~.*...X R L F x r l f 8 } ( + ",
". ' / } 7 e l q t E K Q W ..%.;.^.}.b.e.q.y.G.N.K.R.R.R.R.R.R.R.R.R.R.R.R.R.R.R.K.N.G.y.q.e.b.}.^.;.%...W Q K E t q l e 7 } / . ",
"  , ~ ( 2 d k o u A I N T Z &.=.{.3.a.j.p.o.t.A.U.V.R.R.R.R.R.R.R.R.R.R.R.R.R.V.U.A.t.o.p.j.a.3.{.=.&.Z T N I A u o k d 2 ( ~   ",
"  { ~ _ 1 9 j m s y J L R X ..!.(./.[.b.e.l.F.u.T.U.K.R.R.R.R.R.R.R.R.R.R.R.K.U.T.u.F.l.e.b.[./.(.!...X R L J y s m j 9 1 _ `.  ",
"  - ) ( } 7 f l r x E K O U ` @.=.{.0.4.9.x.E.M.u.A.N.O.P.Q.R.R.R.R.R.Q.P.O.N.A.u.M.E.x.9.4.0.{.=.@.` U O K E x r l f 7 } ( L.  ",
"    ' [ 6 c d k o t z G M T X ).!.;.^.i.a.c.f.E.F.t.G.B.H.I.J.K.K.K.J.I.H.B.G.t.F.E.f.c.a.i.^.;.!.).X T M G z t o k d c 6 [  +  ",
"    : ~ _ 1 9 f m r x E K O U Z +.2.~./.<.5.c.x.l.o.y.u.z.A.B.C.D.C.B.A.z.u.y.o.l.x.c.5.<./.~.2.+.Z U O K E x r m f 9 1 _ .+    ",
"    ] ) / } 7 e k o t z G L R W ..1.=.h./.<.a.9.e.p.q.o.r.s.t.u.v.u.t.s.r.o.q.p.e.9.a.<./.h.=.1...W R L G z t o k e 7 } / ++    ",
"      3 ~ ( 2 9 f m r x B I M S X ..#.=.h./.i.4.b.j.e.k.l.m.n.o.o.o.n.m.l.k.e.j.b.4.i./.h.=.#...X S M I B x r m f 9 2 ( @+      ",
"      + ) ( } 7 e k n s V E K N T X ..#.=.~.^.0.[.a.b.c.d.e.f.g.g.g.f.e.d.c.b.a.[.0.^.~.=.#...X T N K E V s n k e 7 } ( +       ",
"        a ~ ( 1 9 f l P u z J '.O T X ..1.2.;.{./.3.}.4.5.6.7.8.9.8.7.6.5.4.}.3./.{.;.2.1...X T O '.J z u P l f 9 1 ( #+        ",
"        4 ) / } 2 0 j m r t A G '.O T X ..+.!.=.(.{.^._.:.<.[.}.|.}.[.<.:._.^.{.(.=.!.+...X T O '.G A t r m j 0 2 } / 4         ",
"          g ~ ( } 7 e f m r t A G '.N S W Z ).@.!.=.;.~.{.].^./././.^.].{.~.;.=.!.@.).Z W S N '.G A t r m f e 7 } ( ,.          ",
"            i ~ ( 1 8 e k n r t A J K M R U X ` ..&.%.*.=.=.-.;.>.;.-.=.=.*.%.&...` X U R M K J A t r n k e 8 1 ( $+            ",
"            h ) / ( 2 9 e k n r t z E I L O T U X Z ....+.@.#.$.%.$.#.@.+.....Z X U T O L I E z t r n k e 9 2 ( / h             ",
"              v ) / 6 2 9 e k m r u V B G K M O R T W X Y Z `  ... .` Z Y X W T R O M K G B V u r m k e 9 2 6 / v               ",
"                C ! ( } 2 9 e f m P s x z E G K L N Q R S T U U U U U T S R Q N L K G E z x s P m f e 9 2 } ( %+                ",
"                  D ~ ( 6 2 8 e j l n r t x z E J I K L M M N N O N N M M L K I J E z x t r n l j e 8 2 6 ( &+                  ",
"                    C ! / ( 1 7 0 f k m o r t x y A E F G H I I I I I H G F E A y x t r o m k f 0 7 1 ( / %+                    ",
"                      v ) / ( } 2 9 e f k m o r s u t x y z A B B B A z y x t u s r o m k f e 9 2 } ( / v                       ",
"                        h i ~ ( } 1 7 9 e f k l m o q r s s t u u u t s s r q o m l k f e 9 7 1 } ( $+h                         ",
"                            ,.~ / ( } 2 7 9 d f j k l l m n n o o o n n m l l k j f d 9 7 2 } ( / ,.                            ",
"                              4 a ~ ( ( } 1 c 7 9 d e f f f f f f f f f f f e d 9 7 c 1 } ( ( #+4                               ",
"                                  + 3 ~ / _ 6 } 1 2 7 8 9 9 0 0 0 0 0 9 9 8 7 2 1 } 6 _ / @++                                   ",
"                                      ] w.~ [ ( _ ( } } | 1 2 2 2 2 2 1 | } } ( _ ( [ .+++                                      ",
"                                          = L.S.~ ~ / ( ( _ ( ( ( ( ( _ ( ( / ~ `.L. +                                          ",
"                                                  . + W.X.i Y., ' Y.i Z.W.+ .                                                   "};
