/* XPM */
static char * blue3_xpm[] = {
"64 64 227 2",
"  	c #FF00FF",
". 	c #F667FF",
"+ 	c #E69AFF",
"@ 	c #D7AEFF",
"# 	c #C9B7FF",
"$ 	c #BCB9FF",
"% 	c #B2B7FF",
"& 	c #AAB4FF",
"* 	c #A6B2FF",
"= 	c #B1B6FF",
"- 	c #C8B7FF",
"; 	c #ED8AFF",
"> 	c #D4B1FF",
", 	c #BAB8FF",
"' 	c #A5B2FF",
") 	c #A5B1FF",
"! 	c #A4B0FF",
"~ 	c #A3B0FF",
"{ 	c #A3AFFF",
"] 	c #A2AFFF",
"^ 	c #B9B8FF",
"/ 	c #F85AFF",
"( 	c #DCA9FF",
"_ 	c #BBB9FF",
": 	c #A4B1FF",
"< 	c #A2AEFF",
"[ 	c #A1AEFF",
"} 	c #A1ADFF",
"| 	c #A0ADFF",
"1 	c #9FACFF",
"2 	c #BBB8FF",
"3 	c #F761FF",
"4 	c #B0B6FF",
"5 	c #9EABFF",
"6 	c #9DABFF",
"7 	c #9DAAFF",
"8 	c #9CAAFF",
"9 	c #9CA9FF",
"0 	c #AFB5FF",
"a 	c #DEA7FF",
"b 	c #B4B7FF",
"c 	c #9EACFF",
"d 	c #9BA8FF",
"e 	c #9AA8FF",
"f 	c #9AA7FF",
"g 	c #99A7FF",
"h 	c #99A6FF",
"i 	c #98A6FF",
"j 	c #B3B6FF",
"k 	c #EE87FF",
"l 	c #C6B8FF",
"m 	c #9BA9FF",
"n 	c #97A5FF",
"o 	c #96A5FF",
"p 	c #96A4FF",
"q 	c #95A4FF",
"r 	c #95A3FF",
"s 	c #C6B7FF",
"t 	c #E0A4FF",
"u 	c #B1B7FF",
"v 	c #94A3FF",
"w 	c #93A2FF",
"x 	c #93A1FF",
"y 	c #92A1FF",
"z 	c #91A0FF",
"A 	c #DFA4FF",
"B 	c #FC44FF",
"C 	c #D5B0FF",
"D 	c #909FFF",
"E 	c #8F9FFF",
"F 	c #8E9EFF",
"G 	c #8E9DFF",
"H 	c #8D9DFF",
"I 	c #8D9CFF",
"J 	c #8C9CFF",
"K 	c #FB44FF",
"L 	c #F763FF",
"M 	c #CFB4FF",
"N 	c #8F9EFF",
"O 	c #8B9BFF",
"P 	c #8A9AFF",
"Q 	c #8999FF",
"R 	c #8898FF",
"S 	c #8798FF",
"T 	c #CEB5FF",
"U 	c #8697FF",
"V 	c #8596FF",
"W 	c #8495FF",
"X 	c #8394FF",
"Y 	c #8293FF",
"Z 	c #CDB5FF",
"` 	c #8192FF",
" .	c #8091FF",
"..	c #7F90FF",
"+.	c #7E8FFF",
"@.	c #7D8FFF",
"#.	c #7D8EFF",
"$.	c #CEB4FF",
"%.	c #8696FF",
"&.	c #8494FF",
"*.	c #7F91FF",
"=.	c #7C8DFF",
"-.	c #7A8CFF",
";.	c #7B8DFF",
">.	c #7C8EFF",
",.	c #7D90FF",
"'.	c #D5AFFF",
").	c #8797FF",
"!.	c #7C8FFF",
"~.	c #7E91FF",
"{.	c #8093FF",
"].	c #8194FF",
"^.	c #8295FF",
"/.	c #8396FF",
"(.	c #8397FF",
"_.	c #8497FF",
":.	c #8899FF",
"<.	c #8498FF",
"[.	c #869AFF",
"}.	c #889CFF",
"|.	c #899DFF",
"1.	c #8A9EFF",
"2.	c #8A9FFF",
"3.	c #8B9FFF",
"4.	c #8595FF",
"5.	c #8699FF",
"6.	c #8DA2FF",
"7.	c #8FA4FF",
"8.	c #90A6FF",
"9.	c #91A7FF",
"0.	c #92A8FF",
"a.	c #C5B7FF",
"b.	c #8092FF",
"c.	c #8599FF",
"d.	c #8CA1FF",
"e.	c #95ABFF",
"f.	c #97ADFF",
"g.	c #98AFFF",
"h.	c #9AB1FF",
"i.	c #9BB1FF",
"j.	c #9BB2FF",
"k.	c #DDA7FF",
"l.	c #8BA0FF",
"m.	c #8FA5FF",
"n.	c #93A9FF",
"o.	c #9DB4FF",
"p.	c #A0B7FF",
"q.	c #A2BAFF",
"r.	c #A3BBFF",
"s.	c #A4BCFF",
"t.	c #A4BDFF",
"u.	c #8598FF",
"v.	c #96ADFF",
"w.	c #9FB7FF",
"x.	c #A6BFFF",
"y.	c #A9C3FF",
"z.	c #ACC5FF",
"A.	c #AEC8FF",
"B.	c #AFC9FF",
"C.	c #D6AEFF",
"D.	c #94AAFF",
"E.	c #99B0FF",
"F.	c #9EB6FF",
"G.	c #A8C1FF",
"H.	c #ADC6FF",
"I.	c #B1CBFF",
"J.	c #B5CFFF",
"K.	c #B8D3FF",
"L.	c #BAD6FF",
"M.	c #BBD7FF",
"N.	c #BCD8FF",
"O.	c #ADB4FF",
"P.	c #A0B8FF",
"Q.	c #ACC6FF",
"R.	c #B2CDFF",
"S.	c #BDD9FF",
"T.	c #C1DEFF",
"U.	c #C5E2FF",
"V.	c #C8E6FF",
"W.	c #CAE8FF",
"X.	c #DBA9FF",
"Y.	c #B6D1FF",
"Z.	c #C4E1FF",
"`.	c #D0EFFF",
" +	c #D5F4FF",
".+	c #D8F8FF",
"++	c #DAFBFF",
"@+	c #DBFCFF",
"#+	c #B9B7FF",
"$+	c #A9C2FF",
"%+	c #B9D5FF",
"&+	c #D2F1FF",
"*+	c #DAFAFF",
"=+	c #E1FFFF",
"-+	c #E7FFFF",
";+	c #EBFFFF",
">+	c #EEFFFF",
",+	c #EFFFFF",
"'+	c #EC8AFF",
")+	c #C4E0FF",
"!+	c #CDECFF",
"~+	c #D7F7FF",
"{+	c #E2FFFF",
"]+	c #F4FFFF",
"^+	c #FCFFFF",
"/+	c #FFFFFF",
"(+	c #D3B0FF",
"_+	c #CFEDFF",
":+	c #F3FFFF",
"<+	c #B8B7FF",
"[+	c #E8FFFF",
"}+	c #F7FFFF",
"|+	c #E59AFF",
"1+	c #C7B6FF",
"2+	c #BAB7FF",
"3+	c #A8B2FF",
"4+	c #A7B2FF",
"5+	c #B7B7FF",
"6+	c #ACB4FF",
"7+	c #B1B5FF",
"8+	c #DDA6FF",
"9+	c #C4B6FF",
"0+	c #AEB4FF",
"a+	c #ED87FF",
"b+	c #D4AFFF",
"c+	c #CEB3FF",
"d+	c #CCB4FF",
"                                                . + @ # $ % & * * & = $ - @ + .                                                 ",
"                                          ; > , ' ) ! ! ~ { { ] ] ] { { ~ ! ! ) ^ > ;                                           ",
"                                    / ( _ ) : ~ { < [ } | | | 1 1 1 | | | } [ < { ~ : 2 ( /                                     ",
"                                3 @ 4 ) ! ] [ | | 1 5 6 7 7 8 8 9 8 8 7 7 6 5 1 | | [ ] ! 0 @ 3                                 ",
"                              a b ) ~ ] [ | c 6 8 9 d e f g g h i h g g f e d 9 8 6 c | [ ] ~ j a                               ",
"                          k l ) ! ] } 1 5 7 m e g i n o p q r r r r r q p o n i g e m 7 5 1 } ] ! s k                           ",
"                        t u : { [ 1 5 8 d g i n q v w x y z z z z z z z y x w v q n i g d 8 5 1 [ { 4 A                         ",
"                    B C ' ! < | 5 7 d g i p v w y D E F G H I J J J I H G F E D y w v p i g d 7 5 | < ! C K                     ",
"                  L M ) ~ [ 1 6 m f i p v y z N G J O P Q R R R S R R R Q P O J G N z y v p i f m 6 1 [ ~ M L                   ",
"                L T ) { [ 1 7 d h o v y D F I O Q R U V W X X Y Y Y X X W V U R Q O I F D y v o h d 7 1 [ { Z L                 ",
"              B M ) { } c 8 e i q w z N J P R U W X `  ...+.@.#.#.#.@.+... .` X W U R P J N z w q i e 8 c } { $.K               ",
"              C ) { } 5 9 f n r y D H O R %.&.` *.@.=.-.;.>.@.,.,.,.@.>.;.-.=.@.*.` &.%.R O H D y r n f 9 5 } { '.              ",
"            t ' ~ [ c 9 f n v y N J Q ).W ` ..>.-.!.~.{.].^./.(._.(./.^.].{.~.!.-.>...` W ).Q J N y v n f 9 c [ ~ A             ",
"          k u ! [ 1 8 f n v z F O :.V Y *.>.;.,.{.^.<.[.}.|.1.2.3.2.1.|.}.[.<.^.{.,.;.>.*.Y V :.O F z v n f 8 1 [ 0 k           ",
"          l : < 1 7 e n v z F O R 4.` +.-.@.{./.5.}.3.6.7.8.9.0.0.0.9.8.7.6.3.}.5./.{.@.-.+.` 4.R O F z v n e 7 1 < a.          ",
"        a ) { | 6 d i r y F O R W b.#.;.*.^.c.|.d.7.0.e.f.g.h.i.j.i.h.g.f.e.0.7.d.|.c.^.*.;.#.b.W R O F y r i d 6 | { k.        ",
"      3 b ! [ 5 m h q y N O R W  .>.>.{._.}.l.m.n.f.h.o.p.q.r.s.t.s.r.q.p.o.h.f.n.m.l.}._.{.>.>. .W R O N y q h m 5 [ j 3       ",
"      @ ) ] 1 7 f o w D J :.4.b.>.>.{.u.|.6.0.v.j.w.r.x.y.z.A.B.B.B.A.z.y.x.r.w.j.v.0.6.|.u.{.>.>.b.4.:.J D w o f 7 1 ] C.      ",
"    / 4 ~ } 5 d i v z H Q V ` #.>.{.c.1.7.D.E.F.r.G.H.I.J.K.L.M.N.M.L.K.J.I.H.G.r.F.E.D.7.1.c.{.>.#.` V Q H z v i d 5 } O./     ",
"    ( ) ] 1 8 g p y N O ).Y +.;.{.u.1.7.e.i.P.x.Q.R.K.S.T.U.V.W.W.W.V.U.T.S.K.R.Q.x.P.i.e.7.1.u.{.;.+.Y ).O N y p g 8 1 ] X.    ",
"    _ ! [ 5 d i v D J R W *.-.*._.|.7.e.j.q.G.B.Y.S.Z.W.`. +.+++@+++.+ +`.W.Z.S.Y.B.G.q.j.e.7.|._.*.-.*.W R J D v i d 5 [ #+    ",
"  ; ) ] | 7 g p y F P %.` >.@.^.}.6.D.i.q.$+I.%+T.W.&+*+=+-+;+>+,+>+;+-+=+*+&+W.T.%+I.$+q.i.D.6.}.^.@.>.` %.P F y p g 7 | ] '+  ",
"  > : [ c m i v z I R &...;.{.c.l.0.E.P.G.I.L.)+!+~+{+;+]+^+/+/+/+/+/+^+]+;+{+~+!+)+L.I.G.P.E.0.l.c.{.;...&.R I z v i m c [ (+  ",
"  , ~ | 6 e n w N O U ` >.,./.|.m.v.F.x.B.%+)+_+++-+:+/+/+/+/+/+/+/+/+/+/+/+:+-+++_+)+%+B.x.F.v.m.|./.,.>.` U O N w n e 6 | <+  ",
". ' { | 8 g q y G Q W *.-.{.5.d.n.j.r.Q.Y.T.!+++[+}+/+/+/+/+/+/+/+/+/+/+/+/+/+}+[+++!+T.Y.Q.r.j.n.d.5.{.-.*.W Q G y q g 8 | { . ",
"+ ) < 1 9 i v D J R X @.!.^.}.7.f.w.G.R.S.W.~+-+}+/+/+/+/+/+/+/+/+/+/+/+/+/+/+/+}+-+~+W.S.R.G.w.f.7.}.^.!.@.X R J D v i 9 1 < |+",
"@ ! [ 5 d n w E O U ` =.~.<.3.0.h.r.H.K.Z.&+{+:+/+/+/+/+/+/+/+/+/+/+/+/+/+/+/+/+/+:+{+&+Z.K.H.r.h.0.3.<.~.=.` U O E w n d 5 [ C.",
"# ! } 6 e o x F P V  .-.{.[.6.e.o.x.I.S.W.*+;+/+/+/+/+/+/+/+/+/+/+/+/+/+/+/+/+/+/+/+;+*+W.S.I.x.o.e.6.[.{.-. .V P F x o e 6 } 1+",
"$ ~ | 7 f p y G Q W ..;.].}.7.f.p.y.J.T.`.=+]+/+/+/+/+/+/+/+/+/+/+/+/+/+/+/+/+/+/+/+]+=+`.T.J.y.p.f.7.}.].;...W Q G y p f 7 | 2+",
"% { | 7 g q z H R X +.>.^.|.8.g.q.z.K.U. +-+^+/+/+/+/+/+/+/+/+/+/+/+/+/+/+/+/+/+/+/+^+-+ +U.K.z.q.g.8.|.^.>.+.X R H z q g 7 | 0 ",
"& { | 8 g r z I R X @.@./.1.9.h.r.A.L.V..+;+/+/+/+/+/+/+/+/+/+/+/+/+/+/+/+/+/+/+/+/+/+;+.+V.L.A.r.h.9.1./.@.@.X R I z r g 8 | 3+",
"* ] 1 8 h r z J R Y #.,.(.2.0.i.s.B.M.W.++>+/+/+/+/+/+/+/+/+/+/+/+/+/+/+/+/+/+/+/+/+/+>+++W.M.B.s.i.0.2.(.,.#.Y R J z r h 8 1 { ",
"* ] 1 9 i r z J S Y #.,._.3.0.j.t.B.N.W.@+,+/+/+/+/+/+/+/+/+/+/+/+/+/+/+/+/+/+/+/+/+/+,+@+W.N.B.t.j.0.3._.,.#.Y S J z r i 9 1 { ",
"& ] 1 8 h r z J R Y #.,.(.2.0.i.s.B.M.W.++>+/+/+/+/+/+/+/+/+/+/+/+/+/+/+/+/+/+/+/+/+/+>+++W.M.B.s.i.0.2.(.,.#.Y R J z r h 8 1 4+",
"= { | 8 g r z I R X @.@./.1.9.h.r.A.L.V..+;+/+/+/+/+/+/+/+/+/+/+/+/+/+/+/+/+/+/+/+/+/+;+.+V.L.A.r.h.9.1./.@.@.X R I z r g 8 | 0 ",
"$ { | 7 g q z H R X +.>.^.|.8.g.q.z.K.U. +-+^+/+/+/+/+/+/+/+/+/+/+/+/+/+/+/+/+/+/+/+^+-+ +U.K.z.q.g.8.|.^.>.+.X R H z q g 7 | 2+",
"- ~ | 7 f p y G Q W ..;.].}.7.f.p.y.J.T.`.=+]+/+/+/+/+/+/+/+/+/+/+/+/+/+/+/+/+/+/+/+]+=+`.T.J.y.p.f.7.}.].;...W Q G y p f 7 | 1+",
"@ ! } 6 e o x F P V  .-.{.[.6.e.o.x.I.S.W.*+;+/+/+/+/+/+/+/+/+/+/+/+/+/+/+/+/+/+/+/+;+*+W.S.I.x.o.e.6.[.{.-. .V P F x o e 6 } C.",
"+ ! [ 5 d n w E O U ` =.~.<.3.0.h.r.H.K.Z.&+{+:+/+/+/+/+/+/+/+/+/+/+/+/+/+/+/+/+/+:+{+&+Z.K.H.r.h.0.3.<.~.=.` U O E w n d 5 [ |+",
". ) < 1 9 i v D J R X @.!.^.}.7.f.w.G.R.S.W.~+-+}+/+/+/+/+/+/+/+/+/+/+/+/+/+/+/+}+-+~+W.S.R.G.w.f.7.}.^.!.@.X R J D v i 9 1 < . ",
"  ^ { | 8 g q y G Q W *.-.{.5.d.n.j.r.Q.Y.T.!+++[+}+/+/+/+/+/+/+/+/+/+/+/+/+/+}+[+++!+T.Y.Q.r.j.n.d.5.{.-.*.W Q G y q g 8 | 5+  ",
"  > ~ | 6 e n w N O U ` >.,./.|.m.v.F.x.B.%+)+_+++-+:+/+/+/+/+/+/+/+/+/+/+/+:+-+++_+)+%+B.x.F.v.m.|./.,.>.` U O N w n e 6 | (+  ",
"  ; : [ c m i v z I R &...;.{.c.l.0.E.P.G.I.L.)+!+~+{+;+]+^+/+/+/+/+/+^+]+;+{+~+!+)+L.I.G.P.E.0.l.c.{.;...&.R I z v i m c [ '+  ",
"    2 ] | 7 g p y F P %.` >.@.^.}.6.D.i.q.$+I.%+T.W.&+*+=+-+;+>+,+>+;+-+=+*+&+W.T.%+I.$+q.i.D.6.}.^.@.>.` %.P F y p g 7 | #+    ",
"    ( ! [ 5 d i v D J R W *.-.*._.|.7.e.j.q.G.B.Y.S.Z.W.`. +.+++@+++.+ +`.W.Z.S.Y.B.G.q.j.e.7.|._.*.-.*.W R J D v i d 5 [ X.    ",
"    / 0 ] 1 8 g p y N O ).Y +.;.{.u.1.7.e.i.P.x.Q.R.K.S.T.U.V.W.W.W.V.U.T.S.K.R.Q.x.P.i.e.7.1.u.{.;.+.Y ).O N y p g 8 1 6+/     ",
"      @ ~ } 5 d i v z H Q V ` #.>.{.c.1.7.D.E.F.r.G.H.I.J.K.L.M.N.M.L.K.J.I.H.G.r.F.E.D.7.1.c.{.>.#.` V Q H z v i d 5 } C.      ",
"      3 j ] 1 7 f o w D J :.4.b.>.>.{.u.|.6.0.v.j.w.r.x.y.z.A.B.B.B.A.z.y.x.r.w.j.v.0.6.|.u.{.>.>.b.4.:.J D w o f 7 1 7+3       ",
"        a ! [ 5 m h q y N O R W  .>.>.{._.}.l.m.n.f.h.o.p.q.r.s.t.s.r.q.p.o.h.f.n.m.l.}._.{.>.>. .W R O N y q h m 5 [ 8+        ",
"          s { | 6 d i r y F O R W b.#.;.*.^.c.|.d.7.0.e.f.g.h.i.j.i.h.g.f.e.0.7.d.|.c.^.*.;.#.b.W R O F y r i d 6 | 9+          ",
"          k 4 < 1 7 e n v z F O R 4.` +.-.@.{./.5.}.3.6.7.8.9.0.0.0.9.8.7.6.3.}.5./.{.@.-.+.` 4.R O F z v n e 7 1 0+a+          ",
"            A ! [ 1 8 f n v z F O :.V Y *.>.;.,.{.^.<.[.}.|.1.2.3.2.1.|.}.[.<.^.{.,.;.>.*.Y V :.O F z v n f 8 1 [ A             ",
"              C ~ [ c 9 f n v y N J Q ).W ` ..>.-.!.~.{.].^./.(._.(./.^.].{.~.!.-.>...` W ).Q J N y v n f 9 c [ b+              ",
"              K M { } 5 9 f n r y D H O R %.&.` *.@.=.-.;.>.@.,.,.,.@.>.;.-.=.@.*.` &.%.R O H D y r n f 9 5 } c+K               ",
"                L Z { } c 8 e i q w z N J P R U W X `  ...+.@.#.#.#.@.+... .` X W U R P J N z w q i e 8 c } d+L                 ",
"                  L $.{ [ 1 7 d h o v y D F I O Q R U V W X X Y Y Y X X W V U R Q O I F D y v o h d 7 1 [ c+L                   ",
"                    K '.~ [ 1 6 m f i p v y z N G J O P Q R R R S R R R Q P O J G N z y v p i f m 6 1 [ b+K                     ",
"                        A 0 < | 5 7 d g i p v w y D E F G H I J J J I H G F E D y w v p i g d 7 5 | 0+A                         ",
"                          k a.{ [ 1 5 8 d g i n q v w x y z z z z z z z y x w v q n i g d 8 5 1 [ 9+a+                          ",
"                              k.j ] } 1 5 7 m e g i n o p q r r r r r q p o n i g e m 7 5 1 } 7+8+                              ",
"                                3 C.O.] [ | c 6 8 9 d e f g g h i h g g f e d 9 8 6 c | [ 6+C.3                                 ",
"                                    / X.#+] [ | | 1 5 6 7 7 8 8 9 8 8 7 7 6 5 1 | | [ #+X./                                     ",
"                                          '+(+<+{ < [ } | | | 1 1 1 | | | } [ < 5+(+'+                                          ",
"                                                . |+C.1+2+0 3+{ { 4+0 2+1+C.|+.                                                 "};
