/* XPM */
static char * blue5_xpm[] = {
"64 64 220 2",
"  	c #FF00FF",
". 	c #F768FF",
"+ 	c #E89EFF",
"@ 	c #DAB5FF",
"# 	c #CDC0FF",
"$ 	c #C1C5FF",
"% 	c #B8C5FF",
"& 	c #B1C4FF",
"* 	c #ADC3FF",
"= 	c #CCC0FF",
"- 	c #EE8DFF",
"; 	c #D7B8FF",
"> 	c #BFC5FF",
", 	c #ACC3FF",
"' 	c #ACC2FF",
") 	c #ABC2FF",
"! 	c #ABC1FF",
"~ 	c #AAC1FF",
"{ 	c #BFC4FF",
"] 	c #F95BFF",
"^ 	c #DFAFFF",
"/ 	c #C0C5FF",
"( 	c #A9C0FF",
"_ 	c #A8C0FF",
": 	c #A8BFFF",
"< 	c #A7BFFF",
"[ 	c #C0C4FF",
"} 	c #DEAFFF",
"| 	c #F862FF",
"1 	c #B6C5FF",
"2 	c #A9C1FF",
"3 	c #A6BEFF",
"4 	c #A5BEFF",
"5 	c #A5BDFF",
"6 	c #A4BDFF",
"7 	c #B5C5FF",
"8 	c #D9B5FF",
"9 	c #E0ACFF",
"0 	c #BAC5FF",
"a 	c #A6BFFF",
"b 	c #A3BCFF",
"c 	c #A2BCFF",
"d 	c #A2BBFF",
"e 	c #A1BBFF",
"f 	c #B9C4FF",
"g 	c #EF8AFF",
"h 	c #CBC1FF",
"i 	c #A4BCFF",
"j 	c #A1BAFF",
"k 	c #A0BAFF",
"l 	c #9FB9FF",
"m 	c #9EB8FF",
"n 	c #CAC1FF",
"o 	c #E2A9FF",
"p 	c #B7C5FF",
"q 	c #9EB9FF",
"r 	c #9DB8FF",
"s 	c #9CB7FF",
"t 	c #9BB6FF",
"u 	c #9AB6FF",
"v 	c #9AB5FF",
"w 	c #B6C4FF",
"x 	c #E1A9FF",
"y 	c #FC44FF",
"z 	c #D8B7FF",
"A 	c #99B4FF",
"B 	c #98B4FF",
"C 	c #97B3FF",
"D 	c #96B3FF",
"E 	c #96B2FF",
"F 	c #D8B6FF",
"G 	c #F864FF",
"H 	c #D3BCFF",
"I 	c #95B2FF",
"J 	c #94B1FF",
"K 	c #93B0FF",
"L 	c #92B0FF",
"M 	c #92AFFF",
"N 	c #91AFFF",
"O 	c #D2BCFF",
"P 	c #D1BEFF",
"Q 	c #90AEFF",
"R 	c #8FAEFF",
"S 	c #8EADFF",
"T 	c #8EACFF",
"U 	c #8DACFF",
"V 	c #D0BDFF",
"W 	c #8FADFF",
"X 	c #8CABFF",
"Y 	c #8AAAFF",
"Z 	c #89A9FF",
"` 	c #88A8FF",
" .	c #87A8FF",
"..	c #99B5FF",
"+.	c #87A7FF",
"@.	c #85A6FF",
"#.	c #84A5FF",
"$.	c #83A5FF",
"%.	c #82A4FF",
"&.	c #93B1FF",
"*.	c #81A3FF",
"=.	c #7FA2FF",
"-.	c #7EA1FF",
";.	c #7DA0FF",
">.	c #7CA0FF",
",.	c #7C9FFF",
"'.	c #7B9FFF",
").	c #84A6FF",
"!.	c #7CA1FF",
"~.	c #7DA3FF",
"{.	c #7EA4FF",
"].	c #7FA4FF",
"^.	c #7FA5FF",
"/.	c #7DA2FF",
"(.	c #81A7FF",
"_.	c #83AAFF",
":.	c #84ABFF",
"<.	c #85ADFF",
"[.	c #86ADFF",
"}.	c #86AEFF",
"|.	c #C9C1FF",
"1.	c #8BAAFF",
"2.	c #7A9FFF",
"3.	c #80A6FF",
"4.	c #88B0FF",
"5.	c #8AB3FF",
"6.	c #8CB5FF",
"7.	c #8DB7FF",
"8.	c #8EB8FF",
"9.	c #87AFFF",
"0.	c #90BBFF",
"a.	c #92BEFF",
"b.	c #94C0FF",
"c.	c #96C2FF",
"d.	c #96C3FF",
"e.	c #97C3FF",
"f.	c #7A9EFF",
"g.	c #7EA3FF",
"h.	c #82A8FF",
"i.	c #92BDFF",
"j.	c #95C2FF",
"k.	c #99C6FF",
"l.	c #9BC9FF",
"m.	c #9ECCFF",
"n.	c #9FCFFF",
"o.	c #A0D0FF",
"p.	c #A1D0FF",
"q.	c #8CB6FF",
"r.	c #91BCFF",
"s.	c #9AC8FF",
"t.	c #9ECDFF",
"u.	c #A2D2FF",
"v.	c #A6D7FF",
"w.	c #A8DAFF",
"x.	c #ABDDFF",
"y.	c #ACDFFF",
"z.	c #B4C4FF",
"A.	c #88B1FF",
"B.	c #93BFFF",
"C.	c #A3D4FF",
"D.	c #ADE0FF",
"E.	c #B1E6FF",
"F.	c #B5EAFF",
"G.	c #B7EEFF",
"H.	c #B9F0FF",
"I.	c #BAF0FF",
"J.	c #A7D9FF",
"K.	c #AEE1FF",
"L.	c #B4E9FF",
"M.	c #BFF7FF",
"N.	c #C3FDFF",
"O.	c #C6FFFF",
"P.	c #C8FFFF",
"Q.	c #C9FFFF",
"R.	c #AADCFF",
"S.	c #C0F9FF",
"T.	c #CEFFFF",
"U.	c #D3FFFF",
"V.	c #D8FFFF",
"W.	c #DAFFFF",
"X.	c #DBFFFF",
"Y.	c #B3E8FF",
"Z.	c #BCF4FF",
"`.	c #CFFFFF",
" +	c #E0FFFF",
".+	c #E7FFFF",
"++	c #ECFFFF",
"@+	c #F0FFFF",
"#+	c #F1FFFF",
"$+	c #D6B7FF",
"%+	c #BDF6FF",
"&+	c #DFFFFF",
"*+	c #EAFFFF",
"=+	c #F5FFFF",
"-+	c #FEFFFF",
";+	c #FFFFFF",
">+	c #BDC4FF",
",+	c #D5FFFF",
"'+	c #E3FFFF",
")+	c #F3FFFF",
"!+	c #E79EFF",
"~+	c #CBC0FF",
"{+	c #AFC3FF",
"]+	c #B5C3FF",
"^+	c #BFC3FF",
"/+	c #F769FF",
"(+	c #BDC3FF",
"_+	c #ED8DFF",
":+	c #BEC3FF",
"<+	c #DDAFFF",
"[+	c #B3C3FF",
"}+	c #B7C3FF",
"|+	c #DFACFF",
"1+	c #C9C0FF",
"2+	c #B4C3FF",
"3+	c #D7B6FF",
"4+	c #D1BCFF",
"5+	c #FC45FF",
"6+	c #CFBDFF",
"7+	c #F764FF",
"                                                . + @ # $ % & * * & % $ = @ + .                                                 ",
"                                          - ; > * , ' ) ) ! ~ ~ ~ ~ ~ ! ) ) ' , { ; -                                           ",
"                                    ] ^ / * ' ) ~ ~ ( _ _ : < < < < < : _ _ ( ~ ~ ) ' [ } ]                                     ",
"                                | @ 1 , ) ~ 2 _ : < 3 3 4 5 6 6 6 6 6 5 4 3 3 < : _ 2 ~ ) 7 8 |                                 ",
"                              9 0 , ) ~ ( : a 3 5 6 b c d d e e e e e d d c b 6 5 3 a : ( ~ ) f 9                               ",
"                          g h * ) ~ _ < 3 5 i b d j k l l m m m m m m m l l k j d b i 5 3 < _ ~ ) n g                           ",
"                        o p ' ~ ( < 3 6 b d j l q r s s t u u v v v u u t s s r q l j d b 6 3 < ( ~ w x                         ",
"                    y z * ) ~ _ 3 5 b d k l r s t v A B C C D E E E D C C B A v t s r l k d b 5 3 _ ~ ) F y                     ",
"                  G H , ) ( < 3 6 d k l r t v B C E I J K L M N N N M L K J I E C B v t r l k d 6 3 < ( ) O G                   ",
"                G P , ! ( < 5 b e l r t v B D J K M Q R S T U U U U U T S R Q M K J D B v t r l e b 5 < ( ! V G                 ",
"              y H , ~ _ a 6 c k q s u B D J L Q W U X Y Z Z ` `  .` ` Z Z Y X U W Q L J D B u s q k c 6 a _ ~ O y               ",
"              z , ! _ 3 6 d k m t ..C J L Q S X Y ` +.@.#.$.%.%.%.%.%.$.#.@.+.` Y X S Q L J C ..t m k d 6 3 _ ! F               ",
"            o * ) ( a 6 d k r t B E &.N S X Z  .@.$.*.=.-.;.>.,.'.,.>.;.-.=.*.$.@. .Z X S N &.E B t r k d 6 a ( ) x             ",
"          g p ) ( < 6 d k r u B I L Q U Y  .).%.=.;.'.'.!.~.{.].^.].{.~.!.'.'.;.=.%.). .Y U Q L I B u r k d 6 < ( w g           ",
"          h ' ~ < 5 c k r u B I M W X Z @.%.=.>.'./.^.(._.:.<.[.}.[.<.:._.(.^./.'.>.=.%.@.Z X W M I B u r k c 5 < ~ |.          ",
"        9 * ~ _ 3 b k m t B I M S 1.` #.*.;.2.~.3._.[.4.5.6.7.8.8.8.7.6.5.4.[._.3.~.2.;.*.#.` 1.S M I B t m k b 3 _ ~ 9         ",
"      | 0 ) ( 3 6 e q t B I M S 1. .$.=.'.!.3._.9.5.7.0.a.b.c.d.e.d.c.b.a.0.7.5.9._.3.!.'.=.$. .1.S M I B t q e 6 3 ( f |       ",
"      @ , ~ < 5 d l s ..E L W 1. .$.=.f.g.h.[.5.8.i.j.k.l.m.n.o.p.o.n.m.l.k.j.i.8.5.[.h.g.f.=.$. .1.W L E ..s l d 5 < ~ 8       ",
"    ] 1 ) _ 3 b k r u C &.Q X ` $.=.f.{._.4.q.r.c.s.t.u.v.w.x.y.y.y.x.w.v.u.t.s.c.r.q.4._.{.f.=.$.` X Q &.C u r k b 3 _ z.]     ",
"    ^ , ~ < 6 d l t B J N U Z #.=.f.{._.A.8.B.k.t.C.w.D.E.F.G.H.I.H.G.F.E.D.w.C.t.k.B.8.A._.{.f.=.#.Z U N J B t l d 6 < ~ }     ",
"    / ) ( 3 b k r v D L S Y @.*.'.g._.A.8.b.s.p.J.K.L.I.M.N.O.P.Q.P.O.N.M.I.L.K.J.p.s.b.8.A._.g.'.*.@.Y S L D v r k b 3 ( {     ",
"  - * ~ : 5 d l t B J Q X  .%.;.!.h.4.8.b.l.u.R.E.H.S.P.T.U.V.W.X.W.V.U.T.P.S.H.E.R.u.l.b.8.4.h.!.;.%. .X Q J B t l d 5 : ~ -   ",
"  ; ' 2 a i j r v D L S Z ).=.2.3.[.q.B.s.u.x.Y.Z.O.`.V. +.+++@+#+@+++.+ +V.`.O.Z.Y.x.u.s.B.q.[.3.2.=.).Z S L D v r j i a 2 $+  ",
"  > ) _ 3 b l s B J Q X  .%.>.~._.5.r.k.p.R.Y.%+P.U.&+*+=+-+;+;+;+;+;+-+=+*+&+U.P.%+Y.R.p.k.r.5._.~.>.%. .X Q J B s l b 3 _ >+  ",
". * ~ : 5 d q t C K W Y @.=.'.3.9.8.c.t.J.E.Z.P.,+'+#+;+;+;+;+;+;+;+;+;+;+;+#+'+,+P.Z.E.J.t.c.8.9.3.'.=.@.Y W K C t q d 5 : ~ . ",
"+ , ~ < 6 j r v E M U ` $.;./._.5.i.s.C.K.H.O.U.'+)+;+;+;+;+;+;+;+;+;+;+;+;+;+)+'+U.O.H.K.C.s.i.5._./.;.$.` U M E v r j 6 < ~ !+",
"@ ' ( 3 b k s A I Q X +.*.'.^.[.7.j.t.w.L.S.`.&+#+;+;+;+;+;+;+;+;+;+;+;+;+;+;+;+#+&+`.S.L.w.t.j.7.[.^.'.*.+.X Q I A s k b 3 ( 8 ",
"# ) _ 3 c l s B J R Y @.=.'.(.4.0.k.u.D.I.P.V.*+;+;+;+;+;+;+;+;+;+;+;+;+;+;+;+;+;+*+V.P.I.D.u.k.0.4.(.'.=.@.Y R J B s l c 3 _ ~+",
"$ ) _ 4 d l t C K S Z #.-.!._.5.a.l.v.E.M.T. +=+;+;+;+;+;+;+;+;+;+;+;+;+;+;+;+;+;+=+ +T.M.E.v.l.a.5._.!.-.#.Z S K C t l d 4 _ { ",
"% ! : 5 d m u C L T Z $.;.~.:.6.b.m.w.F.N.U..+-+;+;+;+;+;+;+;+;+;+;+;+;+;+;+;+;+;+-+.+U.N.F.w.m.b.6.:.~.;.$.Z T L C u m d 5 : w ",
"& ~ < 6 e m u D M U ` %.>.{.<.7.c.n.x.G.O.V.++;+;+;+;+;+;+;+;+;+;+;+;+;+;+;+;+;+;+;+++V.O.G.x.n.c.7.<.{.>.%.` U M D u m e 6 < {+",
"* ~ < 6 e m v E N U ` %.,.].[.8.d.o.y.H.P.W.@+;+;+;+;+;+;+;+;+;+;+;+;+;+;+;+;+;+;+;+@+W.P.H.y.o.d.8.[.].,.%.` U N E v m e 6 < ) ",
"* ~ < 6 e m v E N U  .%.'.^.}.8.e.p.y.I.Q.X.#+;+;+;+;+;+;+;+;+;+;+;+;+;+;+;+;+;+;+;+#+X.Q.I.y.p.e.8.}.^.'.%. .U N E v m e 6 < ! ",
"& ~ < 6 e m v E N U ` %.,.].[.8.d.o.y.H.P.W.@+;+;+;+;+;+;+;+;+;+;+;+;+;+;+;+;+;+;+;+@+W.P.H.y.o.d.8.[.].,.%.` U N E v m e 6 < {+",
"% ~ < 6 e m u D M U ` %.>.{.<.7.c.n.x.G.O.V.++;+;+;+;+;+;+;+;+;+;+;+;+;+;+;+;+;+;+;+++V.O.G.x.n.c.7.<.{.>.%.` U M D u m e 6 < ]+",
"$ ! : 5 d m u C L T Z $.;.~.:.6.b.m.w.F.N.U..+-+;+;+;+;+;+;+;+;+;+;+;+;+;+;+;+;+;+-+.+U.N.F.w.m.b.6.:.~.;.$.Z T L C u m d 5 : ^+",
"= ) _ 4 d l t C K S Z #.-.!._.5.a.l.v.E.M.T. +=+;+;+;+;+;+;+;+;+;+;+;+;+;+;+;+;+;+=+ +T.M.E.v.l.a.5._.!.-.#.Z S K C t l d 4 _ ~+",
"@ ) _ 3 c l s B J R Y @.=.'.(.4.0.k.u.D.I.P.V.*+;+;+;+;+;+;+;+;+;+;+;+;+;+;+;+;+;+*+V.P.I.D.u.k.0.4.(.'.=.@.Y R J B s l c 3 _ 8 ",
"+ ' ( 3 b k s A I Q X +.*.'.^.[.7.j.t.w.L.S.`.&+#+;+;+;+;+;+;+;+;+;+;+;+;+;+;+;+#+&+`.S.L.w.t.j.7.[.^.'.*.+.X Q I A s k b 3 ( !+",
". , ~ < 6 j r v E M U ` $.;./._.5.i.s.C.K.H.O.U.'+)+;+;+;+;+;+;+;+;+;+;+;+;+;+)+'+U.O.H.K.C.s.i.5._./.;.$.` U M E v r j 6 < ~ /+",
"  { ~ : 5 d q t C K W Y @.=.'.3.9.8.c.t.J.E.Z.P.,+'+#+;+;+;+;+;+;+;+;+;+;+;+#+'+,+P.Z.E.J.t.c.8.9.3.'.=.@.Y W K C t q d 5 : (+  ",
"  ; ) _ 3 b l s B J Q X  .%.>.~._.5.r.k.p.R.Y.%+P.U.&+*+=+-+;+;+;+;+;+-+=+*+&+U.P.%+Y.R.p.k.r.5._.~.>.%. .X Q J B s l b 3 _ $+  ",
"  - ' 2 a i j r v D L S Z ).=.2.3.[.q.B.s.u.x.Y.Z.O.`.V. +.+++@+#+@+++.+ +V.`.O.Z.Y.x.u.s.B.q.[.3.2.=.).Z S L D v r j i a 2 _+  ",
"    [ ~ : 5 d l t B J Q X  .%.;.!.h.4.8.b.l.u.R.E.H.S.P.T.U.V.W.X.W.V.U.T.P.S.H.E.R.u.l.b.8.4.h.!.;.%. .X Q J B t l d 5 : :+    ",
"    } ) ( 3 b k r v D L S Y @.*.'.g._.A.8.b.s.p.J.K.L.I.M.N.O.P.Q.P.O.N.M.I.L.K.J.p.s.b.8.A._.g.'.*.@.Y S L D v r k b 3 ( <+    ",
"    ] 7 ~ < 6 d l t B J N U Z #.=.f.{._.A.8.B.k.t.C.w.D.E.F.G.H.I.H.G.F.E.D.w.C.t.k.B.8.A._.{.f.=.#.Z U N J B t l d 6 < [+]     ",
"      8 ) _ 3 b k r u C &.Q X ` $.=.f.{._.4.q.r.c.s.t.u.v.w.x.y.y.y.x.w.v.u.t.s.c.r.q.4._.{.f.=.$.` X Q &.C u r k b 3 _ 8       ",
"      | f ~ < 5 d l s ..E L W 1. .$.=.f.g.h.[.5.8.i.j.k.l.m.n.o.p.o.n.m.l.k.j.i.8.5.[.h.g.f.=.$. .1.W L E ..s l d 5 < }+|       ",
"        9 ) ( 3 6 e q t B I M S 1. .$.=.'.!.3._.9.5.7.0.a.b.c.d.e.d.c.b.a.0.7.5.9._.3.!.'.=.$. .1.S M I B t q e 6 3 ( |+        ",
"          n ~ _ 3 b k m t B I M S 1.` #.*.;.2.~.3._.[.4.5.6.7.8.8.8.7.6.5.4.[._.3.~.2.;.*.#.` 1.S M I B t m k b 3 _ 1+          ",
"          g w ~ < 5 c k r u B I M W X Z @.%.=.>.'./.^.(._.:.<.[.}.[.<.:._.(.^./.'.>.=.%.@.Z X W M I B u r k c 5 < 2+g           ",
"            x ) ( < 6 d k r u B I L Q U Y  .).%.=.;.'.'.!.~.{.].^.].{.~.!.'.'.;.=.%.). .Y U Q L I B u r k d 6 < ( x             ",
"              F ) ( a 6 d k r t B E &.N S X Z  .@.$.*.=.-.;.>.,.'.,.>.;.-.=.*.$.@. .Z X S N &.E B t r k d 6 a ( 3+              ",
"              y O ! _ 3 6 d k m t ..C J L Q S X Y ` +.@.#.$.%.%.%.%.%.$.#.@.+.` Y X S Q L J C ..t m k d 6 3 _ 4+5+              ",
"                G V ~ _ a 6 c k q s u B D J L Q W U X Y Z Z ` `  .` ` Z Z Y X U W Q L J D B u s q k c 6 a _ 6+7+                ",
"                  G O ! ( < 5 b e l r t v B D J K M Q R S T U U U U U T S R Q M K J D B v t r l e b 5 < ( 4+7+                  ",
"                    y F ) ( < 3 6 d k l r t v B C E I J K L M N N N M L K J I E C B v t r l k d 6 3 < ( 3+5+                    ",
"                        x w ~ _ 3 5 b d k l r s t v A B C C D E E E D C C B A v t s r l k d b 5 3 _ 2+x                         ",
"                          g |.~ ( < 3 6 b d j l q r s s t u u v v v u u t s s r q l j d b 6 3 < ( 1+g                           ",
"                              9 f ~ _ < 3 5 i b d j k l l m m m m m m m l l k j d b i 5 3 < _ }+|+                              ",
"                                | 8 z.~ ( : a 3 5 6 b c d d e e e e e d d c b 6 5 3 a : ( [+8 |                                 ",
"                                    ] } { ~ 2 _ : < 3 3 4 5 6 6 6 6 6 5 4 3 3 < : _ 2 :+<+]                                     ",
"                                          - $+>+~ ~ ( _ _ : < < < < < : _ _ ( ~ (+$+_+                                          ",
"                                                . !+8 ~+{ w {+) ! {+]+^+~+8 !+/+                                                "};
