/* XPM */
static char * blue1_xpm[] = {
"64 64 216 2",
"  	c #FF00FF",
". 	c #F666FF",
"+ 	c #E497FF",
"@ 	c #D4A9FF",
"# 	c #C5B0FF",
"$ 	c #B7AFFF",
"% 	c #ACAAFF",
"& 	c #A3A6FF",
"* 	c #9EA3FF",
"= 	c #ABAAFF",
"- 	c #C5AFFF",
"; 	c #EC88FF",
"> 	c #D1ABFF",
", 	c #B5AEFF",
"' 	c #9EA2FF",
") 	c #9DA2FF",
"! 	c #9DA1FF",
"~ 	c #9CA0FF",
"{ 	c #9BA0FF",
"] 	c #9B9FFF",
"^ 	c #B4AEFF",
"/ 	c #EB88FF",
"( 	c #F859FF",
"_ 	c #DAA5FF",
": 	c #B6AFFF",
"< 	c #9A9FFF",
"[ 	c #999EFF",
"} 	c #999DFF",
"| 	c #989DFF",
"1 	c #989CFF",
"2 	c #979CFF",
"3 	c #D9A5FF",
"4 	c #F760FF",
"5 	c #A9AAFF",
"6 	c #9A9EFF",
"7 	c #979BFF",
"8 	c #969BFF",
"9 	c #959AFF",
"0 	c #9499FF",
"a 	c #A8A9FF",
"b 	c #DCA3FF",
"c 	c #AFACFF",
"d 	c #9398FF",
"e 	c #9297FF",
"f 	c #9196FF",
"g 	c #9095FF",
"h 	c #AEABFF",
"i 	c #ED85FF",
"j 	c #C2B0FF",
"k 	c #8F94FF",
"l 	c #8E93FF",
"m 	c #8D92FF",
"n 	c #8C91FF",
"o 	c #C2AFFF",
"p 	c #DEA1FF",
"q 	c #ABABFF",
"r 	c #969AFF",
"s 	c #8A90FF",
"t 	c #8A8FFF",
"u 	c #898EFF",
"v 	c #888EFF",
"w 	c #888DFF",
"x 	c #878DFF",
"y 	c #AAA9FF",
"z 	c #DDA0FF",
"A 	c #FB43FF",
"B 	c #D3ABFF",
"C 	c #868CFF",
"D 	c #858BFF",
"E 	c #848AFF",
"F 	c #8489FF",
"G 	c #8389FF",
"H 	c #8388FF",
"I 	c #D2AAFF",
"J 	c #F762FF",
"K 	c #CCAEFF",
"L 	c #8B90FF",
"M 	c #898FFF",
"N 	c #868BFF",
"O 	c #8187FF",
"P 	c #8086FF",
"Q 	c #7F85FF",
"R 	c #7E84FF",
"S 	c #7E83FF",
"T 	c #7D83FF",
"U 	c #CBAEFF",
"V 	c #CAAFFF",
"W 	c #9599FF",
"X 	c #7C82FF",
"Y 	c #7B81FF",
"Z 	c #7A80FF",
"` 	c #C9AEFF",
" .	c #8186FF",
"..	c #7E85FF",
"+.	c #8087FF",
"@.	c #8188FF",
"#.	c #8288FF",
"$.	c #878CFF",
"%.	c #848BFF",
"&.	c #858CFF",
"*.	c #868DFF",
"=.	c #878EFF",
"-.	c #8B91FF",
";.	c #8085FF",
">.	c #8A91FF",
",.	c #8C93FF",
"'.	c #8D94FF",
").	c #8E95FF",
"!.	c #8F96FF",
"~.	c #7F84FF",
"{.	c #9198FF",
"].	c #939AFF",
"^.	c #949CFF",
"/.	c #959DFF",
"(.	c #969DFF",
"_.	c #A9A9FF",
":.	c #858AFF",
"<.	c #949BFF",
"[.	c #969EFF",
"}.	c #99A0FF",
"|.	c #9BA2FF",
"1.	c #9CA4FF",
"2.	c #9DA5FF",
"3.	c #9EA6FF",
"4.	c #C1AFFF",
"5.	c #8990FF",
"6.	c #989FFF",
"7.	c #9BA3FF",
"8.	c #A1A9FF",
"9.	c #A3ABFF",
"0.	c #A5ADFF",
"a.	c #A7AFFF",
"b.	c #A7B0FF",
"c.	c #A8B0FF",
"d.	c #DBA2FF",
"e.	c #979FFF",
"f.	c #9FA7FF",
"g.	c #AAB2FF",
"h.	c #ADB5FF",
"i.	c #AFB8FF",
"j.	c #B1B9FF",
"k.	c #B2BBFF",
"l.	c #ADAAFF",
"m.	c #8B92FF",
"n.	c #9097FF",
"o.	c #99A1FF",
"p.	c #ACB5FF",
"q.	c #B0B9FF",
"r.	c #B4BDFF",
"s.	c #B8C1FF",
"t.	c #BAC4FF",
"u.	c #BCC6FF",
"v.	c #BEC7FF",
"w.	c #D3A9FF",
"x.	c #A0A8FF",
"y.	c #A6AEFF",
"z.	c #ABB4FF",
"A.	c #B6BFFF",
"B.	c #BBC4FF",
"C.	c #C0C9FF",
"D.	c #C4CDFF",
"E.	c #C7D1FF",
"F.	c #CAD3FF",
"G.	c #CBD5FF",
"H.	c #CCD6FF",
"I.	c #A7A8FF",
"J.	c #AEB6FF",
"K.	c #C1CBFF",
"L.	c #CDD7FF",
"M.	c #D2DCFF",
"N.	c #D6E0FF",
"O.	c #D9E3FF",
"P.	c #DBE5FF",
"Q.	c #DBE6FF",
"R.	c #D9A4FF",
"S.	c #C6CFFF",
"T.	c #D4DFFF",
"U.	c #E1ECFF",
"V.	c #E6F2FF",
"W.	c #EAF6FF",
"X.	c #EDF8FF",
"Y.	c #EDF9FF",
"Z.	c #B4ADFF",
"`.	c #B7C0FF",
" +	c #C9D2FF",
".+	c #E3EFFF",
"++	c #ECF7FF",
"@+	c #F3FFFF",
"#+	c #FAFFFF",
"$+	c #FFFFFF",
"%+	c #D4DEFF",
"&+	c #DEE9FF",
"*+	c #E9F5FF",
"=+	c #F4FFFF",
"-+	c #D0ABFF",
";+	c #E0EBFF",
">+	c #B3ACFF",
",+	c #FCFFFF",
"'+	c #C3AFFF",
")+	c #B5ADFF",
"!+	c #A9A8FF",
"~+	c #A0A3FF",
"{+	c #C3AEFF",
"]+	c #F566FF",
"^+	c #B2ACFF",
"/+	c #D0AAFF",
"(+	c #B3ADFF",
"_+	c #A6A6FF",
":+	c #ABA9FF",
"<+	c #C0AEFF",
"[+	c #A8A7FF",
"}+	c #EC85FF",
"|+	c #D1AAFF",
"1+	c #CAADFF",
"2+	c #C8ADFF",
"3+	c #F662FF",
"                                                . + @ # $ % & * * & = $ - @ + .                                                 ",
"                                          ; > , ' ) ! ~ ~ { ] ] ] ] ] { ~ ~ ! ) ^ > /                                           ",
"                                    ( _ : ' ! ~ ] < [ } | | 1 2 2 2 1 | | } [ < ] ~ ! , 3 (                                     ",
"                                4 @ 5 ) ~ ] 6 } 1 7 8 9 9 0 0 0 0 0 0 0 9 9 8 7 1 } 6 ] ~ a @ 4                                 ",
"                              b c ) ~ < [ 1 8 9 0 d e e f f g g g g g f f e e d 0 9 8 1 [ < ~ h b                               ",
"                          i j ' ~ < } 2 8 0 d e f g k l m m n n n n n m m l k g f e d 0 8 2 } < ~ o i                           ",
"                        p q ! ] [ 2 r 0 e f k l m n s t u v w w x w w v u t s n m l k f e 0 r 2 [ ] y z                         ",
"                    A B ' ~ < | 8 0 e f k m n t u x C D E F G H H H G F E D C x u t n m k f e 0 8 | < ~ I A                     ",
"                  J K ) { [ 2 9 d f k m L M x N E H O P Q R R S T S R R Q P O H E N x M L m k f d 9 2 [ { U J                   ",
"                J V ) { [ 7 W e g l n M x D G O Q R X Y Z Y X X X X X Y Z Y X R Q O G D x M n l g e W 7 [ { ` J                 ",
"              A K ) { } 8 0 e k m s w D G  .R X Z X T ..P +.O @.#.@.O +.P ..T X Z X R  .G D w s m k e 0 8 } { U A               ",
"              B ) { } 8 0 f k n M $.F O R X Y T Q O G %.&.*.=.v v v =.*.&.%.G O Q T Y X R O F $.M n k f 0 8 } { I               ",
"            p ' { [ 8 0 f l -.u N H ;.T Z T P #.%.x M >.,.'.).).!.).).'.,.>.M x %.#.P T Z T ;.H N u -.l f 0 8 [ { z             ",
"          i q ~ [ 7 0 f l -.v D #.~.Y X Q #.D v >.'.!.{.].^./.(.(.(./.^.].{.!.'.>.v D #.Q X Y ~.#.D v -.l f 0 7 [ _.i           ",
"          j ! < 2 W e k -.v :.O R Z T +.E =.>.).{.<.[.}.|.1.2.3.3.3.2.1.|.}.[.<.{.).>.=.E +.T Z R O :.v -.k e W 2 < 4.          ",
"        b ' ] | 9 e k n u D O R Z R @.&.5.'.{.^.6.7.3.8.9.0.a.b.c.b.a.0.9.8.3.7.6.^.{.'.5.&.@.R Z R O D u n k e 9 | ] d.        ",
"      4 c ~ [ 8 d g m M N #.R Z R #.*.>.!.].e.7.f.9.a.g.h.i.j.k.k.k.j.i.h.g.a.9.f.7.e.].!.>.*.#.R Z R #.N M m g d 8 [ l.4       ",
"      @ ) < 2 0 f l s $.H ~.Z R #.*.m.n.^.o.3.9.c.p.q.r.s.t.u.v.v.v.u.t.s.r.q.p.c.9.3.o.^.n.m.*.#.R Z ~.H $.s l f 0 2 < w.      ",
"    ( 5 ~ } r e k n w F ;.Y T @.*.m.n./.|.x.y.z.j.A.B.C.D.E.F.G.H.G.F.E.D.C.B.A.j.z.y.x.|./.n.m.*.@.T Y ;.F w n k e r } I.(     ",
"    _ ) < 2 0 f m M D O T X +.&.>.n./.7.8.b.J.r.B.K.E.L.M.N.O.P.Q.P.O.N.M.L.E.K.B.r.J.b.8.7./.n.>.&.+.X T O D M m f 0 2 < R.    ",
"    : ~ [ 8 e k L x G R Z Q E 5.!.^.|.8.c.i.A.v.S.L.T.Q.U.V.W.X.Y.X.W.V.U.Q.T.L.S.v.A.i.c.8.|.^.!.5.E Q Z R G x L k e 8 [ Z.    ",
"  ; ' ] 1 0 f m M D  .X T #.=.'.].o.x.b.i.`.C. +M.P..+++@+#+$+$+$+$+$+#+@+++.+P.M. +C.`.i.b.x.o.].'.=.#.T X  .D M m f 0 1 ] /   ",
"  > ! 6 8 d k n x G R Y P D >.{.e.3.y.J.A.C.F.%+&+*+=+$+$+$+$+$+$+$+$+$+$+$+=+*+&+%+F.C.A.J.y.3.e.{.>.D P Y R G x n k d 8 6 -+  ",
"  , ~ } 9 e l t N O X T #.v ).^.7.9.z.r.v. +%+;+X.#+$+$+$+$+$+$+$+$+$+$+$+$+$+#+X.;+%+ +v.r.z.9.7.^.).v #.T X O N t l e 9 } >+  ",
". ' ] 1 0 f m u E Q Z Q %.>.{.6.f.c.j.B.S.M.&+X.,+$+$+$+$+$+$+$+$+$+$+$+$+$+$+$+,+X.&+M.S.B.j.c.f.6.{.>.%.Q Z Q E u m f 0 1 ] . ",
"+ ) < 7 d g n x H R X O x '.<.7.9.p.A.K.L.P.*+#+$+$+$+$+$+$+$+$+$+$+$+$+$+$+$+$+$+#+*+P.L.K.A.p.9.7.<.'.x O X R H x n g d 7 < + ",
"@ ! [ 8 e k s C O X T G M !.[.3.a.q.B.E.T..+=+$+$+$+$+$+$+$+$+$+$+$+$+$+$+$+$+$+$+$+=+.+T.E.B.q.a.3.[.!.M G T X O C s k e 8 [ w.",
"# ~ } 9 e l t D P Y ..%.>.{.}.8.g.r.C.L.Q.++$+$+$+$+$+$+$+$+$+$+$+$+$+$+$+$+$+$+$+$+$+++Q.L.C.r.g.8.}.{.>.%...Y P D t l e 9 } '+",
"$ ~ | 9 f m u E Q Z P &.,.].|.9.h.s.D.M.U.@+$+$+$+$+$+$+$+$+$+$+$+$+$+$+$+$+$+$+$+$+$+@+U.M.D.s.h.9.|.].,.&.P Z Q E u m f 9 | )+",
"% { | 0 f m v F R Y +.*.'.^.1.0.i.t.E.N.V.#+$+$+$+$+$+$+$+$+$+$+$+$+$+$+$+$+$+$+$+$+$+#+V.N.E.t.i.0.1.^.'.*.+.Y R F v m f 0 | !+",
"& ] 1 0 g n w G R X O =.)./.2.a.j.u.F.O.W.$+$+$+$+$+$+$+$+$+$+$+$+$+$+$+$+$+$+$+$+$+$+$+W.O.F.u.j.a.2./.).=.O X R G w n g 0 1 ~+",
"* ] 2 0 g n w H S X @.v ).(.3.b.k.v.G.P.X.$+$+$+$+$+$+$+$+$+$+$+$+$+$+$+$+$+$+$+$+$+$+$+X.P.G.v.k.b.3.(.).v @.X S H w n g 0 2 { ",
"* ] 2 0 g n x H T X #.v !.(.3.c.k.v.H.Q.Y.$+$+$+$+$+$+$+$+$+$+$+$+$+$+$+$+$+$+$+$+$+$+$+Y.Q.H.v.k.c.3.(.!.v #.X T H x n g 0 2 { ",
"& ] 2 0 g n w H S X @.v ).(.3.b.k.v.G.P.X.$+$+$+$+$+$+$+$+$+$+$+$+$+$+$+$+$+$+$+$+$+$+$+X.P.G.v.k.b.3.(.).v @.X S H w n g 0 2 ~+",
"= ] 1 0 g n w G R X O =.)./.2.a.j.u.F.O.W.$+$+$+$+$+$+$+$+$+$+$+$+$+$+$+$+$+$+$+$+$+$+$+W.O.F.u.j.a.2./.).=.O X R G w n g 0 1 !+",
"$ { | 0 f m v F R Y +.*.'.^.1.0.i.t.E.N.V.#+$+$+$+$+$+$+$+$+$+$+$+$+$+$+$+$+$+$+$+$+$+#+V.N.E.t.i.0.1.^.'.*.+.Y R F v m f 0 | )+",
"- ~ | 9 f m u E Q Z P &.,.].|.9.h.s.D.M.U.@+$+$+$+$+$+$+$+$+$+$+$+$+$+$+$+$+$+$+$+$+$+@+U.M.D.s.h.9.|.].,.&.P Z Q E u m f 9 | {+",
"@ ~ } 9 e l t D P Y ..%.>.{.}.8.g.r.C.L.Q.++$+$+$+$+$+$+$+$+$+$+$+$+$+$+$+$+$+$+$+$+$+++Q.L.C.r.g.8.}.{.>.%...Y P D t l e 9 } w.",
"+ ! [ 8 e k s C O X T G M !.[.3.a.q.B.E.T..+=+$+$+$+$+$+$+$+$+$+$+$+$+$+$+$+$+$+$+$+=+.+T.E.B.q.a.3.[.!.M G T X O C s k e 8 [ + ",
". ) < 7 d g n x H R X O x '.<.7.9.p.A.K.L.P.*+#+$+$+$+$+$+$+$+$+$+$+$+$+$+$+$+$+$+#+*+P.L.K.A.p.9.7.<.'.x O X R H x n g d 7 < ]+",
"  ^ ] 1 0 f m u E Q Z Q %.>.{.6.f.c.j.B.S.M.&+X.,+$+$+$+$+$+$+$+$+$+$+$+$+$+$+$+,+X.&+M.S.B.j.c.f.6.{.>.%.Q Z Q E u m f 0 1 ^+  ",
"  > ~ } 9 e l t N O X T #.v ).^.7.9.z.r.v. +%+;+X.#+$+$+$+$+$+$+$+$+$+$+$+$+$+#+X.;+%+ +v.r.z.9.7.^.).v #.T X O N t l e 9 } /+  ",
"  / ! 6 8 d k n x G R Y P D >.{.e.3.y.J.A.C.F.%+&+*+=+$+$+$+$+$+$+$+$+$+$+$+=+*+&+%+F.C.A.J.y.3.e.{.>.D P Y R G x n k d 8 6 /   ",
"    , ] 1 0 f m M D  .X T #.=.'.].o.x.b.i.`.C. +M.P..+++@+#+$+$+$+$+$+#+@+++.+P.M. +C.`.i.b.x.o.].'.=.#.T X  .D M m f 0 1 (+    ",
"    3 ~ [ 8 e k L x G R Z Q E 5.!.^.|.8.c.i.A.v.S.L.T.Q.U.V.W.X.Y.X.W.V.U.Q.T.L.S.v.A.i.c.8.|.^.!.5.E Q Z R G x L k e 8 [ R.    ",
"    ( a < 2 0 f m M D O T X +.&.>.n./.7.8.b.J.r.B.K.E.L.M.N.O.P.Q.P.O.N.M.L.E.K.B.r.J.b.8.7./.n.>.&.+.X T O D M m f 0 2 _+(     ",
"      @ ~ } r e k n w F ;.Y T @.*.m.n./.|.x.y.z.j.A.B.C.D.E.F.G.H.G.F.E.D.C.B.A.j.z.y.x.|./.n.m.*.@.T Y ;.F w n k e r } w.      ",
"      4 h < 2 0 f l s $.H ~.Z R #.*.m.n.^.o.3.9.c.p.q.r.s.t.u.v.v.v.u.t.s.r.q.p.c.9.3.o.^.n.m.*.#.R Z ~.H $.s l f 0 2 :+4       ",
"        b ~ [ 8 d g m M N #.R Z R #.*.>.!.].e.7.f.9.a.g.h.i.j.k.k.k.j.i.h.g.a.9.f.7.e.].!.>.*.#.R Z R #.N M m g d 8 [ d.        ",
"          o ] | 9 e k n u D O R Z R @.&.5.'.{.^.6.7.3.8.9.0.a.b.c.b.a.0.9.8.3.7.6.^.{.'.5.&.@.R Z R O D u n k e 9 | <+          ",
"          i y < 2 W e k -.v :.O R Z T +.E =.>.).{.<.[.}.|.1.2.3.3.3.2.1.|.}.[.<.{.).>.=.E +.T Z R O :.v -.k e W 2 [+}+          ",
"            z ~ [ 7 0 f l -.v D #.~.Y X Q #.D v >.'.!.{.].^./.(.(.(./.^.].{.!.'.>.v D #.Q X Y ~.#.D v -.l f 0 7 [ z             ",
"              I { [ 8 0 f l -.u N H ;.T Z T P #.%.x M >.,.'.).).!.).).'.,.>.M x %.#.P T Z T ;.H N u -.l f 0 8 [ |+              ",
"              A U { } 8 0 f k n M $.F O R X Y T Q O G %.&.*.=.v v v =.*.&.%.G O Q T Y X R O F $.M n k f 0 8 } 1+A               ",
"                J ` { } 8 0 e k m s w D G  .R X Z X T ..P +.O @.#.@.O +.P ..T X Z X R  .G D w s m k e 0 8 } 2+3+                ",
"                  J U { [ 7 W e g l n M x D G O Q R X Y Z Y X X X X X Y Z Y X R Q O G D x M n l g e W 7 [ 1+3+                  ",
"                    A I { [ 2 9 d f k m L M x N E H O P Q R R S T S R R Q P O H E N x M L m k f d 9 2 [ |+A                     ",
"                        z _.< | 8 0 e f k m n t u x C D E F G H H H G F E D C x u t n m k f e 0 8 | [+z                         ",
"                          i 4.] [ 2 r 0 e f k l m n s t u v w w x w w v u t s n m l k f e 0 r 2 [ <+}+                          ",
"                              d.l.< } 2 8 0 d e f g k l m m n n n n n m m l k g f e d 0 8 2 } :+d.                              ",
"                                4 w.I.< [ 1 8 9 0 d e e f f g g g g g f f e e d 0 9 8 1 [ _+w.4                                 ",
"                                    ( R.Z.] 6 } 1 7 8 9 9 0 0 0 0 0 0 0 9 9 8 7 1 } 6 (+R.(                                     ",
"                                          / -+>+] < [ } | | 1 2 2 2 1 | | } [ < ^+/+/                                           ",
"                                                . + w.'+)+!+~+{ { ~+!+)+{+w.+ ]+                                                "};
