/* XPM */
static char * birch_planks_xpm[] = {
"64 64 102 2",
"  	c #BE7B53",
". 	c #BB7952",
"+ 	c #9D6042",
"@ 	c #C17F57",
"# 	c #E0A478",
"$ 	c #E3A77B",
"% 	c #E2A579",
"& 	c #D48C62",
"* 	c #C07C54",
"= 	c #C3885C",
"- 	c #F0DC95",
"; 	c #F4E299",
"> 	c #F3DE97",
", 	c #E4AD7E",
"' 	c #C3875B",
") 	c #C28058",
"! 	c #BE7D56",
"~ 	c #D58E64",
"{ 	c #C07D54",
"] 	c #BE7C54",
"^ 	c #EFD893",
"/ 	c #E2A97B",
"( 	c #DB9F75",
"_ 	c #A16547",
": 	c #DFA277",
"< 	c #ECD691",
"[ 	c #DEA176",
"} 	c #DEA277",
"| 	c #A16647",
"1 	c #F3DC95",
"2 	c #F4E098",
"3 	c #F3C587",
"4 	c #E4AA7C",
"5 	c #F4DF97",
"6 	c #F2C185",
"7 	c #E4A97C",
"8 	c #E6AF7E",
"9 	c #F4E097",
"0 	c #F2C486",
"a 	c #D38D63",
"b 	c #C38058",
"c 	c #F3DB95",
"d 	c #F1DA95",
"e 	c #F0D993",
"f 	c #EFD892",
"g 	c #EFD792",
"h 	c #F1D793",
"i 	c #F1C084",
"j 	c #D69166",
"k 	c #E3A77A",
"l 	c #F0BC82",
"m 	c #C8885D",
"n 	c #EEB97F",
"o 	c #C6865C",
"p 	c #EDB87E",
"q 	c #EFD591",
"r 	c #C38159",
"s 	c #D59064",
"t 	c #C38359",
"u 	c #EFBE82",
"v 	c #C28057",
"w 	c #C58459",
"x 	c #C38358",
"y 	c #EFBB80",
"z 	c #E5AD7E",
"A 	c #E0A477",
"B 	c #E6AF7F",
"C 	c #C38258",
"D 	c #EBB77D",
"E 	c #E2A679",
"F 	c #E7B481",
"G 	c #BE7C53",
"H 	c #9C6042",
"I 	c #B97750",
"J 	c #BF7D56",
"K 	c #BD7A52",
"L 	c #F3C989",
"M 	c #995D40",
"N 	c #A26648",
"O 	c #A26445",
"P 	c #AF6C4B",
"Q 	c #B16E4C",
"R 	c #BD7A53",
"S 	c #A26748",
"T 	c #B1704F",
"U 	c #BE7C55",
"V 	c #C07E56",
"W 	c #C07E57",
"X 	c #DFA378",
"Y 	c #D89267",
"Z 	c #D78F65",
"` 	c #C6855C",
" .	c #C5845B",
"..	c #C5835B",
"+.	c #C38158",
"@.	c #D28B61",
"#.	c #DFA276",
"$.	c #D28A61",
"%.	c #F3C385",
"&.	c #E3AB7C",
"*.	c #F2DA94",
"=.	c #D89769",
"                            . + + .   @ # $ % & * @ # $ $ $ # @                               = - ; > , $ $ $ $ $ $ $ $ $ # @   ",
"= ' ) ) ' = ' ) @ ) ' = ' ) ! + + .   @ # $ % ~ { @ # $ $ $ # @ ] ' ' ) @ @ @ @ ) ' = ' ) @   = - ; > , $ $ $ $ $ $ $ $ $ # @   ",
"- ^ / / ^ - ^ / # / ^ - ^ / ( _ + .   @ # $ $ : @ @ # $ $ $ # @ ' < ^ / # # # # / ^ - ^ / [ @ = - ; > , $ $ $ $ $ $ $ $ $ # @   ",
"; > , , > ; > , $ , > ; > , } | + .   @ # $ $ # @ @ # $ $ $ # @ = - > , $ $ $ $ , > ; > , # @ = - ; 1 , $ $ $ $ $ $ $ $ $ # @   ",
"; > , , > ; > , $ , > ; > , } | + .   @ # $ $ # @ @ # $ $ $ # @ = - > , $ $ $ $ , > ; > , # @ = - 2 3 4 $ $ $ $ $ $ $ $ $ # @   ",
"; > , , > ; > , $ , > ; > , } | + .   @ # $ $ # @ @ # $ $ $ # @ = - > , $ $ $ $ , > ; > , # @ = - 5 6 7 $ $ $ $ $ $ $ $ $ # @   ",
"; > , , > ; > , $ , > ; > , } | + .   @ # $ $ # @ @ # $ $ $ # @ = - > , $ $ $ $ , > ; > , # @ = - > 8 $ $ $ $ $ $ $ $ $ $ # @   ",
"; > , , > ; > , $ , > ; > , } | + .   @ # $ $ # @ @ # $ $ $ # @ = - > , $ $ $ $ , > ; > , # @ = - > , $ $ $ $ $ $ $ $ $ $ # @   ",
"; > , , > ; > , $ , > ; > , } | + .   @ # $ $ # @ @ # $ $ $ # @ = - > , $ $ $ $ , > ; > , # @ = - > , $ $ $ $ $ $ $ $ $ $ # @   ",
"; > , , > ; > , $ , > ; 1 , } | + .   @ # $ $ # @ @ # $ $ $ # @ = - > , $ $ $ $ , > ; > , # @ = - > , $ $ $ $ $ $ $ $ $ $ # @   ",
"; > , , > ; > , $ , > 9 0 4 } | + .   @ # $ $ # @ @ # $ $ $ # @ = - > , $ $ $ $ , > ; > , # @ = - > , $ $ $ $ $ $ $ $ $ $ # @   ",
"; > , , > ; > , $ , > > 8 $ } | + .   @ # $ $ # @ @ # $ $ $ # @ = - > , $ $ $ $ , > ; > , # @ = - > , $ $ $ $ $ $ $ $ $ $ # @   ",
"; > , , > ; > , $ , > > , $ } | + .   @ # $ $ # @ @ # $ $ $ # @ = - > , $ $ $ $ , > ; > , # @ = - > , $ $ $ $ $ $ $ $ $ $ # @   ",
"; > , , > ; > , $ , > > , $ } | + .   @ : $ $ # @ @ # $ $ $ # @ = - > , $ $ $ $ , 1 ; > , # @ = - > , $ $ $ $ $ $ $ $ $ $ # @   ",
"; > , , > ; 1 , $ , > > , $ } | + .   * a % $ # @ @ # $ $ $ # @ = - > , $ $ $ $ 4 3 2 > , # @ = - > , $ $ $ $ $ $ $ $ $ $ # @   ",
"; > , , > 9 0 4 $ , > > , $ } | + .     b # $ # @ @ # $ $ $ # @ = - > , $ $ $ $ 7 6 5 > , # @ = - > , $ $ $ $ $ $ $ $ $ $ # @   ",
"; > , , > > 8 $ $ , > > , $ } | + .     @ # $ : @ @ # $ $ $ # @ = - > , $ $ $ $ $ 8 > > , # @ = - > , $ $ $ $ $ $ $ $ $ $ # @   ",
"; > , , 1 > , $ $ , > > , $ } | + .     @ # % a * @ # $ $ $ # @ = - > , $ $ $ $ $ , > > , # @ = - > , $ $ $ $ $ $ $ $ $ $ # @   ",
"; > , 4 0 c , $ $ , > > , $ } | + .     @ # # b   @ # $ $ $ # @ = - > , $ $ $ $ $ , > > , # @ = - 1 , $ $ $ $ $ $ $ $ $ $ # @   ",
"; > , $ 8 d , $ $ , > > , $ } | + .     @ # # @   @ # $ $ $ # @ = - > , $ $ $ $ $ , > > , # @ = e 3 4 $ $ $ $ $ $ $ $ $ $ # @   ",
"; > , $ , d , $ $ 8 > > , $ } | + .     @ # # @   @ # $ $ $ # @ = - > , $ $ $ $ $ , > > , # @ = e 6 7 $ $ $ $ $ $ $ $ $ $ # @   ",
"; > , $ , d , $ 4 0 9 > , $ } | + .     @ # # @   @ # $ $ $ # @ = - > , $ $ $ $ $ , > > , # @ = f 8 $ $ $ $ $ $ $ $ $ $ $ # @   ",
"; > , $ , d , $ , 1 ; > , $ } | + .     @ # # @   @ # $ $ $ # @ = - > , $ $ $ $ $ , > > , # @ = g , $ $ $ $ $ $ $ $ $ $ $ # @   ",
"; > , $ , h , $ , > ; > , $ } | + .     @ # # @   @ # $ $ $ # @ = - > , $ $ $ $ $ , > > , # @ = g , $ $ % $ $ $ $ $ $ $ $ # @   ",
"; > 8 $ 4 i 4 $ , > ; > , $ } | + .     @ # # @   @ # $ $ $ # @ = - > , $ $ 7 $ $ , > > , # @ = g , $ % j k $ $ $ $ $ $ $ # @   ",
"; 9 0 4 7 l 7 $ , > ; > , $ } | + .     @ # # @   @ # $ $ $ # @ = - > , $ 7 l 7 $ , > > , # @ = g , $ # m n 7 $ $ $ $ $ $ # @   ",
"; ; 1 , $ 7 $ $ , > ; > , $ } | + .     @ # # @   @ # $ $ $ # @ = - > , $ 4 i 4 $ , > > , # @ = g , $ # o p 7 $ $ $ $ $ $ # @   ",
"; ; > , $ $ $ $ , > ; > , $ } | + .     @ # # @   @ : $ $ $ # @ = - > , $ , h , $ , > > , # @ ' q , $ # r s k $ $ $ $ $ $ # @   ",
"; ; > , $ $ $ $ , > ; > , $ } | + .     @ # # @   * a % $ $ # @ = - > , $ 8 d , $ , > > , # @ t u 4 $ # v w n 7 $ $ $ $ $ # @   ",
"; ; > 8 $ $ $ $ , > ; > , $ } | + .     @ # # @     b # $ $ # @ = - > , 4 0 c , $ , > > , # @ x y 7 $ # @ x y 7 $ $ $ $ $ # @   ",
"; ; 9 0 4 $ $ $ , > ; > , $ } | + .     @ # # @     @ # $ $ # @ = - > , , 1 > , $ , > > , # @ x y 7 $ # @ x n 7 $ $ $ $ $ # @   ",
"; ; ; 1 , $ $ $ , > ; > , $ } | + .     @ # # @     @ # $ $ # @ = - > z 8 > > , $ , > > , # @ x y 7 $ # @ @ A $ $ $ $ $ $ # @   ",
"; ; ; > , $ $ $ , > ; > , $ } | + .     @ # # @     @ # $ $ # @ = - > B 0 5 1 , $ , > > , # @ C D E # [ @ * a % $ $ $ $ $ # @   ",
"; ; ; > , $ $ $ , > ; > , $ } | + .     @ # # @     @ # $ $ # @ = - > F 1 5 0 4 $ , > > , # @ G C v @ @     b # $ $ $ $ $ # @   ",
"; ; ; > , $ $ $ , > ; > , $ } | H I . . ! ( ( J K K @ [ # # [ @ = - 9 L 9 > 8 $ $ , > > , # @               @ [ # # # # # [ @   ",
"; ; ; > , $ $ $ , > ; > , $ } | M H + + + _ N O P Q R @ @ @ @   = - ; 2 ; > , $ $ , > > , # @                 @ @ @ @ @ @ @     ",
"; ; ; > , $ $ $ , > ; > , $ } | M H + + _ S T U V W @ @ @ @ @   = - ; ; ; > , $ $ , > > , # @ G C v @ @ @ @ @ @ @ @ @ @ @ @     ",
"; ; ; > , $ $ $ , > ; > , $ } | H I . ! ( } X # # # # # # # [ @ = - ; ; ; 1 , $ $ 8 > > , # @ C D E # # # # # # # # # # # [ @   ",
"; ; ; > , $ $ $ , > ; > , $ } | + .   @ # $ $ $ $ $ $ $ $ $ # @ = - ; ; 9 0 4 $ 7 6 5 > , # @ t u 4 $ $ $ $ $ $ $ $ $ $ $ # @   ",
"; ; ; > , $ $ $ , > ; > , $ } | + .   @ # $ $ $ $ $ $ $ $ $ # @ = - ; ; > 8 $ $ 4 3 2 > , # @ ' q , $ $ $ $ $ $ $ $ $ $ $ # @   ",
"; ; ; > , $ $ $ , > ; > , $ } | + .   @ # $ $ $ $ $ $ $ $ $ # @ = - ; ; > , $ $ , 1 ; > , # @ = g , $ $ $ $ $ $ $ $ $ $ $ # @   ",
"; ; ; > 8 $ $ $ , > ; > , $ } | + .   @ # $ $ $ $ $ $ $ $ $ # @ = - ; ; > , $ $ 8 > ; > , # @ = f 8 $ $ $ $ $ $ $ $ $ $ $ # @   ",
"; ; ; 9 0 4 $ $ , > ; > , $ } | + .   @ # $ $ $ $ $ $ $ $ $ # @ = - ; ; 1 , $ 7 6 5 ; > , # @ = e 0 4 $ $ $ $ $ $ $ $ $ $ # @   ",
"; ; ; ; 1 , $ $ , > ; > , $ } | + .   @ # $ $ $ $ $ $ $ $ $ # @ = - ; 9 0 4 $ 4 3 2 ; 1 , # @ = - 1 , $ $ $ $ $ $ $ $ $ $ # @   ",
"; ; ; ; > , $ $ , > ; > , $ } | + .   @ # $ $ % $ $ $ $ $ $ # @ = - ; > 8 $ $ , 1 ; 2 3 4 # @ = - > , $ $ $ $ $ $ $ $ $ $ # @   ",
"; ; ; ; > , $ $ , > ; > , $ } | + .   @ # $ % Y % $ $ $ $ $ # @ = - ; 1 , $ $ , > ; 5 6 7 # @ = - > , $ $ $ $ $ $ $ $ $ $ # @   ",
"; ; ; ; > , $ $ , > ; > , $ } | + .   @ # $ % Z % $ $ $ $ $ # @ = - 9 0 4 $ $ , > ; > 8 $ # @ = - > , $ $ $ $ $ $ $ $ $ $ # @   ",
"; ; ; ; > , $ $ , > ; > , $ } | + .   @ # $ % Z % $ $ $ $ $ # @ = - > 8 $ $ $ 8 > ; > , $ # @ = - > , $ $ $ $ $ $ $ $ $ $ # @   ",
"; ; ; ; > , $ $ , > ; 1 , $ } | + .   @ # $ % ~ % $ $ $ $ $ # @ = - > , $ $ 7 6 5 ; 1 , $ # @ = - > , $ $ $ $ $ $ $ $ $ $ # @   ",
"; ; ; ; > , $ $ , > 2 3 4 $ } | + .   b # $ # ` # $ $ $ $ $ # @ = - > , $ $ 4 3 2 2 3 4 $ # @ = - > , $ $ $ $ $ $ $ $ $ $ # @   ",
"; ; ; ; > , $ $ , > 5 6 7 $ } | + . * a % $ #  .# $ $ $ $ $ # @ = - > , $ $ , 1 ; 5 6 7 $ # @ = - > , $ $ $ $ $ $ $ $ $ $ # @   ",
"; ; ; ; > , $ $ , > > 8 $ $ } | + . @ : $ $ # ..: $ $ $ $ $ # @ = - > , $ $ , > ; > 8 $ $ # @ = - > , $ $ $ $ $ $ $ $ $ $ # @   ",
"; ; ; ; > , $ $ , > > , $ $ } | + . @ # $ $ # r ~ % $ $ $ $ # @ = - > , $ $ , > ; > , $ $ # @ = - > 8 $ $ $ $ $ $ $ $ $ $ # @   ",
"; ; ; ; > , $ $ , > > , $ $ } | + . @ # $ $ # +.@.% $ $ $ $ # @ = - > , $ $ , > ; > , $ $ # @ = - 9 0 4 $ $ $ $ $ $ $ $ $ # @   ",
"; ; ; ; > , $ $ , > > , $ $ } | + . @ # $ $ # v b # $ $ $ $ # @ = - > , $ $ , > ; 1 , $ $ # @ = - ; 1 , $ $ $ $ $ $ $ $ $ # @   ",
"; ; ; ; > , $ $ , > > , $ $ } | + . @ # $ $ # @ @ # $ $ $ $ # @ = - > , $ $ , > 2 3 4 $ $ # @ = - ; > , $ $ $ $ $ $ $ $ $ # @   ",
"; ; ; ; > , $ $ , > > , $ $ } | + . @ # $ $ # @ @ # $ $ $ $ # @ = - > , $ $ , > 5 6 7 $ $ # @ = - ; > , $ $ $ $ $ $ $ $ $ # @   ",
"; ; ; ; > , $ $ , > > , $ $ } | + . @ # $ $ # @ @ # $ $ $ $ # @ = - > , $ $ , > > 8 $ $ % #.@ = - ; > , $ $ $ $ $ $ $ $ $ # @   ",
"; ; ; ; > , $ $ , > > , $ $ } | + . @ # $ $ # @ @ # $ $ $ $ # @ = - > , $ $ , > > , $ % ~ $.* = - ; > , $ $ $ $ $ $ $ $ $ # @   ",
"; ; ; ; > , $ $ , 1 > , $ $ } | + . @ # $ $ # @ @ # $ $ $ $ # @ = - > , $ $ , > > , $ # +.*   = - ; > , $ $ $ $ $ $ $ $ $ # @   ",
"; ; ; ; > , $ $ 4 3 1 , $ $ } | + . @ # $ $ # @ @ # $ $ $ $ # @ = - > , $ $ , > > , $ # @     = - ; > , $ $ $ $ $ $ $ $ $ # @   ",
"; ; ; ; > , $ $ 7 %.c , $ $ } | + . @ # $ $ # @ @ : $ $ $ $ # @ = - > , $ $ , > > , $ # @     = - ; > , $ $ $ $ $ $ $ $ $ # @   ",
"; ; ; ; > , $ $ 7 %.c &.% $ } | + . @ : $ $ # @ { ~ % $ $ $ # @ = - > , $ $ , > > , $ # @     = - ; > , $ $ $ $ $ $ $ $ $ # @   ",
"; ; ; ; > , $ $ 7 %.*.=.Z % } | + . { ~ % $ # @ * & % $ $ $ # @ = - > , $ $ , > > , $ # @     = - ; > , $ $ $ $ $ $ $ $ $ # @   "};
