/* XPM */
static char * blackstone_xpm[] = {
"64 64 193 2",
"  	c #3B3441",
". 	c #37303B",
"+ 	c #312A32",
"@ 	c #1F181A",
"# 	c #1B1515",
"$ 	c #1C1616",
"% 	c #241E21",
"& 	c #262024",
"* 	c #332C34",
"= 	c #3D3542",
"- 	c #574559",
"; 	c #4C3E4F",
"> 	c #352D36",
", 	c #322B33",
"' 	c #312A31",
") 	c #201A1C",
"! 	c #1E181A",
"~ 	c #342D37",
"{ 	c #3B3440",
"] 	c #403745",
"^ 	c #3D3442",
"/ 	c #1F191B",
"( 	c #1C1617",
"_ 	c #1F191A",
": 	c #282126",
"< 	c #342D35",
"[ 	c #38323E",
"} 	c #2F2830",
"| 	c #221C1F",
"1 	c #312A33",
"2 	c #3A3340",
"3 	c #282125",
"4 	c #352E37",
"5 	c #4A3D4E",
"6 	c #544356",
"7 	c #362D36",
"8 	c #302931",
"9 	c #2E272E",
"0 	c #1D1718",
"a 	c #211B1F",
"b 	c #39323E",
"c 	c #58465A",
"d 	c #403644",
"e 	c #251E23",
"f 	c #1E1819",
"g 	c #272025",
"h 	c #2F282F",
"i 	c #332C35",
"j 	c #3A333F",
"k 	c #2E282F",
"l 	c #302930",
"m 	c #221C1E",
"n 	c #322B34",
"o 	c #1D1719",
"p 	c #342D36",
"q 	c #342C35",
"r 	c #292226",
"s 	c #272024",
"t 	c #342E37",
"u 	c #413846",
"v 	c #5B485D",
"w 	c #4A3C4D",
"x 	c #302A31",
"y 	c #231D20",
"z 	c #272125",
"A 	c #1F191C",
"B 	c #362F39",
"C 	c #3E3643",
"D 	c #37303A",
"E 	c #20191C",
"F 	c #211B1E",
"G 	c #3F3745",
"H 	c #564559",
"I 	c #362E38",
"J 	c #38313D",
"K 	c #332D35",
"L 	c #5A475C",
"M 	c #4B3E4F",
"N 	c #39323F",
"O 	c #493D4D",
"P 	c #3C3441",
"Q 	c #564558",
"R 	c #3F3644",
"S 	c #544357",
"T 	c #3F3645",
"U 	c #312B33",
"V 	c #221C20",
"W 	c #3E3442",
"X 	c #413746",
"Y 	c #554458",
"Z 	c #261F23",
"` 	c #1B1516",
" .	c #554457",
"..	c #4A3D4D",
"+.	c #372F39",
"@.	c #201A1D",
"#.	c #2B2329",
"$.	c #241D22",
"%.	c #221B1E",
"&.	c #231D21",
"*.	c #241D21",
"=.	c #251D22",
"-.	c #1E1719",
";.	c #574558",
">.	c #332B34",
",.	c #2F2930",
"'.	c #3C3542",
").	c #4C3E50",
"!.	c #59475B",
"~.	c #3E3543",
"{.	c #251D21",
"].	c #372E38",
"^.	c #59465B",
"/.	c #3B3340",
"(.	c #483B4B",
"_.	c #534255",
":.	c #3E3644",
"<.	c #2C222A",
"[.	c #362D37",
"}.	c #493B4C",
"|.	c #564458",
"1.	c #4A3E4E",
"2.	c #4D3F50",
"3.	c #352D37",
"4.	c #493C4C",
"5.	c #554357",
"6.	c #2C2229",
"7.	c #292027",
"8.	c #2B2229",
"9.	c #453949",
"0.	c #39303A",
"a.	c #4B3D4E",
"b.	c #57465A",
"c.	c #372E39",
"d.	c #554356",
"e.	c #392F3A",
"f.	c #261E24",
"g.	c #4E4052",
"h.	c #584559",
"i.	c #58455A",
"j.	c #2A2128",
"k.	c #37313D",
"l.	c #292228",
"m.	c #39303B",
"n.	c #4C3F50",
"o.	c #2E282E",
"p.	c #251F22",
"q.	c #261F22",
"r.	c #292227",
"s.	c #37313C",
"t.	c #2D262D",
"u.	c #463B4A",
"v.	c #261E23",
"w.	c #514153",
"x.	c #241C21",
"y.	c #38303A",
"z.	c #3D3543",
"A.	c #4E4051",
"B.	c #271F24",
"C.	c #534356",
"D.	c #443948",
"E.	c #352E38",
"F.	c #423847",
"G.	c #534254",
"H.	c #251C21",
"I.	c #1E181B",
"J.	c #352F3A",
"K.	c #483C4C",
"L.	c #544255",
"M.	c #282227",
"N.	c #3B333F",
"O.	c #292127",
"P.	c #1D1717",
"Q.	c #2C252B",
"R.	c #58465B",
"S.	c #483B4C",
"T.	c #271F25",
"U.	c #322A32",
"V.	c #2A2328",
"W.	c #3B323D",
"X.	c #372F38",
"Y.	c #463A4A",
"Z.	c #3C3442",
"`.	c #292328",
" +	c #3A323F",
".+	c #382F3A",
"++	c #453A49",
"@+	c #352C35",
"#+	c #524154",
"$+	c #382F39",
"%+	c #221B1F",
"&+	c #2D232B",
"*+	c #39313C",
"    . + @ # # # $ % $ $ & + * = - ; > , , , ' ) # ! ~ {             ] - ^ / # # # # ( _ : + < [ / # # # # # # ( : + , , , } | 1 ",
"    2 * 3 ! # # # $ # # ! } , 4 5 6 7 + ' ' 8 9 0 # a b           = ; c d e f f f @ g h , i j [ / # # # # # # 0 k + , , l m + j ",
"      j n } o # # # # # # / } + p q r s @ f f o # # ! t 2         u c v c w * ' ' x h y [ j j n f # # # # # # # ! z l l g A B { ",
"    C   D + f # # # # # # # ! z h E ( $ # # # # # # # F 4 2     G - v v v H I , , + | F J K * l o # # # # # # # # ( o o ( / b   ",
"  C 6 C j 1 f # # # # # # # # ( 0 # # # # # # # # # # # F 4 2 = ; L v v L M > , , , ' ' * , + z ( # # # # # # # # # # # # / N   ",
"  G O = 2 1 f # # # # # # # # # # # # # # # # # o o # # # F t P Q v v v - R * , , , , , , , l ! # # # # # # # # # # 0 ( # / [   ",
"u S T   2 U @ # # # # # # $ # # # # # # # ( o E k 9 0 # # # ! V W - v c X j * , , , , , , + z ( # # # # # # # # # o k g ( f 1 j ",
"Y M =   j , s $ # # # # ! Z ( # # # ( o @ z l h g ! # # # # # ` V W  ...{ i , , , , , , + } ! # # # # # # # # # # o } l E ( z , ",
"+.    { D , : 0 ( o f ) } h 0 # # 0 g l ' + + z 0 # # # # # # # ` @.#.$.8 , , , , , , ' z ! # # # # # # # # # # # # / } } ! ! l ",
"+ i j 2 i ' 8 : : l ' ' + z ( # ! z ' , , , l ! # # # # # # # # # # $ # / } ' ' ' ' l g 0 # # # # # # # # # # # # # ( %.l z 0 Z ",
") 8 i b 8 &.' + + , , , } ! # ! } + , , , + z ( # # # # # # # # # # # # # o f f f f o ( # # # # # # # # # # # # # 0 g l , l f $ ",
"( g ' 1 *.l , , , , , l E # 0 z + , , n * , | E =.=.=.%.f # # # # # # # # # # # # # # # # # # # -./ / / ! f f f @ z ' , , ' @ # ",
"# 0 g l ' , , , , , + z ( ( g ' , , i D j 2 N P 6 Q ;.w >.E # # # # # # # # # # # # # # # # ` F + [ N b B , ' ' ' + , , , + z 0 ",
"o ( ( E ,., , , , + } ! # E l , I +.= '.        G ).!.c ~.+ -.# # # # # ( 0 # # # # # $ %.{.V J 2       { j i n , , , , + , ' : ",
"l g ( # / } + , l z ! ( E ,., ].6 - c M =         C ).^.; /.@.# # # ( ! z k o # # # # %.(._.P               2 D * , , ' | } + + ",
", l ) ( # ! z h E ( ! z l , i j G ).!.c :.          ] !.!.5 #.@ f @ z l + l o # # $ %.<.6 X                   2 D * , ' _ ! z l ",
", , l g ( # ( 0 ` / } + , i j     C ).c u =         ] !.v Q [.' ' ' + , ' g ( # # %.}.|.M =                     2 D n + z 0 ( ! ",
", ' ' l o # # # ! } , , i j         G - c M =     '.1.L c 5 > , + + ' l g 0 # # # =.- !.]                         2 i , ' z / & ",
"} ) ) 9 o # # ( z + , * j             X - c :.    C 2.c ] 3.+ 8 : s @ o ( # # # # =.- !.:.                        { D n , + ' 8 ",
"o # # 0 # # # o l , , * 2               X Y :.  = M ^. .[.l : & 0 $ # # # # # # # %.4.c u                           2 ]., , ' : ",
"# # # # # # # o l , , * 2                 C     G c 5.6.! o ( $ # # # # # # # # # $ 7.6 6 R                         :.6 I + z 0 ",
"# # # # # # # ( z + , * j {                   '.1.- <.$ # # # # # # # # # # # # # # $ {.8.9.'.                      ] H 0.+ @ # ",
"# # # # # # # # ! l , , i D 2                 C 2. .=.# # # # # # # # # # # # # # # # o ,.3.j 2                   = ; ^.a.* f # ",
"# # # # # # # # ( g ' , , * D 2             C ; b.}.%.# # # # # # # # # # # # # # # # f ' , * K j                 :.c v c c.f # ",
"# # # # # # # # # 0 g l + , * D {         = M Q d.7.$ # # # # # # # # # # # # # # # # o } + , , K 2               :.!.L L w %.# ",
"# # # # # # # # # # ( ! z l , i 2         C _.e.f.$ # # # # # # # # # # # # # # # # # # ! 3 + , * j               u - g.L - =.# ",
"# # # # # # # # # # # # ( E } , j         j ].+ @ # # # # # # # # # # # # # # # # # # # # ! } + , K 2           X Q M u !.h.=.# ",
"# # # # # # # # # # # # # # ! z 1 [ N N j i , + z ( # # # # # # # ` / / / / -.# # # # # # # ! z l 1 b         C Q - G R !.i.j.f ",
"$ # # # # # # # # # # # # # # ( f / A | U , , , l ! # # # # # # ` V k.N N [ + F -.# # # # # # ( o _ l.J 2     = O G   :.c L w * ",
"& @ o ( # # # # # # # # # # # # # # 0 z + , , , + z ( # # # # ` V J         2 b + E # # # # # # # # ( F 1 2     '.    = ; L c m.",
"+ ' l z @ o ( # # # # # # # # # # ( g ' , , , , , l o # # # # / k.              j + -.# # # # # # # # # F k.2           G c L n.",
", , , + l o.p.$ # # # # # o f o # 0 k ' , , , , , ' ) o ( # o F N                 b ) # # # # # # # # # ` F + b 2       = M c c ",
", , + l z ! ( # # # # # 0 9 8 } ! # o ) ' , , , , , ' k q./ } U 2                 j r.! ( # # # # # # # # # -.F 1 2       = :.:.",
"+ l z ! ( # # # # # # # # / } l g 0 # o } , , , , , l ) 0 3 , < 2                 2 , l z @ o ( # # # # # # # # F s.N           ",
"& ! ( # # # # # # # # # # # o E 9 g ( # / ,., , + l g ( E 8 D 2                 '.2 * , + ' l g 0 # # # # # # # ` / V J 2     2 ",
"$ # # # # # # # # 0 # # # # # # / t.0 # # / } l z ! ( o } * j                 R u./.* , , , ' 8 z ! # # # # # # # # ` F + [ [ n ",
"# # # # # # # # E h E # # # # # # 0 # # # # o o ( # # @ ' K 2               X  .0.* , , + } %.} 8 } ! # # # # # # # # # -./ / f ",
"# # # # # # # -.+ b 1 v.$ # # # # # # # # # # # # # ( z n j               X Q |.I , , ' z ! ` ! z h Z $ # # # # # # # # # # # # ",
"# # # # # # ! V b '.] w.x.# # # # # # # # # # # # # 0 h D {             G Q M y., , ' z 0 # # # ( 0 ( # # # # # # # # # # # # # ",
"# # # # ` a t N R M Q ..e ` # # # # # # # # # # # # # F b           C z.; c C * , + z 0 # # # # # # # # # # # # # # # # # # # # ",
"# # # # a J { C Y ^.A.R J B.$ # # # # # # # # # # # # / [         C C.D.c - +., , ' @ # # # # # # # # # # # # # # # # # # # # # ",
"# # -.a E.{     u c !.).F.G.H.# # # # # # # # # # # # -.+ 2         X - ^.a.4 , , ' f # # # # # # # # # ` I.` # # # # # # # # # ",
"# -.+ b {       = ; L L !.- =.# # # # # # # # # # # # # F k.2       :.- a.+.b * , ' f # # # # # # # # ` V J./ # # # # # # # # # ",
"# / [             G c v v h.=.# # # ! / / f o ( # # # # ` F + b 2 2 P K.+.p j K , ' f # # # # # # # # / k.N e x.$ # # # # # # # ",
"# / N             = M !.v h.=.` / a t b [ n l g ( # # # # # -.F U * * 3.b 2   j i ' @ # # # # # # # ` V N '.5 L.8.$ # # # # # # ",
"# / J               C ; !.i.j.V k.N { 2 2 b * h 0 # # # # # # o } + , , i j     j * M.! # # # # # $ $.N.  :.c v 5.O.A / / / f ( ",
"# P.Q.j               C ).R.S./.    j K * * ' g ( # # # # # # # ! z l , , i j     2 b + -.# # # # %.S.6 C :.!.v L 5 /.N b J ' : ",
"o ` @.k.                ] - ] 2 N [ n ' , + z 0 # # # # # # # # # ( E ,., , i j 2 2 j . / # # -./ T._.X   :.!.v v c :.{ D i , + ",
"} / $ V N               :. .~.n | / / | + ' / # # # # # # # # # # # # E l , , , U + M.) ` # E + [ j C     :.- v v !.:.2 i , , , ",
"8 9 0 / N                 C /., 3 / z l + + 3 ! ( # # 0 # # o f o # # ( g l l z @ o ( # ` F + j             u c v !.~.D n , , + ",
"f o # / k.                  { ].U.' + + V.x + l Z ( / k A o 9 8 } / # # ( o o ( # # # ` V J 2               = ; L ^.W.* , , ' : ",
"# # 0 $ V J                 G 6 I , , + r.V.+ } ! 0 t.B + F ) } 8 9 0 # # # 0 ( # # # / k.                    ] !.c X., + 8 z 0 ",
"# o 9 o ` V N             = ; - ]., , , + + l E # f + j 2 k.F f f o # # # 0 t.g ( # # / N                     :.- c ].+ : & 0 # ",
"# f h @ # / N             :.c c ]., , , , + z ( # f , 2   2 + -.# # # # # # / t.0 # # / N                       X  .y.+ @ $ # # ",
"# f l z ( / [             :.c c 0., , , , } ! # # ! B {     b V ` # # # # # # 0 # # # / k.                        R Y.* f # # # ",
"# @ ' l o -.+ b           = ; ^.a.> , , l E # # # / b         k./ # # # # # # # # # # ` V N                         Z.B ! # # # ",
"( z + } o # ! `.j           G c - ]., + z ( # # # / N         N / # # # # # # # # # # # / k.                          b / # # # ",
"_ l } / # # # ) b           = ; - 0., } ! # # # # / N         N V -.# # # # # # # # # # ` V N                         N / # # # ",
": h E # # # # -.+ j   '.      X c a.* @.# # # # # / N           b + -.# # # # # # # # # # / k.                        N / # # $ ",
"h g ( ( o f o ( ) + /.u.R = = ; L H [.z ( # # # # / N              +A # # # # # # # # # # ` V J                       b / # ! & ",
"f 0 ! z l ' l g ( E 8 .+Y ; F.c !.M > l ! # # # # / N           '.++7.$ # # # # # # # # # # ` V J     :.:.=         { B @.@ } + ",
"@ g h 8 ' ' ' h / ` E @+|.^.!.L ).= * + z ( # # # / N             R #+8.$ # # # # # # # # # # ` V k.P 6 H M G       2 i 8 r.+ ' ",
"' 8 r.s @ f @ z h / ( : $+a.!.!.F.{ * , l ! # # # / N             = M _.H.# # # # # # # # # # # ` / E O.}.|.- u = /.D n , + 8 | ",
", + g 0 # # # @ x } o @ + +.n.L - z.* , + & $ # # / N               ]  .=.# # # # # # # # # # # # # # $ %+&+i.c 5 *+* , , + V.l "};
