/* XPM */
static char * spawnfloor_xpm[] = {
"64 64 429 2",
"  	c #13230B",
". 	c #272727",
"+ 	c #2F2F2F",
"@ 	c #373737",
"# 	c #3B3B3B",
"$ 	c #474747",
"% 	c #575757",
"& 	c #5B5B5B",
"* 	c #636363",
"= 	c #232323",
"- 	c #1F170B",
"; 	c #4F4F4F",
"> 	c #1F170C",
", 	c #232727",
"' 	c #232A29",
") 	c #1F1B10",
"! 	c #434343",
"~ 	c #1F231A",
"{ 	c #24423E",
"] 	c #244A45",
"^ 	c #284F49",
"/ 	c #284E49",
"( 	c #244944",
"_ 	c #20382F",
": 	c #373938",
"< 	c #1F2920",
"[ 	c #244B45",
"} 	c #2F534D",
"| 	c #244D47",
"1 	c #204138",
"2 	c #373A39",
"3 	c #1B1B1B",
"4 	c #1F1F15",
"5 	c #203F36",
"6 	c #243A36",
"7 	c #244C47",
"8 	c #1F251C",
"9 	c #284843",
"0 	c #375752",
"a 	c #243935",
"b 	c #0B1707",
"c 	c #27282B",
"d 	c #13271F",
"e 	c #132A29",
"f 	c #132C2F",
"g 	c #222E3D",
"h 	c #122F37",
"i 	c #26303C",
"j 	c #232B36",
"k 	c #232830",
"l 	c #1F1A16",
"m 	c #2F4F4A",
"n 	c #3B5954",
"o 	c #2F4340",
"p 	c #232427",
"q 	c #2E353F",
"r 	c #263446",
"s 	c #223449",
"t 	c #22354B",
"u 	c #123544",
"v 	c #1E2E44",
"w 	c #26374D",
"x 	c #223142",
"y 	c #37514D",
"z 	c #273C39",
"A 	c #2F2F30",
"B 	c #1E2633",
"C 	c #1E2D41",
"D 	c #2D3D50",
"E 	c #394454",
"F 	c #2F3031",
"G 	c #374845",
"H 	c #375651",
"I 	c #2F3836",
"J 	c #2E3642",
"K 	c #394657",
"L 	c #26374C",
"M 	c #2F3238",
"N 	c #373C3B",
"O 	c #2F514C",
"P 	c #3B524F",
"Q 	c #373838",
"R 	c #27272E",
"S 	c #232324",
"T 	c #2E3B4C",
"U 	c #0A2E43",
"V 	c #354355",
"W 	c #263243",
"X 	c #273734",
"Y 	c #284E48",
"Z 	c #425E59",
"` 	c #37534E",
" .	c #434645",
"..	c #3B3B3C",
"+.	c #2E3043",
"@.	c #2E314C",
"#.	c #2F2F35",
"$.	c #232A34",
"%.	c #164045",
"&.	c #2E343D",
"*.	c #2F3937",
"=.	c #2F4B47",
"-.	c #3B5854",
";.	c #435451",
">.	c #474A4A",
",.	c #3B3B3D",
"'.	c #2E3046",
").	c #41435A",
"!.	c #2D314E",
"~.	c #122535",
"{.	c #13230C",
"].	c #2E3C4F",
"^.	c #272C35",
"/.	c #3B403F",
"(.	c #4F5655",
"_.	c #434B4A",
":.	c #434545",
"<.	c #434345",
"[.	c #3A3C4F",
"}.	c #393C54",
"|.	c #262A49",
"1.	c #272833",
"2.	c #23272D",
"3.	c #22344A",
"4.	c #2E3C50",
"5.	c #2F3032",
"6.	c #4F4F50",
"7.	c #434344",
"8.	c #414355",
"9.	c #2E3149",
"0.	c #272728",
"a.	c #132E35",
"b.	c #394555",
"c.	c #3A424E",
"d.	c #464B52",
"e.	c #464A4F",
"f.	c #4E5156",
"g.	c #4E525A",
"h.	c #4D545F",
"i.	c #555C68",
"j.	c #5A5C5F",
"k.	c #17330F",
"l.	c #464755",
"m.	c #45475C",
"n.	c #353852",
"o.	c #232435",
"p.	c #27282A",
"q.	c #26364A",
"r.	c #414C5C",
"s.	c #454F5F",
"t.	c #606773",
"u.	c #545D6A",
"v.	c #616771",
"w.	c #636365",
"x.	c #46474F",
"y.	c #4D4F62",
"z.	c #353850",
"A.	c #2F2F32",
"B.	c #222B38",
"C.	c #223347",
"D.	c #263242",
"E.	c #1F212A",
"F.	c #2F3236",
"G.	c #232426",
"H.	c #27292C",
"I.	c #272C34",
"J.	c #263445",
"K.	c #354254",
"L.	c #4D5664",
"M.	c #686F79",
"N.	c #61666F",
"O.	c #434346",
"P.	c #45475B",
"Q.	c #2E3041",
"R.	c #37393C",
"S.	c #363D48",
"T.	c #6C727D",
"U.	c #62656A",
"V.	c #424351",
"W.	c #545668",
"X.	c #27282F",
"Y.	c #37393D",
"Z.	c #424A56",
"`.	c #606772",
" +	c #5B5B5C",
".+	c #434348",
"++	c #2E314A",
"@+	c #27272F",
"#+	c #464C56",
"$+	c #61666D",
"%+	c #464754",
"&+	c #414356",
"*+	c #2F2F33",
"=+	c #565A62",
"-+	c #58606D",
";+	c #747A83",
">+	c #5B5B5D",
",+	c #4D4F61",
"'+	c #585A6B",
")+	c #555B64",
"!+	c #5A5D63",
"~+	c #42434E",
"{+	c #3A3B46",
"]+	c #5B5C5D",
"^+	c #59606B",
"/+	c #7F858D",
"(+	c #595F6A",
"_+	c #4E4F56",
":+	c #5A5D62",
"<+	c #555D6A",
"[+	c #47484B",
"}+	c #3B3C3D",
"|+	c #3A3F47",
"1+	c #3A414B",
"2+	c #2F343C",
"3+	c #42434A",
"4+	c #636364",
"5+	c #686E77",
"6+	c #464A50",
"7+	c #3A3F48",
"8+	c #394453",
"9+	c #3B3E44",
"0+	c #42434C",
"a+	c #414359",
"b+	c #45475A",
"c+	c #62656C",
"d+	c #464C55",
"e+	c #363D47",
"f+	c #414C5B",
"g+	c #42454A",
"h+	c #636466",
"i+	c #454D59",
"j+	c #394554",
"k+	c #42434B",
"l+	c #6C727C",
"m+	c #454E5C",
"n+	c #363E4A",
"o+	c #3B3B3F",
"p+	c #6A6C6E",
"q+	c #6E7072",
"r+	c #626467",
"s+	c #56585C",
"t+	c #4E5154",
"u+	c #47494D",
"v+	c #364150",
"w+	c #424852",
"x+	c #414357",
"y+	c #2D314D",
"z+	c #6B6B6B",
"A+	c #474749",
"B+	c #223042",
"C+	c #2E3641",
"D+	c #373738",
"E+	c #37373A",
"F+	c #1F2128",
"G+	c #2E3D50",
"H+	c #2F3136",
"I+	c #37373E",
"J+	c #2F3038",
"K+	c #62706D",
"L+	c #5A6B68",
"M+	c #566865",
"N+	c #4E625F",
"O+	c #465D59",
"P+	c #425A56",
"Q+	c #425854",
"R+	c #1F170D",
"S+	c #1E293B",
"T+	c #2E3743",
"U+	c #363849",
"V+	c #2E303F",
"W+	c #5B5D5C",
"X+	c #596E6B",
"Y+	c #4E6662",
"Z+	c #46615C",
"`+	c #2F4D48",
" @	c #1F1A17",
".@	c #1E2A3B",
"+@	c #2F2F36",
"@@	c #353851",
"#@	c #36384D",
"$@	c #4F5857",
"%@	c #28443F",
"&@	c #1F180E",
"*@	c #1F222B",
"=@	c #223143",
"-@	c #414B59",
";@	c #263548",
">@	c #263343",
",@	c #2F333B",
"'@	c #27272B",
")@	c #262944",
"!@	c #2E314D",
"~@	c #13241A",
"{@	c #435754",
"]@	c #232425",
"^@	c #37373B",
"/@	c #222748",
"(@	c #22253A",
"_@	c #434948",
":@	c #425D59",
"<@	c #2E3042",
"[@	c #262A4A",
"}@	c #222647",
"|@	c #435854",
"1@	c #21463D",
"2@	c #2F3131",
"3@	c #222641",
"4@	c #1F170E",
"5@	c #3B4946",
"6@	c #214940",
"7@	c #2F4642",
"8@	c #2E3147",
"9@	c #1E1D40",
"0@	c #22253C",
"a@	c #3B4342",
"b@	c #2F524D",
"c@	c #5B5F5E",
"d@	c #272836",
"e@	c #363848",
"f@	c #434B49",
"g@	c #375550",
"h@	c #5A6A67",
"i@	c #3A3B43",
"j@	c #1B1C1C",
"k@	c #20322A",
"l@	c #244C46",
"m@	c #556B68",
"n@	c #37403F",
"o@	c #23242E",
"p@	c #3B4240",
"q@	c #2F4A46",
"r@	c #1D4A44",
"s@	c #3B4F4B",
"t@	c #22253D",
"u@	c #3B3B41",
"v@	c #273331",
"w@	c #28403C",
"x@	c #272F2E",
"y@	c #434E4C",
"z@	c #465B57",
"A@	c #2F504B",
"B@	c #3B3F3E",
"C@	c #232326",
"D@	c #222643",
"E@	c #3A3C4D",
"F@	c #164537",
"G@	c #174D40",
"H@	c #284C47",
"I@	c #244641",
"J@	c #284541",
"K@	c #284540",
"L@	c #164436",
"M@	c #2F4E49",
"N@	c #3B4543",
"O@	c #1F181E",
"P@	c #1E1C3E",
"Q@	c #393C53",
"R@	c #3B3B3E",
"S@	c #374341",
"T@	c #1D4842",
"U@	c #2F4D49",
"V@	c #374946",
"W@	c #23242F",
"X@	c #464753",
"Y@	c #37534F",
"Z@	c #2F3E3B",
"`@	c #232827",
" #	c #232424",
".#	c #3B3B43",
"+#	c #393C51",
"@#	c #474748",
"##	c #2F423F",
"$#	c #2F4743",
"%#	c #2F3231",
"&#	c #3B3B42",
"*#	c #393C52",
"=#	c #3A3B45",
"-#	c #1A5541",
";#	c #28433E",
">#	c #272729",
",#	c #262941",
"'#	c #1E1C3C",
")#	c #424350",
"!#	c #3B4F4C",
"~#	c #232726",
"{#	c #122639",
"]#	c #22253B",
"^#	c #6F6F6F",
"/#	c #474F4D",
"(#	c #143626",
"_#	c #132310",
":#	c #262943",
"<#	c #122740",
"[#	c #222539",
"}#	c #777777",
"|#	c #4E605D",
"1#	c #272C2B",
"2#	c #132427",
"3#	c #222646",
"4#	c #232329",
"5#	c #7F7F7F",
"6#	c #474948",
"7#	c #43504D",
"8#	c #3B5450",
"9#	c #244742",
"0#	c #232433",
"a#	c #838383",
"b#	c #3B4140",
"c#	c #3B4745",
"d#	c #2F4541",
"e#	c #2F4C48",
"f#	c #24413D",
"g#	c #233532",
"h#	c #262A46",
"i#	c #222538",
"j#	c #3B3C3C",
"k#	c #2F3333",
"l#	c #232928",
"m#	c #2F3232",
"n#	c #262945",
"o#	c #222537",
"p#	c #26293D",
"q#	c #232430",
"r#	c #222644",
"s#	c #232325",
"t#	c #13252D",
"u#	c #232328",
"v#	c #1E1A2D",
"  . . + @ # $ % & * & * * % = = - = + + + + + + + + + + + . . . + . . . . = . = = = . . = . = = - @ + . . . = = + . = = = = = . ",
"  . + + @ $ $ % & * & & % = = - = - = + + + = + + + + + + . = + . . = = . . = = = = = = . = = - - - @ + . . + + = + . = = = = . ",
"= . + @ @ ; % % * & * % = = - = = - - = + + + + + . . + . + . . . = = = = = = = = = = . = = > , ' ' ) @ + . + . . + . = = = = = ",
"+ = . + @ ! $ $ % & * = = - = . . = - - = + + + + + . . . . . . = = = - -   = = = = . = = ~ { ] ^ / ( _ : + . + . + + . . = = = ",
". . + @ @ ! $ % % % + = - = @ + . - - - - = + . . . . . = . = = . =       = = = = . = = < [ ^ ^ } ^ ^ | 1 2 + + . + + = . + = + ",
"+ + + @ @ ! $ $ ; + = - = @ + + + = - = - - = + . . . . = = = = 3 3   - 3   = = . = = 4 ] ^ ^ ^ } } } ^ | 5 @ + . . + . . = = . ",
"@ @ # # ! $ ! ! + = - = @ + + = + . = - = - - = = . = = = = =       3 3 3   = . = = - 6 ^ } ^ ^ } } } ^ } 7 8 @ + + = . . = . + ",
"@ @ ! # ! $ $ + = - = @ @ + = + + . . + = = - - = = . = = =   3 3   3 3     . = = - = 9 } 0 ^ ^ ^ } } } ^ } a - @ + + + . + + @ ",
"@ ! # ! $ $ + = - = # @ + + + = . . = . + . + b - = + . = c d e f g h h g i j k l = @ m } 0 } ^ ^ n 0 0 } ^ o = - @ + . + + @ @ ",
"# @ # ! $ + = - = ! @ + + = + . . + = . + . = + - - p q r s t t u v u t w t t v x @ + y 0 } } ^ ^ 0 0 n 0 } z + = - @ + + @ @ @ ",
"@ @ # # + = - = ! @ + . . + + + = + . . . . . = A B C t D w t t u u t w t t v t E F + G } } } ^ } 0 0 0 n H I . @ = - @ + @ @ # ",
"@ # # + = - = ! @ + + + # # # @ + + + + + .   . = J v v t D w t t t t t t v t K L M @ N O ^ ^ } } 0 0 n n P Q + . @ = - @ + @ @ ",
"# # + = - = # + + @ + @ # # # # @ = + + = R . . = S T U v t D w t w t t v t V w w W . . X Y } } n 0 Z n `  .# @ + . @ = - @ + @ ",
"@ + = - = # @ + + + @ # ! ! # @ # # + ..+.@.#.. =   $.w U v t D w t t v t D w t w %.&.. . *.=.0 0 Z -.;.>.; ! # @ + . @ = - @ # ",
"# = - = @ + @ + + + @ # # # @ # # ! ,.'.).!.~.      {.x u U v t D t v t D t w w %.D ].^.+ + @ /.(._.:.; ; ; $ ! # @ # # @ . - @ ",
"= - = . + @ + + + + + # @ @ @ ! ! <.[.}.!.!.|.1.      2.3.t U v v v t w t w w %.K D D 4.J 5.@ # $ $ ; % 6.; ; ; ! # # ! # @ . - ",
"- = . + + + @ @ @ + @ @ # # ! ! 7.8.).}.}.}.!.9.0.  . {.a.u t U v t t t w w w %.K K K V D b.c.d.e.f.g.h.i.j.% ; ; $ $ ! ! @ @ . ",
"- = k.k.+ k.@ @ + @ @ @ # # ! ! l.).m.m.}.}.n.!.o.+ . . p.q.t u v w t t w w w w V V V V V r.r.r.r.r.s.t.u.v.w.& ; ; $ # # @ @ @ ",
"- = @ + @ @ + k.@ + + # # ! ! x.y.m.m.m.y.).}.}.z.A.. . . B.C.D.E.F.G.S H.I.J J.K.K V r.K r.K r.L.u.u.u.M.M.N.* & ; $ $ # @ @ # ",
"- = @ @ @ + @ @ @ + @ # # # O.P.y.y.y.m.m.).).}.!.Q..   . 0.G.. - @ = = . . . + R.S.K.K K r.s.L.u.u.T.M.M.M.t.U.& ; ; ; $ ! # # ",
"- = $ @ @ @ @ + @ @ @ # # ! V.m.y.W.y.y.m.m.).}.!.|.X.. = = = + - # = = = = + + + @ Y.Z.r.s.u.u.u.M.T.T.M.M.M.`. +& ; $ $ ! # # ",
"- = $ @ + @ @ . + @ # # ! .+m.y.y.y.W.y.y.m.).n.n.++@+. . = = @ - ! = . . . + @ + + ! 7.#+L.u.L.t.M.T.T.T.T.M.t.$+& $ ; ! ! # # ",
"- = % @ @ . + + @ + @ @ # %+y.y.W.W.W.W.y.m.).).&+*+. . . . = # - $ = . . = + @ @ + ! $ $ =+u.-+t.M.T.;+T.T.T.t.`.>+& $ # # @ @ ",
"- = & @ # + # + @ @ @ # ,.,+W.W.W.W.'+W.y.m.m.z.#.# .   + = = # - $ = = . = . . # @ @ ! $ % )+t.M.M.T.;+;+;+T.M.t.!+; $ ! # @ @ ",
"- = & ! # # $ @ @ @ # @ ~+m.W.'+'+W.W.y.y.y.).{+# # @ . + . = # - $ = . . . . . @ @ @ ! ! % ]+^+t.T./+;+;+;+;+T.t.(+$ $ $ # @ @ ",
"- = % # # $ ! # @ # + ! _+,+W.'+W.W.'+y.y.y.8.# @ + + + + . = @ - ! = = = . . . @ ! @ @ ! % & :+M.T.;+T.;+;+T.T.-+<+[+$ ! @ ! @ ",
"- = $ ! # }+|+1+S.2+..$ ! 3+y.y.y.y.y.m.y.m.3+# # @ @ + . . . + - # = = = . . + @ ! # @ $ ; % 4+5+;+;+T.T.T.M.t.u.L.6+$ # # # # ",
"- = ! # 7+b.D K V D 8+9+# ! 0+a+y.y.m.).m.b+7.! # # + + . = = . - @ = = = = + + # ! ! # ! ; & & c+M.T.T.T.;+M.M.u.L.d+$ ! # # # ",
"- = # e+V V V V V V K f+g+! 7.8.).m.m.m.m.V.# # # @ + + .   = . - + = = = + . . @ # ! ! $ % & & h+T.M.M.M.T.T.t.u.L.i+$ ! # # # ",
"- = Y.].w V V D D K r.K j+}+# {+}.).).m.).k+# # @ + + . .   = . - . = = . + . + @ $ # $ $ % & * * l+M.M.T.T.M.-+L.s.m+$ ! # # # ",
"- = n+V D V V D D K K K V |+! ,.}.).}.).).o+! + + + . . = = =   - = = = = + + + @ ! ! $ ; % & * * p+p+p+q+p+r+j.s+t+u+$ ! ! # # ",
"- = v+D %.w V V K K K K K w+! ! x+}.).).y+,.# @ + + . = =   = . - = + = . + + @ @ # ! $ ; % & * * * * z+z+* & % ; ; $ $ ! ! # + ",
"- = T V D D V D V V K V D n+@ @ x+).).}.}.A+@ + + . = = =   . = - = + . . + @ @ @ # $ ; % & & & & * * * * * % ; $ ; $ $ ! # + = ",
"- - B+D V D D D D V K K V C++ D+z.!.!.!.n.E++ . . . . =   . = - = - = + . . @ @ # $ $ ; % % & & * & & * & % ; $ $ ! ! ! # @ = - ",
"= - F+t D D w w D V V V G+H++ I+n.n.n.n.!.J++ + + . = = . = - = . - - = + . @ # # # ; ; % % & & * K+L+L+M+N+O+O+P+P+Q+$ @ = - = ",
"@ = R+S+t V D w w D V D T++ @ U+n.n.n.!.!.V+@ @ . = = . = - = . = = - - = + @ # # $ ; ; ; ; & & W+X+Y+Y+Y+Z+Z+Z n 0 `+@ = - @ ! ",
"@ + =  @.@t K D w w V n+F . +@@@!.n.n.n.n.#@+ . = = . = - = . = = . = - - = + # ! # $ $ ; ; ; ; $@Y+Z+Y+Z+Z+Z n 0 } %@= - @ ! @ ",
"@ @ + = &@*@=@-@;@>@,@@ # '@)@n.n.n.!.n.!.!@~@= = . . - = . = . = . . = - - = ! # $ # $ $ ; ; ; {@Z+Z+Z+Z+Z n 0 } ^ 6 - + ! @ @ ",
"@ @ @ # = - > ]@7.. . = ^@#@n.}.n.!.!.!.!./@(@= . . - = . = . . . = . . = 3 - = ; ! # ! $ ! ! _@:@Z Z Z+Z n 0 } ^ | < + ! + + @ ",
"@ + @ @ # = - - = # . + <@n.!.n.n.!.!.!.[@[@}@X.. - . . = . . = = . . . . = 3 - = ; @ # ! ! # |@n n n n 0 0 } ^ | 1@2@; ! @ + + ",
"+ = + @ @ ! = - - = @ . #.y+n.n.[@[@!.[@[@[@!.3@4@= @ . . . = . . . . . . . = 3 - = $ @ # @ 5@n 0 0 0 0 n } ^ | 6@7@% ! @ + . . ",
"= . + + @ # ! = - - = + . 8@!.!.!./@[@[@[@!./@9@0@... . + + + = . = . = = . . + 3 - = $ @ a@H n 0 0 } } } ^ | 6@b@c@! # # @ + = ",
". . . + @ # # ! = - - = + d@[@/@!.!.!.[@!./@9@/@a+e@. + + + + . . . . . . + + + + 3 - = f@g@n 0 n 0 } } ^ | 6@} h@! # @ @ + . = ",
". + . + + @ @ # ! = - - = A )@/@/@!.[@!./@9@/@).n.!.i@@ + .   .   . . . . @ @ # # + j@k@l@n 0 n 0 n } ^ | 6@} m@n@# # @ + . = = ",
"= = . . + + + @ @ # = - - = o@|./@/@!./@9@/@).n.!.#@# + = . .     . = + + + # # ! p@q@r@6@| 0 0 n } ^ ^ 6@} Z+s@# @ @ @ . + = = ",
". = = . . . + + @ # @ = - - = t@[@!./@9@/@).}.!.!@u@@ .   v@w@x@.   + + . . Q y@z@:@n } r@6@| } } ^ | 6@} Z+A@B@@ + + + + . . = ",
"  . = . . . . + + @ @ + = - - C@D@/@9@/@).}.n.n.E@@ @ @ . F@^ G@H@I@J@K@L@M@b@0 Z n 0 0 ^ r@6@| ^ | 6@} Z+-.N@@ @ + + + + + . = ",
"  . . . . . . . . @ @ @ + = - - O@P@/@).}.n.!.Q@R@@ + @ S@^ } ^ } G@| ^ | | ^ ^ } 0 0 0 } ^ T@1 5 5 U@l@0 V@@ + + @ + + = . . = ",
"-   k.. . . = . @ @ @ @ @ @ = = - W@@@}.n.!.).X@# @ @ 2 Y@0 } } } ^ ^ | | ^ | ^ ^ ^ } } Y@Z@`@3 - =  #' S@+ + @ @ . . . . . = = ",
"-   . . . . + + @ # # # ! ! ! = - = .#z.}.}.+#@#! @ + ##0 n 0 0 } } } ^ ^ | G@^ | ^ ^ $#%#+ . = - = = . . + . . . + . = = = = = ",
"= - = = + + @ @ # @ # ! $ $ ; ; - = # &#*#a+=#! $ ! N H } 0 n 0 0 0 -#^ G@^ ^ | | G@;#. . >#d@,#'#D@0@W@. . . . . = = . . = = 3 ",
"- - = + + + + + # # ! $ $ ; & * - = # ! O.)#! ! $ ! !#0 0 0 n n n 0 0 } ^ ^ G@G@G@( ~#. '@{#/@[@9@/@/@}@]#. = = = + . . = = 3 = ",
"  = = = + + + + # ! ! ; ; & & ^#- = ; # ! ! $ ! # /#n 0 0 0 0 n n 0 0 } ^ ^ ^ ^ G@(#  _#:#<#/@[@9@/@/@/@/@[#. . . = . = 3 3 3 = ",
"= = = = . . @ # # ! $ ; & & * }#- = % ! ! $ ! $ ; |#Z n n 0 0 0 0 0 } 0 } ^ G@G@H@1#= 2#|./@/@[@9@!./@/@/@3#4#= . = = = 3 3 3 3 ",
"- - . . . + # # ! $ ; ; * * * 5#- = % $ $ ; ; ; ; 6#7#8#-.0 0 ^ 0 n 0 0 } } ^ G@9#= = ,#<#/@/@[@9@!./@/@/@/@0#= . . = = = = = = ",
"= =   . # + # ! ! ; ; & * * z+a#- = * ! ; ; % % ; $ $ ! b#c#d#e#g@n } 0 0 O M@f#g#= = h#<#/@/@[@9@n./@/@/@/@i#= = = = = = = = = ",
"- =   . + @ # $ $ ; * * z+z+^#a#- = ^#; ; % & % ; ; $ $ ! # # @ # j#k#l#m#@ + . . . . n#[@/@/@[@9@n./@/@/@/@o#= = = = = =   = = ",
"-   . . + @ $ ; ; & & * z+z+^#a#- = ^#% % & * & % ; $ $ ! # # # + + + + . + + + = = . p#/@/@/@[@9@}./@/@/@/@q#= = = =     = = = ",
"  =   . + @ $ ; ; & * z+z+^#5#5#- = ^#; ; % & % ; ; ! # # @ @ # + . . . . + + .   = = o@}@<#/@[@9@}./@/@/@r#s#= = = = = =       ",
"=   . . + @ @ $ & & * * z+^#5#5#- = ^#; ; ; ; $ ! ! ! # # @ @ # # + + . . + + . = =   {.(@<#/@[@9@n./@/@3#q#= = = = = = =     = ",
". . + . . . $ $ & & z+z+^#5#5#5#- = & $ $ ; ! $ ! ! ! @ @ + @ @ @ @ . . + + + + =       {.t#3#[@9@n.|.D@q#= = = = = . = =   = = ",
". + + + @ ! $ & & & * z+^#^#}#}#- = & # # ! # ! ! # ! @ @ @ @ @ + .     . . + .       = = = u#d@v#V+q#>#= = = = = = = . = = . = ",
". . . + + # $ ; & & * z+^#^#}#; - = ! ! ! # # ! ! ! @ @ + + + + + .     = = + . . . =       = . - = + = . . . . = = = = = . .   ",
".   . + + # $ & % & & * ^#^#; = - = @ + + @ + @ @ @ + + + + + + . . . . = . . . . . . . = = = . - + + . . + + +   = = = = = =   "};
