/* XPM */
static char * tabdeath_xpm[] = {
"64 64 612 2",
"  	c #1E1819",
". 	c #1B1515",
"+ 	c #221B1D",
"@ 	c #5B485D",
"# 	c #322B33",
"$ 	c #292425",
"% 	c #36303A",
"& 	c #3B3441",
"* 	c #443B47",
"= 	c #38323D",
"- 	c #140B12",
"; 	c #1A1219",
"> 	c #231D22",
", 	c #292929",
"' 	c #2D2D2D",
") 	c #363636",
"! 	c #4E4E4E",
"~ 	c #535353",
"{ 	c #606060",
"] 	c #636265",
"^ 	c #6B6470",
"/ 	c #726675",
"( 	c #756678",
"_ 	c #79677D",
": 	c #78657A",
"< 	c #79657A",
"[ 	c #786479",
"} 	c #78637A",
"| 	c #7B687A",
"1 	c #796579",
"2 	c #776379",
"3 	c #776478",
"4 	c #78657B",
"5 	c #766277",
"6 	c #6C5B6D",
"7 	c #625963",
"8 	c #5B555C",
"9 	c #5A5A5A",
"0 	c #626162",
"a 	c #626262",
"b 	c #5E5E5E",
"c 	c #454545",
"d 	c #2A2A2A",
"e 	c #313131",
"f 	c #474747",
"g 	c #4D4D4D",
"h 	c #565656",
"i 	c #6A636F",
"j 	c #726575",
"k 	c #746677",
"l 	c #766679",
"m 	c #7A657B",
"n 	c #7D687A",
"o 	c #7C667A",
"p 	c #7A6677",
"q 	c #816F7C",
"r 	c #7F6A7B",
"s 	c #7D697A",
"t 	c #79667A",
"u 	c #7A677A",
"v 	c #736377",
"w 	c #6D5F70",
"x 	c #6F6372",
"y 	c #6F6472",
"z 	c #6C656F",
"A 	c #5F5F5F",
"B 	c #545454",
"C 	c #353535",
"D 	c #626263",
"E 	c #706573",
"F 	c #746577",
"G 	c #766779",
"H 	c #79667B",
"I 	c #816A7B",
"J 	c #87727D",
"K 	c #89777F",
"L 	c #686367",
"M 	c #83747C",
"N 	c #87767E",
"O 	c #86707B",
"P 	c #816C7C",
"Q 	c #836D7C",
"R 	c #7C687A",
"S 	c #7A647B",
"T 	c #766479",
"U 	c #756478",
"V 	c #736476",
"W 	c #6D6170",
"X 	c #706472",
"Y 	c #646266",
"Z 	c #303030",
"` 	c #333333",
" .	c #505050",
"..	c #636166",
"+.	c #77667A",
"@.	c #79657B",
"#.	c #7B657B",
"$.	c #826C7C",
"%.	c #87717C",
"&.	c #8B797F",
"*.	c #85777D",
"=.	c #616161",
"-.	c #82737C",
";.	c #8E7D82",
">.	c #8A787F",
",.	c #86727C",
"'.	c #826F7C",
").	c #836D7B",
"!.	c #7C6579",
"~.	c #7A667B",
"{.	c #766476",
"].	c #716174",
"^.	c #716274",
"/.	c #766377",
"(.	c #726375",
"_.	c #665D68",
":.	c #5E5B5F",
"<.	c #525252",
"[.	c #65616A",
"}.	c #746678",
"|.	c #826A7B",
"1.	c #86717C",
"2.	c #89767E",
"3.	c #8B7B81",
"4.	c #6D6D6D",
"5.	c #5B5B5B",
"6.	c #83727B",
"7.	c #918185",
"8.	c #907F84",
"9.	c #8C7B81",
"0.	c #86737D",
"a.	c #86747E",
"b.	c #7E6B7B",
"c.	c #746275",
"d.	c #726173",
"e.	c #756276",
"f.	c #745C75",
"g.	c #6D586F",
"h.	c #675B68",
"i.	c #615763",
"j.	c #393939",
"k.	c #464646",
"l.	c #575757",
"m.	c #645E67",
"n.	c #755F73",
"o.	c #7D6078",
"p.	c #7D6279",
"q.	c #836E7C",
"r.	c #8A777E",
"s.	c #867679",
"t.	c #82727C",
"u.	c #7F7178",
"v.	c #8A7980",
"w.	c #8A797F",
"x.	c #83717C",
"y.	c #796678",
"z.	c #796679",
"A.	c #756175",
"B.	c #726073",
"C.	c #705F72",
"D.	c #6C5D6E",
"E.	c #725972",
"F.	c #6D586E",
"G.	c #665668",
"H.	c #675769",
"I.	c #383838",
"J.	c #3A3A3A",
"K.	c #4C4C4C",
"L.	c #5C5A5C",
"M.	c #655763",
"N.	c #745D71",
"O.	c #7C5F78",
"P.	c #7D6179",
"Q.	c #846A7B",
"R.	c #8B777F",
"S.	c #8C797F",
"T.	c #7C7476",
"U.	c #6F6F6F",
"V.	c #82757C",
"W.	c #6B6069",
"X.	c #806F78",
"Y.	c #89757D",
"Z.	c #836F7B",
"`.	c #806C79",
" +	c #7B6778",
".+	c #7A6579",
"++	c #756475",
"@+	c #5B575B",
"#+	c #6B586B",
"$+	c #645364",
"%+	c #6A596C",
"&+	c #3B3B3B",
"*+	c #5D595E",
"=+	c #655663",
"-+	c #755D73",
";+	c #7F647A",
">+	c #87707C",
",+	c #8C787F",
"'+	c #8B787F",
")+	c #757171",
"!+	c #2B2B2B",
"~+	c #585858",
"{+	c #787274",
"]+	c #5C5C5C",
"^+	c #675F65",
"/+	c #7F6B7A",
"(+	c #796377",
"_+	c #7F6979",
":+	c #7E6979",
"<+	c #7A667A",
"[+	c #776477",
"}+	c #736072",
"|+	c #6A5C69",
"1+	c #595459",
"2+	c #5F4F5D",
"3+	c #61545F",
"4+	c #685668",
"5+	c #635764",
"6+	c #373737",
"7+	c #404040",
"8+	c #555555",
"9+	c #615960",
"0+	c #836A7B",
"a+	c #89727C",
"b+	c #856F7C",
"c+	c #826C77",
"d+	c #161616",
"e+	c #080207",
"f+	c #190B16",
"g+	c #676767",
"h+	c #646063",
"i+	c #5C575B",
"j+	c #5E535B",
"k+	c #6E616C",
"l+	c #806B7A",
"m+	c #7D6A7A",
"n+	c #7F6C7B",
"o+	c #786477",
"p+	c #6F5D6D",
"q+	c #5B4E58",
"r+	c #5B4F5A",
"s+	c #60555F",
"t+	c #5E4B5C",
"u+	c #565156",
"v+	c #625460",
"w+	c #685766",
"x+	c #775D73",
"y+	c #7D6079",
"z+	c #83667B",
"A+	c #856C7B",
"B+	c #83697A",
"C+	c #191919",
"D+	c #282527",
"E+	c #4A4A4A",
"F+	c #6B5A69",
"G+	c #43393F",
"H+	c #665B64",
"I+	c #816E7B",
"J+	c #796376",
"K+	c #685866",
"L+	c #5E575D",
"M+	c #615760",
"N+	c #60525E",
"O+	c #564E54",
"P+	c #414141",
"Q+	c #484848",
"R+	c #515151",
"S+	c #5B5158",
"T+	c #665863",
"U+	c #6D596C",
"V+	c #795E76",
"W+	c #7E5F79",
"X+	c #7F6179",
"Y+	c #86697B",
"Z+	c #856B7B",
"`+	c #302E2F",
" @	c #000000",
".@	c #21141E",
"+@	c #424242",
"@@	c #362E33",
"#@	c #4F4F4F",
"$@	c #3C383B",
"%@	c #444444",
"&@	c #82757B",
"*@	c #938385",
"=@	c #8C7D82",
"-@	c #7E6B7A",
";@	c #6E5B6C",
">@	c #6C5C6A",
",@	c #685966",
"'@	c #62525F",
")@	c #594D58",
"!@	c #4E494D",
"~@	c #5A5158",
"{@	c #685765",
"]@	c #705A6E",
"^@	c #7C5F77",
"/@	c #84667A",
"(@	c #856479",
"_@	c #6D5564",
":@	c #291F26",
"<@	c #3C3C3C",
"[@	c #2A2829",
"}@	c #323032",
"|@	c #6C6C6C",
"1@	c #817178",
"2@	c #826D7B",
"3@	c #786275",
"4@	c #715D6F",
"5@	c #6D5A6C",
"6@	c #655863",
"7@	c #61515E",
"8@	c #5F525C",
"9@	c #5A5159",
"0@	c #434343",
"a@	c #5C515A",
"b@	c #675564",
"c@	c #70576A",
"d@	c #7C5B75",
"e@	c #825E79",
"f@	c #86677A",
"g@	c #896D7A",
"h@	c #65595F",
"i@	c #130811",
"j@	c #0E080C",
"k@	c #24101F",
"l@	c #282828",
"m@	c #6B6B6B",
"n@	c #84727D",
"o@	c #756173",
"p@	c #6D596B",
"q@	c #675965",
"r@	c #615560",
"s@	c #605660",
"t@	c #4B4B4B",
"u@	c #60505C",
"v@	c #6A5665",
"w@	c #72566B",
"x@	c #7B5C74",
"y@	c #7F5E78",
"z@	c #866479",
"A@	c #836F76",
"B@	c #180F16",
"C@	c #0A0608",
"D@	c #180814",
"E@	c #1E121B",
"F@	c #292027",
"G@	c #7C6967",
"H@	c #88767F",
"I@	c #7A6375",
"J@	c #5F575D",
"K@	c #675B66",
"L@	c #6B5C69",
"M@	c #715B6E",
"N@	c #685867",
"O@	c #625561",
"P@	c #555053",
"Q@	c #63515D",
"R@	c #6E5668",
"S@	c #76566E",
"T@	c #82627A",
"U@	c #8A697A",
"V@	c #77686C",
"W@	c #494949",
"X@	c #1D1D1D",
"Y@	c #1D1B1D",
"Z@	c #291825",
"`@	c #2E292C",
" #	c #181116",
".#	c #817779",
"+#	c #81717B",
"@#	c #645861",
"##	c #735D70",
"$#	c #725D70",
"%#	c #525051",
"&#	c #65515E",
"*#	c #6E5669",
"=#	c #7A5972",
"-#	c #7D5B76",
";#	c #83637A",
">#	c #857079",
",#	c #7E6D72",
"'#	c #242424",
")#	c #1C141A",
"!#	c #231620",
"~#	c #130E12",
"{#	c #666666",
"]#	c #656565",
"^#	c #765F73",
"/#	c #6E5D6C",
"(#	c #6B5B69",
"_#	c #535052",
":#	c #624F5C",
"<#	c #6C5565",
"[#	c #775970",
"}#	c #7D5C76",
"|#	c #7D6278",
"1#	c #070707",
"2#	c #160E14",
"3#	c #060305",
"4#	c #130C11",
"5#	c #251C23",
"6#	c #20141E",
"7#	c #746072",
"8#	c #675C66",
"9#	c #5B5A5B",
"0#	c #413F40",
"a#	c #4D4C4D",
"b#	c #5B4F57",
"c#	c #675461",
"d#	c #6F5669",
"e#	c #785B71",
"f#	c #71586B",
"g#	c #31262E",
"h#	c #090308",
"i#	c #2D212B",
"j#	c #070507",
"k#	c #1B151A",
"l#	c #150912",
"m#	c #261D24",
"n#	c #141314",
"o#	c #191016",
"p#	c #10040E",
"q#	c #383437",
"r#	c #6A5D68",
"s#	c #5B595B",
"t#	c #3E3C3E",
"u#	c #4F4B4F",
"v#	c #5D5058",
"w#	c #655761",
"x#	c #504F4F",
"y#	c #211F21",
"z#	c #101010",
"A#	c #222222",
"B#	c #252325",
"C#	c #1D1A1C",
"D#	c #150E13",
"E#	c #140911",
"F#	c #1B141A",
"G#	c #161014",
"H#	c #150C12",
"I#	c #252025",
"J#	c #140F13",
"K#	c #282027",
"L#	c #2E292D",
"M#	c #605B5F",
"N#	c #595959",
"O#	c #403F40",
"P#	c #575255",
"Q#	c #393437",
"R#	c #2E2E2E",
"S#	c #272226",
"T#	c #130B11",
"U#	c #0C0C0C",
"V#	c #221D21",
"W#	c #020202",
"X#	c #0E0C0D",
"Y#	c #22131E",
"Z#	c #241C22",
"`#	c #1D101A",
" $	c #181217",
".$	c #171016",
"+$	c #0E0E0E",
"@$	c #1D1B1C",
"#$	c #171516",
"$$	c #3D3D3D",
"%$	c #322D31",
"&$	c #1A1017",
"*$	c #010000",
"=$	c #050505",
"-$	c #0E080D",
";$	c #333032",
">$	c #2F2F2F",
",$	c #21181F",
"'$	c #0D0109",
")$	c #140A12",
"!$	c #272026",
"~$	c #231721",
"{$	c #323232",
"]$	c #190E17",
"^$	c #1B181A",
"/$	c #140D12",
"($	c #160C14",
"_$	c #1D1C1D",
":$	c #241D22",
"<$	c #0B0209",
"[$	c #1C0F19",
"}$	c #1C121A",
"|$	c #2D252B",
"1$	c #2E2A2D",
"2$	c #313031",
"3$	c #383738",
"4$	c #322B31",
"5$	c #291F27",
"6$	c #231E22",
"7$	c #241F23",
"8$	c #21191F",
"9$	c #090508",
"0$	c #0E090D",
"a$	c #2F2B2E",
"b$	c #241721",
"c$	c #2B2A2B",
"d$	c #1A0D17",
"e$	c #0E050C",
"f$	c #282226",
"g$	c #2B272A",
"h$	c #221720",
"i$	c #3E3E3E",
"j$	c #3F3F3F",
"k$	c #302F30",
"l$	c #302D2F",
"m$	c #2C282C",
"n$	c #1C0D18",
"o$	c #1D121B",
"p$	c #251B23",
"q$	c #2B2429",
"r$	c #2B272B",
"s$	c #231B21",
"t$	c #201A1F",
"u$	c #040002",
"v$	c #20181F",
"w$	c #2C2129",
"x$	c #2D282C",
"y$	c #343434",
"z$	c #272126",
"A$	c #221A20",
"B$	c #1B1219",
"C$	c #302B2F",
"D$	c #312E31",
"E$	c #2D252C",
"F$	c #242223",
"G$	c #281E26",
"H$	c #1D171B",
"I$	c #242124",
"J$	c #261F25",
"K$	c #2A2329",
"L$	c #241E23",
"M$	c #251D24",
"N$	c #262025",
"O$	c #221D22",
"P$	c #343234",
"Q$	c #332F32",
"R$	c #302E30",
"S$	c #333132",
"T$	c #2A2429",
"U$	c #050104",
"V$	c #282428",
"W$	c #252225",
"X$	c #211B1F",
"Y$	c #1A1118",
"Z$	c #241C23",
"`$	c #251E24",
" %	c #1D131B",
".%	c #1A1419",
"+%	c #2D2A2D",
"@%	c #2F282E",
"#%	c #160D14",
"$%	c #251F24",
"%%	c #292829",
"&%	c #1E1A1D",
"*%	c #1A1119",
"=%	c #1F151D",
"-%	c #20191F",
";%	c #221B21",
">%	c #231921",
",%	c #282327",
"'%	c #232323",
")%	c #272427",
"!%	c #1C101A",
"~%	c #251D23",
"{%	c #080608",
"]%	c #282227",
"^%	c #292528",
"/%	c #292428",
"(%	c #2C2C2C",
"_%	c #282628",
":%	c #2C2A2C",
"<%	c #2D2B2D",
"[%	c #271D25",
"}%	c #312E30",
"|%	c #2D242C",
"1%	c #2F2E2E",
"2%	c #292228",
"3%	c #2F2E2F",
"4%	c #343034",
"5%	c #292628",
"6%	c #2B262A",
"7%	c #1C1C1C",
"8%	c #2E2C2E",
"9%	c #2D2C2C",
"0%	c #261E25",
"a%	c #2F2D2F",
"b%	c #2C292B",
"c%	c #2A2529",
"d%	c #343033",
"e%	c #2B282B",
"f%	c #1C141B",
"g%	c #1E1E1E",
"h%	c #0A0208",
"i%	c #1C131A",
"j%	c #251C24",
"k%	c #2B282A",
"l%	c #2A2128",
"m%	c #20181E",
"n%	c #262125",
"o%	c #241A22",
"p%	c #2F2A2E",
"q%	c #302C2F",
"r%	c #2E282C",
"s%	c #2D292C",
"t%	c #302C30",
"u%	c #36303B",
"  . . . . . . . . . . . . . . . . . . . . . . . . . . . . . . . . . . . . . . . . . . . . . . . . . . . . . . . . . . . . . . . ",
"+ @ # # # # # . . . . # # # # # # # # # # # # # # # # # # # # # # # # # # # # # # # # # # # # # # # # # # # # # # # # # # . . . ",
"+ @ @ # # # # # . . # # # # # # # # # # # # # # # # # # # # # # # # # # # # # # # # # # # # # # # # # # # # # # # # # # # $ . . ",
"+ @ @ @ # # # # . # # # # # # # # # # # # # # # # # # # # # # # # # # # # # # # # # # # # # # # # # # # # # # # # # # # $ $ . . ",
"+ @ @ @ @ # # # # # # # # # # # # # # # # # # # # # # # # # # # # # # # # # # # # # # # # # # # # # # # # # # # # # # $ $ $ $ . ",
"+ @ @ @ @ @ % % % % % & & & & & & & & & & & & & & & & & & & & & & & & & & & & & & & & & & & & & & & & & & & & & & & & $ $ $ $ . ",
"+ @ @ @ @ @ @ @ @ @ @ @ & & & & & & & & & & & & & & & & & & & & & & & & * * * * * * * * * * * * * * * * * * * & = & & $ $ $ $ . ",
"+ @ @ @ @ @ @ @ @ % % % % & & & & & % & & & & & & & & & & % & & & & & & & & & & & & & & * * * * * * * * * * * * * & & $ $ $ $ . ",
"+ @ @ @ @ @ @ % % % % % % % & & & & & & & & & & & & & % % % % & & & & & & & & & & & & & & & & & & * * * * * * * * & & $ $ $ $ . ",
"+ @ @ @ @ @ % % % % % % % % & & & & & & & & & & & & & % % % % & & & & & & & & & & & & & & & & & & & & & * * * * * & & $ $ $ $ . ",
"+ @ @ @ @ @ % % % % % % % % & & & & & & & % % & & & % % % % % % & & & & & & % & & & & & & & & & & & & & & & * * * * & $ $ $ $ . ",
"+ @ @ @ @ % % % % % % % % % % & & & & & & % % & & & % % % % % % % % & & & & & & & & & & & & & & & & & & & & * * * * & $ $ $ $ . ",
"+ @ @ @ @ % % % % % % % % % % % & & & & & & & & & & & % % % % % % % & & & & & & & & & & & & & & & & & & & & & * * * & $ $ $ $ . ",
"+ @ @ @ @ % % % % % % % % % % % % & & & & & & & & & & & % % % % % % % & & & & & & & & & % & & & & & & & & & & * * * & $ $ $ $ . ",
"+ @ @ @ @ % % % % % % % % % % - - ; ; ; ; ; ; ; ; ; ; ; ; ; ; ; > > > > > > > > > > ; ; ; ; - - & & & % & & & * * * & $ $ $ $ . ",
"+ @ @ @ @ % % % % % % % % % % - , ' ) ! ~ { ] ^ / ( _ : < [ } | 1 2 3 4 : 5 6 7 8 9 0 a b ~ c - & & & & & & & * * * & $ $ $ $ . ",
"+ @ @ @ @ % % % % % % % % % % ; d e f g h { i j k l 4 m n o p q r s t o u : 3 v w x y / z A B , & & & & & & & * * * & $ $ $ $ . ",
"+ + + @ @ % % % % % % % % % % ; e C c ! 9 D E F G H o I J K L M N O P Q R S H T U V W V X Y b > & & & & & & & * * * & $ $ $ $ . ",
"+ + @ @ @ % % % % % % % % % % ; Z ` f  .b ..j +.@.#.$.%.&.*.=.-.;.>.,.'.).!.~.[ {.].^./.(._.:.> & & & & & & & * * * & $ $ $ $ . ",
"+ @ @ @ @ % % % % % % % % % % ; ` ) c <.{ [.}.@.o |.1.2.3.4.5.6.7.8.9.0.a.b.[ 3 c.d.e.f.g.h.i.> & & & & & & & & * * & $ $ $ $ . ",
"+ @ @ @ @ % % % % % % % % % % ; C j.k.l.A m.n.o.p.q.>.r.s. .=.t.u.&.v.w.x.y.z.A.B.C.D.E.F.G.H.; & & & & & & & & * * & $ $ $ $ . ",
"+ @ @ @ @ % % % % % % % % % % ; I.J.K.B L.M.N.O.P.Q.R.S.T.c U.V.W.X.Y.Z.`. +.+{.d.++@+#+$+G.%+; & & & & & & & & * * & $ $ $ $ . ",
"+ @ @ @ @ % % % % % % % % % % ; J.&+ .B *+=+-+o.;+>+,+'+)+!+~+{+]+^+/+(+_+:+<+[+}+|+1+2+3+4+5+; & & & & & & & & * * & $ $ $ $ . ",
"+ @ @ @ @ % % % % % % % % % % ; 6+7+~ 8+9+=+-+p.0+a+b+c+7+d+e+f+g+h+i+j+k+l+m+n+o+p+q+r+3+s+t+; & & & & & % & & * * & $ $ $ $ . ",
"+ @ @ @ @ % % % % % % % % & & ; j.g ~ u+v+w+x+y+z+A+B+l.C+D+l.l.E+~+F+G+H+I+v.I+J+K+L+M+N+O+g ; & & & & & & & & * * & $ $ $ $ . ",
"+ @ @ @ @ % % % % % % % & & & ; P+Q+R+S+T+U+V+W+X+Y+Z+`+ @, .@ @+@@@#@$@%@&@*@=@-@;@>@,@'@)@!@; & & & & & & & & * % % $ $ $ $ . ",
"+ @ @ @ @ % % % % % % & & & & ; +@E+R+~@{@]@^@X+/@(@_@ @ @ @ @ @:@<@[@) }@|@1@2@3@4@5@6@7@8@9@; & & & & & & & & * % % $ $ $ $ . ",
"+ @ @ @ @ % % % % % % & & & & > 0@E+#@a@b@c@d@e@f@g@h@i@ @ @ @ @ @ @j@k@l@a m@n@3@o@p@6@q@r@s@; & & & & & & & % % % % $ $ $ $ . ",
"+ @ @ @ @ % % % % % & & & & & > k.t@! u@v@w@x@y@z@A@9 B@ @ @ @ @ @ @C@D@E@F@G@H@I@J@K@L@M@N@O@; & & & & & % % % % % % $ $ $ $ . ",
"+ @ @ @ @ % % % % & & & & & & > 0@K.P@Q@R@S@d@T@U@V@W@X@ @ @ @ @ @ @Y@Z@`@ #.#+#8+7+3+@###$#,@; & & % % % % % % % % % $ $ $ $ . ",
"+ @ @ @ @ % % % % & & & & & & > +@! %#&#*#=#-#;#>#,#Q+'# @ @ @ @ @l@ #)#!#~#{#]#Z ` <.^#/#(#L+; & & & % % % % % % % % $ $ $ $ . ",
"+ @ @ @ @ % % % % & & & & & & > +@g _#:#<#[#}#|#{ K.` 1#2# @ @ @ @'# @3#C+4#5#6#g Q+l.7#8#9# .; & & & & & & % % % % % $ $ $ $ . ",
"+ @ @ @ @ % % % % & & & & & & > 0#t@a#b#c#d#e#f#g#h#i#j# @ @ @ @k#l# @m#n#o#6+p#0@q##@r#s#B #@; & & & & & & % % % % % $ $ $ $ . ",
"+ @ @ @ @ % % % & & & % % & & > t#k.K.u#v#w#x#Q+l@' y#z# @A#B#C#D#E#)#F#G#H#I#J#K#L#) M#N#~  .; & & & & & & & % % % % $ $ . . . ",
"+ @ @ @ @ % % % & & & % % & & > &+O#W@K.P#E+Q#R#S#J.T#U# @ @V#` W#X#Y#Z#`# $.$+$@$R##$! R+! E+; & & & & & % & % % % % $ $ $ . . ",
"+ @ @ @ @ % % % & & & & & & & > 6+$$P+k.E+I.%$` +@&$*$=$ @ @ @ @-$W#;$>$,$ @'$)$ @!$~$>$+@Q+c ; & & & & & & & % % % % $ $ $ $ . ",
"+ @ @ @ @ % % & & & & & & & & > 6+J.$$$$+@J.) Z {$]$^$/$ @ @ @ @($_$j.:$<$ @[$` I.e }$|$1$2$+@; & & & & & & % % % % % $ $ $ $ . ",
"+ @ @ @ @ % % & & & & & & & & > 6+J.<@J.&+0@3$4$5$6$7$, ,$8$9$0$e a$b$c$0@d$e$f$S#$$I.) g$h$`+; & & & & % % % % % % % $ $ $ $ . ",
"+ @ @ @ @ % % & & & & & & & & > I.$$i$j$j$k.&+k$e l$m$` g$n$o$p$J.e q$r$s$t$u$ @v$w$x$y$z$A$B$; & & & % % % % % % % % $ $ $ $ . ",
"+ @ @ @ @ % & & & & & & & & & ; I.$$P+0@7++@J.C C$D${$y$y$x$E$K.%@F$T#G$B$H$I$ @J$:$K$L$M$N$O$; & & % % % % % % % % % $ $ $ $ . ",
"+ @ @ @ @ % & & & & & & & & & ; ) J.i$0@P+i$&+j.P$) ) Q$` R$C S$T$J$U$V$W$X$T$:$Y$Z$`$ %.%> Z$; & % % % % % % % % % % $ $ $ $ . ",
"+ @ @ @ @ & & & & & & & & & & ; +%` $$7+P+&+$$j.J.6+y$@%y$I.p$R#I.t$#%$%Z#%%#%&%)$*%=%-%;%>%,%; % % % % % % % % % % % $ $ $ $ . ",
"+ @ @ @ @ & & & & & & & & & & ; '%)%2$7++@7+P+7+j$I.) S#X@Z @%!%) C &+C ~%+%{%i@]%z$z$]%^%/%2$; % % % % % % % % % % % $ $ $ $ . ",
"+ @ @ @ @ & & & & & & & & % & ; (%> _%:%j.$$i$<@<@I.J.e ' <%J$[%}%|%1%2%6$3%j$4%1$5%/%]%6%C $$; % % % % % % % % % % % $ $ $ $ . ",
"+ @ @ @ @ & & % & & & & & % % ; - 7%W#B@g$2$C j.) y$q$8%(%(%9%0%1$a%b%c%x$d%a%L#e x$e%8%y$<@c ; % % % % % % % % % % % $ $ $ $ . ",
"+ @ @ @ @ & & & & & & & % % % - f%; g%h%; i%S#j%k%j%> l%m%n%o%M$p%q%r%s%p%e 3%e%2$m$t%&+0@f f - % % % % % % % % % % % $ $ $ $ . ",
"+ @ @ @ @ & & & & & & % % % % - - ; ; ; ; ; ; ; ; ; ; ; ; ; ; > > > > > > > > > > > > > > > - - % % % % % % % % % % % $ $ $ $ . ",
"+ @ @ @ @ & & & & & % % % % % % % % % % & & & & & & & & & & & & & & & & & & & & & & % % % % % % % % % % % % % % % % % $ $ $ $ . ",
"+ @ @ @ @ & & & & & % % % % % % % % % % % & & & & & & & & & & & & & & & & & & & & & & & % % % % % % % % % % % % % % % $ $ $ $ . ",
"+ @ @ @ @ @ & & & & % % % % % % % % % % % & & & & & & & & & & & & & & & & & & & & & & & & % % % % % % % % % % % % % % $ $ $ $ . ",
"+ @ @ @ @ @ & & & % % % % % % % % % % % & & & & & & & & & & & & & & & & % & & & & & & & & & & % % % % % % % % % % % % $ $ $ $ . ",
"+ @ @ @ @ @ & & % % % % % % % % % % % % & & & & & & & & & & & & & & & & & & & & & & & & & & % & % % % % % % % % % % % $ $ $ $ . ",
"+ @ @ @ @ @ & & % % % % % % % % % % % & & % & & & & & & & & & & & & & & & & % & & & & & & & & % % % % % % % % % % % % $ $ $ $ . ",
"+ @ @ @ @ @ @ & & % % % % % % % % % % & & & & & & & & & & & & & & & & & & & & & % % & & & % % % % % % % % % % % % % % $ $ $ $ . ",
"+ @ @ @ @ @ @ & & & % % % % % % % % % & & & & & & & & & & & % & & & & & & & & & % % & % % % % % % % % % % % % % % % % $ $ $ $ . ",
"+ @ @ @ @ @ @ @ & & % % % % % % % % % % & & & & & & & & & & & & & & & & & & & & & & & % % % % % % % % % % % % % % % % $ $ $ $ . ",
"+ @ @ @ @ @ @ @ @ @ % % % % % % % % % % % & & & & & & & & & & & & & & & & & & & & & % % % % % & & & & % % % % % % % % $ $ $ $ . ",
"+ @ @ @ @ @ @ @ @ % % % % % % % % % % % % % % & & & & & & & & & & & & & & & % % % % % % % % & & & & & & % % % % % % % $ $ $ . . ",
"+ @ @ @ @ @ u%% % % % % % % % % % % % % % % % % % % % & & & & & & & & % % % % % % % % % % % & & & & & & & & & % % % % $ $ $ $ . ",
"+ @ @ @ @ # # # # # # # # # # # # # # # # # # # # # # # # # # # # # # # # # # # # # # # # # # # # # # # # # # # # # # # $ $ $ . ",
"+ + @ @ # # # # # # # # # # # # # # # # # # # # # # # # # # # # # # # # # # # # # # # # # # # # # # # # # # # # # # # # # $ $ . ",
"+ + @ # # # # # # # # # # # # # # # # # # # # # # # # # # # # # # # # # . # # # # # # # # # # # # # # # # # # # # # # # # # $ . ",
"+   . . # # # # # # # # # # # # # # # # # # # # # # # # # # # # # # # # . . # # # # # # # # # # # # # # # # # # # # # # # # # . ",
"  . . . . . . . . . . . . . . . . . . . . . . . . . . . . . . . . . . . . . . . . . . . . . . . . . . . . . . . . . . . . . . . "};
