/* XPM */
static char * 42cub3dxpm_xpm[] = {
"64 64 56 1",
" 	c #000000",
".	c #2F2F2F",
"+	c #BABABA",
"@	c #2E2E2E",
"#	c #A5A5A5",
"$	c #4A4A4A",
"%	c #6B6B6B",
"&	c #F2F2F2",
"*	c #FFFFFF",
"=	c #373737",
"-	c #C4C4C4",
";	c #434343",
">	c #0D0D0D",
",	c #767676",
"'	c #383838",
")	c #444444",
"!	c #393939",
"~	c #454545",
"{	c #464646",
"]	c #3A3A3A",
"^	c #484848",
"/	c #3B3B3B",
"(	c #494949",
"_	c #424242",
":	c #3C3C3C",
"<	c #5D5D5D",
"[	c #171717",
"}	c #3D3D3D",
"|	c #5C5C5C",
"1	c #181818",
"2	c #3E3E3E",
"3	c #3F3F3F",
"4	c #404040",
"5	c #414141",
"6	c #B8B8B8",
"7	c #292929",
"8	c #6E6E6E",
"9	c #1F1F1F",
"0	c #191919",
"a	c #5A5A5A",
"b	c #D1D1D1",
"c	c #040404",
"d	c #505050",
"e	c #8C8C8C",
"f	c #A2A2A2",
"g	c #111111",
"h	c #606060",
"i	c #121212",
"j	c #A9A9A9",
"k	c #131313",
"l	c #AAAAAA",
"m	c #ACACAC",
"n	c #141414",
"o	c #AEAEAE",
"p	c #313131",
"q	c #363636",
"                                                                ",
"                                                                ",
"                                                                ",
"                                                                ",
"                                                                ",
"                                                                ",
"                                                                ",
"                                                                ",
"                                                                ",
"                                                                ",
"                                                                ",
"                      .+++++++++@    #++++++++$+++++++++%       ",
"                     .&********=     -*******;>*********,       ",
"                    .&********'      -******; >*********,       ",
"                   .*********'       -*****)  >*********,       ",
"                  .&********!        -****~   >*********,       ",
"                 .*********'         -***{    >*********,       ",
"                .&********]          -**{     >*********,       ",
"               .*********]           -*^      >*********,       ",
"              .&********/            -(       >*********,       ",
"             .&********/             _        >*********,       ",
"            .&********:                       <********+[       ",
"           .&********}                       |********+1        ",
"          @*********}                       <********+[         ",
"         @&********2                       |********+[          ",
"        @*********3                       |********+[           ",
"       @&********4                       |********+[            ",
"      .*********5                       |********6[             ",
"     @&********5                       |********6[              ",
"    @&********_                       |********6[               ",
"   7&********89999999999999999990    a********b[        c       ",
"   d****************************e    -********f        gh       ",
"   d****************************e    -********f       i#,       ",
"   d****************************e    -********f      ij*,       ",
"   d****************************e    -********f     kl**,       ",
"   d****************************e    -********f    ij***,       ",
"   d****************************e    -********f   km****,       ",
"   d****************************e    -********f  kl*****,       ",
"   ',,,,,,,,,,,,,,,,,,,*********e    -********f no******,       ",
"                       *********e    -********fnm*******,       ",
"                       *********e    5~~~~~~~~:'~~~~~~~~p       ",
"                       *********e                               ",
"                       *********e                               ",
"                       *********e                               ",
"                       *********e      ** *  * *   *** **       ",
"                       *********e     *   *  * *     * * *      ",
"                       *********e     *   *  * ***  ** * *      ",
"                       *********e     *   *  * * *   * * *      ",
"                       )))))))))q      **  **  *** *** **       ",
"                                                                ",
"                                                                ",
"                                                                ",
"                                                                ",
"                                                                ",
"                                                                ",
"                                                                ",
"                                                                ",
"                                                                ",
"                                                                ",
"                                                                ",
"                                                                ",
"                                                                ",
"                                                                ",
"                                                                "};
