/* XPM */
static char * bricks_xpm[] = {
"64 64 158 2",
"  	c #7D2E2E",
". 	c #893933",
"+ 	c #8A3A34",
"@ 	c #934335",
"# 	c #D6793D",
"$ 	c #D97B3E",
"% 	c #C36539",
"& 	c #C16239",
"* 	c #C06239",
"= 	c #B75D36",
"- 	c #B25A35",
"; 	c #83342E",
"> 	c #903F34",
", 	c #BD5F39",
"' 	c #C06038",
") 	c #B04B33",
"! 	c #AE4832",
"~ 	c #8D3C34",
"{ 	c #83322F",
"] 	c #82312E",
"^ 	c #81312E",
"/ 	c #81302E",
"( 	c #7F302E",
"_ 	c #893934",
": 	c #C4653A",
"< 	c #BC5E38",
"[ 	c #85352F",
"} 	c #BF5F38",
"| 	c #B04A33",
"1 	c #AD4832",
"2 	c #B05136",
"3 	c #AB4832",
"4 	c #AB4632",
"5 	c #AA4631",
"6 	c #A24330",
"7 	c #A1422F",
"8 	c #A0422F",
"9 	c #9D402F",
"0 	c #DA7C3E",
"a 	c #CC6B3C",
"b 	c #C26339",
"c 	c #B95E36",
"d 	c #BC5F38",
"e 	c #C06139",
"f 	c #B75537",
"g 	c #AF4932",
"h 	c #A4442F",
"i 	c #8E3D34",
"j 	c #BB5D38",
"k 	c #AE4932",
"l 	c #AC4732",
"m 	c #B04C33",
"n 	c #8F3E34",
"o 	c #A64530",
"p 	c #B45136",
"q 	c #CA693C",
"r 	c #CE6E3D",
"s 	c #C36439",
"t 	c #DB7D3E",
"u 	c #D87A3E",
"v 	c #CF6E3D",
"w 	c #CD6C3C",
"x 	c #B35A35",
"y 	c #924235",
"z 	c #D1753D",
"A 	c #D5783D",
"B 	c #D3763D",
"C 	c #C8693C",
"D 	c #BD6039",
"E 	c #AF5835",
"F 	c #84352F",
"G 	c #B75637",
"H 	c #8B3B34",
"I 	c #914035",
"J 	c #893A34",
"K 	c #B65436",
"L 	c #AF4A33",
"M 	c #B55336",
"N 	c #84342F",
"O 	c #B14D33",
"P 	c #B95C38",
"Q 	c #B25336",
"R 	c #AB4732",
"S 	c #9F412F",
"T 	c #B65537",
"U 	c #BA5D38",
"V 	c #B25236",
"W 	c #A04330",
"X 	c #903E34",
"Y 	c #8C3B34",
"Z 	c #BE5E38",
"` 	c #84332F",
" .	c #B85737",
"..	c #8E3C34",
"+.	c #AF5036",
"@.	c #924234",
"#.	c #893B30",
"$.	c #883A2F",
"%.	c #87372F",
"&.	c #86372F",
"*.	c #914134",
"=.	c #D5793D",
"-.	c #D4773D",
";.	c #D3773C",
">.	c #D2753C",
",.	c #C9693C",
"'.	c #C8683C",
").	c #C7673B",
"!.	c #BD6038",
"~.	c #AF5734",
"{.	c #A54430",
"].	c #CE6D3D",
"^.	c #B35337",
"/.	c #C5673A",
"(.	c #7E2F2E",
"_.	c #8E3B34",
":.	c #AD4933",
"<.	c #B45236",
"[.	c #8D3B34",
"}.	c #A94632",
"|.	c #AC4833",
"1.	c #B55436",
"2.	c #8C3A33",
"3.	c #83332E",
"4.	c #B35336",
"5.	c #B05035",
"6.	c #A94733",
"7.	c #9E402F",
"8.	c #BF6038",
"9.	c #C3643A",
"0.	c #C6643B",
"a.	c #CB693C",
"b.	c #BF6138",
"c.	c #BE6039",
"d.	c #B55B36",
"e.	c #B45B36",
"f.	c #AE5734",
"g.	c #8E3E34",
"h.	c #8D3D34",
"i.	c #8D3C33",
"j.	c #883933",
"k.	c #B25136",
"l.	c #A04230",
"m.	c #8B3A33",
"n.	c #883833",
"o.	c #AA4632",
"p.	c #86362F",
"q.	c #BB5E38",
"r.	c #BD5F38",
"s.	c #BA5C37",
"t.	c #A14430",
"u.	c #B55437",
"v.	c #C16339",
"w.	c #B15935",
"x.	c #B45B35",
"y.	c #83332F",
"z.	c #CC6A3C",
"A.	c #B85B38",
"  . + . . . . . . . . . . . . . . . . . . . . . . . . . . + + + @ # $ % & & & & & & & & * = - ; . + > , & ' ) ! ! ! ! ! ! ! ! ! ",
"  . ~ { ] ] ] ] ] ] ] ] ] ] ] ^ ] ] ^ / / / / / / / / / ( _ + + @ # $ : & & & & & * & & & * < [ . + > , & } | ! ! ! ! 1 1 ! ! ! ",
"  ~ 2 3 4 4 4 4 4 4 4 4 4 4 5 6 5 5 7 8 8 8 8 8 8 8 8 9 / . + + @ # 0 a b & & & * c * * * & d [ . + > , e f g ! ! ! 1 h h 1 ! ! ",
"  i j ) ! ! ! ! ! 1 ! ! ! ! ! 1 ! ! 1 1 1 1 k 1 1 1 l 7 ^ . + + @ # $ : & & & & & * * = = * d [ . + > , ' m ! ! ! ! 1 h h 1 ! ! ",
"  n < f g ! ! ! 1 o 1 ! ! ! ! ! ! ! ! ! ! g p g ! ! ! 5 ] . + + @ # $ % & & b & & & * = = * d [ . + > , ' ) ! ! ! ! ! 1 1 ! ! ! ",
"  n , } | ! ! ! ! 1 ! ! ! ! ! ! ! ! ! ! ! ! g ! ! ! ! 4 ] . + + @ # $ : & b q b & & & * * & d [ . + > , ' ) ! ! ! 1 ! ! ! g ! ! ",
"  n , ' ) ! ! ! ! ! ! ! ! ! ! ! ! ! ! ! 1 ! ! ! ! ! ! 4 ] . + + @ # 0 r : % : % s b b & & & < [ . + > , ' ) ! ! 1 o 1 ! g p g ! ",
"  n , ' ) ! g ! ! ! ! ! ! ! g ! ! ! ! 1 o 1 ! ! ! ! ! 4 ] . + + @ # t 0 $ $ $ $ u v w : b * x ; . + > , } | ! ! ! 1 ! ! ! g ! ! ",
"  n , ' ) g p g ! ! ! ! ! g p g ! ! ! ! 1 ! ! ! ! ! ! 4 ] . + + y z # # # # # # # A A B C D E F _ + > < G g g g ! ! ! ! ! ! ! ! ",
"  n , ' ) ! g ! ! ! ! ! ! ! g ! ! ! ! ! ! ! ! ! ! ! ! 4 ] . + + H y @ @ @ @ @ @ @ @ @ @ I > i J + + > < K L M M g ! ! ! ! ! ! ! ",
"  n , ' ) ! ! ! g g ! ! ! ! ! ! ! ! ! ! ! ! ! 1 1 ! ! 4 ] . + + + + + + + + + + + + + + + + + + + + > < m g M M g ! ! ! ! ! ! ! ",
"  n , ' ) ! ! g M M g ! ! ! ! ! ! ! ! ! ! ! 1 h h 1 ! 4 ] . + _ . . . . . . . . . . . . . _ + + + + > < ) ! g g ! g ! ! ! ! ! ! ",
"  n , ' ) ! ! g M M g ! ! ! ! ! ! ! ! ! ! ! 1 h h 1 ! 4 ] . i N ] ] ] ] ] ] ] ] ] ] ] ] / ( _ + + + > < ) ! ! ! g p g ! 1 ! ! ! ",
"  n , ' O ) ) ) m m ) ) ) ) ) ) ) ) ) | g g ! 1 1 ! ! 4 ] i P Q R 4 4 4 4 4 4 4 4 4 4 5 S / . + + + > < ) ! ! ! ! g ! 1 o 1 ! ! ",
"  n , & ' ' ' ' ' ' ' ' ' ' ' ' ' ' ' } G K m ) ) | g 5 ] n < T g ! ! ! ! ! ! ! ! ! ! ! 5 ] . + + + > < ) ! ! ! ! ! ! ! 1 ! ! ! ",
"  i U , , , , , , , , , , , , , , , , , < < < < < j V W ] n < G g ! ! ! ! g ! ! ! ! ! ! 4 ] . + + + > < ) ! ! 1 ! ! ! ! ! ! ! ! ",
"  . n n n n n n n n n X > > > > > > > > > > > > > X i Y _ X , Z | ! ! ! g p g ! ! ! ! ! 4 ] . + + + > < ) ! 1 o 1 ! ! ! ! ! ! ! ",
"  . _ ` ] ] ] ] ] / ( _ + + _ . . . . . . . . . . . _ + + > d  .g ! ! ! ! g ! ! 1 1 ! ! 4 ] . + + + > < ) ! ! 1 ! 1 ! ! ! ! ! ! ",
"  . ..+.R 4 4 4 5 S / + y @.#.$.$.$.%.%.&.[ [ [ [ ; ( _ + > , } | ! ! ! ! ! ! 1 h h 1 ! 4 ] . + + + > < ) ! ! ! 1 o 1 ! ! ! ! 1 ",
"  . i V g ! g ! ! 5 ] *.z # =.-.;.>.,.'.).!.d d < ~.; . + > , ' ) ! ! ! ! ! ! 1 h h 1 ! 4 ] . + + + X j | ! ! ! ! 1 ! ! ! ! 1 {.",
"  . i V g g p g ! 4 ] @.# t u ].: s b b b & & & & < [ . + > , ' ) ! ! ! ! ! ! ! 1 1 ! ! 4 ] . + + + i ^.L ! ! ! ! ! ! ! g ! ! 1 ",
"  . i V L g L g g R ] @.# $ /.b & & & & & & & & & d [ . + > , ' ) ! ! ! ! ! 1 ! ! ! ! ! 4 ] . + + + i V M L ! ! ! ! ! g p g ! ! ",
"(._ i 2 V V V V V +.` @.# $ % & & * & & & & & * * d [ . + > , ' ) ! ! ! ! 1 o 1 ! ! ! ! 4 ] . + + + _.:.M <.g ! ! ! ! ! g ! ! ! ",
"_ + + i i i i i i .._ @ # $ % & * c * & & & * = = < [ . + > , ' m ! ! ! ! ! 1 ! ! ! ! ! 4 ] . + + + [.}.|.|.R R R R R R R R R R ",
"+ _ . . . . . . . . _ @ # $ : & & * & & & & * = = < [ . + > , e 1.g ! ! ! ! ! ! ! ! ! ! 4 ] . + + + . 2.2.2.2.2.2.2.2.2.2.2.[.[.",
"~ { ] ] ] 3.] ] ] / ( @.# 0 a b & & & & & * & * * d [ . + > , ' m ! ! ! ! ! ! ! ! ! ! ! 4 ] . + + 2.{ ] ] ] ] ] ] ] ] ^ / ( _ + ",
"4.3 4 4 R 5.R 4 5 S / @.# $ : & & & & & * c * & & d [ . + > , ' ) ! ! ! ! ! ! ! ! ! ! ! 4 ] . + [.6.4 4 4 4 4 4 4 4 5 7 7./ . + ",
"} | ! ! ! g ! ! ! 5 ] @.# $ % & b & & & & * & & & d [ . + > , ' ) ! ! ! ! ! ! ! ! ! ! ! 4 ] . + i V g ! ! 1 ! ! ! ! ! 1 5 ] . + ",
"8.) ! ! ! ! ! ! ! 4 ] @.# u s b q b & & & & & & & d [ . + > , ' ) ! ! ! ! ! ! ! ! ! ! ! 5 ] . + X j | ! 1 o 1 ! ! ! ! ! 4 ] . + ",
"8.) ! ! ! ! ! ! ! 5 ] @.A v b & b & & & & & b & & d [ . + > , ' ) ! ! ! g ! ! ! ! ! ! 1 6 ^ . + > < ) ! ! 1 ! ! ! ! ! ! 4 ] . + ",
"8.) ! ! ! ! ! ! 1 6 ^ @.A w b & * & & & b b q b & d [ . + > , ' ) ! ! g p g ! ! ! ! ! ! 5 ] . + > < ) ! ! ! ! ! ! g ! ! 4 ] . + ",
"8.) ! 1 ! ! ! ! ! 5 ] @.-.: & * c * & b q b b & & d [ . + > , ' ) g g ! g ! ! ! ! ! ! ! 4 ] . + > < ) ! ! ! ! ! g p g ! 4 ] . + ",
"8.) 1 o 1 1 ! ! ! 4 ] @.B s & & * & & & b & & & & d [ . + > , ' m M M g ! ! ! ! ! ! ! ! 5 ] . + > < ) ! ! ! ! ! ! g ! ! 4 ] . + ",
"8.) ! 1 1 o 1 ! ! 4 ] > ,.9.& & & & & & & & & & & < [ . + > , ' m M M g ! ! ! ! ! ! ! 1 7 ^ . + > < ) ! ! ! ! ! ! ! ! ! 5 ] . + ",
"8.) ! ! ! 1 ! g ! 4 ] X 0.a.b & & & & & * & & & b.x ; . + > , ' ) g g ! ! ! ! ! ! ! ! 1 8 / . + > < ) ! ! ! ! ! ! ! ! 1 6 ^ . + ",
"8.) ! ! ! ! g p g 4 ] i U c., , , , , d d.d , d e.f.F _ + > , ' ) ! ! ! ! ! ! g ! ! ! 1 7 ^ . + > < ) ! g ! ! ! ! ! ! ! 5 ] . + ",
"8.) ! ! g g ! g ! 4 ] . n > > X n n n g.h.g.n g.h.i.j.. _ X , ' ) ! ! ! ! ! g p g ! ! ! 5 ] . + > < ) g p g ! ! ! ! ! ! 4 ] . + ",
"8.) ! g M M g ! ! 4 ] . + + + ~ { ] ] ] ] ] ] ^ ^ ] ] / ( n , ' ) ! ! ! ! ! ! g ! ! ! ! 4 ] . + > < m ! g ! ! ! ! ! ! ! 4 ] . + ",
"8.m g g M M g ! ! 4 ] . + + i 2 3 4 4 4 4 4 5 7 7 5 5 S / n , ' ) ! ! ! ! 1 ! ! ! ! ! ! 4 ] . + > < K g ! ! ! ! 1 ! ! ! 4 ] . + ",
"e G K m m m g g ! 5 ] . + + X j | ! ! ! ! ! ! 1 1 ! ! 5 ] n , ' ) ! ! ! 1 o 1 ! ! ! ! ! 4 ] . + > < G g ! ! ! 1 o 1 ! ! 4 ] . + ",
", < < < < j ^.k.3 l.] _ + + > < ) ! ! ! ! ! ! ! ! ! ! 4 ] n , ' m ! ! ! ! 1 ! ! ! ! ! ! 4 ] . + > , } | ! ! ! ! 1 ! ! ! 4 ] . + ",
"> > X n n i ~ ~ 2.m.n.. _ + > < m ! ! ! ! ! ! g ! ! ! 4 ] n , e G m ) ) ) ) ) | g ! ! ! 4 ] . + > , ' ) ! ! ! ! ! ! 1 1 o.] . + ",
"+ + i p.[ [ [ [ [ [ [ ; ( _ > < K g ! ! ! ! g p g ! ! 4 ] n , & e ' ' ' ' ' ' } f m ) L 5 ] . + > , ' ) ! ! ! ! ! 1 h h 5 ] . + ",
"+ n q.r.d d d d d d < ~.; . > < G g ! ! ! g ! g ! ! ! 4 ] i U , , , , , , , , , < < < s.t.] _ + > , ' ) ! ! ! ! ! 1 h h 5 ] . + ",
"+ I C b & & & & b & & < [ . > , } | ! ! g p g ! ! ! ! 4 ] . n > > > > > > > > > > > > n Y _ + + > , ' ) g g ! ! ! ! 1 1 o.] . + ",
"+ @ B : & & & b q b & d [ . > , ' ) ! ! ! g ! ! ! ! ! 4 ] . + + + + _ . . . . . . . . . . . . _ X , ' m M M g ! ! ! ! ! 4 ] . + ",
"+ @ A w b * & & b & & < [ . > , ' ) ! ! ! ! ! ! ! ! ! 5 ] . + + + h.p.[ [ [ [ [ ; [ [ [ [ ; ; ( n , ' m u.u.g ! g ! ! ! 4 ] . + ",
"+ @ A v v.c * & & & * x ; . > , ' ) ! ! ! ! ! ! ! ! 1 6 ^ . + + i w.d d d d d < x.< d d < x f.; n , ' m M M g g p g ! ! 4 ] . + ",
"+ @ # u s * & & & & * x ; . > , ' ) ! ! ! ! ! ! ! ! ! 5 ] . + + X d & & & & & & * & & & & b.x ; n , ' ) g g ! ! g ! ! ! 4 ] . + ",
"+ @ # $ % & * * & & & < [ . > , ' m ! ! ! ! ! ! ! ! ! 4 ] . + + > c.& & & & & & & & & & & & < [ n , ' ) ! ! 1 ! ! ! ! ! 5 ] . + ",
"+ @ # $ % * = = * & & d [ . > , e 1.g ! ! ! ! ! ! ! ! 4 ] . + + I C b & & & & & & & & & & & d [ n , ' ) ! 1 o 1 ! ! ! 1 7 ^ . + ",
"+ @ # $ % * = = * b & < [ . > , ' m ! ! ! ! ! ! ! ! ! 4 ] . + + @ B : & b & & * & & & b & & d [ n , ' ) ! ! 1 ! ! ! ! 1 7 ^ . + ",
"+ @ # $ % & * * b q & x.; . > , ' ) ! ! ! ! ! ! ! ! ! 4 ] . + + @ A w 9.q b * c * & b q b & d [ n , ' ) ! ! ! ! ! ! ! ! 5 ] . + ",
"+ @ # $ : & & & & b & < [ . > , ' ) ! ! ! ! ! 1 ! ! ! 4 ] . + + @ A v b b & & * & & & b & & d [ n , ' O ) ) ) ) ) ) | g R ] . + ",
"+ @ # 0 a b & & & & & d [ . > , ' ) ! ! 1 1 1 o 1 ! ! 4 ] . + + @ # u s & b b & & & & & & & d [ n , & ' ' ' ' ' ' ' } G Q y.. + ",
"+ @ # $ : & & & & & & d [ . > , ' ) ! 1 h h 1 1 ! ! ! 4 ] . + + @ # $ % b z.z.b & & * & & & d [ i U , , , , , , , , , < A.[ _ + ",
"+ @ # $ : & & & & * & d [ . > , ' ) ! 1 h h 1 ! ! ! ! 4 ] . + + @ # $ % b z.z.b & * c * & & d [ . n > > > > > > > > > > n + + + ",
"+ @ # 0 ].b & & * c * d [ . > , ' ) ! ! 1 1 ! ! ! g ! 4 ] . + + @ # $ % & b b & & & * & * & d [ . + + + _ . . . . . . . . . . . ",
"+ @ # t u s & & & * & d [ . > , ' ) ! ! ! ! ! ! g p g 4 ] . + + @ # $ % & & * & & & & * c * d [ . + + ~ { ] ] ] ] ] ] ] ] ] ^ / ",
"+ @ # t $ /.s b & & & d [ . > , ' ) ! ! ! ! ! ! ! g ! 4 ] . + + @ # $ % & * c * & & & & * & d [ . + i 2 3 4 4 4 4 4 4 4 4 5 7 8 ",
"+ @ # t t $ u ].: s b d [ . > , ' ) ! g ! ! ! ! ! ! ! 4 ] . + + @ # $ % & & * & & b & & & & d [ . + X j ) ! g ! ! ! ! ! ! ! 1 1 ",
"+ y z # # # # A -.B '.w.F _ > , ' O m 1.m | g g ! ! ! 4 ] . + + @ # $ % & & & & b q b & & & d [ . + > < f L p g ! ! ! ! ! ! ! 1 ",
"+ H y @ @ @ @ @ @ @ I g.J + > , & ' ' e ' } G K ) g ! 5 ] . + + @ # $ % & & & & & b & & & & d [ . + > , } ) g ! ! ! ! ! ! ! 1 {.",
"+ + + + + + + + + + + + + + > , & & & & & & e e } K k 7 ^ . + + @ # $ % & & & & & & & & & & d [ . + > , ' ) ! ! ! ! ! ! ! ! ! 1 "};
