/* XPM */
static char * doomfloor_xpm[] = {
"64 64 21 1",
" 	c #13230B",
".	c #272727",
"+	c #2F2F2F",
"@	c #373737",
"#	c #3B3B3B",
"$	c #474747",
"%	c #575757",
"&	c #5B5B5B",
"*	c #636363",
"=	c #232323",
"-	c #1F170B",
";	c #4F4F4F",
">	c #434343",
",	c #1B1B1B",
"'	c #0B1707",
")	c #17330F",
"!	c #6B6B6B",
"~	c #6F6F6F",
"{	c #777777",
"]	c #838383",
"^	c #7F7F7F",
" ..+@#$%&*&**%==-=+++++++++++...+....=.===..=.==-@+...==+.=====.",
" .++@$$%&*&&%==-=-=+++=++++++.=+..==..======.==---@+..++=+.====.",
"=.+@@;%%*&*%==-==--=+++++..+.+...==========.==-===-@+.+..+.=====",
"+=.+@>$$%&*==-=..=--=+++++......===-- ====.==-==..=-@+.+.++..===",
"..+@@>$%%%+=-=@+.----=+.....=.==.=   ====.==-=..+..=-@++.++=.+=+",
"+++@@>$$;+=-=@+++=-=--=+....====,, -, ==.==-=...+++.=-@+..+..==.",
"@@##>$>>+=-=@++=+.=-=--==.=====   ,,, =.==-=.+..+++.+=-@++=..=.+",
"@@>#>$$+=-=@@+=++..+==--==.=== ,, ,,  .==-=.+@...+++.+=-@+++.++@",
"@>#>$$+=-=#@+++=..=.+.+'-=+.=.   =  =.==-=@++@+..#@@+.+=-@+.++@@",
"#@#>$+=-=>@++=+..+=.+.=+--=+.=== - =.==-=@+@@++..@@#@+.+=-@++@@@",
"@@##+=-=>@+..+++=+.....=+--=+.==  =.==-=#++@+++.+@@@#@+.@=-@+@@#",
"@##+=-=>@+++###@+++++. .=+--=+.======-=#.+@@+..++@@###@+.@=-@+@@",
"##+=-=#++@+@####@=++=...==+'-=+.=.==-=@.......++#@>#@>#@+.@=-@+@",
"@+=-=#@+++@#>>#@##+#+++.= =.'-=+.==-=+.=.)+..++@@>#>$;>#@+.@=-@#",
"#=-=@+@+++@###@##>#+>+     = '-=+=-=+=..)++.++@#;>>;;;$>#@##@.-@",
"=-=.+@+++++#@@@>>>##++..   ==='---=.=..)#+++++@#$$;%;;;;>##>#@.-",
"-=.+++@@@+@@##>>>>>###++. .   ='-===...)###@+##$$;;;%&%;;$$>>@@.",
"-=))+)@@+@@@##>>$>$$##@+=+....= -.==....@@@@@>>>>>$*%**&;;$##@@@",
"-=@+@@+)@++##>>$;$$$;>##@+...==.-+==..+.@#@>#>#>;%%%!!**&;$$#@@#",
"-=@@@+@@@+@###>$;;;$$>>#++. ..=.-@==...+@@@##>$;%%~!!!**&;;;$>##",
"-=$@@@@+@@@##>>$;%;;$$>#+...===+-#====+++@@>>$%%%!~~!!!*&&;$$>##",
"-=$@+@@.+@##>>$;;;%;;$>@@+...==@->=...+@++>>$;%;*!~~~~!**&$;>>##",
"-=%@@.++@+@@#$;;%%%%;$>>>+....=#-$=..=+@@+>$$%%&*!~{~~~**&&$##@@",
"-=&@#+#+@@@##;%%%%&%;$$@+#. +==#-$==.=..#@@>$%%*!!~{{{~!*&;$>#@@",
"-=&>##$@@@#@>$%&&%%;;;>###@.+.=#-$=.....@@@>>%&&*~]{{{{~*&$$$#@@",
"-=%##$>#@#+>;;%&%%&;;;>#@++++.=@->===...@>@@>%&&!~{~{{~~&%$$>@>@",
"-=$>####@+#$>>;;;;;$;$>##@@+...+-#===..+@>#@$;%*!{{~~~!*%;$$####",
"-=>###+#@+###>>>;;$>$$>>##++.==.-@====++#>>#>;&&*!~~~{!!%;$$>###",
"-=#@@@@@@@#>>>>>>$$$$>###@++. =.-+===+..@#>>$%&&*~!!!~~*%;$$>###",
"-=@+.@@++#>######>>$>>##@++.. =.-.==.+.+@$#$$%&**~!!~~!&;$$$>###",
"-=@@+@@++###@#>##>#>>#>+++..=== -====+++@>>$;%&**!!!~!*&%;$$>>##",
"-=@+).@@#####>>>>#>>+##@++.== =.-=+=.++@@#>$;%&****!!*&%;;$$>>#+",
"-=+@++@+@@#@+@@@>>>##$@++.=== .=-=+..+@@@#$;%&&&&*****%;$;$$>#+=",
"--=+@++++@##@++@@+++@@+....= .=-=-=+..@@#$$;%%&&*&&*&%;$$>>>#@=-",
"=--=++..+@@@+++@@@@@+++++.==.=-=.--=+.@###;;%%&&**&&%;$$>>>$@=-=",
"@=--=@+..+@+++@@@@@+++@@.==.=-=.==--=+@##$;;;;&&&&;;;$$>#@+@=-@>",
"@+=--=#+..@@+.+@+@@@@@+.==.=-=.==.=--=+#>#$$;;;;;;$;$$>#@+.=-@>@",
"@@+=--=>..+@#..@@@+@++ ==..-=.=.=..=--=>#$#$$;;;>$$$$>#@+.=-+>@@",
"@@@#=--=>..=@@@#@++++===..-=.=...=..=,-=;>#>$>>>>>>$>#@+.=-+>++@",
"@+@@#=--=#.++@+@@+++..=..-..=..==....=,-=;@#>>#>####@@+.=-+;>@++",
"+=+@@>=--=@.++@@..+...+=-=@...=.......=,-=$@#@##@@@@#+.=-+%>@+..",
"=.++@#>=--=+.++++=...+=-=#..+++=.=.==..+,-=$@#@#@@+++.=-+&>##@+=",
"...+@##>=--=+..=+++.+=-=>@.++++......++++,-=>@#@#@++.=-+&>#@@+.=",
".+.++@@#>=--=+.==+.+=-=>@+#@+. . ....@@##+,-=#@#@#+.=-+%@##@+.==",
"==..+++@@#=--==.==+=-=>@+@#+=..  .=+++##>#+,-=@@#+..-+$##@@@.+==",
".==...++@#@=--==.+=-=>#++#@. .... ++..@>$>#+,-=++.=-+$+#@++++..=",
" .=....++@@+=--===-=>#@@#@@@. . .=.. ++@>#@@.,-=.=-+$##@@+++++.=",
" ........@@@+=----=>#@+##@+@@.+.+ =.==..+@@@+.,---+=@@@++@++=..=",
"- )...=.@@@@@@==-=@#@+>$#@@@@@+++..==.=...++@+=,-===@++@@.....==",
"- ....++@###>>>=-=#@###$>@++@#@@+++..= .=..+++.=-==..+...+.=====",
"=-==++@@#@#>$$;;-=###>#>$>@@+@#@@@). ..== ......-===.....==..==,",
"--=+++++##>$$;&*-=#>>>>>$>#@@@###@@+..   ==.. =.-====.===+..==,=",
" ===++++#>>;;&&~-=;#>>$>#$#@@@@##@@+....    . =.-=====...=.=,,,=",
"====..@##>$;&&*{-=%>>$>$;;>##@@@@@+@+.  ..= .==.-+======.===,,,,",
"--...+##>$;;***^-=%$$;;;;$>##@@.@#@@++. ===. ==.-+======..======",
"== .#+#>>;;&**!]-=*>;;%%;$$>##++@#+@@++====. ==.-@==============",
"-= .+@#$$;**!!~]-=~;;%&%;;$$>##@##+=+@+......==.-@=========== ==",
"- ..+@$;;&&*!!~]-=~%%&*&%;$$>###++++.+++==..===.-#=========  ===",
" = .+@$;;&*!!~^^-=~;;%&%;;>##@@#+....++. ==== =.-#===========   ",
"= ..+@@$&&**!~^^-=~;;;;$>>>##@@##++..++.==  = =.-@===========  =",
"..+...$$&&!!~^^^-=&$$;>$>>>@@+@@@@..++++=     =.-@.=======.== ==",
".+++@>$&&&*!~~{{-=&##>#>>#>@@@@@+.  ..+.   ====.-+=.=======.==.=",
"...++#$;&&*!~~{;-=>>>##>>>@@+++++.  ==+...=   =.-=+=....=====.. ",
". .++#$&%&&*~~;=-=@++@+@@@++++++....=.......===.-++..+++ ====== "};
