/* XPM */
static char * C:\Users\qatar\Desktop\1east_xpm[] = {
"64 63 615 2",
"  	c #7F7F7F",
". 	c #808080",
"+ 	c #727272",
"@ 	c #747474",
"# 	c #737373",
"$ 	c #7E7E7E",
"% 	c #909090",
"& 	c #8F8F8F",
"* 	c #8D8D8D",
"= 	c #636363",
"- 	c #686868",
"; 	c #676767",
"> 	c #656565",
", 	c #939393",
"' 	c #919191",
") 	c #7D7D7D",
"! 	c #717171",
"~ 	c #707070",
"{ 	c #7C7C7C",
"] 	c #626262",
"^ 	c #666666",
"/ 	c #646464",
"( 	c #7B7B7B",
"_ 	c #757575",
": 	c #929292",
"< 	c #8E8E8E",
"[ 	c #959595",
"} 	c #6B6B6B",
"| 	c #838383",
"1 	c #818181",
"2 	c #8E8F8E",
"3 	c #696A69",
"4 	c #646564",
"5 	c #646665",
"6 	c #626362",
"7 	c #7F827F",
"8 	c #7C7F7C",
"9 	c #7E7F7E",
"0 	c #909190",
"a 	c #90918F",
"b 	c #899288",
"c 	c #889288",
"d 	c #8A9289",
"e 	c #6F6F6F",
"f 	c #767676",
"g 	c #8C8C8C",
"h 	c #8F908F",
"i 	c #777077",
"j 	c #736C73",
"k 	c #716B71",
"l 	c #887D89",
"m 	c #867C87",
"n 	c #887B89",
"o 	c #7D7F7D",
"p 	c #6F706F",
"q 	c #6C726B",
"r 	c #F755FF",
"s 	c #EA58F2",
"t 	c #EC57F4",
"u 	c #E559ED",
"v 	c #647364",
"w 	c #6E6E6E",
"x 	c #6F796F",
"y 	c #F7A5F6",
"z 	c #FFACFF",
"A 	c #FFABFF",
"B 	c #FFB4FF",
"C 	c #E751F0",
"D 	c #EB5AF2",
"E 	c #F656FF",
"F 	c #7A807B",
"G 	c #737473",
"H 	c #6F756E",
"I 	c #ED5BF5",
"J 	c #E15EE8",
"K 	c #E25DE9",
"L 	c #DD5FE5",
"M 	c #687667",
"N 	c #797C79",
"O 	c #FFA9FF",
"P 	c #FBA5FA",
"Q 	c #FEADFC",
"R 	c #DD55E5",
"S 	c #EC5AF4",
"T 	c #7A807A",
"U 	c #727372",
"V 	c #EF5AF7",
"W 	c #E25DEA",
"X 	c #E45CEB",
"Y 	c #DE5EE6",
"Z 	c #717371",
"` 	c #717271",
" .	c #919391",
"..	c #8E908E",
"+.	c #8F918F",
"@.	c #797D7A",
"#.	c #FFAAFF",
"$.	c #FDA5FC",
"%.	c #FFAEFE",
"&.	c #DF54E7",
"*.	c #E35DEA",
"=.	c #EE59F6",
"-.	c #6A6A6A",
";.	c #696969",
">.	c #717570",
",.	c #E55DEC",
"'.	c #DA60E1",
").	c #DC5FE2",
"!.	c #D661DD",
"~.	c #687468",
"{.	c #727472",
"].	c #7F777F",
"^.	c #7C777C",
"/.	c #7D787D",
"(.	c #938A93",
"_.	c #918992",
":.	c #928893",
"<.	c #717370",
"[.	c #7D7E7D",
"}.	c #7A7C7A",
"|.	c #FEA5FD",
"1.	c #F2A1F1",
"2.	c #F4A9F3",
"3.	c #D757DE",
"4.	c #D95FE0",
"5.	c #E35CEA",
"6.	c #7A7F7B",
"7.	c #7F807F",
"8.	c #748273",
"9.	c #748274",
"0.	c #748074",
"a.	c #828282",
"b.	c #707B70",
"c.	c #FFAEFF",
"d.	c #FFA5FF",
"e.	c #B324BC",
"f.	c #BB2FC2",
"g.	c #BB2FC3",
"h.	c #BE2CC5",
"i.	c #798878",
"j.	c #656E65",
"k.	c #6F7A6F",
"l.	c #FCA6FA",
"m.	c #F9A2F8",
"n.	c #AF2DB7",
"o.	c #B739BE",
"p.	c #B738BE",
"q.	c #BA35C0",
"r.	c #788777",
"s.	c #FEA6FD",
"t.	c #FFA7FE",
"u.	c #FCA3FB",
"v.	c #B12BB9",
"w.	c #B837BF",
"x.	c #B936C0",
"y.	c #BB33C2",
"z.	c #717971",
"A.	c #F5A2F4",
"B.	c #E99EE8",
"C.	c #EA9FE9",
"D.	c #E79BE7",
"E.	c #A837AF",
"F.	c #AE40B4",
"G.	c #B03DB6",
"H.	c #788477",
"I.	c #777777",
"J.	c #666F66",
"K.	c #677067",
"L.	c #6D796C",
"M.	c #6D796D",
"N.	c #8A8A8A",
"O.	c #707270",
"P.	c #8C8E8C",
"Q.	c #949494",
"R.	c #8B8B8B",
"S.	c #868686",
"T.	c #848484",
"U.	c #848584",
"V.	c #837783",
"W.	c #837983",
"X.	c #867A86",
"Y.	c #6C6C6C",
"Z.	c #A2A2A2",
"`.	c #9C9C9C",
" +	c #9C9E9C",
".+	c #9B909B",
"++	c #9B919B",
"@+	c #9D929D",
"#+	c #888A88",
"$+	c #858585",
"%+	c #FFFFFF",
"&+	c #FF9FFF",
"*+	c #FFB0FF",
"=+	c #636D63",
"-+	c #535353",
";+	c #FFA4FF",
">+	c #FFA6FF",
",+	c #FFA7FF",
"'+	c #616B61",
")+	c #616161",
"!+	c #878787",
"~+	c #FA9AF9",
"{+	c #555555",
"]+	c #FAA1F9",
"^+	c #FBA4FA",
"/+	c #FCA5FB",
"(+	c #646E64",
"_+	c #7C7E7C",
":+	c #808280",
"<+	c #FB9CF9",
"[+	c #FBA6FA",
"}+	c #616F61",
"|+	c #727572",
"1+	c #545454",
"2+	c #FBA3FA",
"3+	c #FCA6FB",
"4+	c #FDA7FC",
"5+	c #8C8D8C",
"6+	c #8B808B",
"7+	c #8B828B",
"8+	c #8A818A",
"9+	c #908790",
"0+	c #FFF8FF",
"a+	c #FBEEFC",
"b+	c #FBEFFC",
"c+	c #FCF1FD",
"d+	c #F795F7",
"e+	c #F89DF8",
"f+	c #FFA3FF",
"g+	c #6C686C",
"h+	c #7A6D7B",
"i+	c #7B6D7B",
"j+	c #7E817E",
"k+	c #585B58",
"l+	c #FFFDFF",
"m+	c #FDF7FE",
"n+	c #F396F2",
"o+	c #F399F3",
"p+	c #F49AF4",
"q+	c #F99AF9",
"r+	c #687368",
"s+	c #A0A0A0",
"t+	c #797979",
"u+	c #FF9EFF",
"v+	c #FFA8FF",
"w+	c #DB45E3",
"x+	c #DD4DE5",
"y+	c #DD4EE5",
"z+	c #DE56E6",
"A+	c #E35BEB",
"B+	c #B82EC0",
"C+	c #BD32C5",
"D+	c #BE31C6",
"E+	c #BB36C2",
"F+	c #788678",
"G+	c #758574",
"H+	c #EA49F2",
"I+	c #E251EA",
"J+	c #AE2BB6",
"K+	c #B02DB8",
"L+	c #B32ABA",
"M+	c #8D9B8C",
"N+	c #979797",
"O+	c #9E9E9E",
"P+	c #FAA2F9",
"Q+	c #E662ED",
"R+	c #B134B8",
"S+	c #B737BF",
"T+	c #B53BBB",
"U+	c #728371",
"V+	c #ED59F5",
"W+	c #E562EC",
"X+	c #B536BC",
"Y+	c #B638BD",
"Z+	c #B934C0",
"`+	c #8A9989",
" @	c #9F9F9F",
".@	c #FF9CFF",
"+@	c #E255EB",
"@@	c #E55DED",
"#@	c #EB61F2",
"$@	c #B431BC",
"%@	c #B936C1",
"&@	c #BA35C2",
"*@	c #798778",
"=@	c #738472",
"-@	c #F258FA",
";@	c #EA61F2",
">@	c #B834BF",
",@	c #BA35C1",
"'@	c #BC32C3",
")@	c #8B9A8A",
"!@	c #9A9A9A",
"~@	c #888888",
"{@	c #898989",
"]@	c #DBDBDB",
"^@	c #D2D2D2",
"/@	c #D2D4D2",
"(@	c #CF8ECE",
"_@	c #CF95CF",
":@	c #CF96CF",
"<@	c #CF93CE",
"[@	c #BC60C1",
"}@	c #BE65C2",
"|@	c #C168C6",
"1@	c #9E48A2",
"2@	c #A14BA6",
"3@	c #A24BA6",
"4@	c #A04DA4",
"5@	c #778077",
"6@	c #6F796E",
"7@	c #C662CB",
"8@	c #C167C5",
"9@	c #A04AA5",
"0@	c #A349A7",
"a@	c #838C82",
"b@	c #686968",
"c@	c #697069",
"d@	c #6B756A",
"e@	c #6E786E",
"f@	c #6F786E",
"g@	c #6C776C",
"h@	c #6E786D",
"i@	c #797D79",
"j@	c #7B807A",
"k@	c #6D6D6D",
"l@	c #606360",
"m@	c #616561",
"n@	c #AA8CAA",
"o@	c #A58AA4",
"p@	c #A68DA5",
"q@	c #9C739E",
"r@	c #9D749F",
"s@	c #9F74A1",
"t@	c #6A6F6A",
"u@	c #787878",
"v@	c #A3A3A3",
"w@	c #9E9F9E",
"x@	c #9FA09F",
"y@	c #947693",
"z@	c #957A94",
"A@	c #987A98",
"B@	c #787C78",
"C@	c #E857EF",
"D@	c #E85AF0",
"E@	c #EA5BF1",
"F@	c #ED5BF6",
"G@	c #586858",
"H@	c #838E83",
"I@	c #E05AE7",
"J@	c #E05DE7",
"K@	c #E65EEE",
"L@	c #596959",
"M@	c #818C81",
"N@	c #E758EE",
"O@	c #E75CEF",
"P@	c #E95CF0",
"Q@	c #EC5CF5",
"R@	c #596858",
"S@	c #777B77",
"T@	c #7E827E",
"U@	c #FD9FFB",
"V@	c #FDA9FC",
"W@	c #7F8F7F",
"X@	c #8D928D",
"Y@	c #787D78",
"Z@	c #BA8CBA",
"`@	c #B48BB3",
" #	c #B58FB4",
".#	c #A767AA",
"+#	c #A769AB",
"@#	c #A869AB",
"##	c #AA69AD",
"$#	c #676E67",
"%#	c #767976",
"&#	c #A98CA8",
"*#	c #A38AA3",
"=#	c #A289A2",
"-#	c #A68DA6",
";#	c #F0CAF2",
">#	c #E9C4EB",
",#	c #E9C5EB",
"'#	c #EAC7EC",
")#	c #E67EE7",
"!#	c #E785E8",
"~#	c #EF87F1",
"{#	c #917393",
"]#	c #9A759C",
"^#	c #9D739F",
"/#	c #858885",
"(#	c #868786",
"_#	c #6B716B",
":#	c #6D756C",
"<#	c #6D756D",
"[#	c #626C62",
"}#	c #FFA2FF",
"|#	c #A91CB1",
"1#	c #B128B8",
"2#	c #B129B8",
"3#	c #B130B9",
"4#	c #BA31C1",
"5#	c #C22ACA",
"6#	c #6E736F",
"7#	c #BE32C6",
"8#	c #707671",
"9#	c #616C61",
"0#	c #B42ABC",
"a#	c #BC36C3",
"b#	c #BB35C3",
"c#	c #BB35C2",
"d#	c #B933C0",
"e#	c #C12CC9",
"f#	c #6F746F",
"g#	c #717471",
"h#	c #B267B6",
"i#	c #AB68AF",
"j#	c #B065B4",
"k#	c #7F837F",
"l#	c #818281",
"m#	c #7B807B",
"n#	c #BC8DBB",
"o#	c #B58BB5",
"p#	c #B68CB5",
"q#	c #B58AB4",
"r#	c #8A4A8E",
"s#	c #8E5191",
"t#	c #8E5091",
"u#	c #955798",
"v#	c #945798",
"w#	c #925596",
"x#	c #A466A7",
"y#	c #A265A5",
"z#	c #A661AA",
"A#	c #F45AFC",
"B#	c #F156F9",
"C#	c #8C928D",
"D#	c #686D68",
"E#	c #6B706B",
"F#	c #6C716C",
"G#	c #616961",
"H#	c #636A62",
"I#	c #626A62",
"J#	c #717870",
"K#	c #6F776F",
"L#	c #6C746C",
"M#	c #8F978F",
"N#	c #8C948C",
"O#	c #8B918B",
"P#	c #6E746E",
"Q#	c #F559FD",
"R#	c #E85CF0",
"S#	c #F256FA",
"T#	c #8C928C",
"U#	c #878D88",
"V#	c #878D87",
"W#	c #8C958B",
"X#	c #8E978D",
"Y#	c #7A7A7A",
"Z#	c #787B77",
"`#	c #A768AA",
" $	c #A26AA5",
".$	c #A567A9",
"+$	c #848684",
"@$	c #858685",
"#$	c #7D837D",
"$$	c #D09CCF",
"%$	c #CD9BCD",
"&$	c #CD9CCC",
"*$	c #CF9ECD",
"=$	c #A156A6",
"-$	c #A65DAA",
";$	c #A958AE",
">$	c #848D84",
",$	c #6C736C",
"'$	c #6E756D",
")$	c #B127B9",
"!$	c #BE29C6",
"~$	c #8A9A8A",
"{$	c #707A70",
"]$	c #FEA9FC",
"^$	c #AF2CB7",
"/$	c #BC2EC3",
"($	c #8A8F8A",
"_$	c #888D88",
":$	c #757A75",
"<$	c #777C77",
"[$	c #687869",
"}$	c #FDAAFB",
"|$	c #FFADFD",
"1$	c #AC2AB4",
"2$	c #B436BB",
"3$	c #B92BC1",
"4$	c #879E86",
"5$	c #787978",
"6$	c #7C7A7C",
"7$	c #CB9DCA",
"8$	c #C399C2",
"9$	c #C397C2",
"0$	c #C5CAC5",
"a$	c #C5C5C5",
"b$	c #C6CBC6",
"c$	c #B98AB9",
"d$	c #BB91BA",
"e$	c #B593B4",
"f$	c #F081F3",
"g$	c #EE82F1",
"h$	c #EE83F1",
"i$	c #F084F2",
"j$	c #C744CE",
"k$	c #CB4AD2",
"l$	c #D047D7",
"m$	c #9D68A0",
"n$	c #A661A9",
"o$	c #808380",
"p$	c #787478",
"q$	c #FFAFFF",
"r$	c #DF55E6",
"s$	c #DF58E6",
"t$	c #DF59E6",
"u$	c #DF59E7",
"v$	c #E360EA",
"w$	c #E864EF",
"x$	c #B42EBB",
"y$	c #B933C1",
"z$	c #787578",
"A$	c #FA99F9",
"B$	c #676F67",
"C$	c #687068",
"D$	c #79757A",
"E$	c #FFA3FE",
"F$	c #FFB6FF",
"G$	c #E759EE",
"H$	c #E85CEF",
"I$	c #E75BEF",
"J$	c #EC60F4",
"K$	c #B52FBC",
"L$	c #BA34C2",
"M$	c #C22DCA",
"N$	c #6F726F",
"O$	c #E89EE7",
"P$	c #DD9ADC",
"Q$	c #DF9DDE",
"R$	c #A23CA8",
"S$	c #A845AD",
"T$	c #AC40B3",
"U$	c #7B7F7A",
"V$	c #958095",
"W$	c #917E91",
"X$	c #8F7E8F",
"Y$	c #CC62D2",
"Z$	c #C664CC",
"`$	c #C667CC",
" %	c #C54DCB",
".%	c #C550CB",
"+%	c #C54FCA",
"@%	c #CF57D4",
"#%	c #A46BA7",
"$%	c #A46AA7",
"%%	c #A569A8",
"&%	c #A56AA8",
"*%	c #AB70AF",
"=%	c #AB70AE",
"-%	c #AD72B0",
";%	c #955D99",
">%	c #985F9B",
",%	c #9A5B9E",
"'%	c #818481",
")%	c #828382",
"!%	c #6D716D",
"~%	c #FFA6FE",
"{%	c #B12AB9",
"]%	c #BF2EC7",
"^%	c #7D827C",
"/%	c #6E726E",
"(%	c #BC2BC4",
"_%	c #B432BB",
":%	c #B435BB",
"<%	c #BC2DC4",
"[%	c #6A776A",
"}%	c #7A827A",
"|%	c #798078",
"1%	c #7B837B",
"2%	c #798179",
"3%	c #919190",
"4%	c #6E716E",
"5%	c #BD30C5",
"6%	c #FFADFF",
"7%	c #B427BD",
"8%	c #BC33C4",
"9%	c #C32BCB",
"0%	c #7E837D",
"a%	c #707570",
"b%	c #C32BCC",
"c%	c #BB32C3",
"d%	c #BA31C2",
"e%	c #717270",
"f%	c #7E777E",
"g%	c #958094",
"h%	c #948194",
"i%	c #816283",
"j%	c #836685",
"k%	c #856387",
"l%	c #757775",
"m%	c #7B7D7B",
"n%	c #8E6C90",
"o%	c #8C6E8D",
"p%	c #8A6D8C",
"q%	c #997C9B",
"r%	c #987A99",
"s%	c #9A789C",
"t%	c #878987",
"u%	c #717671",
"v%	c #7C817C",
"w%	c #7A7F7A",
"x%	c #8F948F",
"      . + @ @ @ @ @ @ @ @ @ @ @ @ @ # # .   $ $ % & & & & & & * = - ; > , & & ' )     . # # @ @ @ @ @ @ @ @ @ @ @ @ @ +         ",
"      . + @ @ @ @ @ @ @ @ @ @ @ @ @ # # .   $ $ % & & & & & & * = - ; > , & & ' )     . # # @ @ @ @ @ @ @ @ @ @ @ @ @ +         ",
"      . + @ @ @ @ @ @ @ @ @ @ @ @ @ # # .   $ $ % & & & & & & * = - ; > , & & ' )     . # # @ @ @ @ @ @ # # # # # # # +         ",
"      . ! + + + ~ ~ ~ ~ ~ ~ ~ ~ ~ ~ ~ ~ $ ) { { % & & & & & & * ] ^ ^ / , & & ' ( ) ) $ ~ ~ ~ ~ @ _ # + _ _ _ _ _ _ _ @ ) $ ) ) ",
"        . .   . , : : : : : : : : : : ' % % % % & & & & & & & < + _ _ @ : & & & % % % % ' : : [ } > ^ = | . . . . . . 1 + + + + ",
"            $   % & & & & & & & & & & & & & & & & & & & & & & < ! @ # # : & & & & & & & & & & , } ; ; > 1             . # # @ @ ",
"              $ % & & & & & & & 2 2 2 2 & & & & & & & & & & & < ~ # # + : & & & & & & & & & & , 3 4 5 6 7 8 8 8 9     . # # # # ",
"        . . . $ ' ' ' ' ' ' 0 a b c c d 0 ' ' ' ' ' ' ' ' ' ' & e # f _ < g g g * * * * * * * h i j j k l m m n o 9   . @ @ @ @ ",
"      1 ] > > = ! ~ ~ ~ ~ ~ p q r s t u v ~ ~ ~ ~ ~ ~ ~ ~ ~ ~ ! [ : : : w ! ! e $ ) ) ) ) ) ) x y z A B C D D E F 9     . . . . ",
"      1 > - - ^ @ @ @ @ @ @ G H I J K L M @ @ @ @ @ @ @ @ @ # @ : & & & ~ @ @ + .           $ N O P P Q R J J S T 9             ",
"      1 / ; ; > @ # # # # # U H V W X Y M @ @ @ # # # # Z Z ` U  .....+.~ # # + .           $ @.#.$.$.%.&.*.*.=.T 9             ",
"      1 - -.-.;.@ @ @ @ @ @ G >.,.'.).!.~.# # + _ @ @ {.].^.^./.(._._.:.<.@ @ # $ $ $ $ $ $ [.}.|.1.1.2.3.4.4.5.6.[.$ $         ",
"      ) [ , , [   . . . . . . 7.8.8.9.0./ ^ ^ > a.. . b.c.#.A d.e.f.g.h.i.. . 1 ! + + + + + + ` j.j.j.j.M M M M U + + !         ",
"      ) ' & & % $ $                   $ > - ; ^ 1     k.O P l.m.n.o.p.q.r.    . + @ @ @ @ @ @ @ @ @ @ @ @ @ @ @ @ @ @ +         ",
"      ) ' & & % ) $ $ $               $ > ; ; ^ a.    k.#.s.t.u.v.w.x.y.r.    . ! # # # # # # # # # # # # # # # # # # +         ",
"      ) ' & & % . . 1 1 { ) ) ) ) ) ) { ; ;.;.-   ) ) z.A.B.C.D.E.F.F.G.H.) ) ) I.I.I.I.I.I.I.I.I.I.I.I.I.I.I.I.I.I.I.I.( ( { { ",
")     ) ' & & & % % % ' e + + + + + + # _ _ _ _ + + + + J.J.J.K.L.L.L.M.+ + + e [ ' ' ' ' ' ' ' ' ' ' ' ' ' ' ' ' ' ' [ ; > > > ",
"N.)   ) ' & & & & & & & ~ @ @ @ @ @ @ @ @ @ @ @ @ @ @ @ @ @ @ @ @ @ @ @ @ @ @ ~ : & & & & & & & & & & & & & & & & & & , ;.; - - ",
": )   ) ' & & & & & & % ~ # # # # # # # ~ ~ ~ ~ O.O.O.O.@ @ @ # # # # # @ @ @ ~ & g g g P.P.P.P.& & & & & & & & & & & Q.;.^ ; ; ",
"& ( ) { * R.R.R.* * * * + _ _ _ _ _ @ @ S.T.T.U.V.W.W.X.O.@ # # _ _ _ _ + + + Y.Z.`.`. +.+++++@+#+R.R.R.R.R.R.g N.N.N.* Y.-.-.-.",
"S.~ + + ! ! ! ~ ) ) ) ) . . . . . . $ $+%+%+%+%+&+O O *+=+@ # # 1 . . 1 / ^ ^ -+%+%+%+%+;+>+,+O '+! ! ! ! ! ! + = = / )+  1 1 1 ",
"!+! @ @ @ @ @ +                     ) | %+%+%+%+~+P P A =+@ # # .     . > - - {+%+%+%+%+]+^+/+,+(+@ @ @ @ @ @ _ ; ; - > $       ",
"S.~ + + + + + !       $ { { { { _+_+}.:+%+%+%+%+<+[+[+z }+|+|+|+.     . / ; ; 1+%+%+%+%+2+3+4+O =+# # # # # # @ ^ ^ ; / $       ",
"& ( ) ) ) ) ) { $   $ ) < g g 5+6+7+8+9+0+a+b+c+d+e+e+f+g+h+h+i+j+    . - -.-.k+l+a+a+m+n+o+p+q+r+f f f f f f I.} } Y.-.( { { { ",
"s+& ' ' ' ' ' , $ $ $ t+%+%+%+%+u+v+#.f+w+x+x+y+z+z+z+A+B+C+D+E+F+      1 1 1 G+H+x+x+I+J+n.K+L+M+' ' ' ' ' ' ' : : : N+; > > > ",
"O+* & & & & & % $ $ $ t+%+%+%+%+~+P [+P+z+J J J J J J Q+R+o.S+T+F+            U+V+J J W+X+Y+p.Z+`+& & & & & & & & & & , ;.; - - ",
" @* & & & & & ' $ $ $ t+%+%+%+%+.@,+v+;++@@@@@@@@@@@@@#@$@%@&@o.*@      . . . =@-@@@@@;@>@x.,@'@)@% % % % % % % & & & , - ^ ^ ^ ",
"!@~@{@{@{@{@{@R.$ $ $ ( ]@^@^@/@(@_@:@<@[@}@}@}@}@}@}@|@1@2@3@4@5@( ( ( I.I.I.6@7@}@}@8@9@2@2@0@a@S.S.S.S.S.S.$+{@{@{@g ~ w e e ",
"& ( ) ) ) ) ) ) $     $ ; - - b@c@c@c@c@d@d@d@d@d@d@d@d@e@e@e@f@# # # # / ^ ^ / g@d@d@d@h@e@e@e@! ! ! ! ! ! ! ~ ) ) ) ) . . . . ",
"' )                     + @ @ @ @ @ @ @ @ @ @ @ @ @ @ @ @ @ @ @ @ @ @ @ ^ - - ^ _ @ @ @ @ @ @ @ @ @ @ @ @ @ @ +                 ",
"' )     i@i@i@i@T T T j@# @ @ @ + + + + # @ @ # # # # # # # # + k@k@w w l@m@m@l@@ + + + + + + + + + + + + + + ! $ $ $ $ $ $ $ $ ",
"' )   i@n@o@o@p@q@r@r@s@t@~ ~ e ) { { ) # # # # I.I.I.I.I.I.f u@v@O+w@x@y@z@z@A@B@{ { { { { { { { { { { { { { ( | | | | | | | | ",
"' )   k.z v+v+*+C@D@E@F@G@; ^ / [ ' ' Q.# # # # 1           ) $+%+%+%+%+&+O O z H@' ' ' ' ' ' ' ' ' ' ' ' ' ' ' % % % % % % % % ",
"' )   k.O P P Q I@J@K K@L@- ; > , & & : # # # # .           ) | %+%+%+%+~+P P ,+M@& & & & & & & & & & & & & & & & & & & & & & & ",
"' )   k.z v+v+*+N@O@P@Q@R@; ^ / [ % % , # # # # .       i@i@S@T@%+%+%+%+U@V@V@z W@X@X@X@h % % % % % % % % % % % & & & & & & & & ",
"' )   Y@Z@`@`@ #.#+#@###$#w w k@a.T.!+{@# # # # { ( ( %#&#*#=#-#;#>#,#'#)#!#!#~#{#]#]#^#/#(#!+!+!+!+!+!+!+!+!+S.& & & & N.N.N.N.",
"' )   . t@_#_#_#:#<#<#<#@ @ @ @ + + ! ! # @ @ # # # # [#c.v+O }#|#1#1#2#3#3#3#3#4#4#4#5#6#` ! ! ! ! ! ! ! ! ! w & & & % $ ) ) ) ",
"' )   . + @ @ @ @ @ @ @ @ @ @ @ @ @ @ @ @ @ @ @ @ @ @ =+A P l.m.n.o.o.o.o.o.o.o.o.o.o.7#8#G @ @ @ @ @ @ @ @ @ ~ & & & %   $     ",
"' )   . ! # # # + + + + @ @ @ G :#:#:#:#` + + + + + + 9#c.v+O ;+0#a#a#b#c#c#c#c#d#d#d#e#f#` + + + + + + # # # ~ % & & '   $     ",
"' )     u@t+t+u@a.1 1 a.+ @ G g#h#i#i#j#k#l#1 1 1 1 1 m#n#o#p#q#r#s#t#t#u#v#v#w#x#y#y#z#:+l#1 1 a.( ( { f I.I.@ R.N.N.R.  $     ",
"' )           ) ' % % ' ~ @ G H A#O@O@B#C#a % % % % % Q.D#E#_#F#G#H#H#I#J#K#K#L#M#N#N#N#% % % % % ' ' , )       ) ) ) ) $       ",
"' )           ) & & & & ~ @ G H I J J s O#2 & & & & & : ~ @ @ @ ^ - ; ; _ @ @ ~ : & & & & & & & & & & ' )                       ",
": $ . .       ) % % % % ~ # U P#Q#R#R#S#T#h % % % % % , e # # # = > > > # + + w , % % % U#V#V#V#W#W#W#X#( ) ) ) ) ) ) ) . . . . ",
"$+e ! ~ .     $ S.$+$+S.u@Y#Y#Z#`# $ $.$+$@$$+$+$+$+$+!+u@Y#Y#Y#$ $ $ $ T.| | | S.$+$+#$$$%$&$*$=$-$-$;$>$~@~@~@~@~@~@N.+ ! ! ! ",
"{ / ^ = 1       $ $ $ $         ,$'$'$,$[.$ $ $ $ $ $ $       . : ' ' ' % % % : { $ $ x v+>+,+#.)$Z+Z+!$~$& & & & & & Q.- ^ ^ ^ ",
") > - > 1                       + @ @ +                     $   % & & & & & & ' )     {$,+/+P ]$^$o.o./$`+& & & & & & , ;.; - - ",
"( = ^ = a.                  .   + @ @ +   .                     ($_$_$_$~@~@~@N.:$<$<$[$A V@}$|$1$2$2$3$4$N#N#N#% % % Q.- > ^ ^ ",
"R.f u@u@I.I.I.I.I.I.I.I.I.I.I.I.# @ @ # I.I.I.f t+t+t+t+t+t+5$6$7$8$8$9$0$a$a$b$c$d$d$e$f$g$h$i$j$k$k$l$m$y#y#n$o$l#1 | # + # # ",
"' )   1 + # # # # # # # # # # # @ @ @ @ # # # # # # # # # # ` p$A >+d.f+%+%+%+%+.@,+,+q$r$s$t$u$v$v$v$w$x$y$y$e#f#` + ! . . . . ",
"' )   . + @ @ @ @ @ @ @ @ @ @ @ @ @ @ @ @ @ @ @ @ @ @ @ @ @ Z z$#.P ^+]+%+%+%+%+A$P P Q I@J@J J J J J Q+R+o.o.7#8#G @ +         ",
"' )   . ~ ! ! ! # @ @ # B$B$B$C$M.M.M.M.U # # # # # # # @ @ Z D$c.O v+>+%+%+%+%+E$c.c.F$G$H$H$H$I$I$I$J$K$L$L$M$f#` + ~ ) $ ) ) ",
"' )   ) N.{@{@R.# # # N$O$P$P$Q$R$S$S$T$U${ { { { { { ) # @ # @ V$W$W$X$Y$Z$Z$`$ %.%+%@%#%$%%%&%*%=%=%-%;%>%>%,%'%)%a.a.!+!+!+!+",
"' )   ) ' & & , # # # !%z ~%,+A {%x.x.]%^%9           . + @ @ # N$N$/%L#(%_%_%_%:%:%:%<%[%:#<#<#}%|%|%|%1%1%1%2%3%% % % & & & & ",
"' )   ) ' & & : # # # 4%A P P ]$^$o.o.5%^%9           . + @ @ @ @ @ G 8#7#o.o.o.o.o.o.7#8#G # # .             ) & & & & & & & & ",
"' )   ) : % % , + + + =+,+#.#.6%7%8%8%9%0%7.          1 + @ @ # # # U a%b%c%c%c%d%d%d%5#6#e%! ! .             $ : ' ' % % % % % ",
"' )   $ . . . . ) $ $ _+f%W.g%h%i%j%j%k%l%f f f f f f f # @ # # ) { { m%n%o%o%p%q%r%r%s%t%~@~@{@$       _ f f f Y#Y#t+. S.S.S.S.",
"' )     $ $ $ $       . Z O.N$N$u%u%u%u%# # # # # # # # @ @ # # .       v%v%v%w%x%X@X@X@h & % % )     . + # # # # # # ! $ $ $ $ ",
"' )                   . # # @ @ @ @ @ @ @ @ @ @ @ @ @ @ @ @ # # .             ) ' & & & & & & & )     . + @ @ @ @ @ @ +         ",
": $ . . . . . . . . . 1 # # @ @ _ _ _ _ ! ! ! ! ! ! ! ! + + + + .             ) : % % % ' ' ' : $     1 + @ @ @ # # + + .       ",
"!++ @ @ @ @ @ @ @ @ @ @ # # @ @ ^ - - / % < < < < < < % ) $ $ {               $ | a.| a.t+Y#Y#Y#f f f I.# @ @ # { { { {         ",
"S.! # # # # # # # # # # # @ @ @ ^ ; ; = ' & & & & & & ' )                       $ $ $ $ ! + + # # # # # @ @ @ +                 ",
"S.~ + + + + + + + # @ @ @ @ @ @ ^ - - = ' & & & & & & ' )                               + @ @ @ @ @ @ @ @ @ @ +                 ",
"& ( ) ) ) ) ) ) $ @ # @ @ @ @ @ ^ - - = ' & & & & & & ' )                               + @ @ @ @ @ @ @ @ @ @ +                 "};
