/* XPM */
static char * C:\Users\qatar\Desktop\1south_xpm[] = {
"64 63 121 2",
"  	c #BABABA",
". 	c #B3B3B3",
"+ 	c #B4B4B4",
"@ 	c #B5B5B5",
"# 	c #ABABAB",
"$ 	c #ACACAC",
"% 	c #A4A4A4",
"& 	c #A5A5A5",
"* 	c #A9A9A9",
"= 	c #7A7A7A",
"- 	c #7F7F7F",
"; 	c #7D7D7D",
"> 	c #8D8D8D",
", 	c #8C8C8C",
"' 	c #8A8A8A",
") 	c #989898",
"! 	c #979797",
"~ 	c #929292",
"{ 	c #BEBEBE",
"] 	c #B8B8B8",
"^ 	c #B9B9B9",
"/ 	c #BBBBBB",
"( 	c #A2A2A2",
"_ 	c #A7A7A7",
": 	c #919191",
"< 	c #949494",
"[ 	c #8F8F8F",
"} 	c #BCBCBC",
"| 	c #BDBDBD",
"1 	c #B6B6B6",
"2 	c #ADADAD",
"3 	c #AEAEAE",
"4 	c #AFAFAF",
"5 	c #A8A8A8",
"6 	c #797979",
"7 	c #7C7C7C",
"8 	c #8E8E8E",
"9 	c #8B8B8B",
"0 	c #9B9B9B",
"a 	c #9A9A9A",
"b 	c #959595",
"c 	c #C0C0C0",
"d 	c #A1A1A1",
"e 	c #A6A6A6",
"f 	c #909090",
"g 	c #BFBFBF",
"h 	c #AAAAAA",
"i 	c #999999",
"j 	c #969696",
"k 	c #787878",
"l 	c #7B7B7B",
"m 	c #898989",
"n 	c #808080",
"o 	c #818181",
"p 	c #767676",
"q 	c #878787",
"r 	c #888888",
"s 	c #9D9D9D",
"t 	c #B2B2B2",
"u 	c #B0B0B0",
"v 	c #9C9C9C",
"w 	c #828282",
"x 	c #7E7E7E",
"y 	c #A0A0A0",
"z 	c #9E9E9E",
"A 	c #777777",
"B 	c #A3A3A3",
"C 	c #9F9F9F",
"D 	c #C6C6C6",
"E 	c #C5C5C5",
"F 	c #848484",
"G 	c #727272",
"H 	c #747474",
"I 	c #737373",
"J 	c #838383",
"K 	c #757575",
"L 	c #858585",
"M 	c #C2C2C2",
"N 	c #C1C1C1",
"O 	c #B1B1B1",
"P 	c #868686",
"Q 	c #6D6D6D",
"R 	c #6F6F6F",
"S 	c #6E6E6E",
"T 	c #707070",
"U 	c #C8C8C8",
"V 	c #C3C3C3",
"W 	c #C4C4C4",
"X 	c #CBCBCB",
"Y 	c #6B6B6B",
"Z 	c #B7B7B7",
"` 	c #CACACA",
" .	c #6A6A6A",
"..	c #6C6C6C",
"+.	c #939393",
"@.	c #C9C9C9",
"#.	c #626262",
"$.	c #636363",
"%.	c #D4D4D4",
"&.	c #CCCCCC",
"*.	c #D0D0D0",
"=.	c #C7C7C7",
"-.	c #D2D2D2",
";.	c #CECECE",
">.	c #D1D1D1",
",.	c #CDCDCD",
"'.	c #CFCFCF",
").	c #555555",
"!.	c #5D5D5D",
"~.	c #575757",
"{.	c #5E5E5E",
"].	c #666666",
"^.	c #606060",
"/.	c #595959",
"(.	c #717171",
"_.	c #D6D6D6",
":.	c #D3D3D3",
"<.	c #D5D5D5",
"[.	c #616161",
"}.	c #676767",
"|.	c #696969",
"                        . + + @ # $ $ $ % & & * = - - ; > , , ' ) ! ! ~ {       ] ^ ^ ^ ^ ^ ^ / ( & & _ : < < [ } ] ] ^ * # # # ",
"                        . + + @ # $ $ $ % & & * = - - ; > , , ' ) ! ! ~ {       ] ^ ^ ^ ^ ^ ^ / ( & & _ : < < [ } ] ] ^ * # # # ",
"                        . + + @ # $ $ $ % & & * = - - ; > , , ' ) ! ! ~ {       ] ^ ^ ^ ^ ^ ^ / ( & & _ : < < [ } ] ] ^ * # # # ",
"                | | | { @ @ @ 1 2 3 3 4 5 * * 3 6 ; ; 7 8 > > 9 0 a a b c } } }         / / / { d % % e ~ b b f g / / } 5 h h h ",
"              | b i i ) & % % & b j j i k l l = ' m m m n n n o l 7 7 p h & & & * * * h d ( ( d # h h 3 q 9 9 r s a a ) t u u u ",
"              | i s s 0 _ e e _ ! i i v 7 n n - m r r r o w w w x - - 6 2 5 5 _ # # # # % & & % h h h 2 r , , m y z z 0 t u u u ",
"              | i s s 0 _ e e _ ! i i v 7 n n - m r r r o w w w x - - 6 2 5 5 _ # # # # % & & % h h h 2 r , , m y z z 0 t u u u ",
"} } } } } } } g ) 0 0 a # h h # i 0 0 z l - - x w o o w - n n n 7 7 7 A 3 * * 5 # h h # B % % % 4 3 3 t ' 8 8 , % d d C t u u u ",
"y y y C _ e e _ * * * 2 l - - - q q q q r m m w D c c E , : : : ! j j b C s s v 4 2 2 2 _ 5 5 $ x w w F G H H I ; 7 7 p 4 h h h ",
"B B B ( * * * * _ 5 5 $ - F F J m m m m q r r o c     g ' f f [ < < < ~ y C C s 3 2 2 2 _ 5 5 $ w q q m K A A K o n n = u # # # ",
"B B B ( * * * * _ 5 5 $ - F F J m m m m q r r o c     g ' f f [ < < < ~ y C C s 3 2 2 2 _ 5 5 $ w q q m K A A K o n n = u # # # ",
"5 5 5 _ 3 2 2 2 # # # u ; o o o J w w w L L L - M / / N r > > > ! j j b B ( ( y t O O O # # # 4 o P P r Q R R S 6 k k I 1 u u u ",
"T T T S w n n - P P P F 0 i i < U V V U j 0 0 ) # * * h % & & * A 7 7 l n - - x ' m m m q q q P f f f 9 M | | | W V V X R A A A ",
"p p p H P L L F ' ' ' r ) ! ! ~ N | | N < i i j 2 # # $ ( B B _ = - - x J J J o 8 > > > ' 9 9 ' [ [ [ '   1 1 @ } } } V K ; ; ; ",
"p p p H P L L F ' ' ' r ) ! ! ~ N | | N < i i j 2 # # $ ( B B _ = - - x J J J o 8 > > > ' 9 9 ' [ [ [ '   1 1 @ } } } V K ; ; ; ",
"Q Q Q Y n x x ; r r r P 0 i i < N | | N ~ j j < 2 # # $ y d d e I A A A L F F J m r r r q q q q , 9 9 P | ] ] Z | } } W G 6 6 6 ",
"E E E D g g g V j a a s ; n n 6 W | | g # 2 2 2 e e e & 2 2 2 # V N N `  .I I Y / + + @ * h h h 4 3 3 4 z C C s Z @ @ ^ b i i i ",
"| | | | ] ^ ^ | b i i 0 n J J l W | | g 5 # # # e _ _ e $ $ $ h /     M ..K K Q Z u u O & _ _ e # # # $ y ( ( C ] 1 1   ~ j j j ",
"| | | | ] ^ ^ | b i i 0 n J J l W | | g 5 # # # e _ _ e $ $ $ h /     M ..K K Q Z u u O & _ _ e # # # $ y ( ( C ] 1 1   ~ j j j ",
"c c c N   / / g +.! ! a l x x A X W W D * # # # e _ _ e 3 3 3 $ M c c @.#.Y Y $.^ O O t h # # # 3 2 2 3 ( B B d | / / g ~ j j j ",
"s s s v 5 _ _ _ ( B B ( h h h 4 H 6 6 H 2 5 5 * & & & _ ! ) ) 0 x n n 6 %.&.&.*.v y y % = x x 7 ! < < < +.+.+.< r m m r < +.+.+.",
"d d d y h * * * d ( ( d e e e h 7 o o 7 3 * * * & e e _ i 0 0 s F q q - ` V V =.s ( ( & - J J n i ! ! ! < b b b > 8 8 > < < < < ",
"d d d y h * * * d ( ( d e e e h 7 o o 7 3 * * * & e e _ i 0 0 s F q q - ` V V =.s ( ( & - J J n i ! ! ! < b b b > 8 8 > < < < < ",
"y y y C h * * h y d d d * 5 5 2 = x x 6 t 2 2 3 * * * # s z z d F q q - -.` ` ;.0 C C B = ; ; l ) b b j ~ ~ ~ +., , , , < < < < ",
"B B B ( e & & & & & & 5 ' > > > < < < j 7 x x ; F F F L = l l = F J J J - - - 6 g ^ ^ / 4 O O t C d d y h * * # j ) ) ) +.< < < ",
"B B B ( e e e e % & & _ > f f [ ~ ~ ~ +.o J J w r r r m ; - - x F F F J q q q o | Z Z ] h $ $ 2 z y y C _ _ _ * b ! ! ! +.< < < ",
"B B B ( e e e e % & & _ > f f [ ~ ~ ~ +.o J J w r r r m ; - - x F F F J q q q o | Z Z ] h $ $ 2 z y y C _ _ _ * b ! ! ! +.< < < ",
"( ( ( ( e e e e & e e 5 8 f f f ~ ~ ~ < = 7 7 l L F F L ; x x ; w o o o w w w 7 V | | { # $ $ 3 s C C z # h h $ ) a a a > 8 8 8 ",
"& & & & B B B % 0 v v z r ' ' m f [ [ ' V { { N & _ _ # n F F w 0 i i j + O O 1 l - - l h e e e & & & * J P P q = 7 7 I >.U U U ",
"& & & & B % % % v s s C r 9 9 ' f f f 9 | ] ]   d % % 5 n F F o i ! ! < 4 2 2 O o P P o # _ _ _ % & & 5 P ' ' 9 ; - - p X V V V ",
"& & & & B % % % v s s C r 9 9 ' f f f 9 | ] ]   d % % 5 n F F o i ! ! < 4 2 2 O o P P o # _ _ _ % & & 5 P ' ' 9 ; - - p X V V V ",
"& & & & & & & e i i i v w F F J > , , q V { { N y ( ( e 6 ; ; = b ~ ~ [ u 2 2 t o P P w 2 * * * 5 * * $ L r r ' K p p S &.W W W ",
"( ( ( B ) i i j } ^ ^ ] D E E =.2 4 4 + H = = H . 3 3 $ V N N M { { { c _ * * 3 7 o o - : [ [ : - o o - b < < 8 ,.U U @.@ 1 1 1 ",
"B B B % a 0 0 ! ^ 1 1 + c g g N * $ $ O l o o l t 2 2 # } / / / ^     } 5 h h 4 ; w w n < ~ ~ +.J L L J < +.+.> E c c N Z ] ] ] ",
"B B B % a 0 0 ! ^ 1 1 + c g g N * $ $ O l o o l t 2 2 # } / / / ^     } 5 h h 4 ; w w n < ~ ~ +.J L L J < +.+.> E c c N Z ] ] ] ",
"% % % & s z z a ] @ @ . c g g N 2 u u @ k x x k u # # * c g g g ^ ^ ^ / # 2 2 t A 7 7 = : [ [ f o w w o 8 , , q @.V V W ^       ",
"b b b ) 7 x x A D g g g       c w r r P v a a j M | | M ~ ! ! ~ c } } N r > > ' @ t t t # # # 3 ! i i +.'.` ` ;.s d d d d d d d ",
"! ! ! i - w w = E { { {   / / c P , , ' i ) ) +.c } } c j 0 0 j c } } N 9 : : > u 2 2 2 5 * * # < ! ! : @.W W =.d & & & B % % % ",
"! ! ! i - w w = E { { {   / / c P , , ' i ) ) +.c } } c j 0 0 j c } } N 9 : : > u 2 2 2 5 * * # < ! ! : @.W W =.d & & & B % % % ",
"j j j i l x x A U N N N | | | V J m m q 0 i i b c } } c < ) ) < M { { V 8 < < f u 2 2 2 2 2 2 u b ) ) ~ '.@.@.,.C B B B B B B B ",
"0 0 0 0 d d d y y C C C & % % % e _ _ h J q q o g ^ ^ / 3 u u u _ _ _ 2 R p p R 4 * * 3 6 x x 7 [ 8 8 > [ [ [ 9 + O O t e _ _ _ ",
"0 0 0 a z z z s B B B ( _ _ _ _ B % % _ L m m w c     / $ 3 3 3 * h h u G 6 6 G u h h 3 x J J o f [ [ 8 b b b : . u u O & _ _ _ ",
"0 0 0 a z z z s B B B ( _ _ _ _ B % % _ L m m w c     / $ 3 3 3 * h h u G 6 6 G u h h 3 x J J o f [ [ 8 b b b : . u u O & _ _ _ ",
"s s s s v v v 0 _ e e e _ _ _ _ % % % 5 L m m J M } } { 2 4 4 4 * * * 4 Q I I Q . 2 2 t - F F w ~ : : f ) ! ! < ^ 1 1 Z * h h h ",
"o o o 7 + 3 3 . ; w w x * & & e s z z d J P P J e ( ( ( B B B ( 4 3 3 4 * h h 2 L r r ' A = = 6 ; ; ; ; 7 7 7 7 p p p K L F F F ",
"F F F x t 2 2 O o P P w h e e e z C C ( F q q J 5 & & & & & & B 4 3 3 4 B & & 5 r , , 8 k l l = - - - - - - - - 7 ; ; l m r r r ",
"F F F x t 2 2 O o P P w h e e e z C C ( F q q J 5 & & & & & & B 4 3 3 4 B & & 5 r , , 8 k l l = - - - - - - - - 7 ; ; l m r r r ",
"7 7 7 A u # # u o P P w 2 * * h z C C ( w L L w $ * * * & & & % ] Z Z ] e _ _ h J P P r G H H I l l l l = = = = ; ; ; 7 m r r r ",
"E E E E } } } W 6 n n - q P P F a ) ) i : ~ ~ +.- o o ; e ( ( h ).!.!.~.+.8 8 m V { { g @ 1 1 ] y B B ( 2 $ $ O G k k A P F F F ",
"{ { { {   / / M 6 o o - 9 ' ' r a i i a f : : ~ J L L o e B B h {.].].^.j : : , { ^ ^   3 u u t v C C z 5 _ _ $ I 6 6 A P L L L ",
"{ { { {   / / M 6 o o - 9 ' ' r a i i a f : : ~ J L L o e B B h {.].].^.j : : , { ^ ^   3 u u t v C C z 5 _ _ $ I 6 6 A P L L L ",
"| | | { | | | W l w w o L F F w z v v s ' 9 9 > F L L o * & & 2 ~.{.{./.[ m m F { ^ ^   u O O . a s s v 5 _ _ 2 Q G G (.P F F F ",
"c c c V y B B * S H H ..U c c =.(.6 6 (.U c c =.6 n n - 9 ' ' q h 5 5 B _.>.>.:.. @ @ Z ( % % B t O O t ( B B ( t O O @ L m m m ",
"c c c V ( e e $ T p p Q M     N K ; ; K M / / M 6 o o - 8 > > ' B d d 0 '.` ` &.. 1 1 ] % e e % u 4 4 u ( % % B # # # 4 F m m m ",
"c c c V ( e e $ T p p Q M     N K ; ; K M / / M 6 o o - 8 > > ' B d d 0 '.` ` &.. 1 1 ] % e e % u 4 4 u ( % % B # # # 4 F m m m ",
"V V V D ( & & # Q I I Y V / / M R A A R E | | E K 7 7 = > , , m _ & & y <.*.*.:.@ ] ]   B & & % u 4 4 u d ( ( d u 4 4 . o P P P ",
"C C C z # h h 3 q 9 9 P 1 O O t 2 3 3 4 d ( ( ( h h h 2 : +.+.j A 6 6 p : 8 8 , e % % B $ # # # h h h h u u u @ o L L J & ( ( ( ",
"B B B ( h h h 3 F m m J Z t t . _ * * * % & & % e e e 5 f +.+.b l x x l ! b b ~ 5 e e & # # # # # # # h 4 4 4 . L ' ' q ( y y y ",
"B B B ( h h h 3 F m m J Z t t . _ * * * % & & % e e e 5 f +.+.b l x x l ! b b ~ 5 e e & # # # # # # # h 4 4 4 . L ' ' q ( y y y ",
"B B B ( $ # # 4 w P P o g     / 5 * * h e e e e 5 5 5 h , 8 8 : 6 7 7 6 b ~ ~ f h 5 5 _ u u u u 4 4 4 4 . t t Z L ' ' q B y y y ",
"C C C C y C C y d d d _ [.}.}.[.* B B % < j j j : : : > N } } N ' f f , O 2 2 u > f f ~ 6 l l l - - - ; > , , > P q q L v a a a ",
"y y y C d d d d z C C %  .T T |.h % % & j ) ) ) +.< < [ } ] ] | r 8 8 ' 3 # # 3 f +.+.b x o o n F F F w : f f : q r r L s 0 0 0 ",
"y y y C d d d d z C C %  .T T |.h % % & j ) ) ) +.< < [ } ] ] | r 8 8 ' 3 # # 3 f +.+.b x o o n F F F w : f f : q r r L s 0 0 0 "};
