/* XPM */
static char * C:\Users\qatar\Desktop\1west_xpm[] = {
"64 64 159 2",
"  	c #7F959B",
". 	c #81979D",
"+ 	c #677E87",
"@ 	c #6A818A",
"# 	c #6B838C",
"$ 	c #596B74",
"% 	c #5B6E77",
"& 	c #566972",
"* 	c #83999F",
"= 	c #5C7079",
"- 	c #4A575D",
"; 	c #4C5A60",
"> 	c #869CA1",
", 	c #6D858F",
"' 	c #6F8891",
") 	c #849A9F",
"! 	c #667C86",
"~ 	c #687F88",
"{ 	c #576A73",
"] 	c #596C76",
"^ 	c #465257",
"/ 	c #48555A",
"( 	c #586B75",
"_ 	c #89A1A6",
": 	c #859CA2",
"< 	c #546670",
"[ 	c #445055",
"} 	c #465258",
"| 	c #5B6F77",
"1 	c #596C74",
"2 	c #69808A",
"3 	c #76939C",
"4 	c #75919A",
"5 	c #7A98A2",
"6 	c #434E53",
"7 	c #7C9298",
"8 	c #798E95",
"9 	c #7A8F96",
"0 	c #6C848E",
"a 	c #6B838D",
"b 	c #455258",
"c 	c #5A6D75",
"d 	c #749099",
"e 	c #7996A0",
"f 	c #475358",
"g 	c #768B92",
"h 	c #778C93",
"i 	c #687F89",
"j 	c #6D858E",
"k 	c #5D717A",
"l 	c #78969F",
"m 	c #77949D",
"n 	c #7C9BA4",
"o 	c #455056",
"p 	c #6A828B",
"q 	c #718A94",
"r 	c #414D53",
"s 	c #889EA4",
"t 	c #5E717B",
"u 	c #60747E",
"v 	c #435056",
"w 	c #576972",
"x 	c #8BA3A9",
"y 	c #5A6D76",
"z 	c #5C6F78",
"A 	c #556770",
"B 	c #596C75",
"C 	c #48545A",
"D 	c #435055",
"E 	c #889FA5",
"F 	c #82989E",
"G 	c #869DA2",
"H 	c #53656F",
"I 	c #556871",
"J 	c #3F4B51",
"K 	c #677F88",
"L 	c #667E87",
"M 	c #647B85",
"N 	c #869CA2",
"O 	c #879EA3",
"P 	c #5B6F78",
"Q 	c #617880",
"R 	c #60767E",
"S 	c #637A83",
"T 	c #657D86",
"U 	c #647C85",
"V 	c #657C85",
"W 	c #667D86",
"X 	c #627A83",
"Y 	c #82989D",
"Z 	c #657B83",
"` 	c #647A82",
" .	c #677E86",
"..	c #49565B",
"+.	c #52646E",
"@.	c #556771",
"#.	c #687F87",
"$.	c #6A828A",
"%.	c #455157",
"&.	c #48555B",
"*.	c #465358",
"=.	c #6C838C",
"-.	c #424E54",
";.	c #6D848E",
">.	c #6A8089",
",.	c #6B828B",
"'.	c #677C85",
").	c #687D86",
"!.	c #6A7F89",
"~.	c #667B84",
"{.	c #5B6E78",
"].	c #6A838C",
"^.	c #69818A",
"/.	c #6C848D",
"(.	c #6E868F",
"_.	c #5E737C",
":.	c #566770",
"<.	c #7A98A1",
"[.	c #687E87",
"}.	c #677D86",
"|.	c #53646E",
"1.	c #586A73",
"2.	c #667C85",
"3.	c #657B84",
"4.	c #698089",
"5.	c #596B73",
"6.	c #5B6E75",
"7.	c #5C7078",
"8.	c #5B6E76",
"9.	c #5E737B",
"0.	c #4A585D",
"a.	c #465359",
"b.	c #445156",
"c.	c #55666F",
"d.	c #586C75",
"e.	c #849BA1",
"f.	c #80969D",
"g.	c #83989F",
"h.	c #708892",
"i.	c #576973",
"j.	c #7F949B",
"k.	c #7B9097",
"l.	c #7D9198",
"m.	c #53666F",
"n.	c #81969C",
"o.	c #424E53",
"p.	c #647A84",
"q.	c #627882",
"r.	c #627881",
"s.	c #68808A",
"t.	c #798D94",
"u.	c #455156",
"v.	c #5B6D76",
"w.	c #586B74",
"x.	c #5D7079",
"y.	c #566872",
"z.	c #647A83",
"A.	c #697E87",
"B.	c #6B8089",
"      . + @ @ @ @ @ @ # $ % % % % % % & *     . + @ @ @ @ @ @ # $ % % % % % % = - ; ; - = % % % % % % & *     * & % % & *       ",
"      . + @ @ @ @ @ @ # $ % % % % % % & *     . + @ @ @ @ @ @ # $ % % % % % % = - ; ; - = % % % % % % & *     * & % % & *       ",
"      . + @ @ @ @ @ @ # $ % % % % % % & *     . + @ @ @ @ @ @ # $ % % % % % % = - ; ; - = % % % % % % & *     * & % % & *       ",
"* * * > + @ @ @ , , , ' $ % % % % % % & > . . ) ! ~ ~ ~ , , , ' $ % % % { { { ] ^ / / ^ = % % % % % % & > . . > ( = = ( _ : : : ",
"& & & < # @ @ , [ / / } | 1 1 1 % % % $ 2 + + ! 3 4 4 5 6 / / ^ = % % { 7 8 8 9 0 , , ' $ % % % % % % $ 2 + + a ^ - - - b b b b ",
"% % % $ # @ @ , / ; ; - | c c 1 % % % $ # @ @ ~ 4 d d e f ; ; - = % % { 8 g g h i @ @ # $ % % % % % % $ # @ @ , / ; ; ; ; ; ; ; ",
"% % % $ # @ @ , / ; ; - | c c 1 % % % $ # @ @ ~ 4 d d e f ; ; - = % % { 8 g g h i @ @ # $ % % % % % % $ # @ @ , / ; ; ; ; ; ; ; ",
"& & & < j # # ' ^ - - / k | | | & & & < j # # @ l m m n o - - / ] { { < 7 8 8 9 p # # j $ % % % = = = % ' , , q r b b b - - - - ",
"* * * s < $ $ $ t t t u / - - v _ * * s < $ $ $ w w w w = = = ] 7 8 8 7 < { { { $ $ $ $ % % % = / - - - / / / r x : : _ ( = = = ",
"      * & % % y z z z t - ; ; b :     * & % % % % % % % % % % { 8 g g 8 { % % % % % % % % % % = - ; ; ; ; ; ; b :     * & % % % ",
"      * & % % y z z z t - ; ; b :     * & % % % % % % % % % % { 8 g g 8 { % % % % % % % % % % = - ; ; ; ; ; ; b :     * & % % % ",
". . . > A B B B { { { ] C - - D E F F G ( = = = % % % % & & & H 9 h h 9 I $ $ $ % % % % $ $ $ % / - - - b b b J s . . > & % % % ",
"+ + + K L + + M N * * O ( = = P Q R R S f - - / = % % & s * * > T i i i # # # j $ % % $ j # # j % = = ( _ : : s U + + 2 $ % % % ",
"@ @ @ @ V W W X Y     * & % % B Z ` `  ...; ; - = % % & *     . + @ @ @ @ @ @ # $ % % $ # @ @ # $ % % & *     . + @ @ # $ % % % ",
"@ @ @ @ V W W X Y     * & % % B Z ` `  ...; ; - = % % & *     . + @ @ @ @ @ @ # $ % % $ # @ @ # $ % % & *     . + @ @ # $ % % % ",
"@ @ @ @ L + + M ) . . > +.& & @.#. . .$.%.&.&.*.= % % & s * * > + @ @ @ , , , ' $ % % $ =.@ @ =.$ % % & > . . ) a , , ' $ % % % ",
"@ @ @ # w B B w 2 + + U > * * _ -.....%.;.>.>.,.B % % % & & & < # @ @ , [ / / ^ = % % B L V V L B % % $ 2 + + a [ / / ^ = % % % ",
"@ @ @ # $ % % $ # @ @ + .     : b ; ; &.>.'.'.).B % % % % % % $ # @ @ , / ; ; - = % % B + W W + B % % $ # @ @ , / ; ; - = % % % ",
"@ @ @ # $ % % $ # @ @ + .     : b ; ; &.>.'.'.).B % % % % % % $ # @ @ , / ; ; - = % % B + W W + B % % $ # @ @ , / ; ; - = % % % ",
"# # # j % = = % # @ @ + ) . . s D - - *.!.~.~.).{.= = = = = = % ' , , q ^ - - / = % % B ].^.^.].B % % $ j # # ' ^ - - / ( & & & ",
"$ $ $ % / - - ^ , @ @ @ + + + 2 % = = % /.@ @ (.^ - - - - - - - / / / ^ _.= = = % % % = *.&.&.*.= % % % $ $ $ $ = = = ( s * * * ",
"% % % = - ; ; / , @ @ @ @ @ @ # $ % % $ # @ @ , / ; ; ; ; ; ; ; ; ; ; - = % % % % % % = - ; ; - = % % % % % % % % % % & *       ",
"% % % = - ; ; / , @ @ @ @ @ @ # $ % % $ # @ @ , / ; ; ; ; ; ; ; ; ; ; - = % % % % % % = - ; ; - = % % % % % % % % % % & *       ",
"& & & ( - ; ; / ' # # # # # # j :.w w :.j # # ' ^ - - - b b b b b b b D = % % % & & & ( D b b D = % % % B B B B % % % & > . . . ",
"* * * _ b ; ; - % $ $ $ $ $ $ :.<.m m <.:.$ $ $ = = = ( _ : : : : : : _ & % % & s * * * : : : _ & % % B >.[.[.>.B % % $ 2 + + + ",
"      : b ; ; - = % % % % % % w m d d m w % % % % % % & *             * & % % & *             * & % % B [.}.}.[.B % % $ # @ @ @ ",
"      : b ; ; - = % % % % % % w m d d m w % % % % % % & *             * & % % & *             * & % % B [.}.}.[.B % % $ # @ @ @ ",
"      : D - - / ( & & & & & & |.l 4 4 l :.$ $ $ % % % & s * * * . . . > ( = = ( > . . . . . . > & % % B >.[.[.>.1.B B w # @ @ @ ",
"      * ( = = ( s * * * * * * > ! ~ ~ ~ # # # j $ % % % & & & < 2 + + a ^ - - ^ a + + + + + + 2 $ % % % B B B 1.~ }.}.W @ @ @ @ ",
"      * & % % & *             . + @ @ @ @ @ @ # $ % % % % % % $ # @ @ , / ; ; / , @ @ @ @ @ @ # $ % % % % % % B }.2.2.3.@ @ @ @ ",
"      * & % % & *             . + @ @ @ @ @ @ # $ % % % % % % $ # @ @ , / ; ; / , @ @ @ @ @ @ # $ % % % % % % B }.2.2.3.@ @ @ @ ",
". . . > & % % & s * * * . . . ) 2 # # # @ @ @ # $ % % % = = = % j # # ' [ / / [ , @ @ @ # # # j $ % % % % % % B p 4.4.i /.# # # ",
"+ + + 2 $ % % % & & & < 2 + + 2 w $ $ w # @ @ # 5.6.6.7./ - - / % $ $ w ' , , , @ @ @ # w $ $ $ % % % % % % % = *.&.&.*.% $ $ $ ",
"@ @ @ # $ % % % % % % $ # @ @ # $ % % $ # @ @ # 5.8.8.7.- ; ; - = % % $ # @ @ @ @ @ @ # $ % % % % % % % % % % = - ; ; - = % % % ",
"@ @ @ # $ % % % % % % $ # @ @ # $ % % $ # @ @ # 5.8.8.7.- ; ; - = % % $ # @ @ @ @ @ @ # $ % % % % % % % % % % = - ; ; - = % % % ",
"@ @ @ # w $ $ $ = = = % j # # j $ % % $ ' , , ' 8.7.7.9./ 0.0./ = % % $ j # # # # # # j $ % % % & & & & & & & ( / - - / % $ $ $ ",
"@ @ @ @ # # # ' ^ - - / % $ $ $ % % % = ^ / / / - - - / % B B $ % % % % $ $ $ $ $ $ $ $ % % % & s * * * * * * s ( = = % j # # # ",
"@ @ @ @ @ @ @ , / ; ; - = % % % % % % = - ; ; ; ; ; ; 0.B 1.1.w % % % % % % % % % % % % % % % & *             * & % % $ # @ @ @ ",
"@ @ @ @ @ @ @ , / ; ; - = % % % % % % = - ; ; ; ; ; ; 0.B 1.1.w % % % % % % % % % % % % % % % & *             * & % % $ # @ @ @ ",
"@ @ @ @ @ @ @ , ^ - - / ( & & & & & & ( / - - - a.a.a.b.w A A c.k = = = & & & & & & & & % % % & > . . . . . . > |.w w :.j # # # ",
"@ @ @ @ @ @ @ # % = = ( s * * * * * * s ( = = d.e.f.f.g.p =.=.h.^ - - D _ * * * * * * s & % % $ 2 + + + + + + ! l m m <.:.$ $ $ ",
"@ @ @ @ @ @ @ # $ % % & *             * & % % i.j.k.k.l.K @ @ , / ; ; b :             * & % % $ # @ @ @ @ @ @ ~ 4 d d m w % % % ",
"@ @ @ @ @ @ @ # $ % % & *             * & % % i.j.k.k.l.K @ @ , / ; ; b :             * & % % $ # @ @ @ @ @ @ ~ 4 d d m w % % % ",
"@ @ @ @ # # # j $ % % & G Y Y Y . . . > H { { m.g.j.j.n.K @ @ , o &.&.o.s . . . . . . > & % % $ ' , , , @ @ @ ~ l m m <.B = = = ",
"@ @ @ # w $ $ $ % % % B p.q.q.r.K + + T 9 8 8 7 m.i.i.A # @ @ @ s.^.^.s.K + + + + + + 2 $ % % = ^ / / [ , @ @ # :.w w B / - - - ",
"@ @ @ # $ % % % % % % B }.2.2.3.@ @ @ i h g g 8 { % % $ # @ @ @ V W W V @ @ @ @ @ @ @ # $ % % = - ; ; / , @ @ # $ % % = - ; ; ; ",
"@ @ @ # $ % % % % % % B }.2.2.3.@ @ @ i h g g 8 { % % $ # @ @ @ V W W V @ @ @ @ @ @ @ # $ % % = - ; ; / , @ @ # $ % % = - ; ; ; ",
"# # # j % = = = B B B 1.~ }.}.W @ @ @ i t.h h 9 H & & < j # # =.L + + L =.# # # # # # j $ % % = / - - ^ ' # # j < & & ( D b b b ",
"$ $ $ % / - - *.# [.[.>.1.B B w # @ @ @ i i i T > * * s < $ $ $ B B B B $ $ $ $ $ $ $ $ % % % % = = = = $ $ $ < s * * * : : : : ",
"% % % = - ; ; &.@ }.}.[.B % % $ # @ @ @ @ @ @ + .     * & % % % % % % % % % % % % % % % % % % % % % % % % % % & *               ",
"% % % = - ; ; &.@ }.}.[.B % % $ # @ @ @ @ @ @ + .     * & % % % % % % % % % % % % % % % % % % % % % % % % % % & *               ",
"% % % = *.&.&.u.# [.[.>.B % % $ j # # # # # # 2 ) . . > < $ $ $ % % % % = = = = & & & & = = = = % % % % & & & +.> . . . . . . . ",
"% % % B # @ @ # 1.B B B % % % y % v.v.% w.$ $ w 2 + + + # # # j $ % % = / - - D _ * * _ D - - / = % % & s * * > U + + + + + + + ",
"% % % B [.}.}.[.B % % % % % % y x.x.x.x.y % % $ # @ @ @ @ @ @ # $ % % = - ; ; b :     : b ; ; - = % % & *     . + @ @ @ @ @ @ @ ",
"% % % B [.}.}.[.B % % % % % % y x.x.x.x.y % % $ # @ @ @ @ @ @ # $ % % = - ; ; b :     : b ; ; - = % % & *     . + @ @ @ @ @ @ @ ",
"B B B 1.>.[.[.>.{.= = = & & & y.x.x.x.x.= = = % j # # # , , , ' $ % % = / - - D _ * * _ b ; ; - = % % & s * * > K @ @ @ @ @ @ @ ",
"2.2.2.+ 1.B B {./ - - D _ * * s y.y y = / - - / % $ $ % ^ / / ^ = % % % = = = = & & & ( - ; ; - = % % % & & & A [.2.2.2.@ @ @ @ ",
"3.3.3.2.B % % = - ; ; b :     * & % % = - ; ; - = % % = - ; ; - = % % % % % % % % % % = - ; ; - = % % % % % % B [.}.}.2.@ @ @ @ ",
"3.3.3.2.B % % = - ; ; b :     * & % % = - ; ; - = % % = - ; ; - = % % % % % % % % % % = - ; ; - = % % % % % % B [.}.}.2.@ @ @ @ ",
"z.z.z.3.B % % = D b b J s . . > < $ $ % / - - / B w w B ^ / / ^ % $ $ $ $ $ $ $ % % % = / - - / % $ $ $ B B B { >.[.[.[.(., , , ",
"@ @ @ /.$ % % & _ : : s U + + + # # # j % = = B <.m m l /., , , # # # # # # # j $ % % % = = = % j # # =.A.A.A.B.{ B B {.^ / / / ",
"@ @ @ # $ % % & *     . + @ @ @ @ @ @ # $ % % w m d d 4 ~ @ @ @ @ @ @ @ @ @ @ # $ % % % % % % $ # @ @ @ '.).).A.B % % = - ; ; ; ",
"@ @ @ # $ % % & *     . + @ @ @ @ @ @ # $ % % w m d d 4 ~ @ @ @ @ @ @ @ @ @ @ # $ % % % % % % $ # @ @ @ '.).).A.B % % = - ; ; ; ",
"@ @ @ # $ % % & *     . + @ @ @ @ @ @ # $ % % w m d d 4 ~ @ @ @ @ @ @ @ @ @ @ # $ % % % % % % $ # @ @ @ '.).).A.B % % = - ; ; ; "};
