/* XPM */
static char * C:\Users\qatar\Desktop\carved_stone_xpm[] = {
"64 64 107 2",
"  	c #AFAFAF",
". 	c #AAAAAA",
"+ 	c #B5B5B5",
"@ 	c #B8B8B8",
"# 	c #B9B9B9",
"$ 	c #B4B4B4",
"% 	c #3E3E3E",
"& 	c #B0B0B0",
"* 	c #BABABA",
"= 	c #B2B2B2",
"- 	c #ADADAD",
"; 	c #5B5B5B",
"> 	c #A8A8A8",
", 	c #343434",
"' 	c #8B8B8B",
") 	c #303030",
"! 	c #787878",
"~ 	c #979797",
"{ 	c #777777",
"] 	c #434343",
"^ 	c #999999",
"/ 	c #ABABAB",
"( 	c #868686",
"_ 	c #A1A1A1",
": 	c #9A9A9A",
"< 	c #666666",
"[ 	c #4D4D4D",
"} 	c #848484",
"| 	c #7C7C7C",
"1 	c #808080",
"2 	c #464646",
"3 	c #A9A9A9",
"4 	c #737373",
"5 	c #9C9C9C",
"6 	c #A0A0A0",
"7 	c #939393",
"8 	c #7F7F7F",
"9 	c #6F6F6F",
"0 	c #6E6E6E",
"a 	c #606060",
"b 	c #828282",
"c 	c #8D8D8D",
"d 	c #8C8C8C",
"e 	c #5C5C5C",
"f 	c #989898",
"g 	c #6D6D6D",
"h 	c #949494",
"i 	c #5F5F5F",
"j 	c #7B7B7B",
"k 	c #8A8A8A",
"l 	c #494949",
"m 	c #B6B6B6",
"n 	c #575757",
"o 	c #6B6B6B",
"p 	c #2B2B2B",
"q 	c #A3A3A3",
"r 	c #969696",
"s 	c #6C6C6C",
"t 	c #595959",
"u 	c #707070",
"v 	c #919191",
"w 	c #4F4F4F",
"x 	c #3C3C3C",
"y 	c #A6A6A6",
"z 	c #929292",
"A 	c #242424",
"B 	c #212121",
"C 	c #2E2E2E",
"D 	c #2D2D2D",
"E 	c #313131",
"F 	c #5A5A5A",
"G 	c #333333",
"H 	c #535353",
"I 	c #676767",
"J 	c #4E4E4E",
"K 	c #5E5E5E",
"L 	c #757575",
"M 	c #878787",
"N 	c #1B1B1B",
"O 	c #9E9E9E",
"P 	c #626262",
"Q 	c #646464",
"R 	c #7D7D7D",
"S 	c #888888",
"T 	c #636363",
"U 	c #898989",
"V 	c #858585",
"W 	c #525252",
"X 	c #2C2C2C",
"Y 	c #696969",
"Z 	c #767676",
"` 	c #8E8E8E",
" .	c #262626",
"..	c #AEAEAE",
"+.	c #727272",
"@.	c #838383",
"#.	c #4A4A4A",
"$.	c #909090",
"%.	c #616161",
"&.	c #424242",
"*.	c #7E7E7E",
"=.	c #818181",
"-.	c #585858",
";.	c #0B0B0B",
">.	c #373737",
",.	c #282828",
"'.	c #404040",
"        . . . .         + + + + @ @ @ @ # # # # $ $ $ $ % % % %         & & & & * * * * @ @ @ @ = = = =         - - - - ; ; ; ; ",
"        . . . .         + + + + @ @ @ @ # # # # $ $ $ $ % % % %         & & & & * * * * @ @ @ @ = = = =         - - - - ; ; ; ; ",
"        . . . .         + + + + @ @ @ @ # # # # $ $ $ $ % % % %         & & & & * * * * @ @ @ @ = = = =         - - - - ; ; ; ; ",
"        . . . .         + + + + @ @ @ @ # # # # $ $ $ $ % % % %         & & & & * * * * @ @ @ @ = = = =         - - - - ; ; ; ; ",
"> > > > , , , , ' ' ' ' ) ) ) ) ! ! ! ! ~ ~ ~ ~ { { { { ] ] ] ] > > > > ^ ^ ^ ^ / / / / ( ( ( ( _ _ _ _ : : : : ' ' ' ' < < < < ",
"> > > > , , , , ' ' ' ' ) ) ) ) ! ! ! ! ~ ~ ~ ~ { { { { ] ] ] ] > > > > ^ ^ ^ ^ / / / / ( ( ( ( _ _ _ _ : : : : ' ' ' ' < < < < ",
"> > > > , , , , ' ' ' ' ) ) ) ) ! ! ! ! ~ ~ ~ ~ { { { { ] ] ] ] > > > > ^ ^ ^ ^ / / / / ( ( ( ( _ _ _ _ : : : : ' ' ' ' < < < < ",
"> > > > , , , , ' ' ' ' ) ) ) ) ! ! ! ! ~ ~ ~ ~ { { { { ] ] ] ] > > > > ^ ^ ^ ^ / / / / ( ( ( ( _ _ _ _ : : : : ' ' ' ' < < < < ",
"+ + + + [ [ [ [ } } } } [ [ [ [ ' ' ' ' | | | | 1 1 1 1 2 2 2 2 + + + + 3 3 3 3 : : : : 4 4 4 4 5 5 5 5 6 6 6 6 7 7 7 7 8 8 8 8 ",
"+ + + + [ [ [ [ } } } } [ [ [ [ ' ' ' ' | | | | 1 1 1 1 2 2 2 2 + + + + 3 3 3 3 : : : : 4 4 4 4 5 5 5 5 6 6 6 6 7 7 7 7 8 8 8 8 ",
"+ + + + [ [ [ [ } } } } [ [ [ [ ' ' ' ' | | | | 1 1 1 1 2 2 2 2 + + + + 3 3 3 3 : : : : 4 4 4 4 5 5 5 5 6 6 6 6 7 7 7 7 8 8 8 8 ",
"+ + + + [ [ [ [ } } } } [ [ [ [ ' ' ' ' | | | | 1 1 1 1 2 2 2 2 + + + + 3 3 3 3 : : : : 4 4 4 4 5 5 5 5 6 6 6 6 7 7 7 7 8 8 8 8 ",
"@ @ @ @ 9 9 9 9 0 0 0 0 a a a a b b b b c c c c d d d d e e e e @ @ @ @ f f f f g g g g ( ( ( ( h h h h ^ ^ ^ ^ g g g g 0 0 0 0 ",
"@ @ @ @ 9 9 9 9 0 0 0 0 a a a a b b b b c c c c d d d d e e e e @ @ @ @ f f f f g g g g ( ( ( ( h h h h ^ ^ ^ ^ g g g g 0 0 0 0 ",
"@ @ @ @ 9 9 9 9 0 0 0 0 a a a a b b b b c c c c d d d d e e e e @ @ @ @ f f f f g g g g ( ( ( ( h h h h ^ ^ ^ ^ g g g g 0 0 0 0 ",
"@ @ @ @ 9 9 9 9 0 0 0 0 a a a a b b b b c c c c d d d d e e e e @ @ @ @ f f f f g g g g ( ( ( ( h h h h ^ ^ ^ ^ g g g g 0 0 0 0 ",
"+ + + + < < < < % % % % i i i i 1 1 1 1 j j j j k k k k l l l l + + + + b b b b b b b b ' ' ' ' | | | | k k k k _ _ _ _ < < < < ",
"+ + + + < < < < % % % % i i i i 1 1 1 1 j j j j k k k k l l l l + + + + b b b b b b b b ' ' ' ' | | | | k k k k _ _ _ _ < < < < ",
"+ + + + < < < < % % % % i i i i 1 1 1 1 j j j j k k k k l l l l + + + + b b b b b b b b ' ' ' ' | | | | k k k k _ _ _ _ < < < < ",
"+ + + + < < < < % % % % i i i i 1 1 1 1 j j j j k k k k l l l l + + + + b b b b b b b b ' ' ' ' | | | | k k k k _ _ _ _ < < < < ",
"m m m m n n n n ; ; ; ; o o o o a a a a ; ; ; ; | | | | p p p p m m m m q q q q r r r r k k k k f f f f c c c c b b b b s s s s ",
"m m m m n n n n ; ; ; ; o o o o a a a a ; ; ; ; | | | | p p p p m m m m q q q q r r r r k k k k f f f f c c c c b b b b s s s s ",
"m m m m n n n n ; ; ; ; o o o o a a a a ; ; ; ; | | | | p p p p m m m m q q q q r r r r k k k k f f f f c c c c b b b b s s s s ",
"m m m m n n n n ; ; ; ; o o o o a a a a ; ; ; ; | | | | p p p p m m m m q q q q r r r r k k k k f f f f c c c c b b b b s s s s ",
"/ / / / t t t t ! ! ! ! u u u u v v v v w w w w a a a a x x x x / / / / | | | | 6 6 6 6 y y y y c c c c z z z z : : : : ] ] ] ] ",
"/ / / / t t t t ! ! ! ! u u u u v v v v w w w w a a a a x x x x / / / / | | | | 6 6 6 6 y y y y c c c c z z z z : : : : ] ] ] ] ",
"/ / / / t t t t ! ! ! ! u u u u v v v v w w w w a a a a x x x x / / / / | | | | 6 6 6 6 y y y y c c c c z z z z : : : : ] ] ] ] ",
"/ / / / t t t t ! ! ! ! u u u u v v v v w w w w a a a a x x x x / / / / | | | | 6 6 6 6 y y y y c c c c z z z z : : : : ] ] ] ] ",
"A A A A ) ) ) ) B B B B A A A A C C C C ) ) ) ) D D D D A A A A A A A A E E E E A A A A F F F F G G G G H H H H I I I I A A A A ",
"A A A A ) ) ) ) B B B B A A A A C C C C ) ) ) ) D D D D A A A A A A A A E E E E A A A A F F F F G G G G H H H H I I I I A A A A ",
"A A A A ) ) ) ) B B B B A A A A C C C C ) ) ) ) D D D D A A A A A A A A E E E E A A A A F F F F G G G G H H H H I I I I A A A A ",
"A A A A ) ) ) ) B B B B A A A A C C C C ) ) ) ) D D D D A A A A A A A A E E E E A A A A F F F F G G G G H H H H I I I I A A A A ",
"        h h h h z z z z ^ ^ ^ ^         / / / / - - - - J J J J         . . . . - - - - _ _ _ _ m m m m + + + + = = = = 7 7 7 7 ",
"        h h h h z z z z ^ ^ ^ ^         / / / / - - - - J J J J         . . . . - - - - _ _ _ _ m m m m + + + + = = = = 7 7 7 7 ",
"        h h h h z z z z ^ ^ ^ ^         / / / / - - - - J J J J         . . . . - - - - _ _ _ _ m m m m + + + + = = = = 7 7 7 7 ",
"        h h h h z z z z ^ ^ ^ ^         / / / / - - - - J J J J         . . . . - - - - _ _ _ _ m m m m + + + + = = = = 7 7 7 7 ",
"> > > > w w w w F F F F K K K K 4 4 4 4 L L L L M M M M N N N N > > > > a a a a k k k k e e e e ( ( ( ( O O O O 4 4 4 4 P P P P ",
"> > > > w w w w F F F F K K K K 4 4 4 4 L L L L M M M M N N N N > > > > a a a a k k k k e e e e ( ( ( ( O O O O 4 4 4 4 P P P P ",
"> > > > w w w w F F F F K K K K 4 4 4 4 L L L L M M M M N N N N > > > > a a a a k k k k e e e e ( ( ( ( O O O O 4 4 4 4 P P P P ",
"> > > > w w w w F F F F K K K K 4 4 4 4 L L L L M M M M N N N N > > > > a a a a k k k k e e e e ( ( ( ( O O O O 4 4 4 4 P P P P ",
"+ + + + ( ( ( ( a a a a u u u u Q Q Q Q b b b b R R R R i i i i + + + + S S S S T T T T R R R R | | | | s s s s 4 4 4 4 ( ( ( ( ",
"+ + + + ( ( ( ( a a a a u u u u Q Q Q Q b b b b R R R R i i i i + + + + S S S S T T T T R R R R | | | | s s s s 4 4 4 4 ( ( ( ( ",
"+ + + + ( ( ( ( a a a a u u u u Q Q Q Q b b b b R R R R i i i i + + + + S S S S T T T T R R R R | | | | s s s s 4 4 4 4 ( ( ( ( ",
"+ + + + ( ( ( ( a a a a u u u u Q Q Q Q b b b b R R R R i i i i + + + + S S S S T T T T R R R R | | | | s s s s 4 4 4 4 ( ( ( ( ",
"@ @ @ @ { { { { U U U U U U U U Q Q Q Q V V V V W W W W X X X X @ @ @ @ Y Y Y Y s s s s z z z z b b b b 5 5 5 5 - - - - t t t t ",
"@ @ @ @ { { { { U U U U U U U U Q Q Q Q V V V V W W W W X X X X @ @ @ @ Y Y Y Y s s s s z z z z b b b b 5 5 5 5 - - - - t t t t ",
"@ @ @ @ { { { { U U U U U U U U Q Q Q Q V V V V W W W W X X X X @ @ @ @ Y Y Y Y s s s s z z z z b b b b 5 5 5 5 - - - - t t t t ",
"@ @ @ @ { { { { U U U U U U U U Q Q Q Q V V V V W W W W X X X X @ @ @ @ Y Y Y Y s s s s z z z z b b b b 5 5 5 5 - - - - t t t t ",
"+ + + + Z Z Z Z ` ` ` ` ! ! ! ! 9 9 9 9 S S S S } } } }  . . . .+ + + + h h h h : : : : 6 6 6 6 f f f f y y y y ........; ; ; ; ",
"+ + + + Z Z Z Z ` ` ` ` ! ! ! ! 9 9 9 9 S S S S } } } }  . . . .+ + + + h h h h : : : : 6 6 6 6 f f f f y y y y ........; ; ; ; ",
"+ + + + Z Z Z Z ` ` ` ` ! ! ! ! 9 9 9 9 S S S S } } } }  . . . .+ + + + h h h h : : : : 6 6 6 6 f f f f y y y y ........; ; ; ; ",
"+ + + + Z Z Z Z ` ` ` ` ! ! ! ! 9 9 9 9 S S S S } } } }  . . . .+ + + + h h h h : : : : 6 6 6 6 f f f f y y y y ........; ; ; ; ",
"m m m m c c c c b b b b k k k k M M M M +.+.+.+.@.@.@.@.#.#.#.#.m m m m > > > > r r r r ' ' ' ' r r r r 5 5 5 5 / / / / k k k k ",
"m m m m c c c c b b b b k k k k M M M M +.+.+.+.@.@.@.@.#.#.#.#.m m m m > > > > r r r r ' ' ' ' r r r r 5 5 5 5 / / / / k k k k ",
"m m m m c c c c b b b b k k k k M M M M +.+.+.+.@.@.@.@.#.#.#.#.m m m m > > > > r r r r ' ' ' ' r r r r 5 5 5 5 / / / / k k k k ",
"m m m m c c c c b b b b k k k k M M M M +.+.+.+.@.@.@.@.#.#.#.#.m m m m > > > > r r r r ' ' ' ' r r r r 5 5 5 5 / / / / k k k k ",
"/ / / / M M M M ' ' ' ' 7 7 7 7 $.$.$.$.%.%.%.%.V V V V &.&.&.&./ / / / h h h h *.*.*.*.=.=.=.=.5 5 5 5 S S S S f f f f s s s s ",
"/ / / / M M M M ' ' ' ' 7 7 7 7 $.$.$.$.%.%.%.%.V V V V &.&.&.&./ / / / h h h h *.*.*.*.=.=.=.=.5 5 5 5 S S S S f f f f s s s s ",
"/ / / / M M M M ' ' ' ' 7 7 7 7 $.$.$.$.%.%.%.%.V V V V &.&.&.&./ / / / h h h h *.*.*.*.=.=.=.=.5 5 5 5 S S S S f f f f s s s s ",
"/ / / / M M M M ' ' ' ' 7 7 7 7 $.$.$.$.%.%.%.%.V V V V &.&.&.&./ / / / h h h h *.*.*.*.=.=.=.=.5 5 5 5 S S S S f f f f s s s s ",
"A A A A -.-.-.-.H H H H ) ) ) ) ;.;.;.;.>.>.>.>.] ] ] ] A A A A x x x x x x x x ,.,.,.,.2 2 2 2 '.'.'.'.E E E E -.-.-.-.A A A A ",
"A A A A -.-.-.-.H H H H ) ) ) ) ;.;.;.;.>.>.>.>.] ] ] ] A A A A x x x x x x x x ,.,.,.,.2 2 2 2 '.'.'.'.E E E E -.-.-.-.A A A A ",
"A A A A -.-.-.-.H H H H ) ) ) ) ;.;.;.;.>.>.>.>.] ] ] ] A A A A x x x x x x x x ,.,.,.,.2 2 2 2 '.'.'.'.E E E E -.-.-.-.A A A A ",
"A A A A -.-.-.-.H H H H ) ) ) ) ;.;.;.;.>.>.>.>.] ] ] ] A A A A x x x x x x x x ,.,.,.,.2 2 2 2 '.'.'.'.E E E E -.-.-.-.A A A A "};
