/* XPM */
static char * enchanted_gravitite2_xpm[] = {
"64 64 14 1",
" 	c #EC4FBF",
".	c #E441A9",
"+	c #C51988",
"@	c #FED6F9",
"#	c #FFFFFF",
"$	c #FDA0F1",
"%	c #FEC9F7",
"&	c #F468D6",
"*	c #FF00FF",
"=	c #F973D6",
"-	c #FCC3F3",
";	c #BC1280",
">	c #EF5ECC",
",	c #F363D2",
"                ........            ................        ++++",
"                ........            ................        ++++",
"                ........            ................        ++++",
"                ........            ................        ++++",
"    @@@@########$$$$$$$$%%%%@@@@@@@@$$$$$$$$&&&&&&&&@@@@@@@@++++",
"    @@@@########$$$$$$$$%%%%@@@@@@@@$$$$$$$$&&&&&&&&@@@@@@@@++++",
"    @@@@########$$$$$$$$%%%%@@@@@@@@$$$$$$$$&&&&&&&&@@@@@@@@++++",
"    @@@@########$$$$$$$$%%%%@@@@@@@@$$$$$$$$&&&&&&&&@@@@@@@@++++",
"    ###*****&&&&====----$$$$$$$$&&&&    ........    ====@@@@++++",
"    ##*******&&&====----$$$$$$$$&&&&    ........    ====@@@@++++",
"    #*********&&====----$$$$$$$$&&&&    ........    ====@@@@++++",
"    #*********&&====----$$$$$$$$&&&&    ........    ====@@@@++++",
"    #*********==@@@@$$$$$$$$====&&&&            ========$$$$++++",
"    #*********==@@@@$$$$$$$$====&&&&            ========$$$$++++",
"    #*********==@@@@$$$$$$$$====&&&&            ========$$$$++++",
"    #*********==@@@*****$$$$====&&&&            ========$$$$++++",
"....$*********$$$$*******===&&&&        &&&&========&&&&$$$$++++",
"....$*********$$$*********==&&&&        &&&&========&&&&$$$$++++",
"....$*********$$$*********==&&&&      ***********===&&&&$$$$++++",
"....$*********$$$*********==&&&&   *****************&&&&$$$$++++",
"....$*********$$$*********&&      *******************   ....;;;;",
"....$*********$$$*********&&     *********************  ....;;;;",
"....$*********$$$*********&&    *********************** ....;;;;",
"....$*********$$$*********&&    ************************....;;;;",
"    @*********************==&&&&************************....;;;;",
"    @**********************=&&&&************************....;;;;",
"    @***********************&&&&************************....;;;;",
"    @***********************&&&&***********$************....;;;;",
"    @***********************&&&&=*******&&&&   *********    ;;;;",
"    @***********************&&&&==*****=&&&&   *********    ;;;;",
"    @***********************&&&&========&&&&   *********    ;;;;",
"    @@*********************&&&&&========&&&&  **********    ;;;;",
"....$$$*******************&&========&&&&&&&&************&&&&++++",
"....$$$$=========*********&&========&&&&&***************&&&&++++",
"....$$$$=========*********&&========&&&&****************&&&&++++",
"....$$$$=========*********&&========&&******************&&&&++++",
"....$$$$========&*********======&&&&*******************=&&&&++++",
"....$$$$========&*********======&&********************==&&&&++++",
"....$$$$========&*********======&********************===&&&&++++",
"....$$$$========&*********======********************====&&&&++++",
"....&&&&====&&&&&*********$$&&&********************$====    ;;;;",
"....&&&&====&&&&&*********$$&&*******************$$$====    ;;;;",
"....&&&&====&&&&&*********$$&*****************&&$$$$====    ;;;;",
"....&&&&====&&&&&*********$$&****************&&&$$$$====    ;;;;",
"....    &&&&&&&&$$*******&&&*************** $$$$$$$$>>>>    ;;;;",
"....    &&&&&&&&$$$*****&&&&*************   $$$$$$$$>>>>    ;;;;",
"....    &&&&&&&&$$$$$$$$&&&&***********&    $$$$$$$$>>>>    ;;;;",
"....    &&&&&&&&$$$$$$$$&&&&**************  $$$$$$$$>>>>    ;;;;",
"....    &&&&$$$$$$$$&&&&    ******************==&&&&    ,,,,++++",
"....    &&&&$$$$$$$$&&&&    *************************** ,,,,++++",
"....    &&&&$$$$$$$$&&&&    ****************************,,,,++++",
"....    &&&&$$$$$$$$&&&&    .****************************,,,++++",
"........========&&&&    ......***************************===++++",
"........========&&&&    .......**************************===++++",
"........========&&&&    ........*************************===++++",
"........========&&&&    ........  ***********************===++++",
"....    ....        ........    &&&&&*******************$$$$;;;;",
"....    ....        ........    &&&&&&&& **************=$$$$;;;;",
"....    ....        ........    &&&&&&&&     *********==$$$$;;;;",
"....    ....        ........    &&&&&&&&        ,,,,====$$$$;;;;",
"++++++++;;;;++++++++;;;;;;;;;;;;++++++++;;;;;;;;++++++++;;;;;;;;",
"++++++++;;;;++++++++;;;;;;;;;;;;++++++++;;;;;;;;++++++++;;;;;;;;",
"++++++++;;;;++++++++;;;;;;;;;;;;++++++++;;;;;;;;++++++++;;;;;;;;",
"++++++++;;;;++++++++;;;;;;;;;;;;++++++++;;;;;;;;++++++++;;;;;;;;"};
