/* XPM */
static char * C:\Users\qatar\Desktop\holystone_xpm[] = {
"64 64 60 1",
" 	c #CDCDCD",
".	c #C8C8C8",
"+	c #C1C1C1",
"@	c #BABABA",
"#	c #969696",
"$	c #A2A2A2",
"%	c #ACACAC",
"&	c #CCCCCC",
"*	c #AAAAAA",
"=	c #CBCBCB",
"-	c #BFBFBF",
";	c #B2B2B2",
">	c #BBBBBB",
",	c #AEAEAE",
"'	c #9E9E9E",
")	c #989898",
"!	c #BCBCBC",
"~	c #BEBEBE",
"{	c #B4B4B4",
"]	c #C4C4C4",
"^	c #B8B8B8",
"/	c #BDBDBD",
"(	c #9A9A9A",
"_	c #9F9F9F",
":	c #A5A5A5",
"<	c #C2C2C2",
"[	c #8E8E8E",
"}	c #8D8D8D",
"|	c #9B9B9B",
"1	c #A0A0A0",
"2	c #D0D0D0",
"3	c #999999",
"4	c #A3A3A3",
"5	c #A1A1A1",
"6	c #CACACA",
"7	c #CFCFCF",
"8	c #949494",
"9	c #8C8C8C",
"0	c #B7B7B7",
"a	c #B6B6B6",
"b	c #979797",
"c	c #B0B0B0",
"d	c #D1D1D1",
"e	c #ABABAB",
"f	c #A4A4A4",
"g	c #A8A8A8",
"h	c #B5B5B5",
"i	c #B9B9B9",
"j	c #9D9D9D",
"k	c #CECECE",
"l	c #A9A9A9",
"m	c #ADADAD",
"n	c #A7A7A7",
"o	c #8F8F8F",
"p	c #919191",
"q	c #7D7D7D",
"r	c #C3C3C3",
"s	c #C6C6C6",
"t	c #959595",
"u	c #878787",
"            ....++++@@@@####$$$$%%%%    &&&&&&&&@@@@****====----",
"            ....++++@@@@####$$$$%%%%    &&&&&&&&@@@@****====----",
"            ....++++@@@@####$$$$%%%%    &&&&&&&&@@@@****====----",
"            ....++++@@@@####$$$$%%%%    &&&&&&&&@@@@****====----",
"        ;;;;>>>>,,,,####''''))))####!!!!----@@@@~~~~$$$${{{{]]]]",
"        ;;;;>>>>,,,,####''''))))####!!!!----@@@@~~~~$$$${{{{]]]]",
"        ;;;;>>>>,,,,####''''))))####!!!!----@@@@~~~~$$$${{{{]]]]",
"        ;;;;>>>>,,,,####''''))))####!!!!----@@@@~~~~$$$${{{{]]]]",
"^^^^////!!!!((((____''''    ::::****{{{{<<<<!!!!''''[[[[####----",
"^^^^////!!!!((((____''''    ::::****{{{{<<<<!!!!''''[[[[####----",
"^^^^////!!!!((((____''''    ::::****{{{{<<<<!!!!''''[[[[####----",
"^^^^////!!!!((((____''''    ::::****{{{{<<<<!!!!''''[[[[####----",
"}}}}||||1111%%%%2222,,,,----^^^^####333344445555::::666677778888",
"}}}}||||1111%%%%2222,,,,----^^^^####333344445555::::666677778888",
"}}}}||||1111%%%%2222,,,,----^^^^####333344445555::::666677778888",
"}}}}||||1111%%%%2222,,,,----^^^^####333344445555::::666677778888",
"2222&&&&,,,,33332222---->>>>++++    9999]]]]>>>>----00006666%%%%",
"2222&&&&,,,,33332222---->>>>++++    9999]]]]>>>>----00006666%%%%",
"2222&&&&,,,,33332222---->>>>++++    9999]]]]>>>>----00006666%%%%",
"2222&&&&,,,,33332222---->>>>++++    9999]]]]>>>>----00006666%%%%",
"aaaa////0000>>>>bbbb////>>>>cccc''''dddd00003333%%%%eeeeffff****",
"aaaa////0000>>>>bbbb////>>>>cccc''''dddd00003333%%%%eeeeffff****",
"aaaa////0000>>>>bbbb////>>>>cccc''''dddd00003333%%%%eeeeffff****",
"aaaa////0000>>>>bbbb////>>>>cccc''''dddd00003333%%%%eeeeffff****",
"^^^^>>>>@@@@::::gggg3333''''####((((''''6666++++hhhh>>>>%%%%****",
"^^^^>>>>@@@@::::gggg3333''''####((((''''6666++++hhhh>>>>%%%%****",
"^^^^>>>>@@@@::::gggg3333''''####((((''''6666++++hhhh>>>>%%%%****",
"^^^^>>>>@@@@::::gggg3333''''####((((''''6666++++hhhh>>>>%%%%****",
"@@@@iiii;;;;5555::::====iiii((((%%%%<<<<jjjj>>>>@@@@1111####dddd",
"@@@@iiii;;;;5555::::====iiii((((%%%%<<<<jjjj>>>>@@@@1111####dddd",
"@@@@iiii;;;;5555::::====iiii((((%%%%<<<<jjjj>>>>@@@@1111####dddd",
"@@@@iiii;;;;5555::::====iiii((((%%%%<<<<jjjj>>>>@@@@1111####dddd",
"^^^^cccc6666dddd++++bbbb<<<<kkkk    ~~~~))))gggg||||lllldddd====",
"^^^^cccc6666dddd++++bbbb<<<<kkkk    ~~~~))))gggg||||lllldddd====",
"^^^^cccc6666dddd++++bbbb<<<<kkkk    ~~~~))))gggg||||lllldddd====",
"^^^^cccc6666dddd++++bbbb<<<<kkkk    ~~~~))))gggg||||lllldddd====",
"%%%%))))ddddkkkk$$$$mmmm7777cccc7777nnnn<<<<////%%%%dddd@@@@iiii",
"%%%%))))ddddkkkk$$$$mmmm7777cccc7777nnnn<<<<////%%%%dddd@@@@iiii",
"%%%%))))ddddkkkk$$$$mmmm7777cccc7777nnnn<<<<////%%%%dddd@@@@iiii",
"%%%%))))ddddkkkk$$$$mmmm7777cccc7777nnnn<<<<////%%%%dddd@@@@iiii",
"cccc{{{{^^^^>>>>iiii____    <<<<~~~~oooo~~~~3333::::eeee]]]]>>>>",
"cccc{{{{^^^^>>>>iiii____    <<<<~~~~oooo~~~~3333::::eeee]]]]>>>>",
"cccc{{{{^^^^>>>>iiii____    <<<<~~~~oooo~~~~3333::::eeee]]]]>>>>",
"cccc{{{{^^^^>>>>iiii____    <<<<~~~~oooo~~~~3333::::eeee]]]]>>>>",
"((((<<<<jjjj>>>>{{{{''''@@@@@@@@<<<<@@@@$$$$pppp########8888''''",
"((((<<<<jjjj>>>>{{{{''''@@@@@@@@<<<<@@@@$$$$pppp########8888''''",
"((((<<<<jjjj>>>>{{{{''''@@@@@@@@<<<<@@@@$$$$pppp########8888''''",
"((((<<<<jjjj>>>>{{{{''''@@@@@@@@<<<<@@@@$$$$pppp########8888''''",
"ddddkkkkbbbb1111,,,,nnnn||||^^^^qqqqnnnn&&&&]]]]{{{{>>>>oooo||||",
"ddddkkkkbbbb1111,,,,nnnn||||^^^^qqqqnnnn&&&&]]]]{{{{>>>>oooo||||",
"ddddkkkkbbbb1111,,,,nnnn||||^^^^qqqqnnnn&&&&]]]]{{{{>>>>oooo||||",
"ddddkkkkbbbb1111,,,,nnnn||||^^^^qqqqnnnn&&&&]]]]{{{{>>>>oooo||||",
"dddd>>>>}}}}    8888kkkkbbbb4444aaaadddd6666>>>>rrrriiii----____",
"dddd>>>>}}}}    8888kkkkbbbb4444aaaadddd6666>>>>rrrriiii----____",
"dddd>>>>}}}}    8888kkkkbbbb4444aaaadddd6666>>>>rrrriiii----____",
"dddd>>>>}}}}    8888kkkkbbbb4444aaaadddd6666>>>>rrrriiii----____",
"^^^^~~~~____ssss////@@@@>>>>lllltttteeee>>>>--------rrrr1111hhhh",
"^^^^~~~~____ssss////@@@@>>>>lllltttteeee>>>>--------rrrr1111hhhh",
"^^^^~~~~____ssss////@@@@>>>>lllltttteeee>>>>--------rrrr1111hhhh",
"^^^^~~~~____ssss////@@@@>>>>lllltttteeee>>>>--------rrrr1111hhhh",
"hhhhaaaa{{{{uuuuiiiimmmm****====ffff----llllbbbb((((::::''''cccc",
"hhhhaaaa{{{{uuuuiiiimmmm****====ffff----llllbbbb((((::::''''cccc",
"hhhhaaaa{{{{uuuuiiiimmmm****====ffff----llllbbbb((((::::''''cccc",
"hhhhaaaa{{{{uuuuiiiimmmm****====ffff----llllbbbb((((::::''''cccc"};
