/* XPM */
static char * C:\Users\qatar\Desktop\pillar_side_xpm[] = {
"64 64 201 2",
"  	c #F5F0E4",
". 	c #BAA296",
"+ 	c #E7C3B6",
"@ 	c #F0D6CA",
"# 	c #EDDED4",
"$ 	c #B29E93",
"% 	c #D7B5AB",
"& 	c #DCB8AF",
"* 	c #E1C5BC",
"= 	c #A28C7F",
"- 	c #C9A79B",
"; 	c #CCAA9D",
"> 	c #D4B5A8",
", 	c #957C70",
"' 	c #AC9285",
") 	c #BA988E",
"! 	c #F8F2E8",
"~ 	c #E8C4B8",
"{ 	c #F3DDD1",
"] 	c #F0E2D8",
"^ 	c #B39F94",
"/ 	c #DAB8AC",
"( 	c #E3BFB2",
"_ 	c #E4CBC0",
": 	c #A58F82",
"< 	c #CAA89E",
"[ 	c #D4B1A4",
"} 	c #D7B8AB",
"| 	c #987F73",
"1 	c #B2968B",
"2 	c #C6A297",
"3 	c #FAF3EA",
"4 	c #B9A396",
"5 	c #E8C7B8",
"6 	c #F6DBD0",
"7 	c #F5E9E1",
"8 	c #B59F94",
"9 	c #D9B9A9",
"0 	c #E7C6B5",
"a 	c #E8D0C4",
"b 	c #A99386",
"c 	c #CAAB9D",
"d 	c #D4B2A1",
"e 	c #D9BAAD",
"f 	c #9A8076",
"g 	c #BA9A8F",
"h 	c #C8A699",
"i 	c #FBF6EC",
"j 	c #BAA497",
"k 	c #E8C8B9",
"l 	c #F4DCD0",
"m 	c #F8ECE3",
"n 	c #B7A196",
"o 	c #DBBCA9",
"p 	c #E8C7B6",
"q 	c #EBD9CC",
"r 	c #AB9387",
"s 	c #CAAD9E",
"t 	c #D5B4A6",
"u 	c #DEBEB2",
"v 	c #9E847A",
"w 	c #BE9A91",
"x 	c #C6A596",
"y 	c #FDF9ED",
"z 	c #E7C7BA",
"A 	c #F6DFD4",
"B 	c #F9EFE6",
"C 	c #B5A196",
"D 	c #DCBDAA",
"E 	c #ECCABA",
"F 	c #EFD5CB",
"G 	c #AE968A",
"H 	c #CCAFA0",
"I 	c #D9B7A7",
"J 	c #E1C2B5",
"K 	c #9E867B",
"L 	c #BDA196",
"M 	c #FEF7EB",
"N 	c #BCA699",
"O 	c #E6C9BB",
"P 	c #EED7CF",
"Q 	c #FAF0E8",
"R 	c #B5A095",
"S 	c #DFBEAC",
"T 	c #F0CDBC",
"U 	c #F3DBCF",
"V 	c #B2988E",
"W 	c #CDB0A0",
"X 	c #DAB8A8",
"Y 	c #E5C5B8",
"Z 	c #A1887D",
"` 	c #BDA095",
" .	c #C8A398",
"..	c #FFFBEF",
"+.	c #BCA69B",
"@.	c #E6CABE",
"#.	c #ECD7D0",
"$.	c #FCF2ED",
"%.	c #B6A196",
"&.	c #E1C0AD",
"*.	c #EFCDBA",
"=.	c #F5E4D7",
"-.	c #B3988E",
";.	c #CDAFA2",
">.	c #DDBCAB",
",.	c #E2C2B6",
"'.	c #A48A80",
").	c #BB9C93",
"!.	c #C19B92",
"~.	c #FFFAEE",
"{.	c #BDA79C",
"].	c #E7CBC0",
"^.	c #ECD5CF",
"/.	c #FDF1EC",
"(.	c #E0C1AF",
"_.	c #F1CEBA",
":.	c #F8DFCF",
"<.	c #D0B2A7",
"[.	c #DDBCAE",
"}.	c #DFC3B5",
"|.	c #A68B81",
"1.	c #BA9D92",
"2.	c #FFF9EB",
"3.	c #E6C9C1",
"4.	c #EAD3CD",
"5.	c #FEF4EC",
"6.	c #DEC1B3",
"7.	c #EECEBF",
"8.	c #F5DBCE",
"9.	c #CEB2A7",
"0.	c #D7B8AD",
"a.	c #DFC2B7",
"b.	c #C09D93",
"c.	c #FFF8E8",
"d.	c #E5CAC3",
"e.	c #E9D2CA",
"f.	c #FEF2E8",
"g.	c #DDC1B6",
"h.	c #E7C9BF",
"i.	c #FBDFD4",
"j.	c #CCB0A6",
"k.	c #D1B3AB",
"l.	c #DBC1B9",
"m.	c #B8998E",
"n.	c #C09C90",
"o.	c #FFF7E7",
"p.	c #E3C8C1",
"q.	c #E3CCC4",
"r.	c #FFF6EA",
"s.	c #DCC1BA",
"t.	c #E3C6C0",
"u.	c #F8E0D6",
"v.	c #B1988D",
"w.	c #CAAEA3",
"x.	c #CEB3AA",
"y.	c #D8BDB6",
"z.	c #B4988D",
"A.	c #BA958C",
"B.	c #E0C7C0",
"C.	c #E1CAC2",
"D.	c #FFF1E7",
"E.	c #DBC0B7",
"F.	c #E1C6BD",
"G.	c #F8DFD5",
"H.	c #C7ACA1",
"I.	c #CDB0A5",
"J.	c #D6BCB2",
"K.	c #BF9D93",
"L.	c #FFF5E6",
"M.	c #DFC7BD",
"N.	c #DFC8C0",
"O.	c #FFF4EA",
"P.	c #DABEB3",
"Q.	c #F6DED2",
"R.	c #C5A99E",
"S.	c #CCADA3",
"T.	c #D4B8AF",
"U.	c #AE9388",
"V.	c #C1A094",
"W.	c #E4CDC5",
"X.	c #FFEFE5",
"Y.	c #DABEB2",
"Z.	c #E5C9BD",
"`.	c #F3DACE",
" +	c #C1A69B",
".+	c #CBADA3",
"++	c #D1B4AC",
"@+	c #BDA090",
"#+	c #FFF3E5",
"$+	c #BEA398",
"%+	c #CEB1A8",
"&+	c #AB8F82",
"*+	c #BA9A8E",
"=+	c #DFC4BB",
"-+	c #ECD5CD",
";+	c #D8BDB2",
">+	c #DEC2B7",
",+	c #BBA095",
"'+	c #C7ABA0",
")+	c #CBAFA5",
"!+	c #A88A7F",
"        . . . . + + + + @ @ @ @ # # # # $ $ $ $ % % % % & & & & * * * * = = = = - - - - ; ; ; ; > > > > , , , , ' ' ' ' ) ) ) ) ",
"        . . . . + + + + @ @ @ @ # # # # $ $ $ $ % % % % & & & & * * * * = = = = - - - - ; ; ; ; > > > > , , , , ' ' ' ' ) ) ) ) ",
"        . . . . + + + + @ @ @ @ # # # # $ $ $ $ % % % % & & & & * * * * = = = = - - - - ; ; ; ; > > > > , , , , ' ' ' ' ) ) ) ) ",
"        . . . . + + + + @ @ @ @ # # # # $ $ $ $ % % % % & & & & * * * * = = = = - - - - ; ; ; ; > > > > , , , , ' ' ' ' ) ) ) ) ",
"! ! ! ! . . . . ~ ~ ~ ~ { { { { ] ] ] ] ^ ^ ^ ^ / / / / ( ( ( ( _ _ _ _ : : : : < < < < [ [ [ [ } } } } | | | | 1 1 1 1 2 2 2 2 ",
"! ! ! ! . . . . ~ ~ ~ ~ { { { { ] ] ] ] ^ ^ ^ ^ / / / / ( ( ( ( _ _ _ _ : : : : < < < < [ [ [ [ } } } } | | | | 1 1 1 1 2 2 2 2 ",
"! ! ! ! . . . . ~ ~ ~ ~ { { { { ] ] ] ] ^ ^ ^ ^ / / / / ( ( ( ( _ _ _ _ : : : : < < < < [ [ [ [ } } } } | | | | 1 1 1 1 2 2 2 2 ",
"! ! ! ! . . . . ~ ~ ~ ~ { { { { ] ] ] ] ^ ^ ^ ^ / / / / ( ( ( ( _ _ _ _ : : : : < < < < [ [ [ [ } } } } | | | | 1 1 1 1 2 2 2 2 ",
"3 3 3 3 4 4 4 4 5 5 5 5 6 6 6 6 7 7 7 7 8 8 8 8 9 9 9 9 0 0 0 0 a a a a b b b b c c c c d d d d e e e e f f f f g g g g h h h h ",
"3 3 3 3 4 4 4 4 5 5 5 5 6 6 6 6 7 7 7 7 8 8 8 8 9 9 9 9 0 0 0 0 a a a a b b b b c c c c d d d d e e e e f f f f g g g g h h h h ",
"3 3 3 3 4 4 4 4 5 5 5 5 6 6 6 6 7 7 7 7 8 8 8 8 9 9 9 9 0 0 0 0 a a a a b b b b c c c c d d d d e e e e f f f f g g g g h h h h ",
"3 3 3 3 4 4 4 4 5 5 5 5 6 6 6 6 7 7 7 7 8 8 8 8 9 9 9 9 0 0 0 0 a a a a b b b b c c c c d d d d e e e e f f f f g g g g h h h h ",
"i i i i j j j j k k k k l l l l m m m m n n n n o o o o p p p p q q q q r r r r s s s s t t t t u u u u v v v v w w w w x x x x ",
"i i i i j j j j k k k k l l l l m m m m n n n n o o o o p p p p q q q q r r r r s s s s t t t t u u u u v v v v w w w w x x x x ",
"i i i i j j j j k k k k l l l l m m m m n n n n o o o o p p p p q q q q r r r r s s s s t t t t u u u u v v v v w w w w x x x x ",
"i i i i j j j j k k k k l l l l m m m m n n n n o o o o p p p p q q q q r r r r s s s s t t t t u u u u v v v v w w w w x x x x ",
"y y y y j j j j z z z z A A A A B B B B C C C C D D D D E E E E F F F F G G G G H H H H I I I I J J J J K K K K L L L L x x x x ",
"y y y y j j j j z z z z A A A A B B B B C C C C D D D D E E E E F F F F G G G G H H H H I I I I J J J J K K K K L L L L x x x x ",
"y y y y j j j j z z z z A A A A B B B B C C C C D D D D E E E E F F F F G G G G H H H H I I I I J J J J K K K K L L L L x x x x ",
"y y y y j j j j z z z z A A A A B B B B C C C C D D D D E E E E F F F F G G G G H H H H I I I I J J J J K K K K L L L L x x x x ",
"M M M M N N N N O O O O P P P P Q Q Q Q R R R R S S S S T T T T U U U U V V V V W W W W X X X X Y Y Y Y Z Z Z Z ` ` ` `  . . . .",
"M M M M N N N N O O O O P P P P Q Q Q Q R R R R S S S S T T T T U U U U V V V V W W W W X X X X Y Y Y Y Z Z Z Z ` ` ` `  . . . .",
"M M M M N N N N O O O O P P P P Q Q Q Q R R R R S S S S T T T T U U U U V V V V W W W W X X X X Y Y Y Y Z Z Z Z ` ` ` `  . . . .",
"M M M M N N N N O O O O P P P P Q Q Q Q R R R R S S S S T T T T U U U U V V V V W W W W X X X X Y Y Y Y Z Z Z Z ` ` ` `  . . . .",
"........+.+.+.+.@.@.@.@.#.#.#.#.$.$.$.$.%.%.%.%.&.&.&.&.*.*.*.*.=.=.=.=.-.-.-.-.;.;.;.;.>.>.>.>.,.,.,.,.'.'.'.'.).).).).!.!.!.!.",
"........+.+.+.+.@.@.@.@.#.#.#.#.$.$.$.$.%.%.%.%.&.&.&.&.*.*.*.*.=.=.=.=.-.-.-.-.;.;.;.;.>.>.>.>.,.,.,.,.'.'.'.'.).).).).!.!.!.!.",
"........+.+.+.+.@.@.@.@.#.#.#.#.$.$.$.$.%.%.%.%.&.&.&.&.*.*.*.*.=.=.=.=.-.-.-.-.;.;.;.;.>.>.>.>.,.,.,.,.'.'.'.'.).).).).!.!.!.!.",
"........+.+.+.+.@.@.@.@.#.#.#.#.$.$.$.$.%.%.%.%.&.&.&.&.*.*.*.*.=.=.=.=.-.-.-.-.;.;.;.;.>.>.>.>.,.,.,.,.'.'.'.'.).).).).!.!.!.!.",
"~.~.~.~.{.{.{.{.].].].].^.^.^.^././././.%.%.%.%.(.(.(.(._._._._.:.:.:.:.V V V V <.<.<.<.[.[.[.[.}.}.}.}.|.|.|.|.1.1.1.1.w w w w ",
"~.~.~.~.{.{.{.{.].].].].^.^.^.^././././.%.%.%.%.(.(.(.(._._._._.:.:.:.:.V V V V <.<.<.<.[.[.[.[.}.}.}.}.|.|.|.|.1.1.1.1.w w w w ",
"~.~.~.~.{.{.{.{.].].].].^.^.^.^././././.%.%.%.%.(.(.(.(._._._._.:.:.:.:.V V V V <.<.<.<.[.[.[.[.}.}.}.}.|.|.|.|.1.1.1.1.w w w w ",
"~.~.~.~.{.{.{.{.].].].].^.^.^.^././././.%.%.%.%.(.(.(.(._._._._.:.:.:.:.V V V V <.<.<.<.[.[.[.[.}.}.}.}.|.|.|.|.1.1.1.1.w w w w ",
"2.2.2.2.{.{.{.{.3.3.3.3.4.4.4.4.5.5.5.5.%.%.%.%.6.6.6.6.7.7.7.7.8.8.8.8.V V V V 9.9.9.9.0.0.0.0.a.a.a.a.|.|.|.|.g g g g b.b.b.b.",
"2.2.2.2.{.{.{.{.3.3.3.3.4.4.4.4.5.5.5.5.%.%.%.%.6.6.6.6.7.7.7.7.8.8.8.8.V V V V 9.9.9.9.0.0.0.0.a.a.a.a.|.|.|.|.g g g g b.b.b.b.",
"2.2.2.2.{.{.{.{.3.3.3.3.4.4.4.4.5.5.5.5.%.%.%.%.6.6.6.6.7.7.7.7.8.8.8.8.V V V V 9.9.9.9.0.0.0.0.a.a.a.a.|.|.|.|.g g g g b.b.b.b.",
"2.2.2.2.{.{.{.{.3.3.3.3.4.4.4.4.5.5.5.5.%.%.%.%.6.6.6.6.7.7.7.7.8.8.8.8.V V V V 9.9.9.9.0.0.0.0.a.a.a.a.|.|.|.|.g g g g b.b.b.b.",
"c.c.c.c.+.+.+.+.d.d.d.d.e.e.e.e.f.f.f.f.%.%.%.%.g.g.g.g.h.h.h.h.i.i.i.i.V V V V j.j.j.j.k.k.k.k.l.l.l.l.'.'.'.'.m.m.m.m.n.n.n.n.",
"c.c.c.c.+.+.+.+.d.d.d.d.e.e.e.e.f.f.f.f.%.%.%.%.g.g.g.g.h.h.h.h.i.i.i.i.V V V V j.j.j.j.k.k.k.k.l.l.l.l.'.'.'.'.m.m.m.m.n.n.n.n.",
"c.c.c.c.+.+.+.+.d.d.d.d.e.e.e.e.f.f.f.f.%.%.%.%.g.g.g.g.h.h.h.h.i.i.i.i.V V V V j.j.j.j.k.k.k.k.l.l.l.l.'.'.'.'.m.m.m.m.n.n.n.n.",
"c.c.c.c.+.+.+.+.d.d.d.d.e.e.e.e.f.f.f.f.%.%.%.%.g.g.g.g.h.h.h.h.i.i.i.i.V V V V j.j.j.j.k.k.k.k.l.l.l.l.'.'.'.'.m.m.m.m.n.n.n.n.",
"o.o.o.o.N N N N p.p.p.p.q.q.q.q.r.r.r.r.R R R R s.s.s.s.t.t.t.t.u.u.u.u.v.v.v.v.w.w.w.w.x.x.x.x.y.y.y.y.Z Z Z Z z.z.z.z.A.A.A.A.",
"o.o.o.o.N N N N p.p.p.p.q.q.q.q.r.r.r.r.R R R R s.s.s.s.t.t.t.t.u.u.u.u.v.v.v.v.w.w.w.w.x.x.x.x.y.y.y.y.Z Z Z Z z.z.z.z.A.A.A.A.",
"o.o.o.o.N N N N p.p.p.p.q.q.q.q.r.r.r.r.R R R R s.s.s.s.t.t.t.t.u.u.u.u.v.v.v.v.w.w.w.w.x.x.x.x.y.y.y.y.Z Z Z Z z.z.z.z.A.A.A.A.",
"o.o.o.o.N N N N p.p.p.p.q.q.q.q.r.r.r.r.R R R R s.s.s.s.t.t.t.t.u.u.u.u.v.v.v.v.w.w.w.w.x.x.x.x.y.y.y.y.Z Z Z Z z.z.z.z.A.A.A.A.",
"o.o.o.o.j j j j B.B.B.B.C.C.C.C.D.D.D.D.C C C C E.E.E.E.F.F.F.F.G.G.G.G.G G G G H.H.H.H.I.I.I.I.J.J.J.J.K K K K 1 1 1 1 K.K.K.K.",
"o.o.o.o.j j j j B.B.B.B.C.C.C.C.D.D.D.D.C C C C E.E.E.E.F.F.F.F.G.G.G.G.G G G G H.H.H.H.I.I.I.I.J.J.J.J.K K K K 1 1 1 1 K.K.K.K.",
"o.o.o.o.j j j j B.B.B.B.C.C.C.C.D.D.D.D.C C C C E.E.E.E.F.F.F.F.G.G.G.G.G G G G H.H.H.H.I.I.I.I.J.J.J.J.K K K K 1 1 1 1 K.K.K.K.",
"o.o.o.o.j j j j B.B.B.B.C.C.C.C.D.D.D.D.C C C C E.E.E.E.F.F.F.F.G.G.G.G.G G G G H.H.H.H.I.I.I.I.J.J.J.J.K K K K 1 1 1 1 K.K.K.K.",
"L.L.L.L.j j j j M.M.M.M.N.N.N.N.O.O.O.O.n n n n P.P.P.P.@.@.@.@.Q.Q.Q.Q.r r r r R.R.R.R.S.S.S.S.T.T.T.T.v v v v U.U.U.U.V.V.V.V.",
"L.L.L.L.j j j j M.M.M.M.N.N.N.N.O.O.O.O.n n n n P.P.P.P.@.@.@.@.Q.Q.Q.Q.r r r r R.R.R.R.S.S.S.S.T.T.T.T.v v v v U.U.U.U.V.V.V.V.",
"L.L.L.L.j j j j M.M.M.M.N.N.N.N.O.O.O.O.n n n n P.P.P.P.@.@.@.@.Q.Q.Q.Q.r r r r R.R.R.R.S.S.S.S.T.T.T.T.v v v v U.U.U.U.V.V.V.V.",
"L.L.L.L.j j j j M.M.M.M.N.N.N.N.O.O.O.O.n n n n P.P.P.P.@.@.@.@.Q.Q.Q.Q.r r r r R.R.R.R.S.S.S.S.T.T.T.T.v v v v U.U.U.U.V.V.V.V.",
"L.L.L.L.4 4 4 4 F.F.F.F.W.W.W.W.X.X.X.X.8 8 8 8 Y.Y.Y.Y.Z.Z.Z.Z.`.`.`.`.b b b b  + + + +.+.+.+.+++++++++f f f f ' ' ' ' @+@+@+@+",
"L.L.L.L.4 4 4 4 F.F.F.F.W.W.W.W.X.X.X.X.8 8 8 8 Y.Y.Y.Y.Z.Z.Z.Z.`.`.`.`.b b b b  + + + +.+.+.+.+++++++++f f f f ' ' ' ' @+@+@+@+",
"L.L.L.L.4 4 4 4 F.F.F.F.W.W.W.W.X.X.X.X.8 8 8 8 Y.Y.Y.Y.Z.Z.Z.Z.`.`.`.`.b b b b  + + + +.+.+.+.+++++++++f f f f ' ' ' ' @+@+@+@+",
"L.L.L.L.4 4 4 4 F.F.F.F.W.W.W.W.X.X.X.X.8 8 8 8 Y.Y.Y.Y.Z.Z.Z.Z.`.`.`.`.b b b b  + + + +.+.+.+.+++++++++f f f f ' ' ' ' @+@+@+@+",
"#+#+#+#+. . . . F.F.F.F.P P P P 7 7 7 7 ^ ^ ^ ^ Y.Y.Y.Y.@.@.@.@._ _ _ _ : : : : $+$+$+$+w.w.w.w.%+%+%+%+| | | | &+&+&+&+*+*+*+*+",
"#+#+#+#+. . . . F.F.F.F.P P P P 7 7 7 7 ^ ^ ^ ^ Y.Y.Y.Y.@.@.@.@._ _ _ _ : : : : $+$+$+$+w.w.w.w.%+%+%+%+| | | | &+&+&+&+*+*+*+*+",
"#+#+#+#+. . . . F.F.F.F.P P P P 7 7 7 7 ^ ^ ^ ^ Y.Y.Y.Y.@.@.@.@._ _ _ _ : : : : $+$+$+$+w.w.w.w.%+%+%+%+| | | | &+&+&+&+*+*+*+*+",
"#+#+#+#+. . . . F.F.F.F.P P P P 7 7 7 7 ^ ^ ^ ^ Y.Y.Y.Y.@.@.@.@._ _ _ _ : : : : $+$+$+$+w.w.w.w.%+%+%+%+| | | | &+&+&+&+*+*+*+*+",
"#+#+#+#+. . . . =+=+=+=+-+-+-+-+# # # # $ $ $ $ ;+;+;+;+>+>+>+>+* * * * = = = = ,+,+,+,+'+'+'+'+)+)+)+)+, , , , !+!+!+!+) ) ) ) ",
"#+#+#+#+. . . . =+=+=+=+-+-+-+-+# # # # $ $ $ $ ;+;+;+;+>+>+>+>+* * * * = = = = ,+,+,+,+'+'+'+'+)+)+)+)+, , , , !+!+!+!+) ) ) ) ",
"#+#+#+#+. . . . =+=+=+=+-+-+-+-+# # # # $ $ $ $ ;+;+;+;+>+>+>+>+* * * * = = = = ,+,+,+,+'+'+'+'+)+)+)+)+, , , , !+!+!+!+) ) ) ) ",
"#+#+#+#+. . . . =+=+=+=+-+-+-+-+# # # # $ $ $ $ ;+;+;+;+>+>+>+>+* * * * = = = = ,+,+,+,+'+'+'+'+)+)+)+)+, , , , !+!+!+!+) ) ) ) "};
