/* XPM */
static char * C:\Users\qatar\Desktop\sandry_stone_xpm[] = {
"64 64 163 2",
"  	c #ACACAC",
". 	c #A7A7A7",
"+ 	c #B3B3B3",
"@ 	c #B6B6B6",
"# 	c #B8B8B8",
"$ 	c #B2B2B2",
"% 	c #313131",
"& 	c #AEAEAE",
"* 	c #B9B9B9",
"= 	c #B0B0B0",
"- 	c #AAAAAA",
"; 	c #4C4C4C",
"> 	c #A5A5A5",
", 	c #292929",
"' 	c #838383",
") 	c #262626",
"! 	c #6D6D6D",
"~ 	c #919191",
"{ 	c #6C6C6C",
"] 	c #353535",
"^ 	c #939393",
"/ 	c #A8A8A8",
"( 	c #7D7D7D",
"_ 	c #9C9C9C",
": 	c #949494",
"< 	c #585858",
"[ 	c #3F3F3F",
"} 	c #20170C",
"| 	c #2D2413",
"1 	c #717171",
"2 	c #767676",
"3 	c #383838",
"4 	c #A6A6A6",
"5 	c #676767",
"6 	c #979797",
"7 	c #9B9B9B",
"8 	c #8C8C8C",
"9 	c #757575",
"0 	c #626262",
"a 	c #1A1309",
"b 	c #515151",
"c 	c #342D19",
"d 	c #858585",
"e 	c #848484",
"f 	c #4D4D4D",
"g 	c #929292",
"h 	c #606060",
"i 	c #8D8D8D",
"j 	c #616161",
"k 	c #505050",
"l 	c #707070",
"m 	c #828282",
"n 	c #3B3B3B",
"o 	c #787878",
"p 	c #B4B4B4",
"q 	c #484848",
"r 	c #3D3821",
"s 	c #212121",
"t 	c #9F9F9F",
"u 	c #909090",
"v 	c #5E5E5E",
"w 	c #4A4A4A",
"x 	c #636363",
"y 	c #8A8A8A",
"z 	c #404040",
"A 	c #303030",
"B 	c #A2A2A2",
"C 	c #8B8B8B",
"D 	c #1B1B1B",
"E 	c #191919",
"F 	c #232323",
"G 	c #222222",
"H 	c #1E1E1A",
"I 	c #4B4E49",
"J 	c #2F2F26",
"K 	c #454543",
"L 	c #595959",
"M 	c #AAAAAC",
"N 	c #A398A6",
"O 	c #A191A8",
"P 	c #8F8299",
"Q 	c #A18FAF",
"R 	c #A695B1",
"S 	c #ADA4AF",
"T 	c #4B4B4B",
"U 	c #696969",
"V 	c #7E7E7E",
"W 	c #151515",
"X 	c #A094A3",
"Y 	c #545C4B",
"Z 	c #76737B",
"` 	c #807879",
" .	c #847D8D",
"..	c #63675F",
"+.	c #525551",
"@.	c #565656",
"#.	c #727272",
"$.	c #4F504E",
"%.	c #A796B1",
"&.	c #737178",
"*.	c #C3AC98",
"=.	c #C3A89E",
"-.	c #C3A9A0",
";.	c #CAC194",
">.	c #6B686A",
",.	c #757178",
"'.	c #808080",
").	c #7C7C7C",
"!.	c #434343",
"~.	c #2D2C1F",
"{.	c #A491B2",
"].	c #6A6868",
"^.	c #B97737",
"/.	c #DD812E",
"(.	c #D97B27",
"_.	c #C9C193",
":.	c #AA9380",
"<.	c #555C4A",
"[.	c #6A6A6A",
"}.	c #868686",
"|.	c #7F7F7F",
"1.	c #7B7B7B",
"2.	c #2A2A1B",
"3.	c #A18EAE",
"4.	c #8A8081",
"5.	c #C68A4E",
"6.	c #C5AAA1",
"7.	c #E1802A",
"8.	c #B1967A",
"9.	c #575D4E",
"0.	c #666666",
"a.	c #7A7A7A",
"b.	c #3E403A",
"c.	c #A795B1",
"d.	c #8C8396",
"e.	c #A78A6C",
"f.	c #C4A3A4",
"g.	c #C7B09D",
"h.	c #C2A2A3",
"i.	c #9C8E8C",
"j.	c #77727B",
"k.	c #898989",
"l.	c #535353",
"m.	c #343434",
"n.	c #A396A7",
"o.	c #7F7886",
"p.	c #706D70",
"q.	c #887A70",
"r.	c #A28B76",
"s.	c #857B79",
"t.	c #807A89",
"u.	c #5C605A",
"v.	c #494949",
"w.	c #444444",
"x.	c #080808",
"y.	c #2B2B2B",
"z.	c #31312E",
"A.	c #3D3F2B",
"B.	c #3C3F21",
"C.	c #4B5338",
"D.	c #4A5136",
"E.	c #444828",
"F.	c #505446",
"        . . . .         + + + + @ @ @ @ # # # # $ $ $ $ % % % %         & & & & * * * * @ @ @ @ = = = =         - - - - ; ; ; ; ",
"        . . . .         + + + + @ @ @ @ # # # # $ $ $ $ % % % %         & & & & * * * * @ @ @ @ = = = =         - - - - ; ; ; ; ",
"        . . . .         + + + + @ @ @ @ # # # # $ $ $ $ % % % %         & & & & * * * * @ @ @ @ = = = =         - - - - ; ; ; ; ",
"        . . . .         + + + + @ @ @ @ # # # # $ $ $ $ % % % %         & & & & * * * * @ @ @ @ = = = =         - - - - ; ; ; ; ",
"> > > > , , , , ' ' ' ' ) ) ) ) ! ! ! ! ~ ~ ~ ~ { { { { ] ] ] ] > > > > ^ ^ ^ ^ / / / / ( ( ( ( _ _ _ _ : : : : ' ' ' ' < < < < ",
"> > > > , , , , ' ' ' ' ) ) ) ) ! ! ! ! ~ ~ ~ ~ { { { { ] ] ] ] > > > > ^ ^ ^ ^ / / / / ( ( ( ( _ _ _ _ : : : : ' ' ' ' < < < < ",
"> > > > , , , , ' ' ' ' ) ) ) ) ! ! ! ! ~ ~ ~ ~ { { { { ] ] ] ] > > > > ^ ^ ^ ^ / / / / ( ( ( ( _ _ _ _ : : : : ' ' ' ' < < < < ",
"> > > > , , , , ' ' ' ' ) ) ) ) ! ! ! ! ~ ~ ~ ~ { { { { ] ] ] ] > > > > ^ ^ ^ ^ / / / / ( ( ( ( _ _ _ _ : : : : ' ' ' ' < < < < ",
"+ + + + [ [ [ [ } } } } } } } } | | | | 1 1 1 1 2 2 2 2 3 3 3 3 + + + + 4 4 4 4 : : : : 5 5 5 5 6 6 6 6 7 7 7 7 8 8 8 8 9 9 9 9 ",
"+ + + + [ [ [ [ } } } } } } } } | | | | 1 1 1 1 2 2 2 2 3 3 3 3 + + + + 4 4 4 4 : : : : 5 5 5 5 6 6 6 6 7 7 7 7 8 8 8 8 9 9 9 9 ",
"+ + + + [ [ [ [ } } } } } } } } | | | | 1 1 1 1 2 2 2 2 3 3 3 3 + + + + 4 4 4 4 : : : : 5 5 5 5 6 6 6 6 7 7 7 7 8 8 8 8 9 9 9 9 ",
"+ + + + [ [ [ [ } } } } } } } } | | | | 1 1 1 1 2 2 2 2 3 3 3 3 + + + + 4 4 4 4 : : : : 5 5 5 5 6 6 6 6 7 7 7 7 8 8 8 8 9 9 9 9 ",
"@ @ @ @ 0 0 0 0 a a a a b b b b c c c c d d d d e e e e f f f f @ @ @ @ g g g g h h h h ( ( ( ( i i i i ^ ^ ^ ^ h h h h j j j j ",
"@ @ @ @ 0 0 0 0 a a a a b b b b c c c c d d d d e e e e f f f f @ @ @ @ g g g g h h h h ( ( ( ( i i i i ^ ^ ^ ^ h h h h j j j j ",
"@ @ @ @ 0 0 0 0 a a a a b b b b c c c c d d d d e e e e f f f f @ @ @ @ g g g g h h h h ( ( ( ( i i i i ^ ^ ^ ^ h h h h j j j j ",
"@ @ @ @ 0 0 0 0 a a a a b b b b c c c c d d d d e e e e f f f f @ @ @ @ g g g g h h h h ( ( ( ( i i i i ^ ^ ^ ^ h h h h j j j j ",
"+ + + + < < < < } } } } k k k k 2 2 2 2 l l l l m m m m n n n n + + + + o o o o o o o o ' ' ' ' 1 1 1 1 m m m m _ _ _ _ < < < < ",
"+ + + + < < < < } } } } k k k k 2 2 2 2 l l l l m m m m n n n n + + + + o o o o o o o o ' ' ' ' 1 1 1 1 m m m m _ _ _ _ < < < < ",
"+ + + + < < < < } } } } k k k k 2 2 2 2 l l l l m m m m n n n n + + + + o o o o o o o o ' ' ' ' 1 1 1 1 m m m m _ _ _ _ < < < < ",
"+ + + + < < < < } } } } k k k k 2 2 2 2 l l l l m m m m n n n n + + + + o o o o o o o o ' ' ' ' 1 1 1 1 m m m m _ _ _ _ < < < < ",
"p p p p q q q q } } } } } } } } | | | | r r r r 1 1 1 1 s s s s p p p p t t t t u u u u m m m m g g g g d d d d o o o o v v v v ",
"p p p p q q q q } } } } } } } } | | | | r r r r 1 1 1 1 s s s s p p p p t t t t u u u u m m m m g g g g d d d d o o o o v v v v ",
"p p p p q q q q } } } } } } } } | | | | r r r r 1 1 1 1 s s s s p p p p t t t t u u u u m m m m g g g g d d d d o o o o v v v v ",
"p p p p q q q q } } } } } } } } | | | | r r r r 1 1 1 1 s s s s p p p p t t t t u u u u m m m m g g g g d d d d o o o o v v v v ",
"/ / / / w w w w ! ! ! ! x x x x y y y y z z z z b b b b A A A A / / / / 1 1 1 1 7 7 7 7 B B B B d d d d C C C C : : : : ] ] ] ] ",
"/ / / / w w w w ! ! ! ! x x x x y y y y z z z z b b b b A A A A / / / / 1 1 1 1 7 7 7 7 B B B B d d d d C C C C : : : : ] ] ] ] ",
"/ / / / w w w w ! ! ! ! x x x x y y y y z z z z b b b b A A A A / / / / 1 1 1 1 7 7 7 7 B B B B d d d d C C C C : : : : ] ] ] ] ",
"/ / / / w w w w ! ! ! ! x x x x y y y y z z z z b b b b A A A A / / / / 1 1 1 1 7 7 7 7 B B B B d d d d C C C C : : : : ] ] ] ] ",
"D D D D ) ) ) ) E E E E D D D D F F F F ) ) ) ) G G G G D D D D D D D D ) ) ) ) H H H H I I I I J J J J K K K K L L L L D D D D ",
"D D D D ) ) ) ) E E E E D D D D F F F F ) ) ) ) G G G G D D D D D D D D ) ) ) ) H H H H I I I I J J J J K K K K L L L L D D D D ",
"D D D D ) ) ) ) E E E E D D D D F F F F ) ) ) ) G G G G D D D D D D D D ) ) ) ) H H H H I I I I J J J J K K K K L L L L D D D D ",
"D D D D ) ) ) ) E E E E D D D D F F F F ) ) ) ) G G G G D D D D D D D D ) ) ) ) H H H H I I I I J J J J K K K K L L L L D D D D ",
"        i i i i C C C C ^ ^ ^ ^         / / / / - - - - [ [ [ [ M M M M N N N N O O O O P P P P Q Q Q Q R R R R S S S S 8 8 8 8 ",
"        i i i i C C C C ^ ^ ^ ^         / / / / - - - - [ [ [ [ M M M M N N N N O O O O P P P P Q Q Q Q R R R R S S S S 8 8 8 8 ",
"        i i i i C C C C ^ ^ ^ ^         / / / / - - - - [ [ [ [ M M M M N N N N O O O O P P P P Q Q Q Q R R R R S S S S 8 8 8 8 ",
"        i i i i C C C C ^ ^ ^ ^         / / / / - - - - [ [ [ [ M M M M N N N N O O O O P P P P Q Q Q Q R R R R S S S S 8 8 8 8 ",
"> > > > z z z z T T T T k k k k 5 5 5 5 U U U U V V V V W W W W X X X X Y Y Y Y Z Z Z Z 0 0 0 0 ` ` ` `  . . . .........+.+.+.+.",
"> > > > z z z z T T T T k k k k 5 5 5 5 U U U U V V V V W W W W X X X X Y Y Y Y Z Z Z Z 0 0 0 0 ` ` ` `  . . . .........+.+.+.+.",
"> > > > z z z z T T T T k k k k 5 5 5 5 U U U U V V V V W W W W X X X X Y Y Y Y Z Z Z Z 0 0 0 0 ` ` ` `  . . . .........+.+.+.+.",
"> > > > z z z z T T T T k k k k 5 5 5 5 U U U U V V V V W W W W X X X X Y Y Y Y Z Z Z Z 0 0 0 0 ` ` ` `  . . . .........+.+.+.+.",
"+ + + + ( ( ( ( b b b b x x x x @.@.@.@.o o o o #.#.#.#.$.$.$.$.%.%.%.%.&.&.&.&.*.*.*.*.=.=.=.=.-.-.-.-.;.;.;.;.>.>.>.>.,.,.,.,.",
"+ + + + ( ( ( ( b b b b x x x x @.@.@.@.o o o o #.#.#.#.$.$.$.$.%.%.%.%.&.&.&.&.*.*.*.*.=.=.=.=.-.-.-.-.;.;.;.;.>.>.>.>.,.,.,.,.",
"+ + + + ( ( ( ( b b b b x x x x @.@.@.@.o o o o #.#.#.#.$.$.$.$.%.%.%.%.&.&.&.&.*.*.*.*.=.=.=.=.-.-.-.-.;.;.;.;.>.>.>.>.,.,.,.,.",
"+ + + + ( ( ( ( b b b b x x x x @.@.@.@.o o o o #.#.#.#.$.$.$.$.%.%.%.%.&.&.&.&.*.*.*.*.=.=.=.=.-.-.-.-.;.;.;.;.>.>.>.>.,.,.,.,.",
"@ @ @ @ { { { { '.'.'.'.'.'.'.'.@.@.@.@.).).).).!.!.!.!.~.~.~.~.{.{.{.{.].].].].^.^.^.^././././.(.(.(.(._._._._.:.:.:.:.<.<.<.<.",
"@ @ @ @ { { { { '.'.'.'.'.'.'.'.@.@.@.@.).).).).!.!.!.!.~.~.~.~.{.{.{.{.].].].].^.^.^.^././././.(.(.(.(._._._._.:.:.:.:.<.<.<.<.",
"@ @ @ @ { { { { '.'.'.'.'.'.'.'.@.@.@.@.).).).).!.!.!.!.~.~.~.~.{.{.{.{.].].].].^.^.^.^././././.(.(.(.(._._._._.:.:.:.:.<.<.<.<.",
"@ @ @ @ { { { { '.'.'.'.'.'.'.'.@.@.@.@.).).).).!.!.!.!.~.~.~.~.{.{.{.{.].].].].^.^.^.^././././.(.(.(.(._._._._.:.:.:.:.<.<.<.<.",
"+ + + + [.[.[.[.}.}.}.}.! ! ! ! 0 0 0 0 |.|.|.|.1.1.1.1.2.2.2.2.3.3.3.3.4.4.4.4.5.5.5.5.6.6.6.6.7.7.7.7.-.-.-.-.8.8.8.8.9.9.9.9.",
"+ + + + [.[.[.[.}.}.}.}.! ! ! ! 0 0 0 0 |.|.|.|.1.1.1.1.2.2.2.2.3.3.3.3.4.4.4.4.5.5.5.5.6.6.6.6.7.7.7.7.-.-.-.-.8.8.8.8.9.9.9.9.",
"+ + + + [.[.[.[.}.}.}.}.! ! ! ! 0 0 0 0 |.|.|.|.1.1.1.1.2.2.2.2.3.3.3.3.4.4.4.4.5.5.5.5.6.6.6.6.7.7.7.7.-.-.-.-.8.8.8.8.9.9.9.9.",
"+ + + + [.[.[.[.}.}.}.}.! ! ! ! 0 0 0 0 |.|.|.|.1.1.1.1.2.2.2.2.3.3.3.3.4.4.4.4.5.5.5.5.6.6.6.6.7.7.7.7.-.-.-.-.8.8.8.8.9.9.9.9.",
"p p p p d d d d o o o o m m m m V V V V 0.0.0.0.a.a.a.a.b.b.b.b.c.c.c.c.d.d.d.d.e.e.e.e.f.f.f.f.g.g.g.g.h.h.h.h.i.i.i.i.j.j.j.j.",
"p p p p d d d d o o o o m m m m V V V V 0.0.0.0.a.a.a.a.b.b.b.b.c.c.c.c.d.d.d.d.e.e.e.e.f.f.f.f.g.g.g.g.h.h.h.h.i.i.i.i.j.j.j.j.",
"p p p p d d d d o o o o m m m m V V V V 0.0.0.0.a.a.a.a.b.b.b.b.c.c.c.c.d.d.d.d.e.e.e.e.f.f.f.f.g.g.g.g.h.h.h.h.i.i.i.i.j.j.j.j.",
"p p p p d d d d o o o o m m m m V V V V 0.0.0.0.a.a.a.a.b.b.b.b.c.c.c.c.d.d.d.d.e.e.e.e.f.f.f.f.g.g.g.g.h.h.h.h.i.i.i.i.j.j.j.j.",
"/ / / / V V V V ' ' ' ' 8 8 8 8 k.k.k.k.l.l.l.l.).).).).m.m.m.m.n.n.n.n.o.o.o.o.p.p.p.p.q.q.q.q.r.r.r.r.s.s.s.s.t.t.t.t.u.u.u.u.",
"/ / / / V V V V ' ' ' ' 8 8 8 8 k.k.k.k.l.l.l.l.).).).).m.m.m.m.n.n.n.n.o.o.o.o.p.p.p.p.q.q.q.q.r.r.r.r.s.s.s.s.t.t.t.t.u.u.u.u.",
"/ / / / V V V V ' ' ' ' 8 8 8 8 k.k.k.k.l.l.l.l.).).).).m.m.m.m.n.n.n.n.o.o.o.o.p.p.p.p.q.q.q.q.r.r.r.r.s.s.s.s.t.t.t.t.u.u.u.u.",
"/ / / / V V V V ' ' ' ' 8 8 8 8 k.k.k.k.l.l.l.l.).).).).m.m.m.m.n.n.n.n.o.o.o.o.p.p.p.p.q.q.q.q.r.r.r.r.s.s.s.s.t.t.t.t.u.u.u.u.",
"D D D D v.v.v.v.w.w.w.w.) ) ) ) x.x.x.x.y.y.y.y.] ] ] ] D D D D z.z.z.z.A.A.A.A.B.B.B.B.C.C.C.C.D.D.D.D.E.E.E.E.F.F.F.F.D D D D ",
"D D D D v.v.v.v.w.w.w.w.) ) ) ) x.x.x.x.y.y.y.y.] ] ] ] D D D D z.z.z.z.A.A.A.A.B.B.B.B.C.C.C.C.D.D.D.D.E.E.E.E.F.F.F.F.D D D D ",
"D D D D v.v.v.v.w.w.w.w.) ) ) ) x.x.x.x.y.y.y.y.] ] ] ] D D D D z.z.z.z.A.A.A.A.B.B.B.B.C.C.C.C.D.D.D.D.E.E.E.E.F.F.F.F.D D D D ",
"D D D D v.v.v.v.w.w.w.w.) ) ) ) x.x.x.x.y.y.y.y.] ] ] ] D D D D z.z.z.z.A.A.A.A.B.B.B.B.C.C.C.C.D.D.D.D.E.E.E.E.F.F.F.F.D D D D "};
