/* XPM */
static char * C:\Users\qatar\Desktop\aether_dirt_xpm[] = {
"64 64 18 1",
" 	c #809CAA",
".	c #6B828E",
"+	c #596C74",
"@	c #445359",
"#	c #586A72",
"$	c #749099",
"%	c #76909C",
"&	c #5A6D76",
"*	c #76909D",
"=	c #647984",
"-	c #667C88",
";	c #687E89",
">	c #677D88",
",	c #55676F",
"'	c #667C87",
")	c #7B96A3",
"!	c #5D6C73",
"~	c #657B86",
"    ........++++++++    ........++++++++@@@@++++++++    ++++    ",
"    ........++++++++    ........++++++++@@@@++++++++    ++++    ",
"    ........++++++++    ........++++++++@@@@++++++++    ++++    ",
"    ........++++++++    ........++++++++@@@@++++++++    ++++    ",
"++++....@@@@####++++....$$$$@@@@++++%%%%....++++    ....@@@@@@@@",
"++++....@@@@####++++....$$$$@@@@++++%%%%....++++    ....@@@@@@@@",
"++++....@@@@####++++....$$$$@@@@++++%%%%....++++    ....@@@@@@@@",
"++++....@@@@####++++....$$$$@@@@++++%%%%....++++    ....@@@@@@@@",
"    ++++&&&&@@@@    ++++++++++++****++++++++++++@@@@@@@@    ++++",
"    ++++&&&&@@@@    ++++++++++++****++++++++++++@@@@@@@@    ++++",
"    ++++&&&&@@@@    ++++++++++++****++++++++++++@@@@@@@@    ++++",
"    ++++&&&&@@@@    ++++++++++++****++++++++++++@@@@@@@@    ++++",
"....$$$$    ++++====@@@@++++    ........++++....++++    ....++++",
"....$$$$    ++++====@@@@++++    ........++++....++++    ....++++",
"....$$$$    ++++====@@@@++++    ........++++....++++    ....++++",
"....$$$$    ++++====@@@@++++    ........++++....++++    ....++++",
"....++++....    @@@@----++++++++....@@@@++++$$$$++++....@@@@++++",
"....++++....    @@@@----++++++++....@@@@++++$$$$++++....@@@@++++",
"....++++....    @@@@----++++++++....@@@@++++$$$$++++....@@@@++++",
"....++++....    @@@@----++++++++....@@@@++++$$$$++++....@@@@++++",
"++++@@@@........++++....@@@@@@@@@@@@++++++++@@@@++++++++++++    ",
"++++@@@@........++++....@@@@@@@@@@@@++++++++@@@@++++++++++++    ",
"++++@@@@........++++....@@@@@@@@@@@@++++++++@@@@++++++++++++    ",
"++++@@@@........++++....@@@@@@@@@@@@++++++++@@@@++++++++++++    ",
"    ++++++++++++$$$$++++++++        ++++        ++++;;;;++++....",
"    ++++++++++++$$$$++++++++        ++++        ++++;;;;++++....",
"    ++++++++++++$$$$++++++++        ++++        ++++;;;;++++....",
"    ++++++++++++$$$$++++++++        ++++        ++++;;;;++++....",
"++++++++        ........++++++++....@@@@........++++++++>>>>....",
"++++++++        ........++++++++....@@@@........++++++++>>>>....",
"++++++++        ........++++++++....@@@@........++++++++>>>>....",
"++++++++        ........++++++++....@@@@........++++++++>>>>....",
">>>>++++++++....++++....++++@@@@++++........++++++++++++@@@@++++",
">>>>++++++++....++++....++++@@@@++++........++++++++++++@@@@++++",
">>>>++++++++....++++....++++@@@@++++........++++++++++++@@@@++++",
">>>>++++++++....++++....++++@@@@++++........++++++++++++@@@@++++",
"++++;;;;@@@@++++++++@@@@@@@@,,,,++++++++++++++++        ++++....",
"++++;;;;@@@@++++++++@@@@@@@@,,,,++++++++++++++++        ++++....",
"++++;;;;@@@@++++++++@@@@@@@@,,,,++++++++++++++++        ++++....",
"++++;;;;@@@@++++++++@@@@@@@@,,,,++++++++++++++++        ++++....",
"++++''''++++        ++++))))....@@@@        @@@@........$$$$++++",
"++++''''++++        ++++))))....@@@@        @@@@........$$$$++++",
"++++''''++++        ++++))))....@@@@        @@@@........$$$$++++",
"++++''''++++        ++++))))....@@@@        @@@@........$$$$++++",
">>>>++++++++>>>>....%%%%++++....$$$$........++++@@@@....++++@@@@",
">>>>++++++++>>>>....%%%%++++....$$$$........++++@@@@....++++@@@@",
">>>>++++++++>>>>....%%%%++++....$$$$........++++@@@@....++++@@@@",
">>>>++++++++>>>>....%%%%++++....$$$$........++++@@@@....++++@@@@",
"++++@@@@;;;;++++........    ++++++++++++++++++++++++++++        ",
"++++@@@@;;;;++++........    ++++++++++++++++++++++++++++        ",
"++++@@@@;;;;++++........    ++++++++++++++++++++++++++++        ",
"++++@@@@;;;;++++........    ++++++++++++++++++++++++++++        ",
"++++;;;;++++++++!!!!++++........++++@@@@    @@@@++++    ........",
"++++;;;;++++++++!!!!++++........++++@@@@    @@@@++++    ........",
"++++;;;;++++++++!!!!++++........++++@@@@    @@@@++++    ........",
"++++;;;;++++++++!!!!++++........++++@@@@    @@@@++++    ........",
"~~~~++++@@@@    ++++@@@@++++@@@@        ++++;;;;++++++++;;;;....",
"~~~~++++@@@@    ++++@@@@++++@@@@        ++++;;;;++++++++;;;;....",
"~~~~++++@@@@    ++++@@@@++++@@@@        ++++;;;;++++++++;;;;....",
"~~~~++++@@@@    ++++@@@@++++@@@@        ++++;;;;++++++++;;;;....",
"....++++    ........++++$$$$++++........++++++++>>>>;;;;++++@@@@",
"....++++    ........++++$$$$++++........++++++++>>>>;;;;++++@@@@",
"....++++    ........++++$$$$++++........++++++++>>>>;;;;++++@@@@",
"....++++    ........++++$$$$++++........++++++++>>>>;;;;++++@@@@"};
