/* XPM */
static char * C:\Users\qatar\Desktop\grassry_stone_xpm[] = {
"64 64 162 2",
"  	c #A3A3A3",
". 	c #9F9F9F",
"+ 	c #A9A9A9",
"@ 	c #ACACAC",
"# 	c #ADADAD",
"$ 	c #A8A8A8",
"% 	c #3A3A3A",
"& 	c #A4A4A4",
"* 	c #AEAEAE",
"= 	c #A6A6A6",
"- 	c #A1A1A1",
"; 	c #555555",
"> 	c #9D9D9D",
", 	c #303030",
"' 	c #828282",
") 	c #2D2D2D",
"! 	c #707070",
"~ 	c #8D8D8D",
"{ 	c #6F6F6F",
"] 	c #3E3E3E",
"^ 	c #8F8F8F",
"/ 	c #A0A0A0",
"( 	c #7D7D7D",
"_ 	c #969696",
": 	c #909090",
"< 	c #5F5F5F",
"[ 	c #484848",
"} 	c #122416",
"| 	c #18301E",
"1 	c #747474",
"2 	c #777777",
"3 	c #414141",
"4 	c #9E9E9E",
"5 	c #6B6B6B",
"6 	c #919191",
"7 	c #959595",
"8 	c #898989",
"9 	c #676767",
"0 	c #0F1F14",
"a 	c #5A5A5A",
"b 	c #1C3722",
"c 	c #848484",
"d 	c #838383",
"e 	c #565656",
"f 	c #8E8E8E",
"g 	c #666666",
"h 	c #8A8A8A",
"i 	c #595959",
"j 	c #737373",
"k 	c #818181",
"l 	c #444444",
"m 	c #797979",
"n 	c #AAAAAA",
"o 	c #515151",
"p 	c #213C25",
"q 	c #282828",
"r 	c #989898",
"s 	c #8C8C8C",
"t 	c #656565",
"u 	c #535353",
"v 	c #686868",
"w 	c #878787",
"x 	c #4A4A4A",
"y 	c #383838",
"z 	c #9B9B9B",
"A 	c #888888",
"B 	c #222222",
"C 	c #1F1F1F",
"D 	c #2B2B2B",
"E 	c #2A2A2A",
"F 	c #2E2E2E",
"G 	c #212625",
"H 	c #4B5350",
"I 	c #2C342F",
"J 	c #4A4E4C",
"K 	c #606060",
"L 	c #494949",
"M 	c #9FA1A2",
"N 	c #808A8E",
"O 	c #6D807C",
"P 	c #5D7569",
"Q 	c #688178",
"R 	c #6E827D",
"S 	c #8D9498",
"T 	c #545454",
"U 	c #585858",
"V 	c #6D6D6D",
"W 	c #7E7E7E",
"X 	c #1A1A1A",
"Y 	c #7B8688",
"Z 	c #3A5742",
"` 	c #446D55",
" .	c #304C2E",
"..	c #396244",
"+.	c #49735E",
"@.	c #405F48",
"#.	c #4B5751",
"$.	c #5D5D5D",
"%.	c #757575",
"&.	c #515756",
"*.	c #6F837F",
"=.	c #426C53",
"-.	c #559845",
";.	c #559543",
">.	c #559545",
",.	c #539850",
"'.	c #345D3D",
").	c #4F6756",
"!.	c #808080",
"~.	c #7C7C7C",
"{.	c #4D4D4D",
"].	c #24332A",
"^.	c #698177",
"/.	c #325233",
"(.	c #4B662D",
"_.	c #497237",
":.	c #457036",
"<.	c #54984D",
"[.	c #496747",
"}.	c #30573A",
"|.	c #6E6E6E",
"1.	c #7F7F7F",
"2.	c #7B7B7B",
"3.	c #203029",
"4.	c #667E74",
"5.	c #3E6549",
"6.	c #516D37",
"7.	c #559646",
"8.	c #42733D",
"9.	c #496745",
"0.	c #2E5837",
"a.	c #6A6A6A",
"b.	c #7A7A7A",
"c.	c #3D4642",
"d.	c #6D827C",
"e.	c #4D7865",
"f.	c #4A6339",
"g.	c #559544",
"h.	c #559749",
"i.	c #559644",
"j.	c #456D54",
"k.	c #4D6A58",
"l.	c #868686",
"m.	c #3D3D3D",
"n.	c #798687",
"o.	c #53705F",
"p.	c #376344",
"q.	c #3E5A38",
"r.	c #456241",
"s.	c #3B5E41",
"t.	c #4A735E",
"u.	c #45594A",
"v.	c #525252",
"w.	c #0B0B0B",
"x.	c #333333",
"y.	c #353937",
"z.	c #2D4236",
"A.	c #1A3C24",
"B.	c #274E31",
"C.	c #224928",
"D.	c #1D4125",
"E.	c #3B5040",
"        . . . .         + + + + @ @ @ @ # # # # $ $ $ $ % % % %         & & & & * * * * @ @ @ @ = = = =         - - - - ; ; ; ; ",
"        . . . .         + + + + @ @ @ @ # # # # $ $ $ $ % % % %         & & & & * * * * @ @ @ @ = = = =         - - - - ; ; ; ; ",
"        . . . .         + + + + @ @ @ @ # # # # $ $ $ $ % % % %         & & & & * * * * @ @ @ @ = = = =         - - - - ; ; ; ; ",
"        . . . .         + + + + @ @ @ @ # # # # $ $ $ $ % % % %         & & & & * * * * @ @ @ @ = = = =         - - - - ; ; ; ; ",
"> > > > , , , , ' ' ' ' ) ) ) ) ! ! ! ! ~ ~ ~ ~ { { { { ] ] ] ] > > > > ^ ^ ^ ^ / / / / ( ( ( ( _ _ _ _ : : : : ' ' ' ' < < < < ",
"> > > > , , , , ' ' ' ' ) ) ) ) ! ! ! ! ~ ~ ~ ~ { { { { ] ] ] ] > > > > ^ ^ ^ ^ / / / / ( ( ( ( _ _ _ _ : : : : ' ' ' ' < < < < ",
"> > > > , , , , ' ' ' ' ) ) ) ) ! ! ! ! ~ ~ ~ ~ { { { { ] ] ] ] > > > > ^ ^ ^ ^ / / / / ( ( ( ( _ _ _ _ : : : : ' ' ' ' < < < < ",
"> > > > , , , , ' ' ' ' ) ) ) ) ! ! ! ! ~ ~ ~ ~ { { { { ] ] ] ] > > > > ^ ^ ^ ^ / / / / ( ( ( ( _ _ _ _ : : : : ' ' ' ' < < < < ",
"+ + + + [ [ [ [ } } } } } } } } | | | | 1 1 1 1 2 2 2 2 3 3 3 3 + + + + 4 4 4 4 : : : : 5 5 5 5 6 6 6 6 7 7 7 7 8 8 8 8 2 2 2 2 ",
"+ + + + [ [ [ [ } } } } } } } } | | | | 1 1 1 1 2 2 2 2 3 3 3 3 + + + + 4 4 4 4 : : : : 5 5 5 5 6 6 6 6 7 7 7 7 8 8 8 8 2 2 2 2 ",
"+ + + + [ [ [ [ } } } } } } } } | | | | 1 1 1 1 2 2 2 2 3 3 3 3 + + + + 4 4 4 4 : : : : 5 5 5 5 6 6 6 6 7 7 7 7 8 8 8 8 2 2 2 2 ",
"+ + + + [ [ [ [ } } } } } } } } | | | | 1 1 1 1 2 2 2 2 3 3 3 3 + + + + 4 4 4 4 : : : : 5 5 5 5 6 6 6 6 7 7 7 7 8 8 8 8 2 2 2 2 ",
"@ @ @ @ 9 9 9 9 0 0 0 0 a a a a b b b b c c c c d d d d e e e e @ @ @ @ f f f f g g g g ( ( ( ( h h h h ^ ^ ^ ^ g g g g 9 9 9 9 ",
"@ @ @ @ 9 9 9 9 0 0 0 0 a a a a b b b b c c c c d d d d e e e e @ @ @ @ f f f f g g g g ( ( ( ( h h h h ^ ^ ^ ^ g g g g 9 9 9 9 ",
"@ @ @ @ 9 9 9 9 0 0 0 0 a a a a b b b b c c c c d d d d e e e e @ @ @ @ f f f f g g g g ( ( ( ( h h h h ^ ^ ^ ^ g g g g 9 9 9 9 ",
"@ @ @ @ 9 9 9 9 0 0 0 0 a a a a b b b b c c c c d d d d e e e e @ @ @ @ f f f f g g g g ( ( ( ( h h h h ^ ^ ^ ^ g g g g 9 9 9 9 ",
"+ + + + < < < < } } } } i i i i 2 2 2 2 j j j j k k k k l l l l + + + + m m m m m m m m ' ' ' ' 1 1 1 1 k k k k _ _ _ _ < < < < ",
"+ + + + < < < < } } } } i i i i 2 2 2 2 j j j j k k k k l l l l + + + + m m m m m m m m ' ' ' ' 1 1 1 1 k k k k _ _ _ _ < < < < ",
"+ + + + < < < < } } } } i i i i 2 2 2 2 j j j j k k k k l l l l + + + + m m m m m m m m ' ' ' ' 1 1 1 1 k k k k _ _ _ _ < < < < ",
"+ + + + < < < < } } } } i i i i 2 2 2 2 j j j j k k k k l l l l + + + + m m m m m m m m ' ' ' ' 1 1 1 1 k k k k _ _ _ _ < < < < ",
"n n n n o o o o } } } } } } } } | | | | p p p p 1 1 1 1 q q q q n n n n r r r r s s s s k k k k f f f f c c c c m m m m t t t t ",
"n n n n o o o o } } } } } } } } | | | | p p p p 1 1 1 1 q q q q n n n n r r r r s s s s k k k k f f f f c c c c m m m m t t t t ",
"n n n n o o o o } } } } } } } } | | | | p p p p 1 1 1 1 q q q q n n n n r r r r s s s s k k k k f f f f c c c c m m m m t t t t ",
"n n n n o o o o } } } } } } } } | | | | p p p p 1 1 1 1 q q q q n n n n r r r r s s s s k k k k f f f f c c c c m m m m t t t t ",
"/ / / / u u u u ! ! ! ! v v v v w w w w x x x x a a a a y y y y / / / / 1 1 1 1 7 7 7 7 z z z z c c c c A A A A : : : : ] ] ] ] ",
"/ / / / u u u u ! ! ! ! v v v v w w w w x x x x a a a a y y y y / / / / 1 1 1 1 7 7 7 7 z z z z c c c c A A A A : : : : ] ] ] ] ",
"/ / / / u u u u ! ! ! ! v v v v w w w w x x x x a a a a y y y y / / / / 1 1 1 1 7 7 7 7 z z z z c c c c A A A A : : : : ] ] ] ] ",
"/ / / / u u u u ! ! ! ! v v v v w w w w x x x x a a a a y y y y / / / / 1 1 1 1 7 7 7 7 z z z z c c c c A A A A : : : : ] ] ] ] ",
"B B B B ) ) ) ) C C C C B B B B D D D D ) ) ) ) E E E E B B B B B B B B F F F F G G G G H H H H I I I I J J J J K K K K B B B B ",
"B B B B ) ) ) ) C C C C B B B B D D D D ) ) ) ) E E E E B B B B B B B B F F F F G G G G H H H H I I I I J J J J K K K K B B B B ",
"B B B B ) ) ) ) C C C C B B B B D D D D ) ) ) ) E E E E B B B B B B B B F F F F G G G G H H H H I I I I J J J J K K K K B B B B ",
"B B B B ) ) ) ) C C C C B B B B D D D D ) ) ) ) E E E E B B B B B B B B F F F F G G G G H H H H I I I I J J J J K K K K B B B B ",
"        h h h h A A A A ^ ^ ^ ^         / / / / - - - - L L L L M M M M N N N N O O O O P P P P Q Q Q Q R R R R S S S S 8 8 8 8 ",
"        h h h h A A A A ^ ^ ^ ^         / / / / - - - - L L L L M M M M N N N N O O O O P P P P Q Q Q Q R R R R S S S S 8 8 8 8 ",
"        h h h h A A A A ^ ^ ^ ^         / / / / - - - - L L L L M M M M N N N N O O O O P P P P Q Q Q Q R R R R S S S S 8 8 8 8 ",
"        h h h h A A A A ^ ^ ^ ^         / / / / - - - - L L L L M M M M N N N N O O O O P P P P Q Q Q Q R R R R S S S S 8 8 8 8 ",
"> > > > x x x x T T T T U U U U 5 5 5 5 V V V V W W W W X X X X Y Y Y Y Z Z Z Z ` ` ` `  . . . .........+.+.+.+.@.@.@.@.#.#.#.#.",
"> > > > x x x x T T T T U U U U 5 5 5 5 V V V V W W W W X X X X Y Y Y Y Z Z Z Z ` ` ` `  . . . .........+.+.+.+.@.@.@.@.#.#.#.#.",
"> > > > x x x x T T T T U U U U 5 5 5 5 V V V V W W W W X X X X Y Y Y Y Z Z Z Z ` ` ` `  . . . .........+.+.+.+.@.@.@.@.#.#.#.#.",
"> > > > x x x x T T T T U U U U 5 5 5 5 V V V V W W W W X X X X Y Y Y Y Z Z Z Z ` ` ` `  . . . .........+.+.+.+.@.@.@.@.#.#.#.#.",
"+ + + + ( ( ( ( a a a a v v v v $.$.$.$.m m m m %.%.%.%.&.&.&.&.*.*.*.*.=.=.=.=.-.-.-.-.;.;.;.;.>.>.>.>.,.,.,.,.'.'.'.'.).).).).",
"+ + + + ( ( ( ( a a a a v v v v $.$.$.$.m m m m %.%.%.%.&.&.&.&.*.*.*.*.=.=.=.=.-.-.-.-.;.;.;.;.>.>.>.>.,.,.,.,.'.'.'.'.).).).).",
"+ + + + ( ( ( ( a a a a v v v v $.$.$.$.m m m m %.%.%.%.&.&.&.&.*.*.*.*.=.=.=.=.-.-.-.-.;.;.;.;.>.>.>.>.,.,.,.,.'.'.'.'.).).).).",
"+ + + + ( ( ( ( a a a a v v v v $.$.$.$.m m m m %.%.%.%.&.&.&.&.*.*.*.*.=.=.=.=.-.-.-.-.;.;.;.;.>.>.>.>.,.,.,.,.'.'.'.'.).).).).",
"@ @ @ @ { { { { !.!.!.!.!.!.!.!.$.$.$.$.~.~.~.~.{.{.{.{.].].].].^.^.^.^././././.(.(.(.(._._._._.:.:.:.:.<.<.<.<.[.[.[.[.}.}.}.}.",
"@ @ @ @ { { { { !.!.!.!.!.!.!.!.$.$.$.$.~.~.~.~.{.{.{.{.].].].].^.^.^.^././././.(.(.(.(._._._._.:.:.:.:.<.<.<.<.[.[.[.[.}.}.}.}.",
"@ @ @ @ { { { { !.!.!.!.!.!.!.!.$.$.$.$.~.~.~.~.{.{.{.{.].].].].^.^.^.^././././.(.(.(.(._._._._.:.:.:.:.<.<.<.<.[.[.[.[.}.}.}.}.",
"@ @ @ @ { { { { !.!.!.!.!.!.!.!.$.$.$.$.~.~.~.~.{.{.{.{.].].].].^.^.^.^././././.(.(.(.(._._._._.:.:.:.:.<.<.<.<.[.[.[.[.}.}.}.}.",
"+ + + + |.|.|.|.c c c c ! ! ! ! 9 9 9 9 1.1.1.1.2.2.2.2.3.3.3.3.4.4.4.4.5.5.5.5.6.6.6.6.7.7.7.7.8.8.8.8.>.>.>.>.9.9.9.9.0.0.0.0.",
"+ + + + |.|.|.|.c c c c ! ! ! ! 9 9 9 9 1.1.1.1.2.2.2.2.3.3.3.3.4.4.4.4.5.5.5.5.6.6.6.6.7.7.7.7.8.8.8.8.>.>.>.>.9.9.9.9.0.0.0.0.",
"+ + + + |.|.|.|.c c c c ! ! ! ! 9 9 9 9 1.1.1.1.2.2.2.2.3.3.3.3.4.4.4.4.5.5.5.5.6.6.6.6.7.7.7.7.8.8.8.8.>.>.>.>.9.9.9.9.0.0.0.0.",
"+ + + + |.|.|.|.c c c c ! ! ! ! 9 9 9 9 1.1.1.1.2.2.2.2.3.3.3.3.4.4.4.4.5.5.5.5.6.6.6.6.7.7.7.7.8.8.8.8.>.>.>.>.9.9.9.9.0.0.0.0.",
"n n n n c c c c m m m m k k k k W W W W a.a.a.a.b.b.b.b.c.c.c.c.d.d.d.d.e.e.e.e.f.f.f.f.g.g.g.g.h.h.h.h.i.i.i.i.j.j.j.j.k.k.k.k.",
"n n n n c c c c m m m m k k k k W W W W a.a.a.a.b.b.b.b.c.c.c.c.d.d.d.d.e.e.e.e.f.f.f.f.g.g.g.g.h.h.h.h.i.i.i.i.j.j.j.j.k.k.k.k.",
"n n n n c c c c m m m m k k k k W W W W a.a.a.a.b.b.b.b.c.c.c.c.d.d.d.d.e.e.e.e.f.f.f.f.g.g.g.g.h.h.h.h.i.i.i.i.j.j.j.j.k.k.k.k.",
"n n n n c c c c m m m m k k k k W W W W a.a.a.a.b.b.b.b.c.c.c.c.d.d.d.d.e.e.e.e.f.f.f.f.g.g.g.g.h.h.h.h.i.i.i.i.j.j.j.j.k.k.k.k.",
"/ / / / W W W W ' ' ' ' 8 8 8 8 l.l.l.l.a a a a ~.~.~.~.m.m.m.m.n.n.n.n.o.o.o.o.p.p.p.p.q.q.q.q.r.r.r.r.s.s.s.s.t.t.t.t.u.u.u.u.",
"/ / / / W W W W ' ' ' ' 8 8 8 8 l.l.l.l.a a a a ~.~.~.~.m.m.m.m.n.n.n.n.o.o.o.o.p.p.p.p.q.q.q.q.r.r.r.r.s.s.s.s.t.t.t.t.u.u.u.u.",
"/ / / / W W W W ' ' ' ' 8 8 8 8 l.l.l.l.a a a a ~.~.~.~.m.m.m.m.n.n.n.n.o.o.o.o.p.p.p.p.q.q.q.q.r.r.r.r.s.s.s.s.t.t.t.t.u.u.u.u.",
"/ / / / W W W W ' ' ' ' 8 8 8 8 l.l.l.l.a a a a ~.~.~.~.m.m.m.m.n.n.n.n.o.o.o.o.p.p.p.p.q.q.q.q.r.r.r.r.s.s.s.s.t.t.t.t.u.u.u.u.",
"B B B B v.v.v.v.{.{.{.{.) ) ) ) w.w.w.w.x.x.x.x.] ] ] ] B B B B y.y.y.y.z.z.z.z.A.A.A.A.B.B.B.B.C.C.C.C.D.D.D.D.E.E.E.E.B B B B ",
"B B B B v.v.v.v.{.{.{.{.) ) ) ) w.w.w.w.x.x.x.x.] ] ] ] B B B B y.y.y.y.z.z.z.z.A.A.A.A.B.B.B.B.C.C.C.C.D.D.D.D.E.E.E.E.B B B B ",
"B B B B v.v.v.v.{.{.{.{.) ) ) ) w.w.w.w.x.x.x.x.] ] ] ] B B B B y.y.y.y.z.z.z.z.A.A.A.A.B.B.B.B.C.C.C.C.D.D.D.D.E.E.E.E.B B B B ",
"B B B B v.v.v.v.{.{.{.{.) ) ) ) w.w.w.w.x.x.x.x.] ] ] ] B B B B y.y.y.y.z.z.z.z.A.A.A.A.B.B.B.B.C.C.C.C.D.D.D.D.E.E.E.E.B B B B "};
