/* XPM */
static char * C:\Users\qatar\Desktop\holystone_brick_xpm[] = {
"64 64 92 2",
"  	c #BDBDBD",
". 	c #727272",
"+ 	c #AFAFAF",
"@ 	c #A9A9A9",
"# 	c #858585",
"$ 	c #919191",
"% 	c #9B9B9B",
"& 	c #BCBCBC",
"* 	c #757575",
"= 	c #999999",
"- 	c #BBBBBB",
"; 	c #AEAEAE",
"> 	c #A1A1A1",
", 	c #696969",
"' 	c #9D9D9D",
") 	c #8D8D8D",
"! 	c #878787",
"~ 	c #ACACAC",
"{ 	c #A2A2A2",
"] 	c #B3B3B3",
"^ 	c #A7A7A7",
"/ 	c #ADADAD",
"( 	c #565656",
"_ 	c #8E8E8E",
": 	c #959595",
"< 	c #A3A3A3",
"[ 	c #B0B0B0",
"} 	c #6C6C6C",
"| 	c #8C8C8C",
"1 	c #7D7D7D",
"2 	c #4E4E4E",
"3 	c #575757",
"4 	c #5B5B5B",
"5 	c #616161",
"6 	c #787878",
"7 	c #626262",
"8 	c #6D6D6D",
"9 	c #535353",
"0 	c #5C5C5C",
"a 	c #5D5D5D",
"b 	c #737373",
"c 	c #767676",
"d 	c #525252",
"e 	c #C0C0C0",
"f 	c #888888",
"g 	c #ABABAB",
"h 	c #7B7B7B",
"i 	c #A6A6A6",
"j 	c #B9B9B9",
"k 	c #A5A5A5",
"l 	c #AAAAAA",
"m 	c #868686",
"n 	c #656565",
"o 	c #C5C5C5",
"p 	c #939393",
"q 	c #5F5F5F",
"r 	c #979797",
"s 	c #898989",
"t 	c #BABABA",
"u 	c #A4A4A4",
"v 	c #666666",
"w 	c #5E5E5E",
"x 	c #6E6E6E",
"y 	c #595959",
"z 	c #6B6B6B",
"A 	c #9F9F9F",
"B 	c #797979",
"C 	c #BEBEBE",
"D 	c #8A8A8A",
"E 	c #989898",
"F 	c #C2C2C2",
"G 	c #C1C1C1",
"H 	c #9C9C9C",
"I 	c #BFBFBF",
"J 	c #969696",
"K 	c #C6C6C6",
"L 	c #A8A8A8",
"M 	c #B1B1B1",
"N 	c #7F7F7F",
"O 	c #949494",
"P 	c #676767",
"Q 	c #5A5A5A",
"R 	c #8F8F8F",
"S 	c #454545",
"T 	c #7C7C7C",
"U 	c #838383",
"V 	c #929292",
"W 	c #686868",
"X 	c #B2B2B2",
"Y 	c #B5B5B5",
"Z 	c #4B4B4B",
"` 	c #555555",
"                        . . . . + + + + @ @ @ @ # # # # $ $ $ $ % % % %         & & & & * * * * @ @ @ @ = = = = - - - - ; ; ; ; ",
"                        . . . . + + + + @ @ @ @ # # # # $ $ $ $ % % % %         & & & & * * * * @ @ @ @ = = = = - - - - ; ; ; ; ",
"                        . . . . + + + + @ @ @ @ # # # # $ $ $ $ % % % %         & & & & * * * * @ @ @ @ = = = = - - - - ; ; ; ; ",
"                        . . . . + + + + @ @ @ @ # # # # $ $ $ $ % % % %         & & & & * * * * @ @ @ @ = = = = - - - - ; ; ; ; ",
"                > > > > , , , , ' ' ' ' # # # # ) ) ) ) ! ! ! ! # # # # ~ ~ ~ ~ ; ; ; ; , , , , ; ; ; ; $ $ $ $ { { { { ] ] ] ] ",
"                > > > > , , , , ' ' ' ' # # # # ) ) ) ) ! ! ! ! # # # # ~ ~ ~ ~ ; ; ; ; , , , , ; ; ; ; $ $ $ $ { { { { ] ] ] ] ",
"                > > > > , , , , ' ' ' ' # # # # ) ) ) ) ! ! ! ! # # # # ~ ~ ~ ~ ; ; ; ; , , , , ; ; ; ; $ $ $ $ { { { { ] ] ] ] ",
"                > > > > , , , , ' ' ' ' # # # # ) ) ) ) ! ! ! ! # # # # ~ ~ ~ ~ ; ; ; ; , , , , ; ; ; ; $ $ $ $ { { { { ] ] ] ] ",
"^ ^ ^ ^ / / / / ~ ~ ~ ~ ( ( ( ( _ _ _ _ ) ) ) )         : : : : = = = = < < < < [ [ [ [ } } } } | | | | 1 1 1 1 # # # # ; ; ; ; ",
"^ ^ ^ ^ / / / / ~ ~ ~ ~ ( ( ( ( _ _ _ _ ) ) ) )         : : : : = = = = < < < < [ [ [ [ } } } } | | | | 1 1 1 1 # # # # ; ; ; ; ",
"^ ^ ^ ^ / / / / ~ ~ ~ ~ ( ( ( ( _ _ _ _ ) ) ) )         : : : : = = = = < < < < [ [ [ [ } } } } | | | | 1 1 1 1 # # # # ; ; ; ; ",
"^ ^ ^ ^ / / / / ~ ~ ~ ~ ( ( ( ( _ _ _ _ ) ) ) )         : : : : = = = = < < < < [ [ [ [ } } } } | | | | 1 1 1 1 # # # # ; ; ; ; ",
"2 2 2 2 3 3 3 3 4 4 4 4 5 5 5 5 6 6 6 6 7 7 7 7 8 8 8 8 , , , , 9 9 9 9 ( ( ( ( 0 0 0 0 0 0 0 0 a a a a b b b b c c c c d d d d ",
"2 2 2 2 3 3 3 3 4 4 4 4 5 5 5 5 6 6 6 6 7 7 7 7 8 8 8 8 , , , , 9 9 9 9 ( ( ( ( 0 0 0 0 0 0 0 0 a a a a b b b b c c c c d d d d ",
"2 2 2 2 3 3 3 3 4 4 4 4 5 5 5 5 6 6 6 6 7 7 7 7 8 8 8 8 , , , , 9 9 9 9 ( ( ( ( 0 0 0 0 0 0 0 0 a a a a b b b b c c c c d d d d ",
"2 2 2 2 3 3 3 3 4 4 4 4 5 5 5 5 6 6 6 6 7 7 7 7 8 8 8 8 , , , , 9 9 9 9 ( ( ( ( 0 0 0 0 0 0 0 0 a a a a b b b b c c c c d d d d ",
"e e e e & & & & ' ' ' ' f f f f e e e e ; ; ; ; g g g g 8 8 8 8         h h h h ] ] ] ] g g g g ; ; ; ; i i i i j j j j 5 5 5 5 ",
"e e e e & & & & ' ' ' ' f f f f e e e e ; ; ; ; g g g g 8 8 8 8         h h h h ] ] ] ] g g g g ; ; ; ; i i i i j j j j 5 5 5 5 ",
"e e e e & & & & ' ' ' ' f f f f e e e e ; ; ; ; g g g g 8 8 8 8         h h h h ] ] ] ] g g g g ; ; ; ; i i i i j j j j 5 5 5 5 ",
"e e e e & & & & ' ' ' ' f f f f e e e e ; ; ; ; g g g g 8 8 8 8         h h h h ] ] ] ] g g g g ; ; ; ; i i i i j j j j 5 5 5 5 ",
"k k k k / / / / i i i i l l l l m m m m / / / / l l l l n n n n | | | | o o o o i i i i f f f f % % % % = = = = p p p p q q q q ",
"k k k k / / / / i i i i l l l l m m m m / / / / l l l l n n n n | | | | o o o o i i i i f f f f % % % % = = = = p p p p q q q q ",
"k k k k / / / / i i i i l l l l m m m m / / / / l l l l n n n n | | | | o o o o i i i i f f f f % % % % = = = = p p p p q q q q ",
"k k k k / / / / i i i i l l l l m m m m / / / / l l l l n n n n | | | | o o o o i i i i f f f f % % % % = = = = p p p p q q q q ",
"^ ^ ^ ^ l l l l @ @ @ @ : : : : r r r r f f f f ) ) ) ) 9 9 9 9 s s s s | | | | t t t t + + + + u u u u g g g g % % % % q q q q ",
"^ ^ ^ ^ l l l l @ @ @ @ : : : : r r r r f f f f ) ) ) ) 9 9 9 9 s s s s | | | | t t t t + + + + u u u u g g g g % % % % q q q q ",
"^ ^ ^ ^ l l l l @ @ @ @ : : : : r r r r f f f f ) ) ) ) 9 9 9 9 s s s s | | | | t t t t + + + + u u u u g g g g % % % % q q q q ",
"^ ^ ^ ^ l l l l @ @ @ @ : : : : r r r r f f f f ) ) ) ) 9 9 9 9 s s s s | | | | t t t t + + + + u u u u g g g g % % % % q q q q ",
", , , , , , , , v v v v 0 0 0 0 w w w w * * * * , , , , ( ( ( ( 5 5 5 5 x x x x y y y y z z z z , , , , 4 4 4 4 9 9 9 9 h h h h ",
", , , , , , , , v v v v 0 0 0 0 w w w w * * * * , , , , ( ( ( ( 5 5 5 5 x x x x y y y y z z z z , , , , 4 4 4 4 9 9 9 9 h h h h ",
", , , , , , , , v v v v 0 0 0 0 w w w w * * * * , , , , ( ( ( ( 5 5 5 5 x x x x y y y y z z z z , , , , 4 4 4 4 9 9 9 9 h h h h ",
", , , , , , , , v v v v 0 0 0 0 w w w w * * * * , , , , ( ( ( ( 5 5 5 5 x x x x y y y y z z z z , , , , 4 4 4 4 9 9 9 9 h h h h ",
"^ ^ ^ ^ A A A A j j j j B B B B + + + + m m m m [ [ [ [ C C C C         ; ; ; ; ! ! ! ! q q q q D D D D E E E E F F F F - - - - ",
"^ ^ ^ ^ A A A A j j j j B B B B + + + + m m m m [ [ [ [ C C C C         ; ; ; ; ! ! ! ! q q q q D D D D E E E E F F F F - - - - ",
"^ ^ ^ ^ A A A A j j j j B B B B + + + + m m m m [ [ [ [ C C C C         ; ; ; ; ! ! ! ! q q q q D D D D E E E E F F F F - - - - ",
"^ ^ ^ ^ A A A A j j j j B B B B + + + + m m m m [ [ [ [ C C C C         ; ; ; ; ! ! ! ! q q q q D D D D E E E E F F F F - - - - ",
"% % % % ! ! ! ! G G G G c c c c $ $ $ $ H H H H I I I I A A A A I I I I J J J J [ [ [ [ } } } } % % % % K K K K @ @ @ @ L L L L ",
"% % % % ! ! ! ! G G G G c c c c $ $ $ $ H H H H I I I I A A A A I I I I J J J J [ [ [ [ } } } } % % % % K K K K @ @ @ @ L L L L ",
"% % % % ! ! ! ! G G G G c c c c $ $ $ $ H H H H I I I I A A A A I I I I J J J J [ [ [ [ } } } } % % % % K K K K @ @ @ @ L L L L ",
"% % % % ! ! ! ! G G G G c c c c $ $ $ $ H H H H I I I I A A A A I I I I J J J J [ [ [ [ } } } } % % % % K K K K @ @ @ @ L L L L ",
"A A A A { { { { ^ ^ ^ ^ z z z z L L L L _ _ _ _         M M M M ; ; ; ; N N N N ; ; ; ; ( ( ( ( O O O O = = = = ] ] ] ] g g g g ",
"A A A A { { { { ^ ^ ^ ^ z z z z L L L L _ _ _ _         M M M M ; ; ; ; N N N N ; ; ; ; ( ( ( ( O O O O = = = = ] ] ] ] g g g g ",
"A A A A { { { { ^ ^ ^ ^ z z z z L L L L _ _ _ _         M M M M ; ; ; ; N N N N ; ; ; ; ( ( ( ( O O O O = = = = ] ] ] ] g g g g ",
"A A A A { { { { ^ ^ ^ ^ z z z z L L L L _ _ _ _         M M M M ; ; ; ; N N N N ; ; ; ; ( ( ( ( O O O O = = = = ] ] ] ] g g g g ",
"( ( ( ( x x x x y y y y , , , , P P P P y y y y , , , , , , , , x x x x , , , , 0 0 0 0 d d d d 9 9 9 9 9 9 9 9 d d d d Q Q Q Q ",
"( ( ( ( x x x x y y y y , , , , P P P P y y y y , , , , , , , , x x x x , , , , 0 0 0 0 d d d d 9 9 9 9 9 9 9 9 d d d d Q Q Q Q ",
"( ( ( ( x x x x y y y y , , , , P P P P y y y y , , , , , , , , x x x x , , , , 0 0 0 0 d d d d 9 9 9 9 9 9 9 9 d d d d Q Q Q Q ",
"( ( ( ( x x x x y y y y , , , , P P P P y y y y , , , , , , , , x x x x , , , , 0 0 0 0 d d d d 9 9 9 9 9 9 9 9 d d d d Q Q Q Q ",
"6 6 6 6 m m m m R R R R ' ' ' ' J J J J D D D D ^ ^ ^ ^ < < < < S S S S & & & & ] ] ] ] < < < < g g g g N N N N D D D D ; ; ; ; ",
"6 6 6 6 m m m m R R R R ' ' ' ' J J J J D D D D ^ ^ ^ ^ < < < < S S S S & & & & ] ] ] ] < < < < g g g g N N N N D D D D ; ; ; ; ",
"6 6 6 6 m m m m R R R R ' ' ' ' J J J J D D D D ^ ^ ^ ^ < < < < S S S S & & & & ] ] ] ] < < < < g g g g N N N N D D D D ; ; ; ; ",
"6 6 6 6 m m m m R R R R ' ' ' ' J J J J D D D D ^ ^ ^ ^ < < < < S S S S & & & & ] ] ] ] < < < < g g g g N N N N D D D D ; ; ; ; ",
"B B B B T T T T         U U U U C C C C m m m m V V V V < < < < W W W W j j j j l l l l X X X X L L L L ; ; ; ; _ _ _ _ ^ ^ ^ ^ ",
"B B B B T T T T         U U U U C C C C m m m m V V V V < < < < W W W W j j j j l l l l X X X X L L L L ; ; ; ; _ _ _ _ ^ ^ ^ ^ ",
"B B B B T T T T         U U U U C C C C m m m m V V V V < < < < W W W W j j j j l l l l X X X X L L L L ; ; ; ; _ _ _ _ ^ ^ ^ ^ ",
"B B B B T T T T         U U U U C C C C m m m m V V V V < < < < W W W W j j j j l l l l X X X X L L L L ; ; ; ; _ _ _ _ ^ ^ ^ ^ ",
", , , , _ _ _ _ Y Y Y Y / / / / @ @ @ @ l l l l E E E E L L L L 9 9 9 9 l l l l ; ; ; ; ; ; ; ; X X X X R R R R u u u u ^ ^ ^ ^ ",
", , , , _ _ _ _ Y Y Y Y / / / / @ @ @ @ l l l l E E E E L L L L 9 9 9 9 l l l l ; ; ; ; ; ; ; ; X X X X R R R R u u u u ^ ^ ^ ^ ",
", , , , _ _ _ _ Y Y Y Y / / / / @ @ @ @ l l l l E E E E L L L L 9 9 9 9 l l l l ; ; ; ; ; ; ; ; X X X X R R R R u u u u ^ ^ ^ ^ ",
", , , , _ _ _ _ Y Y Y Y / / / / @ @ @ @ l l l l E E E E L L L L 9 9 9 9 l l l l ; ; ; ; ; ; ; ; X X X X R R R R u u u u ^ ^ ^ ^ ",
"W W W W W W W W P P P P Z Z Z Z , , , , 7 7 7 7 q q q q * * * * a a a a 8 8 8 8 q q q q ` ` ` ` ( ( ( ( w w w w Q Q Q Q n n n n ",
"W W W W W W W W P P P P Z Z Z Z , , , , 7 7 7 7 q q q q * * * * a a a a 8 8 8 8 q q q q ` ` ` ` ( ( ( ( w w w w Q Q Q Q n n n n ",
"W W W W W W W W P P P P Z Z Z Z , , , , 7 7 7 7 q q q q * * * * a a a a 8 8 8 8 q q q q ` ` ` ` ( ( ( ( w w w w Q Q Q Q n n n n ",
"W W W W W W W W P P P P Z Z Z Z , , , , 7 7 7 7 q q q q * * * * a a a a 8 8 8 8 q q q q ` ` ` ` ( ( ( ( w w w w Q Q Q Q n n n n "};
