/* XPM */
static char * C:\Users\qatar\Desktop\mossy_holystone_xpm[] = {
"64 64 136 2",
"  	c #ABABAB",
". 	c #CDCDCD",
"+ 	c #799387",
"@ 	c #7D958A",
"# 	c #687F75",
"$ 	c #CCCCCC",
"% 	c #698C7D",
"& 	c #ACACAC",
"* 	c #AAAAAA",
"= 	c #A4A4A4",
"- 	c #CBCBCB",
"; 	c #BFBFBF",
"> 	c #B2B2B2",
", 	c #BBBBBB",
"' 	c #7B9388",
") 	c #617F73",
"! 	c #67877A",
"~ 	c #7D978D",
"{ 	c #BCBCBC",
"] 	c #BABABA",
"^ 	c #BEBEBE",
"/ 	c #A2A2A2",
"( 	c #B4B4B4",
"_ 	c #C4C4C4",
": 	c #B8B8B8",
"< 	c #BDBDBD",
"[ 	c #7F988E",
"} 	c #809A90",
"| 	c #819A90",
"1 	c #91AAA0",
"2 	c #A5A5A5",
"3 	c #718B81",
"4 	c #C2C2C2",
"5 	c #71877E",
"6 	c #6C8B7E",
"7 	c #6C8B7F",
"8 	c #68877B",
"9 	c #869F95",
"0 	c #D0D0D0",
"a 	c #AEAEAE",
"b 	c #6C867C",
"c 	c #7F8884",
"d 	c #A3A3A3",
"e 	c #6D8C7F",
"f 	c #6E8D80",
"g 	c #67897B",
"h 	c #739285",
"i 	c #6B8A7E",
"j 	c #779185",
"k 	c #738C82",
"l 	c #6D877D",
"m 	c #A2ABA7",
"n 	c #C1C1C1",
"o 	c #767F7B",
"p 	c #648277",
"q 	c #638677",
"r 	c #B7B7B7",
"s 	c #CACACA",
"t 	c #8A938F",
"u 	c #8AA49A",
"v 	c #86A096",
"w 	c #6F887E",
"x 	c #7A9489",
"y 	c #758B82",
"z 	c #628074",
"A 	c #969696",
"B 	c #658779",
"C 	c #6E8C81",
"D 	c #B5B5B5",
"E 	c #75847E",
"F 	c #B9B9B9",
"G 	c #698176",
"H 	c #627F74",
"I 	c #9A9A9A",
"J 	c #8EA79D",
"K 	c #818A86",
"L 	c #707F7A",
"M 	c #6C7B75",
"N 	c #D1D1D1",
"O 	c #B0B0B0",
"P 	c #879C94",
"Q 	c #667F74",
"R 	c #719084",
"S 	c #979797",
"T 	c #CECECE",
"U 	c #627C71",
"V 	c #73827D",
"W 	c #62766D",
"X 	c #73837C",
"Y 	c #989898",
"Z 	c #658377",
"` 	c #7A9389",
" .	c #617F74",
"..	c #ADADAD",
"+.	c #CFCFCF",
"@.	c #A7A7A7",
"#.	c #779186",
"$.	c #969F9B",
"%.	c #677B72",
"&.	c #728C82",
"*.	c #748E83",
"=.	c #748E84",
"-.	c #638176",
";.	c #5E7D70",
">.	c #9F9F9F",
",.	c #8F8F8F",
"'.	c #758F85",
").	c #999999",
"!.	c #71827B",
"~.	c #89A298",
"{.	c #6E867C",
"].	c #76998A",
"^.	c #6B857B",
"/.	c #617E73",
"(.	c #9E9E9E",
"_.	c #839D93",
":.	c #89A399",
"<.	c #6B8178",
"[.	c #799388",
"}.	c #7E8E87",
"|.	c #6F877D",
"1.	c #5D7C6F",
"2.	c #658277",
"3.	c #949494",
"4.	c #758A82",
"5.	c #627B71",
"6.	c #C3C3C3",
"7.	c #97A09C",
"8.	c #729184",
"9.	c #A9A9A9",
"0.	c #7E978D",
"a.	c #8DA69C",
"b.	c #A0A0A0",
"c.	c #B6B6B6",
"d.	c #799288",
"e.	c #839C92",
"                . . . . + + + + @ @ @ @ # # # # $ $ $ $ % % % % & & & & . . . . * * * * * * * * = = = = * * * * - - - - ; ; ; ; ",
"                . . . . + + + + @ @ @ @ # # # # $ $ $ $ % % % % & & & & . . . . * * * * * * * * = = = = * * * * - - - - ; ; ; ; ",
"                . . . . + + + + @ @ @ @ # # # # $ $ $ $ % % % % & & & & . . . . * * * * * * * * = = = = * * * * - - - - ; ; ; ; ",
"                . . . . + + + + @ @ @ @ # # # # $ $ $ $ % % % % & & & & . . . . * * * * * * * * = = = = * * * * - - - - ; ; ; ; ",
". . . . . . . . > > > > , , , , # # # # ' ' ' ' ) ) ) ) ! ! ! ! ~ ~ ~ ~ { { { { ; ; ; ; ] ] ] ] ^ ^ ^ ^ / / / / ( ( ( ( _ _ _ _ ",
". . . . . . . . > > > > , , , , # # # # ' ' ' ' ) ) ) ) ! ! ! ! ~ ~ ~ ~ { { { { ; ; ; ; ] ] ] ] ^ ^ ^ ^ / / / / ( ( ( ( _ _ _ _ ",
". . . . . . . . > > > > , , , , # # # # ' ' ' ' ) ) ) ) ! ! ! ! ~ ~ ~ ~ { { { { ; ; ; ; ] ] ] ] ^ ^ ^ ^ / / / / ( ( ( ( _ _ _ _ ",
". . . . . . . . > > > > , , , , # # # # ' ' ' ' ) ) ) ) ! ! ! ! ~ ~ ~ ~ { { { { ; ; ; ; ] ] ] ] ^ ^ ^ ^ / / / / ( ( ( ( _ _ _ _ ",
": : : : < < < < { { { { [ [ [ [ } } } } | | | | 1 1 1 1 2 2 2 2 3 3 3 3 ( ( ( ( 4 4 4 4 { { { { | | | | 5 5 5 5 6 6 6 6 ; ; ; ; ",
": : : : < < < < { { { { [ [ [ [ } } } } | | | | 1 1 1 1 2 2 2 2 3 3 3 3 ( ( ( ( 4 4 4 4 { { { { | | | | 5 5 5 5 6 6 6 6 ; ; ; ; ",
": : : : < < < < { { { { [ [ [ [ } } } } | | | | 1 1 1 1 2 2 2 2 3 3 3 3 ( ( ( ( 4 4 4 4 { { { { | | | | 5 5 5 5 6 6 6 6 ; ; ; ; ",
": : : : < < < < { { { { [ [ [ [ } } } } | | | | 1 1 1 1 2 2 2 2 3 3 3 3 ( ( ( ( 4 4 4 4 { { { { | | | | 5 5 5 5 6 6 6 6 ; ; ; ; ",
"5 5 5 5 7 7 7 7 8 8 8 8 9 9 9 9 0 0 0 0 a a a a ; ; ; ; : : : : b b b b c c c c d d d d e e e e f f f f g g g g h h h h i i i i ",
"5 5 5 5 7 7 7 7 8 8 8 8 9 9 9 9 0 0 0 0 a a a a ; ; ; ; : : : : b b b b c c c c d d d d e e e e f f f f g g g g h h h h i i i i ",
"5 5 5 5 7 7 7 7 8 8 8 8 9 9 9 9 0 0 0 0 a a a a ; ; ; ; : : : : b b b b c c c c d d d d e e e e f f f f g g g g h h h h i i i i ",
"5 5 5 5 7 7 7 7 8 8 8 8 9 9 9 9 0 0 0 0 a a a a ; ; ; ; : : : : b b b b c c c c d d d d e e e e f f f f g g g g h h h h i i i i ",
"0 0 0 0 j j j j k k k k l l l l m m m m ; ; ; ; , , , , n n n n . . . . o o o o p p p p q q q q ; ; ; ; r r r r s s s s & & & & ",
"0 0 0 0 j j j j k k k k l l l l m m m m ; ; ; ; , , , , n n n n . . . . o o o o p p p p q q q q ; ; ; ; r r r r s s s s & & & & ",
"0 0 0 0 j j j j k k k k l l l l m m m m ; ; ; ; , , , , n n n n . . . . o o o o p p p p q q q q ; ; ; ; r r r r s s s s & & & & ",
"0 0 0 0 j j j j k k k k l l l l m m m m ; ; ; ; , , , , n n n n . . . . o o o o p p p p q q q q ; ; ; ; r r r r s s s s & & & & ",
"t t t t j j j j r r r r u u u u ~ ~ ~ ~ < < < < u u u u v v v v w w w w x x x x q q q q y y y y & & & &         = = = = * * * * ",
"t t t t j j j j r r r r u u u u ~ ~ ~ ~ < < < < u u u u v v v v w w w w x x x x q q q q y y y y & & & &         = = = = * * * * ",
"t t t t j j j j r r r r u u u u ~ ~ ~ ~ < < < < u u u u v v v v w w w w x x x x q q q q y y y y & & & &         = = = = * * * * ",
"t t t t j j j j r r r r u u u u ~ ~ ~ ~ < < < < u u u u v v v v w w w w x x x x q q q q y y y y & & & &         = = = = * * * * ",
"t t t t , , , , ] ] ] ] 2 2 2 2 z z z z l l l l | | | | A A A A [ [ [ [ B B B B C C C C n n n n D D D D , , , , E E E E t t t t ",
"t t t t , , , , ] ] ] ] 2 2 2 2 z z z z l l l l | | | | A A A A [ [ [ [ B B B B C C C C n n n n D D D D , , , , E E E E t t t t ",
"t t t t , , , , ] ] ] ] 2 2 2 2 z z z z l l l l | | | | A A A A [ [ [ [ B B B B C C C C n n n n D D D D , , , , E E E E t t t t ",
"t t t t , , , , ] ] ] ] 2 2 2 2 z z z z l l l l | | | | A A A A [ [ [ [ B B B B C C C C n n n n D D D D , , , , E E E E t t t t ",
"] ] ] ] F F F F > > > > G G G G H H H H - - - - F F F F I I I I & & & & J J J J K K K K , , , , ] ] ] ] L L L L M M M M N N N N ",
"] ] ] ] F F F F > > > > G G G G H H H H - - - - F F F F I I I I & & & & J J J J K K K K , , , , ] ] ] ] L L L L M M M M N N N N ",
"] ] ] ] F F F F > > > > G G G G H H H H - - - - F F F F I I I I & & & & J J J J K K K K , , , , ] ] ] ] L L L L M M M M N N N N ",
"] ] ] ] F F F F > > > > G G G G H H H H - - - - F F F F I I I I & & & & J J J J K K K K , , , , ] ] ] ] L L L L M M M M N N N N ",
": : : : O O O O P P P P Q Q Q Q R R R R S S S S 4 4 4 4 T T T T . . . . ^ ^ ^ ^ U U U U V V V V W W W W X X X X N N N N - - - - ",
": : : : O O O O P P P P Q Q Q Q R R R R S S S S 4 4 4 4 T T T T . . . . ^ ^ ^ ^ U U U U V V V V W W W W X X X X N N N N - - - - ",
": : : : O O O O P P P P Q Q Q Q R R R R S S S S 4 4 4 4 T T T T . . . . ^ ^ ^ ^ U U U U V V V V W W W W X X X X N N N N - - - - ",
": : : : O O O O P P P P Q Q Q Q R R R R S S S S 4 4 4 4 T T T T . . . . ^ ^ ^ ^ U U U U V V V V W W W W X X X X N N N N - - - - ",
"& & & & Y Y Y Y Z Z Z Z ` ` ` `  . . . .........+.+.+.+.O O O O +.+.+.+.@.@.@.@.#.#.#.#.$.$.$.$.%.%.%.%.N N N N ] ] ] ] F F F F ",
"& & & & Y Y Y Y Z Z Z Z ` ` ` `  . . . .........+.+.+.+.O O O O +.+.+.+.@.@.@.@.#.#.#.#.$.$.$.$.%.%.%.%.N N N N ] ] ] ] F F F F ",
"& & & & Y Y Y Y Z Z Z Z ` ` ` `  . . . .........+.+.+.+.O O O O +.+.+.+.@.@.@.@.#.#.#.#.$.$.$.$.%.%.%.%.N N N N ] ] ] ] F F F F ",
"& & & & Y Y Y Y Z Z Z Z ` ` ` `  . . . .........+.+.+.+.O O O O +.+.+.+.@.@.@.@.#.#.#.#.$.$.$.$.%.%.%.%.N N N N ] ] ] ] F F F F ",
"&.&.&.&.*.*.*.*.=.=.=.=.-.-.-.-.;.;.;.;.>.>.>.>.. . . . 4 4 4 4 ^ ^ ^ ^ ,.,.,.,.'.'.'.'.).).).).!.!.!.!.        _ _ _ _ , , , , ",
"&.&.&.&.*.*.*.*.=.=.=.=.-.-.-.-.;.;.;.;.>.>.>.>.. . . . 4 4 4 4 ^ ^ ^ ^ ,.,.,.,.'.'.'.'.).).).).!.!.!.!.        _ _ _ _ , , , , ",
"&.&.&.&.*.*.*.*.=.=.=.=.-.-.-.-.;.;.;.;.>.>.>.>.. . . . 4 4 4 4 ^ ^ ^ ^ ,.,.,.,.'.'.'.'.).).).).!.!.!.!.        _ _ _ _ , , , , ",
"&.&.&.&.*.*.*.*.=.=.=.=.-.-.-.-.;.;.;.;.>.>.>.>.. . . . 4 4 4 4 ^ ^ ^ ^ ,.,.,.,.'.'.'.'.).).).).!.!.!.!.        _ _ _ _ , , , , ",
"[ [ [ [ 4 4 4 4 w w w w -.-.-.-.~.~.~.~.w w w w {.{.{.{.] ] ] ] 4 4 4 4 ] ] ] ] ].].].].^.^.^.^././././.~ ~ ~ ~ i i i i (.(.(.(.",
"[ [ [ [ 4 4 4 4 w w w w -.-.-.-.~.~.~.~.w w w w {.{.{.{.] ] ] ] 4 4 4 4 ] ] ] ] ].].].].^.^.^.^././././.~ ~ ~ ~ i i i i (.(.(.(.",
"[ [ [ [ 4 4 4 4 w w w w -.-.-.-.~.~.~.~.w w w w {.{.{.{.] ] ] ] 4 4 4 4 ] ] ] ] ].].].].^.^.^.^././././.~ ~ ~ ~ i i i i (.(.(.(.",
"[ [ [ [ 4 4 4 4 w w w w -.-.-.-.~.~.~.~.w w w w {.{.{.{.] ] ] ] 4 4 4 4 ] ] ] ] ].].].].^.^.^.^././././.~ ~ ~ ~ i i i i (.(.(.(.",
"N N N N T T T T /./././.B B B B a a a a _._._._././././.:.:.:.:.<.<.<.<._._._._.[.[.[.[.}.}.}.}.( ( ( ( |.|.|.|.1.1.1.1.B B B B ",
"N N N N T T T T /./././.B B B B a a a a _._._._././././.:.:.:.:.<.<.<.<._._._._.[.[.[.[.}.}.}.}.( ( ( ( |.|.|.|.1.1.1.1.B B B B ",
"N N N N T T T T /./././.B B B B a a a a _._._._././././.:.:.:.:.<.<.<.<._._._._.[.[.[.[.}.}.}.}.( ( ( ( |.|.|.|.1.1.1.1.B B B B ",
"N N N N T T T T /./././.B B B B a a a a _._._._././././.:.:.:.:.<.<.<.<._._._._.[.[.[.[.}.}.}.}.( ( ( ( |.|.|.|.1.1.1.1.B B B B ",
"N N N N , , , , 5 5 5 5 2.2.2.2.3.3.3.3.T T T T 4.4.4.4.H H H H 5.5.5.5.Z Z Z Z p p p p u u u u 6.6.6.6.F F F F 7.7.7.7.1.1.1.1.",
"N N N N , , , , 5 5 5 5 2.2.2.2.3.3.3.3.T T T T 4.4.4.4.H H H H 5.5.5.5.Z Z Z Z p p p p u u u u 6.6.6.6.F F F F 7.7.7.7.1.1.1.1.",
"N N N N , , , , 5 5 5 5 2.2.2.2.3.3.3.3.T T T T 4.4.4.4.H H H H 5.5.5.5.Z Z Z Z p p p p u u u u 6.6.6.6.F F F F 7.7.7.7.1.1.1.1.",
"N N N N , , , , 5 5 5 5 2.2.2.2.3.3.3.3.T T T T 4.4.4.4.H H H H 5.5.5.5.Z Z Z Z p p p p u u u u 6.6.6.6.F F F F 7.7.7.7.1.1.1.1.",
": : : : ^ ^ ^ ^ >.>.>.>.8.8.8.8.< < < < ] ] ] ] , , , , 9.9.9.9.0.0.0.0.        , , , , a.a.a.a.; ; ; ; 6.6.6.6.b.b.b.b.~.~.~.~.",
": : : : ^ ^ ^ ^ >.>.>.>.8.8.8.8.< < < < ] ] ] ] , , , , 9.9.9.9.0.0.0.0.        , , , , a.a.a.a.; ; ; ; 6.6.6.6.b.b.b.b.~.~.~.~.",
": : : : ^ ^ ^ ^ >.>.>.>.8.8.8.8.< < < < ] ] ] ] , , , , 9.9.9.9.0.0.0.0.        , , , , a.a.a.a.; ; ; ; 6.6.6.6.b.b.b.b.~.~.~.~.",
": : : : ^ ^ ^ ^ >.>.>.>.8.8.8.8.< < < < ] ] ] ] , , , , 9.9.9.9.0.0.0.0.        , , , , a.a.a.a.; ; ; ; 6.6.6.6.b.b.b.b.~.~.~.~.",
"D D D D c.c.c.c.~.~.~.~.d.d.d.d.F F F F ........* * * * - - - - e.e.e.e.; ; ; ; 9.9.9.9.S S S S I I I I 2 2 2 2 (.(.(.(.O O O O ",
"D D D D c.c.c.c.~.~.~.~.d.d.d.d.F F F F ........* * * * - - - - e.e.e.e.; ; ; ; 9.9.9.9.S S S S I I I I 2 2 2 2 (.(.(.(.O O O O ",
"D D D D c.c.c.c.~.~.~.~.d.d.d.d.F F F F ........* * * * - - - - e.e.e.e.; ; ; ; 9.9.9.9.S S S S I I I I 2 2 2 2 (.(.(.(.O O O O ",
"D D D D c.c.c.c.~.~.~.~.d.d.d.d.F F F F ........* * * * - - - - e.e.e.e.; ; ; ; 9.9.9.9.S S S S I I I I 2 2 2 2 (.(.(.(.O O O O "};
