/* XPM */
static char * C:\Users\qatar\Desktop\sentry_stone_xpm[] = {
"64 64 167 2",
"  	c #AFAFAF",
". 	c #AAAAAA",
"+ 	c #B5B5B5",
"@ 	c #B8B8B8",
"# 	c #B9B9B9",
"$ 	c #B4B4B4",
"% 	c #3E3E3E",
"& 	c #B0B0B0",
"* 	c #BABABA",
"= 	c #B2B2B2",
"- 	c #ADADAD",
"; 	c #5B5B5B",
"> 	c #A8A8A8",
", 	c #343434",
"' 	c #8B8B8B",
") 	c #303030",
"! 	c #787878",
"~ 	c #979797",
"{ 	c #777777",
"] 	c #434343",
"^ 	c #999999",
"/ 	c #ABABAB",
"( 	c #868686",
"_ 	c #A1A1A1",
": 	c #9A9A9A",
"< 	c #666666",
"[ 	c #4D4D4D",
"} 	c #121B27",
"| 	c #1A2638",
"1 	c #7C7C7C",
"2 	c #808080",
"3 	c #464646",
"4 	c #A9A9A9",
"5 	c #737373",
"6 	c #9C9C9C",
"7 	c #A0A0A0",
"8 	c #939393",
"9 	c #7F7F7F",
"0 	c #6F6F6F",
"a 	c #0F1621",
"b 	c #606060",
"c 	c #1F2D42",
"d 	c #8D8D8D",
"e 	c #8C8C8C",
"f 	c #5C5C5C",
"g 	c #989898",
"h 	c #6D6D6D",
"i 	c #949494",
"j 	c #6E6E6E",
"k 	c #5F5F5F",
"l 	c #7B7B7B",
"m 	c #8A8A8A",
"n 	c #494949",
"o 	c #828282",
"p 	c #B6B6B6",
"q 	c #575757",
"r 	c #25354E",
"s 	c #2B2B2B",
"t 	c #A3A3A3",
"u 	c #969696",
"v 	c #6C6C6C",
"w 	c #595959",
"x 	c #707070",
"y 	c #919191",
"z 	c #4F4F4F",
"A 	c #3C3C3C",
"B 	c #A6A6A6",
"C 	c #929292",
"D 	c #242424",
"E 	c #212121",
"F 	c #2E2E2E",
"G 	c #2D2D2D",
"H 	c #313131",
"I 	c #232328",
"J 	c #555761",
"K 	c #30323C",
"L 	c #515255",
"M 	c #676767",
"N 	c #4E4E4E",
"O 	c #ACADAF",
"P 	c #9A9DB1",
"Q 	c #9095BA",
"R 	c #7C83B6",
"S 	c #8A91C7",
"T 	c #9399C2",
"U 	c #A5A7B7",
"V 	c #5A5A5A",
"W 	c #5E5E5E",
"X 	c #757575",
"Y 	c #878787",
"Z 	c #1B1B1B",
"` 	c #969AB0",
" .	c #4A5182",
"..	c #5763B4",
"+.	c #3240A5",
"@.	c #4757BD",
"#.	c #5E6BC4",
"$.	c #525B99",
"%.	c #5A5C6E",
"&.	c #646464",
"*.	c #7D7D7D",
"=.	c #5B5C65",
"-.	c #959AC2",
";.	c #5561B3",
">.	c #47CFFF",
",.	c #47C8FF",
"'.	c #47BCFF",
").	c #47A7FF",
"!.	c #414EAF",
"~.	c #666DA2",
"{.	c #898989",
"].	c #858585",
"^.	c #525252",
"/.	c #282B3B",
"(.	c #8C94C8",
"_.	c #3947AC",
":.	c #2A3DC5",
"<.	c #2D44DD",
"[.	c #273DD9",
"}.	c #47A9FF",
"|.	c #5262D8",
"1.	c #3C468F",
"2.	c #767676",
"3.	c #8E8E8E",
"4.	c #888888",
"5.	c #848484",
"6.	c #232536",
"7.	c #8991C6",
"8.	c #4F5DC5",
"9.	c #3A4ED8",
"0.	c #47B6FF",
"a.	c #2A41E1",
"b.	c #4F60D9",
"c.	c #3B4694",
"d.	c #727272",
"e.	c #838383",
"f.	c #464753",
"g.	c #9398C4",
"h.	c #6471CB",
"i.	c #4254D0",
"j.	c #47BDFF",
"k.	c #47B0FF",
"l.	c #47C3FF",
"m.	c #5867D3",
"n.	c #636DAA",
"o.	c #909090",
"p.	c #616161",
"q.	c #424242",
"r.	c #979BB4",
"s.	c #6B73B1",
"t.	c #4755B5",
"u.	c #3E4FC1",
"v.	c #4A5AD0",
"w.	c #4756C0",
"x.	c #616CBD",
"y.	c #5A5F84",
"z.	c #585858",
"A.	c #535353",
"B.	c #0B0B0B",
"C.	c #373737",
"D.	c #3A3B3F",
"E.	c #343853",
"F.	c #1E255A",
"G.	c #303980",
"H.	c #2A357E",
"I.	c #232C6A",
"J.	c #4A4F72",
"        . . . .         + + + + @ @ @ @ # # # # $ $ $ $ % % % %         & & & & * * * * @ @ @ @ = = = =         - - - - ; ; ; ; ",
"        . . . .         + + + + @ @ @ @ # # # # $ $ $ $ % % % %         & & & & * * * * @ @ @ @ = = = =         - - - - ; ; ; ; ",
"        . . . .         + + + + @ @ @ @ # # # # $ $ $ $ % % % %         & & & & * * * * @ @ @ @ = = = =         - - - - ; ; ; ; ",
"        . . . .         + + + + @ @ @ @ # # # # $ $ $ $ % % % %         & & & & * * * * @ @ @ @ = = = =         - - - - ; ; ; ; ",
"> > > > , , , , ' ' ' ' ) ) ) ) ! ! ! ! ~ ~ ~ ~ { { { { ] ] ] ] > > > > ^ ^ ^ ^ / / / / ( ( ( ( _ _ _ _ : : : : ' ' ' ' < < < < ",
"> > > > , , , , ' ' ' ' ) ) ) ) ! ! ! ! ~ ~ ~ ~ { { { { ] ] ] ] > > > > ^ ^ ^ ^ / / / / ( ( ( ( _ _ _ _ : : : : ' ' ' ' < < < < ",
"> > > > , , , , ' ' ' ' ) ) ) ) ! ! ! ! ~ ~ ~ ~ { { { { ] ] ] ] > > > > ^ ^ ^ ^ / / / / ( ( ( ( _ _ _ _ : : : : ' ' ' ' < < < < ",
"> > > > , , , , ' ' ' ' ) ) ) ) ! ! ! ! ~ ~ ~ ~ { { { { ] ] ] ] > > > > ^ ^ ^ ^ / / / / ( ( ( ( _ _ _ _ : : : : ' ' ' ' < < < < ",
"+ + + + [ [ [ [ } } } } } } } } | | | | 1 1 1 1 2 2 2 2 3 3 3 3 + + + + 4 4 4 4 : : : : 5 5 5 5 6 6 6 6 7 7 7 7 8 8 8 8 9 9 9 9 ",
"+ + + + [ [ [ [ } } } } } } } } | | | | 1 1 1 1 2 2 2 2 3 3 3 3 + + + + 4 4 4 4 : : : : 5 5 5 5 6 6 6 6 7 7 7 7 8 8 8 8 9 9 9 9 ",
"+ + + + [ [ [ [ } } } } } } } } | | | | 1 1 1 1 2 2 2 2 3 3 3 3 + + + + 4 4 4 4 : : : : 5 5 5 5 6 6 6 6 7 7 7 7 8 8 8 8 9 9 9 9 ",
"+ + + + [ [ [ [ } } } } } } } } | | | | 1 1 1 1 2 2 2 2 3 3 3 3 + + + + 4 4 4 4 : : : : 5 5 5 5 6 6 6 6 7 7 7 7 8 8 8 8 9 9 9 9 ",
"@ @ @ @ 0 0 0 0 a a a a b b b b c c c c d d d d e e e e f f f f @ @ @ @ g g g g h h h h ( ( ( ( i i i i ^ ^ ^ ^ h h h h j j j j ",
"@ @ @ @ 0 0 0 0 a a a a b b b b c c c c d d d d e e e e f f f f @ @ @ @ g g g g h h h h ( ( ( ( i i i i ^ ^ ^ ^ h h h h j j j j ",
"@ @ @ @ 0 0 0 0 a a a a b b b b c c c c d d d d e e e e f f f f @ @ @ @ g g g g h h h h ( ( ( ( i i i i ^ ^ ^ ^ h h h h j j j j ",
"@ @ @ @ 0 0 0 0 a a a a b b b b c c c c d d d d e e e e f f f f @ @ @ @ g g g g h h h h ( ( ( ( i i i i ^ ^ ^ ^ h h h h j j j j ",
"+ + + + < < < < } } } } k k k k 2 2 2 2 l l l l m m m m n n n n + + + + o o o o o o o o ' ' ' ' 1 1 1 1 m m m m _ _ _ _ < < < < ",
"+ + + + < < < < } } } } k k k k 2 2 2 2 l l l l m m m m n n n n + + + + o o o o o o o o ' ' ' ' 1 1 1 1 m m m m _ _ _ _ < < < < ",
"+ + + + < < < < } } } } k k k k 2 2 2 2 l l l l m m m m n n n n + + + + o o o o o o o o ' ' ' ' 1 1 1 1 m m m m _ _ _ _ < < < < ",
"+ + + + < < < < } } } } k k k k 2 2 2 2 l l l l m m m m n n n n + + + + o o o o o o o o ' ' ' ' 1 1 1 1 m m m m _ _ _ _ < < < < ",
"p p p p q q q q } } } } } } } } | | | | r r r r 1 1 1 1 s s s s p p p p t t t t u u u u m m m m g g g g d d d d o o o o v v v v ",
"p p p p q q q q } } } } } } } } | | | | r r r r 1 1 1 1 s s s s p p p p t t t t u u u u m m m m g g g g d d d d o o o o v v v v ",
"p p p p q q q q } } } } } } } } | | | | r r r r 1 1 1 1 s s s s p p p p t t t t u u u u m m m m g g g g d d d d o o o o v v v v ",
"p p p p q q q q } } } } } } } } | | | | r r r r 1 1 1 1 s s s s p p p p t t t t u u u u m m m m g g g g d d d d o o o o v v v v ",
"/ / / / w w w w ! ! ! ! x x x x y y y y z z z z b b b b A A A A / / / / 1 1 1 1 7 7 7 7 B B B B d d d d C C C C : : : : ] ] ] ] ",
"/ / / / w w w w ! ! ! ! x x x x y y y y z z z z b b b b A A A A / / / / 1 1 1 1 7 7 7 7 B B B B d d d d C C C C : : : : ] ] ] ] ",
"/ / / / w w w w ! ! ! ! x x x x y y y y z z z z b b b b A A A A / / / / 1 1 1 1 7 7 7 7 B B B B d d d d C C C C : : : : ] ] ] ] ",
"/ / / / w w w w ! ! ! ! x x x x y y y y z z z z b b b b A A A A / / / / 1 1 1 1 7 7 7 7 B B B B d d d d C C C C : : : : ] ] ] ] ",
"D D D D ) ) ) ) E E E E D D D D F F F F ) ) ) ) G G G G D D D D D D D D H H H H I I I I J J J J K K K K L L L L M M M M D D D D ",
"D D D D ) ) ) ) E E E E D D D D F F F F ) ) ) ) G G G G D D D D D D D D H H H H I I I I J J J J K K K K L L L L M M M M D D D D ",
"D D D D ) ) ) ) E E E E D D D D F F F F ) ) ) ) G G G G D D D D D D D D H H H H I I I I J J J J K K K K L L L L M M M M D D D D ",
"D D D D ) ) ) ) E E E E D D D D F F F F ) ) ) ) G G G G D D D D D D D D H H H H I I I I J J J J K K K K L L L L M M M M D D D D ",
"        i i i i C C C C ^ ^ ^ ^         / / / / - - - - N N N N O O O O P P P P Q Q Q Q R R R R S S S S T T T T U U U U 8 8 8 8 ",
"        i i i i C C C C ^ ^ ^ ^         / / / / - - - - N N N N O O O O P P P P Q Q Q Q R R R R S S S S T T T T U U U U 8 8 8 8 ",
"        i i i i C C C C ^ ^ ^ ^         / / / / - - - - N N N N O O O O P P P P Q Q Q Q R R R R S S S S T T T T U U U U 8 8 8 8 ",
"        i i i i C C C C ^ ^ ^ ^         / / / / - - - - N N N N O O O O P P P P Q Q Q Q R R R R S S S S T T T T U U U U 8 8 8 8 ",
"> > > > z z z z V V V V W W W W 5 5 5 5 X X X X Y Y Y Y Z Z Z Z ` ` ` `  . . . .........+.+.+.+.@.@.@.@.#.#.#.#.$.$.$.$.%.%.%.%.",
"> > > > z z z z V V V V W W W W 5 5 5 5 X X X X Y Y Y Y Z Z Z Z ` ` ` `  . . . .........+.+.+.+.@.@.@.@.#.#.#.#.$.$.$.$.%.%.%.%.",
"> > > > z z z z V V V V W W W W 5 5 5 5 X X X X Y Y Y Y Z Z Z Z ` ` ` `  . . . .........+.+.+.+.@.@.@.@.#.#.#.#.$.$.$.$.%.%.%.%.",
"> > > > z z z z V V V V W W W W 5 5 5 5 X X X X Y Y Y Y Z Z Z Z ` ` ` `  . . . .........+.+.+.+.@.@.@.@.#.#.#.#.$.$.$.$.%.%.%.%.",
"+ + + + ( ( ( ( b b b b x x x x &.&.&.&.o o o o *.*.*.*.=.=.=.=.-.-.-.-.;.;.;.;.>.>.>.>.,.,.,.,.'.'.'.'.).).).).!.!.!.!.~.~.~.~.",
"+ + + + ( ( ( ( b b b b x x x x &.&.&.&.o o o o *.*.*.*.=.=.=.=.-.-.-.-.;.;.;.;.>.>.>.>.,.,.,.,.'.'.'.'.).).).).!.!.!.!.~.~.~.~.",
"+ + + + ( ( ( ( b b b b x x x x &.&.&.&.o o o o *.*.*.*.=.=.=.=.-.-.-.-.;.;.;.;.>.>.>.>.,.,.,.,.'.'.'.'.).).).).!.!.!.!.~.~.~.~.",
"+ + + + ( ( ( ( b b b b x x x x &.&.&.&.o o o o *.*.*.*.=.=.=.=.-.-.-.-.;.;.;.;.>.>.>.>.,.,.,.,.'.'.'.'.).).).).!.!.!.!.~.~.~.~.",
"@ @ @ @ { { { { {.{.{.{.{.{.{.{.&.&.&.&.].].].].^.^.^.^././././.(.(.(.(._._._._.:.:.:.:.<.<.<.<.[.[.[.[.}.}.}.}.|.|.|.|.1.1.1.1.",
"@ @ @ @ { { { { {.{.{.{.{.{.{.{.&.&.&.&.].].].].^.^.^.^././././.(.(.(.(._._._._.:.:.:.:.<.<.<.<.[.[.[.[.}.}.}.}.|.|.|.|.1.1.1.1.",
"@ @ @ @ { { { { {.{.{.{.{.{.{.{.&.&.&.&.].].].].^.^.^.^././././.(.(.(.(._._._._.:.:.:.:.<.<.<.<.[.[.[.[.}.}.}.}.|.|.|.|.1.1.1.1.",
"@ @ @ @ { { { { {.{.{.{.{.{.{.{.&.&.&.&.].].].].^.^.^.^././././.(.(.(.(._._._._.:.:.:.:.<.<.<.<.[.[.[.[.}.}.}.}.|.|.|.|.1.1.1.1.",
"+ + + + 2.2.2.2.3.3.3.3.! ! ! ! 0 0 0 0 4.4.4.4.5.5.5.5.6.6.6.6.7.7.7.7.8.8.8.8.9.9.9.9.0.0.0.0.a.a.a.a.'.'.'.'.b.b.b.b.c.c.c.c.",
"+ + + + 2.2.2.2.3.3.3.3.! ! ! ! 0 0 0 0 4.4.4.4.5.5.5.5.6.6.6.6.7.7.7.7.8.8.8.8.9.9.9.9.0.0.0.0.a.a.a.a.'.'.'.'.b.b.b.b.c.c.c.c.",
"+ + + + 2.2.2.2.3.3.3.3.! ! ! ! 0 0 0 0 4.4.4.4.5.5.5.5.6.6.6.6.7.7.7.7.8.8.8.8.9.9.9.9.0.0.0.0.a.a.a.a.'.'.'.'.b.b.b.b.c.c.c.c.",
"+ + + + 2.2.2.2.3.3.3.3.! ! ! ! 0 0 0 0 4.4.4.4.5.5.5.5.6.6.6.6.7.7.7.7.8.8.8.8.9.9.9.9.0.0.0.0.a.a.a.a.'.'.'.'.b.b.b.b.c.c.c.c.",
"p p p p d d d d o o o o m m m m Y Y Y Y d.d.d.d.e.e.e.e.f.f.f.f.g.g.g.g.h.h.h.h.i.i.i.i.j.j.j.j.k.k.k.k.l.l.l.l.m.m.m.m.n.n.n.n.",
"p p p p d d d d o o o o m m m m Y Y Y Y d.d.d.d.e.e.e.e.f.f.f.f.g.g.g.g.h.h.h.h.i.i.i.i.j.j.j.j.k.k.k.k.l.l.l.l.m.m.m.m.n.n.n.n.",
"p p p p d d d d o o o o m m m m Y Y Y Y d.d.d.d.e.e.e.e.f.f.f.f.g.g.g.g.h.h.h.h.i.i.i.i.j.j.j.j.k.k.k.k.l.l.l.l.m.m.m.m.n.n.n.n.",
"p p p p d d d d o o o o m m m m Y Y Y Y d.d.d.d.e.e.e.e.f.f.f.f.g.g.g.g.h.h.h.h.i.i.i.i.j.j.j.j.k.k.k.k.l.l.l.l.m.m.m.m.n.n.n.n.",
"/ / / / Y Y Y Y ' ' ' ' 8 8 8 8 o.o.o.o.p.p.p.p.].].].].q.q.q.q.r.r.r.r.s.s.s.s.t.t.t.t.u.u.u.u.v.v.v.v.w.w.w.w.x.x.x.x.y.y.y.y.",
"/ / / / Y Y Y Y ' ' ' ' 8 8 8 8 o.o.o.o.p.p.p.p.].].].].q.q.q.q.r.r.r.r.s.s.s.s.t.t.t.t.u.u.u.u.v.v.v.v.w.w.w.w.x.x.x.x.y.y.y.y.",
"/ / / / Y Y Y Y ' ' ' ' 8 8 8 8 o.o.o.o.p.p.p.p.].].].].q.q.q.q.r.r.r.r.s.s.s.s.t.t.t.t.u.u.u.u.v.v.v.v.w.w.w.w.x.x.x.x.y.y.y.y.",
"/ / / / Y Y Y Y ' ' ' ' 8 8 8 8 o.o.o.o.p.p.p.p.].].].].q.q.q.q.r.r.r.r.s.s.s.s.t.t.t.t.u.u.u.u.v.v.v.v.w.w.w.w.x.x.x.x.y.y.y.y.",
"D D D D z.z.z.z.A.A.A.A.) ) ) ) B.B.B.B.C.C.C.C.] ] ] ] D D D D D.D.D.D.E.E.E.E.F.F.F.F.G.G.G.G.H.H.H.H.I.I.I.I.J.J.J.J.D D D D ",
"D D D D z.z.z.z.A.A.A.A.) ) ) ) B.B.B.B.C.C.C.C.] ] ] ] D D D D D.D.D.D.E.E.E.E.F.F.F.F.G.G.G.G.H.H.H.H.I.I.I.I.J.J.J.J.D D D D ",
"D D D D z.z.z.z.A.A.A.A.) ) ) ) B.B.B.B.C.C.C.C.] ] ] ] D D D D D.D.D.D.E.E.E.E.F.F.F.F.G.G.G.G.H.H.H.H.I.I.I.I.J.J.J.J.D D D D ",
"D D D D z.z.z.z.A.A.A.A.) ) ) ) B.B.B.B.C.C.C.C.] ] ] ] D D D D D.D.D.D.E.E.E.E.F.F.F.F.G.G.G.G.H.H.H.H.I.I.I.I.J.J.J.J.D D D D "};
