/* XPM */
static char * C:\Users\qatar\Desktop\skyroot_bookshelf_xpm[] = {
"64 64 34 1",
" 	c #6A6042",
".	c #5F5537",
"+	c #554B2D",
"@	c #3F3517",
"#	c #2C2213",
"$	c #271E11",
"%	c #5B1B24",
"&	c #49151D",
"*	c #5B2478",
"=	c #461C5C",
"-	c #2F5F39",
";	c #295131",
">	c #362A15",
",	c #3F2E18",
"'	c #868686",
")	c #666666",
"!	c #425B1B",
"~	c #334414",
"{	c #847A5C",
"]	c #363636",
"^	c #2E2E2E",
"/	c #2C1827",
"(	c #2A1625",
"_	c #63593C",
":	c #766C4E",
"<	c #665C3E",
"[	c #6A1A3C",
"}	c #571531",
"|	c #551554",
"1	c #4A1248",
"2	c #3D0F3C",
"3	c #41311A",
"4	c #24141F",
"5	c #233927",
"    ........++++++++@@@@++++++++++++................++++....    ",
"    ........++++++++@@@@++++++++++++................++++....    ",
"    ........++++++++@@@@++++++++++++................++++....    ",
"    ........++++++++@@@@++++++++++++................++++....    ",
"    ####$$$$$$$$$$$$$$$$%%%%&&&&########$$$$$$$$$$$$$$$$####    ",
"    ####$$$$$$$$$$$$$$$$%%%%&&&&########$$$$$$$$$$$$$$$$####    ",
"    ####$$$$$$$$$$$$$$$$%%%%&&&&########$$$$$$$$$$$$$$$$####    ",
"    ####$$$$$$$$$$$$$$$$%%%%&&&&########$$$$$$$$$$$$$$$$####    ",
"    ****====####----;;;;%%%%&&&&>>>>########%%%%&&&&,,,,####    ",
"    ****====####----;;;;%%%%&&&&>>>>########%%%%&&&&,,,,####    ",
"    ****====####----;;;;%%%%&&&&>>>>########%%%%&&&&,,,,####    ",
"    ****====####----;;;;%%%%&&&&>>>>########%%%%&&&&,,,,####    ",
"++++''''))))!!!!----;;;;%%%%&&&&****====>>>>%%%%&&&&!!!!~~~~++++",
"++++''''))))!!!!----;;;;%%%%&&&&****====>>>>%%%%&&&&!!!!~~~~++++",
"++++''''))))!!!!----;;;;%%%%&&&&****====>>>>%%%%&&&&!!!!~~~~++++",
"++++''''))))!!!!----;;;;%%%%&&&&****====>>>>%%%%&&&&!!!!~~~~++++",
"{{{{****====!!!!----;;;;]]]]^^^^****====,,,,%%%%&&&&'''')))){{{{",
"{{{{****====!!!!----;;;;]]]]^^^^****====,,,,%%%%&&&&'''')))){{{{",
"{{{{****====!!!!----;;;;]]]]^^^^****====,,,,%%%%&&&&'''')))){{{{",
"{{{{****====!!!!----;;;;]]]]^^^^****====,,,,%%%%&&&&'''')))){{{{",
"    ****====!!!!----;;;;]]]]^^^^////****====%%%%&&&&!!!!~~~~    ",
"    ****====!!!!----;;;;]]]]^^^^////****====%%%%&&&&!!!!~~~~    ",
"    ****====!!!!----;;;;]]]]^^^^////****====%%%%&&&&!!!!~~~~    ",
"    ****====!!!!----;;;;]]]]^^^^////****====%%%%&&&&!!!!~~~~    ",
"    ****====!!!!----;;;;%%%%&&&&((((****====%%%%&&&&!!!!~~~~....",
"    ****====!!!!----;;;;%%%%&&&&((((****====%%%%&&&&!!!!~~~~....",
"    ****====!!!!----;;;;%%%%&&&&((((****====%%%%&&&&!!!!~~~~....",
"    ****====!!!!----;;;;%%%%&&&&((((****====%%%%&&&&!!!!~~~~....",
"++++____::::::::{{{{{{{{{{{{::::        ::::::::::::        ++++",
"++++____::::::::{{{{{{{{{{{{::::        ::::::::::::        ++++",
"++++____::::::::{{{{{{{{{{{{::::        ::::::::::::        ++++",
"++++____::::::::{{{{{{{{{{{{::::        ::::::::::::        ++++",
"<<<<++++++++........@@@@....++++++++............++++++++@@@@    ",
"<<<<++++++++........@@@@....++++++++............++++++++@@@@    ",
"<<<<++++++++........@@@@....++++++++............++++++++@@@@    ",
"<<<<++++++++........@@@@....++++++++............++++++++@@@@    ",
"    $$$$$$$$$$$$$$$$$$$$$$$$############$$$$$$$$----;;;;####    ",
"    $$$$$$$$$$$$$$$$$$$$$$$$############$$$$$$$$----;;;;####    ",
"    $$$$$$$$$$$$$$$$$$$$$$$$############$$$$$$$$----;;;;####    ",
"    $$$$$$$$$$$$$$$$$$$$$$$$############$$$$$$$$----;;;;####    ",
"    $$$$####>>>>****====########>>>>[[[[}}}}####----;;;;>>>>    ",
"    $$$$####>>>>****====########>>>>[[[[}}}}####----;;;;>>>>    ",
"    $$$$####>>>>****====########>>>>[[[[}}}}####----;;;;>>>>    ",
"    $$$$####>>>>****====########>>>>[[[[}}}}####----;;;;>>>>    ",
"++++||||11112222****====>>>>3333&&&&''''))))====----;;;;!!!!@@@@",
"++++||||11112222****====>>>>3333&&&&''''))))====----;;;;!!!!@@@@",
"++++||||11112222****====>>>>3333&&&&''''))))====----;;;;!!!!@@@@",
"++++||||11112222****====>>>>3333&&&&''''))))====----;;;;!!!!@@@@",
"{{{{||||11112222****====---->>>>&&&&''''))))====----;;;;!!!!{{{{",
"{{{{||||11112222****====---->>>>&&&&''''))))====----;;;;!!!!{{{{",
"{{{{||||11112222****====---->>>>&&&&''''))))====----;;;;!!!!{{{{",
"{{{{||||11112222****====---->>>>&&&&''''))))====----;;;;!!!!{{{{",
"    ||||11112222****====----&&&&4444[[[[}}}}====----;;;;!!!!    ",
"    ||||11112222****====----&&&&4444[[[[}}}}====----;;;;!!!!    ",
"    ||||11112222****====----&&&&4444[[[[}}}}====----;;;;!!!!    ",
"    ||||11112222****====----&&&&4444[[[[}}}}====----;;;;!!!!    ",
"....||||11112222****====----&&&&////[[[[}}}}====----5555!!!!    ",
"....||||11112222****====----&&&&////[[[[}}}}====----5555!!!!    ",
"....||||11112222****====----&&&&////[[[[}}}}====----5555!!!!    ",
"....||||11112222****====----&&&&////[[[[}}}}====----5555!!!!    ",
"    ::::::::{{{{{{{{{{{{::::        ::::::::::::::::            ",
"    ::::::::{{{{{{{{{{{{::::        ::::::::::::::::            ",
"    ::::::::{{{{{{{{{{{{::::        ::::::::::::::::            ",
"    ::::::::{{{{{{{{{{{{::::        ::::::::::::::::            "};
