/* XPM */
static char * C:\Users\qatar\Desktop\skyroot_log_side_xpm[] = {
"64 64 15 1",
" 	c #494937",
".	c #686856",
"+	c #323220",
"@	c #7B7B69",
"#	c #5A5A48",
"$	c #2B2B19",
"%	c #5F5F4D",
"&	c #61614F",
"*	c #454533",
"=	c #565644",
"-	c #595947",
";	c #60604E",
">	c #464634",
",	c #5E5E4C",
"'	c #474735",
"    ....++++        @@@@++++        @@@@    ++++....++++    ####",
"    ....++++        @@@@++++        @@@@    ++++....++++    ####",
"    ....++++        @@@@++++        @@@@    ++++....++++    ####",
"    ....++++        @@@@++++        @@@@    ++++....++++    ####",
"    ....$$$$####    @@@@$$$$####    @@@@    ++++....        ####",
"    ....$$$$####    @@@@$$$$####    @@@@    ++++....        ####",
"    ....$$$$####    @@@@$$$$####    @@@@    ++++....        ####",
"    ....$$$$####    @@@@$$$$####    @@@@    ++++....        ####",
"    @@@@########    @@@@$$$$####    ....    ........        ####",
"    @@@@########    @@@@$$$$####    ....    ........        ####",
"    @@@@########    @@@@$$$$####    ....    ........        ####",
"    @@@@########    @@@@$$$$####    ....    ........        ####",
"++++@@@@    ####    ....    ####    ####    @@@@%%%%    ++++####",
"++++@@@@    ####    ....    ####    ####    @@@@%%%%    ++++####",
"++++@@@@    ####    ....    ####    ####    @@@@%%%%    ++++####",
"++++@@@@    ####    ....    ####    ####    @@@@%%%%    ++++####",
"++++&&&&    ####    @@@@    ####$$$$####    ####    &&&&++++    ",
"++++&&&&    ####    @@@@    ####$$$$####    ####    &&&&++++    ",
"++++&&&&    ####    @@@@    ####$$$$####    ####    &&&&++++    ",
"++++&&&&    ####    @@@@    ####$$$$####    ####    &&&&++++    ",
"++++    %%%%    ++++....    ....$$$$####++++....    ....++++    ",
"++++    %%%%    ++++....    ....$$$$####++++....    ....++++    ",
"++++    %%%%    ++++....    ....$$$$####++++....    ....++++    ",
"++++    %%%%    ++++....    ....$$$$####++++....    ....++++    ",
"####    ....    ++++########****++++    ++++        ....++++    ",
"####    ....    ++++########****++++    ++++        ....++++    ",
"####    ....    ++++########****++++    ++++        ....++++    ",
"####    ....    ++++########****++++    ++++        ....++++    ",
"####    @@@@    ++++    ####++++****    ++++####    ####++++    ",
"####    @@@@    ++++    ####++++****    ++++####    ####++++    ",
"####    @@@@    ++++    ####++++****    ++++####    ####++++    ",
"####    @@@@    ++++    ####++++****    ++++####    ####++++    ",
"    ....@@@@$$$$        ####++++    ####++++####++++####++++    ",
"    ....@@@@$$$$        ####++++    ####++++####++++####++++    ",
"    ....@@@@$$$$        ####++++    ####++++####++++####++++    ",
"    ....@@@@$$$$        ####++++    ####++++####++++####++++    ",
"        ....$$$$        ====        ####++++....++++    @@@@    ",
"        ....$$$$        ====        ####++++....++++    @@@@    ",
"        ....$$$$        ====        ####++++....++++    @@@@    ",
"        ....$$$$        ====        ####++++....++++    @@@@    ",
"            ++++    ----    @@@@    ####    ....++++    @@@@    ",
"            ++++    ----    @@@@    ####    ....++++    @@@@    ",
"            ++++    ----    @@@@    ####    ....++++    @@@@    ",
"            ++++    ----    @@@@    ####    ....++++    @@@@    ",
"    ....    ++++****####    @@@@$$$$        @@@@$$$$    ....    ",
"    ....    ++++****####    @@@@$$$$        @@@@$$$$    ....    ",
"    ....    ++++****####    @@@@$$$$        @@@@$$$$    ....    ",
"    ....    ++++****####    @@@@$$$$        @@@@$$$$    ....    ",
"$$$$;;;;    >>>>++++####++++@@@@$$$$####    @@@@        ####    ",
"$$$$;;;;    >>>>++++####++++@@@@$$$$####    @@@@        ####    ",
"$$$$;;;;    >>>>++++####++++@@@@$$$$####    @@@@        ####    ",
"$$$$;;;;    >>>>++++####++++@@@@$$$$####    @@@@        ####    ",
"$$$$    ,,,,****++++        ....++++####    ....                ",
"$$$$    ,,,,****++++        ....++++####    ....                ",
"$$$$    ,,,,****++++        ....++++####    ....                ",
"$$$$    ,,,,****++++        ....++++####    ....                ",
"++++    ....++++''''    ++++@@@@    ....    ........++++        ",
"++++    ....++++''''    ++++@@@@    ....    ........++++        ",
"++++    ....++++''''    ++++@@@@    ....    ........++++        ",
"++++    ....++++''''    ++++@@@@    ....    ........++++        ",
"++++    ....++++....    ++++....    ....        ....++++    ####",
"++++    ....++++....    ++++....    ....        ....++++    ####",
"++++    ....++++....    ++++....    ....        ....++++    ####",
"++++    ....++++....    ++++....    ....        ....++++    ####"};
