/* XPM */
static char * bookshelf_xpm[] = {
"64 64 387 2",
"  	c #C57F54",
". 	c #DBA274",
"+ 	c #E4AA7A",
"@ 	c #E5AA7A",
"# 	c #E1A677",
"$ 	c #E0A475",
"% 	c #C88459",
"& 	c #BC7850",
"* 	c #836350",
"= 	c #D7A074",
"- 	c #E2A777",
"; 	c #E3A777",
"> 	c #E5A97A",
", 	c #DEA374",
"' 	c #B0724F",
") 	c #D9A174",
"! 	c #CD8B5F",
"~ 	c #BF784E",
"{ 	c #985C40",
"] 	c #785A4B",
"^ 	c #B97952",
"/ 	c #BE7C52",
"( 	c #BF7D53",
"_ 	c #CA875C",
": 	c #C58157",
"< 	c #9C5D40",
"[ 	c #73584A",
"} 	c #BF7C53",
"| 	c #C78358",
"1 	c #9F5D3E",
"2 	c #93573C",
"3 	c #563D32",
"4 	c #4D3931",
"5 	c #4E3A31",
"6 	c #533A31",
"7 	c #543A31",
"8 	c #513A31",
"9 	c #684B3B",
"0 	c #DBA173",
"a 	c #E2A677",
"b 	c #C27E53",
"c 	c #9A5B3D",
"d 	c #473631",
"e 	c #4B3931",
"f 	c #614235",
"g 	c #A05D3E",
"h 	c #97573B",
"i 	c #43332E",
"j 	c #322E2D",
"k 	c #3D2F2D",
"l 	c #7A3630",
"m 	c #7E3630",
"n 	c #7E3730",
"o 	c #803A31",
"p 	c #7A3530",
"q 	c #7C3630",
"r 	c #67332F",
"s 	c #6A352F",
"t 	c #6B352F",
"u 	c #68342F",
"v 	c #79483A",
"w 	c #DEA476",
"x 	c #813A31",
"y 	c #7D3630",
"z 	c #6D352F",
"A 	c #733E33",
"B 	c #C07C53",
"C 	c #47312D",
"D 	c #A54531",
"E 	c #AB4732",
"F 	c #AA4732",
"G 	c #A74532",
"H 	c #A84632",
"I 	c #AB4932",
"J 	c #A94832",
"K 	c #B95B37",
"L 	c #B75B37",
"M 	c #863930",
"N 	c #A64632",
"O 	c #853930",
"P 	c #A64532",
"Q 	c #984230",
"R 	c #964230",
"S 	c #9F513B",
"T 	c #E0A476",
"U 	c #46302D",
"V 	c #A14431",
"W 	c #B85C38",
"X 	c #A54532",
"Y 	c #A34531",
"Z 	c #944130",
"` 	c #934130",
" .	c #974833",
"..	c #C27C53",
"+.	c #48312D",
"@.	c #AE4832",
"#.	c #8A3A30",
"$.	c #8C3D31",
"%.	c #B35837",
"&.	c #883B31",
"*.	c #8A3A31",
"=.	c #A74732",
"-.	c #893C31",
";.	c #8B3F32",
">.	c #AC4832",
",.	c #9C4330",
"'.	c #9A4330",
").	c #A2523B",
"!.	c #8E3B31",
"~.	c #873930",
"{.	c #A54432",
"].	c #342E2D",
"^.	c #442F2D",
"/.	c #462F2E",
"(.	c #452F2E",
"_.	c #422F2D",
":.	c #3E2F2D",
"<.	c #BF7C52",
"[.	c #A84532",
"}.	c #AA4632",
"|.	c #6A342F",
"1.	c #A44531",
"2.	c #954130",
"3.	c #5D4539",
"4.	c #DDA476",
"5.	c #783530",
"6.	c #6C352F",
"7.	c #65332F",
"8.	c #332E2D",
"9.	c #3C2F2D",
"0.	c #42312F",
"a.	c #42322F",
"b.	c #3F312F",
"c.	c #3E312F",
"d.	c #3C312E",
"e.	c #533B32",
"f.	c #AC4932",
"g.	c #A44632",
"h.	c #39312E",
"i.	c #67483A",
"j.	c #6B4A3B",
"k.	c #6F4D3D",
"l.	c #684A3C",
"m.	c #6A4A3B",
"n.	c #69493B",
"o.	c #5D4439",
"p.	c #584339",
"q.	c #674A3C",
"r.	c #914132",
"s.	c #8E3F32",
"t.	c #93563B",
"u.	c #99593C",
"v.	c #9C5C3E",
"w.	c #B5734C",
"x.	c #855944",
"y.	c #9A5C3E",
"z.	c #96583D",
"A.	c #98593C",
"B.	c #96583C",
"C.	c #83523D",
"D.	c #81523D",
"E.	c #88563F",
"F.	c #C17D53",
"G.	c #833830",
"H.	c #9C5A3C",
"I.	c #BB764E",
"J.	c #875A44",
"K.	c #9D5D3F",
"L.	c #9A5A3D",
"M.	c #9A593C",
"N.	c #86543D",
"O.	c #84533D",
"P.	c #8B573F",
"Q.	c #44342F",
"R.	c #A36040",
"S.	c #885A45",
"T.	c #A06040",
"U.	c #9D5D3E",
"V.	c #9E5D3E",
"W.	c #87543D",
"X.	c #38312E",
"Y.	c #3A312E",
"Z.	c #5C463A",
"`.	c #4B3831",
" +	c #B3714B",
".+	c #BA754D",
"++	c #BA764D",
"@+	c #B8754E",
"#+	c #895C45",
"$+	c #B6734C",
"%+	c #87553E",
"&+	c #493630",
"*+	c #66483B",
"=+	c #6A493B",
"-+	c #5B4439",
";+	c #6E5242",
">+	c #3A322F",
",+	c #6D4C3C",
"'+	c #704E3D",
")+	c #704D3D",
"!+	c #63483B",
"~+	c #594439",
"{+	c #503830",
"]+	c #95583C",
"^+	c #724D3C",
"/+	c #92573C",
"(+	c #995B3E",
"_+	c #98583C",
":+	c #8D5D45",
"<+	c #DFA576",
"[+	c #44332E",
"}+	c #76503E",
"|+	c #B7734C",
"1+	c #4C342F",
"2+	c #803930",
"3+	c #6F3830",
"4+	c #66493B",
"5+	c #54362F",
"6+	c #863830",
"7+	c #B65B37",
"8+	c #AA4932",
"9+	c #9B4933",
"0+	c #45342F",
"a+	c #493830",
"b+	c #4A3831",
"c+	c #42342F",
"d+	c #41332F",
"e+	c #5F483A",
"f+	c #533B31",
"g+	c #9F6744",
"h+	c #A56A45",
"i+	c #A26642",
"j+	c #A46945",
"k+	c #A36945",
"l+	c #8B563A",
"m+	c #885439",
"n+	c #854F35",
"o+	c #844E35",
"p+	c #905A3E",
"q+	c #5B4336",
"r+	c #C59161",
"s+	c #CC9765",
"t+	c #C99362",
"u+	c #AE714A",
"v+	c #C69060",
"w+	c #AE724A",
"x+	c #CB9865",
"y+	c #CE9C67",
"z+	c #CA9564",
"A+	c #C89362",
"B+	c #B2724A",
"C+	c #B06E47",
"D+	c #B5754D",
"E+	c #392E2D",
"F+	c #382E2D",
"G+	c #B0784D",
"H+	c #DDBF7A",
"I+	c #E1C47E",
"J+	c #E0C17C",
"K+	c #CE9B67",
"L+	c #36302E",
"M+	c #4F3B32",
"N+	c #A26643",
"O+	c #A87149",
"P+	c #A8724A",
"Q+	c #A87249",
"R+	c #A56B46",
"S+	c #6E4D3D",
"T+	c #5A443A",
"U+	c #45352F",
"V+	c #46362F",
"W+	c #47362F",
"X+	c #4D3630",
"Y+	c #4E3630",
"Z+	c #4A362F",
"`+	c #44322E",
" @	c #43322E",
".@	c #604739",
"+@	c #845944",
"@@	c #94583D",
"#@	c #77473A",
"$@	c #98593D",
"%@	c #853830",
"&@	c #964130",
"*@	c #8D4A3B",
"=@	c #DFA476",
"-@	c #BA5C37",
";@	c #B04A33",
">@	c #823830",
",@	c #A0523B",
"'@	c #48312E",
")@	c #A94932",
"!@	c #BB5D38",
"~@	c #B14D33",
"{@	c #B04B33",
"]@	c #823730",
"^@	c #803630",
"/@	c #352F2D",
"(@	c #4C342E",
"_@	c #BD5D37",
":@	c #BE5E38",
"<@	c #893B31",
"[@	c #463630",
"}@	c #A77149",
"|@	c #A46944",
"1@	c #A56F48",
"2@	c #895538",
"3@	c #885438",
"4@	c #8B5338",
"5@	c #A64732",
"6@	c #504034",
"7@	c #DFC07B",
"8@	c #C18E5A",
"9@	c #CB9563",
"0@	c #BF8D59",
"a@	c #C69160",
"b@	c #AA6C46",
"c@	c #AF6E47",
"d@	c #B17048",
"e@	c #C47F54",
"f@	c #504035",
"g@	c #C89564",
"h@	c #D19F6A",
"i@	c #E3C67F",
"j@	c #C3915C",
"k@	c #CE9966",
"l@	c #CB9663",
"m@	c #B5754C",
"n@	c #B37149",
"o@	c #B4724A",
"p@	c #5A4539",
"q@	c #C79161",
"r@	c #594639",
"s@	c #905E45",
"t@	c #332F2D",
"u@	c #3E3330",
"v@	c #3F3430",
"w@	c #5B473A",
"x@	c #513D33",
"y@	c #B8774F",
"z@	c #793530",
"A@	c #7D3730",
"B@	c #843A31",
"C@	c #823A31",
"D@	c #803730",
"E@	c #362F2D",
"F@	c #553C31",
"G@	c #543C31",
"H@	c #49352E",
"I@	c #48342E",
"J@	c #634839",
"K@	c #7E3930",
"L@	c #45332E",
"M@	c #3F2F2D",
"N@	c #93563C",
"O@	c #4F3830",
"P@	c #523A30",
"Q@	c #523A31",
"R@	c #4D372F",
"S@	c #4D362F",
"T@	c #654839",
"U@	c #D9A073",
"V@	c #4A342F",
"W@	c #4B342F",
"X@	c #48342F",
"Y@	c #5B3E32",
"Z@	c #985B3F",
"`@	c #694C43",
" #	c #A96A49",
".#	c #D99E70",
"+#	c #C27D53",
"@#	c #975B3F",
"##	c #614A42",
"$#	c #92563C",
"%#	c #C07B52",
"&#	c #BC784F",
"*#	c #745446",
"=#	c #A05E3F",
"-#	c #A96846",
";#	c #BA764E",
">#	c #A05E3E",
",#	c #A66342",
"'#	c #C17B50",
")#	c #BF794F",
"!#	c #C17A50",
"~#	c #C27B50",
"{#	c #C58054",
"  . + @ @ @ @ @ @ @ @ @ @ @ @ @ @ @ @ @ @ @ @ @ @ @ @ @ @ @ @ @ @ # @ @ @ @ @ @ @ @ @ @ @ @ @ @ @ @ @ @ @ @ @ @ @ @ @ @ @ @ $ % ",
"& * = - - - - - - - - - - - - - - - - - - - - - - - - - - - ; > , ' ) - - - - - - - - - - - - - - - - - - - - - - - - - - $ ! $ ",
"~ { ] ^ / / / / / / / / / / / / / / / / / / / / / / / / / ( _ $ : < [ ^ / / / / / / / / / / / / / / / / / / / / / / / / } | $ @ ",
"~ 1 2 3 4 4 5 6 7 7 7 7 7 7 7 7 7 7 7 7 7 7 7 7 8 8 8 8 8 9 0 a b c d e 5 6 7 7 7 7 7 7 7 7 7 7 7 7 7 7 7 7 8 8 8 8 8 8 f } - @ ",
"~ g h i j j k l m m m m m m m m m n o o n m p q r s t u u v w - b c i j k l m n o x x x x x x x x o n m m y z t t t u u A B - @ ",
"~ g h i j j C D E E E E F G H I H J K L J J M N O P H Q R S T - b c i j U V G J L W W W W W W W W L J G G G P P X Y Z `  ...- @ ",
"~ g h i j j +.H @.@.@.@.H #.$.%.&.*.=.$.-.L ;.L -.E >.,.'.).T - b c i j k l m n o x x x x x x x x o n m m m m y z t u u A B - @ ",
"~ g h i j j +.H @.@.@.E !.H H $.~.{.!.{.$.L ;.L -.E >.,.'.).T - b c i j ].^./././././././././././././././././.(._._.:.:.7 <.- @ ",
"~ g h i j j C D E E E F [.F F G G }.[.}.H J M N O P H Q R S T - b c i j k l m n o x x x x x x x x x o n m m m m m q |.u A B - @ ",
"~ g h i j j k l m m m m m m m m m m m m m m p q r s t u u v w - b c i j U V G J L W W W W W W W W W L J G G G P P 1.2.`  ...- @ ",
"~ g h i j j ].^././././././././././././././.(._.:.:.:.:.:.3.4.- b c i j k l m n o x x x x x x x x x o n m m y z t t u u A B - @ ",
"~ g h i j j k l m m m m m m m m m m m m m m 5.6.7.s t u u v w - b c i j 8.9.0.a.a.a.a.a.a.a.a.a.a.a.a.a.a.a.a.b.c.d.d.d.e.<.- @ ",
"~ g h i j j C D E E E F H I H f.f.H I H H J M g.O P H Q R S T - b c i j j h.i.j.j.j.j.j.j.j.j.j.j.j.k.l.j.k.l.m.n.o.p.p.q.} - @ ",
"~ g h i j j +.H @.@.@.E $.%.r.L L s.%.$.-.L ;.L -.E >.,.'.).T - b c i j j i t.u.u.u.u.u.u.u.u.u.u.v.w.x.y.w.x.z.A.B.C.D.E.F.- @ ",
"~ g h i j j +.H @.@.@.E ~.$.P $.-.G.$.X $.L ;.L -.E >.,.'.).T - b c i j j i h H.H.H.H.H.H.H.H.H.H.g I.J.K.I.J.L.H.M.N.O.P.F.- @ ",
"~ g h i j j C D E E E F G G }.G G G G }.H J M N M P H Q R S T - b c i j j i h H.H.H.H.H.H.H.H.H.H.g I.J.K.I.J.L.H.M.N.O.P.F.- @ ",
"~ g h i j j k l m m m m m m m m m m m m m m p y 5.6.t u u v w - b c i j j Q.L.g g g g g g g g g g R.I.S.T.I.S.U.g V.W.O.P.F.- @ ",
"~ g h Q.X.h.Y.a.a.a.a.a.a.a.a.a.a.a.a.a.a.a.a.a.a.d.d.d.d.Z.4.- b c i j j `. +.+.+.+.+.+.+.+.+.+.+++@+#+$+@+#+w..+w.%+D.E.F.- @ ",
"~ g h &+i.j.m.*+=+*+m.j.j.j.j.j.j.j.j.j.j.j.j.j.n.o.-+p.p.;+4.- b c i j j >+,+'+'+'+'+'+'+'+'+'+'+'+)+l.)+)+l.)+k.!+~+p.q.} - @ ",
"~ g h {+t.u.]+^+/+^+(+v.v.v.v.v.u.u.u.u.u.u.u.u.A._+B.C.D.:+<+- b c [+9.k k 0.a.a.a.a.a.a.a.a.a.a.a.a.a.a.a.a.b.c.d.d.d.e.<.- @ ",
"~ g h {+t.u.]+^+/+}+w..+.+.+.+|+v.u.u.u.u.u.u.u.A._+B.C.D.:+<+- b c 1+l m m p 2+m p m m m m m m m m m m m m 5.3+t u u u A B - @ ",
"~ g h &+i.j.m.*+=+4+k.'+'+'+'+)+j.j.j.j.j.j.j.j.n.o.-+p.p.;+4.- b c 5+D E G &.L J 6+G E E E E E E E E E E G &.7+8+Q R R 9+..- @ ",
"~ g h 0+a+`.`.`.`.`.`.`.`.`.`.`.`.`.`.`.`.`.`.`.b+c+d+d+d+e+4.- b c 5+D E G &.L J 6+G E E E E E E E E E E G &.L I Q R R 9+..- @ ",
"~ g h f+g+h+h+i+j+i+h+h+h+h+h+h+h+h+h+h+h+h+h+h+k+l+m+n+o+p+<+- b c 1+l m m p 2+m p m m m m m m m m m m m m p 2+y |.u u A B - @ ",
"~ g h q+r+s+t+u+v+w+x+y+y+y+y+y+y+s+s+s+s+s+s+s+s+z+A+B+C+D+# - b c [+9.k k k k k k k k k k k k k k k k k k k k 9.E+F+F+8 <.- @ ",
"~ g h q+r+s+t+u+v+G+H+I+I+I+I+I+J+K+s+s+s+s+s+s+s+z+A+B+C+D+# - b c i j 8.X.h.h.h.h.h.h.h.h.h.h.h.h.h.h.h.h.h.h.L+L+L+L+M+/ - @ ",
"~ g h f+g+h+h+i+j+N+O+P+P+P+P+P+Q+R+h+h+h+h+h+h+k+l+m+n+o+p+<+- b c i j h.i.j.k.l.m.j.k.l.m.j.k.l.m.j.k.l.m.j.S+T+-+p.p.q.} - @ ",
"~ g h 0+U+V+W+X+Y+Y+Y+Y+Y+Y+Y+Y+Y+Y+Y+Y+Y+Y+Y+Y+Z+`+ @ @ @.@4.- b c i j i t.v.w.x.z.v.w.x.z.v.w.x.z.v.w.x.z.v.w.+@@@C.D.E.F.- @ ",
"~ g h i j j k l m m p m m p m m m m m m m m m q r s t u u #@w - b c i j i h g I.J.L.g I.J.L.g I.J.L.g I.J.L.g I.J.$@N.O.P.F.- @ ",
"~ g h i j j C D E G M J H M J E E E E E E E E G %@P D &@Z *@=@- b c i j i t.v.w.x.z.v.w.x.z.v.w.x.z.v.w.x.z.v.w.+@@@C.D.E.F.- @ ",
"~ g h i j j +.H @.E -.-@f.-.-@;@@.@.@.@.@.@.@.E ~.G 6+>@Q ,@T - b c i j h.i.j.k.l.m.j.k.l.m.j.k.l.m.j.k.l.m.j.S+T+-+p.p.q.} - @ ",
"~ g h i j j '@)@;@E -.!@f.-.!@~@{@{@{@{@{@{@{@f.~.G ]@^@Q ).T - b c i j /@a+`.`.`.`.`.`.`.`.`.`.`.`.`.`.`.`.`.b+c+d+d+d+3 <.- @ ",
"~ g h i j j (@L _@f.-.-@f.-.!@:@:@:@:@:@:@:@:@-@<@G 6+>@Q ).T - b c i j [@g+R+}@|@h+R+}@|@h+R+}@|@h+R+}@|@h+R+1@2@3@o+o+4@F.- @ ",
"~ g h i j j C 5@f.H M J H M J f.f.f.f.f.f.f.f.J M G P &@R S T - b c i j 6@r+y+7@8@9@y+7@8@9@y+7@8@9@y+7@8@9@y+7@0@a@b@c@d@e@- @ ",
"~ g h i j j k l m m p m m p m m m m m m m m m m p m q |.u v w - b c i j f@g@h@i@j@k@h@i@j@k@h@i@j@k@h@i@j@k@h@i@j@l@m@n@o@e@- @ ",
"~ g h i j j 8.9.k k k k k k k k k k k k k k k k k k 9.E+F+p@4.- b c i j 6@r+y+7@8@9@y+7@8@9@y+7@8@9@y+7@8@9@y+7@0@q@B+C+d@e@- @ ",
"~ g h i j 8.X.h.h.h.h.h.h.h.h.h.h.h.h.h.h.h.h.h.h.L+L+L+L+r@4.- b c i j [@g+R+}@|@h+R+}@|@h+R+}@|@h+R+}@|@h+R+1@2@m+n+o+4@F.- @ ",
"~ g h i j h.i.j.k.l.m.j.k.l.m.j.k.l.m.j.k.l.m.j.S+T+-+p.p.;+4.- b c i j /@a+`.`.`.`.`.`.`.`.`.`.`.`.`.`.`.`.`.b+c+d+d+d+3 <.- @ ",
"~ g h i j i t.v.w.x.z.v.w.x.z.v.w.x.z.v.w.x.z.v.w.+@@@C.D.:+<+- b c i j h.i.j.k.l.m.j.k.l.m.j.k.l.m.j.k.l.m.j.S+T+-+p.p.q.} - @ ",
"~ g h i j i h g I.J.L.g I.J.L.g I.J.L.g I.J.L.g I.J.$@N.O.s@<+- b c i j i t.v.w.x.z.v.w.x.z.v.w.x.z.v.w.x.z.v.w.+@@@C.D.E.F.- @ ",
"~ g h i j i t.v.w.x.z.v.w.x.z.v.w.x.z.v.w.x.z.v.w.+@@@C.D.:+<+- b c i j i h g I.J.L.g I.J.L.g I.J.L.g I.J.L.g I.J.$@N.O.P.F.- @ ",
"~ g h i j h.i.j.k.l.m.j.k.l.m.j.k.l.m.j.k.l.m.j.S+T+-+p.p.;+4.- b c i j i t.v.w.x.z.v.w.x.z.v.w.x.z.v.w.x.z.v.w.+@@@C.D.E.F.- @ ",
"~ g h i j t@u@v@v@v@v@v@v@v@v@v@v@v@v@v@v@v@v@v@v@>+>+>+>+w@4.- b c i j h.i.j.k.l.m.j.k.l.m.j.k.l.m.j.k.l.m.j.S+T+-+p.p.q.} - @ ",
"~ g h i j h.i.j.k.l.m.j.k.l.m.j.k.l.m.j.k.l.m.j.S+T+-+p.p.;+4.- b c i j t@u@v@v@v@v@v@v@v@v@v@v@v@v@v@v@v@v@v@v@>+>+>+>+x@} - @ ",
"~ g h i j i t.v.w.x.z.v.w.x.z.v.w.x.z.v.w.x.z.v.w.+@@@C.D.:+<+- b c i j h.i.j.k.l.m.j.k.l.m.j.k.l.m.j.k.l.m.j.S+T+-+p.p.q.} - @ ",
"~ g h i j i h g I.J.L.g I.J.L.g I.J.L.g I.J.L.g I.J.$@N.O.s@<+- b c i j i t.v.w.x.z.v.w.x.z.v.w.x.z.v.w.x.z.v.w.+@@@C.D.E.F.- @ ",
"~ g h i j i t.v.w.x.z.v.w.x.z.v.w.x.z.v.w.x.z.v.w.+@@@C.D.:+<+- b c i j i h g I.J.L.g I.J.L.g I.J.L.g I.J.L.g I.J.$@N.O.P.F.- @ ",
"~ g h i j h.i.j.k.l.m.j.k.l.m.j.k.l.m.j.k.l.m.j.S+T+-+p.p.;+4.- b c i j i t.v.w.x.z.v.w.x.z.v.w.x.z.v.w.x.z.v.w.+@@@C.D.E.F.- @ ",
"~ g h i j /@a+`.`.`.`.`.`.`.`.`.`.`.`.`.`.`.`.`.b+c+d+d+d+e+4.- b c i j h.i.j.k.l.m.j.k.l.m.j.k.l.m.j.k.l.m.j.S+T+-+p.p.q.} - @ ",
"~ g h i j [@g+R+}@|@h+R+}@|@h+R+}@|@h+R+}@|@h+R+1@2@3@o+o+p+<+- b c i j 8.X.h.h.h.h.h.h.h.h.h.h.h.h.h.h.h.h.h.h.L+L+L+L+M+/ - @ ",
"~ g h i j 6@r+y+7@8@9@y+7@8@9@y+7@8@9@y+7@8@9@y+7@0@a@b@c@D+# - b c [+9.k k k k k k k k k k k k k k k k 9.E+F+F+F+F+F+F+8 <.- @ ",
"~ g h i j f@g@h@i@j@k@h@i@j@k@h@i@j@k@h@i@j@k@h@i@j@l@m@n@y@# - b c 1+l m m n 2+p z@m m m m m m m m m m A@3+7.7.s t u u A B - @ ",
"~ g h i j 6@r+y+7@8@9@y+7@8@9@y+7@8@9@y+7@8@9@y+7@0@q@B+C+D+# - b c 5+D E E f.L B@]@G E E E E E E E E E f.7+C@D@P H Q R 9+..- @ ",
"~ g h i j [@g+R+}@|@h+R+}@|@h+R+}@|@h+R+}@|@h+R+1@2@m+n+o+p+<+- b c 5+D E E f.L B@]@G E E E E E E E E E f.L C@D@P H Q R 9+..- @ ",
"~ g h i j E@f+F@F@F@F@F@F@F@F@F@F@F@F@F@F@F@F@F@G@H@I@I@I@J@4.- b c 1+l m m n 2+p z@m m m m m m m m m m n K@r 7.s t u u A B - @ ",
"~ g h i j [@g+R+}@|@h+R+}@|@h+R+}@|@h+R+}@|@h+R+1@2@3@o+o+p+<+- b c L@^./././././././././././././././././.(.M@:.:.:.:.:.7 <.- @ ",
"~ g h i j 6@r+y+7@8@9@y+7@8@9@y+7@8@9@y+7@8@9@y+7@0@a@b@c@D+# - b c 1+l m m n 2+p z@m m m m m m m m m m n K@r 7.s t u u A B - @ ",
"~ g h i j f@g@h@i@j@k@h@i@j@k@h@i@j@k@h@i@j@k@h@i@j@l@m@n@y@# - b c 5+D E E f.L B@]@G E E E E E E E E E f.L C@D@P H Q R 9+..- @ ",
"~ g h i j 6@r+y+7@8@9@y+7@8@9@y+7@8@9@y+7@8@9@y+7@0@q@B+C+D+# - b c 5+D E E f.L B@]@G E E E E E E E E E f.L C@D@P H Q R 9+..- @ ",
"~ g h i j [@g+R+}@|@h+R+}@|@h+R+}@|@h+R+}@|@h+R+1@2@m+n+o+p+<+- b c 1+l m m n 2+p z@m m m m m m m m m m n K@r 7.s t u u A B - @ ",
"~ 1 N@O@i 0+P@6 6 6 6 6 6 6 6 6 6 6 6 6 6 6 6 6 Q@R@S@S@S@T@U@a b c d V@1+1+1+1+1+1+1+1+1+1+1+1+1+1+1+1+1+W@X@X@X@X@X@X@Y@<.- @ ",
"~ Z@`@N@h h h h h h h h h h h h h h h h h h h h h h h h h _+ #.#+#@###$#h h h h h h h h h h h h h h h h h h h h h h h h c %#$ @ ",
"&#*#Z@1 g g g g g g g g g g g g g g g g g g g g g g g g g g =#-#;#*#Z@1 g g g g g g g g g g g g g g g g g g g g g g g g >#,#: $ ",
"'#&#~ ~ ~ ~ ~ ~ ~ ~ ~ ~ ~ ~ ~ ~ ~ ~ ~ ~ ~ ~ ~ ~ ~ ~ ~ ~ ~ ~ ~ )#!#&#~ ~ ~ ~ ~ ~ ~ ~ ~ ~ ~ ~ ~ ~ ~ ~ ~ ~ ~ ~ ~ ~ ~ ~ ~ ~ ~ )#~#{#"};
