/* XPM */
static char * green4_xpm[] = {
"64 64 207 2",
"  	c #FF00FF",
". 	c #BBB2EE",
"+ 	c #A6C6E0",
"@ 	c #9CCFD1",
"# 	c #96D0C1",
"$ 	c #91D0B1",
"% 	c #8BCEA4",
"& 	c #88CD9C",
"* 	c #89CD9B",
"= 	c #8FCFB0",
"- 	c #96D0C0",
"; 	c #9CCED1",
"> 	c #C9A0F3",
", 	c #A3C8DE",
"' 	c #95D0BE",
") 	c #86CD99",
"! 	c #84CC98",
"~ 	c #82CB97",
"{ 	c #95D0BD",
"] 	c #A3C8DD",
"^ 	c #ABC1E5",
"/ 	c #95D0C0",
"( 	c #86CD9A",
"_ 	c #80CA96",
": 	c #80CA95",
"< 	c #7ECA95",
"[ 	c #7ECA94",
"} 	c #95D0BF",
"| 	c #91D0AE",
"1 	c #82CB96",
"2 	c #7CC993",
"3 	c #7AC892",
"4 	c #7AC891",
"5 	c #8FCFAD",
"6 	c #AEBEE7",
"7 	c #92D0B5",
"8 	c #7CC992",
"9 	c #77C790",
"0 	c #78C790",
"a 	c #75C78F",
"b 	c #73C68D",
"c 	c #90CFB4",
"d 	c #CC9DF3",
"e 	c #9BCFCF",
"f 	c #71C58C",
"g 	c #6FC48A",
"h 	c #6CC489",
"i 	c #99CFCE",
"j 	c #B1BCE8",
"k 	c #91D0B0",
"l 	c #6AC388",
"m 	c #6AC387",
"n 	c #68C286",
"o 	c #65C286",
"p 	c #65C185",
"q 	c #8FCFAF",
"r 	c #B0BCE8",
"s 	c #A4C8DF",
"t 	c #63C184",
"u 	c #63C083",
"v 	c #61C082",
"w 	c #5EBF81",
"x 	c #A3C7DE",
"y 	c #A0CCD9",
"z 	c #6DC389",
"A 	c #68C287",
"B 	c #5BBE80",
"C 	c #59BE7F",
"D 	c #59BD7E",
"E 	c #56BD7D",
"F 	c #53BC7D",
"G 	c #54BC7C",
"H 	c #9FCBD8",
"I 	c #9FCDD7",
"J 	c #51BB7B",
"K 	c #51BB7A",
"L 	c #4EBA79",
"M 	c #4BBA78",
"N 	c #4CBA77",
"O 	c #9DCCD6",
"P 	c #5CBE7F",
"Q 	c #4EBB7A",
"R 	c #48B976",
"S 	c #45B875",
"T 	c #42B774",
"U 	c #3EB773",
"V 	c #3BB672",
"W 	c #66C184",
"X 	c #48B977",
"Y 	c #41B875",
"Z 	c #33B570",
"` 	c #2FB46E",
" .	c #2AB36D",
"..	c #2BB36D",
"+.	c #33B46F",
"@.	c #25B26C",
"#.	c #26B26B",
"$.	c #34B46E",
"%.	c #34B46F",
"&.	c #38B56F",
"*.	c #3CB570",
"=.	c #44B772",
"-.	c #4AB874",
";.	c #50B975",
">.	c #53BA76",
",.	c #53BA77",
"'.	c #56BB77",
").	c #60C083",
"!.	c #37B571",
"~.	c #4DB975",
"{.	c #5CBC7A",
"].	c #64BE7C",
"^.	c #66BE7D",
"/.	c #6BC07F",
"(.	c #6EC080",
"_.	c #99CECD",
":.	c #45B876",
"<.	c #40B671",
"[.	c #59BB78",
"}.	c #72C282",
"|.	c #79C385",
"1.	c #7EC587",
"2.	c #82C688",
"3.	c #85C78A",
"4.	c #70C181",
"5.	c #82C689",
"6.	c #8BC88C",
"7.	c #91CA90",
"8.	c #95CC92",
"9.	c #9ACD94",
"0.	c #9CCD95",
"a.	c #9ECE96",
"b.	c #5EBD7B",
"c.	c #8FCA8F",
"d.	c #A2CF98",
"e.	c #AAD29C",
"f.	c #B0D49F",
"g.	c #B3D5A2",
"h.	c #B5D5A3",
"i.	c #B7D6A3",
"j.	c #A5C6E0",
"k.	c #80C588",
"l.	c #8DC98E",
"m.	c #A6D09A",
"n.	c #AFD4A0",
"o.	c #B9D7A5",
"p.	c #C3DAAA",
"q.	c #CADCAE",
"r.	c #CEDDB1",
"s.	c #D2DEB3",
"t.	c #D4DFB4",
"u.	c #8DCEAC",
"v.	c #75C283",
"w.	c #93CB91",
"x.	c #BDD8A7",
"y.	c #D6E0B5",
"z.	c #DFE2BA",
"A.	c #E8E5C0",
"B.	c #EDE7C4",
"C.	c #F1E8C5",
"D.	c #F3E9C7",
"E.	c #84C78A",
"F.	c #C7DBAC",
"G.	c #E4E4BE",
"H.	c #FDECCD",
"I.	c #FFF0D4",
"J.	c #FFF1D7",
"K.	c #FFF2D9",
"L.	c #FFF2DA",
"M.	c #93CFBE",
"N.	c #A8D19B",
"O.	c #CCDDAF",
"P.	c #FFEED1",
"Q.	c #FFF3DD",
"R.	c #FFF5E2",
"S.	c #FFF6E5",
"T.	c #FFF7E8",
"U.	c #FFF7E9",
"V.	c #E4E4BD",
"W.	c #F8EBCA",
"X.	c #FFF4DE",
"Y.	c #FFF9ED",
"Z.	c #FFFBF3",
"`.	c #FFFDF8",
" +	c #FFFEFB",
".+	c #FFFEFC",
"++	c #FCECCC",
"@+	c #FFF8EC",
"#+	c #FFFCF6",
"$+	c #FFFFFF",
"%+	c #93CFBC",
"&+	c #FFF6E4",
"*+	c #FFFAEF",
"=+	c #BBB1ED",
"-+	c #A4C6E0",
";+	c #9ACED0",
">+	c #94CFBF",
",+	c #8DCEAF",
"'+	c #87CDA1",
")+	c #84CC99",
"!+	c #A2C8DD",
"~+	c #8BCEAB",
"{+	c #8ECEB2",
"]+	c #ADBEE6",
"^+	c #8DCEAD",
"/+	c #AFBCE8",
"(+	c #9DCCD5",
"                                                  . + @ # $ % & * % = - ; + .                                                   ",
"                                          > , ' * ) ) ! ! ! ~ ~ ~ ~ ~ ! ! ! ) ) { ] >                                           ",
"                                      ^ / ( ) ! ~ ~ _ _ : < < [ [ [ < < : _ _ ~ ~ ! ) } ^                                       ",
"                                  + | ) ! ~ 1 : < [ 2 2 3 3 4 4 4 4 4 3 3 2 2 [ < : 1 ~ ! 5 +                                   ",
"                              6 7 ) ! ~ _ < 2 8 3 9 0 a a b b b b b b b a a 0 9 3 8 2 < _ ~ ! c 6                               ",
"                          d e ( ! ~ _ [ 2 3 0 a b b f f g g h h h h h g g f f b b a 0 3 2 [ _ ~ ! i                             ",
"                        j k ) ~ _ [ 2 4 0 a b f g h l m n n o p p p o n n m l h g f b a 0 4 2 [ _ ~ q r                         ",
"                      s * ! ~ : 2 3 0 b f g h m n p t u v v w w w w w v v u t p n m h g f b 0 3 2 : ~ ! x                       ",
"                    y ( ! _ [ 8 9 a f g z A p t v w B C D E E F G F E E D C B w v t p A z g f a 9 8 [ _ ! H                     ",
"                  I ( ! _ [ 3 0 b f h A p u w B D E J K L M M M N M M M L K J E D B w u p A h f b 0 3 [ _ ! O                   ",
"                y ( ! _ 2 4 a f g l o u w P E J Q M R S T U U V V V U U T S R M Q J E P w u o l g f a 4 2 _ ! H                 ",
"              s ( ! _ 2 4 a f h A W v B E J L X Y U V Z ` `  ....... .` ` Z V U Y X L J E B v W A h f a 4 2 _ ! x               ",
"            j * ! _ 2 4 a f h n t w D G L X T V +.` @.#...$.%.&.&.&.%.$...#.@.` +.V T X L G D w t n h f a 4 2 _ ! r             ",
"            k ! _ [ 4 a f h n u B E K M Y V +...#.` *.=.-.;.>.,.'.,.>.;.-.=.*.` #...+.V Y M K E B u n h f a 4 [ _ q             ",
"          e ) ~ [ 3 a f h n ).B E Q R U !. .@.$.=.~.'.{.].^././.(././.^.].{.'.~.=.$.@. .!.U R Q E B ).n h f a 3 [ ~ _.          ",
"        6 ( ~ : 8 0 f h n u B E L :.V +.@.` <.;.[.]./.}.|.1.2.3.3.3.2.1.|.}./.].[.;.<.` @.+.V :.L E B u n h f 0 8 : ~ 6         ",
"        7 ! _ 2 9 b g A t B E L S V ` #.&.-.[.].4.|.5.6.7.8.9.0.a.0.9.8.7.6.5.|.4.].[.-.&.#.` V S L E B t A g b 9 2 _ c         ",
"      + ) ~ [ 3 a f l W w E Q :.V ` @.*.;.b./.|.3.c.9.d.e.f.g.h.i.h.g.f.e.d.9.c.3.|./.b.;.*.@.` V :.Q E w W l f a 3 [ ~ j.      ",
"      | ! _ 2 0 f h o v D K R V ` @.<.>.].}.k.l.9.m.n.o.p.q.r.s.t.s.r.q.p.o.n.m.9.l.k.}.].>.<.@.` V R K D v o h f 0 2 _ u.      ",
"    ^ ) ~ [ 4 b g A u B G M U +.#.*.>.].v.3.w.d.f.x.q.y.z.A.B.C.D.C.B.A.z.y.q.x.f.d.w.3.v.].>.*.#.+.U M G B u A g b 4 [ ~ ^     ",
"    / ! _ 2 0 f z p w E L Y !.@.&.;.].v.E.8.m.i.F.y.G.D.H.I.J.K.L.K.J.I.H.D.G.y.F.i.m.8.E.v.].;.&.@.!.Y L E w p z f 0 2 _ M.    ",
"    ( ~ < 3 a g A u P J X V  .` -.b.}.3.8.N.o.O.z.C.P.K.Q.R.S.T.U.T.S.R.Q.K.P.C.z.O.o.N.8.3.}.b.-.`  .V X J P u A g a 3 < ~ >   ",
"  , ) 1 2 0 b h p w E L T +.@.<.[./.k.w.m.o.r.V.W.J.X.S.Y.Z.`. +.+ +`.Z.Y.S.X.J.W.V.r.o.m.w.k./.[.<.@.+.T L E w p h b 0 2 1 ]   ",
"  ' ! : 8 a f m t B J X V ..$.;.].|.l.d.i.O.V.++K.R.@+#+$+$+$+$+$+$+$+$+$+#+@+R.K.++V.O.i.d.l.|.].;.$...V X J B t m f a 8 : %+  ",
"  * ~ < 3 b g n v D Q Y +.#.=.[.4.3.9.f.F.z.W.K.&+*+.+$+$+$+$+$+$+$+$+$+$+$+.+*+&+K.W.z.F.f.9.3.4.[.=.#.+.Y Q D v n g b 3 < ~   ",
". ) ~ [ 9 b h p w E M U ` ` ~.].|.c.m.x.y.C.J.R.*+$+$+$+$+$+$+$+$+$+$+$+$+$+$+$+*+R.J.C.y.x.m.c.|.].~.` ` U M E w p h b 9 [ ~ =+",
"+ ) _ 2 0 f l t B J R V @.*.'./.5.9.n.q.G.P.X.@+.+$+$+$+$+$+$+$+$+$+$+$+$+$+$+$+.+@+X.P.G.q.n.9.5./.'.*.@.V R J B t l f 0 2 _ -+",
"@ ! _ 2 a f m u C K S Z #.=.{.}.6.d.o.y.D.K.S.#+$+$+$+$+$+$+$+$+$+$+$+$+$+$+$+$+$+#+S.K.D.y.o.d.6.}.{.=.#.Z S K C u m f a 2 _ ;+",
"# ! : 3 a g n v D L T ` ..-.].|.7.e.p.z.H.Q.Y.$+$+$+$+$+$+$+$+$+$+$+$+$+$+$+$+$+$+$+Y.Q.H.z.p.e.7.|.].-...` T L D v n g a 3 : >+",
"$ ! < 3 b g n v E M U ` $.;.^.1.8.f.q.A.I.R.Z.$+$+$+$+$+$+$+$+$+$+$+$+$+$+$+$+$+$+$+Z.R.I.A.q.f.8.1.^.;.$.` U M E v n g b 3 < ,+",
"% ~ < 4 b h o w E M U  .%.>./.2.9.g.r.B.J.S.`.$+$+$+$+$+$+$+$+$+$+$+$+$+$+$+$+$+$+$+`.S.J.B.r.g.9.2./.>.%. .U M E w o h b 4 < '+",
"& ~ [ 4 b h p w F M V ..&.,./.3.0.h.s.C.K.T. +$+$+$+$+$+$+$+$+$+$+$+$+$+$+$+$+$+$+$+ +T.K.C.s.h.0.3./.,.&...V M F w p h b 4 [ )+",
"* ~ [ 4 b h p w G N V ..&.'.(.3.a.i.t.D.L.U..+$+$+$+$+$+$+$+$+$+$+$+$+$+$+$+$+$+$+$+.+U.L.D.t.i.a.3.(.'.&...V N G w p h b 4 [ )+",
"% ~ [ 4 b h p w F M V ..&.,./.3.0.h.s.C.K.T. +$+$+$+$+$+$+$+$+$+$+$+$+$+$+$+$+$+$+$+ +T.K.C.s.h.0.3./.,.&...V M F w p h b 4 [ '+",
"= ~ < 4 b h o w E M U  .%.>./.2.9.g.r.B.J.S.`.$+$+$+$+$+$+$+$+$+$+$+$+$+$+$+$+$+$+$+`.S.J.B.r.g.9.2./.>.%. .U M E w o h b 4 < ,+",
"- ! < 3 b g n v E M U ` $.;.^.1.8.f.q.A.I.R.Z.$+$+$+$+$+$+$+$+$+$+$+$+$+$+$+$+$+$+$+Z.R.I.A.q.f.8.1.^.;.$.` U M E v n g b 3 < >+",
"; ! : 3 a g n v D L T ` ..-.].|.7.e.p.z.H.Q.Y.$+$+$+$+$+$+$+$+$+$+$+$+$+$+$+$+$+$+$+Y.Q.H.z.p.e.7.|.].-...` T L D v n g a 3 : ;+",
"+ ! _ 2 a f m u C K S Z #.=.{.}.6.d.o.y.D.K.S.#+$+$+$+$+$+$+$+$+$+$+$+$+$+$+$+$+$+#+S.K.D.y.o.d.6.}.{.=.#.Z S K C u m f a 2 _ -+",
". ) _ 2 0 f l t B J R V @.*.'./.5.9.n.q.G.P.X.@+.+$+$+$+$+$+$+$+$+$+$+$+$+$+$+$+.+@+X.P.G.q.n.9.5./.'.*.@.V R J B t l f 0 2 _ =+",
"  ) ~ [ 9 b h p w E M U ` ` ~.].|.c.m.x.y.C.J.R.*+$+$+$+$+$+$+$+$+$+$+$+$+$+$+$+*+R.J.C.y.x.m.c.|.].~.` ` U M E w p h b 9 [ ~   ",
"  { ~ < 3 b g n v D Q Y +.#.=.[.4.3.9.f.F.z.W.K.&+*+.+$+$+$+$+$+$+$+$+$+$+$+.+*+&+K.W.z.F.f.9.3.4.[.=.#.+.Y Q D v n g b 3 < %+  ",
"  ] ! : 8 a f m t B J X V ..$.;.].|.l.d.i.O.V.++K.R.@+#+$+$+$+$+$+$+$+$+$+#+@+R.K.++V.O.i.d.l.|.].;.$...V X J B t m f a 8 : !+  ",
"    ) 1 2 0 b h p w E L T +.@.<.[./.k.w.m.o.r.V.W.J.X.S.Y.Z.`. +.+ +`.Z.Y.S.X.J.W.V.r.o.m.w.k./.[.<.@.+.T L E w p h b 0 2 1 >   ",
"    } ~ < 3 a g A u P J X V  .` -.b.}.3.8.N.o.O.z.C.P.K.Q.R.S.T.U.T.S.R.Q.K.P.C.z.O.o.N.8.3.}.b.-.`  .V X J P u A g a 3 < M.    ",
"    ^ ! _ 2 0 f z p w E L Y !.@.&.;.].v.E.8.m.i.F.y.G.D.H.I.J.K.L.K.J.I.H.D.G.y.F.i.m.8.E.v.].;.&.@.!.Y L E w p z f 0 2 _ ^     ",
"      5 ~ [ 4 b g A u B G M U +.#.*.>.].v.3.w.d.f.x.q.y.z.A.B.C.D.C.B.A.z.y.q.x.f.d.w.3.v.].>.*.#.+.U M G B u A g b 4 [ ~+      ",
"      + ! _ 2 0 f h o v D K R V ` @.<.>.].}.k.l.9.m.n.o.p.q.r.s.t.s.r.q.p.o.n.m.9.l.k.}.].>.<.@.` V R K D v o h f 0 2 _ -+      ",
"        c ~ [ 3 a f l W w E Q :.V ` @.*.;.b./.|.3.c.9.d.e.f.g.h.i.h.g.f.e.d.9.c.3.|./.b.;.*.@.` V :.Q E w W l f a 3 [ {+        ",
"        6 ! _ 2 9 b g A t B E L S V ` #.&.-.[.].4.|.5.6.7.8.9.0.a.0.9.8.7.6.5.|.4.].[.-.&.#.` V S L E B t A g b 9 2 _ ]+        ",
"          i ~ : 8 0 f h n u B E L :.V +.@.` <.;.[.]./.}.|.1.2.3.3.3.2.1.|.}./.].[.;.<.` @.+.V :.L E B u n h f 0 8 : _.          ",
"            q ~ [ 3 a f h n ).B E Q R U !. .@.$.=.~.'.{.].^././.(././.^.].{.'.~.=.$.@. .!.U R Q E B ).n h f a 3 [ ^+            ",
"            r ! _ [ 4 a f h n u B E K M Y V +...#.` *.=.-.;.>.,.'.,.>.;.-.=.*.` #...+.V Y M K E B u n h f a 4 [ _ /+            ",
"              x ! _ 2 4 a f h n t w D G L X T V +.` @.#...$.%.&.&.&.%.$...#.@.` +.V T X L G D w t n h f a 4 2 _ x               ",
"                H ! _ 2 4 a f h A W v B E J L X Y U V Z ` `  ....... .` ` Z V U Y X L J E B v W A h f a 4 2 _ H                 ",
"                  O ! _ 2 4 a f g l o u w P E J Q M R S T U U V V V U U T S R M Q J E P w u o l g f a 4 2 _ (+                  ",
"                    H ! _ [ 3 0 b f h A p u w B D E J K L M M M N M M M L K J E D B w u p A h f b 0 3 [ _ H                     ",
"                      x ! _ [ 8 9 a f g z A p t v w B C D E E F G F E E D C B w v t p A z g f a 9 8 [ _ x                       ",
"                        r q ~ : 2 3 0 b f g h m n p t u v v w w w w w v v u t p n m h g f b 0 3 2 : ^+/+                        ",
"                            _.~ _ [ 2 4 0 a b f g h l m n n o p p p o n n m l h g f b a 0 4 2 [ _ _.                            ",
"                              6 c ~ _ [ 2 3 0 a b b f f g g h h h h h g g f f b b a 0 3 2 [ _ {+]+                              ",
"                                  j.u.~ _ < 2 8 3 9 0 a a b b b b b b b a a 0 9 3 8 2 < _ ~+-+                                  ",
"                                      ^ M.~ 1 : < [ 2 2 3 3 4 4 4 4 4 3 3 2 2 [ < : 1 M.^                                       ",
"                                          > ] %+~ ~ _ _ : < < [ [ [ < < : _ _ ~ %+!+                                            ",
"                                                  =+-+;+>+,+'+)+)+'+,+>+;+-+=+                                                  "};
