/* XPM */
static char * green6_xpm[] = {
"64 64 202 2",
"  	c #FF00FF",
". 	c #BEB3EE",
"+ 	c #ABCAE2",
"@ 	c #A6D4D5",
"# 	c #A6D6C6",
"$ 	c #A5D6B9",
"% 	c #A4D5AE",
"& 	c #A4D5A7",
"* 	c #A4D5AD",
"= 	c #A5D3D4",
"- 	c #BDB3EE",
"; 	c #A9CCE0",
"> 	c #A5D6C4",
", 	c #A2D4A6",
"' 	c #A2D4A5",
") 	c #A3D4A4",
"! 	c #A0D3A4",
"~ 	c #A1D3A3",
"{ 	c #CAA2F3",
"] 	c #B0C4E6",
"^ 	c #A5D6C5",
"/ 	c #9FD2A2",
"( 	c #9FD2A1",
"_ 	c #9DD2A1",
": 	c #9DD2A0",
"< 	c #AFC4E6",
"[ 	c #A6D6B6",
"} 	c #9BD1A0",
"| 	c #9BD19F",
"1 	c #99D09E",
"2 	c #99D09D",
"3 	c #A4D6B5",
"4 	c #B2C2E8",
"5 	c #A5D6BC",
"6 	c #9ED3A3",
"7 	c #97CF9C",
"8 	c #95CF9A",
"9 	c #95CE9A",
"0 	c #A3D5BB",
"a 	c #B2C1E8",
"b 	c #A6D4D2",
"c 	c #97D09C",
"d 	c #93CE99",
"e 	c #91CD97",
"f 	c #8FCC96",
"g 	c #A4D3D2",
"h 	c #B4BFE9",
"i 	c #A4D6B8",
"j 	c #8FCC95",
"k 	c #8DCB94",
"l 	c #8BCB93",
"m 	c #8CCB92",
"n 	c #A5D6B7",
"o 	c #AACBE1",
"p 	c #8ECB94",
"q 	c #89CA91",
"r 	c #8ACA91",
"s 	c #87C990",
"t 	c #88C98F",
"u 	c #85C98F",
"v 	c #A9CBE0",
"w 	c #A8D0DB",
"x 	c #86C88E",
"y 	c #83C88D",
"z 	c #84C78C",
"A 	c #81C78B",
"B 	c #82C78B",
"C 	c #A7D0DB",
"D 	c #A8D1DA",
"E 	c #7FC689",
"F 	c #7DC588",
"G 	c #7EC588",
"H 	c #7BC487",
"I 	c #7BC486",
"J 	c #79C486",
"K 	c #A6D1D9",
"L 	c #79C485",
"M 	c #77C384",
"N 	c #75C283",
"O 	c #75C282",
"P 	c #73C181",
"Q 	c #70C180",
"R 	c #71C080",
"S 	c #6EC07E",
"T 	c #6CBF7D",
"U 	c #69BE7C",
"V 	c #6ABE7C",
"W 	c #7FC68A",
"X 	c #68BD7A",
"Y 	c #65BD79",
"Z 	c #63BC78",
"` 	c #63BC77",
" .	c #60BB77",
"..	c #60BB76",
"+.	c #B3BFE9",
"@.	c #CE9EF4",
"#.	c #85C88E",
"$.	c #7DC589",
"%.	c #5EBA74",
"&.	c #5BBA73",
"*.	c #59B972",
"=.	c #56B871",
"-.	c #A3D5B6",
";.	c #5EBA75",
">.	c #59B871",
",.	c #5FBA73",
"'.	c #64BB75",
").	c #66BC76",
"!.	c #69BC77",
"~.	c #6ABE7B",
"{.	c #62BA73",
"].	c #70BE79",
"^.	c #75BF7B",
"/.	c #7CC17D",
"(.	c #7EC27F",
"_.	c #80C280",
":.	c #54B76F",
"<.	c #6BBD78",
"[.	c #87C482",
"}.	c #8DC686",
"|.	c #92C787",
"1.	c #96C989",
"2.	c #98C98B",
"3.	c #9ACA8B",
"4.	c #5CB972",
"5.	c #8BC585",
"6.	c #9ECB8D",
"7.	c #A6CD91",
"8.	c #ACCF94",
"9.	c #B0D096",
"0.	c #B2D197",
"a.	c #B4D198",
"b.	c #AAC9E2",
"c.	c #6EBD78",
"d.	c #7CC17E",
"e.	c #89C583",
"f.	c #A2CC8F",
"g.	c #B6D299",
"h.	c #C0D59E",
"i.	c #C5D7A1",
"j.	c #CBD8A4",
"k.	c #CFD9A6",
"l.	c #A3D5B4",
"m.	c #90C786",
"n.	c #BAD39B",
"o.	c #D1DAA7",
"p.	c #DCDDAD",
"q.	c #E3E0B2",
"r.	c #EAE2B6",
"s.	c #EEE3B8",
"t.	c #AFC3E6",
"u.	c #83C381",
"v.	c #C3D6A0",
"w.	c #D2DBA9",
"x.	c #E1DFB1",
"y.	c #FBE7C0",
"z.	c #FFEAC5",
"A.	c #FFEDCA",
"B.	c #FFEDCB",
"C.	c #FFEDCC",
"D.	c #A3D5C4",
"E.	c #CBA2F3",
"F.	c #A4CD90",
"G.	c #C9D8A3",
"H.	c #FEE8C2",
"I.	c #FFEFD0",
"J.	c #FFF0D3",
"K.	c #FFF1D6",
"L.	c #FFF1D8",
"M.	c #FFF2D9",
"N.	c #DFDFB0",
"O.	c #F5E6BC",
"P.	c #FFECC9",
"Q.	c #FFF3DD",
"R.	c #FFF5E1",
"S.	c #FFF6E6",
"T.	c #FFF7E9",
"U.	c #FFF8EA",
"V.	c #A9CCDF",
"W.	c #F7E6BE",
"X.	c #FFF3DC",
"Y.	c #FFF6E5",
"Z.	c #FFF9ED",
"`.	c #FFFBF5",
" +	c #FFFDFB",
".+	c #FFFFFE",
"++	c #FFFFFF",
"@+	c #A3D5C2",
"#+	c #FFF0D4",
"$+	c #FFF4DE",
"%+	c #FFFCF5",
"&+	c #FFF8EB",
"*+	c #A4D5C5",
"=+	c #A3D5B7",
"-+	c #A3D4AB",
";+	c #A1D3A4",
">+	c #A3D5B3",
",+	c #A1D5BA",
"'+	c #B1C1E8",
")+	c #A4D3D1",
"!+	c #A6CFDA",
"~+	c #A6D0D8",
"                                                  . + @ # $ % & & * $ # = + -                                                   ",
"                                            ; > , ' ) ! ! ~ ~ ~ ~ ~ ~ ~ ! ! ) ' > ; {                                           ",
"                                      ] ^ ' ' ! ~ / / ( _ _ : : : : : _ _ ( / / ~ ! ' ^ <                                       ",
"                                  + [ ' ! ~ / ( _ } | | 1 1 1 2 2 2 1 1 1 | | } _ ( / ~ ! 3 +                                   ",
"                              4 5 ' ! 6 / _ } | 1 2 7 7 8 8 8 9 9 9 8 8 8 7 7 2 1 | } _ / 6 ! 0 a                               ",
"                            b ' ! 6 ( : | 1 c 7 8 9 d d e e e e f e e e e d d 9 8 7 c 1 | : ( 6 ! g                             ",
"                        h i ' ~ / : | 1 7 8 d d e f j k k l l m m m l l k k j f e d d 8 7 1 | : / ~ n h                         ",
"                      o , ! / _ | 1 7 8 d e f k p m q r s t t u u u t t s r q m p k f e d 8 7 1 | _ / ! v                       ",
"                    w ' ! / : | 2 8 d e j k m q s u x y z A A B B B A A z y x u s q m k j e d 8 2 | : / ! C                     ",
"                  D ' ~ / } 1 7 9 d f k m r t x z A E F G H I J J J I H G F E A z x t r m k f d 9 7 1 } / ~ K                   ",
"                w ' ~ ( } 1 7 d e j l q t y A E F I L M N O P P P P P O N M L I F E A y t q l j e d 7 1 } ( ~ C                 ",
"              o ' ~ ( | 2 8 d e k m t x A E H L M O Q R S T T U V U T T S R Q O M L H E A x t m k e d 8 2 | ( ~ v               ",
"            h , ! / } 2 8 d f p q u z W H L N P S T V X Y Z `  ... .` Z Y X V T S P N L H W z u q p f d 8 2 } / ! +.            ",
"          @.i ! / } 1 8 d f l r #.A $.J M P S U X Z ..%.&.*.=.=.=.=.=.*.&.%...Z X U S P M J $.A #.r l f d 8 1 } / -.            ",
"          b ' / : 1 7 d f l r #.A F L O R T X ` ;.*.=.>.,.'.).!.!.!.).'.,.>.=.*.;.` X T R O L F A #.r l f d 7 1 : / g           ",
"        4 ' ~ _ | 7 d e p r #.A G M P S ~.Z ;.*.=.{.!.].^./.(._._._.(./.^.].!.{.=.*.;.Z ~.S P M G A #.r p e d 7 | _ ~ a         ",
"        5 ! / | 2 9 e k q #.A G M P T X ..&.:.{.<.^.(.[.}.|.1.2.3.2.1.|.}.[.(.^.<.{.:.&...X T P M G A #.q k e 9 2 | / 0         ",
"      + ' 6 : 1 8 d j m u A F M P T Y ..*.4.!.^._.5.1.6.7.8.9.0.a.0.9.8.7.6.1.5._.^.!.4.*...Y T P M F A u m j d 8 1 : 6 b.      ",
"      [ ! ( | 7 d f l t z $.L P T Y ;.=.,.c.d.e.1.f.8.g.h.i.j.k.k.k.j.i.h.g.8.f.1.e.d.c.,.=.;.Y T P L $.z t l f d 7 | ( l.      ",
"    ] ' 6 : 1 8 e k q x W J O S X ..=.{.]._.m.6.8.n.i.o.p.q.r.s.s.s.r.q.p.o.i.n.8.6.m._.].{.=...X S O J W x q k e 8 1 : 6 t.    ",
"    ^ ! / | 7 d j m t A H M R ~...*.,.].u.|.f.a.v.w.x.s.y.z.A.B.C.B.A.z.y.s.x.w.v.a.f.|.u.].,.*...~.R M H A t m j d 7 | / D.    ",
"  E.' ~ _ 1 8 e k r y E L P T Z &.4.c._.|.F.g.G.p.s.H.B.I.J.K.L.M.L.K.J.I.B.H.s.p.G.g.F.|._.c.4.&.Z T P L E y r k e 8 1 _ ~ {   ",
"  ; ' / } c d f m t A H N S X ;.:.!.d.m.f.g.j.N.O.P.I.K.Q.R.S.T.U.T.S.R.Q.K.I.P.O.N.j.g.f.m.d.!.:.;.X S N H A t m f d c } / V.  ",
"  > ! ( | 7 d k q x E L P U ` *.{.^.e.6.a.G.N.W.B.J.X.Y.Z.`. +.+++.+ +`.Z.Y.X.J.B.W.N.G.a.6.e.^.{.*.` U P L E x q k d 7 | ( @+  ",
"  , ~ _ 1 8 e p s z F M S X ;.=.<._.1.8.v.p.O.B.#+$+U.%+++++++++++++++++++%+U.$+#+B.O.p.v.8.1._.<.=.;.X S M F z s p e 8 1 _ ~   ",
". ' / } 2 9 f m u A I O T Z *.{.^.5.f.n.w.s.P.J.$+&+ +++++++++++++++++++++++ +&+$+J.P.s.w.n.f.5.^.{.*.Z T O I A u m f 9 2 } / - ",
"+ ) / | 7 d j q x E L Q V ..=.!.(.1.8.i.x.H.I.X.U. +++++++++++++++++++++++++++ +U.X.I.H.x.i.8.1.(.!.=...V Q L E x q j d 7 | / b.",
"@ ! ( | 7 d k r y F M R X %.>.].[.6.g.o.s.B.K.Y.%+++++++++++++++++++++++++++++++%+Y.K.B.s.o.g.6.[.].>.%.X R M F y r k d 7 | ( = ",
"# ! _ 1 8 e k s z G N S Y &.,.^.}.7.h.p.y.I.Q.Z.++++++++++++++++++++++++++++++++++Z.Q.I.y.p.h.7.}.^.,.&.Y S N G z s k e 8 1 _ *+",
"$ ~ _ 1 8 e l t A H O T Z *.'./.|.8.i.q.z.J.R.`.++++++++++++++++++++++++++++++++++`.R.J.z.q.i.8.|./.'.*.Z T O H A t l e 8 1 _ =+",
"% ~ : 1 8 e l t A I P T ` =.).(.1.9.j.r.A.K.S. +++++++++++++++++++++++++++++++++++ +S.K.A.r.j.9.1.(.).=.` T P I A t l e 8 1 : -+",
"& ~ : 2 9 e m u B J P U  .=.!._.2.0.k.s.B.L.T..+++++++++++++++++++++++++++++++++++.+T.L.B.s.k.0.2._.!.=. .U P J B u m e 9 2 : ;+",
"& ~ : 2 9 f m u B J P V ..=.!._.3.a.k.s.C.M.U.++++++++++++++++++++++++++++++++++++++U.M.C.s.k.a.3._.!.=...V P J B u m f 9 2 : ;+",
"* ~ : 2 9 e m u B J P U  .=.!._.2.0.k.s.B.L.T..+++++++++++++++++++++++++++++++++++.+T.L.B.s.k.0.2._.!.=. .U P J B u m e 9 2 : -+",
"$ ~ : 1 8 e l t A I P T ` =.).(.1.9.j.r.A.K.S. +++++++++++++++++++++++++++++++++++ +S.K.A.r.j.9.1.(.).=.` T P I A t l e 8 1 : =+",
"# ~ _ 1 8 e l t A H O T Z *.'./.|.8.i.q.z.J.R.`.++++++++++++++++++++++++++++++++++`.R.J.z.q.i.8.|./.'.*.Z T O H A t l e 8 1 _ *+",
"= ! _ 1 8 e k s z G N S Y &.,.^.}.7.h.p.y.I.Q.Z.++++++++++++++++++++++++++++++++++Z.Q.I.y.p.h.7.}.^.,.&.Y S N G z s k e 8 1 _ = ",
"+ ! ( | 7 d k r y F M R X %.>.].[.6.g.o.s.B.K.Y.%+++++++++++++++++++++++++++++++%+Y.K.B.s.o.g.6.[.].>.%.X R M F y r k d 7 | ( b.",
"- ) / | 7 d j q x E L Q V ..=.!.(.1.8.i.x.H.I.X.U. +++++++++++++++++++++++++++ +U.X.I.H.x.i.8.1.(.!.=...V Q L E x q j d 7 | / - ",
"  ' / } 2 9 f m u A I O T Z *.{.^.5.f.n.w.s.P.J.$+&+ +++++++++++++++++++++++ +&+$+J.P.s.w.n.f.5.^.{.*.Z T O I A u m f 9 2 } /   ",
"  > ~ _ 1 8 e p s z F M S X ;.=.<._.1.8.v.p.O.B.#+$+U.%+++++++++++++++++++%+U.$+#+B.O.p.v.8.1._.<.=.;.X S M F z s p e 8 1 _ @+  ",
"  ; ! ( | 7 d k q x E L P U ` *.{.^.e.6.a.G.N.W.B.J.X.Y.Z.`. +.+++.+ +`.Z.Y.X.J.B.W.N.G.a.6.e.^.{.*.` U P L E x q k d 7 | ( V.  ",
"    ' / } c d f m t A H N S X ;.:.!.d.m.f.g.j.N.O.P.I.K.Q.R.S.T.U.T.S.R.Q.K.I.P.O.N.j.g.f.m.d.!.:.;.X S N H A t m f d c } / {   ",
"    ^ ~ _ 1 8 e k r y E L P T Z &.4.c._.|.F.g.G.p.s.H.B.I.J.K.L.M.L.K.J.I.B.H.s.p.G.g.F.|._.c.4.&.Z T P L E y r k e 8 1 _ D.    ",
"    < ! / | 7 d j m t A H M R ~...*.,.].u.|.f.a.v.w.x.s.y.z.A.B.C.B.A.z.y.s.x.w.v.a.f.|.u.].,.*...~.R M H A t m j d 7 | / t.    ",
"      3 6 : 1 8 e k q x W J O S X ..=.{.]._.m.6.8.n.i.o.p.q.r.s.s.s.r.q.p.o.i.n.8.6.m._.].{.=...X S O J W x q k e 8 1 : >+      ",
"      + ! ( | 7 d f l t z $.L P T Y ;.=.,.c.d.e.1.f.8.g.h.i.j.k.k.k.j.i.h.g.8.f.1.e.d.c.,.=.;.Y T P L $.z t l f d 7 | ( b.      ",
"        0 6 : 1 8 d j m u A F M P T Y ..*.4.!.^._.5.1.6.7.8.9.0.a.0.9.8.7.6.1.5._.^.!.4.*...Y T P M F A u m j d 8 1 : ,+        ",
"        a ! / | 2 9 e k q #.A G M P T X ..&.:.{.<.^.(.[.}.|.1.2.3.2.1.|.}.[.(.^.<.{.:.&...X T P M G A #.q k e 9 2 | / '+        ",
"          g ~ _ | 7 d e p r #.A G M P S ~.Z ;.*.=.{.!.].^./.(._._._.(./.^.].!.{.=.*.;.Z ~.S P M G A #.r p e d 7 | _ )+          ",
"            n / : 1 7 d f l r #.A F L O R T X ` ;.*.=.>.,.'.).!.!.!.).'.,.>.=.*.;.` X T R O L F A #.r l f d 7 1 : -.            ",
"            h ! / } 1 8 d f l r #.A $.J M P S U X Z ..%.&.*.=.=.=.=.=.*.&.%...Z X U S P M J $.A #.r l f d 8 1 } / +.            ",
"              v ! / } 2 8 d f p q u z W H L N P S T V X Y Z `  ... .` Z Y X V T S P N L H W z u q p f d 8 2 } / v               ",
"                C ~ ( | 2 8 d e k m t x A E H L M O Q R S T T U V U T T S R Q O M L H E A x t m k e d 8 2 | ( !+                ",
"                  K ~ ( } 1 7 d e j l q t y A E F I L M N O P P P P P O N M L I F E A y t q l j e d 7 1 } ( ~+                  ",
"                    C ~ / } 1 7 9 d f k m r t x z A E F G H I J J J I H G F E A z x t r m k f d 9 7 1 } / !+                    ",
"                      v ! / : | 2 8 d e j k m q s u x y z A A B B B A A z y x u s q m k j e d 8 2 | : / v                       ",
"                        +.-./ _ | 1 7 8 d e f k p m q r s t t u u u t t s r q m p k f e d 8 7 1 | _ -.+.                        ",
"                            g ~ / : | 1 7 8 d d e f j k k l l m m m l l k k j f e d d 8 7 1 | : / )+                            ",
"                              a 0 6 ( : | 1 c 7 8 9 d d e e e e f e e e e d d 9 8 7 c 1 | : ( ,+'+                              ",
"                                  b.l.6 / _ } | 1 2 7 7 8 8 8 9 9 9 8 8 8 7 7 2 1 | } _ / >+b.                                  ",
"                                      t.D.~ / ( _ } | | 1 1 1 2 2 2 1 1 1 | | } _ ( / D.t.                                      ",
"                                            V.@+~ / / ( _ _ : : : : : _ _ ( / / @+V.{                                           ",
"                                                  - b.= *+=+-+;+;+-+=+*+= b.-                                                   "};
