/* XPM */
static char * green0_xpm[] = {
"64 64 157 2",
"  	c #FF00FF",
". 	c #B7ACEC",
"+ 	c #99BEDD",
"@ 	c #83C3CA",
"# 	c #6CC2B5",
"$ 	c #51BFA1",
"% 	c #36BC8F",
"& 	c #11BA84",
"* 	c #51BFA0",
"= 	c #B6ACEC",
"- 	c #94BFD9",
"; 	c #68C2B1",
"> 	c #00BA82",
", 	c #00B981",
"' 	c #00B880",
") 	c #00B87F",
"! 	c #66C1B1",
"~ 	c #A2BAE3",
"{ 	c #6BC3B4",
"] 	c #00B77D",
"^ 	c #00B67C",
"/ 	c #00B57B",
"( 	c #00B57A",
"_ 	c #69C2B3",
": 	c #A1B9E2",
"< 	c #4BBF9C",
"[ 	c #00B479",
"} 	c #00B378",
"| 	c #00B277",
"1 	c #48BE9B",
"2 	c #A6B8E5",
"3 	c #5AC0A7",
"4 	c #00B276",
"5 	c #00B175",
"6 	c #00B074",
"7 	c #00B073",
"8 	c #57C0A6",
"9 	c #A5B7E4",
"0 	c #7FC3C6",
"a 	c #00AF72",
"b 	c #00AE71",
"c 	c #00AD70",
"d 	c #00AD6F",
"e 	c #00AC6E",
"f 	c #7DC3C6",
"g 	c #A9B6E6",
"h 	c #00AB6D",
"i 	c #00AB6C",
"j 	c #00AA6B",
"k 	c #00A96A",
"l 	c #4EBE9F",
"m 	c #A8B5E6",
"n 	c #96BFDB",
"o 	c #00A868",
"p 	c #00A767",
"q 	c #00A666",
"r 	c #00A565",
"s 	c #95BEDA",
"t 	c #8DC2D3",
"u 	c #00A564",
"v 	c #00A362",
"w 	c #00A261",
"x 	c #8CC1D3",
"y 	c #8AC2D1",
"z 	c #00A463",
"A 	c #89C2D0",
"B 	c #00A869",
"C 	c #8BC1D3",
"D 	c #0EBA83",
"E 	c #19BB84",
"F 	c #4BBE9E",
"G 	c #26BD86",
"H 	c #35BF8A",
"I 	c #39BF8B",
"J 	c #3DC08C",
"K 	c #41C18D",
"L 	c #7DC2C6",
"M 	c #4BC390",
"N 	c #54C594",
"O 	c #57C695",
"P 	c #5CC797",
"Q 	c #5FC898",
"R 	c #20BC85",
"S 	c #44C28E",
"T 	c #66CA9C",
"U 	c #6BCB9E",
"V 	c #73CEA2",
"W 	c #77CFA4",
"X 	c #7AD0A6",
"Y 	c #55BFA5",
"Z 	c #2CBD87",
"` 	c #51C493",
" .	c #75CEA3",
"..	c #7ED1A8",
"+.	c #87D4AD",
"@.	c #8BD5AF",
"#.	c #91D7B3",
"$.	c #93D8B4",
"%.	c #98BDDC",
"&.	c #47C28F",
"*.	c #59C796",
"=.	c #69CB9D",
"-.	c #82D2AA",
";.	c #8DD6B0",
">.	c #97D9B7",
",.	c #A0DCBC",
"'.	c #A7DFC1",
").	c #ABE0C3",
"!.	c #AFE2C6",
"~.	c #45BD9A",
"{.	c #6ECCA0",
"].	c #99DAB8",
"^.	c #B1E2C7",
"/.	c #BCE6CF",
"(.	c #C4E9D4",
"_.	c #C9EBD8",
":.	c #CDECDA",
"<.	c #CFEDDB",
"[.	c #A3DDBE",
"}.	c #B3E3C8",
"|.	c #C2E8D2",
"1.	c #DAF1E3",
"2.	c #E3F4EA",
"3.	c #EAF7EF",
"4.	c #EFF9F3",
"5.	c #F1FAF4",
"6.	c #67C1B3",
"7.	c #85D3AC",
"8.	c #A9E0C2",
"9.	c #DDF2E6",
"0.	c #EDF8F2",
"a.	c #FCFEFC",
"b.	c #FFFFFF",
"c.	c #C0E8D1",
"d.	c #D4EFDF",
"e.	c #E8F6EE",
"f.	c #FDFEFE",
"g.	c #D6F0E1",
"h.	c #63C0B0",
"i.	c #B6ABEC",
"j.	c #81C2C9",
"k.	c #68C1B4",
"l.	c #4CBE9E",
"m.	c #28BA8C",
"n.	c #00B77F",
"o.	c #7FC2C9",
"p.	c #61C0AF",
"q.	c #92BED9",
"r.	c #C69CF2",
"s.	c #65C0B2",
"t.	c #42BC99",
"u.	c #52BEA3",
"v.	c #7BC2C5",
"w.	c #48BD9D",
"x.	c #C999F3",
"y.	c #88C1D0",
"z.	c #C79CF2",
"                                                  . + @ # $ % & & % * # @ + =                                                   ",
"                                            - ; > , , ' ' ) ) ) ) ) ) ) ' ' , , ! -                                             ",
"                                      ~ { > , ' ) ] ^ ^ / / / ( ( ( / / / ^ ^ ] ) ' , _ :                                       ",
"                                  + < , ' ) ] ^ / ( [ } } | | | | | | | } } [ ( / ^ ] ) ' 1 +                                   ",
"                              2 3 , ' ] ^ / [ } | 4 5 6 6 7 7 7 7 7 7 7 6 6 5 4 | } [ / ^ ] ' 8 9                               ",
"                            0 > ' ] ^ ( [ | 4 5 7 a b c c d d d e d d d c c b a 7 5 4 | [ ( ^ ] ' f                             ",
"                        g * , ) ^ ( [ | 5 6 a b d e h i j j k k k k k j j i h e d b a 6 5 | [ ( ^ ) l m                         ",
"                      n > ' ] / [ | 5 7 a c e i j k o p q q r r r r r q q p o k j i e c a 7 5 | [ / ] ' s                       ",
"                    t > ' ] ( } 4 6 a c e i k o q r u v w w v v v v v w w v u r q o k i e c a 6 4 } ( ] ' x                     ",
"                  y > ) ^ ( | 5 7 c e i k p r z w v u r q p p o o o p p q r u v w z r p k i e c 7 5 | ( ^ ) A                   ",
"                t > ) ^ [ | 6 a d h k o r z v u q p B k j i h h e h h i j k B p q u v z r o k h d a 6 | [ ^ ) C                 ",
"              n > ) ^ [ | 6 b d i B q z w u q B j h d c a 7 7 6 6 6 7 7 a c d h j B q u w z q B i d b 6 | [ ^ ) s               ",
"            g > ' ^ [ | 6 b e j o r v z q B j e c 7 5 | } [ ( / / / ( [ } | 5 7 c e j B q z v r o j e b 6 | [ ^ ' m             ",
"            * ' ] ( | 6 b e j p u w u o j e b 6 | [ ^ ) ' > D E E E D > ' ) ^ [ | 6 b e j o u w u p j e b 6 | ( ] F             ",
"          0 , ] ( | 6 b e j p u v r B i c 7 | ( ] , E G H I J K K K J I H G E , ] ( | 7 c i B r v u p j e b 6 | ( ] L           ",
"        2 > ) / } 5 a d j p u v q k h b 5 [ ] > G H K M N O P Q Q Q P O N M K H G > ] [ 5 b h k q v u p j d a 5 } / ) 9         ",
"        3 ' ^ [ 4 7 d i o u v q k e a | / ' R H S N P T U V W X X X W V U T P N S H R ' / | a e k q v u o i d 7 4 [ ^ Y         ",
"      + , ] ( | 6 c h B r w r k e 7 | ^ > Z K ` Q U  ...+.@.#.$.$.$.#.@.+... .U Q ` K Z > ^ | 7 e k r w r B h c 6 | ( ] %.      ",
"      < ' ^ [ 5 a e k q v u B h a | ] D H &.*.=.W -.;.>.,.'.).!.!.!.).'.,.>.;.-.W =.*.&.H D ] | a h B u v q k e a 5 [ ^ ~.      ",
"    ~ , ] ( | 7 c i o z z o i b | ^ D H M Q {...;.].'.^./.(._.:.<.:._.(./.^.'.].;...{.Q M H D ^ | b i o z z o i c 7 | ( ] :     ",
"    { ' ^ [ 5 a e k r w q j c 5 / > H M Q V -.$.[.}.|.<.1.2.3.4.5.4.3.2.1.<.|.}.[.$.-.V Q M H > / 5 c j q w r k e a 5 [ ^ 6.    ",
"    > ) / | 6 c i p z u B e 7 [ ' Z &.Q V 7.>.8./.:.9.0.a.b.b.b.b.b.b.b.a.0.9.:./.8.>.7.V Q &.Z ' [ 7 e B u z p i c 6 | / )     ",
"  - , ] [ 4 a e k r v q j b | ] R K *.{.-.>.).c.d.e.f.b.b.b.b.b.b.b.b.b.b.b.f.e.d.c.).>.-.{.*.K R ] | b j q v r k e a 4 [ ] -   ",
"  ; ' ^ } 5 b i o z u B e 6 ( > H ` =...$.8.c.g.4.b.b.b.b.b.b.b.b.b.b.b.b.b.b.b.4.g.c.8.$...=.` H > ( 6 e B u z o i b 5 } ^ h.  ",
"  > ) / | 7 d j q w q j c | ] G S Q W ;.[./.d.4.b.b.b.b.b.b.b.b.b.b.b.b.b.b.b.b.b.4.d./.[.;.W Q S G ] | c j q w q j d 7 | / )   ",
". , ] ( 4 a e k r v p h 7 [ , H N U -.].}.:.e.b.b.b.b.b.b.b.b.b.b.b.b.b.b.b.b.b.b.b.e.:.}.].-.U N H , [ 7 h p v r k e a 4 ( ] i.",
"+ , ^ [ 5 b h o u u B d 5 ^ E K P  .;.'.|.9.f.b.b.b.b.b.b.b.b.b.b.b.b.b.b.b.b.b.b.b.f.9.|.'.;. .P K E ^ 5 d B u u o h b 5 [ ^ %.",
"@ ' ^ } 6 c i p v r k c | ) G M T ..>.^.<.0.b.b.b.b.b.b.b.b.b.b.b.b.b.b.b.b.b.b.b.b.b.0.<.^.>...T M G ) | c k r v p i c 6 } ^ j.",
"# ' / } 6 c j q w q j a } ' H N U +.,./.1.a.b.b.b.b.b.b.b.b.b.b.b.b.b.b.b.b.b.b.b.b.b.a.1./.,.+.U N H ' } a j q w q j c 6 } / k.",
"$ ) / | 7 d j q w p i 7 [ > I O V @.'.(.2.b.b.b.b.b.b.b.b.b.b.b.b.b.b.b.b.b.b.b.b.b.b.b.2.(.'.@.V O I > [ 7 i p w q j d 7 | / l.",
"% ) / | 7 d k r v p h 7 ( D J P W #.)._.3.b.b.b.b.b.b.b.b.b.b.b.b.b.b.b.b.b.b.b.b.b.b.b.3._.).#.W P J D ( 7 h p v r k d 7 | / m.",
"& ) ( | 7 d k r v o h 6 / E K Q X $.!.:.4.b.b.b.b.b.b.b.b.b.b.b.b.b.b.b.b.b.b.b.b.b.b.b.4.:.!.$.X Q K E / 6 h o v r k d 7 | ( n.",
"& ) ( | 7 e k r v o e 6 / E K Q X $.!.<.5.b.b.b.b.b.b.b.b.b.b.b.b.b.b.b.b.b.b.b.b.b.b.b.5.<.!.$.X Q K E / 6 e o v r k e 7 | ( n.",
"% ) ( | 7 d k r v o h 6 / E K Q X $.!.:.4.b.b.b.b.b.b.b.b.b.b.b.b.b.b.b.b.b.b.b.b.b.b.b.4.:.!.$.X Q K E / 6 h o v r k d 7 | ( m.",
"* ) / | 7 d k r v p h 7 ( D J P W #.)._.3.b.b.b.b.b.b.b.b.b.b.b.b.b.b.b.b.b.b.b.b.b.b.b.3._.).#.W P J D ( 7 h p v r k d 7 | / l.",
"# ) / | 7 d j q w p i 7 [ > I O V @.'.(.2.b.b.b.b.b.b.b.b.b.b.b.b.b.b.b.b.b.b.b.b.b.b.b.2.(.'.@.V O I > [ 7 i p w q j d 7 | / k.",
"@ ' / } 6 c j q w q j a } ' H N U +.,./.1.a.b.b.b.b.b.b.b.b.b.b.b.b.b.b.b.b.b.b.b.b.b.a.1./.,.+.U N H ' } a j q w q j c 6 } / o.",
"+ ' ^ } 6 c i p v r k c | ) G M T ..>.^.<.0.b.b.b.b.b.b.b.b.b.b.b.b.b.b.b.b.b.b.b.b.b.0.<.^.>...T M G ) | c k r v p i c 6 } ^ %.",
"= , ^ [ 5 b h o u u B d 5 ^ E K P  .;.'.|.9.f.b.b.b.b.b.b.b.b.b.b.b.b.b.b.b.b.b.b.b.f.9.|.'.;. .P K E ^ 5 d B u u o h b 5 [ ^ i.",
"  , ] ( 4 a e k r v p h 7 [ , H N U -.].}.:.e.b.b.b.b.b.b.b.b.b.b.b.b.b.b.b.b.b.b.b.e.:.}.].-.U N H , [ 7 h p v r k e a 4 ( ]   ",
"  ! ) / | 7 d j q w q j c | ] G S Q W ;.[./.d.4.b.b.b.b.b.b.b.b.b.b.b.b.b.b.b.b.b.4.d./.[.;.W Q S G ] | c j q w q j d 7 | / p.  ",
"  - ' ^ } 5 b i o z u B e 6 ( > H ` =...$.8.c.g.4.b.b.b.b.b.b.b.b.b.b.b.b.b.b.b.4.g.c.8.$...=.` H > ( 6 e B u z o i b 5 } ^ q.  ",
"    , ] [ 4 a e k r v q j b | ] R K *.{.-.>.).c.d.e.f.b.b.b.b.b.b.b.b.b.b.b.f.e.d.c.).>.-.{.*.K R ] | b j q v r k e a 4 [ ] r.  ",
"    _ ) / | 6 c i p z u B e 7 [ ' Z &.Q V 7.>.8./.:.9.0.a.b.b.b.b.b.b.b.a.0.9.:./.8.>.7.V Q &.Z ' [ 7 e B u z p i c 6 | / s.    ",
"    : ' ^ [ 5 a e k r w q j c 5 / > H M Q V -.$.[.}.|.<.1.2.3.4.5.4.3.2.1.<.|.}.[.$.-.V Q M H > / 5 c j q w r k e a 5 [ ^ :     ",
"      1 ] ( | 7 c i o z z o i b | ^ D H M Q {...;.].'.^./.(._.:.<.:._.(./.^.'.].;...{.Q M H D ^ | b i o z z o i c 7 | ( t.      ",
"      + ' ^ [ 5 a e k q v u B h a | ] D H &.*.=.W -.;.>.,.'.).!.!.!.).'.,.>.;.-.W =.*.&.H D ] | a h B u v q k e a 5 [ ^ %.      ",
"        8 ] ( | 6 c h B r w r k e 7 | ^ > Z K ` Q U  ...+.@.#.$.$.$.#.@.+... .U Q ` K Z > ^ | 7 e k r w r B h c 6 | ( u.        ",
"        9 ' ^ [ 4 7 d i o u v q k e a | / ' R H S N P T U V W X X X W V U T P N S H R ' / | a e k q v u o i d 7 4 [ ^ 9         ",
"          f ) / } 5 a d j p u v q k h b 5 [ ] > G H K M N O P Q Q Q P O N M K H G > ] [ 5 b h k q v u p j d a 5 } / v.          ",
"            l ] ( | 6 b e j p u v r B i c 7 | ( ] , E G H I J K K K J I H G E , ] ( | 7 c i B r v u p j e b 6 | ( w.x.          ",
"            m ' ] ( | 6 b e j p u w u o j e b 6 | [ ^ ) ' > D E E E D > ' ) ^ [ | 6 b e j o u w u p j e b 6 | ( ] m             ",
"              s ' ^ [ | 6 b e j o r v z q B j e c 7 5 | } [ ( / / / ( [ } | 5 7 c e j B q z v r o j e b 6 | [ ^ s               ",
"                x ) ^ [ | 6 b d i B q z w u q B j h d c a 7 7 6 6 6 7 7 a c d h j B q u w z q B i d b 6 | [ ^ C                 ",
"                  A ) ^ [ | 6 a d h k o r z v u q p B k j i h h e h h i j k B p q u v z r o k h d a 6 | [ ^ y.                  ",
"                    C ) ^ ( | 5 7 c e i k p r z w v u r q p p o o o p p q r u v w z r p k i e c 7 5 | ( ^ C                     ",
"                      s ' ] ( } 4 6 a c e i k o q r u v w w v v v v v w w v u r q o k i e c a 6 4 } ( ] s                       ",
"                        m F ] / [ | 5 7 a c e i j k o p q q r r r r r q q p o k j i e c a 7 5 | [ / w.m                         ",
"                          x.L ) ^ ( [ | 5 6 a b d e h i j j k k k k k j j i h e d b a 6 5 | [ ( ^ v.                            ",
"                              9 Y ] ^ ( [ | 4 5 7 a b c c d d d e d d d c c b a 7 5 4 | [ ( ^ u.9                               ",
"                                  %.~.] ^ / [ } | 4 5 6 6 7 7 7 7 7 7 7 6 6 5 4 | } [ / ^ t.%.                                  ",
"                                      : 6.) ] ^ / ( [ } } | | | | | | | } } [ ( / ^ ] s.:                                       ",
"                                          z.- h.) ] ^ ^ / / / ( ( ( / / / ^ ^ ] p.q.                                            ",
"                                                  i.%.j.k.l.m.n.n.m.l.k.o.%.i.                                                  "};
