/* XPM */
static char * green2_xpm[] = {
"64 64 206 2",
"  	c #FF00FF",
". 	c #B8AEED",
"+ 	c #9FC1DF",
"@ 	c #8DC8CD",
"# 	c #80C9BA",
"$ 	c #71C7A8",
"% 	c #63C599",
"& 	c #5BC38F",
"* 	c #58C38E",
"= 	c #6FC6A7",
"- 	c #9EC1DE",
"; 	c #C89EF2",
"> 	c #9BC3DB",
", 	c #7CC8B7",
"' 	c #57C38E",
") 	c #55C28C",
"! 	c #52C28B",
"~ 	c #52C18B",
"{ 	c #4FC18A",
"] 	c #A6BDE4",
"^ 	c #7FC9B9",
"/ 	c #58C38D",
"( 	c #4FC189",
"_ 	c #4CC088",
": 	c #49BF87",
"< 	c #46BF86",
"[ 	c #7DC8B9",
"} 	c #6EC6A4",
"| 	c #4CC089",
"1 	c #49C088",
"2 	c #42BE85",
"3 	c #43BE84",
"4 	c #3FBD84",
"5 	c #3FBD83",
"6 	c #3BBC83",
"7 	c #6BC6A3",
"8 	c #AABBE6",
"9 	c #75C8AE",
"0 	c #46BE85",
"a 	c #3CBC82",
"b 	c #37BC82",
"c 	c #33BB81",
"d 	c #34BB80",
"e 	c #2EBA7F",
"f 	c #2FBA7F",
"g 	c #73C7AC",
"h 	c #8BC9CA",
"i 	c #2AB97E",
"j 	c #25B97D",
"k 	c #1FB87B",
"l 	c #17B77A",
"m 	c #8AC8CA",
"n 	c #ACB8E7",
"o 	c #71C7A7",
"p 	c #29BA7E",
"q 	c #0CB779",
"r 	c #00B678",
"s 	c #00B577",
"t 	c #00B476",
"u 	c #6FC6A6",
"v 	c #ABB8E7",
"w 	c #9CC2DD",
"x 	c #1DB87C",
"y 	c #0EB679",
"z 	c #00B475",
"A 	c #00B374",
"B 	c #00B373",
"C 	c #00B272",
"D 	c #00B171",
"E 	c #9CC2DC",
"F 	c #95C6D6",
"G 	c #00B170",
"H 	c #00B06F",
"I 	c #00AF6E",
"J 	c #00AE6D",
"K 	c #95C6D5",
"L 	c #93C7D4",
"M 	c #38BC81",
"N 	c #00AE6C",
"O 	c #00AD6B",
"P 	c #00AC6A",
"Q 	c #00AB69",
"R 	c #00AB68",
"S 	c #93C7D3",
"T 	c #00AA67",
"U 	c #00A966",
"V 	c #00AA66",
"W 	c #00B273",
"X 	c #00A965",
"Y 	c #00AD6A",
"Z 	c #00AF6D",
"` 	c #24B97D",
" .	c #00AC69",
"..	c #00B271",
"+.	c #00B474",
"@.	c #00B372",
"#.	c #12B677",
"$.	c #23B779",
"%.	c #2EB87B",
"&.	c #32B97C",
"*.	c #37BA7C",
"=.	c #6DC6A5",
"-.	c #14B676",
";.	c #29B87A",
">.	c #3EBB7F",
",.	c #45BD81",
"'.	c #4CBE83",
").	c #4FBF84",
"!.	c #52BF85",
"~.	c #8AC8C9",
"{.	c #3ABB7E",
"].	c #49BD82",
"^.	c #5AC188",
"/.	c #60C38B",
"(.	c #65C48D",
"_.	c #6AC58E",
":.	c #6CC690",
"<.	c #A9BAE5",
"[.	c #3BBA7D",
"}.	c #55C086",
"|.	c #74C893",
"1.	c #7BCA96",
"2.	c #7FCB98",
"3.	c #83CD9A",
"4.	c #86CD9C",
"5.	c #71C6AC",
"6.	c #07B575",
"7.	c #42BC7F",
"8.	c #78C995",
"9.	c #81CC9A",
"0.	c #8ACF9E",
"a.	c #92D1A3",
"b.	c #99D3A6",
"c.	c #9DD5A8",
"d.	c #9FD5A9",
"e.	c #A1D6AB",
"f.	c #58C187",
"g.	c #68C58D",
"h.	c #76C994",
"i.	c #8ED0A0",
"j.	c #9BD4A7",
"k.	c #A5D7AC",
"l.	c #ADDAB1",
"m.	c #B2DCB5",
"n.	c #B8DEB9",
"o.	c #BCDFBA",
"p.	c #BCDFBB",
"q.	c #69C5A2",
"r.	c #7DCB97",
"s.	c #98D3A6",
"t.	c #A6D8AE",
"u.	c #BEE0BC",
"v.	c #C7E3C2",
"w.	c #D0E6C7",
"x.	c #D6E8CB",
"y.	c #DAE9CE",
"z.	c #DBEACF",
"A.	c #A6BCE3",
"B.	c #90D0A1",
"C.	c #B0DBB4",
"D.	c #C0E0BD",
"E.	c #CDE5C6",
"F.	c #E6EED7",
"G.	c #EFF1DC",
"H.	c #F6F3E2",
"I.	c #FBF5E5",
"J.	c #FDF6E6",
"K.	c #7BC8B8",
"L.	c #92D1A2",
"M.	c #B6DDB7",
"N.	c #EAEFD9",
"O.	c #FAF4E4",
"P.	c #FFF9ED",
"Q.	c #FFFAF2",
"R.	c #FFFCF6",
"S.	c #FFFDF9",
"T.	c #FFFDFA",
"U.	c #E1ECD3",
"V.	c #F6F3E1",
"W.	c #FFF9EE",
"X.	c #FFFFFE",
"Y.	c #FFFFFF",
"Z.	c #9AC3DB",
"`.	c #E4EDD5",
" +	c #FFFEFD",
".+	c #7AC7B5",
"++	c #FFFBF4",
"@+	c #8BC7CC",
"#+	c #7CC7B9",
"$+	c #6DC5A6",
"%+	c #5EC396",
"&+	c #53C18B",
"*+	c #6BC5A6",
"=+	c #9DC0DE",
"-+	c #B7ADEC",
";+	c #78C7B5",
">+	c #99C2DB",
",+	c #7BC7B7",
"'+	c #67C4A1",
")+	c #6FC5AA",
"!+	c #A8BAE5",
"~+	c #88C7C9",
"{+	c #6AC5A4",
"]+	c #9AC1DC",
"^+	c #93C5D5",
"/+	c #91C6D3",
"                                                  . + @ # $ % & * % = # @ - .                                                   ",
"                                          ; > , ' ) ) ! ~ ~ { { { { { ~ ~ ! ) ) , > ;                                           ",
"                                      ] ^ / ) ! { ( _ _ : : : < < < : : : _ _ ( { ! ) [ ]                                       ",
"                                  + } ) ! { | 1 : < 2 3 4 5 6 6 6 6 6 5 4 3 2 < : 1 | { ! 7 -                                   ",
"                              8 9 ) ~ ( _ : 0 3 5 a b c d e f f f f f e d c b a 5 3 0 : _ ( ~ g 8                               ",
"                            h / ! ( _ < 2 5 a c e f i j k k k l l l k k k j i f e c a 5 2 < _ ( ! m                             ",
"                        n o ) { _ < 2 6 b d p j k l q r r s s s t s s s r r q l k j p d b 6 2 < _ { u v                         ",
"                      w ' ! ( : 2 5 b d i x l y s t z A B C C C D C C C B A z t s y l x i d b 5 2 : ( ! E                       ",
"                    F / ~ _ < 3 a d i k l r t A B D G H I I J J J J J I I H G D B A t r l k i d a 3 < _ ~ K                     ",
"                  L / ~ _ < 4 M f j l r t A C G I J N O P Q R R R R R Q P O N J I G C A t r l j f M 4 < _ ~ S                   ",
"                F / ~ _ 0 6 c i k q s A C H I N P R T U U V T R R R T V U U T R P N I H C A s q k i c 6 0 _ ~ K                 ",
"              w / ~ _ 2 6 d i l r z W G I O Q T X T Q Y O N Z Z I Z Z N O Y Q T X T Q O I G W z r l i d 6 2 _ ~ E               ",
"            n ' ~ _ 0 6 d ` l s A D H N  .T U R Y N I G ..B B +.+.+.B B ..G I N Y R U T  .N H D A s l ` d 6 0 _ ~ v             ",
"            o ! _ < 6 d ` l s A D I O R X R O Z G @.z #.$.%.&.&.*.&.&.%.$.#.z @.G Z O R X R O I D A s l ` d 6 < _ =.            ",
"          h ) ( < 4 c i l s A G J P T V P Z G B -.;.*.>.,.'.).!.!.!.).'.,.>.*.;.-.B G Z P V T P J G A s l i c 4 < ( ~.          ",
"        8 / { : 3 M i l s A G J P U R O H @.-.%.{.].!.^./.(._.:.:.:._.(./.^.!.].{.%.-.@.H O R U P J G A s l i M 3 : { <.        ",
"        9 ! _ 2 a f k r A D J P U R N G +.$.[.].}./._.|.1.2.3.4.4.4.3.2.1.|._./.}.].[.$.+.G N R U P J D A r k f a 2 _ 5.        ",
"      + ) ( < 5 d j q z D I P U R N ..6.%.7.!./.:.8.9.0.a.b.c.d.e.d.c.b.a.0.9.8.:./.!.7.%.6...N R U P I D z q j d 5 < ( -       ",
"      } ~ _ 2 b i l s W H O T R N ..6.&.,.f.g.h.3.i.j.k.l.m.n.o.p.o.n.m.l.k.j.i.3.h.g.f.,.&.6...N R T O H W s l i b 2 _ q.      ",
"    ] ) ( < 6 d k r A G N R V O G 6.&.].^.:.r.0.s.t.m.u.v.w.x.y.z.y.x.w.v.u.m.t.s.0.r.:.^.].&.6.G O V R N G A r k d 6 < ( A.    ",
"    ^ ! _ 2 b i l t C I  .X P H +.%.,.^.:.2.B.e.C.D.E.z.F.G.H.I.J.I.H.G.F.z.E.D.C.e.B.2.:.^.,.%.+.H P X  .I C t l i b 2 _ K.    ",
"  ; / { : 5 d x r A H O T R Z @.$.7.f.:.2.L.k.M.v.y.N.O.P.Q.R.S.T.S.R.Q.P.O.N.y.v.M.k.L.2.:.f.7.$.@.Z R T O H A r x d 5 : { ;   ",
"  > ) | 0 a p l t C I Q U O G -.[.!.g.r.B.k.n.E.U.V.W.R.X.Y.Y.Y.Y.Y.Y.Y.X.R.W.V.U.E.n.k.B.r.g.!.[.-.G O U Q I C t l p a 0 | Z.  ",
"  , ! 1 3 c j y A G N T R Z B %.]./.h.0.e.M.E.`.I.Q. +Y.Y.Y.Y.Y.Y.Y.Y.Y.Y.Y. +Q.I.`.E.M.e.0.h./.].%.B Z R T N G A y j c 3 1 .+  ",
"  ' { : 5 e k s B I P X Y G -.{.}.:.3.s.C.v.U.I.++Y.Y.Y.Y.Y.Y.Y.Y.Y.Y.Y.Y.Y.Y.Y.++I.U.v.C.s.3.:.}.{.-.G Y X P I B s k e 5 : {   ",
". ) ( < a f l t D J R T N @.;.]./.8.i.t.D.y.V.Q.Y.Y.Y.Y.Y.Y.Y.Y.Y.Y.Y.Y.Y.Y.Y.Y.Y.Q.V.y.D.t.i.8./.].;.@.N T R J D t l f a < ( . ",
"+ ) _ 2 b i q z G N T Q I z *.!._.9.j.m.E.N.W. +Y.Y.Y.Y.Y.Y.Y.Y.Y.Y.Y.Y.Y.Y.Y.Y.Y. +W.N.E.m.j.9._.!.*.z I Q T N G z q i b 2 _ - ",
"@ ! _ 3 c j r A H O U Y G #.>.^.|.0.k.u.z.O.R.Y.Y.Y.Y.Y.Y.Y.Y.Y.Y.Y.Y.Y.Y.Y.Y.Y.Y.Y.R.O.z.u.k.0.|.^.>.#.G Y U O H A r j c 3 _ @+",
"# ~ : 4 d k r B I P U O ..$.,./.1.a.l.v.F.P.X.Y.Y.Y.Y.Y.Y.Y.Y.Y.Y.Y.Y.Y.Y.Y.Y.Y.Y.Y.X.P.F.v.l.a.1./.,.$...O U P I B r k d 4 : #+",
"$ ~ : 5 e k s C I Q V N B %.'.(.2.b.m.w.G.Q.Y.Y.Y.Y.Y.Y.Y.Y.Y.Y.Y.Y.Y.Y.Y.Y.Y.Y.Y.Y.Y.Q.G.w.m.b.2.(.'.%.B N V Q I C s k e 5 : $+",
"% { : 6 f k s C J R T Z B &.)._.3.c.n.x.H.R.Y.Y.Y.Y.Y.Y.Y.Y.Y.Y.Y.Y.Y.Y.Y.Y.Y.Y.Y.Y.Y.R.H.x.n.c.3._.).&.B Z T R J C s k f 6 : %+",
"& { < 6 f l s C J R R Z +.&.!.:.4.d.o.y.I.S.Y.Y.Y.Y.Y.Y.Y.Y.Y.Y.Y.Y.Y.Y.Y.Y.Y.Y.Y.Y.Y.S.I.y.o.d.4.:.!.&.+.Z R R J C s l f 6 < &+",
"* { < 6 f l t D J R R I +.*.!.:.4.e.p.z.J.T.Y.Y.Y.Y.Y.Y.Y.Y.Y.Y.Y.Y.Y.Y.Y.Y.Y.Y.Y.Y.Y.T.J.z.p.e.4.:.!.*.+.I R R J D t l f 6 < &+",
"% { < 6 f l s C J R R Z +.&.!.:.4.d.o.y.I.S.Y.Y.Y.Y.Y.Y.Y.Y.Y.Y.Y.Y.Y.Y.Y.Y.Y.Y.Y.Y.Y.S.I.y.o.d.4.:.!.&.+.Z R R J C s l f 6 < %+",
"= { : 6 f k s C J R T Z B &.)._.3.c.n.x.H.R.Y.Y.Y.Y.Y.Y.Y.Y.Y.Y.Y.Y.Y.Y.Y.Y.Y.Y.Y.Y.Y.R.H.x.n.c.3._.).&.B Z T R J C s k f 6 : *+",
"# ~ : 5 e k s C I Q V N B %.'.(.2.b.m.w.G.Q.Y.Y.Y.Y.Y.Y.Y.Y.Y.Y.Y.Y.Y.Y.Y.Y.Y.Y.Y.Y.Y.Q.G.w.m.b.2.(.'.%.B N V Q I C s k e 5 : #+",
"@ ~ : 4 d k r B I P U O ..$.,./.1.a.l.v.F.P.X.Y.Y.Y.Y.Y.Y.Y.Y.Y.Y.Y.Y.Y.Y.Y.Y.Y.Y.Y.X.P.F.v.l.a.1./.,.$...O U P I B r k d 4 : @+",
"- ! _ 3 c j r A H O U Y G #.>.^.|.0.k.u.z.O.R.Y.Y.Y.Y.Y.Y.Y.Y.Y.Y.Y.Y.Y.Y.Y.Y.Y.Y.Y.R.O.z.u.k.0.|.^.>.#.G Y U O H A r j c 3 _ =+",
". ) _ 2 b i q z G N T Q I z *.!._.9.j.m.E.N.W. +Y.Y.Y.Y.Y.Y.Y.Y.Y.Y.Y.Y.Y.Y.Y.Y.Y. +W.N.E.m.j.9._.!.*.z I Q T N G z q i b 2 _ -+",
"  ) ( < a f l t D J R T N @.;.]./.8.i.t.D.y.V.Q.Y.Y.Y.Y.Y.Y.Y.Y.Y.Y.Y.Y.Y.Y.Y.Y.Y.Q.V.y.D.t.i.8./.].;.@.N T R J D t l f a < (   ",
"  , { : 5 e k s B I P X Y G -.{.}.:.3.s.C.v.U.I.++Y.Y.Y.Y.Y.Y.Y.Y.Y.Y.Y.Y.Y.Y.Y.++I.U.v.C.s.3.:.}.{.-.G Y X P I B s k e 5 : ;+  ",
"  > ! 1 3 c j y A G N T R Z B %.]./.h.0.e.M.E.`.I.Q. +Y.Y.Y.Y.Y.Y.Y.Y.Y.Y.Y. +Q.I.`.E.M.e.0.h./.].%.B Z R T N G A y j c 3 1 >+  ",
"    ) | 0 a p l t C I Q U O G -.[.!.g.r.B.k.n.E.U.V.W.R.X.Y.Y.Y.Y.Y.Y.Y.X.R.W.V.U.E.n.k.B.r.g.!.[.-.G O U Q I C t l p a 0 | ;   ",
"    [ { : 5 d x r A H O T R Z @.$.7.f.:.2.L.k.M.v.y.N.O.P.Q.R.S.T.S.R.Q.P.O.N.y.v.M.k.L.2.:.f.7.$.@.Z R T O H A r x d 5 : ,+    ",
"    ] ! _ 2 b i l t C I  .X P H +.%.,.^.:.2.B.e.C.D.E.z.F.G.H.I.J.I.H.G.F.z.E.D.C.e.B.2.:.^.,.%.+.H P X  .I C t l i b 2 _ A.    ",
"      7 ( < 6 d k r A G N R V O G 6.&.].^.:.r.0.s.t.m.u.v.w.x.y.z.y.x.w.v.u.m.t.s.0.r.:.^.].&.6.G O V R N G A r k d 6 < '+      ",
"      - ~ _ 2 b i l s W H O T R N ..6.&.,.f.g.h.3.i.j.k.l.m.n.o.p.o.n.m.l.k.j.i.3.h.g.f.,.&.6...N R T O H W s l i b 2 _ =+      ",
"        g ( < 5 d j q z D I P U R N ..6.%.7.!./.:.8.9.0.a.b.c.d.e.d.c.b.a.0.9.8.:./.!.7.%.6...N R U P I D z q j d 5 < )+        ",
"        8 ! _ 2 a f k r A D J P U R N G +.$.[.].}./._.|.1.2.3.4.4.4.3.2.1.|._./.}.].[.$.+.G N R U P J D A r k f a 2 _ !+        ",
"          m { : 3 M i l s A G J P U R O H @.-.%.{.].!.^./.(._.:.:.:._.(./.^.!.].{.%.-.@.H O R U P J G A s l i M 3 : ~+          ",
"            u ( < 4 c i l s A G J P T V P Z G B -.;.*.>.,.'.).!.!.!.).'.,.>.*.;.-.B G Z P V T P J G A s l i c 4 < {+            ",
"            v ! _ < 6 d ` l s A D I O R X R O Z G @.z #.$.%.&.&.*.&.&.%.$.#.z @.G Z O R X R O I D A s l ` d 6 < _ v             ",
"              E ~ _ 0 6 d ` l s A D H N  .T U R Y N I G ..B B +.+.+.B B ..G I N Y R U T  .N H D A s l ` d 6 0 _ ]+              ",
"                K ~ _ 2 6 d i l r z W G I O Q T X T Q Y O N Z Z I Z Z N O Y Q T X T Q O I G W z r l i d 6 2 _ ^+                ",
"                  S ~ _ 0 6 c i k q s A C H I N P R T U U V T R R R T V U U T R P N I H C A s q k i c 6 0 _ /+                  ",
"                    K ~ _ < 4 M f j l r t A C G I J N O P Q R R R R R Q P O N J I G C A t r l j f M 4 < _ ^+                    ",
"                      E ~ _ < 3 a d i k l r t A B D G H I I J J J J J I I H G D B A t r l k i d a 3 < _ ]+                      ",
"                        v =.( : 2 5 b d i x l y s t z A B C C C D C C C B A z t s y l x i d b 5 2 : {+v                         ",
"                            ~.{ _ < 2 6 b d p j k l q r r s s s t s s s r r q l k j p d b 6 2 < _ ~+                            ",
"                              <.5.( _ < 2 5 a c e f i j k k k l l l k k k j i f e c a 5 2 < _ )+!+                              ",
"                                  - q.( _ : 0 3 5 a b c d e f f f f f e d c b a 5 3 0 : _ '+=+                                  ",
"                                      A.K.{ | 1 : < 2 3 4 5 6 6 6 6 6 5 4 3 2 < : 1 | ,+A.                                      ",
"                                            Z..+{ ( _ _ : : : < < < : : : _ _ ( ;+>+                                            ",
"                                                  . - @+#+$+%+&+&+%+*+#+@+=+-+                                                  "};
