/* XPM */
static char * green1_xpm[] = {
"64 64 183 2",
"  	c #FF00FF",
". 	c #B7ADEC",
"+ 	c #9BBFDD",
"@ 	c #89C6CC",
"# 	c #76C6B8",
"$ 	c #61C3A4",
"% 	c #4FC194",
"& 	c #41BF89",
"* 	c #87C5CC",
"= 	c #C89DF2",
"- 	c #97C1DA",
"; 	c #72C5B4",
"> 	c #3CBE88",
", 	c #3CBE87",
"' 	c #38BE86",
") 	c #34BD85",
"! 	c #2FBC84",
"~ 	c #C79DF2",
"{ 	c #A4BBE3",
"] 	c #75C6B7",
"^ 	c #30BC84",
"/ 	c #2BBB82",
"( 	c #25BB82",
"_ 	c #26BB81",
": 	c #1EBA81",
"< 	c #1FBA80",
"[ 	c #73C5B6",
"} 	c #5FC3A0",
"| 	c #2ABC83",
"1 	c #16B980",
"2 	c #18B97F",
"3 	c #0DB87E",
"4 	c #00B87D",
"5 	c #5CC29F",
"6 	c #A8B9E5",
"7 	c #68C4AA",
"8 	c #00B77C",
"9 	c #00B67B",
"0 	c #00B67A",
"a 	c #00B579",
"b 	c #66C3A9",
"c 	c #85C6C8",
"d 	c #00B478",
"e 	c #00B377",
"f 	c #00B376",
"g 	c #00B274",
"h 	c #84C5C8",
"i 	c #ABB7E7",
"j 	c #63C3A4",
"k 	c #0BB97F",
"l 	c #00B173",
"m 	c #00B172",
"n 	c #00B071",
"o 	c #00AF70",
"p 	c #5EC2A2",
"q 	c #AAB6E6",
"r 	c #9AC1DC",
"s 	c #00AE6F",
"t 	c #00AD6E",
"u 	c #00AD6D",
"v 	c #00AC6C",
"w 	c #00AC6B",
"x 	c #99C0DB",
"y 	c #91C4D4",
"z 	c #00B072",
"A 	c #00AE6E",
"B 	c #00AB6A",
"C 	c #00AA69",
"D 	c #00A968",
"E 	c #00A867",
"F 	c #00A866",
"G 	c #8FC5D2",
"H 	c #00B87E",
"I 	c #00A765",
"J 	c #00A664",
"K 	c #00A563",
"L 	c #8DC4D2",
"M 	c #00A967",
"N 	c #00AB6B",
"O 	c #00AF6F",
"P 	c #00B273",
"Q 	c #00B375",
"R 	c #00B476",
"S 	c #00B477",
"T 	c #00B578",
"U 	c #00B77A",
"V 	c #12B87D",
"W 	c #23B97E",
"X 	c #29BA7F",
"Y 	c #28BA80",
"Z 	c #1BB97E",
"` 	c #2EBB80",
" .	c #36BC83",
"..	c #3EBE85",
"+.	c #45BF87",
"@.	c #49C088",
"#.	c #4CC089",
"$.	c #83C5C8",
"%.	c #31BC82",
"&.	c #42BE86",
"*.	c #55C28C",
"=.	c #5AC48F",
"-.	c #60C591",
";.	c #65C793",
">.	c #68C794",
",.	c #67C795",
"'.	c #A7B8E5",
").	c #32BB81",
"!.	c #4FC18A",
"~.	c #6CC997",
"{.	c #73CB9A",
"].	c #7ACD9D",
"^.	c #7CCE9F",
"/.	c #81CFA1",
"(.	c #64C3A8",
"_.	c #00B679",
":.	c #3ABD83",
"<.	c #74CA9A",
"[.	c #7DCD9E",
"}.	c #85D0A3",
"|.	c #8ED3A8",
"1.	c #94D5AB",
"2.	c #98D6AD",
"3.	c #9AD7AF",
"4.	c #52C28B",
"5.	c #62C692",
"6.	c #71CA98",
"7.	c #8AD1A5",
"8.	c #94D5AC",
"9.	c #9ED8B2",
"0.	c #A6DBB7",
"a.	c #AEDDBB",
"b.	c #B2DFBE",
"c.	c #B6E0C0",
"d.	c #B8E1C1",
"e.	c #5AC19E",
"f.	c #75CB9C",
"g.	c #A2D9B3",
"h.	c #B9E1C2",
"i.	c #C3E5C9",
"j.	c #CAE7CE",
"k.	c #D0E9D2",
"l.	c #D3EBD4",
"m.	c #D5EBD5",
"n.	c #A3BAE3",
"o.	c #AADCB9",
"p.	c #C9E7CC",
"q.	c #E0EFDC",
"r.	c #EBF3E3",
"s.	c #F2F5E9",
"t.	c #F5F7EC",
"u.	c #F7F7ED",
"v.	c #71C4B5",
"w.	c #8CD2A7",
"x.	c #B0DEBD",
"y.	c #E6F1DF",
"z.	c #F4F6EB",
"A.	c #FFFBF5",
"B.	c #FFFDFB",
"C.	c #FFFFFF",
"D.	c #C7E6CB",
"E.	c #DBEDD9",
"F.	c #F0F5E7",
"G.	c #FFFCF5",
"H.	c #DEEFDB",
"I.	c #6EC4B3",
"J.	c #FFFEFC",
"K.	c #87C5CB",
"L.	c #72C4B6",
"M.	c #5CC1A2",
"N.	c #46BE91",
"O.	c #35BD85",
"P.	c #85C4CA",
"Q.	c #6EC4B2",
"R.	c #96C0DA",
"S.	c #71C4B4",
"T.	c #55C09D",
"U.	c #61C2A7",
"V.	c #82C4C7",
"W.	c #59C1A1",
"X.	c #98C0DB",
"Y.	c #8FC3D3",
"Z.	c #8CC3D1",
"                                                  . + @ # $ % & & % $ # * + .                                                   ",
"                                          = - ; > , ' ) ) ) ! ! ! ! ! ) ) ) ' , ; - ~                                           ",
"                                      { ] > ' ) ! ^ / ( _ _ : < < < : _ _ ( / ^ ! ) ' [ {                                       ",
"                                  + } , ) ! | ( : 1 2 3 3 4 4 4 4 4 4 4 3 3 2 1 : ( | ! ) 5 +                                   ",
"                              6 7 , ) ^ / : 2 3 4 8 9 9 0 0 a a a a a 0 0 9 9 8 4 3 2 : / ^ ) b 6                               ",
"                            c > ) ^ ( < 2 4 8 9 0 a d e f f g g g g g f f e d a 0 9 8 4 2 < ( ^ ) h                             ",
"                        i j ' ! / < k 4 9 0 d e f g l m n n o o o o o n n m l g f e d 0 9 4 k < / ! p q                         ",
"                      r > ) ^ _ 2 4 9 0 d f g m n o s t u v v w w w v v u t s o n m g f d 0 9 4 2 _ ^ ) x                       ",
"                    y , ) / < 3 8 0 d f l z o A u w B C D E E F F F E E D C B w u A o z l f d 0 8 3 < / ) y                     ",
"                  G , ) / 1 H 9 a e g z o t v B D E I J K J I I I I I J K J I E D B v t o z g e a 9 H 1 / ) L                   ",
"                y , ) ( 2 4 9 d f l o t v C E I K I F M C C B B N B B C C M F I K I E C v t o l f d 9 4 2 ( ) y                 ",
"              r , ) ( 2 4 0 d g z s v B E I J F D B v u A O o n n n o O A u v B D F J I E B v s z g d 0 4 2 ( ) x               ",
"            i > ) / 2 4 0 e g n A w D F K F C N u o z P Q R S S T S S R Q P z o u N C F K F D w A n g e 0 4 2 / ) q             ",
"            j ) / 1 4 0 e g n t N M J I D N t n P R T U V W X Y Y Y X W V U T R P n t N D I J M N t n g e 0 4 1 / p             ",
"          c ' ^ < H 9 d g n u B E K F C u o P S U Z `  ...+.@.#.#.#.@.+... .` Z U S P o u C F K E B u n g d 9 H < ^ $.          ",
"        6 > ! _ 3 9 d g n t B E K E B A m R U W %.&.#.*.=.-.;.>.,.>.;.-.=.*.#.&.%.W U R m A B E K E B t n g d 9 3 _ ! '.        ",
"        7 ) / 2 8 a f z A N E K E N O P T V ).&.!.=.;.~.{.].^./././.^.].{.~.;.=.!.&.).V T P O N E K E N A z f a 8 2 / (.        ",
"      + , ^ < 4 0 e l s w M K E N O g _.W :.#.=.,.<.[.}.|.1.2.3.3.3.2.1.|.}.[.<.,.=.#.:.W _.g O N E K M w s l e 0 4 < ^ +       ",
"      } ) ( k 9 d g o v D J F B O g _.X ..4.5.6.^.7.8.9.0.a.b.c.d.c.b.a.0.9.8.7.^.6.5.4...X _.g O B F J D v o g d 9 k ( e.      ",
"    { , ^ < 4 0 f z t B F I C A P _.X &.*.>.f.}.8.g.a.h.i.j.k.l.m.l.k.j.i.h.a.g.8.}.f.>.*.&.X _.P A C I F B t z f 0 4 < ^ n.    ",
"    ] ) / 2 9 d l o v E K D u m T W ..*.,.].7.3.o.h.p.m.q.r.s.t.u.t.s.r.q.m.p.h.o.3.7.].,.*...W T m u D K E v o l d 9 2 / v.    ",
"    > ! : 4 0 f z t C I F N o R V :.4.>.].w.9.x.i.l.y.z.A.B.C.C.C.C.C.B.A.z.y.l.i.x.9.w.].>.4.:.V R o N F I C t z f 0 4 : ! ~   ",
"  - ' | 2 8 d g o v E J C t P U ).#.5.f.7.9.b.D.E.F.G.C.C.C.C.C.C.C.C.C.C.C.G.F.E.D.b.9.7.f.5.#.).U P t C J E v o g d 8 2 | -   ",
"  ; ) ( 3 9 e m A B I F N n S W &.=.6.}.3.x.D.H.t.B.C.C.C.C.C.C.C.C.C.C.C.C.C.B.t.H.D.x.3.}.6.=.&.W S n N F I B A m e 9 3 ( I.  ",
"  > ! : 4 0 f n u D K D u P U %.!.,.^.8.o.i.E.t.J.C.C.C.C.C.C.C.C.C.C.C.C.C.C.C.J.t.E.i.o.8.^.,.!.%.U P u D K D u n f 0 4 : !   ",
". , ^ 1 8 a g o w E I B o R Z &.=.<.7.g.h.l.F.B.C.C.C.C.C.C.C.C.C.C.C.C.C.C.C.C.C.B.F.l.h.g.7.<.=.&.Z R o B I E w o g a 8 1 ^ . ",
"+ ' / 2 9 d l s B I F v z T ` #.;.[.8.a.p.y.G.C.C.C.C.C.C.C.C.C.C.C.C.C.C.C.C.C.C.C.G.y.p.a.8.[.;.#.` T z v F I B s l d 9 2 / + ",
"@ ) ( 3 9 e m t C J M u P U  .*.~.}.9.h.m.z.C.C.C.C.C.C.C.C.C.C.C.C.C.C.C.C.C.C.C.C.C.z.m.h.9.}.~.*. .U P u M J C t m e 9 3 ( K.",
"# ) _ 3 0 f n u D K C A Q V ..=.{.|.0.i.q.A.C.C.C.C.C.C.C.C.C.C.C.C.C.C.C.C.C.C.C.C.C.A.q.i.0.|.{.=...V Q A C K D u n f 0 3 _ L.",
"$ ) _ 4 0 f n v E J C O R W +.-.].1.a.j.r.B.C.C.C.C.C.C.C.C.C.C.C.C.C.C.C.C.C.C.C.C.C.B.r.j.a.1.].-.+.W R O C J E v n f 0 4 _ M.",
"% ! : 4 a g o v E I B o S X @.;.^.2.b.k.s.C.C.C.C.C.C.C.C.C.C.C.C.C.C.C.C.C.C.C.C.C.C.C.s.k.b.2.^.;.@.X S o B I E v o g a 4 : N.",
"& ! < 4 a g o w F I B n S Y #.>./.3.c.l.t.C.C.C.C.C.C.C.C.C.C.C.C.C.C.C.C.C.C.C.C.C.C.C.t.l.c.3./.>.#.Y S n B I F w o g a 4 < O.",
"& ! < 4 a g o w F I N n T Y #.,./.3.d.m.u.C.C.C.C.C.C.C.C.C.C.C.C.C.C.C.C.C.C.C.C.C.C.C.u.m.d.3./.,.#.Y T n N I F w o g a 4 < O.",
"% ! < 4 a g o w F I B n S Y #.>./.3.c.l.t.C.C.C.C.C.C.C.C.C.C.C.C.C.C.C.C.C.C.C.C.C.C.C.t.l.c.3./.>.#.Y S n B I F w o g a 4 < N.",
"$ ! : 4 a g o v E I B o S X @.;.^.2.b.k.s.C.C.C.C.C.C.C.C.C.C.C.C.C.C.C.C.C.C.C.C.C.C.C.s.k.b.2.^.;.@.X S o B I E v o g a 4 : M.",
"# ) _ 4 0 f n v E J C O R W +.-.].1.a.j.r.B.C.C.C.C.C.C.C.C.C.C.C.C.C.C.C.C.C.C.C.C.C.B.r.j.a.1.].-.+.W R O C J E v n f 0 4 _ L.",
"* ) _ 3 0 f n u D K C A Q V ..=.{.|.0.i.q.A.C.C.C.C.C.C.C.C.C.C.C.C.C.C.C.C.C.C.C.C.C.A.q.i.0.|.{.=...V Q A C K D u n f 0 3 _ P.",
"+ ) ( 3 9 e m t C J M u P U  .*.~.}.9.h.m.z.C.C.C.C.C.C.C.C.C.C.C.C.C.C.C.C.C.C.C.C.C.z.m.h.9.}.~.*. .U P u M J C t m e 9 3 ( + ",
". ' / 2 9 d l s B I F v z T ` #.;.[.8.a.p.y.G.C.C.C.C.C.C.C.C.C.C.C.C.C.C.C.C.C.C.C.G.y.p.a.8.[.;.#.` T z v F I B s l d 9 2 / . ",
"  , ^ 1 8 a g o w E I B o R Z &.=.<.7.g.h.l.F.B.C.C.C.C.C.C.C.C.C.C.C.C.C.C.C.C.C.B.F.l.h.g.7.<.=.&.Z R o B I E w o g a 8 1 ^   ",
"  ; ! : 4 0 f n u D K D u P U %.!.,.^.8.o.i.E.t.J.C.C.C.C.C.C.C.C.C.C.C.C.C.C.C.J.t.E.i.o.8.^.,.!.%.U P u D K D u n f 0 4 : Q.  ",
"  - ) ( 3 9 e m A B I F N n S W &.=.6.}.3.x.D.H.t.B.C.C.C.C.C.C.C.C.C.C.C.C.C.B.t.H.D.x.3.}.6.=.&.W S n N F I B A m e 9 3 ( R.  ",
"    ' | 2 8 d g o v E J C t P U ).#.5.f.7.9.b.D.E.F.G.C.C.C.C.C.C.C.C.C.C.C.G.F.E.D.b.9.7.f.5.#.).U P t C J E v o g d 8 2 |     ",
"    [ ! : 4 0 f z t C I F N o R V :.4.>.].w.9.x.i.l.y.z.A.B.C.C.C.C.C.B.A.z.y.l.i.x.9.w.].>.4.:.V R o N F I C t z f 0 4 : S.    ",
"    { ) / 2 9 d l o v E K D u m T W ..*.,.].7.3.o.h.p.m.q.r.s.t.u.t.s.r.q.m.p.h.o.3.7.].,.*...W T m u D K E v o l d 9 2 / n.    ",
"      5 ^ < 4 0 f z t B F I C A P _.X &.*.>.f.}.8.g.a.h.i.j.k.l.m.l.k.j.i.h.a.g.8.}.f.>.*.&.X _.P A C I F B t z f 0 4 < T.      ",
"      + ) ( k 9 d g o v D J F B O g _.X ..4.5.6.^.7.8.9.0.a.b.c.d.c.b.a.0.9.8.7.^.6.5.4...X _.g O B F J D v o g d 9 k ( +       ",
"        b ^ < 4 0 e l s w M K E N O g _.W :.#.=.,.<.[.}.|.1.2.3.3.3.2.1.|.}.[.<.,.=.#.:.W _.g O N E K M w s l e 0 4 < U.        ",
"        6 ) / 2 8 a f z A N E K E N O P T V ).&.!.=.;.~.{.].^./././.^.].{.~.;.=.!.&.).V T P O N E K E N A z f a 8 2 / '.        ",
"          h ! _ 3 9 d g n t B E K E B A m R U W %.&.#.*.=.-.;.>.,.>.;.-.=.*.#.&.%.W U R m A B E K E B t n g d 9 3 _ V.          ",
"            p ^ < H 9 d g n u B E K F C u o P S U Z `  ...+.@.#.#.#.@.+... .` Z U S P o u C F K E B u n g d 9 H < W.            ",
"            q ) / 1 4 0 e g n t N M J I D N t n P R T U V W X Y Y Y X W V U T R P n t N D I J M N t n g e 0 4 1 / q             ",
"              x ) / 2 4 0 e g n A w D F K F C N u o z P Q R S S T S S R Q P z o u N C F K F D w A n g e 0 4 2 / X.              ",
"                y ) ( 2 4 0 d g z s v B E I J F D B v u A O o n n n o O A u v B D F J I E B v s z g d 0 4 2 ( Y.                ",
"                  L ) ( 2 4 9 d f l o t v C E I K I F M C C B B N B B C C M F I K I E C v t o l f d 9 4 2 ( Z.                  ",
"                    y ) / 1 H 9 a e g z o t v B D E I J K J I I I I I J K J I E D B v t o z g e a 9 H 1 / Y.                    ",
"                      x ) / < 3 8 0 d f l z o A u w B C D E E F F F E E D C B w u A o z l f d 0 8 3 < / X.                      ",
"                        q p ^ _ 2 4 9 0 d f g m n o s t u v v w w w v v u t s o n m g f d 0 9 4 2 _ W.q                         ",
"                            $.! / < k 4 9 0 d e f g l m n n o o o o o n n m l g f e d 0 9 4 k < / V.                            ",
"                              '.(.^ ( < 2 4 8 9 0 a d e f f g g g g g f f e d a 0 9 8 4 2 < ( U.'.                              ",
"                                  + e.^ / : 2 3 4 8 9 9 0 0 a a a a a 0 0 9 9 8 4 3 2 : / T.+                                   ",
"                                      n.v.! | ( : 1 2 3 3 4 4 4 4 4 4 4 3 3 2 1 : ( | S.n.                                      ",
"                                          ~ - I.! ^ / ( _ _ : < < < : _ _ ( / ^ Q.R.~                                           ",
"                                                  . + K.L.M.N.O.O.N.M.L.P.+ .                                                   "};
