/* XPM */
static char * green3_xpm[] = {
"64 64 205 2",
"  	c #FF00FF",
". 	c #BAAFED",
"+ 	c #A1C3DF",
"@ 	c #93CBCF",
"# 	c #89CCBD",
"$ 	c #7ECBAC",
"% 	c #74C99D",
"& 	c #6EC894",
"* 	c #7CCAAB",
"= 	c #C99FF2",
"- 	c #9EC5DC",
"; 	c #86CCBA",
"> 	c #6EC793",
", 	c #6BC793",
"' 	c #69C691",
") 	c #66C690",
"! 	c #67C590",
"~ 	c #86CBB9",
"{ 	c #A8BEE4",
"] 	c #89CCBC",
"^ 	c #6BC792",
"/ 	c #64C58F",
"( 	c #64C58E",
"_ 	c #61C48E",
": 	c #61C48D",
"< 	c #5FC38C",
"[ 	c #87CCBC",
"} 	c #7BCAA8",
"| 	c #5CC38B",
"1 	c #5DC28A",
"2 	c #5AC28A",
"3 	c #5AC289",
"4 	c #57C189",
"5 	c #79CAA7",
"6 	c #ABBCE6",
"7 	c #80CBB0",
"8 	c #5FC38B",
"9 	c #54C088",
"0 	c #54C087",
"a 	c #51C086",
"b 	c #52BF86",
"c 	c #4EBF85",
"d 	c #4FBF85",
"e 	c #7ECAAF",
"f 	c #92CBCC",
"g 	c #57C188",
"h 	c #4CBE84",
"i 	c #4CBE83",
"j 	c #48BD82",
"k 	c #49BD82",
"l 	c #45BD81",
"m 	c #90CBCC",
"n 	c #AEB9E8",
"o 	c #7ECBAB",
"p 	c #46BC81",
"q 	c #42BC7F",
"r 	c #3EBB7F",
"s 	c #3FBB7E",
"t 	c #3BBA7D",
"u 	c #7CCAAA",
"v 	c #ADB9E7",
"w 	c #9FC5DD",
"x 	c #37BA7C",
"y 	c #38B97B",
"z 	c #34B97A",
"A 	c #2EB87A",
"B 	c #2FB879",
"C 	c #29B879",
"D 	c #2AB778",
"E 	c #99C8D7",
"F 	c #33B97B",
"G 	c #25B777",
"H 	c #1FB676",
"I 	c #17B575",
"J 	c #0CB474",
"K 	c #0EB473",
"L 	c #98C9D5",
"M 	c #00B472",
"N 	c #00B371",
"O 	c #00B270",
"P 	c #00B16F",
"Q 	c #00B16E",
"R 	c #97C9D5",
"S 	c #00B06D",
"T 	c #00AF6C",
"U 	c #00AF6B",
"V 	c #00AE6A",
"W 	c #00AD69",
"X 	c #99C8D6",
"Y 	c #00B372",
"Z 	c #00AC68",
"` 	c #00AC67",
" .	c #9EC4DD",
"..	c #00B473",
"+.	c #00B26F",
"@.	c #07B370",
"#.	c #05B371",
"$.	c #18B574",
"%.	c #14B471",
"&.	c #23B573",
"*.	c #2DB675",
"=.	c #32B777",
"-.	c #36B878",
";.	c #3BB878",
">.	c #3AB879",
",.	c #7AC9A9",
"'.	c #00B271",
").	c #1BB473",
"!.	c #45BA7B",
"~.	c #4CBC7D",
"{.	c #52BD7F",
"].	c #55BE80",
"^.	c #58BE81",
"/.	c #90CBCB",
"(.	c #1CB472",
"_.	c #42BA7A",
":.	c #60C084",
"<.	c #65C287",
"[.	c #6AC388",
"}.	c #6FC48A",
"|.	c #6EC58B",
"1.	c #71C58C",
"2.	c #3EB979",
"3.	c #4FBC7E",
"4.	c #5ABF82",
"5.	c #76C68E",
"6.	c #7CC891",
"7.	c #83CA94",
"8.	c #85CB95",
"9.	c #88CC96",
"0.	c #8ACC97",
"a.	c #12B472",
"b.	c #65C286",
"c.	c #7DC891",
"d.	c #8ECD99",
"e.	c #97D09D",
"f.	c #9AD1A0",
"g.	c #A1D3A3",
"h.	c #A3D4A4",
"i.	c #5DC083",
"j.	c #6CC489",
"k.	c #7BC78F",
"l.	c #92CF9C",
"m.	c #9CD2A1",
"n.	c #A6D5A7",
"o.	c #AED8AC",
"p.	c #B6DAB0",
"q.	c #BCDCB3",
"r.	c #BEDDB4",
"s.	c #C0DDB5",
"t.	c #77C9A5",
"u.	c #7FC992",
"v.	c #9DD2A1",
"w.	c #ABD6A8",
"x.	c #C2DEB6",
"y.	c #CBE1BC",
"z.	c #D2E4C1",
"A.	c #DAE6C5",
"B.	c #DDE7C8",
"C.	c #A7BEE4",
"D.	c #B2D9AD",
"E.	c #D0E3C0",
"F.	c #EAECD0",
"G.	c #F3EFD6",
"H.	c #FAF1DB",
"I.	c #FFF3DE",
"J.	c #FFF3DF",
"K.	c #85CBBA",
"L.	c #94CF9D",
"M.	c #BADBB1",
"N.	c #EEEDD2",
"O.	c #FDF2DD",
"P.	c #FFF6E5",
"Q.	c #FFF8EA",
"R.	c #FFF9EE",
"S.	c #FFFAF0",
"T.	c #FFFAF1",
"U.	c #C89FF2",
"V.	c #CEE3BF",
"W.	c #E5EACC",
"X.	c #F8F0D9",
"Y.	c #FFF6E6",
"Z.	c #FFFCF5",
"`.	c #FFFEFC",
" +	c #FFFFFF",
".+	c #9DC5DC",
"++	c #E6EACE",
"@+	c #FFFBF5",
"#+	c #84CBB8",
"$+	c #FFF8EB",
"%+	c #FFFDF8",
"&+	c #B9AFED",
"*+	c #91CACE",
"=+	c #85CBBC",
"-+	c #7AC9AA",
";+	c #70C79B",
">+	c #67C591",
",+	c #84CAB8",
"'+	c #77C8A5",
")+	c #7CC9AE",
"!+	c #AABBE6",
"~+	c #8ECACA",
"{+	c #78C8A8",
"]+	c #97C7D6",
"^+	c #96C8D4",
"                                                  . + @ # $ % & & % * # @ + .                                                   ",
"                                          = - ; > , ' ' ' ) ) ! ! ! ) ) ' ' ' , ~ - =                                           ",
"                                      { ] , ^ ' ) / ( _ : : : < < < : : : _ ( / ) ' ^ [ {                                       ",
"                                  + } , ' ! ( : : < | 1 2 2 3 3 4 3 3 2 2 1 | < : : ( ! ' 5 +                                   ",
"                              6 7 , ' ! ( : 8 1 3 4 9 0 a b b c d c b b a 0 9 4 3 1 8 : ( ! ' e 6                               ",
"                            f , ' ! _ < | 2 g 0 b d h i j k l l l l l k j i h d b 0 g 2 | < _ ! ' m                             ",
"                        n o ^ ) ( < | 3 9 b d h k p q r s t t t t t t t s r q p k h d b 9 3 | < ( ) u v                         ",
"                      w > ' / : | 2 9 b d j p q s x y z A B C D D D C B A z y x s q p j d b 9 2 | : / ' w                       ",
"                    E , ' ( < 1 g a d j p s t F A D G H I J J J K J J J I H G D A F t s p j d a g 1 < ( ' E                     ",
"                  L , ) ( < 2 9 c i p s x z C G I J M N O P P Q Q Q P P O N M J I G C z x s p i c 9 2 < ( ) R                   ",
"                E , ) _ 8 3 0 d k q t F D H J M O P S T U V V W W W V V U T S P O M J H D F t q k d 0 3 8 _ ) X                 ",
"              w , ) _ | 4 a h l s x B G J Y O S T V Z ` Z W V V V V V W Z ` Z V T S O Y J G B x s l h a 4 | _ )  .              ",
"            n > ' ( 8 4 a h p s F D I ..O S U W ` W U S Q +.O @.#.@.O +.Q S U W ` W U S O ..I D F s p h a 4 8 ( ' v             ",
"            o ' ( < 3 a h p t z G $.N Q T W Z V S +.%.&.*.=.-.;.>.;.-.=.*.&.%.+.S V Z W T Q N $.G z t p h a 3 < ( ,.            ",
"          f ^ / < 2 0 h p t z G J '.S V ` V S O ).*.>.!.~.{.].^.^.^.].{.~.!.>.*.).O S V ` V S '.J G z t p h 0 2 < / /.          ",
"        6 , ) : 1 9 d l s z G J O S W Z T +.(.=._.~.^.:.<.[.}.|.1.|.}.[.<.:.^.~._.=.(.+.T Z W S O J G z s l d 9 1 : ) 6         ",
"        7 ' ( | g c k s F G J O T W W S #.*.2.3.4.<.}.5.6.7.8.9.0.9.8.7.6.5.}.<.4.3.2.*.#.S W W T O J G F s k c g | ( e         ",
"      + , ! < 2 a i q x D $.'.S W W S a.=.!.^.b.1.c.8.d.e.f.g.h.h.h.g.f.e.d.8.c.1.b.^.!.=.a.S W W S '.$.D x q i a 2 < ! +       ",
"      } ' _ | 9 d p t B I N S W W S (.-.~.i.j.k.8.l.m.n.o.p.q.r.s.r.q.p.o.n.m.l.8.k.j.i.~.-.(.S W W S N I B t p d 9 | _ t.      ",
"    { , ! < 3 b j s F G ..Q V Z S a.-.~.:.|.u.d.v.w.p.x.y.z.A.B.B.B.A.z.y.x.p.w.v.d.u.|.:.~.-.a.S Z V Q ..G F s j b 3 < ! C.    ",
"    ] ' ( | 9 d p x D J O T ` T #.=.~.:.1.7.l.h.D.x.E.B.F.G.H.I.J.I.H.G.F.B.E.x.D.h.l.7.1.:.~.=.#.T ` T O J D x p d 9 | ( K.    ",
"    , ! : 2 b j s z H Y S W V +.*.!.i.|.7.L.n.M.y.B.N.O.P.Q.R.S.T.S.R.Q.P.O.N.B.y.M.n.L.7.|.i.!.*.+.V W S Y H z s j b 2 : ! U.  ",
"  - ^ ( 8 g d p t C J O U Z S (.2.^.j.u.l.n.q.V.W.X.Y.R.Z.`. + + + + +`.Z.R.Y.X.W.V.q.n.l.u.j.^.2.(.S Z U O J C t p d g 8 ( .+  ",
"  ; ' : 1 0 h q F G M S W V O =.3.b.k.d.h.M.V.++I.Q.@+ + + + + + + + + + + +@+Q.I.++V.M.h.d.k.b.3.=.O V W S M G F q h 0 1 : #+  ",
"  > ) : 3 b k s A I O T ` S )._.4.1.8.v.D.y.W.I.$+%+ + + + + + + + + + + + + +%+$+I.W.y.D.v.8.1.4._.).S ` T O I A s k b 3 : )   ",
". , / < 4 d p x D J P V W +.*.~.<.c.l.w.x.B.X.Q.%+ + + + + + + + + + + + + + + +%+Q.X.B.x.w.l.c.<.~.*.+.W V P J D x p d 4 < / &+",
"+ ' ( | 9 h q y G M S Z U %.>.^.}.8.m.p.E.N.Y.@+ + + + + + + + + + + + + + + + + +@+Y.N.E.p.m.8.}.^.>.%.U Z S M G y q h 9 | ( + ",
"@ ' _ 1 0 i r z H N T ` S &.!.:.5.d.n.x.B.O.R. + + + + + + + + + + + + + + + + + + +R.O.B.x.n.d.5.:.!.&.S ` T N H z r i 0 1 _ *+",
"# ' : 2 a j s A I O U Z Q *.~.<.6.e.o.y.F.P.Z. + + + + + + + + + + + + + + + + + + +Z.P.F.y.o.e.6.<.~.*.Q Z U O I A s j a 2 : =+",
"$ ) : 2 b k t B J P V W +.=.{.[.7.f.p.z.G.Q.`. + + + + + + + + + + + + + + + + + + +`.Q.G.z.p.f.7.[.{.=.+.W V P J B t k b 2 : -+",
"% ) : 3 b l t C J P V V O -.].}.8.g.q.A.H.R. + + + + + + + + + + + + + + + + + + + + +R.H.A.q.g.8.}.].-.O V V P J C t l b 3 : ;+",
"& ! < 3 c l t D J Q W V @.;.^.|.9.h.r.B.I.S. + + + + + + + + + + + + + + + + + + + + +S.I.B.r.h.9.|.^.;.@.V W Q J D t l c 3 < >+",
"& ! < 4 d l t D K Q W V #.>.^.1.0.h.s.B.J.T. + + + + + + + + + + + + + + + + + + + + +T.J.B.s.h.0.1.^.>.#.V W Q K D t l d 4 < >+",
"% ! < 3 c l t D J Q W V @.;.^.|.9.h.r.B.I.S. + + + + + + + + + + + + + + + + + + + + +S.I.B.r.h.9.|.^.;.@.V W Q J D t l c 3 < ;+",
"* ) : 3 b l t C J P V V O -.].}.8.g.q.A.H.R. + + + + + + + + + + + + + + + + + + + + +R.H.A.q.g.8.}.].-.O V V P J C t l b 3 : -+",
"# ) : 2 b k t B J P V W +.=.{.[.7.f.p.z.G.Q.`. + + + + + + + + + + + + + + + + + + +`.Q.G.z.p.f.7.[.{.=.+.W V P J B t k b 2 : =+",
"@ ' : 2 a j s A I O U Z Q *.~.<.6.e.o.y.F.P.Z. + + + + + + + + + + + + + + + + + + +Z.P.F.y.o.e.6.<.~.*.Q Z U O I A s j a 2 : *+",
"+ ' _ 1 0 i r z H N T ` S &.!.:.5.d.n.x.B.O.R. + + + + + + + + + + + + + + + + + + +R.O.B.x.n.d.5.:.!.&.S ` T N H z r i 0 1 _ + ",
". ' ( | 9 h q y G M S Z U %.>.^.}.8.m.p.E.N.Y.@+ + + + + + + + + + + + + + + + + +@+Y.N.E.p.m.8.}.^.>.%.U Z S M G y q h 9 | ( &+",
"  , / < 4 d p x D J P V W +.*.~.<.c.l.w.x.B.X.Q.%+ + + + + + + + + + + + + + + +%+Q.X.B.x.w.l.c.<.~.*.+.W V P J D x p d 4 < /   ",
"  ~ ) : 3 b k s A I O T ` S )._.4.1.8.v.D.y.W.I.$+%+ + + + + + + + + + + + + +%+$+I.W.y.D.v.8.1.4._.).S ` T O I A s k b 3 : ,+  ",
"  - ' : 1 0 h q F G M S W V O =.3.b.k.d.h.M.V.++I.Q.@+ + + + + + + + + + + +@+Q.I.++V.M.h.d.k.b.3.=.O V W S M G F q h 0 1 : .+  ",
"  = ^ ( 8 g d p t C J O U Z S (.2.^.j.u.l.n.q.V.W.X.Y.R.Z.`. + + + + +`.Z.R.Y.X.W.V.q.n.l.u.j.^.2.(.S Z U O J C t p d g 8 ( U.  ",
"    [ ! : 2 b j s z H Y S W V +.*.!.i.|.7.L.n.M.y.B.N.O.P.Q.R.S.T.S.R.Q.P.O.N.B.y.M.n.L.7.|.i.!.*.+.V W S Y H z s j b 2 : K.    ",
"    { ' ( | 9 d p x D J O T ` T #.=.~.:.1.7.l.h.D.x.E.B.F.G.H.I.J.I.H.G.F.B.E.x.D.h.l.7.1.:.~.=.#.T ` T O J D x p d 9 | ( C.    ",
"      5 ! < 3 b j s F G ..Q V Z S a.-.~.:.|.u.d.v.w.p.x.y.z.A.B.B.B.A.z.y.x.p.w.v.d.u.|.:.~.-.a.S Z V Q ..G F s j b 3 < '+      ",
"      + ' _ | 9 d p t B I N S W W S (.-.~.i.j.k.8.l.m.n.o.p.q.r.s.r.q.p.o.n.m.l.8.k.j.i.~.-.(.S W W S N I B t p d 9 | _ +       ",
"        e ! < 2 a i q x D $.'.S W W S a.=.!.^.b.1.c.8.d.e.f.g.h.h.h.g.f.e.d.8.c.1.b.^.!.=.a.S W W S '.$.D x q i a 2 < )+        ",
"        6 ' ( | g c k s F G J O T W W S #.*.2.3.4.<.}.5.6.7.8.9.0.9.8.7.6.5.}.<.4.3.2.*.#.S W W T O J G F s k c g | ( !+        ",
"          m ) : 1 9 d l s z G J O S W Z T +.(.=._.~.^.:.<.[.}.|.1.|.}.[.<.:.^.~._.=.(.+.T Z W S O J G z s l d 9 1 : ~+          ",
"            u / < 2 0 h p t z G J '.S V ` V S O ).*.>.!.~.{.].^.^.^.].{.~.!.>.*.).O S V ` V S '.J G z t p h 0 2 < {+            ",
"            v ' ( < 3 a h p t z G $.N Q T W Z V S +.%.&.*.=.-.;.>.;.-.=.*.&.%.+.S V Z W T Q N $.G z t p h a 3 < ( v             ",
"              w ' ( 8 4 a h p s F D I ..O S U W ` W U S Q +.O @.#.@.O +.Q S U W ` W U S O ..I D F s p h a 4 8 (  .              ",
"                E ) _ | 4 a h l s x B G J Y O S T V Z ` Z W V V V V V W Z ` Z V T S O Y J G B x s l h a 4 | _ ]+                ",
"                  R ) _ 8 3 0 d k q t F D H J M O P S T U V V W W W V V U T S P O M J H D F t q k d 0 3 8 _ ^+                  ",
"                    X ) ( < 2 9 c i p s x z C G I J M N O P P Q Q Q P P O N M J I G C z x s p i c 9 2 < ( ]+                    ",
"                       .' ( < 1 g a d j p s t F A D G H I J J J K J J J I H G D A F t s p j d a g 1 < (  .                      ",
"                        v ,./ : | 2 9 b d j p q s x y z A B C D D D C B A z y x s q p j d b 9 2 | : {+v                         ",
"                            /.) ( < | 3 9 b d h k p q r s t t t t t t t s r q p k h d b 9 3 | < ( ~+                            ",
"                              6 e ! _ < | 2 g 0 b d h i j k l l l l l k j i h d b 0 g 2 | < _ )+!+                              ",
"                                  + t.! ( : 8 1 3 4 9 0 a b b c d c b b a 0 9 4 3 1 8 : ( '++                                   ",
"                                      C.K.! ( : : < | 1 2 2 3 3 4 3 3 2 2 1 | < : : ( K.C.                                      ",
"                                          U..+#+) / ( _ : : : < < < : : : _ ( / ,+.+U.                                          ",
"                                                  &++ *+=+-+;+>+>+;+-+=+*++ &+                                                  "};
