/* XPM */
static char * green5_xpm[] = {
"64 64 209 2",
"  	c #FF00FF",
". 	c #BCB2EE",
"+ 	c #A9C8E1",
"@ 	c #A0D1D3",
"# 	c #9FD4C3",
"$ 	c #9BD3B5",
"% 	c #98D2A9",
"& 	c #96D1A1",
"* 	c #A0D1D2",
"= 	c #CAA1F3",
"- 	c #A6CADF",
"; 	c #9ED3C1",
"> 	c #96D1A0",
", 	c #96D19F",
"' 	c #94D09F",
") 	c #94D09E",
"! 	c #91CF9E",
"~ 	c #92CF9D",
"{ 	c #9CD3C0",
"] 	c #AEC3E6",
"^ 	c #9ED3C2",
"/ 	c #90CF9C",
"( 	c #90CE9B",
"_ 	c #8ECE9B",
": 	c #8ECE9A",
"< 	c #9CD3C2",
"[ 	c #ADC3E6",
"} 	c #9BD3B1",
"| 	c #92CF9C",
"1 	c #8CCD99",
"2 	c #8CCD98",
"3 	c #8ACC98",
"4 	c #8ACC97",
"5 	c #A8C8E1",
"6 	c #B0C0E7",
"7 	c #9CD3B9",
"8 	c #8ECD99",
"9 	c #88CB96",
"0 	c #88CB95",
"a 	c #86CB94",
"b 	c #86CA94",
"c 	c #9AD2B8",
"d 	c #CD9EF4",
"e 	c #A0D2D0",
"f 	c #88CC96",
"g 	c #84CA93",
"h 	c #82C991",
"i 	c #80C890",
"j 	c #9FD1D0",
"k 	c #B2BDE9",
"l 	c #9BD3B4",
"m 	c #7EC78E",
"n 	c #7BC78D",
"o 	c #7CC78D",
"p 	c #79C68C",
"q 	c #99D2B3",
"r 	c #B1BDE8",
"s 	c #A7CAE0",
"t 	c #77C58B",
"u 	c #77C58A",
"v 	c #75C489",
"w 	c #75C488",
"x 	c #73C488",
"y 	c #A6C9DF",
"z 	c #A3CEDA",
"A 	c #73C487",
"B 	c #71C386",
"C 	c #6EC285",
"D 	c #6FC284",
"E 	c #6CC284",
"F 	c #6CC183",
"G 	c #A3CED9",
"H 	c #A3CFD8",
"I 	c #6AC182",
"J 	c #6AC081",
"K 	c #68C080",
"L 	c #65BF80",
"M 	c #65BF7F",
"N 	c #A2CED7",
"O 	c #67C081",
"P 	c #63BE7E",
"Q 	c #60BD7C",
"R 	c #5EBD7B",
"S 	c #5BBC7A",
"T 	c #5CBC7A",
"U 	c #79C68B",
"V 	c #59BB79",
"W 	c #56BB77",
"X 	c #53BA76",
"Y 	c #54BA76",
"Z 	c #51B975",
"` 	c #71C385",
" .	c #4EB874",
"..	c #4BB772",
"+.	c #48B771",
"@.	c #45B670",
"#.	c #45B66F",
"$.	c #42B56F",
"%.	c #42B56E",
"&.	c #56BA77",
"*.	c #49B670",
"=.	c #4FB771",
"-.	c #52B872",
";.	c #52B873",
">.	c #55B973",
",.	c #4CB771",
"'.	c #5BBA75",
").	c #63BC78",
"!.	c #65BD79",
"~.	c #6ABE7A",
"{.	c #6ABE7B",
"].	c #6DBE7B",
"^.	c #9FD1CF",
"/.	c #60BE7D",
"(.	c #42B56D",
"_.	c #58B974",
":.	c #71C07E",
"<.	c #78C280",
"[.	c #7DC382",
"}.	c #81C484",
"|.	c #84C585",
"1.	c #6FBF7C",
"2.	c #8AC788",
"3.	c #91C88B",
"4.	c #95CA8D",
"5.	c #99CB8F",
"6.	c #9BCB90",
"7.	c #9BCC90",
"8.	c #3FB46D",
"9.	c #4FB872",
"0.	c #5DBB76",
"a.	c #8EC88A",
"b.	c #99CB8E",
"c.	c #A1CD93",
"d.	c #A7CF96",
"e.	c #ADD199",
"f.	c #B3D39C",
"g.	c #B5D39D",
"h.	c #7FC383",
"i.	c #8CC789",
"j.	c #A5CE95",
"k.	c #AFD19A",
"l.	c #B9D49F",
"m.	c #C2D7A4",
"n.	c #C8D9A7",
"o.	c #CDDBAB",
"p.	c #D1DCAD",
"q.	c #99D2B0",
"r.	c #74C07E",
"s.	c #93C98C",
"t.	c #BDD6A1",
"u.	c #D3DDAE",
"v.	c #DEE0B4",
"w.	c #E5E3B9",
"x.	c #EDE5BC",
"y.	c #F0E6BF",
"z.	c #F0E6C0",
"A.	c #C6D9A6",
"B.	c #D5DDAF",
"C.	c #E4E2B8",
"D.	c #FDEAC7",
"E.	c #FFEDCD",
"F.	c #FFEFD0",
"G.	c #FFEFD2",
"H.	c #FFF0D3",
"I.	c #9CD3C1",
"J.	c #CCDAAA",
"K.	c #FFEBC9",
"L.	c #FFF1D6",
"M.	c #FFF2DA",
"N.	c #FFF4DE",
"O.	c #FFF4E0",
"P.	c #FFF4E1",
"Q.	c #E2E1B6",
"R.	c #F8E8C3",
"S.	c #FFF1D7",
"T.	c #FFF6E5",
"U.	c #FFF8EA",
"V.	c #FFF9EF",
"W.	c #FFFAF2",
"X.	c #FFFBF3",
"Y.	c #A5CADE",
"Z.	c #FBE9C5",
"`.	c #FFF6E4",
" +	c #FFF9ED",
".+	c #FFFCF6",
"++	c #FFFFFE",
"@+	c #FFFFFF",
"#+	c #9CD2BF",
"$+	c #FFF3DC",
"%+	c #FFF7E7",
"&+	c #FFFBF5",
"*+	c #A0D0D2",
"=+	c #9DD3C2",
"-+	c #96D1A7",
";+	c #92CF9E",
">+	c #97D1B2",
",+	c #9BD2C2",
"'+	c #9AD2BF",
")+	c #C9A1F3",
"!+	c #9BD2C0",
"~+	c #ADC2E5",
"{+	c #97D1AF",
"]+	c #98D1B6",
"^+	c #AFC0E7",
"/+	c #9ED1CF",
"(+	c #97D1B1",
"_+	c #A3CDD9",
":+	c #A1CED7",
"                                                  . + @ # $ % & & % $ # * + .                                                   ",
"                                          = - ; > , ' ) ) ! ~ ~ ~ ~ ~ ! ) ) ' , { - =                                           ",
"                                      ] ^ > ' ) ~ ~ / ( ( _ : : : : : _ ( ( / ~ ~ ) ' < [                                       ",
"                                  + } , ) ~ | ( _ : 1 1 2 3 4 4 4 4 4 3 2 1 1 : _ ( | ~ ) } 5                                   ",
"                              6 7 , ) ~ / _ 8 1 3 4 9 0 a a b b b b b a a 0 9 4 3 1 8 _ / ~ ) c 6                               ",
"                          d e > ) ~ ( : 1 3 f 9 a g g h h i i i i i i i h h g g a 9 f 3 1 : ( ~ ) j d                           ",
"                        k l ' ~ / : 1 4 9 a g h h i m m n o o p p p o o n m m i h h g a 9 4 1 : / ~ q r                         ",
"                      s > ) ~ ( 1 3 9 a g h i m n p t u v v w x x x w v v u t p n m i h g a 9 3 1 ( ~ ) y                       ",
"                    z , ) / : 1 4 a g h i n p u v x A B C D E F F F E D C B A x v u p n i h g a 4 1 : / ) G                     ",
"                  H , ! / : 3 9 b h i n p u w B C E I J K L M M M M M L K J I E C B w u p n i h b 9 3 : / ! N                   ",
"                z , ~ ( 8 4 0 g h m o u w B D I O M P Q R R S S T S S R R Q P M O I D B w u o m h g 0 4 8 ( ~ G                 ",
"              s , ! ( 1 4 a g i n U v B D I K P Q S V W X Y Z Z Z Z Z Y X W V S Q P K I D B v U n i g a 4 1 ( ! y               ",
"            k > ) / 8 4 a g i n u x ` F K P R T W Y  ...+.@.#.$.%.$.#.@.+... .Y W T R P K F ` x u n i g a 4 8 / ) r             ",
"            l ) / : 4 a g i o u A D I M Q T &.Z ..@.%.%.*.=.-.;.>.;.-.=.*.%.%.@...Z &.T Q M I D A u o i g a 4 : / q             ",
"          e ' ~ : 3 0 g i o u A E O P R W Z ..#.%.,.>.'.).!.~.{.].{.~.!.).'.>.,.%.#...Z W R P O E A u o i g 0 3 : ~ ^.          ",
"        6 > ~ ( 1 9 g i n u A E K /.S X  .@.(.=._.).{.:.<.[.}.|.|.|.}.[.<.:.{.)._.=.(.@. .X S /.K E A u n i g 9 1 ( ~ 6         ",
"        7 ) / 1 4 b h n u A E K /.T Y ..%.*._.).1.<.}.2.3.4.5.6.7.6.5.4.3.2.}.<.1.)._.*.%...Y T /.K E A u n h b 4 1 / c         ",
"      + , ~ : 3 a h m U x D O /.T Y ..8.9.0.{.<.|.a.b.c.d.e.f.g.g.g.f.e.d.c.b.a.|.<.{.0.9.8...Y T /.O D x U m h a 3 : ~ 5       ",
"      } ) ( 1 9 g i o v ` I P S Y ..8.-.).:.h.i.5.j.k.l.m.n.o.p.p.p.o.n.m.l.k.j.5.i.h.:.).-.8...Y S P I ` v o i g 9 1 ( q.      ",
"    ] , ~ : 4 a h n u B F M R X ..8.-.).r.|.s.c.k.t.n.u.v.w.x.y.z.y.x.w.v.u.n.t.k.c.s.|.r.).-.8...X R M F B u n h a 4 : ~ [     ",
"    ^ ) / 1 9 g i p w D K Q W  .%.9.).r.|.4.j.g.A.B.C.z.D.E.F.G.H.G.F.E.D.z.C.B.A.g.j.4.|.r.).9.%. .W Q K D w p i g 9 1 / I.    ",
"    > ~ _ 3 a h n u B I P T Z @.*.0.:.|.4.d.l.J.v.y.K.G.L.M.N.O.P.O.N.M.L.G.K.y.v.J.l.d.4.|.:.0.*.@.Z T P I B u n h a 3 _ ~ =   ",
"  - ' | 8 f g i p w D K R &...(._.{.h.s.j.l.o.Q.R.F.S.N.T.U.V.W.X.W.V.U.T.N.S.F.R.Q.o.l.j.s.h.{._.(...&.R K D w p i g f 8 | Y.  ",
"  ; ) ( 1 9 h m u B I P T Z #.=.).<.i.c.g.J.Q.Z.G.M.`. +.+++@+@+@+@+@+++.+ +`.M.G.Z.Q.J.g.c.i.<.).=.#.Z T P I B u m h 9 1 ( #+  ",
"  > ~ _ 3 a h n v C O Q W ..%._.1.|.5.k.A.v.R.G.$+%+X.@+@+@+@+@+@+@+@+@+@+@+X.%+$+G.R.v.A.k.5.|.1._.%...W Q O C v n h a 3 _ ~   ",
". , ~ : 4 g i p x E M S Y @.,.).<.a.j.t.B.y.F.M.%+&+@+@+@+@+@+@+@+@+@+@+@+@+@+&+%+M.F.y.B.t.j.a.<.).,.@.Y S M E x p i g 4 : ~ . ",
"+ ' / 1 9 g m t A I P V  .%.>.{.}.b.k.n.C.K.S.`.X.@+@+@+@+@+@+@+@+@+@+@+@+@+@+@+X.`.S.K.C.n.k.b.}.{.>.%. .V P I A t m g 9 1 / 5 ",
"@ ) ( 1 0 h m u B J Q W ..%.'.:.2.c.l.u.z.G.N. +@+@+@+@+@+@+@+@+@+@+@+@+@+@+@+@+@+ +N.G.z.u.l.c.2.:.'.%...W Q J B u m h 0 1 ( *+",
"# ) ( 2 a h n v C K R X +.*.).<.3.d.m.v.D.L.T..+@+@+@+@+@+@+@+@+@+@+@+@+@+@+@+@+@+.+T.L.D.v.m.d.3.<.).*.+.X R K C v n h a 2 ( =+",
"$ ! _ 3 a i o v D L R Y @.=.!.[.4.e.n.w.E.M.U.++@+@+@+@+@+@+@+@+@+@+@+@+@+@+@+@+@+++U.M.E.w.n.e.4.[.!.=.@.Y R L D v o i a 3 _ q ",
"% ~ : 4 b i o w E M S Z #.-.~.}.5.f.o.x.F.N.V.@+@+@+@+@+@+@+@+@+@+@+@+@+@+@+@+@+@+@+V.N.F.x.o.f.5.}.~.-.#.Z S M E w o i b 4 : -+",
"& ~ : 4 b i p x F M S Z $.;.{.|.6.g.p.y.G.O.W.@+@+@+@+@+@+@+@+@+@+@+@+@+@+@+@+@+@+@+W.O.G.y.p.g.6.|.{.;.$.Z S M F x p i b 4 : ' ",
"& ~ : 4 b i p x F M T Z %.>.].|.7.g.p.z.H.P.X.@+@+@+@+@+@+@+@+@+@+@+@+@+@+@+@+@+@+@+X.P.H.z.p.g.7.|.].>.%.Z T M F x p i b 4 : ;+",
"% ~ : 4 b i p x F M S Z $.;.{.|.6.g.p.y.G.O.W.@+@+@+@+@+@+@+@+@+@+@+@+@+@+@+@+@+@+@+W.O.G.y.p.g.6.|.{.;.$.Z S M F x p i b 4 : -+",
"$ ~ : 4 b i o w E M S Z #.-.~.}.5.f.o.x.F.N.V.@+@+@+@+@+@+@+@+@+@+@+@+@+@+@+@+@+@+@+V.N.F.x.o.f.5.}.~.-.#.Z S M E w o i b 4 : >+",
"# ! _ 3 a i o v D L R Y @.=.!.[.4.e.n.w.E.M.U.++@+@+@+@+@+@+@+@+@+@+@+@+@+@+@+@+@+++U.M.E.w.n.e.4.[.!.=.@.Y R L D v o i a 3 _ ,+",
"* ) ( 2 a h n v C K R X +.*.).<.3.d.m.v.D.L.T..+@+@+@+@+@+@+@+@+@+@+@+@+@+@+@+@+@+.+T.L.D.v.m.d.3.<.).*.+.X R K C v n h a 2 ( *+",
"+ ) ( 1 0 h m u B J Q W ..%.'.:.2.c.l.u.z.G.N. +@+@+@+@+@+@+@+@+@+@+@+@+@+@+@+@+@+ +N.G.z.u.l.c.2.:.'.%...W Q J B u m h 0 1 ( 5 ",
". ' / 1 9 g m t A I P V  .%.>.{.}.b.k.n.C.K.S.`.X.@+@+@+@+@+@+@+@+@+@+@+@+@+@+@+X.`.S.K.C.n.k.b.}.{.>.%. .V P I A t m g 9 1 / . ",
"  , ~ : 4 g i p x E M S Y @.,.).<.a.j.t.B.y.F.M.%+&+@+@+@+@+@+@+@+@+@+@+@+@+@+&+%+M.F.y.B.t.j.a.<.).,.@.Y S M E x p i g 4 : ~   ",
"  { ~ _ 3 a h n v C O Q W ..%._.1.|.5.k.A.v.R.G.$+%+X.@+@+@+@+@+@+@+@+@+@+@+X.%+$+G.R.v.A.k.5.|.1._.%...W Q O C v n h a 3 _ '+  ",
"  - ) ( 1 9 h m u B I P T Z #.=.).<.i.c.g.J.Q.Z.G.M.`. +.+++@+@+@+@+@+++.+ +`.M.G.Z.Q.J.g.c.i.<.).=.#.Z T P I B u m h 9 1 ( Y.  ",
"    ' | 8 f g i p w D K R &...(._.{.h.s.j.l.o.Q.R.F.S.N.T.U.V.W.X.W.V.U.T.N.S.F.R.Q.o.l.j.s.h.{._.(...&.R K D w p i g f 8 | )+  ",
"    < ~ _ 3 a h n u B I P T Z @.*.0.:.|.4.d.l.J.v.y.K.G.L.M.N.O.P.O.N.M.L.G.K.y.v.J.l.d.4.|.:.0.*.@.Z T P I B u n h a 3 _ !+    ",
"    [ ) / 1 9 g i p w D K Q W  .%.9.).r.|.4.j.g.A.B.C.z.D.E.F.G.H.G.F.E.D.z.C.B.A.g.j.4.|.r.).9.%. .W Q K D w p i g 9 1 / ~+    ",
"      } ~ : 4 a h n u B F M R X ..8.-.).r.|.s.c.k.t.n.u.v.w.x.y.z.y.x.w.v.u.n.t.k.c.s.|.r.).-.8...X R M F B u n h a 4 : {+      ",
"      5 ) ( 1 9 g i o v ` I P S Y ..8.-.).:.h.i.5.j.k.l.m.n.o.p.p.p.o.n.m.l.k.j.5.i.h.:.).-.8...Y S P I ` v o i g 9 1 ( 5       ",
"        c ~ : 3 a h m U x D O /.T Y ..8.9.0.{.<.|.a.b.c.d.e.f.g.g.g.f.e.d.c.b.a.|.<.{.0.9.8...Y T /.O D x U m h a 3 : ]+        ",
"        6 ) / 1 4 b h n u A E K /.T Y ..%.*._.).1.<.}.2.3.4.5.6.7.6.5.4.3.2.}.<.1.)._.*.%...Y T /.K E A u n h b 4 1 / ^+        ",
"          j ~ ( 1 9 g i n u A E K /.S X  .@.(.=._.).{.:.<.[.}.|.|.|.}.[.<.:.{.)._.=.(.@. .X S /.K E A u n i g 9 1 ( /+          ",
"            q ~ : 3 0 g i o u A E O P R W Z ..#.%.,.>.'.).!.~.{.].{.~.!.).'.>.,.%.#...Z W R P O E A u o i g 0 3 : (+            ",
"            r ) / : 4 a g i o u A D I M Q T &.Z ..@.%.%.*.=.-.;.>.;.-.=.*.%.%.@...Z &.T Q M I D A u o i g a 4 : / r             ",
"              y ) / 8 4 a g i n u x ` F K P R T W Y  ...+.@.#.$.%.$.#.@.+... .Y W T R P K F ` x u n i g a 4 8 / y               ",
"                G ! ( 1 4 a g i n U v B D I K P Q S V W X Y Z Z Z Z Z Y X W V S Q P K I D B v U n i g a 4 1 ( _+                ",
"                  N ~ ( 8 4 0 g h m o u w B D I O M P Q R R S S T S S R R Q P M O I D B w u o m h g 0 4 8 ( :+                  ",
"                    G ! / : 3 9 b h i n p u w B C E I J K L M M M M M L K J I E C B w u p n i h b 9 3 : / _+                    ",
"                      y ) / : 1 4 a g h i n p u v x A B C D E F F F E D C B A x v u p n i h g a 4 1 : / y                       ",
"                        r q ~ ( 1 3 9 a g h i m n p t u v v w x x x w v v u t p n m i h g a 9 3 1 ( (+r                         ",
"                          d ^.~ / : 1 4 9 a g h h i m m n o o p p p o o n m m i h h g a 9 4 1 : / /+d                           ",
"                              6 c ~ ( : 1 3 f 9 a g g h h i i i i i i i h h g g a 9 f 3 1 : ( ]+^+                              ",
"                                  5 q.~ / _ 8 1 3 4 9 0 a a b b b b b a a 0 9 4 3 1 8 _ / {+5                                   ",
"                                      [ I.~ | ( _ : 1 1 2 3 4 4 4 4 4 3 2 1 1 : _ ( | !+~+                                      ",
"                                          = Y.#+~ ~ / ( ( _ : : : : : _ ( ( / ~ '+Y.)+                                          ",
"                                                  . 5 *+=+q -+' ;+-+>+,+*+5 .                                                   "};
