/* XPM */
static char * green7_xpm[] = {
"64 64 186 2",
"  	c #FF00FF",
". 	c #BEB4EE",
"+ 	c #AECBE3",
"@ 	c #ABD6D6",
"# 	c #ACD9C9",
"$ 	c #AED9BC",
"% 	c #B0D9B3",
"& 	c #B0D8AD",
"* 	c #AAD5D6",
"= 	c #ACCEE0",
"- 	c #ACD9C7",
"; 	c #AED8AB",
"> 	c #AFD7AA",
", 	c #ADD7AA",
"' 	c #ADD7A9",
") 	c #ACD9C6",
"! 	c #CBA3F3",
"~ 	c #B1C5E7",
"{ 	c #ACD9C8",
"] 	c #ABD6A8",
"^ 	c #ABD6A7",
"/ 	c #A9D5A6",
"( 	c #B0D9BA",
"_ 	c #A7D4A5",
": 	c #A7D4A4",
"< 	c #A5D4A3",
"[ 	c #AED9B9",
"} 	c #ADCBE3",
"| 	c #B3C2E9",
"1 	c #ACD9BF",
"2 	c #A5D3A3",
"3 	c #A6D3A2",
"4 	c #A4D3A1",
"5 	c #B3C2E8",
"6 	c #CE9FF4",
"7 	c #AAD6D4",
"8 	c #A2D29F",
"9 	c #A0D19E",
"0 	c #A0D19D",
"a 	c #AAD6D3",
"b 	c #B5C0EA",
"c 	c #9ED09C",
"d 	c #9CD09B",
"e 	c #9CCF9A",
"f 	c #9DCF9A",
"g 	c #9ACF99",
"h 	c #AED9BB",
"i 	c #ACCDE1",
"j 	c #A9D5A5",
"k 	c #9BCF98",
"l 	c #99CE97",
"m 	c #97CD96",
"n 	c #97CD95",
"o 	c #ABD2DC",
"p 	c #98CE98",
"q 	c #95CC94",
"r 	c #93CC93",
"s 	c #93CB92",
"t 	c #91CB91",
"u 	c #AAD1DC",
"v 	c #ABD3DB",
"w 	c #8FCA8F",
"x 	c #8DC98E",
"y 	c #AAD3DA",
"z 	c #8BC88C",
"A 	c #89C88B",
"B 	c #89C78B",
"C 	c #87C789",
"D 	c #85C688",
"E 	c #83C586",
"F 	c #81C485",
"G 	c #7FC484",
"H 	c #7FC383",
"I 	c #7DC382",
"J 	c #7BC281",
"K 	c #7BC280",
"L 	c #79C17F",
"M 	c #79C17E",
"N 	c #8FCA90",
"O 	c #77C17E",
"P 	c #75C07C",
"Q 	c #72BF7B",
"R 	c #73BF7A",
"S 	c #70BE79",
"T 	c #71BE79",
"U 	c #ACD8BA",
"V 	c #86C687",
"W 	c #77C07D",
"X 	c #6CBD76",
"Y 	c #6ABC75",
"Z 	c #67BB74",
"` 	c #68BB73",
" .	c #65BA72",
"..	c #A9D6D3",
"+.	c #6EBD78",
"@.	c #6DBC75",
"#.	c #71BD77",
"$.	c #76BE78",
"%.	c #7BC07A",
"&.	c #7DC07B",
"*.	c #81C585",
"=.	c #84C27E",
"-.	c #8AC480",
";.	c #8EC582",
">.	c #93C684",
",.	c #95C785",
"'.	c #7DC381",
").	c #6CBC76",
"!.	c #72BD76",
"~.	c #88C380",
"{.	c #91C684",
"].	c #9BC988",
"^.	c #A1CA8B",
"/.	c #A7CC8D",
"(.	c #ABCD90",
"_.	c #AFCE91",
":.	c #6ABB74",
"<.	c #79BF79",
"[.	c #86C37F",
"}.	c #9DC989",
"|.	c #A9CD8F",
"1.	c #B3D094",
"2.	c #BBD298",
"3.	c #C3D49B",
"4.	c #C6D59D",
"5.	c #CAD69F",
"6.	c #CCD7A0",
"7.	c #ACD8B7",
"8.	c #8CC481",
"9.	c #A7CC8E",
"0.	c #B5D095",
"a.	c #CED8A1",
"b.	c #D7DAA6",
"c.	c #DFDDAA",
"d.	c #E6DFAF",
"e.	c #EAE0B0",
"f.	c #EAE0B1",
"g.	c #9FCA89",
"h.	c #BFD399",
"i.	c #CED8A2",
"j.	c #DDDCA9",
"k.	c #F6E4B8",
"l.	c #FFE7BD",
"m.	c #FFE9C1",
"n.	c #FFEBC5",
"o.	c #FFEBC6",
"p.	c #AAD8C7",
"q.	c #C4D59C",
"r.	c #FAE5BA",
"s.	c #FFEAC3",
"t.	c #FFECC9",
"u.	c #FFEDCC",
"v.	c #FFEECF",
"w.	c #FFEFD0",
"x.	c #FFEFD1",
"y.	c #DBDCA9",
"z.	c #F1E2B5",
"A.	c #FFF0D5",
"B.	c #FFF2DA",
"C.	c #FFF3DD",
"D.	c #FFF4E0",
"E.	c #FFF4E1",
"F.	c #ABCDE0",
"G.	c #F3E3B6",
"H.	c #FFF0D4",
"I.	c #FFF3DC",
"J.	c #FFF6E4",
"K.	c #FFF8EA",
"L.	c #FFFAF0",
"M.	c #FFFBF4",
"N.	c #FFFBF5",
"O.	c #AAD8C5",
"P.	c #FFEECE",
"Q.	c #FFF1D6",
"R.	c #FFF8EB",
"S.	c #FFFCF6",
"T.	c #FFFFFF",
"U.	c #FFF5E2",
"V.	c #A9D5D5",
"W.	c #ABD8C8",
"X.	c #ACD8BB",
"Y.	c #ACD7B0",
"Z.	c #ABD8C7",
"`.	c #ABD8BE",
" +	c #A9D5D3",
".+	c #B4C0E9",
"                                                  . + @ # $ % & & % $ # * + .                                                   ",
"                                            = - ; ; > , ' ' ' ' ' ' ' ' ' , > ; ) = !                                           ",
"                                      ~ { ; > , ' ] ] ^ ^ / / / / / / / ^ ^ ] ] ' , > { ~                                       ",
"                                  + ( ; , ' ] ^ / / _ _ : : : < < < : : : _ _ / / ^ ] ' , [ }                                   ",
"                              | 1 ; , ' ^ / / _ : 2 3 4 4 4 4 4 4 4 4 4 4 4 3 2 : _ / / ^ ' , 1 5                               ",
"                          6 7 ; , ' ^ / _ : 2 4 4 8 8 9 0 0 0 0 0 0 0 0 0 9 8 8 4 4 2 : _ / ^ ' , a 6                           ",
"                        b $ > ' ] / _ : 3 4 8 8 0 c c d e e f g g g f e e d c c 0 8 8 4 3 : _ / ] ' h b                         ",
"                      i ; , ] ^ j : 2 4 8 0 c c e g k l l m m n n n m m l l k g e c c 0 8 4 2 : j ^ ] , i                       ",
"                    o ; ' ] / _ 2 4 8 0 c e g p l n q q r s s s t s s s r q q n l p g e c 0 8 4 2 _ / ] ' u                     ",
"                  v ; ' ] / : 3 4 9 c e g l m q r s t w w x x x x x x x w w t s r q m l g e c 9 4 3 : / ] ' y                   ",
"                o ; ' ^ / : 4 8 0 c f l m q s t w x z A B C C C C C C C B A z x w t s q m l f c 0 8 4 : / ^ ' u                 ",
"              i ; ' ^ j < 4 8 0 e k l q s t x z A C D E E F F G G G F F E E D C A z x t s q l k e 0 8 4 < j ^ ' i               ",
"            b ; ' ] / < 4 8 c e p n q t w z B D E F H I J K L L M L L K J I H F E D B z w t q n p e c 8 4 < / ] ' b             ",
"          6 $ , ] / : 4 8 c e l n s N x A C E G I K O P Q R S T T T S R Q P O K I G E C A x N s n l e c 8 4 : / ] U 6           ",
"          7 > ] / : 4 8 c e l q s w z C V F I L W R T X Y Z `  . . .` Z Y X T R W L I F V C z w s q l e c 8 4 : / ] ..          ",
"        | ; ' ^ _ 3 8 0 e l q s w z C E H K W R +.Y  .@.#.$.%.&.&.&.%.$.#.@. .Y +.R W K H E C z w s q l e 0 8 3 _ ^ ' 5         ",
"        1 , ] j 2 4 0 e p n s w z D *.I M Q +.Y ` #.%.=.-.;.>.,.,.,.>.;.-.=.%.#.` Y +.Q M I *.D z w s n p e 0 4 2 j ] 1         ",
"      + ; ' / : 4 9 c k n s w z D F '.O R ). .!.&.~.{.].^./.(._._._.(./.^.].{.~.&.!. .).R O '.F D z w s n k c 9 4 : / ' }       ",
"      ( , ^ _ 2 8 c f l q N z C *.'.W S Y :.<.[.>.}.|.1.2.3.4.5.6.5.4.3.2.1.|.}.>.[.<.:.Y S W '.*.C z N q l f c 8 2 _ ^ 7.      ",
"    ~ ; ' / : 4 0 e l q t x C E I O S Y @.&.8.].9.0.3.a.b.c.d.e.f.e.d.c.b.a.3.0.9.].8.&.@.Y S O I E C x t q l e 0 4 : / ' ~     ",
"    { , ^ _ 3 8 c g m s w A V H M R Y @.&.;.g._.h.i.j.f.k.l.m.n.o.n.m.l.k.f.j.i.h._.g.;.&.@.Y R M H V A w s m g c 8 3 _ ^ p.    ",
"  ! ; ' / : 4 0 e l q t z C F K Q ).:.&.;.^.1.q.b.e.r.s.t.u.v.w.x.w.v.u.t.s.r.e.b.q.1.^.;.&.:.).Q K F C z t q l e 0 4 : / ' !   ",
"  = > ] / 2 8 c g m s x B E I W +. .<.8.g.1.4.y.z.m.t.v.A.B.C.D.E.D.C.B.A.v.t.m.z.y.4.1.g.8.<. .+.W I E B x s m g c 8 2 / ] F.  ",
"  - , ^ _ 4 8 c p q t z D G L R Y !.[.]._.q.y.G.n.u.H.I.J.K.L.M.N.M.L.K.J.I.H.u.n.G.y.q._.].[.!.Y R L G D z t q p c 8 4 _ ^ O.  ",
"  ; ' / : 4 0 e l r w A E I W +.` &.>.9.h.b.z.n.P.Q.E.R.S.T.T.T.T.T.T.T.S.R.E.Q.P.n.z.b.h.9.>.&.` +.W I E A w r l e 0 4 : / '   ",
". ; ] / 2 8 c g n s x C F K R Y #.~.}.0.i.e.m.u.Q.U.L.T.T.T.T.T.T.T.T.T.T.T.L.U.Q.u.m.e.i.0.}.~.#.Y R K F C x s n g c 8 2 / ] . ",
"+ > ] _ 3 8 c k q t z D H O T  .%.{.|.3.j.r.t.H.E.L.T.T.T.T.T.T.T.T.T.T.T.T.T.L.E.H.t.r.j.3.|.{.%. .T O H D z t q k c 8 3 _ ] } ",
"@ , ^ _ 4 9 d l q w A E I P X @.=.].1.a.f.s.v.I.R.T.T.T.T.T.T.T.T.T.T.T.T.T.T.T.R.I.v.s.f.a.1.].=.@.X P I E A w q l d 9 4 _ ^ V.",
"# ' ^ : 4 0 e l r w B E J Q Y #.-.^.2.b.k.t.A.J.S.T.T.T.T.T.T.T.T.T.T.T.T.T.T.T.S.J.A.t.k.b.2.^.-.#.Y Q J E B w r l e 0 4 : ^ W.",
"$ ' / : 4 0 e m s x C F K R Z $.;./.3.c.l.u.B.K.T.T.T.T.T.T.T.T.T.T.T.T.T.T.T.T.T.K.B.u.l.c.3./.;.$.Z R K F C x s m e 0 4 : / X.",
"% ' / : 4 0 f m s x C F L S ` %.>.(.4.d.m.v.C.L.T.T.T.T.T.T.T.T.T.T.T.T.T.T.T.T.T.L.C.v.m.d.4.(.>.%.` S L F C x s m f 0 4 : / Y.",
"& ' / < 4 0 g n s x C G L T  .&.,._.5.e.n.w.D.M.T.T.T.T.T.T.T.T.T.T.T.T.T.T.T.T.T.M.D.w.n.e.5._.,.&. .T L G C x s n g 0 4 < / ' ",
"& ' / < 4 0 g n t x C G M T  .&.,._.6.f.o.x.E.N.T.T.T.T.T.T.T.T.T.T.T.T.T.T.T.T.T.N.E.x.o.f.6._.,.&. .T M G C x t n g 0 4 < / ' ",
"% ' / < 4 0 g n s x C G L T  .&.,._.5.e.n.w.D.M.T.T.T.T.T.T.T.T.T.T.T.T.T.T.T.T.T.M.D.w.n.e.5._.,.&. .T L G C x s n g 0 4 < / Y.",
"$ ' / : 4 0 f m s x C F L S ` %.>.(.4.d.m.v.C.L.T.T.T.T.T.T.T.T.T.T.T.T.T.T.T.T.T.L.C.v.m.d.4.(.>.%.` S L F C x s m f 0 4 : / X.",
"# ' / : 4 0 e m s x C F K R Z $.;./.3.c.l.u.B.K.T.T.T.T.T.T.T.T.T.T.T.T.T.T.T.T.T.K.B.u.l.c.3./.;.$.Z R K F C x s m e 0 4 : / Z.",
"* ' ^ : 4 0 e l r w B E J Q Y #.-.^.2.b.k.t.A.J.S.T.T.T.T.T.T.T.T.T.T.T.T.T.T.T.S.J.A.t.k.b.2.^.-.#.Y Q J E B w r l e 0 4 : ^ V.",
"+ , ^ _ 4 9 d l q w A E I P X @.=.].1.a.f.s.v.I.R.T.T.T.T.T.T.T.T.T.T.T.T.T.T.T.R.I.v.s.f.a.1.].=.@.X P I E A w q l d 9 4 _ ^ } ",
". > ] _ 3 8 c k q t z D H O T  .%.{.|.3.j.r.t.H.E.L.T.T.T.T.T.T.T.T.T.T.T.T.T.L.E.H.t.r.j.3.|.{.%. .T O H D z t q k c 8 3 _ ] . ",
"  ; ] / 2 8 c g n s x C F K R Y #.~.}.0.i.e.m.u.Q.U.L.T.T.T.T.T.T.T.T.T.T.T.L.U.Q.u.m.e.i.0.}.~.#.Y R K F C x s n g c 8 2 / ]   ",
"  ) ' / : 4 0 e l r w A E I W +.` &.>.9.h.b.z.n.P.Q.E.R.S.T.T.T.T.T.T.T.S.R.E.Q.P.n.z.b.h.9.>.&.` +.W I E A w r l e 0 4 : / O.  ",
"  = , ^ _ 4 8 c p q t z D G L R Y !.[.]._.q.y.G.n.u.H.I.J.K.L.M.N.M.L.K.J.I.H.u.n.G.y.q._.].[.!.Y R L G D z t q p c 8 4 _ ^ F.  ",
"    > ] / 2 8 c g m s x B E I W +. .<.8.g.1.4.y.z.m.t.v.A.B.C.D.E.D.C.B.A.v.t.m.z.y.4.1.g.8.<. .+.W I E B x s m g c 8 2 / ] !   ",
"    { ' / : 4 0 e l q t z C F K Q ).:.&.;.^.1.q.b.e.r.s.t.u.v.w.x.w.v.u.t.s.r.e.b.q.1.^.;.&.:.).Q K F C z t q l e 0 4 : / p.    ",
"    ~ , ^ _ 3 8 c g m s w A V H M R Y @.&.;.g._.h.i.j.f.k.l.m.n.o.n.m.l.k.f.j.i.h._.g.;.&.@.Y R M H V A w s m g c 8 3 _ ^ ~     ",
"      [ ' / : 4 0 e l q t x C E I O S Y @.&.8.].9.0.3.a.b.c.d.e.f.e.d.c.b.a.3.0.9.].8.&.@.Y S O I E C x t q l e 0 4 : / 7.      ",
"      } , ^ _ 2 8 c f l q N z C *.'.W S Y :.<.[.>.}.|.1.2.3.4.5.6.5.4.3.2.1.|.}.>.[.<.:.Y S W '.*.C z N q l f c 8 2 _ ^ }       ",
"        1 ' / : 4 9 c k n s w z D F '.O R ). .!.&.~.{.].^./.(._._._.(./.^.].{.~.&.!. .).R O '.F D z w s n k c 9 4 : / `.        ",
"        5 , ] j 2 4 0 e p n s w z D *.I M Q +.Y ` #.%.=.-.;.>.,.,.,.>.;.-.=.%.#.` Y +.Q M I *.D z w s n p e 0 4 2 j ] 5         ",
"          a ' ^ _ 3 8 0 e l q s w z C E H K W R +.Y  .@.#.$.%.&.&.&.%.$.#.@. .Y +.R W K H E C z w s q l e 0 8 3 _ ^  +          ",
"            h ] / : 4 8 c e l q s w z C V F I L W R T X Y Z `  . . .` Z Y X T R W L I F V C z w s q l e c 8 4 : / U 6           ",
"            b , ] / : 4 8 c e l n s N x A C E G I K O P Q R S T T T S R Q P O K I G E C A x N s n l e c 8 4 : / ] .+            ",
"              i ' ] / < 4 8 c e p n q t w z B D E F H I J K L L M L L K J I H F E D B z w t q n p e c 8 4 < / ] i               ",
"                u ' ^ j < 4 8 0 e k l q s t x z A C D E E F F G G G F F E E D C A z x t s q l k e 0 8 4 < j ^ u                 ",
"                  y ' ^ / : 4 8 0 c f l m q s t w x z A B C C C C C C C B A z x w t s q m l f c 0 8 4 : / ^ y                   ",
"                    u ' ] / : 3 4 9 c e g l m q r s t w w x x x x x x x w w t s r q m l g e c 9 4 3 : / ] u                     ",
"                      i ' ] / _ 2 4 8 0 c e g p l n q q r s s s t s s s r q q n l p g e c 0 8 4 2 _ / ] i                       ",
"                        b U ] ^ j : 2 4 8 0 c c e g k l l m m n n n m m l l k g e c c 0 8 4 2 : j ^ U .+                        ",
"                          6 ..' ] / _ : 3 4 8 8 0 c c d e e f g g g f e e d c c 0 8 8 4 3 : _ / ]  +6                           ",
"                              5 1 ' ^ / _ : 2 4 4 8 8 9 0 0 0 0 0 0 0 0 0 9 8 8 4 4 2 : _ / ^ `.5                               ",
"                                  } 7.' ^ / / _ : 2 3 4 4 4 4 4 4 4 4 4 4 4 3 2 : _ / / ^ 7.}                                   ",
"                                      ~ p.' ] ^ / / _ _ : : : < < < : : : _ _ / / ^ ] p.~                                       ",
"                                          ! F.O.' ] ] ^ ^ / / / / / / / ^ ^ ] ] O.F.!                                           ",
"                                                  . } V.W.X.Y.' ' Y.X.Z.V.} .                                                   "};
